<?xml version="1.0" encoding="UTF-8"?><svg id="uuid-299103e0-f2e5-4de4-bfa8-2aeb73ca6db2" xmlns="http://www.w3.org/2000/svg" width="900" height="750" xmlns:xlink="http://www.w3.org/1999/xlink" viewBox="0 0 900 750"><defs><pattern id="uuid-560e62b4-39dc-4f19-8ebd-5ceabec037a2" x="0" y="0" width="195.87" height="199.96" patternTransform="translate(-1380 -2310)" patternUnits="userSpaceOnUse" viewBox="0 0 195.87 199.96"><rect y="0" width="195.87" height="199.96" fill="none" stroke-width="0"/><path d="M195.57,239c-.51-2.89-1.03-5.77-1.52-8.67-.63-3.76-1.52-7.5-1.76-11.29-.29-4.59-1.98-8.49-4.31-12.33-.94-1.54-1.32-3.46-1.75-5.26-.4-1.7.59-3.03,1.58-4.32.73-.94,1.44-1.9,2.07-2.91,1.09-1.75,2.88-2.36,4.68-2.84,2.7-.72,5.48-.99,8.25-.36,2.84.64,5.47-.16,8.16-.85,3.92-1.01,7.86-1.91,11.82-2.73,3.52-.73,7.06-1.38,10.62-1.89,5.7-.81,11.44-1.42,17.15-2.22,4.36-.61,8.69-1.53,13.06-2.01,3.94-.43,7.92-.54,11.89-.62,1.9-.04,3.31,1.16,4.53,2.55,1.96,2.22,3.83,4.45,3.9,7.67.06,2.47-1.32,4.87-3.63,5.8-4.57,1.84-9.32,2.85-14.22,3.38-4.05.44-8.07,1.2-12.1,1.85-.36.06-.69.29-1.04.45.3.16.59.34.9.47,1.45.64,2.96,1.18,4.36,1.91,2.37,1.23,4.78.27,7.17.3,3.12.04,6.26-.09,9.37.12,2.24.15,3.61,1.87,4.8,3.59.9,1.31,1.52,2.82,2.52,4.03,1.91,2.33.23,5.94-2.28,6.41-3.17.59-6.46.9-9.68.78-3.63-.13-7.24-.87-10.86-1.35-1.25-.16-2.51-.34-3.77-.48-.2-.02-.41.1-.62.16.17.1.34.19.5.3,2.58,1.73,5.64,2.08,8.5,3.03,2.45.81,4.88,1.7,7.25,2.73,1.96.85,2.27,2.99,3.03,4.69.6,1.35.89,2.88,1.11,4.35.36,2.33-1.02,3.93-3.39,3.82-1.85-.09-3.79-.24-5.51-.86-5.86-2.12-11.63-4.51-17.47-6.71-2.9-1.09-5.88-1.99-8.82-2.98-2.82-.95-5.63-1.91-8.45-2.84-.31-.1-.67-.07-1-.1.12.28.16.64.36.84,2.53,2.64,5.07,5.27,7.64,7.87,1.36,1.37,2.86,2.62,4.2,4.01,3.03,3.13,6.07,6.26,8.98,9.5,1.37,1.53,2.56,3.25,3.64,5,.38.62.44,1.68.21,2.41-.76,2.46-1.59,4.91-2.63,7.26-1.69,3.82-5.44,4.04-8.21,2.11-3.39-2.36-6.32-5.39-9.44-8.15-1.66-1.47-3.59-2.76-4.87-4.52-1.81-2.5-3.99-4.51-6.38-6.38-1.97-1.53-3.89-3.12-5.85-4.66-.23-.18-.53-.26-.8-.39-.09.29-.29.59-.26.87.45,3.65.85,7.32,1.43,10.95.74,4.61,1.54,9.22,2.49,13.8.61,2.97.23,5.85-.05,8.79-.15,1.57-.93,2.64-2.17,3.33-2.31,1.29-4.68,2.48-7.06,3.63-2.38,1.15-4.4.17-6.1-1.44-2.97-2.81-4.75-6.28-5.36-10.38-.48-3.22-1.2-6.39-1.78-9.6-1.1-6.14-2.17-12.28-3.24-18.42-.07-.39-.05-.79-.07-1.19.09-.01.17-.03.26-.04Z" fill="#6b4e2f" stroke-width="0"/><path d="M-.3,239c-.51-2.89-1.03-5.77-1.52-8.67-.63-3.76-1.52-7.5-1.76-11.29-.29-4.59-1.98-8.49-4.31-12.33-.94-1.54-1.32-3.46-1.75-5.26-.4-1.7.59-3.03,1.58-4.32.73-.94,1.44-1.9,2.07-2.91,1.09-1.75,2.88-2.36,4.68-2.84,2.7-.72,5.48-.99,8.25-.36,2.84.64,5.47-.16,8.16-.85,3.92-1.01,7.86-1.91,11.82-2.73,3.52-.73,7.06-1.38,10.62-1.89,5.7-.81,11.44-1.42,17.15-2.22,4.36-.61,8.69-1.53,13.06-2.01,3.94-.43,7.92-.54,11.89-.62,1.9-.04,3.31,1.16,4.53,2.55,1.96,2.22,3.83,4.45,3.9,7.67.06,2.47-1.32,4.87-3.63,5.8-4.57,1.84-9.32,2.85-14.22,3.38-4.05.44-8.07,1.2-12.1,1.85-.36.06-.69.29-1.04.45.3.16.59.34.9.47,1.45.64,2.96,1.18,4.36,1.91,2.37,1.23,4.78.27,7.17.3,3.12.04,6.26-.09,9.37.12,2.24.15,3.61,1.87,4.8,3.59.9,1.31,1.52,2.82,2.52,4.03,1.91,2.33.23,5.94-2.28,6.41-3.17.59-6.46.9-9.68.78-3.63-.13-7.24-.87-10.86-1.35-1.25-.16-2.51-.34-3.77-.48-.2-.02-.41.1-.62.16.17.1.34.19.5.3,2.58,1.73,5.64,2.08,8.5,3.03,2.45.81,4.88,1.7,7.25,2.73,1.96.85,2.27,2.99,3.03,4.69.6,1.35.89,2.88,1.11,4.35.36,2.33-1.02,3.93-3.39,3.82-1.85-.09-3.79-.24-5.51-.86-5.86-2.12-11.63-4.51-17.47-6.71-2.9-1.09-5.88-1.99-8.82-2.98-2.82-.95-5.63-1.91-8.45-2.84-.31-.1-.67-.07-1-.1.12.28.16.64.36.84,2.53,2.64,5.07,5.27,7.64,7.87,1.36,1.37,2.86,2.62,4.2,4.01,3.03,3.13,6.07,6.26,8.98,9.5,1.37,1.53,2.56,3.25,3.64,5,.38.62.44,1.68.21,2.41-.76,2.46-1.59,4.91-2.63,7.26-1.69,3.82-5.44,4.04-8.21,2.11-3.39-2.36-6.32-5.39-9.44-8.15-1.66-1.47-3.59-2.76-4.87-4.52-1.81-2.5-3.99-4.51-6.38-6.38-1.97-1.53-3.89-3.12-5.85-4.66-.23-.18-.53-.26-.8-.39-.09.29-.29.59-.26.87.45,3.65.85,7.32,1.43,10.95.74,4.61,1.54,9.22,2.49,13.8.61,2.97.23,5.85-.05,8.79-.15,1.57-.93,2.64-2.17,3.33-2.31,1.29-4.68,2.48-7.06,3.63-2.38,1.15-4.4.17-6.1-1.44-2.97-2.81-4.75-6.28-5.36-10.38-.48-3.22-1.2-6.39-1.78-9.6-1.1-6.14-2.17-12.28-3.24-18.42-.07-.39-.05-.79-.07-1.19.09-.01.17-.03.26-.04Z" fill="#6b4e2f" stroke-width="0"/><path d="M195.57,39.04c-.51-2.89-1.03-5.77-1.52-8.67-.63-3.76-1.52-7.5-1.76-11.29-.29-4.59-1.98-8.49-4.31-12.33-.94-1.54-1.32-3.46-1.75-5.26-.4-1.7.59-3.03,1.58-4.32.73-.94,1.44-1.9,2.07-2.91,1.09-1.75,2.88-2.36,4.68-2.84,2.7-.72,5.48-.99,8.25-.36,2.84.64,5.47-.16,8.16-.85,3.92-1.01,7.86-1.91,11.82-2.73,3.52-.73,7.06-1.38,10.62-1.89,5.7-.81,11.44-1.42,17.15-2.22,4.36-.61,8.69-1.53,13.06-2.01,3.94-.43,7.92-.54,11.89-.62,1.9-.04,3.31,1.16,4.53,2.55,1.96,2.22,3.83,4.45,3.9,7.67.06,2.47-1.32,4.87-3.63,5.8-4.57,1.84-9.32,2.85-14.22,3.38-4.05.44-8.07,1.2-12.1,1.85-.36.06-.69.29-1.04.45.3.16.59.34.9.47,1.45.64,2.96,1.18,4.36,1.91,2.37,1.23,4.78.27,7.17.3,3.12.04,6.26-.09,9.37.12,2.24.15,3.61,1.87,4.8,3.59.9,1.31,1.52,2.82,2.52,4.03,1.91,2.33.23,5.94-2.28,6.41-3.17.59-6.46.9-9.68.78-3.63-.13-7.24-.87-10.86-1.35-1.25-.16-2.51-.34-3.77-.48-.2-.02-.41.1-.62.16.17.1.34.19.5.3,2.58,1.73,5.64,2.08,8.5,3.03,2.45.81,4.88,1.7,7.25,2.73,1.96.85,2.27,2.99,3.03,4.69.6,1.35.89,2.88,1.11,4.35.36,2.33-1.02,3.93-3.39,3.82-1.85-.09-3.79-.24-5.51-.86-5.86-2.12-11.63-4.51-17.47-6.71-2.9-1.09-5.88-1.99-8.82-2.98-2.82-.95-5.63-1.91-8.45-2.84-.31-.1-.67-.07-1-.1.12.28.16.64.36.84,2.53,2.64,5.07,5.27,7.64,7.87,1.36,1.37,2.86,2.62,4.2,4.01,3.03,3.13,6.07,6.26,8.98,9.5,1.37,1.53,2.56,3.25,3.64,5,.38.62.44,1.68.21,2.41-.76,2.46-1.59,4.91-2.63,7.26-1.69,3.82-5.44,4.04-8.21,2.11-3.39-2.36-6.32-5.39-9.44-8.15-1.66-1.47-3.59-2.76-4.87-4.52-1.81-2.5-3.99-4.51-6.38-6.38-1.97-1.53-3.89-3.12-5.85-4.66-.23-.18-.53-.26-.8-.39-.09.29-.29.59-.26.87.45,3.65.85,7.32,1.43,10.95.74,4.61,1.54,9.22,2.49,13.8.61,2.97.23,5.85-.05,8.79-.15,1.57-.93,2.64-2.17,3.33-2.31,1.29-4.68,2.48-7.06,3.63-2.38,1.15-4.4.17-6.1-1.44-2.97-2.81-4.75-6.28-5.36-10.38-.48-3.22-1.2-6.39-1.78-9.6-1.1-6.14-2.17-12.28-3.24-18.42-.07-.39-.05-.79-.07-1.19.09-.01.17-.03.26-.04Z" fill="#6b4e2f" stroke-width="0"/><path d="M104.17,61.97c1.3,1.57,2.61,3.12,3.9,4.7,1.67,2.05,3.5,4,4.95,6.2,1.75,2.67,4.12,4.44,6.84,5.95,1.1.61,1.99,1.63,2.87,2.57.83.89.69,2.03.53,3.15-.12.82-.21,1.64-.25,2.47-.06,1.43-.92,2.41-1.84,3.32-1.38,1.37-2.97,2.48-4.85,3.06-1.93.59-3.24,1.98-4.63,3.32-2.01,1.96-4.08,3.86-6.19,5.72-1.87,1.65-3.78,3.27-5.75,4.8-3.16,2.45-6.4,4.8-9.57,7.24-2.42,1.87-4.71,3.91-7.18,5.71-2.22,1.62-4.59,3.05-6.95,4.47-1.13.68-2.4.44-3.61.03-1.95-.67-3.84-1.36-4.99-3.28-.88-1.47-.88-3.39.19-4.74,2.12-2.68,4.64-4.92,7.4-6.93,2.29-1.66,4.45-3.5,6.66-5.28.2-.16.32-.42.47-.63-.23,0-.47,0-.7.02-1.1.12-2.19.31-3.29.35-1.85.07-2.97,1.48-4.42,2.29-1.9,1.05-3.74,2.21-5.69,3.16-1.4.68-2.82.12-4.13-.51-.99-.48-1.89-1.17-2.91-1.56-1.95-.75-2.18-3.5-.83-4.65,1.71-1.45,3.59-2.77,5.57-3.8,2.23-1.17,4.66-1.97,7.01-2.93.81-.33,1.63-.66,2.43-1.01.13-.05.21-.2.32-.31-.14,0-.27,0-.41-.01-2.15-.16-4.12.69-6.16,1.1-1.76.35-3.53.65-5.31.85-1.47.16-2.4-1.02-3.44-1.78-.83-.61-1.52-1.43-2.17-2.24-1.02-1.28-.74-2.72.73-3.47,1.15-.58,2.37-1.16,3.62-1.38,4.27-.74,8.56-1.28,12.84-1.97,2.13-.34,4.23-.83,6.34-1.24,2.02-.4,4.05-.79,6.07-1.2.22-.05.43-.19.64-.29-.17-.13-.32-.33-.51-.38-2.43-.72-4.87-1.43-7.31-2.11-1.3-.36-2.63-.6-3.92-.97-2.9-.84-5.81-1.68-8.68-2.63-1.35-.45-2.66-1.08-3.92-1.76-.45-.24-.84-.86-.96-1.38-.39-1.74-.74-3.51-.92-5.28-.3-2.88,1.88-4.31,4.22-4.1,2.86.25,5.67,1.07,8.49,1.66,1.51.31,3.11.43,4.49,1.05,1.95.88,3.96,1.35,6.04,1.65,1.71.25,3.42.54,5.13.8.2.03.41-.02.61-.04-.05-.21-.03-.46-.15-.61-1.53-2.05-3.03-4.12-4.63-6.11-2.03-2.53-4.1-5.03-6.25-7.46-1.39-1.58-2.16-3.45-3-5.31-.45-1-.35-1.91.16-2.75.95-1.57,1.96-3.11,3-4.62,1.04-1.51,2.6-1.62,4.17-1.23,2.76.67,5.02,2.15,6.8,4.41,1.4,1.77,2.93,3.44,4.38,5.17,2.77,3.32,5.53,6.65,8.29,9.99.17.21.3.46.45.7-.05.04-.09.08-.14.11Z" fill="#b8996e" stroke-width="0"/><path d="M28.95,138.15c1.01.43,2.01.86,3.02,1.3,1.3.57,2.65,1.06,3.88,1.76,1.49.85,3.06,1.12,4.73,1.18.67.02,1.35.3,2,.53.61.22.83.81,1.02,1.38.14.42.3.84.48,1.24.32.7.15,1.38-.07,2.04-.33.99-.82,1.91-1.58,2.65-.78.75-1.07,1.74-1.41,2.72-.49,1.43-1.01,2.85-1.57,4.25-.49,1.25-1.02,2.49-1.59,3.7-.92,1.95-1.9,3.86-2.82,5.8-.7,1.49-1.3,3.02-2.05,4.49-.67,1.32-1.46,2.58-2.24,3.84-.38.6-1.04.79-1.72.89-1.09.15-2.17.28-3.19-.35-.78-.49-1.25-1.41-1.06-2.32.36-1.8,1.02-3.49,1.86-5.13.69-1.35,1.28-2.76,1.9-4.15.06-.12.05-.28.07-.42-.11.06-.23.11-.33.18-.5.32-.97.68-1.49.97-.87.49-1.06,1.44-1.56,2.17-.65.97-1.25,1.97-1.96,2.9-.51.67-1.32.74-2.11.76-.59.01-1.19-.1-1.78-.04-1.12.12-1.9-1.15-1.53-2.03.46-1.11,1.05-2.2,1.74-3.18.79-1.11,1.76-2.08,2.65-3.11.31-.36.62-.71.92-1.08.05-.06.05-.15.08-.23-.07.03-.13.07-.2.09-1.07.45-1.81,1.33-2.69,2.03-.76.6-1.53,1.17-2.34,1.7-.67.44-1.4.1-2.08-.02-.54-.09-1.08-.31-1.59-.55-.8-.37-1.02-1.13-.5-1.84.41-.56.85-1.13,1.4-1.54,1.86-1.39,3.79-2.7,5.67-4.07.94-.68,1.83-1.43,2.74-2.14.87-.68,1.75-1.36,2.62-2.05.1-.08.16-.19.24-.29-.11-.02-.23-.08-.34-.06-1.34.25-2.68.5-4.02.77-.71.14-1.4.35-2.11.49-1.6.3-3.2.61-4.8.85-.76.12-1.54.13-2.31.11-.27,0-.61-.21-.79-.43-.61-.74-1.21-1.5-1.73-2.31-.84-1.31-.15-2.52,1.02-3,1.43-.58,2.98-.87,4.48-1.27.8-.22,1.6-.55,2.41-.59,1.15-.05,2.23-.32,3.3-.68.88-.3,1.77-.58,2.65-.87.1-.03.19-.11.28-.17-.07-.09-.13-.21-.22-.26-1.23-.61-2.46-1.24-3.71-1.8-1.59-.72-3.19-1.41-4.81-2.05-1.05-.42-1.87-1.13-2.73-1.82-.46-.37-.63-.83-.59-1.36.07-.98.18-1.97.31-2.95.13-.98.85-1.41,1.7-1.61,1.49-.35,2.93-.19,4.34.45,1.1.51,2.24.93,3.36,1.41,2.14.92,4.27,1.84,6.41,2.77.14.06.26.15.39.22-.01.03-.03.06-.04.09Z" fill="#948478" stroke-width="0"/><path d="M67.75,173.54c-1.09-.11-2.18-.22-3.27-.35-1.41-.16-2.85-.22-4.23-.53-1.68-.37-3.25-.16-4.87.28-.65.18-1.38.12-2.07.09-.65-.03-1.03-.52-1.39-1.01-.26-.36-.53-.71-.83-1.04-.51-.57-.55-1.28-.54-1.97.02-1.04.21-2.07.72-3,.52-.95.51-1.98.53-3.02.04-1.51.12-3.02.24-4.52.1-1.34.23-2.68.41-4,.3-2.13.67-4.25.97-6.38.23-1.63.34-3.27.62-4.89.25-1.46.62-2.9,1-4.33.18-.68.76-1.07,1.38-1.36,1-.47,1.99-.92,3.15-.61.89.23,1.61.98,1.71,1.9.19,1.83.06,3.64-.25,5.45-.26,1.5-.4,3.02-.58,4.53-.02.14.03.28.05.42.09-.09.18-.18.26-.27.38-.46.73-.94,1.13-1.37.69-.72.59-1.69.85-2.54.34-1.12.61-2.25,1.01-3.35.28-.79,1.04-1.1,1.78-1.35.56-.19,1.17-.26,1.71-.49,1.03-.44,2.16.53,2.07,1.48-.11,1.2-.34,2.41-.72,3.55-.42,1.29-1.06,2.51-1.6,3.76-.19.43-.38.87-.56,1.3-.03.07,0,.16,0,.24.05-.05.1-.1.16-.15.89-.75,1.33-1.81,1.96-2.74.54-.8,1.11-1.58,1.73-2.32.51-.61,1.31-.51,1.99-.6.55-.08,1.12-.02,1.68.05.87.11,1.31.77,1.02,1.61-.22.66-.48,1.34-.88,1.89-1.37,1.89-2.82,3.71-4.2,5.58-.69.93-1.32,1.91-1.98,2.86-.63.91-1.26,1.82-1.89,2.74-.07.1-.09.23-.14.35.11-.01.24,0,.34-.04,1.21-.64,2.41-1.28,3.61-1.93.63-.35,1.23-.76,1.87-1.1,1.43-.77,2.87-1.53,4.33-2.25.69-.34,1.43-.59,2.17-.79.26-.07.65.02.89.17.8.53,1.6,1.07,2.34,1.69,1.2,1,.89,2.37-.09,3.16-1.2.98-2.59,1.71-3.9,2.55-.7.44-1.36,1-2.12,1.28-1.08.39-2.03.97-2.94,1.63-.75.55-1.52,1.08-2.28,1.62-.09.06-.15.16-.22.25.1.06.18.16.29.18,1.36.21,2.71.45,4.08.61,1.73.21,3.47.4,5.21.53,1.13.08,2.12.52,3.15.92.55.22.85.6.97,1.12.23.96.41,1.93.58,2.91.17.97-.39,1.6-1.14,2.04-1.32.78-2.74,1.06-4.27.86-1.2-.16-2.42-.23-3.63-.35-2.31-.24-4.63-.49-6.94-.73-.15-.02-.29-.06-.43-.1,0-.03,0-.06.01-.1Z" fill="#6e6659" stroke-width="0"/><path d="M156.82,73.33c1.04-.71,2.07-1.43,3.12-2.14,1.36-.92,2.66-1.93,4.1-2.7,1.74-.93,2.97-2.29,4.05-3.88.44-.64,1.12-1.13,1.74-1.62.59-.46,1.29-.31,1.97-.15.5.12,1,.22,1.51.29.88.12,1.43.7,1.94,1.32.76.93,1.36,1.97,1.61,3.16.25,1.22,1.04,2.11,1.79,3.04,1.09,1.35,2.15,2.73,3.17,4.13.91,1.25,1.8,2.51,2.63,3.81,1.33,2.08,2.59,4.22,3.92,6.3,1.01,1.6,2.15,3.12,3.11,4.75.87,1.46,1.62,3,2.36,4.53.35.73.14,1.5-.19,2.22-.52,1.16-1.06,2.29-2.3,2.89-.95.46-2.14.35-2.91-.39-1.53-1.46-2.77-3.13-3.85-4.95-.89-1.51-1.91-2.94-2.88-4.4-.09-.13-.24-.22-.36-.33,0,.15-.03.29-.03.44,0,.68.07,1.37.03,2.04-.06,1.14.75,1.92,1.16,2.85.54,1.23,1.15,2.43,1.62,3.68.34.9-.09,1.75-.55,2.52-.35.58-.83,1.1-1.13,1.7-.57,1.16-2.28,1.15-2.91.25-.8-1.13-1.5-2.37-2.03-3.65-.59-1.44-.95-2.99-1.41-4.48-.16-.52-.31-1.04-.48-1.56-.03-.08-.11-.14-.17-.21,0,.08-.02.17-.03.25-.22,1.32.19,2.57.33,3.86.12,1.1.2,2.21.22,3.32.02.92-.76,1.42-1.29,2.02-.42.48-.97.86-1.5,1.21-.85.55-1.72.3-2.1-.65-.3-.74-.58-1.52-.64-2.31-.21-2.67-.31-5.35-.49-8.02-.09-1.33-.27-2.65-.41-3.98-.13-1.27-.26-2.54-.39-3.81-.02-.14-.09-.27-.14-.41-.09.1-.22.18-.26.29-.58,1.46-1.16,2.92-1.71,4.39-.29.78-.52,1.58-.82,2.36-.68,1.74-1.37,3.48-2.11,5.2-.35.81-.81,1.58-1.31,2.31-.18.26-.58.47-.9.51-1.1.14-2.2.26-3.31.27-1.79.02-2.55-1.4-2.29-2.83.32-1.75.98-3.43,1.5-5.14.28-.91.44-1.89.9-2.71.65-1.15,1.05-2.36,1.35-3.63.25-1.04.53-2.08.78-3.12.03-.12,0-.25,0-.38-.13.02-.28,0-.39.06-1.35.83-2.71,1.63-4.03,2.51-1.67,1.11-3.33,2.24-4.95,3.43-1.05.77-2.25,1.13-3.44,1.55-.64.22-1.2.11-1.69-.25-.92-.67-1.8-1.39-2.68-2.11-.87-.73-.85-1.69-.52-2.64.57-1.66,1.61-2.97,3.1-3.94,1.17-.76,2.28-1.61,3.43-2.4,2.2-1.52,4.41-3.03,6.62-4.54.14-.1.3-.16.45-.24.02.03.04.06.06.09Z" fill="#564c44" stroke-width="0"/><path d="M176.64,144.59c.46,2.59.93,5.17,1.36,7.77.56,3.37,1.37,6.72,1.58,10.11.26,4.11,1.78,7.61,3.86,11.04.84,1.38,1.18,3.1,1.57,4.71.36,1.52-.53,2.72-1.42,3.87-.65.84-1.29,1.7-1.85,2.61-.98,1.57-2.58,2.11-4.19,2.54-2.42.65-4.91.88-7.39.32-2.54-.58-4.9.14-7.31.76-3.51.9-7.05,1.71-10.59,2.45-3.15.65-6.33,1.24-9.51,1.69-5.11.73-10.25,1.27-15.36,1.99-3.91.54-7.78,1.37-11.7,1.8-3.53.39-7.1.48-10.65.55-1.7.03-2.97-1.04-4.06-2.28-1.75-1.99-3.43-3.99-3.49-6.87-.05-2.21,1.18-4.36,3.25-5.19,4.09-1.64,8.35-2.55,12.74-3.03,3.63-.39,7.23-1.08,10.84-1.66.32-.05.62-.26.93-.4-.27-.14-.53-.3-.8-.43-1.3-.57-2.65-1.06-3.91-1.71-2.12-1.1-4.28-.24-6.42-.27-2.8-.04-5.61.08-8.39-.1-2.01-.13-3.24-1.67-4.3-3.22-.81-1.17-1.37-2.53-2.26-3.61-1.71-2.09-.2-5.32,2.04-5.74,2.84-.53,5.79-.8,8.68-.7,3.25.12,6.49.78,9.73,1.21,1.12.15,2.25.3,3.37.43.18.02.37-.09.55-.14-.15-.09-.3-.17-.45-.27-2.31-1.55-5.05-1.87-7.61-2.71-2.19-.73-4.37-1.53-6.49-2.45-1.75-.76-2.03-2.68-2.71-4.2-.54-1.21-.79-2.58-1-3.9-.32-2.09.92-3.52,3.04-3.42,1.66.08,3.4.21,4.94.77,5.25,1.9,10.42,4.04,15.65,6.01,2.6.98,5.27,1.78,7.9,2.67,2.52.85,5.04,1.71,7.57,2.55.28.09.6.06.9.09-.1-.25-.14-.57-.32-.75-2.27-2.36-4.54-4.72-6.85-7.05-1.22-1.23-2.56-2.35-3.77-3.6-2.72-2.8-5.43-5.61-8.04-8.51-1.23-1.37-2.3-2.91-3.26-4.48-.34-.56-.39-1.51-.19-2.16.68-2.2,1.42-4.4,2.35-6.51,1.51-3.42,4.87-3.62,7.36-1.89,3.04,2.11,5.66,4.83,8.46,7.3,1.49,1.32,3.22,2.48,4.36,4.05,1.63,2.24,3.57,4.04,5.72,5.71,1.76,1.37,3.49,2.79,5.24,4.18.2.16.47.23.71.35.08-.26.26-.53.23-.78-.4-3.27-.76-6.56-1.28-9.81-.66-4.13-1.38-8.26-2.23-12.36-.55-2.66-.21-5.24.04-7.87.14-1.41.83-2.36,1.94-2.98,2.07-1.16,4.19-2.22,6.32-3.25,2.13-1.03,3.95-.15,5.46,1.29,2.66,2.52,4.25,5.63,4.8,9.3.43,2.88,1.08,5.73,1.59,8.6.98,5.5,1.94,11,2.9,16.5.06.35.04.71.06,1.07-.08.01-.15.03-.23.04Z" fill="#7f5e40" stroke-width="0"/><path d="M157.74,61.34c-2.01.35-4.01.72-6.02,1.06-2.61.44-5.21,1.06-7.83,1.22-3.18.2-5.9,1.38-8.56,2.99-1.07.65-2.4.92-3.65,1.21-1.18.28-2.11-.41-3-1.1-.65-.51-1.32-1-2.02-1.44-1.21-.76-1.64-2-1.97-3.25-.5-1.88-.68-3.81-.25-5.73.45-1.97-.11-3.8-.59-5.67-.7-2.72-1.33-5.46-1.9-8.21-.51-2.44-.96-4.9-1.31-7.37-.56-3.96-.99-7.94-1.54-11.9-.42-3.03-1.06-6.03-1.4-9.07-.3-2.73-.37-5.5-.43-8.25-.03-1.32.81-2.3,1.77-3.14C120.59,1.35,122.14.05,124.37,0c1.71-.04,3.38.92,4.02,2.52,1.27,3.17,1.98,6.47,2.35,9.87.3,2.81.84,5.6,1.28,8.4.04.25.2.48.31.72.11-.21.24-.41.33-.62.44-1.01.82-2.05,1.33-3.03.85-1.64.19-3.32.21-4.98.03-2.17-.06-4.34.08-6.5.1-1.56,1.3-2.51,2.49-3.33.91-.62,1.96-1.06,2.8-1.75,1.62-1.32,4.12-.16,4.45,1.58.41,2.2.62,4.49.54,6.72-.09,2.52-.61,5.03-.93,7.54-.11.87-.23,1.74-.33,2.61-.02.14.07.28.11.43.07-.12.14-.23.21-.35,1.2-1.79,1.45-3.91,2.1-5.9.56-1.7,1.18-3.39,1.9-5.03.59-1.36,2.08-1.58,3.25-2.1.94-.42,2-.61,3.02-.77,1.62-.25,2.73.71,2.65,2.36-.06,1.29-.17,2.63-.6,3.83-1.47,4.07-3.13,8.07-4.66,12.12-.76,2.01-1.38,4.08-2.07,6.12-.66,1.95-1.32,3.91-1.97,5.86-.07.22-.05.46-.07.7.2-.08.44-.11.58-.25,1.83-1.76,3.66-3.52,5.46-5.3.95-.95,1.82-1.98,2.79-2.92,2.17-2.1,4.34-4.21,6.59-6.23,1.06-.95,2.25-1.78,3.47-2.53.43-.27,1.17-.3,1.67-.15,1.71.53,3.41,1.1,5.04,1.82,2.65,1.17,2.81,3.77,1.47,5.7-1.64,2.36-3.74,4.39-5.66,6.55-1.02,1.15-1.92,2.49-3.14,3.38-1.73,1.26-3.13,2.77-4.43,4.43-1.06,1.37-2.16,2.7-3.24,4.06-.12.16-.18.37-.27.55.2.06.41.2.6.18,2.54-.31,5.08-.59,7.6-.99,3.2-.51,6.4-1.07,9.58-1.73,2.06-.43,4.06-.16,6.1.03,1.09.11,1.83.64,2.31,1.51.9,1.6,1.72,3.25,2.52,4.9.8,1.65.12,3.06-1,4.23-1.95,2.06-4.36,3.29-7.2,3.72-2.23.33-4.44.84-6.66,1.23-4.26.76-8.52,1.5-12.78,2.25-.27.05-.55.03-.83.05,0-.06-.02-.12-.03-.18Z" fill="#9c7b53" stroke-width="0"/><path d="M-.3,39.04c-.51-2.89-1.03-5.77-1.52-8.67-.63-3.76-1.52-7.5-1.76-11.29-.29-4.59-1.98-8.49-4.31-12.33-.94-1.54-1.32-3.46-1.75-5.26-.4-1.7.59-3.03,1.58-4.32.73-.94,1.44-1.9,2.07-2.91,1.09-1.75,2.88-2.36,4.68-2.84,2.7-.72,5.48-.99,8.25-.36,2.84.64,5.47-.16,8.16-.85,3.92-1.01,7.86-1.91,11.82-2.73,3.52-.73,7.06-1.38,10.62-1.89,5.7-.81,11.44-1.42,17.15-2.22,4.36-.61,8.69-1.53,13.06-2.01,3.94-.43,7.92-.54,11.89-.62,1.9-.04,3.31,1.16,4.53,2.55,1.96,2.22,3.83,4.45,3.9,7.67.06,2.47-1.32,4.87-3.63,5.8-4.57,1.84-9.32,2.85-14.22,3.38-4.05.44-8.07,1.2-12.1,1.85-.36.06-.69.29-1.04.45.3.16.59.34.9.47,1.45.64,2.96,1.18,4.36,1.91,2.37,1.23,4.78.27,7.17.3,3.12.04,6.26-.09,9.37.12,2.24.15,3.61,1.87,4.8,3.59.9,1.31,1.52,2.82,2.52,4.03,1.91,2.33.23,5.94-2.28,6.41-3.17.59-6.46.9-9.68.78-3.63-.13-7.24-.87-10.86-1.35-1.25-.16-2.51-.34-3.77-.48-.2-.02-.41.1-.62.16.17.1.34.19.5.3,2.58,1.73,5.64,2.08,8.5,3.03,2.45.81,4.88,1.7,7.25,2.73,1.96.85,2.27,2.99,3.03,4.69.6,1.35.89,2.88,1.11,4.35.36,2.33-1.02,3.93-3.39,3.82-1.85-.09-3.79-.24-5.51-.86-5.86-2.12-11.63-4.51-17.47-6.71-2.9-1.09-5.88-1.99-8.82-2.98-2.82-.95-5.63-1.91-8.45-2.84-.31-.1-.67-.07-1-.1.12.28.16.64.36.84,2.53,2.64,5.07,5.27,7.64,7.87,1.36,1.37,2.86,2.62,4.2,4.01,3.03,3.13,6.07,6.26,8.98,9.5,1.37,1.53,2.56,3.25,3.64,5,.38.62.44,1.68.21,2.41-.76,2.46-1.59,4.91-2.63,7.26-1.69,3.82-5.44,4.04-8.21,2.11-3.39-2.36-6.32-5.39-9.44-8.15-1.66-1.47-3.59-2.76-4.87-4.52-1.81-2.5-3.99-4.51-6.38-6.38-1.97-1.53-3.89-3.12-5.85-4.66-.23-.18-.53-.26-.8-.39-.09.29-.29.59-.26.87.45,3.65.85,7.32,1.43,10.95.74,4.61,1.54,9.22,2.49,13.8.61,2.97.23,5.85-.05,8.79-.15,1.57-.93,2.64-2.17,3.33-2.31,1.29-4.68,2.48-7.06,3.63-2.38,1.15-4.4.17-6.1-1.44-2.97-2.81-4.75-6.28-5.36-10.38-.48-3.22-1.2-6.39-1.78-9.6-1.1-6.14-2.17-12.28-3.24-18.42-.07-.39-.05-.79-.07-1.19.09-.01.17-.03.26-.04Z" fill="#6b4e2f" stroke-width="0"/></pattern></defs><rect width="900" height="750" fill="url(#uuid-560e62b4-39dc-4f19-8ebd-5ceabec037a2)" stroke-width="0"/></svg>