<?xml version="1.0" encoding="UTF-8"?><svg id="uuid-8f1e5281-89fb-4a29-a071-c20fe6fc8dab" xmlns="http://www.w3.org/2000/svg" width="900" height="750" viewBox="0 0 900 750"><path d="M707.81,284.53s0,.02,0,.03h0s0-.03,0-.03Z" fill="#7d2b8b" stroke-width="0"/><path d="M602.5,751.49c3.03-2.09,5.35-1.92,8.9-2.41,5.29-.73,10.55-1.82,15.81-2.76,10.52-1.89,21.03-3.86,31.55-5.75,1.7-.31,4.21-.03,3.12-3.22-.05-.16,1.25-1.12,1.47-.98,1.39.87,1.76-.43,2.63-.78,5.58-2.23,11.36-3.99,17.12-5.72,4.45-.83,9.8-2.9,14.05-3.13,4.28,1.99,6.68-1.63,9.86-2.77.72-.26,1.5-1.74,1.41-2.56-.17-1.5-1.19-3.05,1.64-2.2,1.32-.87.25-2.57-.51-3.61,1.67,1.44,3.02,3.06,3.24,5.34,1.68,3.96,7,1.84,10.11,1.16,2.41-.87,4.56-1.73,6.69.19.29-1.45.58-2.9.87-4.36.49.78,1.12,1.25,2.04,1.41.03-1.26.57-2.59.15-3.79-1.56,5.57-2.29-5.24-2.49-6.73-.01-.14,1.08-.5,1.68-.53.17,0,.43.79.55,1.25.98,3.76,1.9,7.54,3.01,11.26,1.29.85,5.02-1.03,6.3-.46,2.49,1.38,4.49,3.23,6.4-.79.37-.78,2.63-.69,4.04-.92.64.73,1.4,2.1,2.07,2.95,2.69-3.65.32-8.54,1.6-12.5.27.33.54.66.81.99.24-2.56-9.68-29.11-5.03-25.1-2.56-4.38-8.14-8.39.61-9.27.74,2.01,1.45,5.12,2.28,7.3,1.16,3.18,2.76,6.23,3.59,9.48,1.04,4.08-2.01,8.63,2.85,12.55,3.6,2.85,2.06,11.85,7.45,13.88,2.17-.13,4.86-3.55,7.35-4.05-.83-.1-1.64-.29-2.43.06,1.91-1.59,6.06-.75,8.74-1.38.68-.05,1.69.62,2.01.33.47-.4.71-1.41.6-2.09-1.96-8.4-2.31-17.14-2.89-25.74-.03-5.22,1.82-10.37.04-15.56-.58-3.9.62-8.06.64-11.81-1.42-5.05,2.61-3.32,4.13-6.52,1.81-4.78-2.22-7.87-3.6-11.72-.63-1.77,1.72-7.65,3.53-7.45,3.5,3.26,4.92,9.21,6.94,13.6.94,6.59,2.22,15.78,8.84,18.99-.4.95-1.74,2.19-2.26,2.74,4.43,14.2,10.49,28.62,10.75,43.62,1.27-.08,3.33-.15,3.51-1.69-.6-3.84-.96-7.78-2.11-11.46-1.88-10.42-6.25-20.06-6.45-30.85-.04-.35-.45-.82-.33-1.01.37-.57-3.63-1.17,0-1.65.12-.02.37-1.29.11-1.6-6.88-5.38-4.66-9.98-6.91-17.12-.54-8.39-1.53-16.55-7.51-23.26-.95-1.07-.51-3.39-.66-5.14-.23-7.63-8.06-13.79-8.55-21.32l.92.15c-.24-.37-.57-1.1-.72-1.06-3.48.86-2.41-2.75-3.84-3.87-1.03-1.48-2.1-2.94-3.07-4.47-.72-1.21-.22-2.05,1.27-1.74,4.45-.12,1.82,2.4,2.25,5.74,2.09-.78,3.16,2.15,4.44,3.39,1.17,1.7,1.59,6.1,3.11,6.98,3.28.41,7.3.46,9.46-2.63,10.32,11.21,10.74,27.86,17.15,41.22,2.04,6.33,3.73,12.78,5.68,19.14.19.62,1.2.98,1.83,1.46,1.11-3.91-1.59-7.46-2.41-11.21-.71-5.85-1.21-11.01-1.7-17.09.07-.52-.64-1.15-.99-1.73-.42,5.83-3.29-7.18-3.89-8.85-2.06-6.03-4.85-12.42-5.32-18.69-4.21-5.76-7.39-12.12-10.65-18.48-4.09-3.87-7.4-10.11-8.2-15.61,5.85-4.95-1.47-8.67-1.72-14.22-.05-.21,1.76-1.23,2.02-1.02.8.65,1.89,1.84,1.73,2.58-.41,1.95-.98,3.44,1.99,3.22,5.47-.29,7.18,14.24,11.72,17.38,6.64-.08-5.91-14.78-6.02-18.63-3.67-3.27-4.42-8.48-7.01-12.52-3.6-5.95-9.43-10.52-13.23-16.25-1.51-2.53-3.27-6.17.94-8.19,2.53-1.22,5.36-1.25,6.96,1.91,1.44,2.78,2.26,5.8,3.09,8.8-1.24.76-2.49,1.51-3.71,2.3,1.73,1.58,3.93.28,5.96.08,8.67,9.79,13,22.8,21.54,32.58,1.42,7.07,5.24,13.33,8.48,19.74.47.88,1.74,1.33,2.64,1.98-.41-2.91-2.83-6.43-2.35-9.06,1.26-4.2.23-6.32-3.97-7.14-1.48-1.83.66-5.12.68-7.41-7.36-2.5-11.41-12.67-15.23-18.84.14-.88,3.05-1.32,3.15-1.69-.56-2.44.53-6.8-1.93-7.89.11-1.31.37-2.6.59-3.9,1.73,1.71,2.89,3.65,3.56,5.98,1.98-.34,2.77-2.41,2.09-3.94-4.53-5.52-7.4-13.24-13.54-17,.5,1.66.94,3.31.84,5.06-3.02-2.22-5.91-5.46-7.27-8.92.78-2.23,5.28-4.12,7.55-5.29.29-.14,1.02.01,1.14.24,2.26,3.72,3.6,8.1,6.47,11.37.55-.88,1.19-1.71,1.36-2.75,1.44.97,1.19,2.78,1.82,4.2,1.57,2.86,2.37,6.6,5.2,8.29,2.22,6.26,7.31,12.83,11.89,17.58.11-.84.01-1.79.38-2.5.71-1.38-3.7-5.69,2.27-4.08,1.16,2.03,2.33,4.06,3.49,6.08-.2-1.88-.38-3.77-.6-5.65-.29-5.36-2.94-9.56-6.57-13.26l-1.96.52c0,.48.01.95.02,1.43,7.09,6.86,2.06,2.19,2.01,8.12-3.75-2.33-4.24-7.04-5.29-10.98,0-.01-.02-.02-.03-.03,0,.01.02.02.03.03,1.09.47,2.17.95,3.26,1.42.65-.17,1.31-.35,1.96-.52-3.61-9.94-11.81-18.24-17.95-26.92.04-.47.28-1.23.09-1.36-1.72-1.18-2.39-2.48-1.05-4.41-.42-1.18-1.53-2.26-2.48-.29-.09-.62-.41-1.33-.22-1.84.67-1.78,1.16-3.12-1.74-2.6-3.14-.41-4.2-4.72-5.96-6.96-1.19-1.79-2.39-3.58-3.58-5.37,1.57-.83,2.84-1.75,2.82-3.68.64.51,1.2,1.23,1.93,1.49,2.06.73-1.07,2.97,1.51,4.04,2.17.91,4.14,3.19,5.34,5.34,2.08,3.1,2.44,7.58,4.6,10.44,6.7.16,1.97,3.48,4.94,4.17,8.94,1.63,6.76,17.27,17.13,16.62-1.37,2.49-1.06,3.39,1.19,5.03,2.26,1.89,5.77,4.51,5.6,6.56-.25,3.13,1.72,3.44,2.97,4.81,2.11,2.33,4.81,4.32,6.29,6.99,3.95,5.38,4.58,14.63,10.34,18.02.19-.78.76-1.7.52-2.32-2.68-6.13-5.44-12.29-8.46-18.26-2.12-3.93-.78-9.64-6.12-11.97-1.25-2.6-2.58-5.87-4.39-8.28-.88-1.18-3.91-1.12-1.74-3.73-4.47-2.94-3.33-7.73-2.55-12.22-1.72-1.25-2.86-3.69-4.33-5.38,0-.17,0-.33,0-.5.31-.45.83-1.33.89-1.3,3.03.85,4.1,3.46,5.67,5.81,5.77,3.75,8.59,9.54,10.71,15.88,1.42,3.95,1.74,8.37,6,10.76,3.97,5.07,4.44,12.82,9.38,17.31,2.99-4.94-3.12-9.69-4.65-14.37-1.93-3.72-1.51-8.37-5.11-11.58-1.72-1.75-.94-6.09-2.34-8.41-1.71-2.59-2.42-5.94-5.62-7.43-.33-.15-.37-.83-.65-1.16-1.06-1.22,2.67-3.25-1-4.36-3.71-1.25-6.99-14.65.12-7.89,1.74,4.09,3.63,7.75,6.92,11.13,4.8,6.07,6.5,15.07,10.8,21.76.96,1.68,2.47,3.06,3.82,4.49.8.44,2.76.35,3.29,1.21,3.44,8.26,8.25,15.73,13.08,23.23,2.1,5.59,8.32,9.14,6.44,16.1-.18,1.68,2.41,3.29,3.29,4.53,3.3,5.73,4.53,13.52,8.97,18.21,2.23.1,1.67-1.47.94-2.72-7.37-17.12-15.11-35.14-20.2-52.93,4.67.77,9.13,10.77,11.95,14.76,2.92,3.83,3.67,10.34,8.8,11.61,1.61-7.62-5.65-13.39-6.28-20.76.69-.04,1.38-.1,2.08-.1-.23-.19-.48-.57-.69-.55-3.51.27-3.51-2.18-4.03-4.66-1.21-4.6-2.03-9.62-3.99-13.92-7.19-7.56,6.27-12.78-1.76-19.7-4.1-3.22.87-6.71-7.19-9.52-5.81-1.58-5.15-7.35-7.01-11.6-2.54-3.46-6.45-5.46-7.28-10.77-.48-3.03-1.96-6.01-1.96-9.54,0-3.77,2.47-3.71,4.57-4.12,2.3-.46,4.75-1.22,6.02,2.43,5.3,11.91,11.42,23.96,18.74,34.71,2.49,3.26,2.64,9.3,7.6,9.51.18.04.81-.76.73-.94-5.58-14.27-15.08-26.39-20.06-40.86-1.79-5.26-5.74-9.95-4.54-16.11.13-.69-.75-2.18-1.38-2.32-3.99-.9-4.21-2.84-2.01-5.81-1.33-5.29-7.41-9.06-10.3-13.75-.9-1.31.99-3.69-1.88-4.71-5.87-3.69-3.71-12.87-8.95-17.51-.84-1.09-3.05-1.94-2.99-2.77.16-9.42-13.84-9.26-17.52-15.77-2.42-5.15-5.83-8.71-11.24-10.07-7.2-7.48-15.94-13.52-22.63-21.38-.94-1.59-2.42-2.2-3.92-2.96,0-.12,0-.23,0-.35-.27-.03-.55-.06-.82-.09-.03-.12-.05-.24-.07-.36-2.51-2.12-6.67-3.12-8-6.15,1.24.09,2.46.33,3.68.54-1.2-1.29-3.86-6.74-4.91-2.59-.06.18-.93.39-1.14.22-2.34-1.88-6.65-1.66-6.65-6.13-1.95-2.17-5.75-2.56-8.24-4.18-3.94-3.12,3.62-4.03-4.07-7.54-4.19-3.55-9.12-6.22-13.79-9.21-.4-.33-.09-1.48-.38-1.72-2.89-2.21-7.12-3.29-9.21-6.2.74.47,1.42.43,2.19.05-.41-1.78-2.46-1.76-3.87-2.47-.34.14-.67.27-1.01.41-2.14-1.02-5.82-1.74-6.34-4.27,2.99-1.09,4.96,1.59,7.35,2.92,1.39-1.23,3.09.5,4.62.79-9.12-8.6-20.97-14.06-28.2-24.48-2.34,2.35-1.74-.78-2.51-1.32-10.38-5.8-18.61-15.13-30.36-18.59.27.85.53,1.71.84,2.55-2.55-1.3-5-2.84-7.53-4.24.59.3,1.18.6,1.77.89.84-1.46,1.69-2.07-.5-2.86-1.73,0-3.46,0-5.19-.01-4.68-1.88-9.84-2.77-12.8-7.13-.95-.57-2.51-.01-3.66-.39-1.02-.33-1.84-1.27-2.78-1.91-1.57-1.49-3.89-.24-5.68-.93,2.94-2.86-2.47-1.42-1.64-3.19-2.53-.78-5.06-1.56-7.59-2.33.02.44.04.89.06,1.33-1.48-.08-2.96-.15-4.44-.23.74-1.58-3.97-.82-1.37-3.2-1.11-.23-2.22-.43-3.32-.69-.9-.21-3.04,2.3-2.57-1.14.01-.08-1.09-.39-1.69-.44-.52.53-1.39,1.12-2.2,1.39.16-2.08-1.73-5.24,1.4-5.6,4.26-.51,9.08-2.52,12.08,2.42.57.98,2.88.95,4.38,1.38,1.18-6.22,2.39.36,4.22,1.47,6.63,1.42,7.16-.46,11.58,5.6,1.45.96,3.49.98,5.04,1.83,1.56.86,2.66,2.65,4.26,3.28,5.43,1.36,10.99,1.98,16.23,4.31-1.07.79-2.38.85-3.65,1.06.56.57,1.12,1.14,1.68,1.7,5.06-.11,8.69,5.5,13.59,5.68-.28-.48-.56-.95-.83-1.43,2.96.21,5.71-1.4,6.69,2.35,1.8-.81,4.56-2.81,6.3-2.53,4.97,2.51,11.41,4.1,15.4,7.7.1,3.1,1.2,2.21,3.48,2.29,1.14.19,2.28.55,3.33,1.04,1.21.56,1.01,4.27,3.67,1.6.11-.11.63,0,.78.17,2.51,4.14,6.87,5.9,10.97,8.12,8.32,5.7,15.81,13.46,25.55,17.24-3.82-6.04-10.8-9.94-15.8-15.16-1.51-1.36-4.53-.74-4.73-4.04-6.46-5.47-14.89-10.79-20.04-18.03-2.39-6.97-14.28-4.12-14.86-11.87-3.68,2.56-3.83.53-6.39-.84-6.84-3.08-13.08-7.84-19.91-11.12-.64-.38-.89-1.39-1.33-2.11.02.53.05,1.06.07,1.6-13.45-5.14-26.65-12.01-40.22-17.26-1.97-.88-5.2-1.15-3.92-4.86-.35-1.63-5.28-.74-6.52-.43-2.63.97-3.78.04-5.41-1.93-4.07-4.98-10.87-5.71-16.64-7.57-6.99-2.72-13.94-5.61-21.02-8.12-4.59-1.18-12.73,1.4-13.35-5.11,5.03.07,9.5,3.14,14.24,4.63,1.27,1.23,2.06,2.47,4.24.49,6.4-4.18,15.18-.04,21.96,1.47,5.67-.78,9.34,4.45,14.76,4.45,6.11-2.12,11.15,1.21,16.82,2.94,4.28,1.18,7.41,5.9,12.67,4.06,2,.07,3.43,2.58,5.26,3.16,12.53,4.03,24.55,9.98,36.12,15.85,1.16,1.05,15.6,5.57,11.73,6.34,6.11,2.02,11.98,4.44,17.56,7.7.93.32,2.15.48,2.33-.87-.48-.21-1.21-.29-1.4-.66-.55-1.1-4.44-.21-1.91-3.13.09-.11,0-.38,0-.57-3.2,1.26-6.27-1.73-9.19-2.84,1.45-2.16,1.3-4.06,4.27-1.91,4.15,2.86,13.37,3.5,13.08,9.81-.61.92-2,2.36-1.45,3.45,1.84.56,3.41,3.11,5.72,1.23-.62-1.4-1.25-2.79-1.87-4.19,3.15-7.6,2.6,3.96,11.51,1.24.91-.17,1.99.53,3,.83-2.48,4.76,1.53.92,2.22,1.55.39.35,1.62-.37,2.25-.1,1.15.49,2.08,1.46,3.19,2.07,7.01,4.75,16.86,6.6,21.32,14.21.44-.73.91-1.44,1.37-2.15,1.93,5.95,9.81,6.33,13.12,10.75,2.62,3.29,5.57,2.57,8.55,3.2-2.4-3.2-6.03-5.71-6.59-9.9-2.01.24-4.32.87-3.33-2.66.05-.16-.24-.6-.33-.59-.45.06-1.1.08-1.3.38-2.42,3.62-8.62-7.22-11.75-7.13,1.14-4.3,14.59,6.26,18.7,6.8,1.84,3.64,7.62,2.44,7.69,7.75,0,.41.97,1.24,1.36,1.17,7.4-1,9.81,7.16,12.58,12.23,3.88,2.11,9.48,2.24,11.91,6.18-1.06-.59-2.1-1.13-3.35-.98,1.15,4.15,7.08,2.62,8.23,7.27.07.24.92.24,1.41.36-.27-6.1-6.92-10.07-10.17-14.98-8.28-11.18-19.75-18.56-31.02-26.36-1.85-1.36-3.09-3.62-5.01-4.82-3.05-1.91-7-2.46-8.84-6.16-4.15-2.81-8.87-5.34-12.27-9.18-6.11-3.38-12.38-6.27-19.08-8.27-3.43-.77-5.33-4.57-6.21-7.68,3.36-.75,6.03,2.11,9.22,2.79.64-2.37,0-7.14,3.78-4.94,2.4,2.46,16.72,7.39,12.72,11.03,1.41-.17,2.81-.48,4.24-.34.32.27.65.54.97.81-.32.16-.63.32-.94.48.31,0,.63,0,.94,0,0,.31,0,.63,0,.94-.31,0-.63,0-.94,0,0-.31,0-.63,0-.95-.16,0-.31,0-.47,0-.3.16-.59.32-.89.48-.32-.12-.67-.04-1.01-.07-3.71-2.19-7.89-3.58-11.99-4.83.08,1.1.16,2.21.24,3.31,3.44-.45,6.62,3.94,9.87,5.36,4.31,2.24,8.62,5.95,13.47,6.4-.22-2.3-2.73-3.64-4.02-5.46-2.98.5-4.4-.75-4.25-3.78,0-.16,0-.31,0-.47.13.02.26.05.39.08-.01-.03-.02-.06-.03-.09.16.34.36.66.56.97,1.54.9,5.47.31,4.26,2.82,7.51.03,12.65,6.72,18.91,10.15,11.84,7.81,23.38,16.1,34.51,24.9,5.52,3.82,9.63,10.09,15.5,13.09,2.9,1.23,5.76,2.27,6.58,6.06.24,1.1,2.57,1.75,3.94,2.61,3.22-4.76,4.54,4.03,5.92,5.84-.07-.84-.02-1.68.11-2.52,1.88,1.31,3.4,3.08,5.46,4.16-8.45-19.26-28.67-31.48-43.88-45.53-12.62-8.32-24.38-17.75-36.95-26.03-.3-.2-.11-1.13-.15-1.73-1.72-.57-3.77-.78-5.33-1.55,1.85-3.75-3.57-1.16-3.17-3.63-5.15-3.95-13-5.68-16.29-11.34,5.44,1.75,10.19,5.4,15.22,8.12.89.54,1.34,1.82,2,2.75,2.36.94,4.73,1.88,7.09,2.83-1.1-6.54-9.32-7.9-13.69-12-11.24-3.97-19.93-12.79-30.22-18.71-.33.12-.66.23-.99.35-1.66-1.51-4.21-2.82-2.81-5.44,2.92-2.75,16.35,5.09,20.7,6.19,9.25,6.38,19.88,10.51,29.61,16.1,21.14,12.99,41.85,27,60.2,43.77h.51c8.24,6.42,15.47,14.83,24.51,19.89,4.82,3.11,8.51,8.74,14.47,9.42,1.73-5.73-5.67-9.13-7.5-14.1-7.4-23.3-32.41-34.11-48.39-50.77-2.02-2.33-3.1-5.46-4.69-8.18-1.13-1.92-4.56-2.97-2.11-6.17.25-.33.03-1.5-.33-1.74-11.03-7.3-22.88-13.72-33.25-21.86,4.38,1.43,6.28-5.47,9.99-5.34,2.63-.03,2.74-1.42,1.84-3.59,3.18,1.13,6.22,2.8,9.06,4.58.96,1,1.56,2.52,2.48,3.76-.04-.04-.08-.08-.11-.11-1.41-2.26-4.04-1.65-6.33-2,1.8.94,3.37,2.63,5.37,2.99.94.81,1.49,2.42,2.15,3.21.96.34,2.05.32,3.08.45-.97-1.11-1.92-2.23-2.93-3.31.05.03.09.08.14.11,1.61-.83,4.94-1.57,3.98-3.91-4.29-2.15-6.78-6.94-12-7.81-4.66-.78-3.53-5.37-4.8-8.36,2.63-.94,5.25-.54,7.88.13-.26.71-.53,1.41-.79,2.12,2.32.35,4.58,2.8,5.21-.62-.6-.26-1.2-.53-1.8-.79,2.19.6,4.38,1.15,6.6,1.02-.06-1.68.49-4.42-.29-4.87-3.67-2.11-7.7-3.6-11.59-5.3-2.19-1.42-4.39-2.85-6.58-4.28-1.84-.3-6.12-3.96-6.84-1.73,1.9.59,3.71,1.64,5.68,1.76-.26,0-.53.02-.79.02-.18,1.92-.36,3.86-.62,5.77,2.07.44,4.34.08,6.47-.57-3.85,1.4-7.74,2.75-11.74,3.59.69,2.19,1.24,5.4,3.63,2.25.41,1.45-1.21,2.16-2.04,2.03-1.93-1.57-3.98-2.98-6.12-4.3.65.22,1.29.44,1.94.66-.25-1.34-.51-2.68-.76-4.02-.56,1.05-.69,2.47-1.84,2.95-7.96-4.82-16.92-8.43-24.32-14.07,0-.31-.01-.62-.01-.92-2.02-3-4-6.03-6.14-8.95-1.47.16-3.96.12-5.58-.62-1.27-.74-1.2-2.69-1.61-3.98-1.33.73-2.62,1.53-4.09,1.93.12-.9.3-1.77.58-2.63-1.6-.11-3.64.85-4.94-.17,1.62-1.05,5.1-.14,1.27-2.71-.31-1.07-.66-2.63-1.21-3.75,1.49.3,2.85.92,4.22,1.55,5.9-2.65-3.66-4.27-5.86-5.66-.34-.13-1.5.75-1.45.97.84,2.69,1.01,5.83,2.76,8.08-6.14-.42-12-4.73-17.91-6.81-1.18-.54-3.07-2.25-2.91-2.6,1.44-3.01.2-3.74-2.57-3.82-.43-.01-.76-1.16-1.24-1.69-1.68-3.28-5.12-1.9-7.82-2.78-3.77-1.67-7.34-3.81-10.95-5.85-.29-.16-.28-.95-.32-1.46-.1-1.33.29-3.57-.3-3.86-27.17-12.37-56.46-21.82-83.53-33.04-1.92,1.71-9.37-.03-10.3-2.41-1.29-1.58-3.82-2.55-5.49-3.82.35-.45.66-.95,1.03-1.37,3.14.31,6.28.62,9.42.94-.07.36-.29.99-.19,1.05,2.46,1.11,4.95,3.33,7.55,3.67.47-3.72,2.55,0,3.67-.76.1-.07.62.47.95.73-.81-.23-1.62-.21-2.45-.12,1.56,1.39,3.81,3.39,5.97,2.17-2.61-5.42-9-5.38-13.99-7.37-.39-.12-.96.35-1.44.55-1.52-.54-2.36-1.9-3.38-3.06,1.68,0,3.39-.34,4.87.65.77-2.68-7.81-2.39-9.88-2.94-.63-.05-1.35,1.04-2.03,1.61,5.01-.17,7.52.91,1.02,2.78-1.72-2.12-2.45-5.56-5.25-6.43-3.93-1.03-7.05-3.96-11.34-3.85-6.47-2.7-13.54-2.84-20.41-3.92-.3-.02-.65.53-.97.82,5.57,2.31,11.75,3.09,17.54,4.8-2.35.96-4.4.24-6.57-.82-1.15.49-2.38,1.54-3.44,1.39-8.05-1.2-16.07-2.59-24.08-4.04-1.25-.23-3.33-.63-1.81-2.7,2.24-3.05-.37-2.31-1.84-2.69-2.88-2.5-2.52-2.18-4.27.96,1.6.84,5.01,1.74,3.18,4.04-.38-2.73-4.43-1.66-6.44-2.65-5.58-2.2-11.45-3.48-17.41-4.19-3.1.04-6.6,1.63-9.72.95-2.63-.61-5.16-2.7-7.66-2.57-6.2.32-1.89-2.73-1.88-4.52-.5-4.29-10.13-3.19-13.6-5.01-1.38-.46-2.03-4.01-2.96-5-1.47-.54-3.12-.87-4.83-1.16-.03-2.31-.06-4.62-.11-6.93-.04-.56-1.37-1.09-2.18-1.5-.37-.19-1.32-.03-1.32-.07-.2-2.97-2.13-.93-3.15-.99-1.82.18-3.92.19-6.21.1-4.89-3.22-14.09-3.13-23.9-2.27-9.81-.86-19.01-.95-23.9,2.27-2.29.09-4.39.08-6.21-.1-1.01.06-2.95-1.98-3.15.99,0,.04-.95-.12-1.32.07-.81.41-2.14.94-2.18,1.5-.05,2.31-.08,4.62-.11,6.93-1.71.29-3.36.63-4.83,1.16-.93.99-1.58,4.54-2.96,5-3.47,1.81-13.1.71-13.6,5.01.02,1.79,4.33,4.85-1.88,4.52-2.49-.13-5.03,1.96-7.66,2.57-3.12.67-6.62-.92-9.72-.95-5.96.71-11.82,1.99-17.41,4.19-2.01.99-6.05-.09-6.44,2.65-1.83-2.31,1.58-3.21,3.18-4.04-1.75-3.14-1.39-3.47-4.27-.96-1.47.38-4.08-.36-1.84,2.69,1.52,2.07-.56,2.48-1.81,2.7-8.01,1.45-16.03,2.84-24.08,4.04-1.05.16-2.29-.89-3.44-1.39-2.17,1.06-4.22,1.78-6.57.82,5.8-1.71,11.97-2.49,17.54-4.8-.33-.29-.67-.84-.97-.82-6.87,1.08-13.94,1.22-20.41,3.92-4.29-.1-7.41,2.83-11.34,3.85-2.8.87-3.53,4.3-5.25,6.43-6.5-1.87-3.99-2.95,1.02-2.78-.68-.57-1.4-1.66-2.03-1.61-2.07.55-10.65.26-9.88,2.94,1.47-.99,3.19-.66,4.87-.65-1.02,1.17-1.86,2.52-3.38,3.06-.49-.2-1.06-.67-1.44-.55-4.99,1.99-11.38,1.95-13.99,7.37,2.16,1.23,4.41-.77,5.97-2.17-.83-.09-1.64-.1-2.45.12.33-.26.85-.8.95-.73,1.12.76,3.21-2.96,3.67.76,2.6-.34,5.1-2.57,7.55-3.67.1-.06-.12-.69-.19-1.05,3.14-.31,6.28-.62,9.42-.94.38.43.68.92,1.03,1.37-1.67,1.27-4.21,2.24-5.49,3.82-.94,2.38-8.38,4.11-10.3,2.41-27.06,11.22-56.36,20.67-83.53,33.04-.59.29-.2,2.53-.3,3.86-.04.5-.03,1.29-.32,1.46-3.61,2.03-7.17,4.17-10.95,5.85-2.71.88-6.15-.5-7.83,2.78-.48.53-.82,1.68-1.24,1.69-2.77.08-4.01.81-2.57,3.82.17.35-1.72,2.06-2.91,2.6-5.92,2.08-11.77,6.39-17.91,6.81,1.75-2.25,1.92-5.4,2.76-8.08.05-.22-1.11-1.09-1.45-.97-2.2,1.39-11.76,3.02-5.86,5.66,1.37-.63,2.73-1.25,4.22-1.55-.55,1.12-.89,2.68-1.21,3.75-3.83,2.57-.35,1.66,1.27,2.71-1.3,1.02-3.34.07-4.94.17.28.86.47,1.73.58,2.63-1.48-.39-2.76-1.2-4.09-1.93-.41,1.29-.35,3.24-1.61,3.98-1.62.74-4.11.79-5.58.62-2.13,2.92-4.11,5.95-6.14,8.95,0,.31,0,.62-.01.92-7.4,5.64-16.36,9.25-24.32,14.07-1.15-.48-1.28-1.9-1.84-2.95-.25,1.34-.51,2.68-.76,4.02.65-.22,1.29-.44,1.94-.66-2.13,1.32-4.19,2.72-6.12,4.3-.82.14-2.45-.58-2.04-2.03,2.39,3.15,2.94-.06,3.63-2.25-3.99-.84-7.89-2.19-11.74-3.59,2.14.66,4.4,1.01,6.47.57-.26-1.91-.44-3.84-.62-5.77-.26,0-.53-.02-.79-.02,1.97-.12,3.78-1.17,5.68-1.76-.71-2.24-5,1.43-6.84,1.73-2.19,1.43-4.39,2.85-6.58,4.28-3.9,1.71-7.93,3.19-11.59,5.3-.77.44-.22,3.19-.29,4.87,2.22.13,4.42-.42,6.6-1.02l-1.8.79c.63,3.42,2.89.97,5.21.62-.26-.71-.53-1.41-.79-2.12,2.63-.67,5.25-1.07,7.88-.13-1.27,2.99-.14,7.58-4.8,8.36-5.22.87-7.71,5.65-12,7.81-.96,2.34,2.37,3.08,3.98,3.91.05-.03.09-.08.14-.11-1.01,1.07-1.96,2.2-2.93,3.31,1.04-.13,2.12-.11,3.08-.45.67-.79,1.21-2.41,2.15-3.21,2-.37,3.57-2.05,5.37-2.99-2.3.35-4.92-.26-6.33,2-.04.04-.08.08-.11.11.92-1.24,1.52-2.76,2.48-3.76,2.84-1.78,5.88-3.45,9.06-4.58-.9,2.17-.79,3.56,1.84,3.59,3.72-.13,5.61,6.77,9.99,5.34-10.38,8.14-22.22,14.56-33.25,21.86-.36.23-.58,1.41-.33,1.74,2.45,3.2-.98,4.26-2.11,6.17-1.6,2.71-2.68,5.85-4.69,8.18-15.98,16.66-40.99,27.47-48.39,50.77-1.84,4.96-9.23,8.37-7.5,14.1,5.96-.68,9.65-6.32,14.47-9.42,9.04-5.07,16.27-13.47,24.51-19.89h.51c18.35-16.77,39.07-30.78,60.2-43.77,9.74-5.59,20.37-9.72,29.61-16.1,4.36-1.1,17.79-8.94,20.7-6.19,1.4,2.62-1.15,3.93-2.81,5.44-.33-.12-.66-.23-.99-.35-10.29,5.92-18.98,14.74-30.22,18.71-4.38,4.1-12.59,5.46-13.69,12,2.36-.94,4.73-1.88,7.09-2.83.66-.94,1.11-2.21,2-2.75,5.03-2.72,9.78-6.37,15.22-8.12-3.29,5.65-11.14,7.39-16.29,11.34.4,2.48-5.02-.12-3.17,3.63-1.57.77-3.61.98-5.33,1.55-.04.59.15,1.52-.15,1.73-12.57,8.29-24.33,17.71-36.95,26.03-15.22,14.05-35.43,26.27-43.88,45.53,2.05-1.08,3.57-2.85,5.46-4.16.13.84.17,1.67.11,2.52,1.38-1.81,2.7-10.6,5.92-5.84,1.37-.86,3.7-1.51,3.94-2.61.82-3.79,3.68-4.83,6.58-6.06,5.87-3,9.98-9.27,15.5-13.09,11.13-8.79,22.67-17.08,34.51-24.9,6.26-3.43,11.4-10.12,18.91-10.15-1.21-2.51,2.72-1.92,4.26-2.82.2-.3.39-.63.56-.97-.01.03-.02.06-.03.09.13-.03.26-.06.39-.08,0,.16,0,.31,0,.47.16,3.03-1.27,4.28-4.25,3.78-1.29,1.82-3.8,3.16-4.02,5.46,4.84-.45,9.16-4.16,13.47-6.4,3.25-1.42,6.43-5.81,9.87-5.36l.24-3.31c-4.1,1.25-8.29,2.65-11.99,4.83-.34.03-.69-.05-1.01.07-.3-.16-.59-.32-.89-.48-.16,0-.31,0-.47,0,0,.31,0,.63,0,.94-.31,0-.63,0-.94,0,0-.31,0-.63,0-.94.31,0,.63,0,.95,0-.32-.16-.63-.32-.95-.47.32-.27.65-.54.97-.81,1.43-.14,2.83.18,4.24.34-4-3.63,10.33-8.56,12.72-11.03,3.77-2.19,3.14,2.58,3.78,4.94,3.2-.68,5.87-3.55,9.22-2.79-.89,3.11-2.78,6.91-6.21,7.68-6.7,2-12.97,4.89-19.08,8.27-3.39,3.84-8.11,6.37-12.27,9.18-1.84,3.71-5.79,4.25-8.84,6.16-1.92,1.2-3.16,3.46-5.01,4.82-11.27,7.8-22.74,15.18-31.02,26.36-3.25,4.91-9.9,8.88-10.17,14.98.49-.11,1.35-.12,1.41-.36,1.15-4.65,7.09-3.13,8.23-7.27-1.25-.15-2.28.4-3.35.98,2.43-3.94,8.03-4.07,11.91-6.18,2.77-5.07,5.18-13.23,12.58-12.23.39.07,1.36-.76,1.36-1.17.06-5.32,5.84-4.12,7.69-7.75,4.11-.54,17.56-11.1,18.7-6.8-3.13-.09-9.33,10.75-11.75,7.13-.2-.29-.85-.32-1.3-.38-.09-.01-.38.43-.33.59.99,3.54-1.32,2.9-3.33,2.66-.56,4.19-4.19,6.71-6.59,9.9,2.97-.63,5.93.09,8.55-3.2,3.3-4.42,11.19-4.8,13.12-10.75.46.71.93,1.42,1.37,2.15,4.46-7.61,14.31-9.46,21.32-14.21,1.11-.61,2.04-1.57,3.19-2.07.63-.27,1.86.45,2.25.1.69-.63,4.7,3.21,2.22-1.55,1-.3,2.09-1,3-.83,8.91,2.71,8.36-8.85,11.51-1.24-.62,1.4-1.25,2.79-1.87,4.19,2.31,1.88,3.88-.67,5.72-1.23.56-1.1-.83-2.53-1.45-3.45-.29-6.3,8.93-6.95,13.08-9.81,2.97-2.15,2.81-.25,4.27,1.91-2.92,1.11-5.99,4.1-9.19,2.84,0,.19-.1.46,0,.57,2.53,2.92-1.36,2.03-1.91,3.13-.18.36-.92.45-1.4.66.17,1.35,1.4,1.19,2.33.87,5.58-3.26,11.45-5.68,17.56-7.7-3.87-.77,10.57-5.29,11.73-6.34,11.57-5.87,23.59-11.82,36.12-15.85,1.83-.58,3.26-3.08,5.26-3.16,5.25,1.84,8.39-2.88,12.67-4.06,5.68-1.74,10.71-5.06,16.82-2.94,5.42,0,9.09-5.24,14.76-4.45,6.78-1.51,15.56-5.65,21.96-1.47,2.18,1.98,2.97.75,4.24-.49,4.75-1.5,9.21-4.57,14.24-4.63-.62,6.52-8.76,3.94-13.35,5.11-7.08,2.51-14.03,5.41-21.02,8.12-5.77,1.86-12.57,2.59-16.64,7.57-1.63,1.97-2.77,2.9-5.41,1.93-1.25-.31-6.17-1.2-6.52.43,1.29,3.72-1.95,3.98-3.92,4.86-13.57,5.25-26.77,12.12-40.22,17.26.02-.53.05-1.06.07-1.6-.43.72-.69,1.74-1.33,2.11-6.83,3.27-13.08,8.04-19.91,11.12-2.57,1.37-2.71,3.41-6.39.84-.58,7.75-12.47,4.9-14.86,11.87-5.15,7.24-13.57,12.56-20.04,18.03-.2,3.3-3.22,2.68-4.73,4.04-5,5.22-11.98,9.12-15.8,15.16,9.74-3.78,17.22-11.54,25.55-17.24,4.1-2.23,8.46-3.98,10.97-8.12.15-.17.67-.28.78-.17,2.67,2.66,2.47-1.05,3.67-1.6,1.05-.48,2.19-.85,3.33-1.04,2.28-.09,3.39.81,3.48-2.29,3.99-3.6,10.43-5.19,15.4-7.7,1.74-.28,4.5,1.73,6.3,2.53.98-3.74,3.73-2.14,6.69-2.35-.28.48-.56.95-.83,1.43,4.9-.18,8.52-5.79,13.59-5.68.56-.57,1.12-1.14,1.68-1.7-1.27-.22-2.58-.27-3.65-1.06,5.23-2.33,10.8-2.95,16.23-4.31,1.6-.63,2.7-2.43,4.26-3.28,1.55-.85,3.6-.87,5.04-1.83,4.41-6.06,4.95-4.17,11.58-5.6,1.83-1.11,3.04-7.69,4.22-1.47,1.51-.43,3.81-.4,4.38-1.38,3-4.94,7.83-2.93,12.08-2.42,3.13.36,1.24,3.52,1.4,5.6-.81-.27-1.67-.86-2.2-1.39-.6.05-1.7.36-1.69.44.47,3.44-1.67.93-2.57,1.14-1.1.26-2.21.46-3.32.69,2.6,2.38-2.11,1.62-1.37,3.2-1.48.08-2.96.15-4.44.23.02-.44.04-.89.06-1.33l-7.59,2.33c.83,1.77-4.58.33-1.64,3.19-1.79.69-4.1-.56-5.68.93-.93.64-1.75,1.58-2.78,1.91-1.15.37-2.71-.19-3.66.39-2.96,4.37-8.12,5.26-12.8,7.13-1.73,0-3.46,0-5.19.01-2.19.79-1.34,1.4-.5,2.86.59-.3,1.18-.6,1.77-.89-2.53,1.4-4.99,2.93-7.53,4.24.31-.84.57-1.69.84-2.55-11.75,3.46-19.98,12.79-30.36,18.59-.77.54-.18,3.67-2.51,1.32-7.22,10.42-19.08,15.88-28.2,24.48,1.53-.29,3.23-2.02,4.62-.79,2.39-1.33,4.36-4.01,7.35-2.92-.52,2.53-4.2,3.25-6.34,4.27-.34-.14-.67-.27-1.01-.41-1.4.72-3.46.69-3.87,2.47.77.38,1.45.43,2.19-.05-2.09,2.91-6.33,3.98-9.21,6.2-.3.25.01,1.39-.38,1.72-4.66,2.99-9.6,5.66-13.79,9.21-7.69,3.51-.13,4.42-4.07,7.54-2.49,1.63-6.29,2.01-8.24,4.18,0,4.47-4.3,4.25-6.65,6.13-.21.17-1.08-.04-1.14-.22-1.05-4.15-3.71,1.29-4.91,2.59,1.22-.21,2.44-.45,3.68-.54-1.32,3.03-5.49,4.03-8,6.15-.02.12-.04.24-.07.36-.27.03-.55.06-.82.08,0,.12,0,.23,0,.35-1.5.75-2.98,1.36-3.92,2.96-6.69,7.85-15.43,13.9-22.63,21.38-5.41,1.36-8.82,4.93-11.24,10.07-3.68,6.51-17.68,6.35-17.52,15.77.06.83-2.15,1.68-2.99,2.77-5.24,4.63-3.08,13.81-8.95,17.51-2.87,1.03-.98,3.4-1.88,4.71-2.89,4.69-8.97,8.46-10.3,13.75,2.2,2.97,1.99,4.91-2.01,5.81-.63.14-1.52,1.63-1.38,2.32,1.2,6.17-2.75,10.85-4.54,16.11-4.97,14.47-14.47,26.59-20.06,40.86-.08.18.55.98.73.94,4.95-.21,5.11-6.25,7.6-9.51,7.32-10.75,13.44-22.8,18.74-34.71,1.27-3.65,3.72-2.88,6.02-2.43,2.09.42,4.57.36,4.57,4.12,0,3.53-1.48,6.51-1.96,9.54-.84,5.32-4.74,7.31-7.28,10.77-1.86,4.25-1.2,10.02-7.01,11.6-8.06,2.81-3.09,6.3-7.19,9.52-8.03,6.92,5.43,12.14-1.76,19.7-1.96,4.29-2.78,9.31-3.99,13.92-.52,2.48-.53,4.94-4.03,4.66-.22-.02-.46.36-.69.55.69,0,1.39.05,2.08.1-.63,7.37-7.88,13.14-6.28,20.76,5.13-1.28,5.88-7.79,8.8-11.61,2.82-3.99,7.28-13.99,11.95-14.76-5.09,17.79-12.83,35.81-20.2,52.93-.74,1.26-1.29,2.83.94,2.72,4.44-4.69,5.67-12.48,8.97-18.21.88-1.24,3.47-2.85,3.29-4.53-1.88-6.96,4.34-10.51,6.44-16.1,4.83-7.51,9.64-14.97,13.08-23.23.54-.85,2.49-.77,3.29-1.21,1.35-1.43,2.86-2.81,3.82-4.49,4.3-6.69,6-15.69,10.8-21.76,3.28-3.38,5.18-7.04,6.92-11.13,7.11-6.76,3.83,6.64.12,7.89-3.68,1.11.05,3.14-1,4.36-.29.33-.33,1.01-.65,1.16-3.2,1.49-3.91,4.84-5.62,7.43-1.4,2.32-.62,6.66-2.34,8.41-3.6,3.21-3.18,7.85-5.11,11.58-1.52,4.68-7.63,9.43-4.65,14.37,4.94-4.49,5.4-12.24,9.38-17.31,4.26-2.39,4.58-6.81,6-10.76,2.12-6.35,4.94-12.13,10.71-15.88,1.57-2.35,2.64-4.96,5.67-5.81.06-.03.59.84.89,1.3,0,.17,0,.33,0,.5-1.46,1.69-2.6,4.13-4.33,5.38.78,4.49,1.92,9.27-2.55,12.22,2.17,2.61-.86,2.55-1.74,3.73-1.81,2.4-3.14,5.68-4.39,8.28-5.33,2.33-3.99,8.03-6.12,11.97-3.01,5.97-5.78,12.13-8.46,18.26-.24.61.32,1.54.52,2.32,5.76-3.39,6.39-12.64,10.34-18.02,1.48-2.67,4.18-4.66,6.29-6.99,1.24-1.37,3.22-1.68,2.97-4.81-.17-2.05,3.34-4.66,5.6-6.56,2.25-1.64,2.55-2.55,1.19-5.03,10.36.64,8.18-14.99,17.13-16.62,2.97-.69-1.76-4.01,4.94-4.17,2.16-2.86,2.52-7.34,4.6-10.44,1.21-2.15,3.17-4.43,5.34-5.34,2.58-1.07-.55-3.31,1.51-4.04.73-.26,1.29-.98,1.93-1.49-.02,1.93,1.25,2.85,2.82,3.68-1.19,1.79-2.39,3.58-3.58,5.37-1.76,2.24-2.82,6.54-5.96,6.96-2.9-.52-2.42.82-1.74,2.6.19.51-.13,1.22-.22,1.84-.94-1.97-2.05-.9-2.48.29,1.34,1.93.66,3.23-1.05,4.41-.19.13.05.89.09,1.36-6.14,8.68-14.34,16.98-17.95,26.92.65.17,1.31.35,1.96.52,1.09-.48,2.17-.95,3.26-1.42,0-.01.02-.02.03-.03,0,.01-.02.02-.03.03-1.05,3.94-1.54,8.65-5.29,10.98-.05-5.93-5.08-1.26,2.01-8.12,0-.48.01-.95.02-1.43-.65-.17-1.31-.35-1.96-.52-3.64,3.7-6.29,7.89-6.57,13.26-.22,1.88-.4,3.77-.6,5.65,1.16-2.03,2.33-4.06,3.49-6.08,5.97-1.62,1.56,2.7,2.27,4.08.37.71.27,1.66.38,2.5,4.58-4.75,9.68-11.32,11.89-17.58,2.83-1.69,3.63-5.42,5.2-8.29.64-1.42.38-3.23,1.82-4.2.17,1.05.81,1.87,1.36,2.75,2.87-3.27,4.21-7.65,6.47-11.37.12-.23.85-.38,1.14-.24,2.27,1.17,6.77,3.06,7.55,5.29-1.36,3.46-4.25,6.7-7.27,8.92-.11-1.75.34-3.4.84-5.06-6.14,3.76-9.01,11.48-13.54,17-.68,1.52.11,3.6,2.09,3.94.67-2.33,1.83-4.28,3.56-5.98.22,1.3.48,2.59.59,3.9-2.46,1.09-1.38,5.46-1.93,7.89.1.36,3.01.81,3.15,1.69-3.82,6.18-7.87,16.35-15.23,18.84.02,2.28,2.16,5.58.68,7.41-4.19.82-5.22,2.94-3.97,7.14.48,2.63-1.94,6.15-2.35,9.06.9-.65,2.18-1.1,2.64-1.98,3.24-6.41,7.07-12.67,8.48-19.74,8.54-9.78,12.87-22.79,21.54-32.58,2.03.19,4.23,1.5,5.96-.08-1.22-.79-2.47-1.54-3.71-2.3.83-3,1.65-6.03,3.09-8.8,1.6-3.15,4.43-3.13,6.96-1.91,4.21,2.03,2.45,5.66.94,8.19-3.8,5.73-9.63,10.3-13.23,16.25-2.6,4.04-3.34,9.25-7.01,12.52-.11,3.86-12.66,18.56-6.02,18.63,4.54-3.14,6.25-17.67,11.72-17.38,2.97.23,2.4-1.26,1.99-3.22-.16-.74.93-1.93,1.73-2.58.26-.21,2.07.81,2.02,1.02-.26,5.55-7.57,9.26-1.72,14.22-.8,5.5-4.11,11.73-8.2,15.61-3.25,6.35-6.44,12.72-10.65,18.48-.46,6.27-3.25,12.66-5.32,18.69-.6,1.67-3.47,14.68-3.89,8.85-.35.58-1.06,1.21-.99,1.73-.5,6.08-1,11.24-1.7,17.09-.82,3.75-3.52,7.3-2.41,11.21.63-.48,1.64-.85,1.83-1.46,1.95-6.36,3.64-12.81,5.68-19.14,6.4-13.36,6.83-30.01,17.15-41.22,2.16,3.09,6.17,3.04,9.46,2.63,1.52-.87,1.94-5.27,3.11-6.98,1.28-1.24,2.35-4.17,4.44-3.39.43-3.34-2.2-5.85,2.25-5.74,1.49-.31,1.99.53,1.27,1.74-.97,1.52-2.04,2.98-3.07,4.47-1.43,1.12-.36,4.72-3.84,3.87-.14-.04-.47.69-.72,1.06l.92-.15c-.49,7.53-8.32,13.69-8.55,21.32-.15,1.75.29,4.07-.66,5.14-5.98,6.71-6.97,14.87-7.51,23.26-2.24,7.14-.03,11.75-6.91,17.12-.26.31-.01,1.58.11,1.6,3.63.49-.37,1.08,0,1.65.12.18-.29.65-.33,1.01-.2,10.78-4.57,20.43-6.45,30.85-1.16,3.68-1.51,7.62-2.11,11.46.18,1.54,2.24,1.61,3.51,1.69.25-15,6.32-29.42,10.75-43.62-.52-.55-1.85-1.79-2.26-2.74,6.62-3.21,7.9-12.4,8.84-18.99,2.02-4.38,3.44-10.34,6.94-13.6,1.81-.2,4.16,5.68,3.53,7.45-1.37,3.85-5.41,6.94-3.6,11.72,1.52,3.2,5.55,1.46,4.13,6.52.02,3.76,1.22,7.91.64,11.81-1.79,5.19.07,10.34.04,15.56-.58,8.6-.93,17.34-2.89,25.74-.1.68.13,1.69.6,2.09.33.28,1.33-.38,2.01-.33,2.68.62,6.83-.21,8.74,1.38-.79-.35-1.61-.16-2.43-.06,2.49.5,5.18,3.92,7.35,4.05,5.38-2.03,3.84-11.02,7.45-13.88,4.86-3.92,1.81-8.46,2.85-12.55.83-3.25,2.42-6.31,3.59-9.48.83-2.18,1.54-5.29,2.28-7.3,8.75.88,3.17,4.88.61,9.27,4.65-4.02-5.26,22.53-5.03,25.1.27-.33.54-.66.81-.99,1.28,3.96-1.09,8.85,1.6,12.5.66-.85,1.43-2.22,2.07-2.95,1.4.22,3.67.13,4.04.92,1.91,4.02,3.91,2.17,6.4.79,1.28-.57,5.02,1.31,6.3.46,1.11-3.72,2.03-7.5,3.01-11.26.12-.46.38-1.26.55-1.25.59.03,1.69.39,1.68.53-.19,1.48-.92,12.29-2.49,6.73-.42,1.2.12,2.54.15,3.79.92-.16,1.55-.63,2.04-1.41.29,1.45.58,2.9.87,4.36,2.13-1.92,4.29-1.06,6.69-.19,3.12.68,8.44,2.79,10.11-1.16.22-2.28,1.57-3.9,3.24-5.34-.75,1.04-1.83,2.74-.51,3.61,2.83-.85,1.81.71,1.64,2.2-.09.82.69,2.3,1.41,2.56,3.18,1.14,5.57,4.76,9.86,2.77,4.25.23,9.6,2.3,14.05,3.13,5.77,1.73,11.54,3.49,17.12,5.72.88.35,1.24,1.65,2.63.78.22-.14,1.53.82,1.47.98-1.09,3.19,1.42,2.91,3.12,3.22,11.73,2.15,23.47,4.32,35.21,6.4,5.77,1.02,11.71,1.68,17.43,2.87,5.24,1.09,10.47-.17,15.55,1.64h293.06ZM689.25,255.36c-2.32-1.3-5.5-1.93-6.86-4.07,1.92-1,4.74,2.63,6.86,4.07ZM781.02,223.13c0-.16,0-.32,0-.48,0,.27.05.53.13.79-.04-.1-.08-.21-.12-.31ZM810.67,155.15c-.07.14,1.61-.48,1.89-.77.26,2.1-1.65,4.39-3.34,5.27-.59-.86-1.36-1.7-1.6-2.66.31-1.34,1.01-2.15,3.06-1.84ZM759.29,235.28c-.06-.04-.11-.09-.17-.13.51.17.3.22.17.13ZM781.34,241.66c-3.57,2.49-3.49.22-6.09-1.27,2.5-1.94,3.42-.32,6.09,1.27ZM762.58,230.34c1.44.99,2.76,1.89,4.07,2.79-1.59.71-3.19-1.6-4.73-2.19.16-.15.33-.29.66-.59ZM761.89,234.53c-1.84-.24-3.3-.47-4.5-.68-.94-.73-1.88-1.48-2.82-2.22,2.54-1.12,4.11,1.61,7.31,2.9ZM753.98,233.07c-1.55-.48-1.8-.86-2.14-1.1-3.17-2.31-7.16-3.59-8.36-7.74,3.75,1.7,13.11,3.73,10.5,8.84ZM733.79,131.48c1.51-.2,3.02-.45,4.53-.58.25,4.51,3.98,1.19,5.75,2.53,4.34,2.88,9.32,6.85,12.47.24,1.23,1.03,2.52,4.92,4.33,3.23.87-3.77,3.09-.96,4.29-.6,7.3,5.45,16.98,7.55,24.82,12.66,2.7.21,3.65-.99,2.47,3.18,3.6-1.29,9.51,1.85,9.39,5.91-.8,3.04-.17,8.17-4.61,7.81-.46-.51.3-1.68.18-2.19-1.78-2.03-3.92,1.86-5.53,2.73-3.37-3.03-2.22-6.75-.46-10.41-1.39-1.89-2.82-3.75-4.25-5.62-.8-.16-1.59-.31-2.39-.47-.41,2.5-.17,5.17-2.6,6.69-.43-1.34-.9-2.66-1.62-3.88-1.02,1.52-3.06.73-4.38,1.32-3.6,2.67-13.32-.26-15.01-4.6-13.76-4.55-24.27-15.12-37.25-21.22,2.65.47,5.3.93,7.95,1.4,0,0,0,0,0,0,.63.62,1.27,1.25,1.9,1.87ZM728.1,127.17c-.65-.42-1.31-.8-2-1.1.69.29,1.35.68,2,1.1ZM724.26,125.55c-.27-.04-.55-.06-.83-.05.28,0,.56.02.83.05ZM725.6,125.87c-.2-.07-.4-.13-.61-.18.21.05.41.11.61.18ZM90.78,159.65c-1.69-.87-3.6-3.17-3.34-5.27.28.29,1.95.91,1.89.77,2.04-.31,2.75.49,3.06,1.84-.24.96-1.01,1.8-1.6,2.66ZM118.98,223.13c-.04.1-.08.21-.12.31.08-.26.13-.52.13-.79,0,.16,0,.32,0,.48ZM176.57,125.49c-.28,0-.56.02-.83.05.27-.04.55-.06.83-.05ZM173.9,126.07c-.5.21-.98.47-1.46.76.47-.29.96-.54,1.46-.76ZM175.01,125.69c-.21.05-.41.11-.61.18.2-.07.4-.13.61-.18ZM118.66,241.66c2.67-1.59,3.6-3.21,6.09-1.27-2.6,1.49-2.53,3.76-6.09,1.27ZM133.36,233.13c1.31-.9,2.62-1.8,4.07-2.79.33.3.5.45.66.59-1.54.6-3.13,2.9-4.73,2.19ZM138.11,234.53c3.2-1.29,4.78-4.02,7.31-2.9-.94.74-1.87,1.49-2.82,2.22-1.2.22-2.66.44-4.5.68ZM140.88,235.15c-.06.04-.11.09-.17.13-.12.09-.33.04.17-.13ZM148.16,231.97c-.34.24-.59.62-2.14,1.1-2.62-5.11,6.75-7.15,10.5-8.84-1.2,4.15-5.19,5.43-8.36,7.74ZM138.81,149.43c-1.69,4.34-11.41,7.27-15.01,4.6-1.32-.59-3.36.2-4.38-1.32-.72,1.22-1.19,2.54-1.62,3.88-2.43-1.52-2.19-4.19-2.6-6.69-.8.16-1.59.31-2.39.47-1.42,1.87-2.86,3.72-4.25,5.62,1.76,3.66,2.91,7.38-.46,10.41-1.6-.87-3.75-4.75-5.53-2.73-.12.51.64,1.68.18,2.19-4.44.36-3.81-4.77-4.61-7.81-.12-4.06,5.79-7.2,9.39-5.91-1.18-4.17-.23-2.97,2.47-3.18,7.84-5.12,17.52-7.21,24.82-12.66,1.2-.35,3.42-3.17,4.29.6,1.81,1.69,3.11-2.21,4.33-3.23,3.15,6.6,8.14,2.63,12.47-.24,1.77-1.34,5.51,1.98,5.75-2.53,1.52.13,3.02.38,4.53.58.63-.62,1.27-1.25,1.9-1.87,0,0,0,0,0,0,2.65-.47,5.3-.93,7.95-1.4-12.98,6.1-23.48,16.66-37.25,21.22ZM210.75,255.36c2.12-1.44,4.94-5.07,6.86-4.07-1.36,2.14-4.54,2.77-6.86,4.07ZM79.76,503.75c-1.05,1.18-2.1,2.37-3.14,3.55,1.05-2.92.7-8.8,3.45-10.28,4.3,2.81,3.25,3.95-.31,6.73ZM85.59,496.15c-.27-.5.32-.56.63-.8.04.13.07.25.13.48-.25.1-.51.21-.77.32ZM85.48,381.67c-1.14-.91-1.6-1.27-2.06-1.64,1.33-1.22,2.65-2.45,4.05-3.58,2.78,1.65-.76,3.32-1.99,5.22ZM94.77,512.5c-.12-.24-.23-.47-.35-.71.47,0,.94,0,1.4,0-.36.23-.71.47-1.06.71ZM94.89,508.48c.41-.74.35-2.66,1.53-2.01.35,1.82,3.1,3.95-.59,5.31,0,0,0,0,0,0-.47-.31-.94-.63-1.41-.94v.94c-.32,0-.63,0-.94,0,.4.26.79.53,1.19.79-2.95,2.13-5.2,4.8-7.3,7.64,1.74-2.63,3.4-5.32,5.17-7.95-4.69-1-1.71-3.56.95-5.21.33-1.71.66-3.43.98-5.14,0,0-.02-.02-.03-.03.02.02.03.03.03.03,1.16-.23,2.3-.5,3.45-.77-.08,2.75-2.93,4.29-4.43,6.4.47.31.94.63,1.42.94ZM99.41,531.95c-.76-1.64-1.88-2.51,0-4.07,2.5,1.5.91,2.33,0,4.07ZM111.89,473.99c0,.16,0,.31,0,.47-.33.13-.66.26-.98.39-.25-.98.26-.82.98-.86ZM104.64,534.17c-.33-.69-.66-1.37-1-2.06-.36-.39-.73-.77-1.09-1.16,8.08-6.35,7.01-2.99,2.08,3.22ZM118.68,550.24c.79-1.74,1.5-3.3,2.21-4.86-.1,1.58.61,7.27-2.21,4.86ZM124.16,555.47c1.5-.4,3.11-2.19,4.6-1.69-1.05,1.07-2.14,2.18-3.22,3.35-.46-.55-.92-1.11-1.37-1.66ZM129.19,554s.03.02.05.03c-1.81,2.14-6.37,6.2-.05-.03ZM129,553.53c-2.81-2.46,1.49-6.57,2.25-9.62.03-2.35-.12-4.47,2.47-5.47,4.71,5.31.66,9.6-4.72,15.08ZM135.25,333.25c.93-1.51,2.11-2.84,3.17-4.26-.29-.22-.58-.44-.87-.65.66-.89,1.04-2.07,2.34-1.97.66,1.41-2.55,2.37.8,2.18,1.56.31-4.64,5.17-5.43,4.69ZM150.85,707.06c-.12-.44-.25-.89-.46-1.63.87-2.81,1.46-6.15,2.65-9.06.18.34.56.71.51,1-.89,3.19-.32,7.24-2.71,9.69ZM172,699.97c-.29,2.62.52,5.78-1.73,7.71-3.59-2.81,1.39-13.24,2.51-16.55-.1-3.49.67-3.56,2.29-5.81.78,5.03-2.04,9.78-3.07,14.66ZM191.83,664.3c.59-2.17,1.18-4.35,1.76-6.52h0c.06,1.14.11,2.28.17,3.42.15-.51.31-1.01.46-1.52.69.56,1.78.15,1.87-.75,1.15.65.32,2.02.34,3.09-1.54.76-3.07,1.52-4.61,2.28,0,0,0,0,0,0ZM194.97,669.47c-1.06.98-2.13,1.96-3.52,3.24-2.31-2.18-.88-3.74.19-5.98,1.11.91,2.22,1.83,3.32,2.74ZM196.67,664.48c-.08.09-.16.17-.25.25.08-.08.17-.16.25-.25ZM196.33,664.82c-.08.07-.16.13-.23.19.08-.06.16-.12.23-.19ZM195.99,665.1c-.08.05-.16.1-.24.14.08-.04.17-.09.24-.14ZM195.62,665.32c-.08.04-.17.06-.26.09.09-.03.18-.05.26-.09ZM195.23,665.46c-.06.01-.13.02-.19.02.06,0,.13-.01.19-.02ZM198.21,662.36c-.14.2-.27.39-.4.57.13-.19.26-.38.4-.57ZM197.58,663.27c-.16.23-.31.44-.46.64.15-.2.3-.41.46-.64ZM196.99,664.09c-.05.06-.09.11-.14.17.05-.06.09-.11.14-.17ZM198.79,661.56c.04-1.43.08-2.87.13-4.3-.04,1.43-.08,2.87-.13,4.3h0ZM193.56,283.19c.17.29.33.59.51.89-.63.32-1.26.64-1.88.95,0-.16,0-.32,0-.47-.31,1.56-1.85,1.84-3.09,2.51-.57-3.26,2.22-3.06,4.47-3.88ZM178.85,720.22c-1.93-.77-.16-4.03-.37-5.76.31-4.58-.63-9.39.95-13.76,2.63,4.22-.59,9.2-.94,13.76,2.05,2.33,3.36,3.34.36,5.76ZM182.16,692.95c-.62-5.31,1.01-11.21,3.94-15.69.76,1.31,1.52,2.62,2.22,3.84-2.03,4.44-1.38,9.97-6.16,11.85ZM205.85,674.15c-.82.46-2.17.55-3.15.85.65,1.27,2.22,2.95,2.25,4.25-1.48,6.36-3.15,12.68-4.73,19.01,1.21,3.21.9,15.61-4.72,14.33,2.13-3.74-1.83-2.97-4.26-3.32-2.34,3.26,2.98,2.85,2.53,5.25-.05.26.64.69.57.9-.14.42-.57.74-.89,1.1-.63-1.09-1.45-2.94-2.51-3.4-2.89-.69-2.11-2.5-1.6-4.31-2.03-3.12-.58-7.79-.74-11.44.26-3.17,3.56-5.36,4.99-7.83,2.09-5.94,3.87-11.99,5.78-17.99.07-.21.22-.55.37-.57,4.75-.73,3.39-4.63,3.98-7.54.15-.71.79-1.94,1.03-1.9,1.24.21,3.49.93,3.45,1.17-.6,3.85-1.49,7.66-2.35,11.47ZM234.06,262.79c-1.01.94-2.02,1.88-3.25,3.03-.46-.72-.73-1.12-.99-1.53,1.36-.42,3.17-3.02,4.25-1.5ZM224.06,709.12c-.49,2.93-1.49,5.42-4.05,7.1.3-1.26.96-1.7.51-3.16.46-1.62.26-4.84,3.08-4.88.06-.02.53.67.46.94ZM223.69,703.31c.61-2.24-.13-5.14,2.44-6.22.76.39,1.61.73,1.58.82-.68,2.44-1.07,4.94-4.02,5.41ZM232.6,684.5c.07.03.15.06.22.08-2.24,3.62-2.61,11.15-7.76,11.33-.08-4.05,3.23-6.07,3.79-10.12.09-3.46,1.79-6.95,3.23-10.23.34-.79,2.43-.81,3.72-1.19.29,3.63-2.08,6.77-3.21,10.13ZM670.18,264.29c-.26.41-.53.81-.99,1.53-1.24-1.15-2.24-2.09-3.25-3.03,1.08-1.51,2.89,1.08,4.25,1.5ZM667.18,684.58c.07-.03.15-.06.22-.08-1.13-3.36-3.49-6.5-3.21-10.13,1.29.38,3.37.4,3.72,1.19,1.44,3.28,3.14,6.78,3.23,10.23.57,4.04,3.87,6.07,3.79,10.12-5.15-.18-5.51-7.71-7.76-11.33ZM672.29,697.9c-.03-.08.82-.43,1.58-.82,2.57,1.08,1.83,3.98,2.44,6.22-2.96-.47-3.34-2.97-4.02-5.41ZM675.94,709.12c-.07-.27.4-.96.46-.94,2.82.05,2.61,3.26,3.08,4.88-.45,1.46.21,1.91.51,3.16-2.56-1.68-3.56-4.17-4.05-7.1ZM706.44,283.19c2.25.81,5.04.61,4.47,3.88-1.24-.67-2.78-.95-3.09-2.51,0,.16,0,.32,0,.47-.63-.32-1.26-.64-1.88-.95.18-.29.34-.59.51-.89ZM703.91,658.93c.09.9,1.18,1.31,1.87.75.15.51.31,1.01.46,1.52.06-1.14.11-2.28.17-3.42h0c.59,2.17,1.17,4.35,1.76,6.52,0,0,0,0,0,0-1.54-.76-3.07-1.52-4.61-2.28.03-1.07-.81-2.45.34-3.09ZM703.49,664.64c-.05-.05-.1-.1-.16-.16.05.06.1.11.16.16ZM703.11,664.21s-.07-.08-.1-.12c.03.04.07.08.1.12ZM702.88,663.91c-.15-.2-.3-.41-.46-.64.16.23.31.44.46.64ZM702.18,662.93c-.13-.19-.26-.38-.4-.57.14.2.27.39.4.57ZM704.97,665.48c-.06,0-.13-.01-.19-.02.06.01.13.02.19.02ZM704.64,665.41c-.09-.03-.18-.05-.26-.09.08.04.17.06.26.09ZM704.26,665.25c-.08-.04-.17-.09-.24-.14.08.05.16.1.24.14ZM703.9,665.01c-.08-.06-.16-.12-.23-.19.08.07.16.13.23.19ZM708.35,666.73c1.07,2.24,2.51,3.8.19,5.98-1.39-1.28-2.45-2.26-3.52-3.24,1.11-.91,2.22-1.83,3.32-2.74ZM701.21,661.56h0c-.04-1.43-.08-2.87-.13-4.3.04,1.43.08,2.87.13,4.3ZM709.06,713.1c-1.07.46-1.89,2.31-2.51,3.4-.31-.36-.74-.68-.89-1.1-.07-.21.62-.64.57-.9-.46-2.4,4.87-1.99,2.53-5.25-2.43.34-6.39-.42-4.26,3.32-5.62,1.29-5.94-11.11-4.72-14.33-1.59-6.33-3.25-12.65-4.73-19.01.02-1.3,1.6-2.98,2.25-4.25-.98-.31-2.32-.39-3.15-.85-.86-3.81-1.75-7.62-2.35-11.47-.04-.24,2.21-.95,3.45-1.17.24-.04.89,1.19,1.03,1.9.6,2.91-.77,6.81,3.98,7.54.15.02.3.36.37.57,1.91,6,3.69,12.05,5.78,17.99,1.43,2.47,4.73,4.66,4.99,7.83-.16,3.65,1.29,8.32-.74,11.44.51,1.81,1.29,3.63-1.6,4.31ZM717.84,692.95c-4.78-1.88-4.13-7.41-6.16-11.85.71-1.22,1.46-2.53,2.22-3.84,2.93,4.48,4.56,10.37,3.94,15.69ZM721.15,720.22c-3-2.42-1.69-3.43.36-5.76-.35-4.56-3.57-9.54-.94-13.76,1.58,4.37.64,9.18.95,13.76-.21,1.72,1.56,4.99-.37,5.76ZM729.73,707.68c-2.25-1.93-1.44-5.09-1.73-7.71-1.03-4.88-3.85-9.63-3.07-14.66,1.61,2.26,2.39,2.33,2.29,5.81,1.12,3.31,6.1,13.74,2.51,16.55ZM749.6,705.44c-.21.74-.33,1.18-.46,1.63-2.39-2.45-1.82-6.5-2.71-9.69-.05-.3.33-.67.51-1,1.19,2.92,1.78,6.26,2.65,9.06ZM779.11,545.37c.71,1.56,1.42,3.12,2.21,4.86-2.82,2.41-2.1-3.29-2.21-4.86ZM759.31,328.55c3.35.19.14-.78.8-2.18,1.3-.1,1.68,1.08,2.34,1.97-.29.22-.58.43-.87.65,1.06,1.42,2.24,2.75,3.17,4.26-.79.47-7-4.38-5.43-4.69ZM766.28,538.45c2.59,1,2.43,3.12,2.47,5.47.76,3.05,5.06,7.16,2.25,9.62-5.38-5.48-9.43-9.77-4.72-15.08ZM770.75,554.03s.03-.02.05-.03c6.32,6.23,1.76,2.17-.05.03ZM775.84,555.47c-.46.55-.92,1.11-1.37,1.66-1.09-1.17-2.18-2.29-3.22-3.35,1.49-.51,3.1,1.29,4.6,1.69ZM800.58,527.88c1.89,1.56.76,2.43,0,4.07-.91-1.74-2.51-2.57,0-4.07ZM788.11,473.99c.72.03,1.22-.13.98.86-.33-.13-.66-.26-.98-.39,0-.16,0-.31,0-.47ZM797.44,530.95c-.36.39-.73.77-1.09,1.16-.33.69-.66,1.37-1,2.06-4.92-6.21-6-9.56,2.08-3.22ZM804.17,511.79c.47,0,.94,0,1.4,0-.12.24-.23.47-.35.71-.34-.24-.69-.48-1.06-.71ZM805.55,501.91s.02-.02.03-.03c-.02.02-.03.03-.03.03.33,1.71.66,3.43.98,5.14,2.65,1.65,5.64,4.21.95,5.21,1.76,2.63,3.43,5.32,5.17,7.95-2.11-2.83-4.35-5.51-7.3-7.64.4-.26.79-.53,1.19-.79-.31,0-.63,0-.94,0,0-.31,0-.63,0-.94-.47.31-.94.63-1.41.94,0,0,0,0,0,0-3.68-1.37-.93-3.49-.59-5.31,1.18-.65,1.12,1.27,1.53,2.01.47-.31.94-.63,1.42-.94-1.5-2.11-4.35-3.65-4.43-6.4,1.15.27,2.3.54,3.45.77ZM814.41,496.15c-.26-.11-.51-.21-.77-.32.06-.23.1-.36.13-.48.31.24.91.3.63.8ZM814.52,381.67c-1.24-1.91-4.77-3.57-1.99-5.22,1.4,1.14,2.72,2.37,4.05,3.58-.46.36-.92.73-2.06,1.64ZM820.24,503.75c-3.56-2.78-4.61-3.93-.31-6.73,2.76,1.49,2.4,7.36,3.45,10.28-1.05-1.18-2.1-2.37-3.14-3.55Z" fill="#7d2b8b" stroke-width="0"/><path d="M664.51,63.6c2.77,3.69,7.71,3.31,11.62,5.03,7.11,2.63,14.16,5.45,21.24,8.17,1.34.59,1.81-.55,2.28-1.55-11.03-4.03-21.23-8.72-32.55-12.63-.62.24-1.61.61-2.6.99Z" fill="#7d2b8b" stroke-width="0"/><path d="M826.26,550.87c-.19,0-.61.9-.49,1.03,6.4,5.96,7.27,16.34,12.41,23.65.15-1.74.31-3.47.46-5.21-.73-1.6-1.22-3.38-2.27-4.74-1.02-1.33-3.21-2.07-.68-4,.89-1.92-1.69-3.94-2.8-5.38-2.09-1.95-3.21-5.97-6.63-5.36Z" fill="#7d2b8b" stroke-width="0"/><path d="M791.03,131.03c1.66.03,3.33-1.13,4.71-1.66,5.49,2.97,6.08,1.87,3.42,7.53,4.77,1.95,5.85-3.98,5.8-7.46.02-.18-.54-.55-.87-.61-3.85-.48-8.04-1.95-11.8-1.79-.95,4.13-3.02-.33-4.41.57-5.08.67,1.42,3.42,3.16,3.42Z" fill="#7d2b8b" stroke-width="0"/><path d="M816.46,278.53c.75,1.45,9.36,6.79,8.01,1.77-5.05-4.56-10.19-8.74-16.98-10.39,2.91,2.89,6.12,5.78,8.97,8.62Z" fill="#7d2b8b" stroke-width="0"/><path d="M503.42,9.23c.03-.17.05-.34.08-.51,2.87.24,6.06,2.23,8.76,1.03-6.26-3.36-15.22-2.43-22.1-4.95-4.21,3.57,11.28,3.38,13.26,4.43Z" fill="#7d2b8b" stroke-width="0"/><path d="M779.69,115.65c.4.19,1.07-.23,2.63-.61-6.7-3.14-10.49-8.31-18.06-8.51,3.12,5.17,10.46,6.01,15.44,9.11Z" fill="#7d2b8b" stroke-width="0"/><path d="M623.04,42.42c.12.31.23.62.35.92.68-.45,1.37-.89,2.05-1.34-3.96-.5-15.14-8.46-16.51-2.89,1.57.7,3.31.93,4.88,1.58,3.11,1.48,5.74,3.86,9.23,1.73Z" fill="#7d2b8b" stroke-width="0"/><path d="M835.35,617.54c-.78-.89-1.22-1.95-1.67-3.03.28-.13.55-.26.83-.39-2.06-3.93-4.1-7.87-6.22-11.76-.14-.25-.84-.2-1.28-.29,1.34,5.13,3.94,10.01,6.01,14.92.22.45,1.53.38,2.33.55Z" fill="#7d2b8b" stroke-width="0"/><path d="M607.12,25.57c-4.42-4-12.33-4.76-18.17-4.73,4.33,3.54,11.31,3.16,16.83,5.2.36-.13.85-.3,1.34-.47Z" fill="#7d2b8b" stroke-width="0"/><path d="M605.82,36.38c-4.86.81-9.27-2.83-13.98-2.87.27.39.46,1.01.82,1.14,4.76,1.41,9.07,2.96,13.61,5.24.5-.46,1.17-.92,1.11-1.04-.43-.9-.82-2.18-1.56-2.48Z" fill="#7d2b8b" stroke-width="0"/><path d="M648.22,50.34c.82-.32,1.4-.54,1.98-.76-4.55-2.43-10.06-3.93-15.18-4.68,2.99,3.74,9.01,3.46,13.2,5.44Z" fill="#7d2b8b" stroke-width="0"/><path d="M816.87,545.29c-2.05.33-3.11.73-3.57-2.24-.25-1.37-1.17-2.62-1.78-3.92-.51.06-1.02.12-1.54.18-1.68,3.1,2.3,5.87,3.57,8.6,2.35,1.95,2.6-.99,3.32-2.62Z" fill="#7d2b8b" stroke-width="0"/><path d="M823.53,566.19c.89-.38,1.44-.62,1.98-.85-2.09-3.59-4.51-6.99-6.65-10.56-.28.71-.96,1.57-.77,2.12,1.43,3.29,1.97,7.52,5.44,9.29Z" fill="#7d2b8b" stroke-width="0"/><path d="M825.66,282.77c-.93,2.09,5.1,5.76,6.4,7.82,1.19-.33,1.63-.89,1.05-1.84-2.43-1.71-4.43-6.07-7.45-5.98Z" fill="#7d2b8b" stroke-width="0"/><path d="M640.67,34c-3.8-2.87-9.68-3.09-14.65-5.09-.72.48-1.54,1.02-2.36,1.56,2,.9,4.15.94,6.26,1.28,3.57.51,7.24,2.77,10.76,2.24Z" fill="#7d2b8b" stroke-width="0"/><path d="M822.85,671.97c-2.9.75-.18,11.89,2.81,7.36-.98-2.78.1-6.83-2.81-7.36Z" fill="#7d2b8b" stroke-width="0"/><path d="M806.23,582.07c.61,3.27,1.15,5.77,3.93,7.65.1.09.9-.34.89-.38-.46-2.5-2.8-5.32-1.41-7.72-1.41-.48-2.74-1.6-3.4.45Z" fill="#7d2b8b" stroke-width="0"/><path d="M835.92,627.73c1.38,1.99,1.63,5.94,4.41,6.68,1.47-3.19-1.31-6.92-3.24-9.41-.3.69-.6,1.39-1.18,2.73Z" fill="#7d2b8b" stroke-width="0"/><path d="M753.69,101.5c-2.19-3.37-7.94-4.53-11.19-6.89-.78.29-1.13.41-1.48.54,2.66,2.99,7.68,4.28,11.21,6.56.36.18.97-.13,1.46-.21Z" fill="#7d2b8b" stroke-width="0"/><path d="M671.46,58.22c1.15-.34,1.56-.45,1.97-.57-3.67-2.35-8.65-3.67-12.96-4.57,2.28,3.29,7.94,3.44,10.99,5.14Z" fill="#7d2b8b" stroke-width="0"/><path d="M648.27,57.18c-3.12-.8-6.24-1.66-9.39-2.34-4.81,3.35,5.55,2.63,7.04,3.12,1.52.68,1.55.18,2.35-.78Z" fill="#7d2b8b" stroke-width="0"/><path d="M766.53,99c2.97,1.35,5.77,4.16,9.13,3.91-.4-1.04-.48-2.03-.92-2.24-3.01-1.24-6-2.82-9.2-3.47.32.61.49,1.49,1,1.8Z" fill="#7d2b8b" stroke-width="0"/><path d="M833.62,634.78c-.76,3.39,1.08,6.95,2.55,9.98.51-.26,1.03-.53,1.35-.69-1.52-3.29-.85-7.78-3.9-9.28Z" fill="#7d2b8b" stroke-width="0"/><path d="M734.74,288.8c-2.81-.96-5.44-3.94-8.52-2.97,1.48,2.56,5.56,3.14,8.04,4.87,1.32,1.73,2.54,3.52,3.94,5.19,1.78-3.19.5-5.58-2.97-6.16-.16-.31-.33-.62-.49-.92Z" fill="#7d2b8b" stroke-width="0"/><path d="M765.47,118.92c1.06-.71,1.8-1.21,2.54-1.71-1.38-.73-2.74-1.52-4.18-2.09-2.32,1.88-.07,2.44,1.64,3.8Z" fill="#7d2b8b" stroke-width="0"/><path d="M702.4,78.03c-.04.65-.07,1.3-.11,1.94,2.3-.4,5.22.17,7.2-.81-1.83-1.08-4.85-.62-7.09-1.14Z" fill="#7d2b8b" stroke-width="0"/><path d="M618.19,27.52c-2.41-.52-5.32-3.93-7.09-1,1.82.76,3.64,1.52,5.62,2.35.67-.62,1.07-.98,1.47-1.35Z" fill="#7d2b8b" stroke-width="0"/><path d="M826.27,630.53c1.07,1.48,1.95,2.7,2.83,3.92,2.35-1.58-.68-3.87-1.2-5.84-.44.52-.87,1.03-1.63,1.92Z" fill="#7d2b8b" stroke-width="0"/><path d="M812.89,558.71c2.57-2.86,1.5-3.62-1.09-6.29-1.66,2.75.14,3.93,1.09,6.29Z" fill="#7d2b8b" stroke-width="0"/><path d="M732.07,103.82c.96-.75,1.47-1.15,1.97-1.54-.82-.92-1.65-1.84-2.47-2.76-.65.86-1.3,1.72-1.94,2.58.72.5,1.43,1.01,2.45,1.72Z" fill="#7d2b8b" stroke-width="0"/><path d="M587.47,21.14c.04-.34.08-.68.13-1.02-2.26-.52-4.47-2.01-6.73-.73,1.99.98,4.39,2.9,6.61,1.75Z" fill="#7d2b8b" stroke-width="0"/><path d="M745.92,246.91c.09.11,1.4-.8,2.14-1.24-1.76-1.07-3.51-2.14-5.27-3.21,0,0-.06.06-.06.06,1.03,1.49,2.02,3.01,3.19,4.39Z" fill="#7d2b8b" stroke-width="0"/><path d="M527.39,12.28c-1.56-.48-3.72-2.8-4.94-.93.98.81,1.96,1.63,4.1,3.4.41-1.17.96-2.41.85-2.47Z" fill="#7d2b8b" stroke-width="0"/><path d="M845.65,591.7c1.88-2.03-.59-3.35-1.59-6.02-1.83,2.99.37,3.7,1.59,6.02Z" fill="#7d2b8b" stroke-width="0"/><path d="M728.23,81.27c.5-1.05,2.03-1.86,1.26-2.73-2.18-.46-4.34-1.46-6.58-1.35.52,2.19,3.42,2.54,5.32,4.08Z" fill="#7d2b8b" stroke-width="0"/><path d="M626.11,42.92c1.13.76,2.26,1.52,3.37,2.27,1.34-.52,2.21-.86,3.09-1.2-2.1-.31-4.8-3.07-6.47-1.07Z" fill="#7d2b8b" stroke-width="0"/><path d="M840.13,569.52c-.5.27-1,.55-1.5.82-.15,1.74-.31,3.47-.46,5.21,4.74-.03,3-3.03,1.96-6.03Z" fill="#7d2b8b" stroke-width="0"/><path d="M687.68,62.6c-1.43-1.78-4.36-1.48-6.45-2.28-.08-.02-.3.59-.46.91,2.25.36,5.01,3.26,6.91,1.37Z" fill="#7d2b8b" stroke-width="0"/><path d="M721.85,76.44c-1.59-.88-3.17-1.75-5.33-2.95-.2.47-.56,1.23-.52,1.25,1.86.55,4.18,3.45,5.85,1.7Z" fill="#7d2b8b" stroke-width="0"/><path d="M836.16,291c-1.46,1.87,2.12,3.33,3.22,5.19,2.06-1.96-2.15-3.47-3.22-5.19Z" fill="#7d2b8b" stroke-width="0"/><path d="M814.74,600.83c2.21-1.63.88-3.04-.18-4.84-.33.74-.66,1.48-1.08,2.41.46.89.87,1.66,1.27,2.43Z" fill="#7d2b8b" stroke-width="0"/><path d="M735.99,286.04c-.6.53-1.11.98-1.62,1.42,1.52.65,3.01,3.28,4.65,2-.95-1.08-1.91-2.16-3.02-3.42Z" fill="#7d2b8b" stroke-width="0"/><path d="M834.1,556.69c.04-.28.08-.55.12-.83-.09-.01-.17-.02-.26-.04.07-.3.14-.6.21-.9.66,1.25,1.6,2.3,2.5,3.37,1.18-1.32-1.58-3.15-2.19-4.54-1.58-.11-1.29,2.24-.38,2.93Z" fill="#7d2b8b" stroke-width="0"/><path d="M838.87,550.97c-3.06,3.57-3.45,3.05-.84,5.11,1.7-1.77,1.83-2.33.84-5.11Z" fill="#7d2b8b" stroke-width="0"/><path d="M578.95,18.11c-1.11-.35-2.21-.69-3.52-1.11-.48.29-1.04.63-1.6.97,1.92.81,3.59,2.6,5.12.14Z" fill="#7d2b8b" stroke-width="0"/><path d="M710.79,71.62c-4.08-1.74-5.51-2.47-4.2,2.75,1.28-1.11,2.66-2.05,4.2-2.75Z" fill="#7d2b8b" stroke-width="0"/><path d="M818.68,569.45c1.74-2.13,1.01-3.84-.36-5.88-.36.11-.72.22-1.07.33.49,1.85.77,3.75,1.43,5.55Z" fill="#7d2b8b" stroke-width="0"/><path d="M827.28,601.09c2.31-1.88-.55-2.81-1.75-4.56-1.1,1.78,1.06,3.02,1.75,4.56Z" fill="#7d2b8b" stroke-width="0"/><path d="M811.51,590.45c-2,1.92-.08,3.01.64,4.89,2.19-1.22-.09-2.82-.64-4.89Z" fill="#7d2b8b" stroke-width="0"/><path d="M508.16,18.54c2.84.46,3.65,1.48,5.57.55-2.18-1.83-2.35-2.58-5.57-.55Z" fill="#7d2b8b" stroke-width="0"/><path d="M839.14,577.51c1.6,1.82,1.66,3.72,4.69,1.93-2.43-1.38-3.4-3.64-4.69-1.93Z" fill="#7d2b8b" stroke-width="0"/><path d="M652.85,63.75c-1.28-.48-2.56-.97-3.53-1.34-1.31.24-2.14.4-2.98.55,2.16.28,4.44,1.82,6.51.79Z" fill="#7d2b8b" stroke-width="0"/><path d="M829.72,626.51c1.25,1.05,1.7,4.28,3.63,2.97-1.34-1.18-1.93-4.41-3.63-2.97Z" fill="#7d2b8b" stroke-width="0"/><path d="M771.03,118.09c-.99,2.31.4,2.68,1.5,4.24,2.03-1.88.33-1.9-1.5-4.24Z" fill="#7d2b8b" stroke-width="0"/><path d="M656.1,60.57c-.79-.62-1.59-1.24-2.25-1.76-.98.28-1.53.43-2.08.59,1.44.44,3.04,2.71,4.33,1.17Z" fill="#7d2b8b" stroke-width="0"/><path d="M710.29,262.59c1.83,1.6,1.36,2.47,4.33.45-2.15-1.04-2.85-2.5-4.33-.45Z" fill="#7d2b8b" stroke-width="0"/><path d="M828.88,619.67s.4-.33,1.8-1.52c-1.31-.62-2.26-1.11-3.27-1.47-1.71,1.1.63,2.1,1.47,2.99Z" fill="#7d2b8b" stroke-width="0"/><path d="M550.31,14.3c-.63-.29-1.27-.57-2.15-.97-.69.38-1.36.74-2.02,1.11,1.16,2.15,2.59.45,4.17-.14Z" fill="#7d2b8b" stroke-width="0"/><path d="M742.42,107.45c1.56-.95-1.1-2.45-1.78-3.81-2.1,1.59.93,2.44,1.78,3.81Z" fill="#7d2b8b" stroke-width="0"/><path d="M699.04,258.93c1.29.55,2.54-.36,4.1-.55-1.16-.72-1.98-1.23-2.8-1.75l-1.29,2.29Z" fill="#7d2b8b" stroke-width="0"/><polygon points="857.38 247 857.25 246.92 857.23 247.05 857.38 247" fill="#7d2b8b" stroke-width="0"/><path d="M779.61,222.19c.15-.12.29-.23.44-.35-.17,0-.34,0-.51,0,.03.12.05.24.07.35Z" fill="#7d2b8b" stroke-width="0"/><path d="M775.78,145.1c-2.31-1.71-5.77-3.92-3.42.87,1.43-.37,2.43-.62,3.42-.87Z" fill="#7d2b8b" stroke-width="0"/><path d="M784.8,149.9c-1.45-1.43-2.76-2.93-4.92-3.1.32,2.68,2.9,2.42,4.92,3.1Z" fill="#7d2b8b" stroke-width="0"/><polygon points="784.8 149.9 784.8 149.9 784.8 149.9 784.8 149.9 784.8 149.9" fill="#7d2b8b" stroke-width="0"/><path d="M767.46,146.43c-1.17-.25-2.33-.49-3.57-.75-.71.17-1.39.33-2.08.49,1.55,1.9,3.67.49,5.65.26Z" fill="#7d2b8b" stroke-width="0"/><path d="M702.25,689.95c1.53,1.53,2.22-.44,3.76-1.39-1.85-1.91-2.31.44-3.76,1.39Z" fill="#7d2b8b" stroke-width="0"/><path d="M192.18,284.54s0,0,0,.01c0-.01,0-.02,0-.03v.02Z" fill="#7d2b8b" stroke-width="0"/><path d="M202.63,76.79c7.08-2.71,14.13-5.54,21.24-8.17,3.91-1.71,8.85-1.34,11.62-5.03-.99-.38-1.97-.75-2.6-.99-11.32,3.91-21.51,8.6-32.55,12.63.47,1.01.94,2.15,2.28,1.55Z" fill="#7d2b8b" stroke-width="0"/><path d="M73.74,550.87c-3.43-.6-4.54,3.41-6.63,5.36-1.11,1.43-3.69,3.45-2.8,5.38,2.53,1.93.35,2.66-.68,4-1.04,1.36-1.54,3.14-2.27,4.74.15,1.74.31,3.47.46,5.21,5.14-7.31,6.01-17.69,12.41-23.65.11-.13-.3-1.03-.49-1.03Z" fill="#7d2b8b" stroke-width="0"/><path d="M100.84,136.9c-2.66-5.66-2.07-4.56,3.42-7.53,1.37.52,3.05,1.68,4.71,1.66,1.74,0,8.25-2.76,3.16-3.42-1.39-.9-3.46,3.56-4.41-.57-3.76-.15-7.95,1.31-11.8,1.79-.33.06-.88.43-.87.61-.06,3.48,1.02,9.41,5.8,7.46Z" fill="#7d2b8b" stroke-width="0"/><path d="M83.54,278.53c2.86-2.85,6.07-5.73,8.97-8.62-6.79,1.65-11.93,5.83-16.98,10.39-1.36,5.02,7.26-.32,8.01-1.77Z" fill="#7d2b8b" stroke-width="0"/><path d="M396.5,8.71c.03.17.05.34.08.51,1.98-1.05,17.47-.86,13.26-4.43-6.88,2.52-15.83,1.59-22.1,4.95,2.69,1.19,5.88-.8,8.76-1.03Z" fill="#7d2b8b" stroke-width="0"/><path d="M120.31,115.65c4.98-3.1,12.32-3.94,15.44-9.11-7.57.2-11.36,5.37-18.06,8.51,1.55.38,2.23.79,2.63.61Z" fill="#7d2b8b" stroke-width="0"/><path d="M274.57,42c.68.45,1.37.89,2.05,1.34.12-.31.23-.62.35-.92,3.49,2.13,6.12-.25,9.23-1.73,1.57-.64,3.31-.88,4.88-1.58-1.37-5.57-12.55,2.38-16.51,2.89Z" fill="#7d2b8b" stroke-width="0"/><path d="M66.98,616.99c2.08-4.9,4.67-9.78,6.01-14.92-.44.09-1.14.04-1.28.29-2.12,3.9-4.16,7.83-6.22,11.76.28.13.55.26.83.39-.44,1.08-.89,2.14-1.67,3.03.8-.17,2.11-.1,2.33-.55Z" fill="#7d2b8b" stroke-width="0"/><path d="M311.04,20.84c-5.84-.03-13.75.73-18.17,4.73.49.17.98.34,1.34.47,5.51-2.04,12.5-1.66,16.83-5.2Z" fill="#7d2b8b" stroke-width="0"/><path d="M293.73,39.9c4.54-2.28,8.85-3.83,13.61-5.24.36-.13.55-.75.82-1.14-4.71.04-9.11,3.68-13.98,2.87-.75.3-1.14,1.58-1.56,2.48-.06.12.61.58,1.11,1.04Z" fill="#7d2b8b" stroke-width="0"/><path d="M264.98,44.91c-5.11.75-10.63,2.24-15.18,4.68.58.22,1.15.44,1.98.76,4.19-1.98,10.2-1.7,13.2-5.44Z" fill="#7d2b8b" stroke-width="0"/><path d="M90.02,539.31c-.51-.06-1.02-.12-1.54-.18-.62,1.3-1.53,2.55-1.78,3.92-.46,2.97-1.52,2.57-3.57,2.24.72,1.63.97,4.58,3.32,2.62,1.27-2.73,5.25-5.49,3.57-8.6Z" fill="#7d2b8b" stroke-width="0"/><path d="M74.49,565.33c.55.24,1.09.47,1.98.85,3.47-1.77,4.01-6,5.44-9.29.19-.55-.49-1.4-.77-2.12-2.14,3.57-4.56,6.96-6.65,10.56Z" fill="#7d2b8b" stroke-width="0"/><path d="M74.34,282.77c-3.03-.1-5.02,4.27-7.45,5.98-.58.95-.14,1.52,1.05,1.84,1.3-2.05,7.33-5.72,6.4-7.82Z" fill="#7d2b8b" stroke-width="0"/><path d="M270.09,31.75c2.11-.34,4.26-.38,6.26-1.28-.82-.54-1.64-1.08-2.36-1.56-4.97,2-10.85,2.22-14.65,5.09,3.52.53,7.19-1.74,10.76-2.24Z" fill="#7d2b8b" stroke-width="0"/><path d="M77.15,671.97c-2.91.54-1.82,4.58-2.81,7.36,2.99,4.53,5.71-6.61,2.81-7.36Z" fill="#7d2b8b" stroke-width="0"/><path d="M89.84,589.71c2.78-1.87,3.32-4.38,3.93-7.65-.66-2.05-1.99-.93-3.4-.45,1.39,2.4-.96,5.21-1.41,7.72-.01.04.78.48.89.38Z" fill="#7d2b8b" stroke-width="0"/><path d="M62.9,625.01c-1.93,2.49-4.7,6.22-3.24,9.41,2.79-.74,3.03-4.7,4.41-6.68-.58-1.34-.88-2.03-1.18-2.73Z" fill="#7d2b8b" stroke-width="0"/><path d="M147.77,101.71c3.53-2.28,8.55-3.57,11.21-6.56-.35-.13-.7-.26-1.48-.54-3.25,2.37-9,3.53-11.19,6.89.49.08,1.1.39,1.46.21Z" fill="#7d2b8b" stroke-width="0"/><path d="M239.52,53.08c-4.31.9-9.29,2.22-12.96,4.57.41.12.81.24,1.97.57,3.05-1.7,8.71-1.85,10.99-5.14Z" fill="#7d2b8b" stroke-width="0"/><path d="M261.11,54.84c-3.15.68-6.26,1.54-9.39,2.34.8.96.83,1.45,2.35.78,1.49-.49,11.85.23,7.04-3.12Z" fill="#7d2b8b" stroke-width="0"/><path d="M133.47,99c.51-.3.67-1.18,1-1.8-3.2.65-6.18,2.23-9.2,3.47-.44.2-.52,1.2-.92,2.24,3.36.25,6.15-2.56,9.13-3.91Z" fill="#7d2b8b" stroke-width="0"/><path d="M62.48,644.07c.32.16.83.43,1.35.69,1.47-3.02,3.31-6.59,2.55-9.98-3.06,1.5-2.38,6-3.9,9.28Z" fill="#7d2b8b" stroke-width="0"/><path d="M134.53,118.92c1.7-1.36,3.96-1.92,1.64-3.8-1.44.58-2.8,1.37-4.18,2.09.74.5,1.48.99,2.54,1.71Z" fill="#7d2b8b" stroke-width="0"/><path d="M197.71,79.98l-.11-1.94c-2.23.52-5.26.06-7.09,1.14,1.98.97,4.9.4,7.2.81Z" fill="#7d2b8b" stroke-width="0"/><path d="M288.9,26.52c-1.77-2.93-4.68.49-7.09,1,.4.37.8.73,1.47,1.35,1.98-.83,3.8-1.59,5.62-2.35Z" fill="#7d2b8b" stroke-width="0"/><path d="M70.9,634.45c.88-1.22,1.76-2.43,2.83-3.92-.75-.89-1.19-1.41-1.63-1.92-.53,1.97-3.55,4.26-1.2,5.84Z" fill="#7d2b8b" stroke-width="0"/><path d="M87.11,558.71c.96-2.36,2.75-3.54,1.09-6.29-2.59,2.67-3.66,3.43-1.09,6.29Z" fill="#7d2b8b" stroke-width="0"/><path d="M170.38,102.1c-.65-.86-1.3-1.72-1.94-2.58-.82.92-1.65,1.84-2.47,2.76.5.39,1,.78,1.97,1.54,1.01-.71,1.73-1.22,2.45-1.72Z" fill="#7d2b8b" stroke-width="0"/><path d="M319.13,19.39c-2.26-1.28-4.47.21-6.73.73l.13,1.02c2.22,1.15,4.61-.78,6.61-1.75Z" fill="#7d2b8b" stroke-width="0"/><path d="M154.08,246.91c1.16-1.38,2.15-2.9,3.19-4.39,0,0-.06-.06-.06-.06-1.76,1.07-3.51,2.14-5.27,3.21.74.44,2.04,1.35,2.14,1.24Z" fill="#7d2b8b" stroke-width="0"/><path d="M377.55,11.35c-1.22-1.87-3.38.45-4.94.93-.11.06.44,1.3.85,2.47,2.14-1.77,3.12-2.59,4.1-3.4Z" fill="#7d2b8b" stroke-width="0"/><path d="M161.8,295.88c1.39-1.67,2.62-3.46,3.94-5.19,2.48-1.73,6.56-2.31,8.04-4.87-3.07-.97-5.7,2.01-8.52,2.97-.16.31-.33.62-.49.92-3.47.59-4.75,2.98-2.97,6.16Z" fill="#7d2b8b" stroke-width="0"/><path d="M54.35,591.7c1.23-2.31,3.42-3.03,1.59-6.02-1,2.67-3.48,3.99-1.59,6.02Z" fill="#7d2b8b" stroke-width="0"/><path d="M177.09,77.19c-2.24-.11-4.4.89-6.58,1.35-.76.88.76,1.69,1.26,2.73,1.9-1.54,4.8-1.89,5.32-4.08Z" fill="#7d2b8b" stroke-width="0"/><path d="M270.51,45.19c1.11-.75,2.24-1.51,3.37-2.27-1.67-2-4.36.76-6.47,1.07.88.34,1.76.68,3.09,1.2Z" fill="#7d2b8b" stroke-width="0"/><path d="M61.83,575.55c-.15-1.74-.31-3.47-.46-5.21-.5-.27-1-.55-1.5-.82-1.04,3-2.78,6,1.96,6.03Z" fill="#7d2b8b" stroke-width="0"/><path d="M219.23,61.23c-.16-.32-.38-.93-.46-.91-2.09.81-5.02.5-6.45,2.28,1.9,1.89,4.65-1.01,6.91-1.37Z" fill="#7d2b8b" stroke-width="0"/><path d="M184,74.75s-.32-.78-.52-1.25c-2.16,1.19-3.75,2.07-5.33,2.95,1.67,1.75,3.99-1.15,5.85-1.7Z" fill="#7d2b8b" stroke-width="0"/><path d="M63.84,291c-1.06,1.72-5.28,3.23-3.22,5.19,1.09-1.86,4.67-3.32,3.22-5.19Z" fill="#7d2b8b" stroke-width="0"/><path d="M85.26,600.83c.4-.77.8-1.54,1.27-2.43-.42-.93-.75-1.67-1.08-2.41-1.06,1.8-2.4,3.21-.18,4.84Z" fill="#7d2b8b" stroke-width="0"/><path d="M160.99,289.46c1.64,1.28,3.13-1.35,4.65-2-.51-.45-1.02-.9-1.62-1.42-1.12,1.26-2.07,2.34-3.02,3.42Z" fill="#7d2b8b" stroke-width="0"/><path d="M65.9,556.69c.9-.7,1.2-3.04-.38-2.93-.61,1.39-3.37,3.22-2.2,4.54.9-1.08,1.85-2.12,2.5-3.37.07.3.14.6.21.9-.09.01-.17.02-.26.04.04.28.08.55.12.83Z" fill="#7d2b8b" stroke-width="0"/><path d="M61.97,556.08c2.62-2.06,2.22-1.54-.84-5.11-.99,2.78-.87,3.34.84,5.11Z" fill="#7d2b8b" stroke-width="0"/><path d="M326.18,17.97c-.56-.34-1.12-.68-1.6-.97-1.31.41-2.42.76-3.52,1.11,1.54,2.46,3.2.67,5.12-.14Z" fill="#7d2b8b" stroke-width="0"/><path d="M189.21,71.62c1.55.7,2.92,1.64,4.2,2.75,1.31-5.22-.12-4.49-4.2-2.75Z" fill="#7d2b8b" stroke-width="0"/><path d="M81.32,569.45c.66-1.79.94-3.7,1.43-5.55-.36-.11-.72-.22-1.07-.33-1.36,2.04-2.09,3.75-.36,5.88Z" fill="#7d2b8b" stroke-width="0"/><path d="M72.72,601.09c.69-1.54,2.85-2.78,1.75-4.56-1.2,1.75-4.06,2.68-1.75,4.56Z" fill="#7d2b8b" stroke-width="0"/><path d="M87.85,595.34c.72-1.88,2.64-2.97.64-4.89-.55,2.07-2.83,3.67-.64,4.89Z" fill="#7d2b8b" stroke-width="0"/><path d="M391.84,18.54c-3.22-2.04-3.39-1.29-5.57.55,1.92.93,2.73-.09,5.57-.55Z" fill="#7d2b8b" stroke-width="0"/><path d="M60.86,577.51c-1.29-1.72-2.26.55-4.69,1.93,3.03,1.8,3.08-.11,4.69-1.93Z" fill="#7d2b8b" stroke-width="0"/><path d="M247.15,63.75c2.07,1.03,4.35-.5,6.51-.79-.83-.15-1.66-.31-2.98-.55-.97.37-2.25.85-3.53,1.34Z" fill="#7d2b8b" stroke-width="0"/><path d="M70.28,626.51c-1.69-1.44-2.28,1.79-3.63,2.97,1.93,1.31,2.37-1.93,3.63-2.97Z" fill="#7d2b8b" stroke-width="0"/><path d="M127.47,122.33c1.1-1.56,2.49-1.93,1.5-4.24-1.83,2.34-3.53,2.36-1.5,4.24Z" fill="#7d2b8b" stroke-width="0"/><path d="M248.23,59.4c-.55-.15-1.1-.31-2.08-.59-.66.52-1.46,1.14-2.25,1.76,1.28,1.54,2.89-.73,4.33-1.17Z" fill="#7d2b8b" stroke-width="0"/><path d="M189.71,262.59c-1.48-2.05-2.19-.59-4.33.45,2.97,2.02,2.5,1.14,4.33-.45Z" fill="#7d2b8b" stroke-width="0"/><path d="M72.59,616.68c-1,.35-1.96.85-3.27,1.47,1.4,1.19,1.76,1.55,1.8,1.52.84-.88,3.19-1.89,1.47-2.99Z" fill="#7d2b8b" stroke-width="0"/><path d="M353.86,14.43c-.67-.37-1.33-.73-2.02-1.11-.88.4-1.51.68-2.15.97,1.57.59,3,2.29,4.17.14Z" fill="#7d2b8b" stroke-width="0"/><path d="M157.58,107.45c.85-1.37,3.88-2.22,1.78-3.81-.68,1.36-3.34,2.86-1.78,3.81Z" fill="#7d2b8b" stroke-width="0"/><path d="M199.66,256.63c-.82.51-1.65,1.03-2.8,1.75,1.56.19,2.81,1.1,4.1.55-.43-.76-.86-1.53-1.29-2.29Z" fill="#7d2b8b" stroke-width="0"/><polygon points="42.62 247 42.77 247.05 42.75 246.92 42.62 247" fill="#7d2b8b" stroke-width="0"/><path d="M120.39,222.19c.02-.12.04-.24.07-.35-.17,0-.34,0-.51,0,.15.12.29.23.44.35Z" fill="#7d2b8b" stroke-width="0"/><path d="M124.22,145.1c1,.25,1.99.51,3.42.87,2.35-4.79-1.11-2.58-3.42-.87Z" fill="#7d2b8b" stroke-width="0"/><polygon points="115.2 149.9 115.2 149.9 115.2 149.9 115.2 149.9 115.2 149.9" fill="#7d2b8b" stroke-width="0"/><path d="M120.12,146.8c-2.15.17-3.47,1.67-4.92,3.1,2.01-.68,4.59-.42,4.92-3.1Z" fill="#7d2b8b" stroke-width="0"/><path d="M132.54,146.43c1.98.23,4.1,1.65,5.65-.26-.68-.16-1.37-.32-2.08-.49-1.24.26-2.41.51-3.57.75Z" fill="#7d2b8b" stroke-width="0"/><path d="M194,688.56c1.53.96,2.22,2.92,3.76,1.39-1.44-.95-1.91-3.31-3.76-1.39Z" fill="#7d2b8b" stroke-width="0"/></svg>