<?xml version="1.0" encoding="UTF-8"?><svg id="uuid-507c4e2f-c318-448b-b6ee-63b7df047616" xmlns="http://www.w3.org/2000/svg" width="900" height="750" xmlns:xlink="http://www.w3.org/1999/xlink" viewBox="0 0 900 750"><defs><clipPath id="uuid-b1cae0a7-a9fd-4052-95ac-80bdcb206288"><rect x="-5" y="0" width="400" height="350" fill="none" stroke-width="0"/></clipPath><linearGradient id="uuid-2b10b8b2-72c2-47b8-8254-0053ed40817c" x1="5.95" y1="-7827" x2="384.05" y2="-7827" gradientTransform="translate(0 -7652) scale(1 -1)" gradientUnits="userSpaceOnUse"><stop offset="0" stop-color="#323b8c"/><stop offset=".2" stop-color="#4675b8"/><stop offset=".3" stop-color="#4675b8"/><stop offset=".5" stop-color="#323b8c"/><stop offset=".7" stop-color="#33348e"/><stop offset=".8" stop-color="#2a2760"/><stop offset="1" stop-color="#323b8c"/></linearGradient><pattern id="uuid-47a8a65b-17ff-463f-852e-2c3cfab7f1bb" x="0" y="0" width="390" height="350" patternTransform="translate(460 -770)" patternUnits="userSpaceOnUse" viewBox="0 0 390 350"><rect y="0" width="390" height="350" fill="none" stroke-width="0"/><g clip-path="url(#uuid-b1cae0a7-a9fd-4052-95ac-80bdcb206288)"><path d="M229.19,180.02c-.09-2.83-.22-5.65-.45-8.47-2.13-26.64-1.57-58.51.26-86.19,1.15-17.42,1.97-35.32,2.52-52.8.75-23.82,1.89-48.07,1.63-71.88-.38-36.02-3.3-72.11-3.4-107.93-.02-9.37.22-18.69.42-27.75h44.13c-3.16,23.58,1.15,46.7,2.66,70.24,1.71,26.83,3.5,53.28,3.34,80.29-.24,39.69-1.79,79.29-4.02,119.18-1.48,26.3-2.37,53.84-1.5,80.29,0,0,.68,46.7,2.18,70.24,1.71,26.83,3.5,53.28,3.34,80.29-.24,39.69-1.79,79.29-4.02,119.18-1.48,26.3-2.37,53.84-1.5,80.29h-45.74c-2.47-27.31-1.94-60.75-.03-89.64,1.15-17.42,1.97-35.32,2.52-52.8.75-23.82,1.89-48.07,1.63-71.88l-3.96-130.65ZM10.26,267.37c.15,3.11.18,6.22.12,9.33-.19,8.91-.37,18.01-.54,26.94-.23,11.99-.44,24.1-.62,36.12s-.35,24.08-.5,36.1c-.15,12.02-.29,24.04-.43,36.04-.13,12-.26,24.01-.43,35.99-.17,11.97-.29,23.94-.62,35.88-.33,11.94-.72,23.88-1.12,35.77-.06,1.8-.11,3.66-.17,5.48h48.01c2.08-87.11-3.19-179.6-3.99-265.82l3.99-84.18c2.08-87.11-3.19-179.6-3.99-265.82-.25-26.57,3.82-58.79.67-84.18H7.06c-.16,31.11,4.14,64.76,3.42,97.03-.23,10.39-.44,21.11-.64,31.6-.23,11.99-.44,24.1-.62,36.12s-.35,24.08-.5,36.1c-.15,12.02-.29,24.04-.43,36.04-.13,12-.26,24.01-.43,35.99-.17,11.97-.29,23.94-.62,35.88-.33,11.94-.72,23.88-1.12,35.77,0,.02,0,.04,0,.05-.12,3.59-.09,7.19.08,10.78l4.06,87.01ZM122.65,210.87c.05.43.07.88.06,1.31-.5,26.87,1.66,27.99,1.08,55.29-.28,13.21-.54,26.45-1.26,39.61-1.51,27.63-4.03,55.19-4.81,82.86-.81,28.95-.18,58.01.04,87.01.12,16.02.59,32.03.89,48.05h44.07c-.21-4.24-.5-8.48-.57-12.73-.36-21.79-.66-43.59-.83-65.39-.18-22.77-.47-45.56-.21-68.32.33-28.64,1.91-57.29,1.62-85.9l-.58-130.39c-.36-21.79-.66-43.59-.83-65.39-.18-22.77-.47-45.56-.21-68.32.33-28.64,1.91-57.29,1.62-85.9-.39-39.2-1.73-78.38-2.89-117.55,0-.06-.05-.11-.11-.11h-34.19s-.2,9.9-.2,9.9c-.55,27.52-.97,55.05-1.55,82.56-.28,13.21-.54,26.45-1.26,39.61-1.51,27.63-4.03,55.19-4.81,82.86-.81,28.95-.18,58.01.04,87.01.12,15.87.58,31.73.88,47.59,0,.31.03.61.06.92l3.94,35.41ZM381.74,408.16c-.64-21.97-1.59-43.8-2.13-65.8-.79-32.55-1.44-64.47-2.47-97.28-.67-21.2,2.89-42.18,4.13-63.29,0-1.31.12-2.62.2-3.93s.22-2.67.4-4c.09-.68.2-1.34.27-2.02s.19-1.43.19-2.13c.11-1.38.21-2.77.29-4.16.1-1.64.2-3.27.28-4.91.09-1.8.18-3.6.25-5.4s.15-3.74.21-5.62.11-3.71.15-5.56c.04-1.75.06-3.5.07-5.24,0-1.55,0-3.1-.02-4.66,0-.06,0-.13,0-.19-.43-25.32-1.08-50.51-1.82-75.81-.64-21.97-1.59-43.8-2.13-65.8-.79-32.55-1.44-64.47-2.47-97.28-.74-23.65,3.72-47.2,4.45-70.07h-39.2c.17,26.26,2.6,52.41,2.03,78.99-.58,27.07.06,53.92-.18,80.94-.03,3.66-.11,7.28-.23,10.92-.39,11.75-1.1,23.45-1.67,35.18-.27,5.54-.33,11.06-.67,16.61-.25,3.98-.6,7.93-.78,11.94-.52,11.73-.73,23.48-.6,35.23.12,11.37.18,22.78.49,34.14.29,10.64.86,21.27,1.14,31.9.29,10.75.43,21.51.88,32.26.43,10.28.89,20.56,1.26,30.83.36,10.01.57,20.02.36,30.04-.58,27.07.06,53.92-.18,80.94-.03,3.66-.11,7.28-.23,10.92-.39,11.75-1.1,23.45-1.67,35.18-.27,5.54-.33,11.06-.67,16.61-.25,3.98-.6,7.93-.78,11.94-.52,11.73-.73,23.48-.6,35.23.12,11.37.18,22.78.49,34.14.28,10.32.7,20.74,1.09,31,.19,4.97.19,10.12.35,15.03h41.76c.19-13.82-.2-27.32-.43-41.04-.43-25.32-1.08-50.51-1.82-75.81ZM323.66,256.77c-.68-13.41-.95-26.86-1.03-40.31-.08-13.82.5-41.46.5-41.46.04-3.43.1-7.05.2-10.38.76-25.39,1.81-51.22,2.45-76.77.51-20.24.78-40.56.96-60.83.2-22.54.73-45.11.18-67.65-.43-17.59-2.38-35.03-3.27-52.6-.68-13.41-.95-26.86-1.03-40.31-.08-13.82.07-27.63.14-41.46h-28.91c0,.62,0,1.27,0,1.96-.05,8.81.06,21.68-.19,31.96s-1.46,21.59-1.25,32.3c.48,24.83,2.02,49.84,2.33,74.77.26,21.47-.56,43.03-.94,64.52-.25,14.21-.67,28.46-.81,42.67-.15,15.44-.19,30.91-.1,46.33.08,14.1.3,28.22.73,42.29.14,4.4.24,13.2.24,13.2,0,.62,0,1.27,0,1.96-.05,8.81.06,21.68-.19,31.96s-1.46,21.59-1.25,32.3c.48,24.83,2.02,49.84,2.33,74.77.26,21.47-.56,43.03-.94,64.52-.25,14.21-.67,28.46-.81,42.67-.15,15.44-.19,30.91-.1,46.33.08,14.1.3,28.22.73,42.29.14,4.4.41,8.81.73,13.2h28.79c.04-3.43.1-7.05.2-10.38.76-25.39,1.81-51.22,2.45-76.77.51-20.24.78-40.56.96-60.83.2-22.54.73-45.11.18-67.65-.43-17.59-2.38-35.03-3.27-52.6ZM182.39,285.33c-.12,26.44-.02,53.01-.54,79.45-.34,17.79-2.51,35.64-2.2,53.37.61,35.67,2.17,71.24,3.54,106.85h26.61c-.78-18.32-1.22-38.6-1.13-57.7.14-28.52.91-57.74,1.76-86.43.44-15.05,2.04-30.21,2.26-45.29.25-17.37-.55-34.93-.72-52.26-.18-18.18-.16-36.74-.33-54.78-.16-17.66-.56-35.94.09-53.68l-2.19-57.7c-.74-28.39.04-57.61.88-86.3.44-15.05,2.04-30.21,2.26-45.29.25-17.37-.55-34.93-.72-52.26-.18-18.18-.16-36.74-.33-54.78-.16-17.66-.56-35.94-.78-53.55h-28c-.19,36.77-.32,73.52-.48,110.33-.12,26.44-.02,53.01-.54,79.45-.34,17.79-2.51,35.64-2.2,53.37.61,35.67,2.17,71.24,3.54,106.85l-.8,110.33ZM73.17,175c-.02,2.82,0,5.67-.02,8.47-.29,37.43-.52,75.1-.56,112.54-.05,39.55.22,79.54.25,118.91.03,36.58.48,74.5-.11,110.08h26.13c-.12-28.81-.55-57.75-.89-86.61-.51-43.15-1.37-86.37-1.94-129.53-.23-17.23-.38-34.5-.32-51.73l3.15-82.12c-.12-28.81-.55-57.75-.89-86.61-.51-43.15-1.37-86.37-1.94-129.53-.23-17.23-.38-34.5-.32-51.73.1-27.37.34-54.75.51-82.12h-23.05c-.02,2.82,0,5.67-.02,8.47-.29,37.43-.52,75.1-.56,112.54-.05,39.55.22,79.54.25,118.91l.33,110.08Z" fill="url(#uuid-2b10b8b2-72c2-47b8-8254-0053ed40817c)" stroke-width="0"/></g></pattern></defs><rect width="900" height="750" fill="url(#uuid-47a8a65b-17ff-463f-852e-2c3cfab7f1bb)" stroke-width="0"/></svg>