<?xml version="1.0" encoding="UTF-8"?><svg id="uuid-49ed72c9-efe3-41bb-8f96-30ff95d6abaa" xmlns="http://www.w3.org/2000/svg" width="900" height="750" xmlns:xlink="http://www.w3.org/1999/xlink" viewBox="0 0 900 750"><defs><pattern id="uuid-06179d0f-5d10-443b-8b40-a7c1a8db1842" x="0" y="0" width="230" height="212" patternTransform="translate(-2300 -770)" patternUnits="userSpaceOnUse" viewBox="0 0 230 212"><rect width="230" height="212" fill="none" stroke-width="0"/><path d="M215.46,139.43c-.88-.21-1.43.36-1.97.89-.33.33-.79.61-.75,1.2,0,.11-.17.25-.28.35-.48.43-1.08.75-1.18,1.5-.02.18-.21.33-.32.5-.22.33-.44.67-.67.99-.14.19-.27.42-.47.52-.36.19-.59.39-.5.83.02.07-.06.2-.13.25-.32.23-.64.44-.97.65-.08.05-.19.1-.27.09-.86-.11-1.36.37-1.88.99-.39.47-.99.79-1.53,1.12-.7.42-.75.38-1.01-.4-.19-.57-.65-.85-1.19-.99-.68-.19-1.23-.41-1.48-1.21-.13-.41-.45-.84-1.01-1-.59-.17-1.13-.49-1.69-.76-.73-.36-1.08-1.04-1.43-1.72-.14-.28-.26-.56-.67-.37-.07.03-.24,0-.27-.06-.18-.43-.54-.42-.92-.45-.2-.02-.43-.14-.57-.29-.6-.64-1.17-1.29-1.73-1.96-.07-.08-.08-.23-.07-.33.09-.72-.11-1.07-.84-1.21-.57-.11-1.02-.29-1.21-.89-.03-.1-.24-.19-.38-.21-.91-.16-1.7-.62-2.53-.98-.34-.15-.3-.42-.08-.63.31-.3.17-.38-.15-.48-.2-.06-.37-.22-.56-.33-.38-.21-.77-.41-1.15-.63-.19-.11-.36-.24-.54-.37-.22-.16-.43-.35-.66-.49-.37-.22-.72-.41-.94-.84-.17-.33-.54-.57-.85-.81-.33-.25-.7-.45-1.04-.69-.33-.22-.59-.47-.39-.94.06-.14-.06-.36-.12-.54-.06-.18-.21-.35-.21-.52,0-.24-.09-.31-.31-.34-.96-.15-1.54-.82-2.06-1.56-.02-.03-.04-.08-.07-.1-.89-.47-1.18-1.45-1.83-2.12-.12-.13-.4-.21-.56-.17-.63.17-1.32-.4-1.18-1.06.05-.24.02-.34-.16-.49-.42-.34-.53-1.29-.21-1.69.08-.11.26-.17.4-.2.67-.11.97-.44.84-1.08-.06-.31.13-.3.27-.34.85-.23,1.52-.74,2.16-1.31.15-.14.35-.39.31-.54-.14-.58.21-1.01.38-1.48.07-.21.31-.42.53-.53.95-.46,1.78-1.06,2.39-1.94.08-.11.22-.22.24-.34.17-.9.79-1.55,1.28-2.27.13-.19.28-.39.45-.54.57-.48.91-1.11,1.17-1.78.13-.33.41-.33.61-.5.33-.29.44.04.63.18.05.03.11.09.15.09.56-.08.81.38,1.16.66.07.06.15.14.18.23.32,1.11,1.32,1.38,2.2,1.8.04.02.08.02.12.03.41.14.82.18,1.1.66.28.48.78.83,1.19,1.24.04.04.09.12.13.11.56-.01.83.5,1.28.68.36.15.57.39.63.79.06.39.23.73.69.8.07.01.17.07.19.13.24.6.81.66,1.31.83.42.14.79.29,1.09.67.55.71,1.27,1.27,1.89,1.91.47.49.99.74,1.55,1,.14.06.23.21.35.31.64.55,1.24,1.15,1.92,1.62.63.43,1.38.69,2.03,1.1.45.29.82.7,1.21,1.08.35.34.67.72,1.02,1.06.3.29.62.55.93.82.06.05.11.12.18.16.79.56,1.59,1.11,2.38,1.68.55.4,1.1.8,1.6,1.25.19.17.32.46.39.72.18.64.59,1.06,1.14,1.4.79.48,1.57.99,2.34,1.5.15.1.29.28.36.45.15.35.29.71.35,1.08.08.5.38,1.04-.18,1.48-.05.04-.05.15-.07.22-.18.64-.4,1.21-1.06,1.57-.26.14-.3.59-.13.93l-.31.37Z" fill="#cc2e78" stroke-width="0"/><path d="M214.06,193.55l1,.84c-.67.14-1.05.55-1.14,1.14-.1.69-.59,1.02-1.32.87-.34-.07-.48.16-.56.41-.13.36-.32.62-.72.67-.04,0-.11.07-.11.08.25.69-.55.76-.74,1.21-.18.43-.64.74-.99,1.09-.1.1-.21.2-.34.24-.68.26-.91.83-1.14,1.45-.17.45-.48.85-.73,1.27-.04.06-.15.13-.2.11-.43-.19-.8.15-1.2.11-.28-.03-.54-.16-.79-.24-.15.62-.36,1.3-.93,1.76-.91.74-1.83,1.46-2.77,2.16-.36.27-.63.54-.6,1.03,0,.13-.07.27-.1.4-.07.44-.32.61-.76.53-.43-.08-.82-.03-1.1.4-.15.24-1.08.3-1.3.14-.21-.16-.24-.66-.05-1.06.15-.3.34-.59.43-.91.05-.17-.07-.39-.12-.59-.23.05-.48.07-.69.17-.17.08-.27.3-.44.38-.16.07-.41.11-.54.03-.12-.08-.23-.38-.17-.5.25-.55-.02-.85-.44-1.07-.46-.25-.52-.73-.69-1.14-.02-.06.04-.16.08-.24.19-.37.11-.88-.18-1.14-.29-.26-.56-.22-.82.05-.27.28-.57.54-.9.76-.32.21-.73,0-.96-.31-.36-.5-.46-1.17-1.02-1.55-.1-.07-.09-.27-.17-.37-.17-.21-.34-.52-.57-.58-.49-.12-.69-.46-.87-.84-.14-.29-.33-.44-.63-.47-.51-.06-.78-.35-.87-.85-.06-.34-.27-.54-.54-.74-.22-.16-.42-.23-.57-.04-.24.29-.36.09-.51-.06-.22-.23-.45-.63-.68-.63-.61-.02-.64-.35-.65-.79,0-.11-.12-.21-.14-.33-.06-.31-.22-.69-.1-.92.13-.27.49-.5.79-.6.69-.21,1.18-.65,1.64-1.15.08-.08.12-.2.16-.31.04-.09.02-.24.08-.28.45-.27.75-.58.36-1.12.07-.02.18-.08.2-.06.37.41.47.15.58-.2.04-.14.15-.29.27-.37.54-.36.98-.88,1.72-.89.2,0,.24-.18.18-.41-.2-.77-.08-.92.68-1.15.69-.21,1.28-.57,1.6-1.26.05-.11.16-.22.26-.29.4-.28.61-.84.48-1.34-.15-.56.14-.9.72-.83.29.03.59.17.52-.33,0-.04.06-.14.09-.13.67.1.84-.58,1.28-.84.55-.33.99-.84,1.42-1.34.19-.22.25-.57.32-.87.05-.21-.11-.5.36-.35.13.04.43-.32.56-.55.05-.09-.13-.32-.22-.48-.1-.17-.3-.31-.33-.49-.05-.25-.09-.62.05-.77.19-.2.55-.27.84-.3.2-.02.41.13.62.2.59.19.68.16,1.01-.39.19-.32.35-.68.58-.97.34-.43.74-.81,1.09-1.23.48-.57.93-1.16,1.4-1.74.07-.08.21-.11.31-.15.35-.15.74-.26.66-.78-.01-.07.08-.18.15-.23.57-.35.74-.95.97-1.52.05-.13.14-.26.25-.35.37-.33.76-.65,1.15-.95.22-.17.45-.33.7-.45.82-.41,1.33-.99,1.49-1.94.14-.8.56-1.56,1.2-2.07.48-.38,1.15-.27,1.72-.01,1.1.5,2.07,1.21,3.02,1.94.09.07.2.15.31.17.63.09,1.02.55,1.35,1.01.52.74,1.15,1.29,1.96,1.7.39.19.65.63.98.93.65.58,1.26,1.21,1.97,1.69.81.54,1.68.97,2.43,1.6.41.34.8.63,1.02,1.17.26.64.8,1.09,1.38,1.46.59.37.7.62.58,1.29-.09.54-.1,1.1-.28,1.61-.19.53-.32,1.1-.97,1.4-.46.22-.77.7-.91,1.26-.1.39-.36.75-.6,1.08-.07.1-.38.14-.49.07-.26-.18-.42-.09-.56.11-.37.52-.77,1.02-1.07,1.58-.23.43-.52.72-.97.9-.18.07-.34.23-.49.36-.31.26-.67.49-.91.81-.31.39-.8.68-.78,1.29,0,.14-.09.36-.2.41-.51.23-.7.73-1.03,1.12-.15.17-.37.28-.57.38-.3.15-.61.26-.92.39-.16.07-.33.17-.5.19-.37.04-.55.11-.64.57-.08.4-.55.73-.87,1.07-.05.05-.26-.01-.38-.06-.13-.05-.25-.14-.38-.22-.03.03-.05.07-.08.1Z" fill="#a32430" stroke-width="0"/><path d="M134.49,204.39c-.13-.01-.28-.08-.39-.03-.61.24-1.54.1-1.95-.39-.25-.3-.55-.45-.91-.51-.63-.11-1.17-.36-1.65-.8-.2-.19-.49-.28-.69-.46-.22-.19-.43-.41-.57-.65-.29-.53-.51-1.01-1.15-1.33-.78-.39-1.42-1.07-2.12-1.62-.64-.5-1.26-1.02-1.91-1.51-.89-.68-1.91-1.13-2.93-1.59-.33-.15-.6-.36-.4-.79.03-.07.05-.19,0-.23-.45-.44-.6-1.17-1.33-1.37-.21-.06-.44-.27-.54-.47-.16-.33-.21-.71-.31-1.07-.07-.26-.15-.49.11-.71.09-.08.15-.24.16-.37.04-.79.44-1.34,1.11-1.71.78-.44.94-1.25,1.21-1.99.11-.3.19-.43.49-.22.38.27.65.09.83-.25.29-.52.54-1.06.81-1.59.27-.53.72-.85,1.15-1.23.66-.58,1.69-.89,1.73-2.03,0-.19.11-.39.22-.55.48-.73.98-1.43,1.88-1.73.46-.15.81-.55,1.36-.56.13,0,.31-.34.38-.56.21-.58.49-1.09,1.1-1.34.06-.03.15-.1.15-.15.09-.91.68-1.62.95-2.47.1-.32.4-.48.72-.26.29.2.41.03.51-.17.22-.45.4-.91.63-1.35.12-.22.28-.46.49-.58.55-.3.88-.79,1.28-1.24.75-.83,1.04-1.95,1.79-2.79.07-.08.06-.23.1-.34.05-.12.13-.24.2-.35.06.11.11.24.2.31.17.12.37.2.56.3.31.17.35-.1.48-.27.06-.07.28-.11.36-.06.24.15.36.09.44-.16.08-.24.18-.48.29-.72.18-.38.39-.7.82-.89.4-.17.71-.55,1.11-.72.32-.14.55-.64,1.02-.33.02.01.15-.09.17-.15.07-.2.11-.42.16-.63.11-.51.34-.93.88-1.11.13-.04.25-.12.36-.2.52-.39.71-.38,1.17.09.08.09.15.19.23.28.31.34.46.35.8.05.07-.07.15-.14.21-.21.39-.45.39-.44.81-.06.09.08.22.1.29.19.1.14.25.32.23.45-.08.48.07.79.51.94.56.19.81.53.69,1.14-.03.18.04.39.1.57.07.19.19.36.28.54.19-.18.42-.33.57-.54.14-.21.18-.48.28-.71.11-.25.29-.25.48-.08.57.52,1.27.9,1.59,1.68.14.33.47.58.71.88.12.15.3.34-.09.39-.02,0-.06.15-.04.16.15.12.31.29.48.32.6.11,1.01.45,1.35.93.08.12.24.28.36.28.52.01.86.33,1.27.56.54.3,1.18.44,1.78.62.22.07,1.07.77,1.13.99.08.31-.23.81-.67.97-1.1.39-1.59,1.22-1.8,2.31-.08.42-.23.83-.38,1.23-.03.08-.22.13-.34.16-.15.03-.31,0-.47.09.1.05.2.09.29.14.24.11.38.12.02.35-.34.22-.53.66-.78,1.02-.23.32-.38.76-.94.56-.08-.03-.3.18-.38.32-.2.34-.5.51-.82.72-.76.51-1.59,1.01-1.84,2.02-.08.33-.19.66-.65.67-.06,0-.1.22-.18.31-.59.67-1.01,1.43-1.42,2.22-.31.59-.9,1.05-1.43,1.51-.21.18-.38.56-.78.42.16.44-.38.62-.37,1.02.01.42-.26.67-.52,1-.56.69-1.16,1.42-1.2,2.4,0,.2-.12.41-.24.57-.52.7-1.05,1.39-1.59,2.07-.13.16-.3.31-.48.39-.43.19-.6.56-.79.93-.2.37-.44.71-.64,1.08-.19.34-.32.72-.53,1.05-.39.63-.76,1.27-1.49,1.63-.35.18-.56.63-.84.95-.11.13-.23.26-.36.35-.43.31-.89.58-1.31.92-.16.13-.32.38-.31.56.04.77-.49,1.28-.8,1.89-.03.05-.03.12-.04.17l-.46.55Z" fill="#ca0088" stroke-width="0"/><path d="M100.46,192.43c-.88-.21-1.43.36-1.97.89-.33.33-.79.61-.75,1.2,0,.11-.17.25-.28.35-.48.43-1.08.75-1.18,1.5-.02.18-.21.33-.32.5-.22.33-.44.67-.67.99-.14.19-.27.42-.47.52-.36.19-.59.39-.5.83.02.07-.06.2-.13.25-.32.23-.64.44-.97.65-.08.05-.19.1-.27.09-.86-.11-1.36.37-1.88.99-.39.47-.99.79-1.53,1.12-.7.42-.75.38-1.01-.4-.19-.57-.65-.85-1.19-.99-.68-.19-1.23-.41-1.48-1.21-.13-.41-.45-.84-1.01-1-.59-.17-1.13-.49-1.69-.76-.73-.36-1.08-1.04-1.43-1.72-.14-.28-.26-.56-.67-.37-.07.03-.24,0-.27-.06-.18-.43-.54-.42-.92-.45-.2-.02-.43-.14-.57-.29-.6-.64-1.17-1.29-1.73-1.96-.07-.08-.08-.23-.07-.33.09-.72-.11-1.07-.84-1.21-.57-.11-1.02-.29-1.21-.89-.03-.1-.24-.19-.38-.21-.91-.16-1.7-.62-2.53-.98-.34-.15-.3-.42-.08-.63.31-.3.17-.38-.15-.48-.2-.06-.37-.22-.56-.33-.38-.21-.77-.41-1.15-.63-.19-.11-.36-.24-.54-.37-.22-.16-.43-.35-.66-.49-.37-.22-.72-.41-.94-.84-.17-.33-.54-.57-.85-.81-.33-.25-.7-.45-1.04-.69-.33-.22-.59-.47-.39-.94.06-.14-.06-.36-.12-.54-.06-.18-.21-.35-.21-.52,0-.24-.09-.31-.31-.34-.96-.15-1.54-.82-2.06-1.56-.02-.03-.04-.08-.07-.1-.89-.47-1.18-1.45-1.83-2.12-.12-.13-.4-.21-.56-.17-.63.17-1.32-.4-1.18-1.06.05-.24.02-.34-.16-.49-.42-.34-.53-1.29-.21-1.69.08-.11.26-.17.4-.2.67-.11.97-.44.84-1.08-.06-.31.13-.3.27-.34.85-.23,1.52-.74,2.16-1.31.15-.14.35-.39.31-.54-.14-.58.21-1.01.38-1.48.07-.21.31-.42.53-.53.95-.46,1.78-1.06,2.39-1.94.08-.11.22-.22.24-.34.17-.9.79-1.55,1.28-2.27.13-.19.28-.39.45-.54.57-.48.91-1.11,1.17-1.78.13-.33.41-.33.61-.5.33-.29.44.04.63.18.05.03.11.09.15.09.56-.08.81.38,1.16.66.07.06.15.14.18.23.32,1.11,1.32,1.38,2.2,1.8.04.02.08.02.12.03.41.14.82.18,1.1.66.28.48.78.83,1.19,1.24.04.04.09.12.13.11.56-.01.83.5,1.28.68.36.15.57.39.63.79.06.39.23.73.69.8.07.01.17.07.19.13.24.6.81.66,1.31.83.42.14.79.29,1.09.67.55.71,1.27,1.27,1.89,1.91.47.49.99.74,1.55,1,.14.06.23.21.35.31.64.55,1.24,1.15,1.92,1.62.63.43,1.38.69,2.03,1.1.45.29.82.7,1.21,1.08.35.34.67.72,1.02,1.06.3.29.62.55.93.82.06.05.11.12.18.16.79.56,1.59,1.11,2.38,1.68.55.4,1.1.8,1.6,1.25.19.17.32.46.39.72.18.64.59,1.06,1.14,1.4.79.48,1.57.99,2.34,1.5.15.1.29.28.36.45.15.35.29.71.35,1.08.08.5.38,1.04-.18,1.48-.05.04-.05.15-.07.22-.18.64-.4,1.21-1.06,1.57-.26.14-.3.59-.13.93l-.31.37Z" fill="#cc2e78" stroke-width="0"/><path d="M19.49,151.39c-.13-.01-.28-.08-.39-.03-.61.24-1.54.1-1.95-.39-.25-.3-.55-.45-.91-.51-.63-.11-1.17-.36-1.65-.8-.2-.19-.49-.28-.69-.46-.22-.19-.43-.41-.57-.65-.29-.53-.51-1.01-1.15-1.33-.78-.39-1.42-1.07-2.12-1.62-.64-.5-1.26-1.02-1.91-1.51-.89-.68-1.91-1.13-2.93-1.59-.33-.15-.6-.36-.4-.79.03-.07.05-.19,0-.23-.45-.44-.6-1.17-1.33-1.37-.21-.06-.44-.27-.54-.47-.16-.33-.21-.71-.31-1.07-.07-.26-.15-.49.11-.71.09-.08.15-.24.16-.37.04-.79.44-1.34,1.11-1.71.78-.44.94-1.25,1.21-1.99.11-.3.19-.43.49-.22.38.27.65.09.83-.25.29-.52.54-1.06.81-1.59.27-.53.72-.85,1.15-1.23.66-.58,1.69-.89,1.73-2.03,0-.19.11-.39.22-.55.48-.73.98-1.43,1.88-1.73.46-.15.81-.55,1.36-.56.13,0,.31-.34.38-.56.21-.58.49-1.09,1.1-1.34.06-.03.15-.1.15-.15.09-.91.68-1.62.95-2.47.1-.32.4-.48.72-.26.29.2.41.03.51-.17.22-.45.4-.91.63-1.35.12-.22.28-.46.49-.58.55-.3.88-.79,1.28-1.24.75-.83,1.04-1.95,1.79-2.79.07-.08.06-.23.1-.34.05-.12.13-.24.2-.35.06.11.11.24.2.31.17.12.37.2.56.3.31.17.35-.1.48-.27.06-.07.28-.11.36-.06.24.15.36.09.44-.16.08-.24.18-.48.29-.72.18-.38.39-.7.82-.89.4-.17.71-.55,1.11-.72.32-.14.55-.64,1.02-.33.02.01.15-.09.17-.15.07-.2.11-.42.16-.63.11-.51.34-.93.88-1.11.13-.04.25-.12.36-.2.52-.39.71-.38,1.17.09.08.09.15.19.23.28.31.34.46.35.8.05.07-.07.15-.14.21-.21.39-.45.39-.44.81-.06.09.08.22.1.29.19.1.14.25.32.23.45-.08.48.07.79.51.94.56.19.81.53.69,1.14-.03.18.04.39.1.57.07.19.19.36.28.54.19-.18.42-.33.57-.54.14-.21.18-.48.28-.71.11-.25.29-.25.48-.08.57.52,1.27.9,1.59,1.68.14.33.47.58.71.88.12.15.3.34-.09.39-.02,0-.06.15-.04.16.15.12.31.29.48.32.6.11,1.01.45,1.35.93.08.12.24.28.36.28.52.01.86.33,1.27.56.54.3,1.18.44,1.78.62.22.07,1.07.77,1.13.99.08.31-.23.81-.67.97-1.1.39-1.59,1.22-1.8,2.31-.08.42-.23.83-.38,1.23-.03.08-.22.13-.34.16-.15.03-.31,0-.47.09.1.05.2.09.29.14.24.11.38.12.02.35-.34.22-.53.66-.78,1.02-.23.32-.38.76-.94.56-.08-.03-.3.18-.38.32-.2.34-.5.51-.82.72-.76.51-1.59,1.01-1.84,2.02-.08.33-.19.66-.65.67-.06,0-.1.22-.18.31-.59.67-1.01,1.43-1.42,2.22-.31.59-.9,1.05-1.43,1.51-.21.18-.38.56-.78.42.16.44-.38.62-.37,1.02.01.42-.26.67-.52,1-.56.69-1.16,1.42-1.2,2.4,0,.2-.12.41-.24.57-.52.7-1.05,1.39-1.59,2.07-.13.16-.3.31-.48.39-.43.19-.6.56-.79.93-.2.37-.44.71-.64,1.08-.19.34-.32.72-.53,1.05-.39.63-.76,1.27-1.49,1.63-.35.18-.56.63-.84.95-.11.13-.23.26-.36.35-.43.31-.89.58-1.31.92-.16.13-.32.38-.31.56.04.77-.49,1.28-.8,1.89-.03.05-.03.12-.04.17l-.46.55Z" fill="#ca0088" stroke-width="0"/><path d="M55.4,196.19c-.51.15-1.03.28-1.53.47-.2.08-.42.24-.53.42-.33.59-.76,1.07-1.31,1.45-.1.07-.2.17-.3.18-1.05.09-1.29,1.04-1.75,1.72-.19.28-.15.72-.28,1.07-.07.19-.21.39-.38.49-.42.26-.88.46-1.31.71-.21.12-.41.27-.56.44-.64.71-1.28,1.42-1.89,2.15-.55.65-1.06,1.32-2.05,1.22-.12-.01-.27.07-.39.14-.07.05-.15.18-.13.24.03.09.14.18.23.22.08.04.2,0,.29.02.18.06.35.14.52.22-.1.12-.19.24-.3.35-.34.33-.79.59-.6,1.19.01.04-.22.23-.27.21-.4-.19-.84-.36-1.17-.65-.33-.28-.55-.69-.83-1.05-.11-.14-.21-.28-.33-.41-.12-.13-.29-.36-.39-.34-.48.1-.84-.28-1.29-.25-.06,0-.12-.13-.18-.18-.27-.22-.53-.59-.82-.62-.48-.05-.62-.36-.85-.65-.13-.16-.29-.29-.43-.45-.08-.1-.21-.21-.21-.31-.01-.38-.22-.6-.54-.71-.39-.14-.49-.44-.62-.8-.18-.54-.45-1.05-.73-1.55-.12-.23-.31-.17-.58-.12-.31.06-.68-.29-1.04-.43-.23-.09-.47-.19-.7-.2-.47-.01-.7-.18-.73-.64-.03-.41-.38-.68-.77-.6-.1.02-.18.09-.27.12-.21.05-.42.08-.63.12.07-.19.18-.38.21-.58.03-.18.04-.41-.05-.55-.21-.31-.45-.64-.76-.83-.5-.31-.75-.96-1.4-1.05-.1-.47-.66-.42-.88-.81-.21-.37-.58-.65-.89-.96-.14-.14-.31-.25-.48-.35-.46-.27-.97-.48-1.38-.82-.51-.4-.93-.9-1.4-1.36-.16-.15-.28-.36-.46-.46-.9-.48-1.49-1.32-2.25-1.95-.27-.23-.64-.35-.95-.54-.16-.1-.33-.23-.41-.39-.21-.39-.52-.6-.96-.59-.33,0-.43-.16-.49-.47-.06-.3-.17-.62-.35-.87-.22-.3-.54-.52-.6-.94-.02-.12-.23-.2-.35-.3-.45-.41-.9-.83-1.36-1.22-.13-.11-.35-.13-.52-.21-.2-.1-.43-.18-.59-.33-.23-.21-.38-.5-.62-.7-1.11-.95-.89-2.17.13-2.87.54-.37.85-.78.96-1.43.05-.27.31-.57.56-.73.54-.35.99-.76,1.35-1.32.52-.83,1.13-1.59,1.94-2.17.13-.09.28-.27.28-.42,0-.46.26-.78.52-1.11.24-.31.41-.67.62-1.01.09-.15.21-.29.31-.43.13-.19.24-.39.37-.58.15-.2.28-.45.48-.57.42-.25.88-.44,1.33-.64.37-.16.62-.41.78-.79.09-.21.27-.38.41-.56.05-.06.16-.11.16-.16.02-.74.72-.77,1.14-1.08.13-.1.38-.09.56-.06.93.19,1.82.47,2.32,1.37.31.56.82.6,1.36.63l.28.23c0,.55.09,1.08.54,1.44.32.26.68.62,1.04.64.71.04,1.03.59,1.48.94.42.34.75.83,1.02,1.31.34.59.89.82,1.46,1.07.32.14.64.3.89.53.3.28.47.81.8.92.55.19.5.62.68.97.21.41.38.93.89,1.04.33.08.54.22.7.49.16.27.3.56.47.83.35.55.67.66,1.3.49.11-.03.24-.06.35-.05.13,0,.26.06.4.1-.07.1-.15.2-.22.3-.09.13-.16.27-.24.4.12.02.24.02.36.06.32.09.65.18.95.31.11.05.26.26.24.35-.12.45.21.59.48.79.57.43,1.14.87,1.7,1.31.12.1.23.25.37.29.54.15.84.58,1.22.92.41.38.6,1.01,1.25,1.14.09.02.13.26.22.38.09.13.19.28.33.37.18.12.4.17.6.26.43.18.8.39.88.94.03.2.27.37.42.55.14.16.29.31.43.46.09.09.19.18.29.26.14.12.3.23.43.36.68.74,1.34,1.49,2.03,2.22.13.14.35.19.52.28.53.3,1.06.6,1.58.91.06.04.13.13.13.19,0,.57.31,1.02.59,1.48.05.09.08.24.04.33-.19.46.05.67.42.83-.1.12-.21.25-.31.37Z" fill="#bb215b" stroke-width="0"/><path d="M215.46,33.43c-.88-.21-1.43.36-1.97.89-.33.33-.79.61-.75,1.2,0,.11-.17.25-.28.35-.48.43-1.08.75-1.18,1.5-.02.18-.21.33-.32.5-.22.33-.44.67-.67.99-.14.19-.27.42-.47.52-.36.19-.59.39-.5.83.02.07-.06.2-.13.25-.32.23-.64.44-.97.65-.08.05-.19.1-.27.09-.86-.11-1.36.37-1.88.99-.39.47-.99.79-1.53,1.12-.7.42-.75.38-1.01-.4-.19-.57-.65-.85-1.19-.99-.68-.19-1.23-.41-1.48-1.21-.13-.41-.45-.84-1.01-1-.59-.17-1.13-.49-1.69-.76-.73-.36-1.08-1.04-1.43-1.72-.14-.28-.26-.56-.67-.37-.07.03-.24,0-.27-.06-.18-.43-.54-.42-.92-.45-.2-.02-.43-.14-.57-.29-.6-.64-1.17-1.29-1.73-1.96-.07-.08-.08-.23-.07-.33.09-.72-.11-1.07-.84-1.21-.57-.11-1.02-.29-1.21-.89-.03-.1-.24-.19-.38-.21-.91-.16-1.7-.62-2.53-.98-.34-.15-.3-.42-.08-.63.31-.3.17-.38-.15-.48-.2-.06-.37-.22-.56-.33-.38-.21-.77-.41-1.15-.63-.19-.11-.36-.24-.54-.37-.22-.16-.43-.35-.66-.49-.37-.22-.72-.41-.94-.84-.17-.33-.54-.57-.85-.81-.33-.25-.7-.45-1.04-.69-.33-.22-.59-.47-.39-.94.06-.14-.06-.36-.12-.54-.06-.18-.21-.35-.21-.52,0-.24-.09-.31-.31-.34-.96-.15-1.54-.82-2.06-1.56-.02-.03-.04-.08-.07-.1-.89-.47-1.18-1.45-1.83-2.12-.12-.13-.4-.21-.56-.17-.63.17-1.32-.4-1.18-1.06.05-.24.02-.34-.16-.49-.42-.34-.53-1.29-.21-1.69.08-.11.26-.17.4-.2.67-.11.97-.44.84-1.08-.06-.31.13-.3.27-.34.85-.23,1.52-.74,2.16-1.31.15-.14.35-.39.31-.54-.14-.58.21-1.01.38-1.48.07-.21.31-.42.53-.53.95-.46,1.78-1.06,2.39-1.94.08-.11.22-.22.24-.34.17-.9.79-1.55,1.28-2.27.13-.19.28-.39.45-.54.57-.48.91-1.11,1.17-1.78.13-.33.41-.33.61-.5.33-.29.44.04.63.18.05.03.11.09.15.09.56-.08.81.38,1.16.66.07.06.15.14.18.23.32,1.11,1.32,1.38,2.2,1.8.04.02.08.02.12.03.41.14.82.18,1.1.66.28.48.78.83,1.19,1.24.04.04.09.12.13.11.56-.01.83.5,1.28.68.36.15.57.39.63.79.06.39.23.73.69.8.07.01.17.07.19.13.24.6.81.66,1.31.83.42.14.79.29,1.09.67.55.71,1.27,1.27,1.89,1.91.47.49.99.74,1.55,1,.14.06.23.21.35.31.64.55,1.24,1.15,1.92,1.62.63.43,1.38.69,2.03,1.1.45.29.82.7,1.21,1.08.35.34.67.72,1.02,1.06.3.29.62.55.93.82.06.05.11.12.18.16.79.56,1.59,1.11,2.38,1.68.55.4,1.1.8,1.6,1.25.19.17.32.46.39.72.18.64.59,1.06,1.14,1.4.79.48,1.57.99,2.34,1.5.15.1.29.28.36.45.15.35.29.71.35,1.08.08.5.38,1.04-.18,1.48-.05.04-.05.15-.07.22-.18.64-.4,1.21-1.06,1.57-.26.14-.3.59-.13.93l-.31.37Z" fill="#cc2e78" stroke-width="0"/><path d="M214.06,87.55l1,.84c-.67.14-1.05.55-1.14,1.14-.1.69-.59,1.02-1.32.87-.34-.07-.48.16-.56.41-.13.36-.32.62-.72.67-.04,0-.11.07-.11.08.25.69-.55.76-.74,1.21-.18.43-.64.74-.99,1.09-.1.1-.21.2-.34.24-.68.26-.91.83-1.14,1.45-.17.45-.48.85-.73,1.27-.04.06-.15.13-.2.11-.43-.19-.8.15-1.2.11-.28-.03-.54-.16-.79-.24-.15.62-.36,1.3-.93,1.76-.91.74-1.83,1.46-2.77,2.16-.36.27-.63.54-.6,1.03,0,.13-.07.27-.1.4-.07.44-.32.61-.76.53-.43-.08-.82-.03-1.1.4-.15.24-1.08.3-1.3.14-.21-.16-.24-.66-.05-1.06.15-.3.34-.59.43-.91.05-.17-.07-.39-.12-.59-.23.05-.48.07-.69.17-.17.08-.27.3-.44.38-.16.07-.41.11-.54.03-.12-.08-.23-.38-.17-.5.25-.55-.02-.85-.44-1.07-.46-.25-.52-.73-.69-1.14-.02-.06.04-.16.08-.24.19-.37.11-.88-.18-1.14-.29-.26-.56-.22-.82.05-.27.28-.57.54-.9.76-.32.21-.73,0-.96-.31-.36-.5-.46-1.17-1.02-1.55-.1-.07-.09-.27-.17-.37-.17-.21-.34-.52-.57-.58-.49-.12-.69-.46-.87-.84-.14-.29-.33-.44-.63-.47-.51-.06-.78-.35-.87-.85-.06-.34-.27-.54-.54-.74-.22-.16-.42-.23-.57-.04-.24.29-.36.09-.51-.06-.22-.23-.45-.63-.68-.63-.61-.02-.64-.35-.65-.79,0-.11-.12-.21-.14-.33-.06-.31-.22-.69-.1-.92.13-.27.49-.5.79-.6.69-.21,1.18-.65,1.64-1.15.08-.08.12-.2.16-.31.04-.09.02-.24.08-.28.45-.27.75-.58.36-1.12.07-.02.18-.08.2-.06.37.41.47.15.58-.2.04-.14.15-.29.27-.37.54-.36.98-.88,1.72-.89.2,0,.24-.18.18-.41-.2-.77-.08-.92.68-1.15.69-.21,1.28-.57,1.6-1.26.05-.11.16-.22.26-.29.4-.28.61-.84.48-1.34-.15-.56.14-.9.72-.83.29.03.59.17.52-.33,0-.04.06-.14.09-.13.67.1.84-.58,1.28-.84.55-.33.99-.84,1.42-1.34.19-.22.25-.57.32-.87.05-.21-.11-.5.36-.35.13.04.43-.32.56-.55.05-.09-.13-.32-.22-.48-.1-.17-.3-.31-.33-.49-.05-.25-.09-.62.05-.77.19-.2.55-.27.84-.3.2-.02.41.13.62.2.59.19.68.16,1.01-.39.19-.32.35-.68.58-.97.34-.43.74-.81,1.09-1.23.48-.57.93-1.16,1.4-1.74.07-.08.21-.11.31-.15.35-.15.74-.26.66-.78-.01-.07.08-.18.15-.23.57-.35.74-.95.97-1.52.05-.13.14-.26.25-.35.37-.33.76-.65,1.15-.95.22-.17.45-.33.7-.45.82-.41,1.33-.99,1.49-1.94.14-.8.56-1.56,1.2-2.07.48-.38,1.15-.27,1.72-.01,1.1.5,2.07,1.21,3.02,1.94.09.07.2.15.31.17.63.09,1.02.55,1.35,1.01.52.74,1.15,1.29,1.96,1.7.39.19.65.63.98.93.65.58,1.26,1.21,1.97,1.69.81.54,1.68.97,2.43,1.6.41.34.8.63,1.02,1.17.26.64.8,1.09,1.38,1.46.59.37.7.62.58,1.29-.09.54-.1,1.1-.28,1.61-.19.53-.32,1.1-.97,1.4-.46.22-.77.7-.91,1.26-.1.39-.36.75-.6,1.08-.07.1-.38.14-.49.07-.26-.18-.42-.09-.56.11-.37.52-.77,1.02-1.07,1.58-.23.43-.52.72-.97.9-.18.07-.34.23-.49.36-.31.26-.67.49-.91.81-.31.39-.8.68-.78,1.29,0,.14-.09.36-.2.41-.51.23-.7.73-1.03,1.12-.15.17-.37.28-.57.38-.3.15-.61.26-.92.39-.16.07-.33.17-.5.19-.37.04-.55.11-.64.57-.08.4-.55.73-.87,1.07-.05.05-.26-.01-.38-.06-.13-.05-.25-.14-.38-.22-.03.03-.05.07-.08.1Z" fill="#a32430" stroke-width="0"/><path d="M134.49,98.39c-.13-.01-.28-.08-.39-.03-.61.24-1.54.1-1.95-.39-.25-.3-.55-.45-.91-.51-.63-.11-1.17-.36-1.65-.8-.2-.19-.49-.28-.69-.46-.22-.19-.43-.41-.57-.65-.29-.53-.51-1.01-1.15-1.33-.78-.39-1.42-1.07-2.12-1.62-.64-.5-1.26-1.02-1.91-1.51-.89-.68-1.91-1.13-2.93-1.59-.33-.15-.6-.36-.4-.79.03-.07.05-.19,0-.23-.45-.44-.6-1.17-1.33-1.37-.21-.06-.44-.27-.54-.47-.16-.33-.21-.71-.31-1.07-.07-.26-.15-.49.11-.71.09-.08.15-.24.16-.37.04-.79.44-1.34,1.11-1.71.78-.44.94-1.25,1.21-1.99.11-.3.19-.43.49-.22.38.27.65.09.83-.25.29-.52.54-1.06.81-1.59.27-.53.72-.85,1.15-1.23.66-.58,1.69-.89,1.73-2.03,0-.19.11-.39.22-.55.48-.73.98-1.43,1.88-1.73.46-.15.81-.55,1.36-.56.13,0,.31-.34.38-.56.21-.58.49-1.09,1.1-1.34.06-.03.15-.1.15-.15.09-.91.68-1.62.95-2.47.1-.32.4-.48.72-.26.29.2.41.03.51-.17.22-.45.4-.91.63-1.35.12-.22.28-.46.49-.58.55-.3.88-.79,1.28-1.24.75-.83,1.04-1.95,1.79-2.79.07-.08.06-.23.1-.34.05-.12.13-.24.2-.35.06.11.11.24.2.31.17.12.37.2.56.3.31.17.35-.1.48-.27.06-.07.28-.11.36-.06.24.15.36.09.44-.16.08-.24.18-.48.29-.72.18-.38.39-.7.82-.89.4-.17.71-.55,1.11-.72.32-.14.55-.64,1.02-.33.02.01.15-.09.17-.15.07-.2.11-.42.16-.63.11-.51.34-.93.88-1.11.13-.04.25-.12.36-.2.52-.39.71-.38,1.17.09.08.09.15.19.23.28.31.34.46.35.8.05.07-.07.15-.14.21-.21.39-.45.39-.44.81-.06.09.08.22.1.29.19.1.14.25.32.23.45-.08.48.07.79.51.94.56.19.81.53.69,1.14-.03.18.04.39.1.57.07.19.19.36.28.54.19-.18.42-.33.57-.54.14-.21.18-.48.28-.71.11-.25.29-.25.48-.08.57.52,1.27.9,1.59,1.68.14.33.47.58.71.88.12.15.3.34-.09.39-.02,0-.06.15-.04.16.15.12.31.29.48.32.6.11,1.01.45,1.35.93.08.12.24.28.36.28.52.01.86.33,1.27.56.54.3,1.18.44,1.78.62.22.07,1.07.77,1.13.99.08.31-.23.81-.67.97-1.1.39-1.59,1.22-1.8,2.31-.08.42-.23.83-.38,1.23-.03.08-.22.13-.34.16-.15.03-.31,0-.47.09.1.05.2.09.29.14.24.11.38.12.02.35-.34.22-.53.66-.78,1.02-.23.32-.38.76-.94.56-.08-.03-.3.18-.38.32-.2.34-.5.51-.82.72-.76.51-1.59,1.01-1.84,2.02-.08.33-.19.66-.65.67-.06,0-.1.22-.18.31-.59.67-1.01,1.43-1.42,2.22-.31.59-.9,1.05-1.43,1.51-.21.18-.38.56-.78.42.16.44-.38.62-.37,1.02.01.42-.26.67-.52,1-.56.69-1.16,1.42-1.2,2.4,0,.2-.12.41-.24.57-.52.7-1.05,1.39-1.59,2.07-.13.16-.3.31-.48.39-.43.19-.6.56-.79.93-.2.37-.44.71-.64,1.08-.19.34-.32.72-.53,1.05-.39.63-.76,1.27-1.49,1.63-.35.18-.56.63-.84.95-.11.13-.23.26-.36.35-.43.31-.89.58-1.31.92-.16.13-.32.38-.31.56.04.77-.49,1.28-.8,1.89-.03.05-.03.12-.04.17l-.46.55Z" fill="#ca0088" stroke-width="0"/><path d="M100.46,86.43c-.88-.21-1.43.36-1.97.89-.33.33-.79.61-.75,1.2,0,.11-.17.25-.28.35-.48.43-1.08.75-1.18,1.5-.02.18-.21.33-.32.5-.22.33-.44.67-.67.99-.14.19-.27.42-.47.52-.36.19-.59.39-.5.83.02.07-.06.2-.13.25-.32.23-.64.44-.97.65-.08.05-.19.1-.27.09-.86-.11-1.36.37-1.88.99-.39.47-.99.79-1.53,1.12-.7.42-.75.38-1.01-.4-.19-.57-.65-.85-1.19-.99-.68-.19-1.23-.41-1.48-1.21-.13-.41-.45-.84-1.01-1-.59-.17-1.13-.49-1.69-.76-.73-.36-1.08-1.04-1.43-1.72-.14-.28-.26-.56-.67-.37-.07.03-.24,0-.27-.06-.18-.43-.54-.42-.92-.45-.2-.02-.43-.14-.57-.29-.6-.64-1.17-1.29-1.73-1.96-.07-.08-.08-.23-.07-.33.09-.72-.11-1.07-.84-1.21-.57-.11-1.02-.29-1.21-.89-.03-.1-.24-.19-.38-.21-.91-.16-1.7-.62-2.53-.98-.34-.15-.3-.42-.08-.63.31-.3.17-.38-.15-.48-.2-.06-.37-.22-.56-.33-.38-.21-.77-.41-1.15-.63-.19-.11-.36-.24-.54-.37-.22-.16-.43-.35-.66-.49-.37-.22-.72-.41-.94-.84-.17-.33-.54-.57-.85-.81-.33-.25-.7-.45-1.04-.69-.33-.22-.59-.47-.39-.94.06-.14-.06-.36-.12-.54-.06-.18-.21-.35-.21-.52,0-.24-.09-.31-.31-.34-.96-.15-1.54-.82-2.06-1.56-.02-.03-.04-.08-.07-.1-.89-.47-1.18-1.45-1.83-2.12-.12-.13-.4-.21-.56-.17-.63.17-1.32-.4-1.18-1.06.05-.24.02-.34-.16-.49-.42-.34-.53-1.29-.21-1.69.08-.11.26-.17.4-.2.67-.11.97-.44.84-1.08-.06-.31.13-.3.27-.34.85-.23,1.52-.74,2.16-1.31.15-.14.35-.39.31-.54-.14-.58.21-1.01.38-1.48.07-.21.31-.42.53-.53.95-.46,1.78-1.06,2.39-1.94.08-.11.22-.22.24-.34.17-.9.79-1.55,1.28-2.27.13-.19.28-.39.45-.54.57-.48.91-1.11,1.17-1.78.13-.33.41-.33.61-.5.33-.29.44.04.63.18.05.03.11.09.15.09.56-.08.81.38,1.16.66.07.06.15.14.18.23.32,1.11,1.32,1.38,2.2,1.8.04.02.08.02.12.03.41.14.82.18,1.1.66.28.48.78.83,1.19,1.24.04.04.09.12.13.11.56-.01.83.5,1.28.68.36.15.57.39.63.79.06.39.23.73.69.8.07.01.17.07.19.13.24.6.81.66,1.31.83.42.14.79.29,1.09.67.55.71,1.27,1.27,1.89,1.91.47.49.99.74,1.55,1,.14.06.23.21.35.31.64.55,1.24,1.15,1.92,1.62.63.43,1.38.69,2.03,1.1.45.29.82.7,1.21,1.08.35.34.67.72,1.02,1.06.3.29.62.55.93.82.06.05.11.12.18.16.79.56,1.59,1.11,2.38,1.68.55.4,1.1.8,1.6,1.25.19.17.32.46.39.72.18.64.59,1.06,1.14,1.4.79.48,1.57.99,2.34,1.5.15.1.29.28.36.45.15.35.29.71.35,1.08.08.5.38,1.04-.18,1.48-.05.04-.05.15-.07.22-.18.64-.4,1.21-1.06,1.57-.26.14-.3.59-.13.93l-.31.37Z" fill="#cc2e78" stroke-width="0"/><path d="M170.4,143.19c-.51.15-1.03.28-1.53.47-.2.08-.42.24-.53.42-.33.59-.76,1.07-1.31,1.45-.1.07-.2.17-.3.18-1.05.09-1.29,1.04-1.75,1.72-.19.28-.15.72-.28,1.07-.07.19-.21.39-.38.49-.42.26-.88.46-1.31.71-.21.12-.41.27-.56.44-.64.71-1.28,1.42-1.89,2.15-.55.65-1.06,1.32-2.05,1.22-.12-.01-.27.07-.39.14-.07.05-.15.18-.13.24.03.09.14.18.23.22.08.04.2,0,.29.02.18.06.35.14.52.22-.1.12-.19.24-.3.35-.34.33-.79.59-.6,1.19.01.04-.22.23-.27.21-.4-.19-.84-.36-1.17-.65-.33-.28-.55-.69-.83-1.05-.11-.14-.21-.28-.33-.41-.12-.13-.29-.36-.39-.34-.48.1-.84-.28-1.29-.25-.06,0-.12-.13-.18-.18-.27-.22-.53-.59-.82-.62-.48-.05-.62-.36-.85-.65-.13-.16-.29-.29-.43-.45-.08-.1-.21-.21-.21-.31-.01-.38-.22-.6-.54-.71-.39-.14-.49-.44-.62-.8-.18-.54-.45-1.05-.73-1.55-.12-.23-.31-.17-.58-.12-.31.06-.68-.29-1.04-.43-.23-.09-.47-.19-.7-.2-.47-.01-.7-.18-.73-.64-.03-.41-.38-.68-.77-.6-.1.02-.18.09-.27.12-.21.05-.42.08-.63.12.07-.19.18-.38.21-.58.03-.18.04-.41-.05-.55-.21-.31-.45-.64-.76-.83-.5-.31-.75-.96-1.4-1.05-.1-.47-.66-.42-.88-.81-.21-.37-.58-.65-.89-.96-.14-.14-.31-.25-.48-.35-.46-.27-.97-.48-1.38-.82-.51-.4-.93-.9-1.4-1.36-.16-.15-.28-.36-.46-.46-.9-.48-1.49-1.32-2.25-1.95-.27-.23-.64-.35-.95-.54-.16-.1-.33-.23-.41-.39-.21-.39-.52-.6-.96-.59-.33,0-.43-.16-.49-.47-.06-.3-.17-.62-.35-.87-.22-.3-.54-.52-.6-.94-.02-.12-.23-.2-.35-.3-.45-.41-.9-.83-1.36-1.22-.13-.11-.35-.13-.52-.21-.2-.1-.43-.18-.59-.33-.23-.21-.38-.5-.62-.7-1.11-.95-.89-2.17.13-2.87.54-.37.85-.78.96-1.43.05-.27.31-.57.56-.73.54-.35.99-.76,1.35-1.32.52-.83,1.13-1.59,1.94-2.17.13-.09.28-.27.28-.42,0-.46.26-.78.52-1.11.24-.31.41-.67.62-1.01.09-.15.21-.29.31-.43.13-.19.24-.39.37-.58.15-.2.28-.45.48-.57.42-.25.88-.44,1.33-.64.37-.16.62-.41.78-.79.09-.21.27-.38.41-.56.05-.06.16-.11.16-.16.02-.74.72-.77,1.14-1.08.13-.1.38-.09.56-.06.93.19,1.82.47,2.32,1.37.31.56.82.6,1.36.63l.28.23c0,.55.09,1.08.54,1.44.32.26.68.62,1.04.64.71.04,1.03.59,1.48.94.42.34.75.83,1.02,1.31.34.59.89.82,1.46,1.07.32.14.64.3.89.53.3.28.47.81.8.92.55.19.5.62.68.97.21.41.38.93.89,1.04.33.08.54.22.7.49.16.27.3.56.47.83.35.55.67.66,1.3.49.11-.03.24-.06.35-.05.13,0,.26.06.4.1-.07.1-.15.2-.22.3-.09.13-.16.27-.24.4.12.02.24.02.36.06.32.09.65.18.95.31.11.05.26.26.24.35-.12.45.21.59.48.79.57.43,1.14.87,1.7,1.31.12.1.23.25.37.29.54.15.84.58,1.22.92.41.38.6,1.01,1.25,1.14.09.02.13.26.22.38.09.13.19.28.33.37.18.12.4.17.6.26.43.18.8.39.88.94.03.2.27.37.42.55.14.16.29.31.43.46.09.09.19.18.29.26.14.12.3.23.43.36.68.74,1.34,1.49,2.03,2.22.13.14.35.19.52.28.53.3,1.06.6,1.58.91.06.04.13.13.13.19,0,.57.31,1.02.59,1.48.05.09.08.24.04.33-.19.46.05.67.42.83-.1.12-.21.25-.31.37Z" fill="#bb215b" stroke-width="0"/><path d="M99.06,140.55l1,.84c-.67.14-1.05.55-1.14,1.14-.1.69-.59,1.02-1.32.87-.34-.07-.48.16-.56.41-.13.36-.32.62-.72.67-.04,0-.11.07-.11.08.25.69-.55.76-.74,1.21-.18.43-.64.74-.99,1.09-.1.1-.21.2-.34.24-.68.26-.91.83-1.14,1.45-.17.45-.48.85-.73,1.27-.04.06-.15.13-.2.11-.43-.19-.8.15-1.2.11-.28-.03-.54-.16-.79-.24-.15.62-.36,1.3-.93,1.76-.91.74-1.83,1.46-2.77,2.16-.36.27-.63.54-.6,1.03,0,.13-.07.27-.1.4-.07.44-.32.61-.76.53-.43-.08-.82-.03-1.1.4-.15.24-1.08.3-1.3.14-.21-.16-.24-.66-.05-1.06.15-.3.34-.59.43-.91.05-.17-.07-.39-.12-.59-.23.05-.48.07-.69.17-.17.08-.27.3-.44.38-.16.07-.41.11-.54.03-.12-.08-.23-.38-.17-.5.25-.55-.02-.85-.44-1.07-.46-.25-.52-.73-.69-1.14-.02-.06.04-.16.08-.24.19-.37.11-.88-.18-1.14-.29-.26-.56-.22-.82.05-.27.28-.57.54-.9.76-.32.21-.73,0-.96-.31-.36-.5-.46-1.17-1.02-1.55-.1-.07-.09-.27-.17-.37-.17-.21-.34-.52-.57-.58-.49-.12-.69-.46-.87-.84-.14-.29-.33-.44-.63-.47-.51-.06-.78-.35-.87-.85-.06-.34-.27-.54-.54-.74-.22-.16-.42-.23-.57-.04-.24.29-.36.09-.51-.06-.22-.23-.45-.63-.68-.63-.61-.02-.64-.35-.65-.79,0-.11-.12-.21-.14-.33-.06-.31-.22-.69-.1-.92.13-.27.49-.5.79-.6.69-.21,1.18-.65,1.64-1.15.08-.08.12-.2.16-.31.04-.09.02-.24.08-.28.45-.27.75-.58.36-1.12.07-.02.18-.08.2-.06.37.41.47.15.58-.2.04-.14.15-.29.27-.37.54-.36.98-.88,1.72-.89.2,0,.24-.18.18-.41-.2-.77-.08-.92.68-1.15.69-.21,1.28-.57,1.6-1.26.05-.11.16-.22.26-.29.4-.28.61-.84.48-1.34-.15-.56.14-.9.72-.83.29.03.59.17.52-.33,0-.04.06-.14.09-.13.67.1.84-.58,1.28-.84.55-.33.99-.84,1.42-1.34.19-.22.25-.57.32-.87.05-.21-.11-.5.36-.35.13.04.43-.32.56-.55.05-.09-.13-.32-.22-.48-.1-.17-.3-.31-.33-.49-.05-.25-.09-.62.05-.77.19-.2.55-.27.84-.3.2-.02.41.13.62.2.59.19.68.16,1.01-.39.19-.32.35-.68.58-.97.34-.43.74-.81,1.09-1.23.48-.57.93-1.16,1.4-1.74.07-.08.21-.11.31-.15.35-.15.74-.26.66-.78-.01-.07.08-.18.15-.23.57-.35.74-.95.97-1.52.05-.13.14-.26.25-.35.37-.33.76-.65,1.15-.95.22-.17.45-.33.7-.45.82-.41,1.33-.99,1.49-1.94.14-.8.56-1.56,1.2-2.07.48-.38,1.15-.27,1.72-.01,1.1.5,2.07,1.21,3.02,1.94.09.07.2.15.31.17.63.09,1.02.55,1.35,1.01.52.74,1.15,1.29,1.96,1.7.39.19.65.63.98.93.65.58,1.26,1.21,1.97,1.69.81.54,1.68.97,2.43,1.6.41.34.8.63,1.02,1.17.26.64.8,1.09,1.38,1.46.59.37.7.62.58,1.29-.09.54-.1,1.1-.28,1.61-.19.53-.32,1.1-.97,1.4-.46.22-.77.7-.91,1.26-.1.39-.36.75-.6,1.08-.07.1-.38.14-.49.07-.26-.18-.42-.09-.56.11-.37.52-.77,1.02-1.07,1.58-.23.43-.52.72-.97.9-.18.07-.34.23-.49.36-.31.26-.67.49-.91.81-.31.39-.8.68-.78,1.29,0,.14-.09.36-.2.41-.51.23-.7.73-1.03,1.12-.15.17-.37.28-.57.38-.3.15-.61.26-.92.39-.16.07-.33.17-.5.19-.37.04-.55.11-.64.57-.08.4-.55.73-.87,1.07-.05.05-.26-.01-.38-.06-.13-.05-.25-.14-.38-.22-.03.03-.05.07-.08.1Z" fill="#a32430" stroke-width="0"/><path d="M19.49,45.39c-.13-.01-.28-.08-.39-.03-.61.24-1.54.1-1.95-.39-.25-.3-.55-.45-.91-.51-.63-.11-1.17-.36-1.65-.8-.2-.19-.49-.28-.69-.46-.22-.19-.43-.41-.57-.65-.29-.53-.51-1.01-1.15-1.33-.78-.39-1.42-1.07-2.12-1.62-.64-.5-1.26-1.02-1.91-1.51-.89-.68-1.91-1.13-2.93-1.59-.33-.15-.6-.36-.4-.79.03-.07.05-.19,0-.23-.45-.44-.6-1.17-1.33-1.37-.21-.06-.44-.27-.54-.47-.16-.33-.21-.71-.31-1.07-.07-.26-.15-.49.11-.71.09-.08.15-.24.16-.37.04-.79.44-1.34,1.11-1.71.78-.44.94-1.25,1.21-1.99.11-.3.19-.43.49-.22.38.27.65.09.83-.25.29-.52.54-1.06.81-1.59.27-.53.72-.85,1.15-1.23.66-.58,1.69-.89,1.73-2.03,0-.19.11-.39.22-.55.48-.73.98-1.43,1.88-1.73.46-.15.81-.55,1.36-.56.13,0,.31-.34.38-.56.21-.58.49-1.09,1.1-1.34.06-.03.15-.1.15-.15.09-.91.68-1.62.95-2.47.1-.32.4-.48.72-.26.29.2.41.03.51-.17.22-.45.4-.91.63-1.35.12-.22.28-.46.49-.58.55-.3.88-.79,1.28-1.24.75-.83,1.04-1.95,1.79-2.79.07-.08.06-.23.1-.34.05-.12.13-.24.2-.35.06.11.11.24.2.31.17.12.37.2.56.3.31.17.35-.1.48-.27.06-.07.28-.11.36-.06.24.15.36.09.44-.16.08-.24.18-.48.29-.72.18-.38.39-.7.82-.89.4-.17.71-.55,1.11-.72.32-.14.55-.64,1.02-.33.02.01.15-.09.17-.15.07-.2.11-.42.16-.63.11-.51.34-.93.88-1.11.13-.04.25-.12.36-.2.52-.39.71-.38,1.17.09.08.09.15.19.23.28.31.34.46.35.8.05.07-.07.15-.14.21-.21.39-.45.39-.44.81-.06.09.08.22.1.29.19.1.14.25.32.23.45-.08.48.07.79.51.94.56.19.81.53.69,1.14-.03.18.04.39.1.57.07.19.19.36.28.54.19-.18.42-.33.57-.54.14-.21.18-.48.28-.71.11-.25.29-.25.48-.08.57.52,1.27.9,1.59,1.68.14.33.47.58.71.88.12.15.3.34-.09.39-.02,0-.06.15-.04.16.15.12.31.29.48.32.6.11,1.01.45,1.35.93.08.12.24.28.36.28.52.01.86.33,1.27.56.54.3,1.18.44,1.78.62.22.07,1.07.77,1.13.99.08.31-.23.81-.67.97-1.1.39-1.59,1.22-1.8,2.31-.08.42-.23.83-.38,1.23-.03.08-.22.13-.34.16-.15.03-.31,0-.47.09.1.05.2.09.29.14.24.11.38.12.02.35-.34.22-.53.66-.78,1.02-.23.32-.38.76-.94.56-.08-.03-.3.18-.38.32-.2.34-.5.51-.82.72-.76.51-1.59,1.01-1.84,2.02-.08.33-.19.66-.65.67-.06,0-.1.22-.18.31-.59.67-1.01,1.43-1.42,2.22-.31.59-.9,1.05-1.43,1.51-.21.18-.38.56-.78.42.16.44-.38.62-.37,1.02.01.42-.26.67-.52,1-.56.69-1.16,1.42-1.2,2.4,0,.2-.12.41-.24.57-.52.7-1.05,1.39-1.59,2.07-.13.16-.3.31-.48.39-.43.19-.6.56-.79.93-.2.37-.44.71-.64,1.08-.19.34-.32.72-.53,1.05-.39.63-.76,1.27-1.49,1.63-.35.18-.56.63-.84.95-.11.13-.23.26-.36.35-.43.31-.89.58-1.31.92-.16.13-.32.38-.31.56.04.77-.49,1.28-.8,1.89-.03.05-.03.12-.04.17l-.46.55Z" fill="#ca0088" stroke-width="0"/><path d="M55.4,90.19c-.51.15-1.03.28-1.53.47-.2.08-.42.24-.53.42-.33.59-.76,1.07-1.31,1.45-.1.07-.2.17-.3.18-1.05.09-1.29,1.04-1.75,1.72-.19.28-.15.72-.28,1.07-.07.19-.21.39-.38.49-.42.26-.88.46-1.31.71-.21.12-.41.27-.56.44-.64.71-1.28,1.42-1.89,2.15-.55.65-1.06,1.32-2.05,1.22-.12-.01-.27.07-.39.14-.07.05-.15.18-.13.24.03.09.14.18.23.22.08.04.2,0,.29.02.18.06.35.14.52.22-.1.12-.19.24-.3.35-.34.33-.79.59-.6,1.19.01.04-.22.23-.27.21-.4-.19-.84-.36-1.17-.65-.33-.28-.55-.69-.83-1.05-.11-.14-.21-.28-.33-.41-.12-.13-.29-.36-.39-.34-.48.1-.84-.28-1.29-.25-.06,0-.12-.13-.18-.18-.27-.22-.53-.59-.82-.62-.48-.05-.62-.36-.85-.65-.13-.16-.29-.29-.43-.45-.08-.1-.21-.21-.21-.31-.01-.38-.22-.6-.54-.71-.39-.14-.49-.44-.62-.8-.18-.54-.45-1.05-.73-1.55-.12-.23-.31-.17-.58-.12-.31.06-.68-.29-1.04-.43-.23-.09-.47-.19-.7-.2-.47-.01-.7-.18-.73-.64-.03-.41-.38-.68-.77-.6-.1.02-.18.09-.27.12-.21.05-.42.08-.63.12.07-.19.18-.38.21-.58.03-.18.04-.41-.05-.55-.21-.31-.45-.64-.76-.83-.5-.31-.75-.96-1.4-1.05-.1-.47-.66-.42-.88-.81-.21-.37-.58-.65-.89-.96-.14-.14-.31-.25-.48-.35-.46-.27-.97-.48-1.38-.82-.51-.4-.93-.9-1.4-1.36-.16-.15-.28-.36-.46-.46-.9-.48-1.49-1.32-2.25-1.95-.27-.23-.64-.35-.95-.54-.16-.1-.33-.23-.41-.39-.21-.39-.52-.6-.96-.59-.33,0-.43-.16-.49-.47-.06-.3-.17-.62-.35-.87-.22-.3-.54-.52-.6-.94-.02-.12-.23-.2-.35-.3-.45-.41-.9-.83-1.36-1.22-.13-.11-.35-.13-.52-.21-.2-.1-.43-.18-.59-.33-.23-.21-.38-.5-.62-.7-1.11-.95-.89-2.17.13-2.87.54-.37.85-.78.96-1.43.05-.27.31-.57.56-.73.54-.35.99-.76,1.35-1.32.52-.83,1.13-1.59,1.94-2.17.13-.09.28-.27.28-.42,0-.46.26-.78.52-1.11.24-.31.41-.67.62-1.01.09-.15.21-.29.31-.43.13-.19.24-.39.37-.58.15-.2.28-.45.48-.57.42-.25.88-.44,1.33-.64.37-.16.62-.41.78-.79.09-.21.27-.38.41-.56.05-.06.16-.11.16-.16.02-.74.72-.77,1.14-1.08.13-.1.38-.09.56-.06.93.19,1.82.47,2.32,1.37.31.56.82.6,1.36.63l.28.23c0,.55.09,1.08.54,1.44.32.26.68.62,1.04.64.71.04,1.03.59,1.48.94.42.34.75.83,1.02,1.31.34.59.89.82,1.46,1.07.32.14.64.3.89.53.3.28.47.81.8.92.55.19.5.62.68.97.21.41.38.93.89,1.04.33.08.54.22.7.49.16.27.3.56.47.83.35.55.67.66,1.3.49.11-.03.24-.06.35-.05.13,0,.26.06.4.1-.07.1-.15.2-.22.3-.09.13-.16.27-.24.4.12.02.24.02.36.06.32.09.65.18.95.31.11.05.26.26.24.35-.12.45.21.59.48.79.57.43,1.14.87,1.7,1.31.12.1.23.25.37.29.54.15.84.58,1.22.92.41.38.6,1.01,1.25,1.14.09.02.13.26.22.38.09.13.19.28.33.37.18.12.4.17.6.26.43.18.8.39.88.94.03.2.27.37.42.55.14.16.29.31.43.46.09.09.19.18.29.26.14.12.3.23.43.36.68.74,1.34,1.49,2.03,2.22.13.14.35.19.52.28.53.3,1.06.6,1.58.91.06.04.13.13.13.19,0,.57.31,1.02.59,1.48.05.09.08.24.04.33-.19.46.05.67.42.83-.1.12-.21.25-.31.37Z" fill="#bb215b" stroke-width="0"/><path d="M170.4,37.19c-.51.15-1.03.28-1.53.47-.2.08-.42.24-.53.42-.33.59-.76,1.07-1.31,1.45-.1.07-.2.17-.3.18-1.05.09-1.29,1.04-1.75,1.72-.19.28-.15.72-.28,1.07-.07.19-.21.39-.38.49-.42.26-.88.46-1.31.71-.21.12-.41.27-.56.44-.64.71-1.28,1.42-1.89,2.15-.55.65-1.06,1.32-2.05,1.22-.12-.01-.27.07-.39.14-.07.05-.15.18-.13.24.03.09.14.18.23.22.08.04.2,0,.29.02.18.06.35.14.52.22-.1.12-.19.24-.3.35-.34.33-.79.59-.6,1.19.01.04-.22.23-.27.21-.4-.19-.84-.36-1.17-.65-.33-.28-.55-.69-.83-1.05-.11-.14-.21-.28-.33-.41-.12-.13-.29-.36-.39-.34-.48.1-.84-.28-1.29-.25-.06,0-.12-.13-.18-.18-.27-.22-.53-.59-.82-.62-.48-.05-.62-.36-.85-.65-.13-.16-.29-.29-.43-.45-.08-.1-.21-.21-.21-.31-.01-.38-.22-.6-.54-.71-.39-.14-.49-.44-.62-.8-.18-.54-.45-1.05-.73-1.55-.12-.23-.31-.17-.58-.12-.31.06-.68-.29-1.04-.43-.23-.09-.47-.19-.7-.2-.47-.01-.7-.18-.73-.64-.03-.41-.38-.68-.77-.6-.1.02-.18.09-.27.12-.21.05-.42.08-.63.12.07-.19.18-.38.21-.58.03-.18.04-.41-.05-.55-.21-.31-.45-.64-.76-.83-.5-.31-.75-.96-1.4-1.05-.1-.47-.66-.42-.88-.81-.21-.37-.58-.65-.89-.96-.14-.14-.31-.25-.48-.35-.46-.27-.97-.48-1.38-.82-.51-.4-.93-.9-1.4-1.36-.16-.15-.28-.36-.46-.46-.9-.48-1.49-1.32-2.25-1.95-.27-.23-.64-.35-.95-.54-.16-.1-.33-.23-.41-.39-.21-.39-.52-.6-.96-.59-.33,0-.43-.16-.49-.47-.06-.3-.17-.62-.35-.87-.22-.3-.54-.52-.6-.94-.02-.12-.23-.2-.35-.3-.45-.41-.9-.83-1.36-1.22-.13-.11-.35-.13-.52-.21-.2-.1-.43-.18-.59-.33-.23-.21-.38-.5-.62-.7-1.11-.95-.89-2.17.13-2.87.54-.37.85-.78.96-1.43.05-.27.31-.57.56-.73.54-.35.99-.76,1.35-1.32.52-.83,1.13-1.59,1.94-2.17.13-.09.28-.27.28-.42,0-.46.26-.78.52-1.11.24-.31.41-.67.62-1.01.09-.15.21-.29.31-.43.13-.19.24-.39.37-.58.15-.2.28-.45.48-.57.42-.25.88-.44,1.33-.64.37-.16.62-.41.78-.79.09-.21.27-.38.41-.56.05-.06.16-.11.16-.16.02-.74.72-.77,1.14-1.08.13-.1.38-.09.56-.06.93.19,1.82.47,2.32,1.37.31.56.82.6,1.36.63l.28.23c0,.55.09,1.08.54,1.44.32.26.68.62,1.04.64.71.04,1.03.59,1.48.94.42.34.75.83,1.02,1.31.34.59.89.82,1.46,1.07.32.14.64.3.89.53.3.28.47.81.8.92.55.19.5.62.68.97.21.41.38.93.89,1.04.33.08.54.22.7.49.16.27.3.56.47.83.35.55.67.66,1.3.49.11-.03.24-.06.35-.05.13,0,.26.06.4.1-.07.1-.15.2-.22.3-.09.13-.16.27-.24.4.12.02.24.02.36.06.32.09.65.18.95.31.11.05.26.26.24.35-.12.45.21.59.48.79.57.43,1.14.87,1.7,1.31.12.1.23.25.37.29.54.15.84.58,1.22.92.41.38.6,1.01,1.25,1.14.09.02.13.26.22.38.09.13.19.28.33.37.18.12.4.17.6.26.43.18.8.39.88.94.03.2.27.37.42.55.14.16.29.31.43.46.09.09.19.18.29.26.14.12.3.23.43.36.68.74,1.34,1.49,2.03,2.22.13.14.35.19.52.28.53.3,1.06.6,1.58.91.06.04.13.13.13.19,0,.57.31,1.02.59,1.48.05.09.08.24.04.33-.19.46.05.67.42.83-.1.12-.21.25-.31.37Z" fill="#bb215b" stroke-width="0"/><path d="M99.06,34.55l1,.84c-.67.14-1.05.55-1.14,1.14-.1.69-.59,1.02-1.32.87-.34-.07-.48.16-.56.41-.13.36-.32.62-.72.67-.04,0-.11.07-.11.08.25.69-.55.76-.74,1.21-.18.43-.64.74-.99,1.09-.1.1-.21.2-.34.24-.68.26-.91.83-1.14,1.45-.17.45-.48.85-.73,1.27-.04.06-.15.13-.2.11-.43-.19-.8.15-1.2.11-.28-.03-.54-.16-.79-.24-.15.62-.36,1.3-.93,1.76-.91.74-1.83,1.46-2.77,2.16-.36.27-.63.54-.6,1.03,0,.13-.07.27-.1.4-.07.44-.32.61-.76.53-.43-.08-.82-.03-1.1.4-.15.24-1.08.3-1.3.14-.21-.16-.24-.66-.05-1.06.15-.3.34-.59.43-.91.05-.17-.07-.39-.12-.59-.23.05-.48.07-.69.17-.17.08-.27.3-.44.38-.16.07-.41.11-.54.03-.12-.08-.23-.38-.17-.5.25-.55-.02-.85-.44-1.07-.46-.25-.52-.73-.69-1.14-.02-.06.04-.16.08-.24.19-.37.11-.88-.18-1.14-.29-.26-.56-.22-.82.05-.27.28-.57.54-.9.76-.32.21-.73,0-.96-.31-.36-.5-.46-1.17-1.02-1.55-.1-.07-.09-.27-.17-.37-.17-.21-.34-.52-.57-.58-.49-.12-.69-.46-.87-.84-.14-.29-.33-.44-.63-.47-.51-.06-.78-.35-.87-.85-.06-.34-.27-.54-.54-.74-.22-.16-.42-.23-.57-.04-.24.29-.36.09-.51-.06-.22-.23-.45-.63-.68-.63-.61-.02-.64-.35-.65-.79,0-.11-.12-.21-.14-.33-.06-.31-.22-.69-.1-.92.13-.27.49-.5.79-.6.69-.21,1.18-.65,1.64-1.15.08-.08.12-.2.16-.31.04-.09.02-.24.08-.28.45-.27.75-.58.36-1.12.07-.02.18-.08.2-.06.37.41.47.15.58-.2.04-.14.15-.29.27-.37.54-.36.98-.88,1.72-.89.2,0,.24-.18.18-.41-.2-.77-.08-.92.68-1.15.69-.21,1.28-.57,1.6-1.26.05-.11.16-.22.26-.29.4-.28.61-.84.48-1.34-.15-.56.14-.9.72-.83.29.03.59.17.52-.33,0-.04.06-.14.09-.13.67.1.84-.58,1.28-.84.55-.33.99-.84,1.42-1.34.19-.22.25-.57.32-.87.05-.21-.11-.5.36-.35.13.04.43-.32.56-.55.05-.09-.13-.32-.22-.48-.1-.17-.3-.31-.33-.49-.05-.25-.09-.62.05-.77.19-.2.55-.27.84-.3.2-.02.41.13.62.2.59.19.68.16,1.01-.39.19-.32.35-.68.58-.97.34-.43.74-.81,1.09-1.23.48-.57.93-1.16,1.4-1.74.07-.08.21-.11.31-.15.35-.15.74-.26.66-.78-.01-.07.08-.18.15-.23.57-.35.74-.95.97-1.52.05-.13.14-.26.25-.35.37-.33.76-.65,1.15-.95.22-.17.45-.33.7-.45.82-.41,1.33-.99,1.49-1.94.14-.8.56-1.56,1.2-2.07.48-.38,1.15-.27,1.72-.01,1.1.5,2.07,1.21,3.02,1.94.09.07.2.15.31.17.63.09,1.02.55,1.35,1.01.52.74,1.15,1.29,1.96,1.7.39.19.65.63.98.93.65.58,1.26,1.21,1.97,1.69.81.54,1.68.97,2.43,1.6.41.34.8.63,1.02,1.17.26.64.8,1.09,1.38,1.46.59.37.7.62.58,1.29-.09.54-.1,1.1-.28,1.61-.19.53-.32,1.1-.97,1.4-.46.22-.77.7-.91,1.26-.1.39-.36.75-.6,1.08-.07.1-.38.14-.49.07-.26-.18-.42-.09-.56.11-.37.52-.77,1.02-1.07,1.58-.23.43-.52.72-.97.9-.18.07-.34.23-.49.36-.31.26-.67.49-.91.81-.31.39-.8.68-.78,1.29,0,.14-.09.36-.2.41-.51.23-.7.73-1.03,1.12-.15.17-.37.28-.57.38-.3.15-.61.26-.92.39-.16.07-.33.17-.5.19-.37.04-.55.11-.64.57-.08.4-.55.73-.87,1.07-.05.05-.26-.01-.38-.06-.13-.05-.25-.14-.38-.22-.03.03-.05.07-.08.1Z" fill="#a32430" stroke-width="0"/></pattern></defs><rect width="900" height="750" fill="url(#uuid-06179d0f-5d10-443b-8b40-a7c1a8db1842)" stroke-width="0"/></svg>