<?xml version="1.0" encoding="UTF-8"?><svg id="uuid-04cd28de-7c7d-48b4-a5a5-df2f3d7ef506" xmlns="http://www.w3.org/2000/svg" width="900" height="750" xmlns:xlink="http://www.w3.org/1999/xlink" viewBox="0 0 900 750"><defs><pattern id="uuid-e31fef1f-1677-4e4f-a04d-101dc96a2f08" x="0" y="0" width="109" height="117" patternTransform="translate(-460 -770)" patternUnits="userSpaceOnUse" viewBox="0 0 109 117"><rect width="109" height="117" fill="none" stroke-width="0"/><path d="M58.86,40.17c-.07-.11-.12-.26-.22-.32-.58-.31-1.07-1.12-.95-1.74.07-.39,0-.71-.19-1.02-.32-.55-.48-1.13-.44-1.78.01-.27-.1-.55-.1-.83,0-.29.03-.59.14-.86.22-.56.45-1.04.28-1.74-.21-.85-.1-1.78-.12-2.67-.02-.81-.03-1.62-.07-2.43-.06-1.12-.36-2.19-.67-3.26-.1-.34-.11-.69.35-.81.07-.02.18-.09.18-.14.05-.63.51-1.21.2-1.9-.09-.2-.08-.51.01-.71.15-.33.41-.62.62-.93.15-.22.28-.43.61-.37.12.02.29-.04.39-.12.63-.48,1.31-.52,2.02-.25.84.32,1.56-.09,2.3-.35.3-.11.45-.13.48.23.04.47.35.55.72.48.58-.12,1.16-.27,1.74-.4.57-.14,1.12,0,1.69.09.87.13,1.77.72,2.67.02.15-.12.37-.17.56-.19.87-.1,1.72-.17,2.53.33.41.25.94.27,1.3.68.09.1.46.01.67-.06.58-.21,1.15-.32,1.73-.02.06.03.17.05.21.02.75-.52,1.68-.52,2.5-.86.31-.13.62,0,.66.39.03.35.24.33.46.28.48-.12.96-.28,1.44-.39.25-.05.54-.08.76,0,.58.23,1.17.17,1.77.19,1.12.04,2.17-.46,3.28-.42.11,0,.21-.1.33-.14.13-.04.27-.05.4-.07-.04.12-.12.24-.11.35.02.21.08.41.13.62.07.35.3.2.51.19.1,0,.26.14.28.24.05.28.16.33.41.23.24-.1.49-.18.73-.24.41-.11.79-.15,1.21.06.39.2.88.19,1.27.38.31.16.84,0,.91.57,0,.02.16.06.23.03.2-.08.39-.18.58-.28.47-.24.93-.34,1.42-.04.12.07.25.12.39.15.63.15.75.31.68.95-.01.12-.05.23-.07.35-.06.45.03.57.48.64.1.01.2.02.3.02.59.01.59,0,.57.58,0,.11.06.24.04.34-.04.17-.08.4-.2.47-.42.24-.56.57-.39,1,.22.55.11.96-.43,1.26-.16.09-.28.28-.37.45-.1.17-.16.37-.23.56.26.03.52.12.78.09.25-.03.48-.17.73-.24.26-.08.38.06.37.31-.03.77.12,1.55-.27,2.29-.17.32-.14.74-.22,1.11-.04.19-.07.44-.36.19-.02-.02-.15.05-.15.07,0,.19-.02.42.07.58.3.53.31,1.06.15,1.63-.04.14-.06.36.02.46.32.4.3.87.39,1.34.11.61.42,1.18.67,1.76.09.21.1,1.31-.03,1.5-.19.26-.77.34-1.17.11-1.01-.59-1.96-.44-2.93.11-.37.21-.78.36-1.18.5-.09.03-.24-.08-.34-.16-.11-.1-.2-.23-.37-.31.03.11.05.21.08.32.07.25.15.36-.26.24-.38-.12-.85.02-1.28.05-.4.03-.82.2-1.04-.36-.03-.08-.33-.11-.49-.08-.39.06-.71-.06-1.08-.16-.88-.26-1.8-.57-2.73-.11-.3.15-.63.28-.93-.07-.04-.05-.23.06-.35.06-.89-.02-1.74.15-2.61.33-.65.14-1.39-.01-2.07-.12-.27-.04-.67.07-.82-.33-.23.41-.72.11-1.02.37-.31.28-.68.24-1.1.24-.89.02-1.83.02-2.61.63-.15.12-.39.17-.59.19-.87.05-1.74.09-2.61.11-.2,0-.43-.03-.61-.11-.42-.21-.81-.1-1.23,0-.41.09-.83.12-1.24.2-.38.08-.76.22-1.14.27-.74.11-1.46.23-2.21-.09-.36-.16-.84-.02-1.27-.03-.17,0-.34,0-.51-.05-.52-.13-1.02-.31-1.54-.42-.2-.04-.5,0-.63.12-.57.53-1.29.45-1.96.6-.06.01-.11.05-.16.08h-.72Z" fill="#d8de3f" stroke-width="0"/><path d="M25.63,50.43c-.41-.81-1.19-.87-1.95-.93-.47-.04-.97-.21-1.41.19-.08.08-.3.03-.45,0-.64-.1-1.27-.34-1.9.06-.15.1-.39.05-.59.08-.4.04-.79.1-1.19.12-.23.02-.5.06-.7-.02-.37-.16-.67-.2-.95.15-.05.06-.19.09-.27.06-.38-.1-.75-.21-1.12-.33-.09-.03-.19-.08-.24-.16-.47-.73-1.16-.81-1.97-.8-.61,0-1.24-.25-1.84-.45-.77-.26-.77-.33-.35-1.03.31-.51.23-1.04,0-1.55-.29-.64-.48-1.21-.03-1.91.23-.36.36-.89.12-1.42-.25-.56-.35-1.18-.5-1.78-.2-.79.11-1.49.4-2.19.12-.29.26-.56-.15-.75-.07-.03-.15-.19-.13-.24.22-.41-.03-.68-.24-.99-.11-.17-.17-.42-.15-.63.1-.87.24-1.73.38-2.59.02-.1.12-.2.21-.27.61-.4.75-.77.39-1.42-.28-.51-.43-.97-.09-1.5.06-.09-.01-.31-.08-.43-.46-.8-.62-1.7-.87-2.57-.1-.36.13-.49.43-.47.43.04.4-.12.27-.43-.08-.19-.07-.43-.11-.64-.08-.43-.18-.85-.26-1.28-.04-.21-.05-.43-.06-.65-.02-.28,0-.55-.05-.83-.07-.42-.15-.81.04-1.26.14-.34.09-.78.07-1.17-.02-.41-.11-.82-.14-1.24-.04-.39-.02-.75.47-.9.14-.04.24-.28.33-.44.1-.16.13-.38.26-.5.18-.16.17-.27.06-.45-.51-.83-.37-1.71-.13-2.58.01-.04.04-.08.03-.11-.21-.98.35-1.84.44-2.76.02-.17-.09-.44-.23-.54-.54-.37-.54-1.27.05-1.59.22-.12.27-.2.27-.44-.01-.54.65-1.23,1.16-1.25.14,0,.3.09.41.18.51.44.96.46,1.37-.05.2-.25.31-.1.44,0,.72.5,1.54.69,2.39.81.2.03.52.02.61-.11.35-.47.91-.48,1.38-.66.21-.08.53-.03.74.07.96.44,1.96.68,3.02.58.14-.01.3.03.41-.04.8-.45,1.69-.39,2.56-.47.23-.02.48-.04.71,0,.73.12,1.44-.02,2.11-.25.33-.11.52.11.77.14.43.06.25.37.27.6,0,.06,0,.14.03.17.42.38.23.86.24,1.31,0,.09,0,.21-.06.28-.64.96-.21,1.9.03,2.84,0,.04.04.07.05.11.16.41.39.75.2,1.27-.19.52-.14,1.13-.19,1.7,0,.06-.03.14,0,.18.37.42.15.96.3,1.42.12.38.07.69-.2.99-.26.3-.41.64-.17,1.04.04.06.06.17.03.23-.31.57.02,1.05.21,1.54.16.41.29.8.18,1.27-.2.88-.16,1.79-.25,2.67-.07.68.07,1.23.23,1.83.04.15,0,.31-.01.47,0,.84-.08,1.68,0,2.51.07.76.36,1.5.46,2.26.07.53,0,1.08-.05,1.62-.04.49-.12.98-.16,1.47-.03.41-.02.83-.03,1.24,0,.08-.02.16-.01.24.08.97.18,1.93.24,2.9.05.67.09,1.35.08,2.03,0,.26-.15.54-.3.76-.38.55-.44,1.13-.34,1.77.14.92.26,1.84.36,2.76.02.18-.03.4-.11.56-.17.34-.36.68-.61.96-.33.38-.56.96-1.25.81-.06-.01-.14.06-.22.09-.6.27-1.19.47-1.88.2-.28-.11-.64.15-.79.5h-.48Z" fill="#51924b" stroke-width="0"/><path d="M96.32,109.4c-.45-.3-.88-.61-1.34-.88-.19-.11-.45-.17-.66-.13-.66.13-1.31.11-1.95-.07-.11-.03-.26-.04-.33-.12-.75-.75-1.62-.32-2.44-.24-.34.03-.65.34-.99.48-.19.07-.43.08-.62.02-.47-.15-.92-.38-1.39-.54-.22-.08-.47-.14-.7-.15-.95-.04-1.91-.07-2.86-.06-.85,0-1.69.04-2.25-.79-.07-.1-.23-.16-.36-.21-.08-.02-.23,0-.27.05-.05.09-.05.22-.02.32.02.09.13.15.17.24.07.17.11.36.17.54-.15,0-.3.01-.46,0-.47-.05-.96-.23-1.3.3-.02.04-.32-.02-.33-.07-.11-.43-.26-.87-.26-1.31,0-.44.18-.87.27-1.31.04-.17.08-.34.1-.52.02-.18.09-.45,0-.51-.38-.3-.32-.82-.63-1.15-.04-.04.02-.17.02-.26,0-.35.12-.78-.05-1.03-.27-.4-.12-.71-.05-1.07.04-.2.04-.41.07-.62.02-.13.03-.29.11-.36.28-.25.31-.55.2-.87-.14-.39.02-.66.22-.99.3-.48.51-1.02.72-1.56.1-.24-.07-.35-.28-.52-.24-.2-.22-.71-.34-1.07-.07-.23-.16-.48-.3-.66-.29-.37-.31-.65.02-.97.29-.28.28-.72-.04-.97-.08-.06-.19-.08-.26-.14-.17-.13-.33-.27-.5-.4.2-.07.41-.11.58-.21.16-.09.34-.23.39-.39.1-.36.2-.75.15-1.11-.08-.59.25-1.19-.09-1.75.29-.38-.1-.78.05-1.19.15-.4.13-.86.16-1.3.01-.2,0-.4-.04-.59-.09-.53-.25-1.05-.26-1.58-.02-.65.09-1.3.15-1.94.02-.22.1-.45.06-.65-.21-1,.05-1.99.05-2.98,0-.36-.15-.71-.2-1.07-.03-.18-.03-.4.03-.56.16-.42.12-.79-.16-1.12-.22-.25-.15-.43.04-.68.19-.24.37-.53.44-.83.09-.36.05-.74.33-1.06.08-.09,0-.3.01-.46.02-.61.06-1.22.06-1.83,0-.18-.13-.35-.17-.53-.06-.22-.14-.44-.13-.66.01-.31.14-.62.14-.92.01-1.46,1.09-2.07,2.28-1.75.63.17,1.14.15,1.71-.18.24-.14.64-.13.92-.04.62.19,1.22.28,1.87.19.97-.13,1.95-.16,2.91.09.16.04.39.04.5-.05.36-.29.76-.3,1.19-.32.39-.02.78-.11,1.17-.17.18-.02.36-.02.53-.04.23-.03.45-.07.68-.09.25-.02.53-.08.75,0,.46.16.9.39,1.34.6.36.18.71.21,1.1.09.22-.06.46-.04.69-.04.08,0,.19.06.23.02.58-.46,1.05.05,1.56.18.16.04.32.23.41.4.45.83.81,1.7.44,2.66-.23.6.07,1.01.39,1.44v.36c-.42.35-.77.76-.75,1.34,0,.41-.04.92.18,1.2.42.57.22,1.17.23,1.73.01.54-.15,1.11-.34,1.62-.24.64-.06,1.21.11,1.8.1.33.18.69.16,1.03-.02.41-.32.88-.19,1.2.21.54-.15.78-.31,1.15-.18.42-.46.89-.23,1.35.16.3.18.56.08.85-.1.3-.24.59-.34.89-.2.63-.08.94.46,1.31.1.07.2.14.27.24.08.11.12.24.18.37-.13,0-.25,0-.38.02-.15.02-.31.05-.46.07.06.1.14.2.19.31.13.31.28.61.37.93.03.12-.03.36-.12.4-.42.2-.32.54-.3.87.04.71.06,1.43.09,2.15,0,.16-.05.34.01.47.23.51.1,1.01.07,1.53-.02.56-.39,1.11-.07,1.69.05.08-.11.27-.15.41-.04.16-.09.33-.07.49.03.21.13.42.19.63.14.45.21.86-.15,1.28-.13.15-.11.45-.15.68-.03.21-.06.42-.08.63-.01.13-.01.26-.02.39,0,.19.02.38,0,.56-.13.99-.28,1.99-.39,2.98-.02.19.08.39.12.58.11.6.22,1.2.32,1.79.01.07-.02.18-.07.22-.43.37-.58.89-.75,1.4-.03.1-.14.22-.23.25-.47.14-.48.47-.36.85-.16,0-.32,0-.48,0Z" fill="#9fc54d" stroke-width="0"/><path d="M31.95,97.07v1.3c-.54-.42-1.09-.45-1.61-.14-.6.37-1.16.2-1.51-.45-.17-.31-.43-.26-.67-.17-.36.13-.68.15-.98-.12-.03-.03-.12-.05-.13-.04-.37.64-.93.07-1.4.21-.45.13-.98-.02-1.47-.06-.14-.01-.29-.04-.4-.1-.63-.35-1.22-.17-1.84.05-.45.16-.96.18-1.44.25-.07,0-.2-.04-.21-.08-.13-.45-.63-.51-.86-.84-.16-.23-.23-.52-.33-.76-.57.29-1.23.56-1.95.42-1.15-.22-2.3-.47-3.44-.73-.43-.1-.82-.14-1.17.2-.1.09-.25.11-.37.19-.39.23-.67.14-.89-.25-.22-.38-.5-.65-1.01-.58-.28.04-.92-.63-.94-.91-.02-.26.36-.61.78-.72.33-.08.67-.12.98-.26.16-.07.25-.31.37-.47-.19-.14-.36-.32-.57-.42-.17-.08-.41-.01-.58-.09-.16-.07-.35-.24-.37-.39-.02-.14.14-.42.27-.45.58-.16.64-.56.54-1.03-.11-.52.22-.87.43-1.26.03-.06.15-.07.23-.09.4-.09.74-.48.76-.87.01-.39-.19-.57-.57-.59-.39-.03-.78-.09-1.16-.2-.37-.11-.47-.56-.38-.93.15-.6.6-1.11.53-1.77-.01-.12.15-.24.17-.37.05-.27.18-.6.08-.8-.22-.45-.09-.83.08-1.2.13-.29.12-.53-.04-.79-.28-.43-.23-.83.09-1.21.22-.26.24-.55.22-.89-.02-.27-.1-.47-.33-.47-.38,0-.3-.21-.28-.43.03-.32.19-.75.05-.93-.38-.47-.15-.71.18-1.01.08-.07.09-.23.16-.32.2-.24.39-.61.64-.67.29-.07.7.05.96.22.6.39,1.26.49,1.94.52.11,0,.23-.04.34-.08.09-.03.2-.14.27-.12.5.17.93.2,1.09-.44.06.04.18.09.18.12-.08.55.18.46.52.31.14-.06.32-.07.46-.03.62.18,1.31.19,1.78.75.13.16.29.07.43-.12.46-.65.66-.65,1.32-.22.6.39,1.26.62,2,.41.12-.03.27-.02.39.02.47.13,1.04-.07,1.34-.49.34-.47.78-.47,1.1.02.16.24.25.57.59.19.03-.03.15-.04.16-.02.35.58.98.27,1.47.44.6.21,1.29.22,1.93.23.29,0,.6-.18.87-.32.19-.1.31-.4.5.05.05.12.52.12.78.08.1-.02.17-.31.22-.48.06-.19.04-.43.16-.57.16-.2.42-.47.62-.46.27.02.56.24.77.45.14.14.17.4.25.6.23.57.32.62.95.53.37-.06.74-.17,1.11-.18.55-.02,1.09.05,1.64.05.74,0,1.49-.04,2.23-.04.11,0,.21.09.32.14.34.17.67.4,1.02,0,.05-.05.19-.06.27-.03.64.21,1.2-.04,1.78-.24.13-.04.29-.06.43-.03.49.08.98.16,1.47.27.27.06.54.14.79.25.84.36,1.61.38,2.45-.1.7-.41,1.56-.57,2.35-.41.6.12.95.71,1.11,1.31.32,1.16.4,2.36.46,3.56,0,.12.02.25.07.35.34.55.24,1.14.09,1.68-.24.87-.25,1.71-.04,2.59.1.42-.06.9-.08,1.35-.03.87-.12,1.74-.02,2.6.11.96.34,1.91.34,2.89,0,.54.03,1.02-.24,1.54-.32.61-.32,1.31-.23,2,.09.69-.03.94-.61,1.27-.47.28-.91.63-1.41.82-.52.2-1.05.46-1.69.16-.46-.22-1.03-.14-1.55.11-.36.17-.8.21-1.21.23-.12,0-.36-.2-.37-.33-.03-.31-.2-.38-.44-.36-.63.05-1.28.07-1.9.2-.48.1-.89.07-1.31-.17-.17-.1-.39-.11-.6-.15-.4-.07-.81-.19-1.21-.18-.5.02-1.04-.18-1.49.23-.1.09-.33.16-.44.11-.51-.24-1.01-.07-1.52-.07-.22,0-.45-.1-.66-.19-.31-.13-.6-.3-.89-.46-.16-.08-.34-.14-.46-.26-.27-.25-.43-.35-.85-.13-.36.2-.92.05-1.38.02-.07,0-.15-.2-.2-.33-.05-.14-.05-.29-.08-.43-.04,0-.08,0-.12,0Z" fill="#6fb353" stroke-width="0"/></pattern></defs><rect y="0" width="900" height="750" fill="url(#uuid-e31fef1f-1677-4e4f-a04d-101dc96a2f08)" stroke-width="0"/></svg>