<?xml version="1.0" encoding="UTF-8"?><svg id="uuid-27cc480f-3927-47bb-b72d-f8f5c1e6827c" xmlns="http://www.w3.org/2000/svg" width="900" height="750" viewBox="0 0 900 750"><path d="M900.24-.9c-1.04.18-2.07-.15-3.1-.07-.07.07-.18.13-.31.15.03-.02.06-.04.09-.08.01-.02.02-.03.03-.05-.1.01-.21.02-.31.05-.14.03-.27-.01-.4-.03.02,0,.04.02.05.03-.04-.02-.09-.02-.13-.04-.07,0-.14,0-.21.04-.09.05-.19.04-.28.02,0,0,.01,0,.02-.02.07-.08.14-.11.2-.12-.57-.11-1.23-.02-1.75.12-2.45.64-4.86-.74-7.28,0-1.95.6-3.91-.12-5.99,0-3.42.2-6.84-.55-10.22,0-1.46.24-2.66.6-3.97,0-1.68-.77-3.41.42-5.19,0-2.06-.49-4.07,1.31-5.8,0-.31-.24-.75.11-1.14,0-1.66-.45-3.3-.7-4.87,0-1.18.53-2.45.32-3.64,0-1.69-.46-3.37-.08-5.1,0-2.13.1-4.31-.4-6.38,0-2.82.54-5.55.56-8.21,0-2.63-.56-5.22-.07-7.88,0-.6.02-1.32-.24-1.78,0-1.45.74-3.06-.33-4.57,0-1.58.34-3.28.06-4.93,0-2.2-.08-4.4,0-6.59,0-1.48,0-3.02.25-4.42,0-1.56-.28-2.87.39-4.44,0-1.48-.37-3.12.09-4.68,0-1.43-.08-2.88-.15-4.27,0-2.06.22-4.07.06-6.12,0-2.62-.08-5.22-.47-7.88,0-2.05.36-4.25.05-6.38,0-2.14-.05-4.28-.02-6.41,0-.74,0-1.54.19-2.2,0-1.94-.56-4.94,1.34-6.89,1-1.19-.21-2.5.12-3.65.4-2.54.62-5.13.14-7.71.63-1.99.38-4.17-.26-6.27.09-.38.06-.85-.06-1.2-.25-1.52-.81-3.09-.58-4.67-.31-1.27.22-2.54.52-3.8.79-.54.11-1.1.18-1.6.39-1.49.63-3.06.72-4.62.57-1.52-.14-3.01-.31-4.48.29-.23.09-.55.11-.79.04-2.67-.81-5.39-.6-8.11-.42-3.08.21-6.07,1.42-9.23.89-1.18.61-2.34.5-3.56.08-.4-.14-.99.01-1.4.21-2.8,1.37-5.79,1.02-8.73,1.03-2.06,0-4.12-.23-6.17-.2-2.25.04-4.51.51-6.74.35-2.72-.2-5.32.19-7.93.74-.45.09-.91.11-1.37.12-1.37.03-2.8-.2-4.11.12-2.24.54-4.41,1.41-6.61,2.14-.32.11-.63.25-.95.32-3.7.76-7.3,1.92-10.94,2.89-.99.26-2.07.24-3.03.57-2.45.85-5.07,1.17-7.47,2.03-2.32.83-4.94.38-7.04,1.9-.26.19-.65.25-.99.28-2.97.23-5.85.84-8.7,1.68-.91.27-1.89.27-2.8.51-2.67.7-5.25,1.81-8.1,1.63-.38-.02-.79.17-1.17.28-1.49.43-2.97.96-4.49,1.27-3.1.63-6.21,1.15-9.33,1.68-2.08.35-4.18.62-6.26.96-.92.15-1.94.2-2.7.64-1.98,1.16-4.21.98-6.31,1.43-2.17.46-4.38.74-6.52,1.3-3.74.98-7.42,2.21-11.37,1.3-.11-.02-.29.11-.39.21-1.04,1.05-1.03.98-1.97.88-.85-.09-1.73-.02-2.59.05-.54.05-1.07.24-1.61.36-3.77.86-7.54,1.68-11.3,2.57-2.95.7-5.84,1.74-8.82,2.16-5.3.76-10.23,2.74-15.3,4.25-2.91.86-5.73,1.99-8.57,3.07-1.28.49-2.53,1.09-3.74,1.72-1.03.54-1.93,1.36-3,1.77-3.81,1.44-7.66,2.76-11.5,4.14-.26.09-.55.17-.74.35-.73.67-1.62.75-2.52.74-1.13-.02-2.2.08-3.16.77-.32.23-.77.29-1.17.39-2.33.57-4.71.97-6.97,1.73-2.88.97-5.62,2.33-8.49,3.34-3.37,1.19-6.24,3.4-9.69,4.49-2.41.75-4.64,2.12-6.85,3.39-2.62,1.5-5.11,3.23-7.7,4.8-2.99,1.81-5.9,3.66-8.44,6.15-1.53,1.5-3.26,2.92-5.25,3.89-.48.23-.86.64-1.3.95-1.07.76-2.14,1.5-3.21,2.26-.66.47-1.33.92-1.97,1.42-1.3,1.02-2.44,2.47-3.91,2.98-1.55.54-2.52,1.57-3.63,2.54-.98.86-1.78,1.98-2.87,2.65-1.89,1.16-3.76,2.26-4.94,4.22-.03.06-.09.11-.15.14-1.79.82-3.08,2.21-4.38,3.64-2.36,2.59-5.08,4.88-6.26,8.38-.23.68-1.05,1.35-1.76,1.65-.98.41-1.56,1.11-2.12,1.89-.49.67-.96,1.35-1.37,2.07-1.23,2.16-2.41,4.35-3.62,6.51-.84,1.5-1.84,2.92-2.53,4.48-1.58,3.52-3.13,7.07-4.47,10.69-1.27,3.42-2.33,6.92-3.34,10.44-.81,2.85-1.42,5.76-2.06,8.65-.28,1.27-.37,2.59-.66,3.86-.45,1.96-.93,3.89-.71,5.93.05.47-.04.97-.1,1.45-.66,4.85-1.4,9.7-1.97,14.56-.29,2.46-.4,4.95-.37,7.43.04,2.48-.36,4.92-.17,7.42.53,7.01.73,14.05,2.12,20.97.8,3.97,1.17,8,2.1,11.95,1.59,6.79,3.18,13.58,5.36,20.22,1.29,3.93,2.65,7.84,4.11,11.7,1.96,5.16,3.92,10.33,6.12,15.39,1.61,3.72,3.47,7.35,5.44,10.9,3.38,6.09,6.82,12.15,10.42,18.11,3.67,6.09,7.31,12.19,11.4,18.02,3.3,4.69,6.37,9.54,9.52,14.33,1.93,2.93,3.8,5.89,5.75,8.8,2.69,4.01,5.3,8.09,8.2,11.96,3.8,5.08,7.81,10,11.8,14.93,1.63,2.01,3.45,3.86,5.16,5.81.86.98,1.66,2.03,2.5,3.03.33.4.49.7-.25.76-.16.01-.3.17-.45.25.19.16.43.49.58.45,1.16-.29,1.75.32,2.3,1.21.36.58.95,1.01,1.35,1.57.36.5,1.18.89.62,1.75-.03.05.22.4.28.39,1.23-.3,1.65.61,1.87,1.44.24.91.88,1.49,1.47,2.04,2.38,2.21,4.21,4.86,6.17,7.42,1.04,1.35,2.05,2.73,3.09,4.09.08.1.25.13.34.23.62.61,1.26,1.21,1.83,1.86,1.74,2.02,2.99,4.42,5.07,6.19.69.59,1.02,1.59,1.64,2.3.61.71,1.45,1.22,2.05,1.93,1.28,1.52,2.45,3.14,3.71,4.68,1.04,1.29,2.11,2.57,3.61,3.35.24.13.66.04.94-.08.1-.04.06-.5,0-.75-.04-.19-.19-.36-.31-.53-1.6-2.32-3.21-4.64-4.8-6.97-.2-.3-.29-.67-.43-1.01.34.21.69.41,1.01.63.11.07.17.21.25.33,1.42,2.04,2.77,4.13,4.96,5.48.34.21.6.56.86.88,2.76,3.35,5.5,6.7,8.27,10.05,3.25,3.93,6.52,7.85,9.77,11.78.39.48.71,1.02,1.09,1.51,2.27,2.94,4.53,5.89,7.23,8.48.99.95,1.89,2.02,2.73,3.11,1.9,2.46,3.72,4.98,5.62,7.43.76.98,1.51,2.09,2.52,2.72,2.48,1.55,4,3.91,5.75,6.09.73.91,1.6,1.71,2.38,2.59,1.6,1.81,3.25,3.58,4.75,5.46,1.81,2.27,3.47,4.64,5.22,6.96.29.38.63.82,1.04.98,1.06.4,1.61,1.26,2.23,2.09.66.88,1.25,1.87,2.07,2.58,2.19,1.9,3.65,4.37,5.31,6.66,2.63,3.63,4.9,7.52,7.49,11.17,3.69,5.19,6.84,10.71,10.03,16.21.9,1.54,1.61,3.21,2.28,4.87.48,1.2.68,2.51,1.14,3.72,1.12,2.97,2.34,5.9,3.49,8.85.35.9.6,1.83.87,2.76.45,1.52.87,3.04,1.31,4.56.47,1.64,1.09,3.25,1.37,4.92.39,2.29.43,4.63.77,6.92.57,3.87.32,7.68-.67,11.43-.33,1.24-.92,2.37-.55,3.77.27,1.02.24,2.14.22,3.22-.04,3.4-.14,6.8-.21,10.2-.09,1.1,0,2.24-.29,3.26-.68,2.39-1.53,4.73-2.32,7.08-.11.32-.33.61-.46.92-.26.63-.66,1.25-.73,1.91-.18,1.86-1.66,3.15-2.03,4.91-.04.18-.21.38-.38.48-1.28.84-1.37,2.46-2.31,3.53-.24.27-.35.79-.3,1.17.15,1.26-.45,2.3-1.09,3.21-1.14,1.62-2.48,3.1-3.72,4.64-.28.35-.48.76-.73,1.13-1.07,1.61-1.89,3.53-3.31,4.73-1.21,1.02-2.14,2.14-3.17,3.29-2.32,2.59-4.86,5.01-7.51,7.26-1.15.97-2.23,2-3.37,2.99-.72.62-1.5,1.18-2.23,1.79-1.2,1.01-2.67,1.52-4.01,2.25-2.89,1.58-5.59,3.51-8.36,5.31-.22.14-.47.38-.51.61-.1.69-.7.75-1.13,1.07-1.27.96-2.86,1.2-4.16,2.24-2.19,1.74-4.67,3.18-7.19,4.42-1.7.84-3.19,2.01-5.1,2.61-2.32.73-4.35,2.36-6.51,3.59-1.12.64-2.26,1.21-3.34,1.98-1.59,1.14-3.55,1.78-5.43,2.48-1.85.69-3.72,1.38-5.45,2.33-2.16,1.19-4.21,2.53-6.71,2.96-.93.16-1.9.45-2.72.9-2.91,1.59-6.01,2.6-9.25,3.23-.26.05-.6.06-.76.22-1.15,1.2-2.76,1.07-4.18,1.46-.59.16-1.25.16-1.81.38-5.39,2.16-11.08,3.33-16.61,5.05-1.68.53-3.35,1.31-5.21,1.04-1.01.97-2.56-.39-3.52.81-1.17-.48-2.11.1-3.08.64-.22.12-.52.11-.79.12-1.77.06-3.55.21-5.32.14-1.8-.06-3.32,1.72-5.23.74-.03-.02-.11.08-.17.1-1.06.25-2.12.55-3.19.73-1.21.2-2.44.25-3.65.43-2.49.38-4.96.87-7.45,1.21-1.92.26-3.73,1.04-5.75.96-1.69-.07-3.4.39-5.11.5-1.5.09-3-.08-4.42.66-.51.26-1.21.17-1.82.23-.47.04-.99-.04-1.41.12-1.96.75-4.01.97-6.07,1-2.04.03-4.04.8-6.1.28-.85-.21-1.53.1-2.3.49-1.38.7-2.9,1.02-4.49.86-4-.41-7.94,0-11.86.78-2.13.42-4.3.2-6.42-.17-1.34-.23-2.63-.49-4.01-.45-1.64.05-3.28-.06-4.92-.15-1.56-.08-3.12-.27-4.68-.33-2.49-.09-4.94.88-7.46.24-.22-.06-.54.11-.77.25-.72.45-1.41.32-2.18.11-.98-.26-2.05-.53-3.02-.4-1.76.22-3.48.86-5.24.02-.11-.05-.27-.01-.41.02-2.75.58-5.41-.43-8.13-.49-.2,0-.4-.13-.6-.15-.74-.08-1.48-.15-2.23-.2-.39-.02-.8.06-1.19.02-1.89-.21-3.76-.64-5.68.08-.86.33-2.09.68-2.76.31-1.26-.69-2.21-.02-3.29.11-1.74.21-3.48.41-5.22.61-2.38-1.25-4.99-.34-7.46-.77-.72-.12-1.65.36-2.2.06-1.42-.78-2.93-.81-4.43-.98-1.39-.16-2.79-.13-4.18-.26-1.08-.11-2.16-.29-3.22-.54-1.02-.24-1.98-.62-3.09-.32-.85.23-1.78.35-2.66.29-2.41-.17-4.81-.48-7.24-.56-.27,0-.52-.28-.79-.41-.53-.26-1.11-.79-1.58-.71-1.7.31-3.39-.91-5.06.04-.86-.63-1.53.35-2.36.26-1.78-.18-3.48-.11-5.29-.89-2.21-.96-4.82-.77-7.27-.31-2.3.43-4.57.66-6.87-.17-1.93-.7-3.86-1.41-6.03-.64-.82.29-1.92-.04-2.85-.24-1.12-.25-2.21-.65-3.32-.97,2.18-.98,4.36-1.97,6.5-3.02,2.29-1.12,4.46-2.47,6.74-3.62,2.77-1.39,5.67-2.5,8.29-4.21.86-.56,1.8-1,2.72-1.46,1.53-.77,3.09-1.5,4.62-2.29,1.89-.98,3.79-1.95,5.64-3.01,1.9-1.09,3.68-2.43,5.85-3,.13-.03.23-.14.35-.21,2.02-1.29,4.04-2.57,6.06-3.85,1.68-1.07,3.4-2.08,5.04-3.2,2.79-1.91,5.56-3.86,8.31-5.83,3.39-2.43,6.85-4.79,10.12-7.38,4.09-3.25,8.01-6.72,12.02-10.07,1.15-.96,2.41-1.79,3.59-2.72,2.33-1.83,4.67-3.65,6.93-5.56.78-.66,1.29-1.61,2.01-2.35,4.98-5.06,10.25-9.85,14.81-15.32,2.23-2.68,4.69-5.17,6.62-8.1.63-.96,1.48-1.88,2.44-2.49,2.08-1.32,3.22-3.38,4.51-5.3,1.37-2.05,2.47-4.28,3.71-6.42,1.41-2.44,2.93-4.82,4.26-7.3,1.44-2.66,2.71-5.41,4.07-8.12.21-.43.45-.87.77-1.21,2.93-3.13,4.89-6.81,6.34-10.8.99-2.72,1.8-5.49,2.39-8.32.86-4.12,1.26-8.3,1.47-12.5.18-3.56-.83-7.1-.16-10.67.02-.12-.05-.27-.09-.4-.79-3.48-1.55-6.97-2.38-10.44-.27-1.13-.76-2.22-1.13-3.33-.89-2.66-1.67-5.36-2.7-7.97-1.18-3-2.55-5.94-3.91-8.87-.76-1.63-1.6-3.22-2.51-4.76-2.2-3.75-4.45-7.47-6.71-11.18-1-1.65-1.99-3.32-3.16-4.84-3.14-4.11-6.05-8.41-9.56-12.25-1.86-2.04-3.61-4.19-5.4-6.3-.53-.63-.99-1.33-1.57-1.9-.92-.91-1.97-1.7-2.88-2.63-1.4-1.43-2.67-3-4.11-4.38-2.12-2.04-4.31-4.02-6.56-5.92-.51-.42-1.4-.46-2.13-.53-.88-.09-.63.68-.77,1.16-.03.1-.49.22-.61.14-.38-.29-.72-.64-1.02-1.02-1.12-1.42-2-3.06-3.69-3.96-.2-.11-.26-.47-.43-.67-.51-.63-.95-1.38-1.59-1.83-2.08-1.45-2.9-4.13-5.27-5.26-.26-1.48-1.7-1.85-2.54-2.79-1.14-1.27-2.69-2.09-3.54-3.69-.44-.83-1.46-1.35-2.18-2.05-.44-.42-.82-.9-1.2-1.37-.59-.74-1.02-1.7-1.77-2.21-2.59-1.75-4.68-4-6.8-6.24-.75-.79-1.39-1.74-2.64-1.86-.21-.02-.44-.29-.59-.5-1.35-1.88-2.89-3.55-4.62-5.12-1.34-1.21-3.35-1.82-3.82-4.04-.16-.75-1.3-1.33-2.06-1.91-.7-.53-1.74-.78-2.19-1.45-1.74-2.54-4.81-3.83-6.15-6.72-.17-.36-.51-.64-.82-.92-2.17-1.94-3.74-4.49-6.23-6.11-.28-.18-.43-.53-.67-.78-.57-.59-1.17-1.16-1.74-1.75-1.14-1.18-2.29-2.36-3.41-3.56-.93-1-1.74-2.12-2.75-3.01-1.52-1.33-2.56-3.18-4.45-4.12-.16-.08-.23-.34-.36-.5-1.17-1.51-2.3-3.05-3.52-4.51-.6-.72-1.84-1.21-1.98-1.95-.25-1.37-1.32-1.86-2.03-2.73-.35-.42-.76-.8-1.07-1.25-.14-.2-.12-.51-.17-.77.22.09.46.14.64.27.34.24.62.57.97.77.26.14.6.14.91.2-.08-.29-.07-.67-.25-.87-.56-.61-1.21-1.13-1.81-1.71-1.08-1.05-2.19-2.09-3.21-3.2-2.34-2.53-4.57-5.17-6.96-7.65-2.61-2.69-5.36-5.25-8.04-7.87-.14-.14-.24-.32-.37-.48-.82-.95-1.54-2.03-2.49-2.82-2.81-2.36-5.03-5.25-7.47-7.94-.22-.24-.34-.66-.6-.78-2.53-1.14-3.44-3.81-5.32-5.58-1.94-1.82-3.57-3.97-5.32-5.99-1.43-1.65-2.83-3.33-4.25-5-1.33-1.55-2.61-3.14-3.89-4.73-.89-1.11-1.74-2.26-2.58-3.4-1.26-1.7-2.39-3.51-3.66-5.2-1.19-1.59-2.58-3.04-3.7-4.67-1.09-1.57-1.93-3.32-2.92-4.95-1.28-2.11-2.8-4.1-3.87-6.32-1.04-2.16-2.53-4.17-2.72-6.69,0-.06-.05-.14-.1-.18-1.42-1.03-1.65-2.8-2.45-4.19-1.46-2.54-2.54-5.33-3.52-8.11-1.41-4.01-2.64-8.09-3.86-12.17-.47-1.56-.67-3.21-1.04-4.8-.39-1.65-.95-3.27-1.25-4.94-.61-3.39-1.12-6.79-1.61-10.2-.38-2.66-.95-5.33-.94-8,.01-2.89-.44-5.74-.33-8.64.12-3.15.03-6.31.21-9.48.16-2.75.24-5.49.96-8.18.3-1.13.5-2.29.73-3.43.74-3.65,1.29-7.34,2.81-10.79.44-1.01.68-2.1,1.09-3.12,1.34-3.32,2.71-6.63,4.08-9.94.18-.44.53-.84.64-1.29.7-2.76,1.97-5.27,3.25-7.79.75-1.47,1.62-2.85,1.72-4.61.05-.85.44-1.78.92-2.5,1.57-2.35,3.12-4.72,4.93-6.88,1.25-1.5,2.26-3.09,3.13-4.8,1.31-2.57,2.84-4.98,4.87-7.06,1.68-1.72,3.26-3.53,4.91-5.29,2.39-2.56,4.74-5.16,7.23-7.61,1.1-1.08,2.04-2.26,3.04-3.41.99-1.13,2.14-2.12,3.21-3.17,1.32-1.3,2.42-2.85,4.17-3.65.25-.11.53-.24.68-.45,1.29-1.73,3.05-2.92,4.77-4.16,3.25-2.35,6.53-4.64,9.75-7.02,2.22-1.64,4.54-3.2,6.5-5.11,1.74-1.69,3.47-3.31,5.54-4.59,2.17-1.34,4.29-2.76,6.41-4.18,3.78-2.54,7.57-5.08,11.3-7.69.57-.4.88-1.17,1.31-1.76.57-.77,1-1.72,1.73-2.28,2.58-1.95,5.21-3.85,7.92-5.62,2.42-1.58,4.97-2.96,7.45-4.43,2.49-1.47,4.98-2.96,7.48-4.43,1.9-1.12,3.81-2.23,5.74-3.31,3.79-2.13,7.55-4.33,11.41-6.33,3.37-1.75,6.86-3.25,10.29-4.88,3.81-1.81,7.6-3.65,11.41-5.45,1.56-.74,3.13-1.44,4.73-2.09,2.62-1.07,5.27-2.07,7.9-3.12.3-.12.75-.36.78-.59.15-1.16,1.27-1.16,1.92-1.71.52-.44,1.17-.74,1.67-1.19,1.59-1.45,3.24-2.76,5.32-3.48,1.63-.56,3.22-1.24,4.82-1.9,1.79-.73,3.59-1.44,5.34-2.25,2.19-1.02,4.28-2.27,6.51-3.18,4.73-1.94,9.56-3.64,14.28-5.59,5.68-2.35,11.29-4.89,16.94-7.29,3.88-1.65,11.08-3.2,14.96-4.83,1.01-.43-.3-7.79.65-8.34h.14c.09.05.14.16.22,0-.25-.07-.52-.04-.75,0L-3.36-1.34,0,750c.97.15-1.02.22,0,0,.05.52-.18-.52,0,0l496.97.23c1.73.51,3.22-1.88,5.03-1.6,1.61.24,3.39-.27,5.04-.71,2.28-.6,4.64-.65,6.92-1.11,3.29-.66,6.7-.53,9.91-1.64.5-.17,1.1-.02,1.65-.05,2.3-.17,4.6.22,6.91-.53,2.22-.72,4.58-1.18,6.9-1.41,1.32-.13,2.47-.47,3.63-1,.25-.11.51-.24.78-.29,1.29-.21,2.58-.39,3.86-.59,1.28-.21,2.76-.94,3.79-.54,1.55.61,2.47-.42,3.68-.6.07-.01.14-.01.21,0,2.78.53,5.32-.53,7.89-1.28,3.78-1.11,7.51-2.41,11.5-2.56.38-.01.75-.24,1.13-.37.65-.21,1.3-.49,1.96-.6,2.65-.45,5.38-.57,7.93-1.32,4.14-1.22,8.42-1.57,12.62-2.33,4.45-.81,8.81-1.98,13.27-2.72,2.94-.49,5.81-1.43,8.72-2.15,2.55-.63,5.12-1.16,7.64-1.89,1.7-.5,3.3-1.36,4.99-1.9,5.39-1.73,10.8-3.4,16.21-5.07,1.51-.47,3.06-.84,4.57-1.29,2.91-.87,5.8-1.79,8.72-2.63,3.98-1.15,7.99-2.22,11.96-3.4,3.38-1.01,6.7-2.18,10.21-2.67,4.66-.65,9.17-1.95,13.55-3.64,5.28-2.04,10.52-4.21,15.77-6.32,2.43-.97,4.86-1.91,7.28-2.9.82-.34,1.59-.81,2.4-1.19,3.19-1.47,6.42-2.87,9.58-4.42,2.29-1.12,4.46-2.47,6.74-3.62,2.77-1.39,5.67-2.5,8.29-4.21.86-.56,1.8-1,2.72-1.46,1.53-.77,3.09-1.5,4.62-2.29,1.89-.98,3.79-1.95,5.64-3.01,1.9-1.09,3.68-2.43,5.85-3,.13-.03.23-.14.35-.21,2.02-1.29,4.04-2.57,6.06-3.85,1.68-1.07,3.4-2.08,5.04-3.2,2.79-1.91,5.56-3.86,8.31-5.83,3.39-2.43,6.85-4.79,10.12-7.38,4.09-3.25,8.01-6.72,12.02-10.07,1.15-.96,2.41-1.79,3.59-2.72,2.33-1.83,4.67-3.65,6.93-5.56.78-.66,1.29-1.61,2.01-2.35,4.98-5.06,10.25-9.85,14.81-15.32,2.23-2.68,4.69-5.17,6.62-8.1.63-.96,1.48-1.88,2.44-2.49,2.08-1.32,3.22-3.38,4.51-5.3,1.38-2.05,2.47-4.28,3.71-6.42,1.41-2.44,2.93-4.82,4.26-7.3,1.44-2.66,2.71-5.41,4.07-8.12.21-.43.45-.87.77-1.21,2.93-3.13,4.89-6.81,6.34-10.8.99-2.72,1.8-5.49,2.39-8.32.86-4.12,1.26-8.3,1.47-12.5.18-3.56-.83-7.1-.16-10.67.02-.12-.05-.27-.09-.4-.79-3.48-1.55-6.97-2.38-10.44-.27-1.13-.76-2.22-1.13-3.33-.89-2.66-1.67-5.36-2.7-7.97-1.18-3-2.55-5.94-3.91-8.87-.76-1.63-1.6-3.22-2.51-4.76-2.2-3.75-4.45-7.47-6.71-11.18-1-1.65-1.99-3.32-3.16-4.84-3.14-4.11-6.05-8.41-9.56-12.25-1.86-2.04-3.61-4.19-5.4-6.3-.53-.63-.99-1.33-1.57-1.9-.92-.91-1.97-1.7-2.88-2.63-1.4-1.43-2.67-3-4.11-4.38-2.12-2.04-4.31-4.02-6.56-5.92-.51-.42-1.4-.46-2.13-.53-.88-.09-.63.68-.77,1.16-.03.1-.49.22-.61.14-.38-.29-.72-.64-1.02-1.02-1.12-1.42-2-3.06-3.69-3.96-.2-.11-.26-.47-.43-.67-.51-.63-.95-1.38-1.59-1.83-2.08-1.45-2.9-4.13-5.27-5.26-.26-1.48-1.7-1.85-2.54-2.79-1.14-1.27-2.69-2.09-3.54-3.69-.44-.83-1.46-1.35-2.18-2.05-.44-.42-.82-.9-1.2-1.37-.59-.74-1.02-1.7-1.77-2.21-2.59-1.75-4.68-4-6.8-6.24-.75-.79-1.39-1.74-2.64-1.86-.21-.02-.44-.29-.59-.5-1.35-1.88-2.89-3.55-4.62-5.12-1.34-1.21-3.35-1.82-3.82-4.04-.16-.75-1.3-1.33-2.06-1.91-.7-.53-1.74-.78-2.19-1.45-1.74-2.54-4.81-3.83-6.15-6.72-.17-.36-.51-.64-.82-.92-2.17-1.94-3.74-4.49-6.23-6.11-.28-.18-.43-.53-.67-.78-.57-.59-1.17-1.16-1.74-1.75-1.14-1.18-2.29-2.36-3.41-3.56-.93-1-1.74-2.12-2.75-3.01-1.52-1.33-2.56-3.18-4.45-4.12-.16-.08-.23-.34-.36-.5-1.17-1.51-2.3-3.05-3.52-4.51-.6-.72-1.84-1.21-1.98-1.95-.25-1.37-1.32-1.86-2.03-2.73-.35-.42-.76-.8-1.07-1.25-.14-.2-.12-.51-.17-.77.22.09.46.14.64.27.34.24.62.57.97.77.26.14.6.14.91.2-.08-.29-.07-.67-.25-.87-.56-.61-1.21-1.13-1.81-1.71-1.08-1.05-2.19-2.09-3.21-3.2-2.34-2.53-4.57-5.17-6.96-7.65-2.61-2.69-5.36-5.25-8.04-7.87-.14-.14-.24-.32-.37-.48-.82-.95-1.54-2.03-2.49-2.82-2.81-2.36-5.03-5.25-7.47-7.94-.22-.24-.34-.66-.6-.78-2.53-1.14-3.44-3.81-5.32-5.58-1.94-1.82-3.57-3.97-5.32-5.99-1.43-1.65-2.83-3.33-4.25-5-1.33-1.55-2.61-3.14-3.89-4.73-.89-1.11-1.74-2.26-2.58-3.4-1.26-1.7-2.39-3.51-3.66-5.2-1.19-1.59-2.58-3.04-3.7-4.67-1.09-1.57-1.93-3.32-2.92-4.95-1.28-2.11-2.8-4.1-3.87-6.32-1.04-2.16-2.53-4.17-2.72-6.69,0-.06-.05-.14-.1-.18-1.42-1.03-1.65-2.8-2.45-4.19-1.46-2.54-2.54-5.33-3.52-8.11-1.41-4.01-2.64-8.09-3.86-12.17-.47-1.56-.66-3.21-1.04-4.8-.39-1.65-.95-3.27-1.25-4.94-.61-3.39-1.12-6.79-1.61-10.2-.38-2.66-.95-5.33-.94-8,.01-2.89-.44-5.74-.33-8.64.12-3.15.03-6.31.21-9.48.16-2.75.24-5.49.96-8.18.3-1.13.5-2.29.73-3.43.74-3.65,1.29-7.34,2.81-10.79.44-1.01.68-2.1,1.09-3.12,1.34-3.32,2.71-6.63,4.08-9.94.18-.44.53-.84.64-1.29.7-2.76,1.97-5.27,3.25-7.79.75-1.47,1.63-2.85,1.72-4.61.05-.85.44-1.78.92-2.5,1.57-2.35,3.12-4.72,4.93-6.88,1.25-1.5,2.26-3.09,3.13-4.8,1.31-2.57,2.84-4.98,4.87-7.06,1.68-1.72,3.26-3.53,4.91-5.29,2.39-2.56,4.74-5.16,7.23-7.61,1.1-1.08,2.04-2.26,3.04-3.41.99-1.13,2.14-2.12,3.21-3.17,1.32-1.3,2.42-2.85,4.17-3.65.25-.11.53-.24.68-.45,1.29-1.73,3.05-2.92,4.77-4.16,3.25-2.35,6.53-4.64,9.75-7.02,2.22-1.64,4.54-3.2,6.5-5.11,1.74-1.69,3.47-3.31,5.54-4.59,2.17-1.34,4.29-2.76,6.41-4.18,3.78-2.54,7.57-5.08,11.3-7.69.57-.4.88-1.17,1.31-1.76.57-.77,1-1.72,1.73-2.28,2.58-1.95,5.21-3.85,7.92-5.62,2.42-1.58,4.97-2.96,7.45-4.43,2.49-1.47,4.98-2.96,7.48-4.43,1.9-1.12,3.81-2.23,5.74-3.31,3.79-2.13,7.55-4.33,11.41-6.33,3.37-1.75,6.86-3.25,10.29-4.88,3.81-1.81,7.6-3.65,11.41-5.45,1.56-.74,3.13-1.44,4.73-2.09,2.62-1.07,5.27-2.07,7.9-3.12.3-.12.75-.36.78-.59.15-1.16,1.27-1.16,1.92-1.71.52-.44,1.17-.74,1.67-1.19,1.59-1.45,3.24-2.76,5.32-3.48,1.63-.56,3.22-1.24,4.82-1.9,1.79-.73,3.59-1.44,5.34-2.25,2.19-1.02,4.28-2.27,6.51-3.18,4.73-1.94,9.56-3.64,14.28-5.59,5.68-2.35,11.29-4.89,16.94-7.29,3.88-1.65,11.08-3.2,14.96-4.83,1.01-.43-.3-7.79.65-8.34.19-.11.24.23.35,0-.25-.07-.53-.04-.76,0ZM376.6,263.84c-.21-.1-.53-.15-.6-.31-.59-1.4-1.18-2.8-1.67-4.24-1.35-3.9-2.72-7.81-3.97-11.74-1.25-3.93-2.42-7.89-3.53-11.86-.83-2.99-1.6-6-2.22-9.04-.78-3.85-1.47-7.73-2.01-11.62-.58-4.16-.96-8.36-1.41-12.54-.04-.41-.04-.83-.03-1.24,0-.11.13-.22.21-.33.12.14.32.26.34.41.2,1.84.36,3.68.54,5.52-.03,0-.07.01-.1.02.09.6.19,1.21.28,1.81.47,3.2.87,6.4,1.44,9.58.48,2.69,1.16,5.33,1.75,8,.77,3.52,1.45,7.06,2.34,10.54.67,2.62,1.61,5.16,2.42,7.75.3.98.56,1.97.83,2.95,1.38,4.98,3.13,9.82,5.11,14.58.16.38.3.77.39,1.18.04.18-.06.39-.1.58ZM379.48,270.52c-.1-.09-.24-.16-.3-.28-.81-1.63-1.61-3.27-2.39-4.92-.05-.11.11-.41.24-.48.1-.05.42.07.47.19.71,1.7,1.39,3.41,2.07,5.12.04.09-.06.24-.1.36ZM395.42-.9h-.13c.05-.03.1-.02.13,0ZM449.91,268.78c.34.41.76.77,1.02,1.23.74,1.31,1.37,2.69,2.13,3.99,3.11,5.28,6.24,10.53,9.39,15.79.36.6.59,1.41,1.55,1.33-.2-.63-.33-1.29-.61-1.87-1.22-2.55-2.48-5.08-3.75-7.61-.18-.35-.47-.64-.72-.95-1.39-1.65-2.63-3.38-3.1-5.54-.07-.33-.16-.67-.15-1,0-.16.21-.39.38-.45.13-.05.42.05.5.17.29.46.55.95.78,1.45,1.23,2.67,2.82,5.12,4.52,7.52.91,1.28,1.58,2.73,2.39,4.09.99,1.66,2.05,3.28,2.99,4.97.98,1.77,2.71,2.72,4.18,3.95.09.08.32.14.37.09.12-.12.25-.31.23-.46-.22-1.92-.62-3.73-1.55-5.51-2.09-4.02-3.77-8.26-5.88-12.27-2.32-4.41-4.08-9.04-5.93-13.64-.57-1.43-1.03-2.9-1.33-4.43-.22-1.11-.9-2.14-1.35-3.21-.26-.63-.53-1.17.17-1.84.42-.4.38-1.28.56-1.94.05-.18.15-.34.23-.5.15.12.38.21.45.36.33.83.57,1.7.94,2.51,1.12,2.44,2.31,4.85,3.45,7.28,1.97,4.18,3.87,8.4,5.9,12.55,2.27,4.65,4.73,9.2,7.73,13.45,1.16,1.63,2.05,3.45,3.16,5.11.87,1.31,1.91,2.51,2.86,3.76.33.44.63.91.94,1.36.31.46.54,1,.94,1.35.43.36,1.1.83,1.53.72.7-.19.61-.98.41-1.6-.34-1.05-.71-2.09-1.1-3.12-1.57-4.15-4.29-7.69-6.28-11.61-.62-1.22-1.14-2.49-1.73-3.73-1-2.11-2.04-4.2-3.02-6.32-.84-1.81-1.63-3.64-2.42-5.47-.9-2.09-1.73-4.2-2.67-6.27-1.26-2.77-2.01-5.69-2.77-8.61-.03-.12.02-.26.03-.39.15.1.35.17.43.3.49.83.95,1.68,1.45,2.51.09.15.32.23.48.34.05-.17.18-.36.15-.52-.27-1.28-.5-2.58-.88-3.83-1.57-5.14-3.19-10.27-4.79-15.41-1.42-4.58-1.84-9.33-2.45-14.05-.44-3.4-.65-6.83-.96-10.24-.03-.27-.1-.55-.08-.82.01-.19.15-.37.23-.55.11.12.28.22.33.35.25.78.5,1.56.71,2.35.86,3.27,1.7,6.54,2.56,9.81.09.33.22.66.39.96.08.15.29.22.44.33.06-.12.16-.24.17-.37.02-.48,0-.96,0-1.45h-.07c0-.21-.04-.42,0-.62,1.08-4.5-.34-8.91-.48-13.37-.09-2.82-.26-5.63-.32-8.45-.06-2.74-.03-5.48-.02-8.22,0-.26.12-.55.26-.77.27-.44,1.13-.92-.2-1.09-.07,0-.11-.63-.08-.95.26-2.87.52-5.75.83-8.62.17-1.57.26-3.18.68-4.69.6-2.17.25-4.51,1.3-6.58.11-.21,0-.53.02-.8.07-1.51.07-3.01.64-4.46.26-.67.05-1.51.28-2.2,1.53-4.64,3.04-9.29,4.72-13.87.77-2.09,1.9-4.05,2.89-6.06.07-.15.3-.23.45-.34.06.18.23.4.18.54-.45,1.29-.9,2.59-1.43,3.86-1.84,4.38-3.7,8.75-4.76,13.4-.11.47-.28.92-.44,1.37-.5,1.36-.76,2.76-.92,4.21-.22,1.97-.81,3.9-1.14,5.87-.34,2.03-.65,4.07-.8,6.12-.27,3.55-.38,7.11-.61,10.66-.22,3.42.05,6.81.42,10.21.1.88-.12,1.79-.07,2.67.18,2.95.39,5.9.64,8.85.58,6.82,2.11,13.48,3.47,20.16.41,2,1.34,3.91,2.1,5.83.15.37.61.61.92.91.07-.45.27-.91.2-1.34-.3-2.05-.7-4.08-.98-6.13-.15-1.09-.14-2.19-.19-3.29,0-.14.03-.27.05-.41.07.15.17.29.2.45.33,1.55.57,3.13.97,4.66.99,3.8,2.02,7.59,3.1,11.37,1.06,3.71,2.04,7.45,3.32,11.08,1.42,4.03,3.05,7.99,4.75,11.91,1.62,3.73,3.54,7.32,5.15,11.05,1.7,3.94,3.93,7.57,6.04,11.28,1.81,3.17,3.56,6.37,5.41,9.52.55.93,1.41,1.68,2,2.6,1.66,2.61,3.21,5.29,4.9,7.88,1.09,1.67,2.39,3.2,3.57,4.81.85,1.16,1.62,2.38,2.47,3.55,2.23,3.06,4.48,6.1,6.72,9.15.37.5.74,1,1.07,1.53,1.56,2.51,3.37,4.84,5.33,7.04.14.15.32.29.4.47,1.42,2.94,4.03,4.97,5.85,7.62,1.71,2.49,3.72,4.78,5.65,7.11,1.53,1.85,2.91,3.82,4.67,5.49.56.53.67,1.5,1.15,2.15,1.13,1.55,2.3,3.07,3.55,4.52,1.25,1.44,2.9,2.61,3.86,4.21,1.33,2.22,3.36,3.76,4.84,5.8.16.22.38.43.48.68,1.45,3.69,4.39,6.3,6.76,9.32.47.6,1,1.15,1.48,1.74.26.32.64.68.66,1.03.1,2.29,2,3.52,3.01,5.26.7,1.21,1.5,2.35,2.24,3.54.09.14.11.52.06.53-.23.08-.5.16-.72.11-1.55-.4-2.5-1.66-3.54-2.69-3.02-2.99-5.97-6.06-8.85-9.19-2.74-2.98-5.36-6.09-8.03-9.13-.14-.16-.29-.29-.44-.44-1.75-1.66-2.71-1.54-3.79.57-.31.61-.44.71-.98.19-3.41-3.24-6.32-6.9-9.23-10.57-1.5-1.89-3.15-3.65-4.69-5.51-1.28-1.54-2.47-3.14-3.74-4.68-1-1.21-2.12-2.3-3.07-3.54-1.67-2.19-3.24-4.46-4.87-6.68-.4-.54-.84-1.09-1.36-1.51-.94-.75-1.73-.73-2.42-.08-.66.62-.64,1.71.08,2.62.76.96,1.57,1.89,2.32,2.87.42.55.98,1.11,1.09,1.74.3,1.76,1.52,2.89,2.52,4.18,2.52,3.27,4.96,6.6,7.56,9.8,2.78,3.43,5.75,6.7,8.57,10.1,2.15,2.59,4.15,5.31,6.3,7.9,1.58,1.9,3.34,3.66,4.95,5.54,3.68,4.29,7.33,8.62,10.99,12.94,1.28,1.51,2.56,3.01,3.81,4.54,2.34,2.88,4.65,5.8,7,8.67,1.48,1.8,3.29,3.33,4.45,5.4.1.17.16.36.24.54-.18,0-.38.05-.55,0-1.25-.42-2.51-.82-2.92-2.34-.12-.44-.44-.9-.8-1.19-1.55-1.25-2.74-2.86-4.13-4.23-1.41-1.39-2.76-2.84-3.85-4.43-1.17-1.72-2.82-2.94-4.09-4.53-1.27-1.59-2.68-3.07-3.86-4.72-1.97-2.75-4.52-4.93-6.79-7.39-1.85-2-3.61-4.08-5.33-6.19-1.61-1.99-3.47-3.71-5.33-5.45-1.94-1.82-4.02-3.48-5.67-5.66-1.97-2.59-4.45-4.78-6.59-7.25-.97-1.12-2-2.01-3.36-2.6-.46-.2-.81-.72-1.11-1.16-.46-.68-.78-1.45-1.25-2.12-1.06-1.5-2.43-1.81-3.52-.86-.87.76-.8,2.7.1,3.8.74.9,1.53,1.78,2.09,2.79.78,1.41,1.86,2.52,2.94,3.67,1.55,1.66,2.88,3.52,4.34,5.27,2.17,2.59,4.49,5.08,6.54,7.77,1.58,2.07,3.47,3.86,5.01,5.95.37.5,1.12.93.26,1.66-.08.07.13.63.32.87,3.79,4.57,7.64,9.11,11.4,13.71,3.28,4,6.45,8.09,9.7,12.11.63.78,1.17,1.73,2.51,1.47.35-.07,1.05.29.54.95-.55.7-.06,1.15.32,1.62,1.53,1.87,3.06,3.74,4.6,5.6.18.21.4.39.54.62.14.22.21.49.31.74-.26,0-.58.08-.78-.05-.81-.5-1.62-1.02-2.35-1.62-1.69-1.39-3.27-2.89-4.61-4.62-1.13-1.44-2.16-2.95-3.28-4.39-1.68-2.17-3.36-4.34-5.11-6.46-4.4-5.31-8.66-10.73-13.07-16.03-.95-1.14-1.75-2.5-3.37-2.9-.11-.03-.21-.18-.28-.3-1.37-2.09-3.79-3.34-4.66-5.84-.08-.22-.3-.42-.5-.56-.27-.2-.68-.28-.86-.53-.61-.81-.97-1.91-1.74-2.46-.87-.62-1.5-1.33-2.17-2.12-2.04-2.43-4.19-4.77-6.28-7.16-.62-.71-1.2-1.45-1.79-2.18-2.38-2.93-4.76-5.87-7.15-8.8-1-1.23-2.02-2.44-3.04-3.66-2.24-2.69-4.54-5.33-6.71-8.07-3.33-4.22-6.58-8.51-9.85-12.79-1.92-2.51-3.85-5.01-5.71-7.57-1.45-2.01-2.8-4.09-4.19-6.14-.19-.29-.3-.65-.53-.89-2-2.09-3.42-4.57-4.96-7-2.03-3.2-4.41-6.18-6.49-9.35-2-3.05-3.97-6.15-5.66-9.38-1.07-2.04-1.91-4.19-3.09-6.19-1.33-2.26-2.61-4.55-3.75-6.91-1.57-3.27-2.99-6.61-4.46-9.92-.14-.31-.14-.68-.27-.99-.2-.46-.91-.74-.48-1.41ZM515.82,401.78s.07-.08.11-.12c.1.1.19.2.28.3,3.98,4.19,7.72,8.58,11.07,13.3.12.17.19.42.35.5,1.58.81,1.8,2.53,2.6,3.86.14.23.1.63.28.76,2.23,1.54,2.9,4.28,4.79,6.1.87.84,1.45,1.99,2.15,3,1.67,2.42,3.32,4.86,5,7.27.84,1.21,1.34,2.53,1.58,3.96.02.12-.04.26-.07.38-.11-.06-.26-.09-.33-.18-3.42-4.27-7.21-8.29-9.99-13.03-2.07-3.52-4.85-6.48-7.14-9.81-1.08-1.57-2.06-3.21-3.07-4.82-.11-.17-.13-.43-.28-.55-1.22-.93-2.13-2.05-2.95-3.4-1.24-2.03-2.93-3.78-4.43-5.65-.18-.22-.14-1.72.05-1.88ZM529.81,434.86c-.04-.09.02-.23.05-.53.59.5,1.09.79,1.4,1.21,2.59,3.55,5.36,6.95,8.23,10.29,2.1,2.44,3.94,5.09,5.89,7.65.09.11.01.35.01.53-.17-.09-.4-.13-.51-.27-1.52-1.88-3.02-3.77-4.52-5.66-.21-.27-.36-.66-.64-.79-2.48-1.19-3.71-3.62-5.45-5.51-1.48-1.61-2.59-3.57-4.04-5.22-.53-.61-.15-1.17-.4-1.7ZM569.51,496.6c-.15-.08-.44-.17-.43-.25.01-.61-.4-.76-.85-1-.65-.35-1.34-.76-1.81-1.31-1.3-1.57-2.48-3.25-3.74-4.85-1.06-1.34-2.19-2.63-3.27-3.96-.64-.8-1.24-1.63-1.85-2.46-1-1.37-1.99-2.74-2.97-4.11-1.55-2.17-3.06-4.37-4.65-6.51-1-1.35-1.86-2.79-2.95-4.09-1.29-1.55-2.25-3.36-3.45-4.99-1.09-1.49-2.3-2.89-3.49-4.31-.79-.94-1.71-1.79-2.45-2.76-2.08-2.75-4.23-5.46-6.09-8.36-.84-1.3-1.96-2.21-2.95-3.3-1.42-1.57-2.74-3.24-4.03-4.93-1.46-1.91-2.84-3.89-4.23-5.85-.12-.18-.09-.46-.13-.7.15.13.31.23.43.38,1.52,1.79,3.04,3.57,4.55,5.37,2.17,2.59,4.34,5.18,6.48,7.8.68.83,1.2,1.79,1.86,2.64,2.02,2.61,4.05,5.21,6.11,7.79,2.74,3.45,5.51,6.87,8.27,10.31.09.11.16.24.27.32.21.15.44.27.66.41.05-.15.1-.28.12-.34.12-1.93-.98-2.91-1.69-4.06-.51-.82-1.17-1.53-1.75-2.3-.1-.14-.14-.32-.21-.48.17.09.34.2.52.26.18.06.38.07.58.1,0-.25.1-.55.01-.76-.49-1.13-1.03-2.23-1.53-3.35-.07-.15.03-.38.04-.57.17.08.4.12.52.25.59.68,1.14,1.38,1.72,2.07,1.29,1.52,2.57,3.03,3.89,4.53.13.15.46.11.69.16-.02-.19.03-.43-.06-.57-.7-1.1-1.41-2.2-2.15-3.27-.35-.51-.8-.95-1.14-1.47-.2-.3-.27-.68-.39-1.03.3.27.65.5.9.81,2.39,2.92,4.81,5.81,7.11,8.79,1.09,1.41,2.02,2.96,2.87,4.54.24.44.13,1.31-.17,1.76-1.18,1.81-.37,3.61-.03,5.36.16.83.74,1.67,1.35,2.3.77.79,1,1.51.71,2.59-.22.84.69,1.98.97,1.71,1-.97,1.05.14,1.41.52.08.08.08.34,0,.45-.48.73-.52.8-.15,1.04,2.15,1.41,3.52,3.41,4.62,5.68.41.86,1.11,1.57,1.62,2.39.24.39.35.86.48,1.3.03.1-.1.24-.16.36ZM576.05,450.12s-.25-.07-.34-.16c-1.19-1.19-2.77-2.03-3.38-3.77-.13-.36-.45-.76-.79-.94-1.42-.76-2.17-2.14-3-3.36-1.66-2.45-3.58-4.63-5.85-6.53-.93-.78-1.62-1.84-2.39-2.8-.98-1.22-1.91-2.49-2.91-3.7-.38-.47-.85-.88-1.33-1.27-.48-.39-1.2-.62-1.47-1.1-1.05-1.85-2.81-1.59-4.2-1.09-1.34.48-2.26-.21-2.71-.79-1.7-2.23-3.74-4.12-5.58-6.2-1.26-1.43-2.36-2.99-3.54-4.49-.85-1.08-1.71-2.17-2.58-3.24-1.88-2.33-3.69-4.73-5.7-6.95-1.39-1.54-2.47-3.24-3.59-4.95-.82-1.26-1.89-2.38-2.61-3.69-1.44-2.64-3.93-4.41-5.55-6.89-.44-.68-.92-1.33-1.44-1.95-1.75-2.1-3.52-4.18-5.28-6.27-.09-.11-.15-.25-.26-.33-1.92-1.3-3.21-3.17-4.5-5.04-.5-.73-1.09-1.41-1.67-2.09-.71-.82-1.45-1.62-2.18-2.42-.32-.36-.74-.66-.98-1.06-1.58-2.68-3.59-5.02-5.74-7.25-.19-.2-.44-.39-.52-.63-.58-1.79-2.27-2.74-3.21-4.21-1.07-1.68-2.73-2.9-3.47-4.82-.23-.59-.93-.99-1.35-1.52-1.1-1.38-2.13-2.82-3.27-4.17-.57-.67-1.44-1.1-1.98-1.78-2.23-2.83-4.78-5.39-6.58-8.6-1.73-3.09-3.91-5.95-6.04-8.8-.98-1.31-2.35-2.32-3.5-3.51-.66-.68-1.21-1.48-1.87-2.16-2.86-2.97-4.76-6.55-6.65-10.17-1.68-3.22-3.67-6.28-5.52-9.41-.77-1.31-1.54-2.62-2.29-3.94-.51-.9-.41-.91-.49-3.21-.04-1.22-.47-2.43-.71-3.65-.05-.24,0-.49,0-.73.2.17.44.31.61.52.7.85,1.34,1.75,2.09,2.56.65.71,1.38,1.34,2.12,1.95.79.66,2.02.92,1.83,2.39-.03.24.51.6.82.84.63.49,1.48.82,1.92,1.44,1.49,2.11,3.26,3.95,5.29,5.51,2.13,1.64,3.56,3.83,5.08,5.94,2.34,3.25,4.51,6.62,6.87,9.85,3,4.11,6.13,8.13,9.2,12.19,3.2,4.23,6.36,8.49,9.59,12.7,1.72,2.24,3.55,4.41,5.33,6.61,2.56,3.17,5.11,6.34,7.68,9.5,1.5,1.85,3.17,3.57,4.54,5.51,2.66,3.75,5.16,7.62,7.72,11.44.11.17.18.38.31.53,1.49,1.79,3,3.57,4.47,5.37,1.07,1.31,2.07,2.69,3.16,3.99,1.16,1.4,2.19,3.01,3.62,4.05,2.26,1.64,3.49,4.04,5.24,6.05,1.2,1.38,2.21,2.94,3.42,4.32.65.75,1.66,1.14,1.54,2.45-.04.38.62.87,1.02,1.24.77.7,1.49,1.4,1.79,2.46.11.37.42.8.75.95,2.22.99,3.53,3.02,5.23,4.57,1.97,1.79,3.6,3.96,5.31,6.01.79.94,1.38,2.05,2.17,2.99.64.77,1.04,1.72,2.01,2.27.59.34.98,1.13,1.29,1.8.48,1.01,1.07,1.89,1.91,2.64,1.64,1.46,2.8,3.32,4.17,5,1.59,1.95,2.9,4.1,4.42,6.08.29.37.72.64,1.1.94,1.66,1.34,2.47,3.26,3.37,5.1.2.41.15.95.23,1.52-.06.09-.14.27-.28.38ZM618.29,119.8c-1.77.85-2.25,2.82-3.58,4.08-1.34,1.27-2.52,2.72-3.65,4.18-1.42,1.85-2.74,3.77-4.04,5.7-1.57,2.32-3.04,4.72-4.63,7.03-1.13,1.65-2.47,3.15-3.55,4.82-2.25,3.49-4.65,6.91-6.15,10.84-.26.69-.87,1.25-1.13,1.95-1.19,3.21-2.57,6.38-3.38,9.68-.94,3.86-2.45,7.55-3.3,11.42-.6,2.74-.96,5.54-1.51,8.29-.27,1.34-.72,2.65-1.09,3.98,0-1.3-.06-2.61.04-3.91.06-.88-.07-1.48-.98-1.77-.75-.24-1.1-.86-1.18-1.57-.12-1.09-.37-2.23-.16-3.27.86-4.37,2.06-8.66,3.85-12.76.35-.81.64-1.59,1.66-1.94.45-.15.76-.92,1-1.47,1.28-2.97,2.5-5.96,3.8-8.92.47-1.07,1.02-2.12,1.64-3.12.92-1.5,1.59-3.03,1.6-4.84,0-.58.27-1.21.57-1.73,1.09-1.9,2.18-3.81,3.75-5.4.66-.67,1.06-1.6,1.66-2.35,2.12-2.65,4.16-5.38,6.47-7.86,2.09-2.25,4.43-4.3,6.8-6.26.86-.71,1.57-1.48,2.28-2.31.93-1.09,1.94-2.11,2.93-3.14.07-.07.25-.04.38-.06,0,.19.02.37.01.56,0,.06-.05.15-.11.17ZM585.08,240.69c-1.3-1.42-.93-3.18-1.17-4.85-.26-1.87-.77-3.74-1.39-5.53-.79-2.3-1.21-4.58-1.08-7.05.09-1.82-.33-3.67-.62-5.49-.27-1.66-.2-3.28,0-4.94.17-1.38,0-2.81.02-4.21,0-1.15.08-2.3.08-3.45,0-1.1-.07-2.19-.06-3.29,0-.32.18-.65.32-.96.05-.11.2-.18.3-.27.11.15.31.28.33.44.06.62.09,1.24.07,1.86-.02.82-.09,1.65-.14,2.47-.03,0-.06,0-.09,0,0,2.53-.04,5.06.02,7.59.02,1.02.26,2.04.36,3.06.48,4.67.93,9.34,1.44,14.01.11,1.02.43,2.01.67,3.01.74,3.13,1.52,6.26,2.24,9.4.64,2.81,1.22,5.63,1.8,8.44.04.18-.05.39-.08.59-.15-.16-.38-.29-.44-.48-.49-1.49-.95-2.99-1.42-4.48-.18-.57-.36-1.14-.56-1.7-.38-1.09-.96-2.15-.56-3.38.08-.24.09-.63-.05-.78ZM582.27,191.94c.47,1.6.33,3.17-.09,4.76-.15.58-.13,1.2-.21,1.8-.02.16-.15.3-.23.45-.11-.15-.28-.29-.31-.46-.05-.33-.05-.67-.02-1,.17-1.62.36-3.24.56-4.85.03-.24.19-.47.29-.7ZM626.27,97.01c-.9.74-1.85,1.43-2.76,2.17-1.39,1.13-2.78,2.25-4.12,3.43-2.78,2.45-5.57,4.89-8.29,7.41-1.16,1.07-2.1,2.37-3.22,3.49-2.29,2.29-4.61,4.55-6.94,6.79-2.9,2.78-5.54,5.79-7.52,9.27-.75,1.32-1.36,2.69-2.45,3.78-.12.12-.05.69,0,.7,1.04.25.7.5.19,1.13-.8,1-1.31,2.23-2.03,3.3-.36.53-.59,1.44-1.7.95-.22-.1-.91.7-1.3,1.16-2.78,3.19-4.7,6.94-6.88,10.53-2.41,3.98-4.29,8.16-5.96,12.5-1.95,5.08-3.52,10.25-4.98,15.49-1.2,4.32-2.11,8.68-2.67,13.09-.54,4.22-.68,8.5-.86,12.76-.1,2.45-.06,4.93.14,7.37.29,3.57.71,7.13,1.19,10.68.46,3.34,1.03,6.67,1.64,9.99.48,2.64,1.02,5.28,1.66,7.89,1.22,4.94,2.39,9.9,3.85,14.76.96,3.21,2.51,6.24,3.61,9.41,1.74,5.03,3.91,9.87,6.2,14.65,1.55,3.23,3.24,6.4,4.91,9.57,2.93,5.54,6.42,10.74,9.81,15.99.92,1.43,1.64,3,2.45,4.51.06.12.13.27.1.38-.55,2.52,1.34,4.07,2.43,5.89,1.42,2.36,3.05,4.59,4.55,6.89.29.44.46.98.56,1.49.08.42.09,1.2-.09,1.27-.59.24-1.44.52-1.9.26-1.06-.6-2.18-1.34-2.86-2.32-1.3-1.86-3.16-3.11-4.61-4.77-2.03-2.32-3.78-4.89-5.67-7.34-.76-.98-1.44-2.05-2.33-2.9-2.51-2.4-4.2-5.41-6.19-8.18-2.69-3.74-5.15-7.65-7.47-11.63-2.18-3.73-4.11-7.6-6.06-11.46-1.7-3.39-3.36-6.8-4.87-10.27-1.15-2.64-2.1-5.38-3.06-8.1-.94-2.65-1.81-5.33-2.67-8.01-.25-.78-.35-1.6-.54-2.4-1.23-5.09-2.47-10.18-3.68-15.28-.14-.59-.11-1.22-.18-1.83-.39-3.35-.82-6.69-1.19-10.04-.44-3.97-.93-7.93-1.22-11.91-.21-2.8-.13-5.63-.16-8.44-.03-2.69-.11-5.38-.03-8.06.13-4.4.86-8.74,1.69-13.05.09-.47.14-.94.21-1.41.51-3.19,1.03-6.37,2.1-9.44,1.02-2.93,1.75-5.96,2.92-8.82,1.4-3.43,3.02-6.79,4.75-10.07,1.99-3.78,4.14-7.48,6.34-11.14,2.02-3.37,4.17-6.66,6.32-9.95.71-1.09,1.6-2.07,2.41-3.11.38-.49.79-.97,1.1-1.5.29-.5-.13-1.1-.62-.88-.55.25-.9.33-1.49.03-.28-.14-1.02.3-1.38.65-5.17,5.04-9.5,10.72-12.98,17.04-1.9,3.44-3.97,6.8-5.66,10.34-1.57,3.29-2.92,6.71-4.01,10.19-1.52,4.79-2.87,9.65-3.99,14.55-1.2,5.25-1.91,10.59-2.26,15.97-.07,1.1-.31,2.19-.38,3.29-.08,1.28-.05,2.56-.07,3.85-.1,6.7.06,13.38,1.08,20.02.17,1.09.2,2.21.42,3.29,1.04,5.14,2.06,10.28,3.22,15.39,1.03,4.5,2.19,8.96,3.4,13.42.56,2.06,1.32,4.07,2.07,6.07,1.11,2.97,2.23,5.94,3.44,8.87,1.45,3.5,2.94,6.99,4.51,10.44,2.39,5.26,4.91,10.46,8.11,15.31,1.56,2.35,2.9,4.84,4.43,7.22,2.12,3.29,4.32,6.54,6.5,9.79.96,1.43,1.97,2.81,2.92,4.25.22.33.24.78.35,1.18,1.28,1.48,2.6,2.91,3.81,4.44,1.01,1.27,1.89,2.64,2.79,4,.68,1.02,1.08,2.13,1.42,3.35.58,2.07.52,4.19.96,6.24.23,1.05.72,2.05,1.12,3.06.54,1.38,1.07,2.65-.1,4.1-.75.93-.89,2.18-.26,3.46,1.03,2.08.21,3.92-2.04,4.56-.64.18-1.48-.05-2.16-.3-.85-.31-1.6-.53-2.23.31-.45.61-.29,1.7.26,2.5,1.99,2.94,4.42,5.55,6.17,8.67.72,1.29,1.89,2.35,2.89,3.48,1.33,1.49,1.29,3.04-.15,4.43-.78.75-.93,1.86-.05,2.52,1.39,1.04,1.79,2.92,3.44,3.74.51.25.74,1.08,1.08,1.65.05.08.02.29-.04.33-.1.06-.27.07-.38.02-.36-.18-.79-.32-1.04-.61-2.49-2.9-5.35-5.41-8.18-7.97-.1-.09-.13-.23-.21-.35-1.04-1.56-2.07-3.13-3.14-4.67-.27-.39-.64-.72-.98-1.05-1.03-.98-2.32-1.8-3.06-2.97-.91-1.46-2.36-2.06-3.59-2.99-1.47-1.12-3.05-2.11-4.58-3.15-.11-.08-.3-.1-.35-.2-1.29-2.44-3.88-2.89-6.06-3.96-1.05-.52-2.17-.9-3.28-1.28-.27-.09-.66-.02-.93.11-.09.04-.1.55.02.73,2.12,3.19,2.8,7.14,5.38,10.08.31.36.51.82.72,1.26.76,1.57,1.43,3.18,3.1,4.11.47.26.73.97,1.02,1.5.83,1.5,1.65,3.01,2.43,4.53.54,1.06.39,1.28-.75,1.49-.47.09-.97.12-1.4.32-1.56.73-2.06,1.9-1.86,4.13.02.26-.01.53-.02.8-.23-.13-.48-.23-.67-.4-1.22-1.09-2.39-2.23-3.64-3.29-.67-.56-1.56-.88-2.18-1.48-2.35-2.29-4.7-4.6-6.93-7.01-1.99-2.16-3.78-4.52-5.72-6.72-2.72-3.09-5.6-6.03-8.22-9.2-1.3-1.58-2.55-3.2-3.95-4.71-1.86-2.02-3.73-4.04-5.55-6.1-1.04-1.18-2.01-2.44-2.99-3.68-2.07-2.65-4.16-5.3-6.18-7.98-1.24-1.65-2.36-3.39-3.58-5.05-1.3-1.78-2.73-3.46-3.99-5.27-2-2.89-3.91-5.84-5.85-8.77-1.36-2.06-2.69-4.14-4.09-6.17-2.27-3.29-4.59-6.55-6.11-10.29-.26-.63-.59-1.26-1.01-1.8-.59-.76-1.38-.56-1.69.37-.09.26-.26.59-.17.8.8,1.96.56,4.19,1.89,6.06,2.55,3.59,4.82,7.38,7.31,11.01,2.57,3.74,5.27,7.39,7.92,11.07,1.56,2.17,3.1,4.35,4.72,6.48,2.38,3.12,4.83,6.19,7.23,9.3,1.35,1.75,2.6,3.57,4,5.28,2.82,3.46,5.71,6.87,8.58,10.29,3.46,4.12,7.11,8.09,10.36,12.36,3.87,5.1,8.35,9.66,12.35,14.63,2.23,2.77,4.4,5.59,6.58,8.4,1.51,1.95,2.99,3.93,4.48,5.89.17.22.35.43.48.67.05.09.03.29-.04.37-.07.09-.25.17-.35.14-.19-.06-.4-.16-.52-.31-1.15-1.32-3.07-1.86-3.71-3.71-.1-.28-.51-.43-.77-.66-1.6-1.39-3.19-2.77-4.79-4.16-.16-.13-.46-.21-.49-.36-.47-2.15-2.64-2.58-3.92-3.91-.76-.79-1.42-1.68-2.13-2.52-.43-.52-.81-1.08-1.29-1.55-1.14-1.1-2.41-2.07-3.46-3.24-2.06-2.29-4.01-4.68-6.01-7.02-2.59-3.02-5.17-6.06-7.81-9.03-1.5-1.69-3.16-3.25-4.67-4.94-1.47-1.65-2.82-3.4-4.23-5.09-.57-.69-1.2-1.32-1.74-2.03-1.74-2.29-3.44-4.6-5.15-6.91-.16-.22-.22-.53-.42-.71-3.39-3-5.6-6.95-8.41-10.41-3.22-3.96-6.07-8.18-8.91-12.4-.72-1.07-1.6-2.03-2.4-3.04-.17-.21-.39-.41-.49-.65-1.19-2.99-3.46-5.29-5.09-7.99-2.54-4.19-5.05-8.39-7.49-12.64-2.19-3.82-4.22-7.73-6.4-11.55-1.82-3.18-3.31-6.49-4.64-9.89-1-2.56-2.04-5.1-3.05-7.66-.51-1.28-1-2.57-1.48-3.87-.38-1.03-.79-2.05-1.09-3.1-1.09-3.71-2.14-7.42-3.19-11.14-.48-1.72-.98-3.45-1.36-5.19-.5-2.29-.88-4.61-1.36-6.9-.44-2.09-1-4.15-1.43-6.25-.48-2.36-.99-4.72-1.26-7.11-.47-4.11-.79-8.24-1.11-12.36-.12-1.57-.02-3.16-.1-4.74-.31-5.67.13-11.3.78-16.91.33-2.87.47-5.83,1.3-8.57.83-2.73.55-5.58,1.49-8.27.91-2.6,1.35-5.35,2.2-7.97.78-2.42,1.84-4.75,2.77-7.13,2.03-5.15,4.71-9.98,7.48-14.76.9-1.54,2.04-2.95,3.11-4.39,2.02-2.71,4.06-5.41,6.12-8.1.33-.43.86-.69,1.2-1.11.32-.4.62-.9.69-1.39.07-.53-.34-.92-.93-.81-.97.19-1.73.65-2.35,1.51-1.24,1.73-2.63,3.37-3.96,5.03-.41.51-.55.46-.97-.14-.88-1.25-1.87-1.21-2.83.01-.85,1.08-1.6,2.24-2.4,3.37-.12.17-.18.41-.33.52-1.7,1.28-3.26,2.71-4.61,4.35-.07.08-.21.09-.32.14.05-.18.06-.38.16-.52.84-1.17,1.59-2.42,2.57-3.46.73-.77,1.04-1.63,1.12-2.59.08-.92-.54-1.36-1.47-1.2-1.27.21-2,1.12-2.23,2.19-.34,1.6-1.63,2.52-2.33,3.84-.06.1-.2.16-.3.24.01-.18-.02-.38.05-.53.33-.68.72-1.34,1.04-2.02.07-.15-.02-.38-.04-.57-.23.05-.56,0-.67.15-.85,1.08-1.71,2.15-2.45,3.31-2.15,3.37-4.26,6.77-5.91,10.43-.42.94-.97,1.83-1.52,2.71-.13.21-.52.26-.79.38-.04-.25-.21-.57-.12-.75,1.84-3.44,2.94-7.29,5.35-10.38,1.29-1.66,1.92-3.61,3.1-5.3,1.17-1.68,2.02-3.58,2.99-5.39.49-.9.8-1.93,1.44-2.7,1.51-1.84,1.28-3.93,1.05-6.02-.16-1.42.31-2.5,1.22-3.57,2-2.39,4.37-4.37,6.76-6.34,1-.83,1.34-1.79.84-2.66-.48-.83-1.94-1.2-2.98-.63-1.04.57-2.01,1.24-3.26,1.18-.43-.02-1.17-.09-1.22-.27-.12-.48-.14-1.22.16-1.54,1.63-1.75,2.78-3.91,4.77-5.33.33-.23.65-.53.87-.86.97-1.49.56-2.71-1.15-3.15-.85-.22-1.77-.16-2.66-.21-.4-.02-.83.09-1.2-.02-.5-.14-.87-.45-.4-1.05.89-1.14,1.73-2.32,2.66-3.43,1.41-1.7,2.66-3.44,3.17-5.66.58-2.54,2.14-4.48,4.44-5.67,1.14-.59,1.86-1.33,2.16-2.57.35-1.45,1.38-2.38,2.7-2.88,1.95-.74,3.69-1.83,5.44-2.93.8-.5,1.74-.79,2.57-1.26.68-.39,1.24-.92.95.52-.05.24.57.87.89.88.72.02,1.49-.14,2.17-.4,3.68-1.37,7.35-2.79,11.01-4.2.77-.3,1.54-.62,2.29-.98,1.86-.9,3.92-.7,5.87-1.14.14-.03.32.14.47.21-.12.15-.22.35-.37.43-2,1.1-4.06,2.1-5.99,3.31-1.21.76-2.24,1.82-3.33,2.78-.11.1-.17.43-.1.54.09.12.38.19.55.15.33-.07.66-.21.97-.36,2.19-1.08,4.59-1.48,6.93-2.04,1.27-.3,2.55-.61,3.83-.89.13-.03.32.13.44.25.03.03-.07.28-.17.33-.48.26-.97.51-1.47.72-1.39.58-2.81,1.08-4.17,1.72-.33.15-.48.7-.71,1.06.44.08.93.31,1.32.2,1.19-.36,2.34-.86,3.51-1.28,1.15-.41,2.25-1.52,3.54-.29.94-.19,1.88-.39,2.83-.54.15-.02.35.13.48.24.04.04-.02.29-.1.35-.83.55-1.3,1.6-2.56,1.56-.83-.02-1.44.35-1.86,1.31-.34.77-1.38,1.23-2.08,1.85-.12.1-.11.34-.16.52.13.03.27.1.39.09.62-.09,1.23-.23,1.84-.29.27-.03.55.11.83.17-.27.2-.55.58-.79.56-1.82-.2-2.11,1.5-3.03,2.39-.32.31.05.82.54.79.2-.01.42-.05.6-.13,2.28-.98,4.55-1.98,6.83-2.97,1.52-.66,3.05-1.3,4.58-1.95.38-.16.38-.16.81.57.03.06.08.1.13.15,1.14,1.33,1.16,1.35-.13,2.38-.7.56-1.48,1.01-2.2,1.55-.66.49-1.8.74-1,2.02.09.14-.34.71-.63.94-.54.43-1.2.71-1.73,1.15-.95.79-1.88,1.6-2.75,2.49-.47.48-.78,1.11-1.17,1.68.9.29,1.57-.25,2.27-.64.6-.34,1.16-.75,1.75-1.1.16-.1.38-.1.57-.15-.13.19-.23.42-.4.55-1.01.73-2.06,1.4-3.04,2.16-.25.19-.3.64-.45.97.39,0,.85.15,1.16,0,1.42-.7,2.8-1.49,4.21-2.23.1-.05.26.01.39.02-.02.17.02.38-.07.5-.16.22-.42.36-.6.57-.68.78-1.36,1.56-1.99,2.37-.17.22-.17.59-.25.88.33-.01.71.08.97-.05,1.48-.74,2.95-1.5,4.38-2.34,1.24-.73,2.41-1.58,3.63-2.35.15-.09.39-.04.58-.05-.08.16-.12.38-.24.47-1.03.7-2.07,1.38-3.11,2.07-.1.07-.14.23-.2.35.17.04.4.17.51.1,1.19-.7,2.37-1.43,3.55-2.15.41-.25.8-.66,1.24-.73,2.99-.49,5.15-2.58,7.72-3.89,2.95-1.5,5.87-3.05,8.85-4.48,3.11-1.49,6.27-2.88,9.42-4.3,2.76-1.24,5.54-2.47,8.32-3.68.2-.09.48,0,.73.01-.18.19-.32.46-.53.57-1.09.58-2.23,1.08-3.3,1.68-1.68.94-3.23,2.03-4.63,3.42-1.14,1.13-2.74,1.84-4.2,2.62-2.11,1.13-3.76,2.67-5.2,4.61-1.59,2.13-3.55,4.01-5.43,5.91-1.55,1.56-3.22,3.01-4.84,4.5-1.27,1.16-2.58,2.28-3.82,3.48-.34.33-.47.87-.7,1.31.51-.1,1.1-.06,1.5-.32,1.1-.71,2.15-1.51,3.17-2.33,2.21-1.78,4.45-3.43,7.14-4.53,2.09-.86,3.96-2.25,5.93-3.4,1.91-1.1,3.82-2.2,5.75-3.28,1.26-.71,2.55-1.38,3.83-2.05.29-.15.61-.24.91-.36-.13.28-.25.56-.39.83-.06.12-.18.22-.24.34-.27.56.03.85.53.74.94-.2,1.88-.44,2.76-.82,2.67-1.14,5.3-2.37,7.95-3.54.21-.09.49-.02.74-.03-.1.23-.13.53-.31.67-1.13.91-2.28,1.78-3.42,2.68-.15.12-.26.3-.38.46.24,0,.52.08.72-.02,1.48-.74,2.95-1.51,4.41-2.28.37-.19.71-.43,1.1-.58.21-.08.47-.03.72-.03-.1.17-.16.4-.3.51-.93.7-1.89,1.36-2.82,2.05-1.71,1.27-3.41,2.56-5.1,3.86-.13.1-.17.34-.19.52,0,.05.2.17.32.18.97.06,1.92.1,2.82-.44,1.13-.68,2.29-1.3,3.45-1.91.26-.14.59-.16.88-.23-.17.29-.28.64-.52.85-.94.8-1.97,1.5-2.86,2.34-1.2,1.13-2.31,2.36-3.44,3.56-.07.07-.09.28-.04.36.05.07.25.11.35.08,1.6-.59,3.17-1.14,4.68-2.05,3.64-2.22,7.41-4.25,11.23-6.15,2.76-1.37,5.33-3.06,8.04-4.5.24-.13.43-.38.68-.47.75-.29,1.52-.53,2.29-.79-.03,1.05-1.09,1.09-1.67,1.54-1.89,1.47-3.89,2.79-5.86,4.15-.51.35-1.05.67-1.61.94-2.66,1.31-5.34,2.59-8,3.89-.18.09-.36.2-.51.34-.09.09-.1.25-.15.37.17.06.39.22.51.16,1.12-.53,2.22-1.1,3.34-1.64.22-.1.48-.11.72-.16-.08.24-.09.56-.26.7-.85.71-1.73,1.37-2.61,2.04-.44.33-.91.63-1.33.98-.1.09-.09.32-.12.48.13-.02.28,0,.38-.05.53-.32,1.05-.65,1.58-.98.64-.41,1.26-.85,1.93-1.21.38-.2.84-.25,1.27-.36-.31.27-.63.52-.91.83-.15.16-.21.41-.3.62.26-.02.57.03.77-.08,2.35-1.3,4.68-2.63,7.01-3.96.18-.1.36-.25.55-.27.18-.02.43.03.55.15.07.07-.01.38-.12.51-1.08,1.26-2.14,2.54-3.28,3.74-.99,1.04-2.1,1.97-3.12,2.99-.59.58-2.03.84-.94,2.17-.56.78-1.02,1.68-1.71,2.32-1.06.99-2.03,2-2.75,3.28-.43.77-1.09,1.44-1.76,2.03-2.27,2.01-4.68,3.87-6.86,5.97-4.57,4.4-9.07,8.88-13.52,13.4-2.31,2.35-4.51,4.82-6.67,7.31-1.53,1.76-2.99,3.57-4.17,5.63-1.22,2.14-2.94,4-4.27,6.08-1.66,2.6-3.15,5.3-4.7,7.96-.38.65-.71,1.34-1.1,1.98-1.53,2.54-2.58,5.29-3.58,8.06-1.63,4.54-3.37,9.06-4.73,13.69-1.54,5.29-2.63,10.69-3.43,16.16-.85,5.76-.95,11.53-.95,17.31,0,2.28-.03,4.56.14,6.83.2,2.54.61,5.06.94,7.59.32,2.46.62,4.92,1,7.37.22,1.43.53,2.84.87,4.25.06.27.4.48.62.72.15-.27.44-.54.43-.8-.03-1.17-.16-2.34-.22-3.51-.1-1.86-.36-3.74-.21-5.58.32-4.01.01-7.96-.32-11.95-.29-3.43-.1-6.91-.15-10.36-.02-1.44.03-2.9-.17-4.31-.76-5.16.06-10.2,1.15-15.19.93-4.24,1.96-8.47,3.24-12.61,1.52-4.94,3.23-9.82,5.76-14.38.76-1.37,1.38-2.83,2.04-4.26,1.1-2.39,2.35-4.67,3.94-6.78,1.12-1.48,2.03-3.11,3.08-4.64,4.43-6.45,9.46-12.4,15.04-17.9,2.49-2.46,4.94-4.97,7.54-7.31,4.44-4.02,8.76-8.18,13.58-11.76.44-.33.79-.77,1.19-1.15.4-.38.76-.68,1.45-.53.44.1,1.19-.16,1.44-.51.78-1.12,2.07-1.41,3.09-2.12,1.08-.75,2.21-1.42,3.34-2.09.18-.11.45-.08.68-.12-.12.16-.22.35-.37.48-2.02,1.78-4.04,3.56-6.06,5.34-.2.18-.45.34-.59.56-.07.12,0,.38.08.54.03.07.27.12.36.07.31-.16.6-.34.87-.55,2.02-1.58,3.97-3.24,6.05-4.73,2.07-1.49,4.25-2.83,6.4-4.21.87-.56,1.75-1.11,2.67-1.58.58-.3,1.25-.44,1.87-.67.95-.37,1.89-.77,2.85-1.12.3-.11.65-.07.98-.1-.14.27-.25.55-.41.8-1.18,1.74-3.12,2.61-4.6,4.02-.79.75-1.82,1.25-1.22,2.7.12.29-.55,1.01-.97,1.41-.75.71-1.59,1.31-2.38,1.98-.26.22-.55.48-.66.78-.13.35-.24.95-.06,1.13.28.27.91.49,1.24.36,1.26-.51,2.49-1.14,3.68-1.8,1.02-.57,1.97-1.28,2.98-1.86.48-.28.96-.35.78.53-.12.59.33.5.65.36.69-.31,1.35-.69,2.05-1,.22-.1.5-.07.75-.1-.1.22-.14.52-.31.66ZM577.47,256.91c.03.09-.09.23-.13.34-.11-.06-.29-.09-.34-.18-.8-1.53-1.22-3.17-1.45-4.87,0-.06.19-.14.29-.22.1.07.27.13.3.23.46,1.56.9,3.13,1.34,4.7ZM568.26,198.5c.03-.38.26-.74.4-1.1.12.41.3.82.33,1.24.03.46-.1.94-.14,1.41-.1,1.35-.19,2.71-.29,4.07-.02.33-.08.66-.13.99-.11-.36-.31-.73-.33-1.09-.05-.95-.02-1.91-.02-2.86h.15c0-.88-.04-1.77.02-2.64ZM568.87,195.63c-.08-.1-.23-.2-.23-.3.05-2.14-.03-4.31,1.13-6.25-.19,2.07-.37,4.14-.58,6.2-.01.13-.21.24-.32.36ZM569.79,188.94c-.14-.3-.39-.62-.34-.88.69-3.98,1.11-8.02,2.7-11.79.02-.04.09-.06.15-.09.06.32.23.68.13.95-.68,1.99-.85,4.09-1.29,6.12-.42,1.9-.9,3.79-1.35,5.69ZM569.93,226.46c.01-.14.08-.28.12-.42.02.13.03.27.06.39.25,1,.57,1.98.74,2.99.48,2.76.95,5.52,1.31,8.3.08.58.86,1.13.19,1.79-.19-.63-.43-1.25-.55-1.89-.61-3.17-1.2-6.35-1.79-9.52-.06-.33-.09-.68-.09-.7,0-.52-.02-.73,0-.93ZM572.33,176.1c.34-2.36.98-4.63,1.9-6.82.06-.13.24-.22.37-.32.02.13.09.29.04.39-.93,2.05-1.2,4.29-1.88,6.41-.05.14-.27.23-.43.33ZM895.25-.9c.06-.1.12-.07.19-.02-.06,0-.12,0-.19.02Z" fill="#6cb476" stroke-width="0"/><path d="M548.91,467.51h0c.02-.05.01-.04,0,0Z" fill="#6cb476" stroke-width="0"/><path d="M489.24,140.84c-.25-.1-.76,0-.92.2-.61.74-1.26,1.51-1.66,2.37-.9,1.93-1.72,3.91-2.46,5.91-1.53,4.13-3.01,8.28-4.45,12.45-.49,1.41-.94,2.86-1.21,4.33-.4,2.22-.57,4.49-.94,6.72-.52,3.13-1.22,6.23-1.01,9.44.04.54-.11,1.09-.15,1.64-.18,2.46-.4,4.93-.51,7.4-.08,1.86-.02,3.72-.02,5.59.07,0,.13,0,.2,0,0,.76-.06,1.52.01,2.27.28,3.02.7,6.04.88,9.06.27,4.63,1.05,9.18,1.96,13.72.59,2.98,1.17,5.96,1.87,8.91.3,1.26.9,2.45,1.39,3.66.07.17.28.27.42.41.09-.16.22-.32.25-.5.03-.2-.05-.41-.03-.62.02-.19.1-.38.15-.56.1.15.24.28.29.44.25.93.48,1.87.72,2.81.48,1.87.95,3.75,1.46,5.61.06.23.32.41.49.61.07-.3.27-.62.2-.88-.36-1.33-.86-2.63-1.19-3.97-1.01-4-1.95-8.02-2.98-12.02-.23-.9-.44-1.72-.4-2.7.05-1.41-.22-2.89-.66-4.24-.73-2.25-.78-2.21-.7-4.66.03-.87-.04-1.88-.47-2.58-.56-.92.43-1.98-.29-2.58-.8-.67-.55-1.44-.68-2.19-.25-1.45.02-2.94-.34-4.4-.17-.72-.04-1.51-.03-2.27,0-.26.07-.52.11-.77.17.07.35.15.52.22.02-.27.06-.55.06-.82,0-2.07.07-4.15,0-6.22-.07-1.63.43-3.32-.43-4.89-.08-.14-.03-.43.07-.59,1.23-2.08.69-4.47,1.17-6.67.13-.59.08-1.26-.04-1.86-.5-2.48-.4-3.09.92-5.56.25-.47.45-1.05.44-1.58-.06-3.54.84-6.93,1.74-10.29.89-3.32,2-6.58,3.06-9.86.46-1.44.97-2.87,1.54-4.26.49-1.2,1.14-2.34,1.66-3.53.27-.62.48-1.28.57-1.94.03-.24-.3-.67-.56-.77Z" fill="#6cb476" stroke-width="0"/><path d="M545.31,204.29c-.04-.48,0-.98-.14-1.43-.08-.26-.43-.44-.65-.65-.19.24-.52.48-.53.73-.05,1.3-.03,2.61-.03,3.92h.03c0,1.31-.11,2.63.02,3.92.31,3.14.69,6.28,1.12,9.41.18,1.29.52,2.55.84,3.81.07.29.34.53.52.8.13-.27.38-.54.38-.81.01-1.17,0-2.34-.09-3.5-.47-5.4-.98-10.8-1.47-16.2Z" fill="#6cb476" stroke-width="0"/><path d="M558.51,277.82c.52.89,1.08,1.75,1.62,2.62.98,2.02,1.96,4.04,2.96,6.04.07.14.32.2.48.29.05-.23.21-.52.13-.67-1.1-1.96-2.23-3.9-3.35-5.85-1.16-2.94-2.25-5.9-3.48-8.81-1.46-3.48-3.03-6.91-4.57-10.35-.32-.72-.75-1.4-1.13-2.09-.71.86-.07,1.65.18,2.42,1.9,5.68,4.12,11.22,7.16,16.4Z" fill="#6cb476" stroke-width="0"/><path d="M586.62,312.47c-2.65-3.52-5.27-7.06-7.93-10.58-.37-.48-.85-.88-1.3-1.29-.06-.05-.28,0-.36.07-.09.07-.17.26-.14.35.11.25.27.47.43.7,2.24,3.23,4.43,6.48,6.72,9.67,1.65,2.29,3.41,4.5,5.14,6.74.29.38.66.7,1.01,1.03.08.07.32.1.37.04.12-.13.28-.38.22-.49-.27-.56-.59-1.09-.9-1.62-.45-.76-.91-1.52-1.36-2.27l.04.04h0s0,0,0,0c0,0,0,0,0,0-.64-.79-1.31-1.56-1.93-2.37Z" fill="#6cb476" stroke-width="0"/><path d="M511.67,336.93c.11.09.36.03.54.04,0-.19.05-.42-.03-.55-1.25-1.96-2.51-3.92-3.8-5.85-.18-.27-.51-.44-.92-.79-.13.3-.32.53-.28.7.66,2.73,2.47,4.68,4.5,6.46Z" fill="#6cb476" stroke-width="0"/><path d="M553.76,473.8c-.92-1.2-1.83-2.41-2.76-3.6-.12-.15-.33-.23-.5-.34-.02.25-.14.55-.04.75.2.42.51.79.79,1.17.76,1.05,1.5,2.11,2.29,3.13.55.7,1.15,1.36,1.76,2.01.08.09.34.01.57.01-.1-.28-.14-.5-.25-.66-.61-.83-1.24-1.65-1.86-2.47Z" fill="#6cb476" stroke-width="0"/></svg>