<?xml version="1.0" encoding="UTF-8"?><svg id="uuid-ca584117-1e48-4f57-ab33-874d6e248c0e" xmlns="http://www.w3.org/2000/svg" width="900" height="750" xmlns:xlink="http://www.w3.org/1999/xlink" viewBox="0 0 900 750"><defs><pattern id="uuid-f0c700c1-e787-49cd-810f-38c292b8f18b" x="0" y="0" width="600" height="600" patternTransform="translate(-2300 -2310)" patternUnits="userSpaceOnUse" viewBox="0 0 600 600"><rect width="600" height="600" fill="none" stroke-width="0"/><path d="M420.83,448.74c-12.06,5.98-22.72,14.51-30.9,25.19-1.6,2.08-3.06,4.21-4.27,6.31-.3.36-.54.79-.9,1.06-4.31,3.22-8.14,6.92-10.6,11.76-.91,1.78-1.74,3.87-1.7,5.8.05,2.53-1.04,3.24-3.13,3.45-1.88.18-3.8.19-5.62.61-3.78.88-5.85,3.92-8.04,6.77-1.64,2.14-2.98,5.23-5.16,6.09-5.13,2.01-8.42,5.77-11.39,9.88-3.61,4.99-8.4,9.46-9.16,15.99-.67,5.79-2.22,11.96,1.23,17.23,3.52,5.38,7.96,10.16,11.9,15.28,2.92,3.8,6.86,7.35,8.22,11.69,1.69,5.38,3.37,10.54,6.65,15.11,2.36,1.83,5.88,4.55,8.25,6.38,1.71.68,3.41,1.37,5.16,1.9,6.17,1.86,12.49,3.3,17.69,7.47,6.96,5.58,16.87,4.68,22.87-2.11,2.95-3.33,5.68-6.86,8.66-10.16.7-.78,2.04-1.51,3.01-1.43,2.61.21,4.15-1.1,5.71-2.84,1.2-1.34,2.48-3.14,4.03-3.53,6.14-1.54,6.88-6.09,7.07-11.22.04-1.14.23-2.46.84-3.37,2.4-3.59,6.31-5.14,10.23-5.45,8.73-.68,13.52-6.14,16.64-13.25,2.94-6.7,6.84-12.47,13.01-16.3,4.19-2.6,8.73-5.5,13.42-6.21,7.88-1.19,14.33-4.71,20.25-9.42,3.37-2.68,6.07-6.22,9.05-9.39,5.05-5.37,9.98-10.84,15.13-16.11,8.6-8.79,6.99-22.58,2.58-29.65-5.26-8.44-11.95-16.11-18.8-23.39-5.58-5.94-12.21-10.92-18.57-16.08-2.66-2.15-5.65-4.17-8.82-5.36-6.55-2.46-13.05.14-19.53,1.13-3.82.58-19.81,3.43-35.72,8.08-4.91,1.44-9.67,3.34-14.25,5.61l-5.02,2.49ZM399.75,492.52c-.3.25-.69.49-1.06.52-.99.09-1.99.07-2.98.09.59-.6,1.27-1.13,1.76-1.8,2.84-3.83,5.53-7.78,8.48-11.52,2.31-2.92,5.6-4.01,9.28-3.95.27,0,.78.27.77.34-.08.43-.19.92-.46,1.25-1.09,1.36-2.25,2.68-3.38,4.01.13.16.26.33.39.49-4.27,3.53-8.53,7.06-12.81,10.57Z" fill="#882461" stroke-width="0"/><path d="M696.68,685.14c-5.99,10.21-19,17.18-29.66,14.31-3.16-.85-5.73-4.19-8.39-6.59-3.47-3.13-6.65-6.58-10.14-9.67-13.54-11.96-27.56-23.18-43.28-32.33-9.23-5.36-17.48-12.41-26.19-18.68-4.78-3.44-9.96-6.44-14.3-10.36-7.88-7.14-14.89-15.26-22.97-22.14-6.45-5.49-13.77-10.02-21.02-14.47-6.2-3.8-9.73-14.67-6.55-21.09,1.45-2.92,1.77-6.4,3.11-9.39,1.9-4.24,3.79-8.65,6.6-12.28,2.25-2.9,5.83-4.79,8.88-7.05,4.22-3.15,7.92-2.19,11.5,1.32,7.49,7.34,14.98,14.69,22.72,21.75,3.91,3.57,8.38,6.52,12.62,9.73,7.03,5.32,13.95,10.82,21.19,15.84,3.23,2.24,7.27,3.26,10.7,5.26,9.27,5.43,16.8,12.89,24.27,20.55,6.27,6.43,13.43,12.01,20.33,17.81,6.17,5.17,12.35,10.36,18.85,15.09,4.76,3.45,9.83,6.68,15.18,9.07,7.25,3.25,9.91,9.2,9.79,16.13-.1,5.74-2.09,11.45-3.24,17.18Z" fill="#bb215b" stroke-width="0"/><path d="M120.83,448.74c-12.06,5.98-22.72,14.51-30.9,25.19-1.6,2.08-3.06,4.21-4.27,6.31-.3.36-.54.79-.9,1.06-4.31,3.22-8.14,6.92-10.6,11.76-.91,1.78-1.74,3.87-1.7,5.8.05,2.53-1.04,3.24-3.13,3.45-1.88.18-3.8.19-5.62.61-3.78.88-5.85,3.92-8.04,6.77-1.64,2.14-2.98,5.23-5.16,6.09-5.13,2.01-8.42,5.77-11.39,9.88-3.61,4.99-8.4,9.46-9.16,15.99-.67,5.79-2.22,11.96,1.23,17.23,3.52,5.38,7.96,10.16,11.9,15.28,2.92,3.8,6.86,7.35,8.22,11.69,1.69,5.38,3.37,10.54,6.65,15.11,2.36,1.83,5.88,4.55,8.25,6.38,1.71.68,3.41,1.37,5.16,1.9,6.17,1.86,12.49,3.3,17.69,7.47,6.96,5.58,16.87,4.68,22.87-2.11,2.95-3.33,5.68-6.86,8.66-10.16.7-.78,2.04-1.51,3.01-1.43,2.61.21,4.15-1.1,5.71-2.84,1.2-1.34,2.48-3.14,4.03-3.53,6.14-1.54,6.88-6.09,7.07-11.22.04-1.14.23-2.46.84-3.37,2.4-3.59,6.31-5.14,10.23-5.45,8.73-.68,13.52-6.14,16.64-13.25,2.94-6.7,6.84-12.47,13.01-16.3,4.19-2.6,8.73-5.5,13.42-6.21,7.88-1.19,14.33-4.71,20.25-9.42,3.37-2.68,6.07-6.22,9.05-9.39,5.05-5.37,9.98-10.84,15.13-16.11,8.6-8.79,6.99-22.58,2.58-29.65-5.26-8.44-11.95-16.11-18.8-23.39-5.58-5.94-12.21-10.92-18.57-16.08-2.66-2.15-5.65-4.17-8.82-5.36-6.55-2.46-13.05.14-19.53,1.13-3.82.58-19.81,3.43-35.72,8.08-4.91,1.44-9.67,3.34-14.25,5.61l-5.02,2.49ZM99.75,492.52c-.3.25-.69.49-1.06.52-.99.09-1.99.07-2.98.09.59-.6,1.27-1.13,1.76-1.8,2.84-3.83,5.53-7.78,8.48-11.52,2.31-2.92,5.6-4.01,9.28-3.95.27,0,.78.27.77.34-.08.43-.19.92-.46,1.25-1.09,1.36-2.25,2.68-3.38,4.01.13.16.26.33.39.49-4.27,3.53-8.53,7.06-12.81,10.57Z" fill="#882461" stroke-width="0"/><path d="M396.68,685.14c-5.99,10.21-19,17.18-29.66,14.31-3.16-.85-5.73-4.19-8.39-6.59-3.47-3.13-6.65-6.58-10.14-9.67-13.54-11.96-27.56-23.18-43.28-32.33-9.23-5.36-17.48-12.41-26.19-18.68-4.78-3.44-9.96-6.44-14.3-10.36-7.88-7.14-14.89-15.26-22.97-22.14-6.45-5.49-13.77-10.02-21.02-14.47-6.2-3.8-9.73-14.67-6.55-21.09,1.45-2.92,1.77-6.4,3.11-9.39,1.9-4.24,3.79-8.65,6.6-12.28,2.25-2.9,5.83-4.79,8.88-7.05,4.22-3.15,7.92-2.19,11.5,1.32,7.49,7.34,14.98,14.69,22.72,21.75,3.91,3.57,8.38,6.52,12.62,9.73,7.03,5.32,13.95,10.82,21.19,15.84,3.23,2.24,7.27,3.26,10.7,5.26,9.27,5.43,16.8,12.89,24.27,20.55,6.27,6.43,13.43,12.01,20.33,17.81,6.17,5.17,12.35,10.36,18.85,15.09,4.76,3.45,9.83,6.68,15.18,9.07,7.25,3.25,9.91,9.2,9.79,16.13-.1,5.74-2.09,11.45-3.24,17.18Z" fill="#bb215b" stroke-width="0"/><path d="M96.68,685.14c-5.99,10.21-19,17.18-29.66,14.31-3.16-.85-5.73-4.19-8.39-6.59-3.47-3.13-6.65-6.58-10.14-9.67-13.54-11.96-27.56-23.18-43.28-32.33-9.23-5.36-17.48-12.41-26.19-18.68-4.78-3.44-9.96-6.44-14.3-10.36-7.88-7.14-14.89-15.26-22.97-22.14-6.45-5.49-13.77-10.02-21.02-14.47-6.2-3.8-9.73-14.67-6.55-21.09,1.45-2.92,1.77-6.4,3.11-9.39,1.9-4.24,3.79-8.65,6.6-12.28,2.25-2.9,5.83-4.79,8.88-7.05,4.22-3.15,7.92-2.19,11.5,1.32,7.49,7.34,14.98,14.69,22.72,21.75,3.91,3.57,8.38,6.52,12.62,9.73,7.03,5.32,13.95,10.82,21.19,15.84,3.23,2.24,7.27,3.26,10.7,5.26,9.27,5.43,16.8,12.89,24.27,20.55,6.27,6.43,13.43,12.01,20.33,17.81,6.17,5.17,12.35,10.36,18.85,15.09,4.76,3.45,9.83,6.68,15.18,9.07,7.25,3.25,9.91,9.2,9.79,16.13-.1,5.74-2.09,11.45-3.24,17.18Z" fill="#bb215b" stroke-width="0"/><path d="M570.83,148.74c-12.06,5.98-22.72,14.51-30.9,25.19-1.6,2.08-3.06,4.21-4.27,6.31-.3.36-.54.79-.9,1.06-4.31,3.22-8.14,6.92-10.6,11.76-.91,1.78-1.74,3.87-1.7,5.8.05,2.53-1.04,3.24-3.13,3.45-1.88.18-3.8.19-5.62.61-3.78.88-5.85,3.92-8.04,6.77-1.64,2.14-2.98,5.23-5.16,6.09-5.13,2.01-8.42,5.77-11.39,9.88-3.61,4.99-8.4,9.46-9.16,15.99-.67,5.79-2.22,11.96,1.23,17.23,3.52,5.38,7.96,10.16,11.9,15.28,2.92,3.8,6.86,7.35,8.22,11.69,1.69,5.38,3.37,10.54,6.65,15.11,2.36,1.83,5.88,4.55,8.25,6.38,1.71.68,3.41,1.37,5.16,1.9,6.17,1.86,12.49,3.3,17.69,7.47,6.96,5.58,16.87,4.68,22.87-2.11,2.95-3.33,5.68-6.86,8.66-10.16.7-.78,2.04-1.51,3.01-1.43,2.61.21,4.15-1.1,5.71-2.84,1.2-1.34,2.48-3.14,4.03-3.53,6.14-1.54,6.88-6.09,7.07-11.22.04-1.14.23-2.46.84-3.37,2.4-3.59,6.31-5.14,10.23-5.45,8.73-.68,13.52-6.14,16.64-13.25,2.94-6.7,6.84-12.47,13.01-16.3,4.19-2.6,8.73-5.5,13.42-6.21,7.88-1.19,14.33-4.71,20.25-9.42,3.37-2.68,6.07-6.22,9.05-9.39,5.05-5.37,9.98-10.84,15.13-16.11,8.6-8.79,6.99-22.58,2.58-29.65-5.26-8.44-11.95-16.11-18.8-23.39-5.58-5.94-12.21-10.92-18.57-16.08-2.66-2.15-5.65-4.17-8.82-5.36-6.55-2.46-13.05.14-19.53,1.13-3.82.58-19.81,3.43-35.72,8.08-4.91,1.44-9.67,3.34-14.25,5.61l-5.02,2.49ZM549.75,192.52c-.3.25-.69.49-1.06.52-.99.09-1.99.07-2.98.09.59-.6,1.27-1.13,1.76-1.8,2.84-3.83,5.53-7.78,8.48-11.52,2.31-2.92,5.6-4.01,9.28-3.95.27,0,.78.27.77.34-.08.43-.19.92-.46,1.25-1.09,1.36-2.25,2.68-3.38,4.01.13.16.26.33.39.49-4.27,3.53-8.53,7.06-12.81,10.57Z" fill="#882461" stroke-width="0"/><path d="M718.45,397.36c2.71-10.55,3.04-21.59.78-32.24-2.72-12.79-7.2-21.24-12.42-24.08-3.73-2.02-6.89-5.07-10.33-7.63-1.08-.81-2.1-1.87-3.32-2.27-6.26-2.05-12.56-4.01-18.89-5.82-2.64-.75-5.41-1.41-8.12-1.41-2.17,0-3.61-.22-4.95-2.14-1.71-2.45-4.37-3.44-7.38-2.95-1.55.25-2.58.17-3.51-1.47-.49-.86-2.34-1.47-3.43-1.3-.96.14-2.25,1.44-2.43,2.41-.18.95.87,2.13,1.36,3.21.45,1,1.34,2.06,1.25,3.01-.42,4.31,2.05,7.66,6.45,8.54.75.15,1.65.73,2.01,1.38,1.62,2.87.12,7.1-2.94,8.11-1.55.51-3.29.46-4.94.69-3.8.54-7.77.56-11.34,1.78-5.66,1.94-11.88-.18-14.85-5.38-4.43-7.74-11.42-11.2-19.9-11.63-10.05-.51-19.06,10.09-18.15,20.25.17,1.91-1.22,4.21-2.45,5.94-3.02,4.24-6.63,8.08-9.46,12.43-1.77,2.71-2.31,6.18-3.84,9.08-4.48,8.46-9,16.91-13.83,25.18-4.55,7.79-4.78,17.1-9.92,24.86-3.48,5.25-4.55,12.15-3.24,18.88.27,1.39,0,2.88.24,4.27.86,4.9,1.75,9.8,2.8,14.67.43,1.99,1.28,3.88,1.99,5.8,1.51,4.14,3.49,8.18,4.47,12.44,1.29,5.6,1.48,11.46,2.74,17.07,1.66,7.41,3.91,14.37,8.94,20.73,7.12,9,15.75,11.6,26.41,10.65,3.06-.27,6.16-.04,9.11.83,5.75,1.69,8.07,1.18,11.57-3.43,2.9-3.82,5.92-7.55,9.04-11.19,1.28-1.49,3.35-2.37,4.39-3.97,5.56-8.54,13.4-14.19,22.45-18.39,5.85-2.72,10.8-6.63,14.76-11.68,3.87-4.94,7.93-9.81,11.09-15.19,2.05-3.49,4.73-5.24,8.18-6.68,3.8-1.58,7.44-3.52,11.16-5.29.35-.17,15.21-28.83,22.41-42.45,2.62-4.96,4.65-10.2,6.04-15.63h0Z" fill="#7d2b8b" stroke-width="0"/><path d="M270.83,148.74c-12.06,5.98-22.72,14.51-30.9,25.19-1.6,2.08-3.06,4.21-4.27,6.31-.3.36-.54.79-.9,1.06-4.31,3.22-8.14,6.92-10.6,11.76-.91,1.78-1.74,3.87-1.7,5.8.05,2.53-1.04,3.24-3.13,3.45-1.88.18-3.8.19-5.62.61-3.78.88-5.85,3.92-8.04,6.77-1.64,2.14-2.98,5.23-5.16,6.09-5.13,2.01-8.42,5.77-11.39,9.88-3.61,4.99-8.4,9.46-9.16,15.99-.67,5.79-2.22,11.96,1.23,17.23,3.52,5.38,7.96,10.16,11.9,15.28,2.92,3.8,6.86,7.35,8.22,11.69,1.69,5.38,3.37,10.54,6.65,15.11,2.36,1.83,5.88,4.55,8.25,6.38,1.71.68,3.41,1.37,5.16,1.9,6.17,1.86,12.49,3.3,17.69,7.47,6.96,5.58,16.87,4.68,22.87-2.11,2.95-3.33,5.68-6.86,8.66-10.16.7-.78,2.04-1.51,3.01-1.43,2.61.21,4.15-1.1,5.71-2.84,1.2-1.34,2.48-3.14,4.03-3.53,6.14-1.54,6.88-6.09,7.07-11.22.04-1.14.23-2.46.84-3.37,2.4-3.59,6.31-5.14,10.23-5.45,8.73-.68,13.52-6.14,16.64-13.25,2.94-6.7,6.84-12.47,13.01-16.3,4.19-2.6,8.73-5.5,13.42-6.21,7.88-1.19,14.33-4.71,20.25-9.42,3.37-2.68,6.07-6.22,9.05-9.39,5.05-5.37,9.98-10.84,15.13-16.11,8.6-8.79,6.99-22.58,2.58-29.65-5.26-8.44-11.95-16.11-18.8-23.39-5.58-5.94-12.21-10.92-18.57-16.08-2.66-2.15-5.65-4.17-8.82-5.36-6.55-2.46-13.05.14-19.53,1.13-3.82.58-19.81,3.43-35.72,8.08-4.91,1.44-9.67,3.34-14.25,5.61l-5.02,2.49ZM249.75,192.52c-.3.25-.69.49-1.06.52-.99.09-1.99.07-2.98.09.59-.6,1.27-1.13,1.76-1.8,2.84-3.83,5.53-7.78,8.48-11.52,2.31-2.92,5.6-4.01,9.28-3.95.27,0,.78.27.77.34-.08.43-.19.92-.46,1.25-1.09,1.36-2.25,2.68-3.38,4.01.13.16.26.33.39.49-4.27,3.53-8.53,7.06-12.81,10.57Z" fill="#882461" stroke-width="0"/><path d="M418.45,397.36c2.71-10.55,3.04-21.59.78-32.24-2.72-12.79-7.2-21.24-12.42-24.08-3.73-2.02-6.89-5.07-10.33-7.63-1.08-.81-2.1-1.87-3.32-2.27-6.26-2.05-12.56-4.01-18.89-5.82-2.64-.75-5.41-1.41-8.12-1.41-2.17,0-3.61-.22-4.95-2.14-1.71-2.45-4.37-3.44-7.38-2.95-1.55.25-2.58.17-3.51-1.47-.49-.86-2.34-1.47-3.43-1.3-.96.14-2.25,1.44-2.43,2.41-.18.95.87,2.13,1.36,3.21.45,1,1.34,2.06,1.25,3.01-.42,4.31,2.05,7.66,6.45,8.54.75.15,1.65.73,2.01,1.38,1.62,2.87.12,7.1-2.94,8.11-1.55.51-3.29.46-4.94.69-3.8.54-7.77.56-11.34,1.78-5.66,1.94-11.88-.18-14.85-5.38-4.43-7.74-11.42-11.2-19.9-11.63-10.05-.51-19.06,10.09-18.15,20.25.17,1.91-1.22,4.21-2.45,5.94-3.02,4.24-6.63,8.08-9.46,12.43-1.77,2.71-2.31,6.18-3.84,9.08-4.48,8.46-9,16.91-13.83,25.18-4.55,7.79-4.78,17.1-9.92,24.86-3.48,5.25-4.55,12.15-3.24,18.88.27,1.39,0,2.88.24,4.27.86,4.9,1.75,9.8,2.8,14.67.43,1.99,1.28,3.88,1.99,5.8,1.51,4.14,3.49,8.18,4.47,12.44,1.29,5.6,1.48,11.46,2.74,17.07,1.66,7.41,3.91,14.37,8.94,20.73,7.12,9,15.75,11.6,26.41,10.65,3.06-.27,6.16-.04,9.11.83,5.75,1.69,8.07,1.18,11.57-3.43,2.9-3.82,5.92-7.55,9.04-11.19,1.28-1.49,3.35-2.37,4.39-3.97,5.56-8.54,13.4-14.19,22.45-18.39,5.85-2.72,10.8-6.63,14.76-11.68,3.87-4.94,7.93-9.81,11.09-15.19,2.05-3.49,4.73-5.24,8.18-6.68,3.8-1.58,7.44-3.52,11.16-5.29.35-.17,15.21-28.83,22.41-42.45,2.62-4.96,4.65-10.2,6.04-15.63h0Z" fill="#7d2b8b" stroke-width="0"/><path d="M546.68,385.14c-5.99,10.21-19,17.18-29.66,14.31-3.16-.85-5.73-4.19-8.39-6.59-3.47-3.13-6.65-6.58-10.14-9.67-13.54-11.96-27.56-23.18-43.28-32.33-9.23-5.36-17.48-12.41-26.19-18.68-4.78-3.44-9.96-6.44-14.3-10.36-7.88-7.14-14.89-15.26-22.97-22.14-6.45-5.49-13.77-10.02-21.02-14.47-6.2-3.8-9.73-14.67-6.55-21.09,1.45-2.92,1.77-6.4,3.11-9.39,1.9-4.24,3.79-8.65,6.6-12.28,2.25-2.9,5.83-4.79,8.88-7.05,4.22-3.15,7.92-2.19,11.5,1.32,7.49,7.34,14.98,14.69,22.72,21.75,3.91,3.57,8.38,6.52,12.62,9.73,7.03,5.32,13.95,10.82,21.19,15.84,3.23,2.24,7.27,3.26,10.7,5.26,9.27,5.43,16.8,12.89,24.27,20.55,6.27,6.43,13.43,12.01,20.33,17.81,6.17,5.17,12.35,10.36,18.85,15.09,4.76,3.45,9.83,6.68,15.18,9.07,7.25,3.25,9.91,9.2,9.79,16.13-.1,5.74-2.09,11.45-3.24,17.18Z" fill="#bb215b" stroke-width="0"/><path d="M-29.17,148.74c-12.06,5.98-22.72,14.51-30.9,25.19-1.6,2.08-3.06,4.21-4.27,6.31-.3.36-.54.79-.9,1.06-4.31,3.22-8.14,6.92-10.6,11.76-.91,1.78-1.74,3.87-1.7,5.8.05,2.53-1.04,3.24-3.13,3.45-1.88.18-3.8.19-5.62.61-3.78.88-5.85,3.92-8.04,6.77-1.64,2.14-2.98,5.23-5.16,6.09-5.13,2.01-8.42,5.77-11.39,9.88-3.61,4.99-8.4,9.46-9.16,15.99-.67,5.79-2.22,11.96,1.23,17.23,3.52,5.38,7.96,10.16,11.9,15.28,2.92,3.8,6.86,7.35,8.22,11.69,1.69,5.38,3.37,10.54,6.65,15.11,2.36,1.83,5.88,4.55,8.25,6.38,1.71.68,3.41,1.37,5.16,1.9,6.17,1.86,12.49,3.3,17.69,7.47,6.96,5.58,16.87,4.68,22.87-2.11,2.95-3.33,5.68-6.86,8.66-10.16.7-.78,2.04-1.51,3.01-1.43,2.61.21,4.15-1.1,5.71-2.84,1.2-1.34,2.48-3.14,4.03-3.53,6.14-1.54,6.88-6.09,7.07-11.22.04-1.14.23-2.46.84-3.37,2.4-3.59,6.31-5.14,10.23-5.45,8.73-.68,13.52-6.14,16.64-13.25,2.94-6.7,6.84-12.47,13.01-16.3,4.19-2.6,8.73-5.5,13.42-6.21,7.88-1.19,14.33-4.71,20.25-9.42,3.37-2.68,6.07-6.22,9.05-9.39,5.05-5.37,9.98-10.84,15.13-16.11,8.6-8.79,6.99-22.58,2.58-29.65-5.26-8.44-11.95-16.11-18.8-23.39-5.58-5.94-12.21-10.92-18.57-16.08-2.66-2.15-5.65-4.17-8.82-5.36-6.55-2.46-13.05.14-19.53,1.13-3.82.58-19.81,3.43-35.72,8.08-4.91,1.44-9.67,3.34-14.25,5.61l-5.02,2.49ZM-50.25,192.52c-.3.25-.69.49-1.06.52-.99.09-1.99.07-2.98.09.59-.6,1.27-1.13,1.76-1.8,2.84-3.83,5.53-7.78,8.48-11.52,2.31-2.92,5.6-4.01,9.28-3.95.27,0,.78.27.77.34-.08.43-.19.92-.46,1.25-1.09,1.36-2.25,2.68-3.38,4.01.13.16.26.33.39.49-4.27,3.53-8.53,7.06-12.81,10.57Z" fill="#882461" stroke-width="0"/><path d="M118.45,397.36c2.71-10.55,3.04-21.59.78-32.24-2.72-12.79-7.2-21.24-12.42-24.08-3.73-2.02-6.89-5.07-10.33-7.63-1.08-.81-2.1-1.87-3.32-2.27-6.26-2.05-12.56-4.01-18.89-5.82-2.64-.75-5.41-1.41-8.12-1.41-2.17,0-3.61-.22-4.95-2.14-1.71-2.45-4.37-3.44-7.38-2.95-1.55.25-2.58.17-3.51-1.47-.49-.86-2.34-1.47-3.43-1.3-.96.14-2.25,1.44-2.43,2.41-.18.95.87,2.13,1.36,3.21.45,1,1.34,2.06,1.25,3.01-.42,4.31,2.05,7.66,6.45,8.54.75.15,1.65.73,2.01,1.38,1.62,2.87.12,7.1-2.94,8.11-1.55.51-3.29.46-4.94.69-3.8.54-7.77.56-11.34,1.78-5.66,1.94-11.88-.18-14.85-5.38-4.43-7.74-11.42-11.2-19.9-11.63-10.05-.51-19.06,10.09-18.15,20.25.17,1.91-1.22,4.21-2.45,5.94-3.02,4.24-6.63,8.08-9.46,12.43-1.77,2.71-2.31,6.18-3.84,9.08-4.48,8.46-9,16.91-13.83,25.18-4.55,7.79-4.78,17.1-9.92,24.86-3.48,5.25-4.55,12.15-3.24,18.88.27,1.39,0,2.88.24,4.27.86,4.9,1.75,9.8,2.8,14.67.43,1.99,1.28,3.88,1.99,5.8,1.51,4.14,3.49,8.18,4.47,12.44,1.29,5.6,1.48,11.46,2.74,17.07,1.66,7.41,3.91,14.37,8.94,20.73,7.12,9,15.75,11.6,26.41,10.65,3.06-.27,6.16-.04,9.11.83,5.75,1.69,8.07,1.18,11.57-3.43,2.9-3.82,5.92-7.55,9.04-11.19,1.28-1.49,3.35-2.37,4.39-3.97,5.56-8.54,13.4-14.19,22.45-18.39,5.85-2.72,10.8-6.63,14.76-11.68,3.87-4.94,7.93-9.81,11.09-15.19,2.05-3.49,4.73-5.24,8.18-6.68,3.8-1.58,7.44-3.52,11.16-5.29.35-.17,15.21-28.83,22.41-42.45,2.62-4.96,4.65-10.2,6.04-15.63h0Z" fill="#7d2b8b" stroke-width="0"/><path d="M246.68,385.14c-5.99,10.21-19,17.18-29.66,14.31-3.16-.85-5.73-4.19-8.39-6.59-3.47-3.13-6.65-6.58-10.14-9.67-13.54-11.96-27.56-23.18-43.28-32.33-9.23-5.36-17.48-12.41-26.19-18.68-4.78-3.44-9.96-6.44-14.3-10.36-7.88-7.14-14.89-15.26-22.97-22.14-6.45-5.49-13.77-10.02-21.02-14.47-6.2-3.8-9.73-14.67-6.55-21.09,1.45-2.92,1.77-6.4,3.11-9.39,1.9-4.24,3.79-8.65,6.6-12.28,2.25-2.9,5.83-4.79,8.88-7.05,4.22-3.15,7.92-2.19,11.5,1.32,7.49,7.34,14.98,14.69,22.72,21.75,3.91,3.57,8.38,6.52,12.62,9.73,7.03,5.32,13.95,10.82,21.19,15.84,3.23,2.24,7.27,3.26,10.7,5.26,9.27,5.43,16.8,12.89,24.27,20.55,6.27,6.43,13.43,12.01,20.33,17.81,6.17,5.17,12.35,10.36,18.85,15.09,4.76,3.45,9.83,6.68,15.18,9.07,7.25,3.25,9.91,9.2,9.79,16.13-.1,5.74-2.09,11.45-3.24,17.18Z" fill="#bb215b" stroke-width="0"/><path d="M420.83-151.26c-12.06,5.98-22.72,14.51-30.9,25.19-1.6,2.08-3.06,4.21-4.27,6.31-.3.36-.54.79-.9,1.06-4.31,3.22-8.14,6.92-10.6,11.76-.91,1.78-1.74,3.87-1.7,5.8.05,2.53-1.04,3.24-3.13,3.45-1.88.18-3.8.19-5.62.61-3.78.88-5.85,3.92-8.04,6.77-1.64,2.14-2.98,5.23-5.16,6.09-5.13,2.01-8.42,5.77-11.39,9.88-3.61,4.99-8.4,9.46-9.16,15.99-.67,5.79-2.22,11.96,1.23,17.23,3.52,5.38,7.96,10.16,11.9,15.28,2.92,3.8,6.86,7.35,8.22,11.69,1.69,5.38,3.37,10.54,6.65,15.11,2.36,1.83,5.88,4.55,8.25,6.38,1.71.68,3.41,1.37,5.16,1.9,6.17,1.86,12.49,3.3,17.69,7.47,6.96,5.58,16.87,4.68,22.87-2.11,2.95-3.33,5.68-6.86,8.66-10.16.7-.78,2.04-1.51,3.01-1.43,2.61.21,4.15-1.1,5.71-2.84,1.2-1.34,2.48-3.14,4.03-3.53,6.14-1.54,6.88-6.09,7.07-11.22.04-1.14.23-2.46.84-3.37,2.4-3.59,6.31-5.14,10.23-5.45,8.73-.68,13.52-6.14,16.64-13.25,2.94-6.7,6.84-12.47,13.01-16.3,4.19-2.6,8.73-5.5,13.42-6.21,7.88-1.19,14.33-4.71,20.25-9.42,3.37-2.68,6.07-6.22,9.05-9.39,5.05-5.37,9.98-10.84,15.13-16.11,8.6-8.79,6.99-22.58,2.58-29.65-5.26-8.44-11.95-16.11-18.8-23.39-5.58-5.94-12.21-10.92-18.57-16.08-2.66-2.15-5.65-4.17-8.82-5.36-6.55-2.46-13.05.14-19.53,1.13-3.82.58-19.81,3.43-35.72,8.08-4.91,1.44-9.67,3.34-14.25,5.61l-5.02,2.49ZM399.75-107.48c-.3.25-.69.49-1.06.52-.99.09-1.99.07-2.98.09.59-.6,1.27-1.13,1.76-1.8,2.84-3.83,5.53-7.78,8.48-11.52,2.31-2.92,5.6-4.01,9.28-3.95.27,0,.78.27.77.34-.08.43-.19.92-.46,1.25-1.09,1.36-2.25,2.68-3.38,4.01.13.16.26.33.39.49-4.27,3.53-8.53,7.06-12.81,10.57Z" fill="#882461" stroke-width="0"/><path d="M568.45,97.36c2.71-10.55,3.04-21.59.78-32.24-2.72-12.79-7.2-21.24-12.42-24.08-3.73-2.02-6.89-5.07-10.33-7.63-1.08-.81-2.1-1.87-3.32-2.27-6.26-2.05-12.56-4.01-18.89-5.82-2.64-.75-5.41-1.41-8.12-1.41-2.17,0-3.61-.22-4.95-2.14-1.71-2.45-4.37-3.44-7.38-2.95-1.55.25-2.58.17-3.51-1.47-.49-.86-2.34-1.47-3.43-1.3-.96.14-2.25,1.44-2.43,2.41-.18.95.87,2.13,1.36,3.21.45,1,1.34,2.06,1.25,3.01-.42,4.31,2.05,7.66,6.45,8.54.75.15,1.65.73,2.01,1.38,1.62,2.87.12,7.1-2.94,8.11-1.55.51-3.29.46-4.94.69-3.8.54-7.77.56-11.34,1.78-5.66,1.94-11.88-.18-14.85-5.38-4.43-7.74-11.42-11.2-19.9-11.63-10.05-.51-19.06,10.09-18.15,20.25.17,1.91-1.22,4.21-2.45,5.94-3.02,4.24-6.63,8.08-9.46,12.43-1.77,2.71-2.31,6.18-3.84,9.08-4.48,8.46-9,16.91-13.83,25.18-4.55,7.79-4.78,17.1-9.92,24.86-3.48,5.25-4.55,12.15-3.24,18.88.27,1.39,0,2.88.24,4.27.86,4.9,1.75,9.8,2.8,14.67.43,1.99,1.28,3.88,1.99,5.8,1.51,4.14,3.49,8.18,4.47,12.44,1.29,5.6,1.48,11.46,2.74,17.07,1.66,7.41,3.91,14.37,8.94,20.73,7.12,9,15.75,11.6,26.41,10.65,3.06-.27,6.16-.04,9.11.83,5.75,1.69,8.07,1.18,11.57-3.43,2.9-3.82,5.92-7.55,9.04-11.19,1.28-1.49,3.35-2.37,4.39-3.97,5.56-8.54,13.4-14.19,22.45-18.39,5.85-2.72,10.8-6.63,14.76-11.68,3.87-4.94,7.93-9.81,11.09-15.19,2.05-3.49,4.73-5.24,8.18-6.68,3.8-1.58,7.44-3.52,11.16-5.29.35-.17,15.21-28.83,22.41-42.45,2.62-4.96,4.65-10.2,6.04-15.63h0Z" fill="#7d2b8b" stroke-width="0"/><path d="M696.68,85.14c-5.99,10.21-19,17.18-29.66,14.31-3.16-.85-5.73-4.19-8.39-6.59-3.47-3.13-6.65-6.58-10.14-9.67-13.54-11.96-27.56-23.18-43.28-32.33-9.23-5.36-17.48-12.41-26.19-18.68-4.78-3.44-9.96-6.44-14.3-10.36-7.88-7.14-14.89-15.26-22.97-22.14-6.45-5.49-13.77-10.02-21.02-14.47-6.2-3.8-9.73-14.67-6.55-21.09,1.45-2.92,1.77-6.4,3.11-9.39,1.9-4.24,3.79-8.65,6.6-12.28,2.25-2.9,5.83-4.79,8.88-7.05,4.22-3.15,7.92-2.19,11.5,1.32,7.49,7.34,14.98,14.69,22.72,21.75,3.91,3.57,8.38,6.52,12.62,9.73,7.03,5.32,13.95,10.82,21.19,15.84,3.23,2.24,7.27,3.26,10.7,5.26,9.27,5.43,16.8,12.89,24.27,20.55,6.27,6.43,13.43,12.01,20.33,17.81,6.17,5.17,12.35,10.36,18.85,15.09,4.76,3.45,9.83,6.68,15.18,9.07,7.25,3.25,9.91,9.2,9.79,16.13-.1,5.74-2.09,11.45-3.24,17.18Z" fill="#bb215b" stroke-width="0"/><path d="M120.83-151.26c-12.06,5.98-22.72,14.51-30.9,25.19-1.6,2.08-3.06,4.21-4.27,6.31-.3.36-.54.79-.9,1.06-4.31,3.22-8.14,6.92-10.6,11.76-.91,1.78-1.74,3.87-1.7,5.8.05,2.53-1.04,3.24-3.13,3.45-1.88.18-3.8.19-5.62.61-3.78.88-5.85,3.92-8.04,6.77-1.64,2.14-2.98,5.23-5.16,6.09-5.13,2.01-8.42,5.77-11.39,9.88-3.61,4.99-8.4,9.46-9.16,15.99-.67,5.79-2.22,11.96,1.23,17.23,3.52,5.38,7.96,10.16,11.9,15.28,2.92,3.8,6.86,7.35,8.22,11.69,1.69,5.38,3.37,10.54,6.65,15.11,2.36,1.83,5.88,4.55,8.25,6.38,1.71.68,3.41,1.37,5.16,1.9,6.17,1.86,12.49,3.3,17.69,7.47,6.96,5.58,16.87,4.68,22.87-2.11,2.95-3.33,5.68-6.86,8.66-10.16.7-.78,2.04-1.51,3.01-1.43,2.61.21,4.15-1.1,5.71-2.84,1.2-1.34,2.48-3.14,4.03-3.53,6.14-1.54,6.88-6.09,7.07-11.22.04-1.14.23-2.46.84-3.37,2.4-3.59,6.31-5.14,10.23-5.45,8.73-.68,13.52-6.14,16.64-13.25,2.94-6.7,6.84-12.47,13.01-16.3,4.19-2.6,8.73-5.5,13.42-6.21,7.88-1.19,14.33-4.71,20.25-9.42,3.37-2.68,6.07-6.22,9.05-9.39,5.05-5.37,9.98-10.84,15.13-16.11,8.6-8.79,6.99-22.58,2.58-29.65-5.26-8.44-11.95-16.11-18.8-23.39-5.58-5.94-12.21-10.92-18.57-16.08-2.66-2.15-5.65-4.17-8.82-5.36-6.55-2.46-13.05.14-19.53,1.13-3.82.58-19.81,3.43-35.72,8.08-4.91,1.44-9.67,3.34-14.25,5.61l-5.02,2.49ZM99.75-107.48c-.3.25-.69.49-1.06.52-.99.09-1.99.07-2.98.09.59-.6,1.27-1.13,1.76-1.8,2.84-3.83,5.53-7.78,8.48-11.52,2.31-2.92,5.6-4.01,9.28-3.95.27,0,.78.27.77.34-.08.43-.19.92-.46,1.25-1.09,1.36-2.25,2.68-3.38,4.01.13.16.26.33.39.49-4.27,3.53-8.53,7.06-12.81,10.57Z" fill="#882461" stroke-width="0"/><path d="M268.45,97.36c2.71-10.55,3.04-21.59.78-32.24-2.72-12.79-7.2-21.24-12.42-24.08-3.73-2.02-6.89-5.07-10.33-7.63-1.08-.81-2.1-1.87-3.32-2.27-6.26-2.05-12.56-4.01-18.89-5.82-2.64-.75-5.41-1.41-8.12-1.41-2.17,0-3.61-.22-4.95-2.14-1.71-2.45-4.37-3.44-7.38-2.95-1.55.25-2.58.17-3.51-1.47-.49-.86-2.34-1.47-3.43-1.3-.96.14-2.25,1.44-2.43,2.41-.18.95.87,2.13,1.36,3.21.45,1,1.34,2.06,1.25,3.01-.42,4.31,2.05,7.66,6.45,8.54.75.15,1.65.73,2.01,1.38,1.62,2.87.12,7.1-2.94,8.11-1.55.51-3.29.46-4.94.69-3.8.54-7.77.56-11.34,1.78-5.66,1.94-11.88-.18-14.85-5.38-4.43-7.74-11.42-11.2-19.9-11.63-10.05-.51-19.06,10.09-18.15,20.25.17,1.91-1.22,4.21-2.45,5.94-3.02,4.24-6.63,8.08-9.46,12.43-1.77,2.71-2.31,6.18-3.84,9.08-4.48,8.46-9,16.91-13.83,25.18-4.55,7.79-4.78,17.1-9.92,24.86-3.48,5.25-4.55,12.15-3.24,18.88.27,1.39,0,2.88.24,4.27.86,4.9,1.75,9.8,2.8,14.67.43,1.99,1.28,3.88,1.99,5.8,1.51,4.14,3.49,8.18,4.47,12.44,1.29,5.6,1.48,11.46,2.74,17.07,1.66,7.41,3.91,14.37,8.94,20.73,7.12,9,15.75,11.6,26.41,10.65,3.06-.27,6.16-.04,9.11.83,5.75,1.69,8.07,1.18,11.57-3.43,2.9-3.82,5.92-7.55,9.04-11.19,1.28-1.49,3.35-2.37,4.39-3.97,5.56-8.54,13.4-14.19,22.45-18.39,5.85-2.72,10.8-6.63,14.76-11.68,3.87-4.94,7.93-9.81,11.09-15.19,2.05-3.49,4.73-5.24,8.18-6.68,3.8-1.58,7.44-3.52,11.16-5.29.35-.17,15.21-28.83,22.41-42.45,2.62-4.96,4.65-10.2,6.04-15.63h0Z" fill="#7d2b8b" stroke-width="0"/><path d="M396.68,85.14c-5.99,10.21-19,17.18-29.66,14.31-3.16-.85-5.73-4.19-8.39-6.59-3.47-3.13-6.65-6.58-10.14-9.67-13.54-11.96-27.56-23.18-43.28-32.33-9.23-5.36-17.48-12.41-26.19-18.68-4.78-3.44-9.96-6.44-14.3-10.36-7.88-7.14-14.89-15.26-22.97-22.14-6.45-5.49-13.77-10.02-21.02-14.47-6.2-3.8-9.73-14.67-6.55-21.09,1.45-2.92,1.77-6.4,3.11-9.39,1.9-4.24,3.79-8.65,6.6-12.28,2.25-2.9,5.83-4.79,8.88-7.05,4.22-3.15,7.92-2.19,11.5,1.32,7.49,7.34,14.98,14.69,22.72,21.75,3.91,3.57,8.38,6.52,12.62,9.73,7.03,5.32,13.95,10.82,21.19,15.84,3.23,2.24,7.27,3.26,10.7,5.26,9.27,5.43,16.8,12.89,24.27,20.55,6.27,6.43,13.43,12.01,20.33,17.81,6.17,5.17,12.35,10.36,18.85,15.09,4.76,3.45,9.83,6.68,15.18,9.07,7.25,3.25,9.91,9.2,9.79,16.13-.1,5.74-2.09,11.45-3.24,17.18Z" fill="#bb215b" stroke-width="0"/><path d="M96.68,85.14c-5.99,10.21-19,17.18-29.66,14.31-3.16-.85-5.73-4.19-8.39-6.59-3.47-3.13-6.65-6.58-10.14-9.67-13.54-11.96-27.56-23.18-43.28-32.33-9.23-5.36-17.48-12.41-26.19-18.68-4.78-3.44-9.96-6.44-14.3-10.36-7.88-7.14-14.89-15.26-22.97-22.14-6.45-5.49-13.77-10.02-21.02-14.47-6.2-3.8-9.73-14.67-6.55-21.09,1.45-2.92,1.77-6.4,3.11-9.39,1.9-4.24,3.79-8.65,6.6-12.28,2.25-2.9,5.83-4.79,8.88-7.05,4.22-3.15,7.92-2.19,11.5,1.32,7.49,7.34,14.98,14.69,22.72,21.75,3.91,3.57,8.38,6.52,12.62,9.73C-13.35-26.47-6.44-20.98.8-15.95c3.23,2.24,7.27,3.26,10.7,5.26C20.77-5.26,28.3,2.2,35.77,9.86c6.27,6.43,13.43,12.01,20.33,17.81,6.17,5.17,12.35,10.36,18.85,15.09,4.76,3.45,9.83,6.68,15.18,9.07,7.25,3.25,9.91,9.2,9.79,16.13-.1,5.74-2.09,11.45-3.24,17.18Z" fill="#bb215b" stroke-width="0"/></pattern></defs><rect width="900" height="750" fill="url(#uuid-f0c700c1-e787-49cd-810f-38c292b8f18b)" stroke-width="0"/></svg>