<?xml version="1.0" encoding="UTF-8"?><svg id="uuid-1a1b058c-36d8-4603-b208-dc1d3298c0b5" xmlns="http://www.w3.org/2000/svg" width="900" height="750" xmlns:xlink="http://www.w3.org/1999/xlink" viewBox="0 0 900 750"><defs><pattern id="uuid-b7420098-f0eb-43c4-b721-ec96b703e422" x="0" y="0" width="216" height="180" patternTransform="translate(1380 -4620)" patternUnits="userSpaceOnUse" viewBox="0 0 216 180"><rect x="0" width="216" height="180" fill="none" stroke-width="0"/><ellipse cx="19.92" cy="-5.89" rx="29.04" ry="17.81" fill="#c9242c" stroke-width="0"/><ellipse cx="235.92" cy="-5.89" rx="29.04" ry="17.81" fill="#c9242c" stroke-width="0"/><polygon points="-14.58 57.01 -36 72.57 -27.82 97.75 -1.35 97.75 6.83 72.57 -14.58 57.01" fill="#123f66" stroke-width="0"/><path d="M18.51,72.57s18.55-35,18.55,0,18.55,0,18.55,0c0,0,18.55-35,18.55,0s18.55,0,18.55,0" fill="none" stroke="#415f35" stroke-miterlimit="10" stroke-width="2"/><path d="M144.04,174.11s-4.61-15.02,5.2-5.2c9.82,9.82,5.2-5.2,5.2-5.2,0,0-4.61-15.02,5.2-5.2,9.82,9.82,5.2-5.2,5.2-5.2" fill="none" stroke="#415f35" stroke-miterlimit="10"/><circle cx="117.83" cy="47.21" r="20.68" fill="#c7461a" stroke-width="0"/><circle cx="117.83" cy="140.2" r="10.34" fill="#c7461a" stroke-width="0"/><rect x="157.59" y="9.84" width="33.38" height="33.38" fill="#6576ac" stroke-width="0"/><polygon points="107.11 118.43 95.31 106.63 107.11 94.83 118.91 106.63 107.11 118.43" fill="#6576ac" stroke-width="0"/><ellipse cx="145.93" cy="88.12" rx="17.81" ry="29.04" fill="#c9242c" stroke-width="0"/><ellipse cx="19.92" cy="174.11" rx="29.04" ry="17.81" fill="#c9242c" stroke-width="0"/><path d="M62.68,177.46s24.49-32,49.78,0" fill="none" stroke="#7f1e2a" stroke-miterlimit="10" stroke-width="2"/><path d="M68.12,9.14s-7.98,39.5-44.74,21.82" fill="none" stroke="#7f1e2a" stroke-miterlimit="10" stroke-width="2"/><polygon points="201.42 57.01 180 72.57 188.18 97.75 214.65 97.75 222.83 72.57 201.42 57.01" fill="#123f66" stroke-width="0"/><polygon points="13.16 118.6 3.39 135.52 16.46 150.04 34.32 142.09 32.27 122.66 13.16 118.6" fill="#123f66" stroke-width="0"/><polygon points="194.21 105.87 193.36 118.88 203.59 126.96 190.96 130.17 186.44 142.4 179.48 131.38 166.46 130.86 174.79 120.83 171.25 108.28 183.36 113.11 194.21 105.87" fill="#295f2a" stroke-width="0"/><polygon points="84.41 112.92 79.14 121.44 83.17 130.6 73.45 128.22 65.98 134.89 65.23 124.9 56.59 119.86 65.85 116.06 67.98 106.28 74.45 113.92 84.41 112.92" fill="#295f2a" stroke-width="0"/><ellipse cx="235.92" cy="174.11" rx="29.04" ry="17.81" fill="#c9242c" stroke-width="0"/></pattern></defs><rect width="900" height="750" fill="url(#uuid-b7420098-f0eb-43c4-b721-ec96b703e422)" stroke-width="0"/><rect width="900" height="750" fill="url(#uuid-b7420098-f0eb-43c4-b721-ec96b703e422)" stroke-width="0"/></svg>