<?xml version="1.0" encoding="UTF-8"?><svg id="uuid-96bd668b-1425-4e79-bad6-74b0c089f5c6" xmlns="http://www.w3.org/2000/svg" width="900" height="750" xmlns:xlink="http://www.w3.org/1999/xlink" viewBox="0 0 900 750"><defs><pattern id="uuid-85607f50-47c5-42d5-9a20-69d7dddb592e" x="0" y="0" width="297" height="350.04" patternTransform="translate(460 -3850)" patternUnits="userSpaceOnUse" viewBox="0 0 297 350.04"><rect y="0" width="297" height="350.04" fill="none" stroke-width="0"/><polygon points="292.07 265.18 308.94 252.99 298.87 248.66 298.87 248.67 292.07 265.18" fill="#8c5b60" stroke-width="0"/><path d="M258.09,265.55l-3.24,8.51,3.71,9.45h.2s4.97-21.27,4.97-21.27l-5.64,3.31ZM198.1,271.26l-1.05,10.65,1.42,7.71,9.48-15.31,1.78-2.86-11.63-.19ZM191.42,297.27l3.96,4.05,3.19-1.43-3.19-1.17-3.97-1.45Z" fill="#7d5151" stroke-width="0"/><polygon points="171.88 338.8 175.44 341.48 178.57 336.3 171.88 338.8" fill="#9b7a73" stroke-width="0"/><polygon points="168.41 336.2 167.27 343.9 175.44 341.48 171.88 338.8 168.41 336.2" fill="#a07e6a" stroke-width="0"/><polygon points="167.27 343.9 167.27 343.9 166.95 346.05 170.82 348.25 173.16 345.27 175.44 341.48 167.27 343.9" fill="#ac9891" stroke-width="0"/><polygon points="166.95 346.05 165.64 354.84 170.82 348.25 166.95 346.05" fill="#bd9d8d" stroke-width="0"/><polygon points="165.64 354.84 171.38 351.7 173.16 345.27 170.82 348.25 165.64 354.84" fill="#dfcbc2" stroke-width="0"/><polygon points="156.28 358.56 157.63 354.98 158.54 353.05 158.54 353.04 155.51 349.5 153.33 354.64 156.28 358.56" fill="#decabb" stroke-width="0"/><polygon points="155.51 349.5 158.92 347.97 157.98 343.69 155.51 349.5" fill="#bd9d8d" stroke-width="0"/><polygon points="155.51 349.5 155.51 349.5 158.54 353.04 161.5 346.81 158.92 347.97 155.51 349.5" fill="#dfcbc2" stroke-width="0"/><polygon points="157.98 343.69 158.92 347.97 161.5 346.81 164.23 341.04 159.48 340.17 157.98 343.69" fill="#ac9891" stroke-width="0"/><polygon points="162.34 327.19 160.93 333.55 160.94 333.55 168.41 336.2 165.07 331.24 162.34 327.19" fill="#9d7f7a" stroke-width="0"/><polygon points="160.93 333.55 159.48 340.17 164.23 341.04 168.41 336.2 160.94 333.55 160.93 333.55" fill="#a07e6a" stroke-width="0"/><polygon points="162.34 327.19 165.07 331.24 170.58 331.24 169.03 326.11 167.35 320.56 162.34 327.19" fill="#8e7268" stroke-width="0"/><polygon points="170.91 333.15 171.88 338.8 178.57 336.3 181.49 331.46 174.71 332.54 170.91 333.15" fill="#8e7268" stroke-width="0"/><polygon points="167.35 320.56 169.03 326.11 174.81 324.44 169.35 317.92 167.35 320.56" fill="#7d5e5a" stroke-width="0"/><polygon points="171.54 307.23 169.41 315.56 169.35 317.92 174.81 324.44 176.45 316.5 176.53 316.3 180.05 311.46 177.7 310.3 171.54 307.23" fill="#7f4a42" stroke-width="0"/><polygon points="176.53 316.3 176.45 316.5 181.49 331.46 185.51 324.8 192.73 316.5 186.73 314.11 180.05 311.46 176.53 316.3" fill="#7b4d4a" stroke-width="0"/><polygon points="185.18 305.89 186.73 314.11 192.73 316.5 192.74 316.5 198.7 309.63 198.58 299.88 195.39 301.31 192.98 302.4 185.18 305.89" fill="#805554" stroke-width="0"/><polygon points="173.64 298.97 171.54 307.23 177.7 310.3 181.78 307.89 173.64 298.97" fill="#805554" stroke-width="0"/><polygon points="176.67 287.08 173.64 298.97 182.74 300.58 182.05 287.7 181.81 283.29 176.67 287.08" fill="#79514e" stroke-width="0"/><polygon points="181.81 283.29 182.05 287.7 191.42 297.27 193.1 274.96 181.81 283.29" fill="#805554" stroke-width="0"/><polygon points="193.1 274.96 193.1 274.96 191.42 297.27 191.42 297.27 195.39 298.71 195.4 298.67 197.05 281.92 198.1 271.26 193.1 274.96" fill="#785858" stroke-width="0"/><polygon points="209.59 352.75 220.43 353.26 224.36 345.19 213.13 345.9 209.59 352.75" fill="#8e7268" stroke-width="0"/><polygon points="213.13 345.9 224.36 345.19 229.17 338.92 219.42 340.82 216.42 337.86 213.13 345.9" fill="#866760" stroke-width="0"/><polygon points="216.42 337.86 219.42 340.82 229.17 338.92 221.57 334.94 218.31 333.24 216.42 337.86" fill="#7d5e5a" stroke-width="0"/><polygon points="218.31 333.24 221.57 334.94 229.15 333.36 220.78 327.17 218.31 333.24" fill="#7f4a42" stroke-width="0"/><polygon points="221.57 334.94 229.17 338.92 234.24 332.29 229.15 333.36 221.57 334.94" fill="#995f59" stroke-width="0"/><polygon points="220.78 327.17 229.15 333.36 234.24 332.29 222.3 323.44 220.78 327.17" fill="#7b4d4a" stroke-width="0"/><polygon points="222.3 323.44 234.24 332.29 237.73 325.05 231.7 324.43 231.69 324.42 222.3 323.44" fill="#79514e" stroke-width="0"/><polygon points="221.89 317.96 231.69 324.42 231.7 324.43 237.73 325.05 243.83 321.41 249.48 313.39 237.38 315.39 221.89 317.96" fill="#785858" stroke-width="0"/><polygon points="206.86 316.6 214.05 320.3 222.3 323.44 231.69 324.42 221.89 317.96 217.17 314.85 206.86 316.6" fill="#805554" stroke-width="0"/><polygon points="198.58 299.88 198.7 309.63 202.08 314.14 206.85 316.59 201.41 305.61 201.41 305.61 201.41 305.6 198.58 299.88" fill="#784a4d" stroke-width="0"/><polygon points="207.95 274.32 218.42 286.35 230.54 273.11 231.73 271.81 209.73 271.45 207.95 274.32" fill="#805554" stroke-width="0"/><polygon points="230.54 273.11 236.15 289.83 240.43 279.91 240.43 279.9 245.79 267.46 231.73 271.81 230.54 273.11" fill="#79514e" stroke-width="0"/><polygon points="225.96 299.84 237.38 315.39 249.48 313.39 252.38 299.27 239.42 299.55 225.96 299.84" fill="#805554" stroke-width="0"/><polygon points="236.15 289.83 239.42 299.55 252.38 299.27 256.35 295.38 236.15 289.83" fill="#7d5151" stroke-width="0"/><polygon points="268.74 272.71 273.47 282.59 286.11 270.76 268.74 272.71" fill="#79514e" stroke-width="0"/><polygon points="240.43 279.9 240.43 279.91 251.08 283.97 258.09 265.55 245.79 267.46 240.43 279.9" fill="#805554" stroke-width="0"/><polygon points="236.15 289.83 256.35 295.38 251.08 283.97 240.43 279.91 236.15 289.83" fill="#84575a" stroke-width="0"/><polygon points="251.08 283.97 256.35 295.38 273.47 282.59 258.75 283.5 258.56 283.51 251.08 283.97" fill="#7d5151" stroke-width="0"/><polygon points="263.73 262.24 267.9 270.96 277.63 254.07 263.73 262.24" fill="#7d5151" stroke-width="0"/><polygon points="267.9 270.96 268.74 272.71 286.11 270.76 292.07 265.18 284.86 265.75 275.01 266.53 283.8 250.44 277.63 254.07 267.9 270.96" fill="#785858" stroke-width="0"/><path d="M166.95,346.05" fill="none" stroke="#1d1d1b" stroke-miterlimit="10" stroke-width=".23"/><polygon points="165.07 331.24 168.41 336.2 171.88 338.8 170.91 333.15 170.58 331.24 165.07 331.24" fill="#9b7a73" stroke-width="0"/><polygon points="176.45 316.5 174.81 324.44 174.71 332.54 181.49 331.46 176.45 316.5" fill="#995f59" stroke-width="0"/><polygon points="169.03 326.11 170.58 331.24 170.91 333.15 174.71 332.54 174.81 324.44 169.03 326.11" fill="#866760" stroke-width="0"/><polygon points="177.7 310.3 180.05 311.46 186.73 314.11 185.18 305.89 181.78 307.89 177.7 310.3" fill="#79514e" stroke-width="0"/><polygon points="173.64 298.97 181.78 307.89 185.18 305.89 192.98 302.4 182.74 300.58 173.64 298.97" fill="#7d5151" stroke-width="0"/><polygon points="182.05 287.7 182.74 300.58 192.98 302.4 195.39 301.31 191.42 297.27 191.42 297.27 182.05 287.7" fill="#84575a" stroke-width="0"/><polygon points="201.41 305.61 206.85 316.59 206.86 316.6 217.17 314.85 201.41 305.61" fill="#7d5151" stroke-width="0"/><polygon points="197.05 281.92 195.4 298.67 195.39 298.71 198.58 299.88 201.41 305.6 198.47 289.63 198.47 289.63 197.05 281.92" fill="#79514e" stroke-width="0"/><polygon points="198.47 289.63 198.47 289.63 201.41 305.6 201.41 305.61 215.52 289.63 217.13 287.8 218.42 286.35 207.95 274.32 198.47 289.63" fill="#84575a" stroke-width="0"/><polygon points="201.41 305.61 201.41 305.61 217.17 314.85 215.52 289.63 201.41 305.61" fill="#785858" stroke-width="0"/><polygon points="215.52 289.63 217.17 314.85 221.89 317.96 237.38 315.39 225.96 299.84 217.13 287.8 215.52 289.63" fill="#79514e" stroke-width="0"/><polygon points="217.13 287.8 225.96 299.84 239.42 299.55 236.15 289.83 230.54 273.11 218.42 286.35 217.13 287.8" fill="#784a4d" stroke-width="0"/><polygon points="263.73 262.24 258.75 283.5 273.47 282.59 268.74 272.71 267.9 270.96 263.73 262.24" fill="#784a4d" stroke-width="0"/><polygon points="254.85 274.06 251.08 283.97 258.56 283.51 254.85 274.06" fill="#785858" stroke-width="0"/><polygon points="275.01 266.53 284.86 265.75 282.08 261.38 275.01 266.53" fill="#7d5151" stroke-width="0"/><polygon points="275.01 266.53 282.08 261.38 287.65 257.31 283.8 250.44 275.01 266.53" fill="#79514e" stroke-width="0"/><polygon points="282.08 261.38 284.86 265.75 292.07 265.18 287.65 257.31 282.08 261.38" fill="#8d5e63" stroke-width="0"/><polygon points="283.8 250.44 287.65 257.31 292.07 265.18 298.87 248.67 298.87 248.66 291.95 245.69 291.92 245.68 291.79 245.75 291.56 245.88 291.56 245.88 283.8 250.44" fill="#895d5f" stroke-width="0"/><polygon points="291.95 245.69 298.87 248.66 308.94 252.99 308.94 252.99 305.81 244.31 301.49 240.97 298.72 242.34 291.95 245.69" fill="#9b676d" stroke-width="0"/><polygon points="31.64 261.94 33.03 266.05 36.37 267.78 38.27 267.16 34.16 260.35 31.64 261.94" fill="#9b676d" stroke-width="0"/><polygon points="34.16 260.35 38.27 267.16 39.65 261.35 36.93 257.05 34.16 260.35" fill="#a77b81" stroke-width="0"/><polygon points="29.51 247.48 28.86 251.94 36.18 253.23 35.05 247.51 32.39 246.72 29.88 248.26 29.51 247.48" fill="#cecdce" stroke-width="0"/><polygon points="28.86 251.94 27.9 258.52 31.64 261.94 34.16 260.35 36.93 257.05 36.18 253.23 28.86 251.94" fill="#d7d8d8" stroke-width="0"/><polygon points="23.34 254.35 27.9 258.52 28.86 251.94 29.51 247.48 28.35 245.01 23.34 254.35" fill="#cdb8b9" stroke-width="0"/><polygon points="31.3 246.2 32.39 246.72 35.05 247.51 35.55 241.84 31.3 246.2" fill="#c9c3c4" stroke-width="0"/><polygon points="28.44 244.84 28.43 244.86 31.3 246.2 35.55 241.84 32.41 239.19 23.92 239.02 28.44 244.84" fill="#cdb8b9" stroke-width="0"/><polygon points="19.29 240.62 19.37 244.04 19.37 244.26 19.49 249.87 20.38 249.76 23.34 254.35 20.87 245.4 23.27 240.38 23.92 239.02 24.93 236.91 27.13 234.01 25.69 235.22 19.76 240.23 19.29 240.62" fill="#c5a3a2" stroke-width="0"/><polygon points="8.81 244.31 11.94 252.99 15.58 250.36 15.37 242.56 8.81 244.31" fill="#a77b81" stroke-width="0"/><polygon points="-4.93 265.18 11.94 252.99 1.87 248.66 1.87 248.67 -4.93 265.18" fill="#8c5b60" stroke-width="0"/><polygon points="-13.2 250.44 -9.35 257.31 -4.93 265.18 1.87 248.67 1.87 248.66 -5.05 245.69 -5.08 245.68 -5.21 245.75 -5.44 245.88 -5.44 245.88 -13.2 250.44" fill="#895d5f" stroke-width="0"/><path d="M17.84,225.85" fill="none" stroke="#1d1d1b" stroke-miterlimit="10" stroke-width=".23"/><polygon points="28.35 245.01 29.51 247.48 29.88 248.26 32.39 246.72 31.3 246.2 28.43 244.86 28.35 245.01" fill="#3d3d3d" stroke-width="0"/><polygon points="15.37 242.56 15.58 250.36 19.49 249.87 19.37 244.26 19.29 240.62 19.25 238.59 17.58 240.3 15.37 242.56" fill="#cd9ca9" stroke-width="0"/><polygon points="23.92 239.02 32.41 239.19 28.86 232.55 27.13 234.01 24.93 236.91 23.92 239.02" fill="#d5b3b7" stroke-width="0"/><polygon points="20.87 245.4 23.34 254.35 28.35 245.01 28.43 244.86 28.44 244.84 23.92 239.02 23.27 240.38 20.87 245.4" fill="#ccafaf" stroke-width="0"/><polygon points="12.23 224.3 12.7 229.61 17.78 235.08 25.69 235.22 12.23 224.3" fill="#c39494" stroke-width="0"/><polygon points="17.78 235.08 19.25 238.59 19.29 240.62 25.69 235.22 17.78 235.08" fill="#cea3a3" stroke-width="0"/><polygon points="10.82 237.99 15.37 242.56 17.58 240.3 19.25 238.59 17.78 235.08 10.82 237.99" fill="#c695a0" stroke-width="0"/><polygon points="4.49 240.97 8.81 244.31 15.37 242.56 10.82 237.99 9.14 238.69 4.71 240.87 4.49 240.97" fill="#b68a92" stroke-width="0"/><polygon points="-5.05 245.69 1.87 248.66 11.94 252.99 11.94 252.99 8.81 244.31 4.49 240.97 1.72 242.34 -5.05 245.69" fill="#9b676d" stroke-width="0"/><polygon points="102.24 322.34 98.82 319.49 95.44 324.5 102.24 322.34" fill="#9b7a73" stroke-width="0"/><polygon points="105.58 325.12 107.1 317.48 98.82 319.49 102.24 322.34 105.58 325.12" fill="#a07e6a" stroke-width="0"/><polygon points="107.1 317.48 107.11 317.48 107.53 315.35 103.78 312.96 101.29 315.82 98.82 319.49 107.1 317.48" fill="#ac9891" stroke-width="0"/><polygon points="107.53 315.35 109.28 306.64 103.78 312.96 107.53 315.35" fill="#bd9d8d" stroke-width="0"/><polygon points="109.28 306.64 103.39 309.49 101.29 315.82 103.78 312.96 109.28 306.64" fill="#dfcbc2" stroke-width="0"/><polygon points="109.28 306.64 109.28 306.64 109.7 304.52 110.24 302.49 105.23 303.93 103.39 309.49 109.28 306.64" fill="#decabb" stroke-width="0"/><polygon points="110.24 302.49 111.06 299.4 107.28 297.74 105.23 303.93 110.24 302.49" fill="#e4b087" stroke-width="0"/><polygon points="111.06 299.4 113.34 290.81 107.72 295.91 107.28 297.74 111.06 299.4" fill="#dcc5b9" stroke-width="0"/><polygon points="113.34 290.81 113.89 285.26 109.2 289.74 107.72 295.91 113.34 290.81" fill="#ecbb94" stroke-width="0"/><polygon points="113.89 285.26 107.89 284.38 109.2 289.74 113.89 285.26" fill="#b4846f" stroke-width="0"/><polygon points="113.89 285.26 114 284.11 107.02 280.83 107.89 284.38 113.89 285.26" fill="#c38369" stroke-width="0"/><polygon points="129.49 289.75 122.52 286.32 122.58 291.27 127.96 291.78 129.49 289.75" fill="#b78264" stroke-width="0"/><polygon points="127.02 297.3 127.96 291.78 122.58 291.27 122.63 294.63 127.02 297.3" fill="#ecbb94" stroke-width="0"/><polygon points="127.02 297.3 122.63 294.63 120.33 299.92 125.45 300.11 127.02 297.3" fill="#dcc5b9" stroke-width="0"/><polygon points="125.45 300.11 120.33 299.92 118.82 303.39 121.57 307.46 123.03 304.45 125.45 300.11" fill="#e4b087" stroke-width="0"/><polygon points="118.82 303.39 117.29 306.9 116.28 308.79 116.28 308.79 119.13 312.48 121.57 307.46 118.82 303.39" fill="#decabb" stroke-width="0"/><polygon points="119.13 312.48 115.65 313.84 116.37 318.16 119.13 312.48" fill="#bd9d8d" stroke-width="0"/><polygon points="119.13 312.48 119.13 312.48 116.28 308.79 113.01 314.87 115.65 313.84 119.13 312.48" fill="#dfcbc2" stroke-width="0"/><polygon points="116.37 318.16 115.65 313.84 113.01 314.87 109.99 320.49 114.7 321.61 116.37 318.16" fill="#ac9891" stroke-width="0"/><polygon points="111.19 334.42 112.91 328.14 112.91 328.13 105.58 325.12 108.66 330.24 111.19 334.42" fill="#9d7f7a" stroke-width="0"/><polygon points="112.91 328.14 114.7 321.61 109.99 320.49 105.58 325.12 112.91 328.13 112.91 328.14" fill="#a07e6a" stroke-width="0"/><polygon points="111.19 334.42 108.66 330.24 103.16 329.96 104.46 335.16 105.85 340.79 111.19 334.42" fill="#8e7268" stroke-width="0"/><polygon points="102.93 328.04 102.24 322.34 95.44 324.5 92.28 329.19 99.1 328.46 102.93 328.04" fill="#8e7268" stroke-width="0"/><polygon points="105.85 340.79 104.46 335.16 98.6 336.54 103.73 343.33 105.85 340.79" fill="#7d5e5a" stroke-width="0"/><polygon points="101 353.89 103.54 345.68 103.73 343.33 98.6 336.54 96.56 344.39 96.47 344.59 92.7 349.24 94.99 350.52 101 353.89" fill="#7f4a42" stroke-width="0"/><polygon points="96.47 344.59 96.56 344.39 92.28 329.19 87.92 335.64 80.29 343.57 86.18 346.26 92.7 349.24 96.47 344.59" fill="#7b4d4a" stroke-width="0"/><polygon points="87.3 354.55 86.18 346.26 80.29 343.57 80.29 343.57 73.99 350.13 73.62 359.87 76.88 358.6 79.34 357.65 87.3 354.55" fill="#805554" stroke-width="0"/><polygon points="77.9 272.4 76.28 270.54 73.15 272.39 76.07 276.45 76.85 274.62 77.9 272.4" fill="#ecbb94" stroke-width="0"/><polygon points="71.29 271.97 73.31 267.14 70.67 269.23 71.29 271.97" fill="#b4846f" stroke-width="0"/><polygon points="76.28 270.54 73.31 267.14 71.29 271.97 70.46 273.99 73.15 272.39 76.28 270.54" fill="#f5b887" stroke-width="0"/><polygon points="80.58 266.73 73.31 267.14 76.28 270.54 77.9 272.4 80.58 266.73" fill="#b78264" stroke-width="0"/><polygon points="73.31 267.14 72.7 262 70.66 262.32 69.48 264.02 70.67 269.23 73.31 267.14" fill="#af705a" stroke-width="0"/><polygon points="80.58 266.73 80.03 265.21 72.7 262 73.31 267.14 80.58 266.73" fill="#c38369" stroke-width="0"/><polygon points="71.09 288.04 74.83 279.34 74.79 279.35 67.6 280.96 65.47 286.17 69.62 283.61 71.09 288.04" fill="#e4b087" stroke-width="0"/><polygon points="74.83 279.34 76.07 276.45 73.15 272.39 70.46 273.99 67.6 280.96 74.79 279.35 74.83 279.34" fill="#dcc5b9" stroke-width="0"/><polygon points="71.09 288.04 69.62 283.61 65.47 286.17 64.91 287.51 71.09 288.04" fill="#decabb" stroke-width="0"/><polygon points="69.29 292.23 71.09 288.04 64.91 287.51 63.02 292.12 69.29 292.23" fill="#dfcbc2" stroke-width="0"/><polygon points="69.29 292.23 63.02 292.12 60.85 297.42 69.29 292.23" fill="#bd9d8d" stroke-width="0"/><polygon points="66.38 301.77 67.78 295.75 60.85 297.42 56.19 302.37 66.38 301.77" fill="#a07e6a" stroke-width="0"/><polygon points="65.28 306.52 66.38 301.77 56.19 302.37 54.48 305.47 65.28 306.52" fill="#9b7a73" stroke-width="0"/><polygon points="65.28 306.52 54.48 305.47 50.15 313.33 61.4 313.18 65.28 306.52" fill="#8e7268" stroke-width="0"/><polygon points="61.4 313.18 50.15 313.33 45.04 319.35 54.86 317.94 57.71 321.05 61.4 313.18" fill="#866760" stroke-width="0"/><polygon points="57.71 321.05 54.86 317.94 45.04 319.35 52.42 323.7 55.6 325.57 57.71 321.05" fill="#7d5e5a" stroke-width="0"/><polygon points="55.6 325.57 52.42 323.7 44.77 324.9 52.82 331.5 55.6 325.57" fill="#7f4a42" stroke-width="0"/><polygon points="52.42 323.7 45.04 319.35 39.63 325.71 44.77 324.9 52.42 323.7" fill="#995f59" stroke-width="0"/><polygon points="52.82 331.5 44.77 324.9 39.63 325.71 51.11 335.15 52.82 331.5" fill="#7b4d4a" stroke-width="0"/><polygon points="51.11 335.15 39.63 325.71 35.79 332.77 41.77 333.7 41.78 333.7 51.11 335.15" fill="#79514e" stroke-width="0"/><polygon points="51.25 340.65 41.78 333.7 41.77 333.7 35.79 332.77 29.51 336.1 23.46 343.83 35.65 342.43 51.25 340.65" fill="#785858" stroke-width="0"/><polygon points="66.19 342.77 59.19 338.7 51.11 335.15 41.78 333.7 51.25 340.65 55.81 343.99 66.19 342.77" fill="#805554" stroke-width="0"/><polygon points="73.62 359.87 73.99 350.13 70.84 345.46 66.2 342.77 71.08 354.01 71.08 354.02 71.08 354.02 73.62 359.87" fill="#784a4d" stroke-width="0"/><polygon points="46.27 358.54 35.65 342.43 23.46 343.83 19.86 357.78 32.82 358.15 46.27 358.54" fill="#805554" stroke-width="0"/><path d="M107.53,315.35" fill="none" stroke="#1d1d1b" stroke-miterlimit="10" stroke-width=".23"/><polygon points="108.66 330.24 105.58 325.12 102.24 322.34 102.93 328.04 103.16 329.96 108.66 330.24" fill="#9b7a73" stroke-width="0"/><polygon points="67.78 295.75 69.29 292.23 60.85 297.42 67.78 295.75" fill="#ac9891" stroke-width="0"/><polygon points="96.56 344.39 98.6 336.54 99.1 328.46 92.28 329.19 96.56 344.39" fill="#995f59" stroke-width="0"/><polygon points="104.46 335.16 103.16 329.96 102.93 328.04 99.1 328.46 98.6 336.54 104.46 335.16" fill="#866760" stroke-width="0"/><polygon points="94.99 350.52 92.7 349.24 86.18 346.26 87.3 354.55 90.8 352.72 94.99 350.52" fill="#79514e" stroke-width="0"/><polygon points="71.08 354.01 66.2 342.77 66.19 342.77 55.81 343.99 71.08 354.01" fill="#7d5151" stroke-width="0"/><polygon points="71.08 354.02 71.08 354.01 55.81 343.99 56.19 369.27 71.08 354.02" fill="#785858" stroke-width="0"/><polygon points="56.19 369.27 55.81 343.99 51.25 340.65 35.65 342.43 46.27 358.54 54.49 371.01 56.19 369.27" fill="#79514e" stroke-width="0"/><polygon points="294.81 197.71 301.94 200.79 301.63 195.84 296.23 195.6 294.81 197.71" fill="#b78264" stroke-width="0"/><polygon points="296.89 190.04 296.23 195.6 301.63 195.84 301.41 192.49 296.89 190.04" fill="#ecbb94" stroke-width="0"/><polygon points="296.89 190.04 301.41 192.49 303.44 187.09 298.32 187.16 296.89 190.04" fill="#dcc5b9" stroke-width="0"/><polygon points="180.14 86.92 181.53 91.03 184.87 92.77 186.77 92.14 182.66 85.34 180.14 86.92" fill="#9b676d" stroke-width="0"/><polygon points="182.66 85.34 186.77 92.14 188.15 86.33 185.43 82.03 182.66 85.34" fill="#a77b81" stroke-width="0"/><polygon points="178.01 72.46 177.36 76.92 184.68 78.22 183.55 72.49 180.89 71.71 178.38 73.24 178.01 72.46" fill="#cecdce" stroke-width="0"/><polygon points="177.36 76.92 176.4 83.51 180.14 86.92 182.66 85.34 185.43 82.03 184.68 78.22 177.36 76.92" fill="#d7d8d8" stroke-width="0"/><polygon points="171.84 79.33 176.4 83.51 177.36 76.92 178.01 72.46 176.85 70 171.84 79.33" fill="#cdb8b9" stroke-width="0"/><polygon points="179.8 71.19 180.89 71.71 183.55 72.49 184.05 66.82 179.8 71.19" fill="#c9c3c4" stroke-width="0"/><polygon points="176.94 69.82 176.93 69.84 179.8 71.19 184.05 66.82 180.91 64.17 172.42 64 176.94 69.82" fill="#cdb8b9" stroke-width="0"/><polygon points="167.79 65.6 167.87 69.02 167.87 69.24 167.99 74.85 168.88 74.74 171.84 79.33 169.37 70.38 171.77 65.36 172.42 64 173.43 61.89 175.63 58.99 174.19 60.2 168.26 65.21 167.79 65.6" fill="#c5a3a2" stroke-width="0"/><polygon points="157.31 69.29 160.44 77.97 164.08 75.34 163.87 67.55 157.31 69.29" fill="#a77b81" stroke-width="0"/><polygon points="143.57 90.16 160.44 77.97 150.37 73.65 150.37 73.65 143.57 90.16" fill="#8c5b60" stroke-width="0"/><path d="M109.59,90.53l-3.24,8.51,3.71,9.45h.2s4.97-21.27,4.97-21.27l-5.64,3.31ZM49.6,96.25l-1.05,10.65,1.42,7.71,9.48-15.31,1.78-2.86-11.63-.19ZM42.92,122.25l3.96,4.05,3.19-1.43-3.19-1.17-3.97-1.45Z" fill="#7d5151" stroke-width="0"/><polygon points="23.38 163.79 26.94 166.46 30.07 161.29 23.38 163.79" fill="#9b7a73" stroke-width="0"/><polygon points="19.91 161.18 18.77 168.88 26.94 166.46 23.38 163.79 19.91 161.18" fill="#a07e6a" stroke-width="0"/><polygon points="18.77 168.88 18.77 168.89 18.45 171.03 22.32 173.23 24.66 170.25 26.94 166.46 18.77 168.88" fill="#ac9891" stroke-width="0"/><polygon points="18.45 171.03 17.14 179.82 22.32 173.23 18.45 171.03" fill="#bd9d8d" stroke-width="0"/><polygon points="17.14 179.82 22.88 176.68 24.66 170.25 22.32 173.23 17.14 179.82" fill="#dfcbc2" stroke-width="0"/><polygon points="17.14 179.82 17.14 179.82 16.83 181.96 16.39 184.02 21.32 182.32 22.88 176.68 17.14 179.82" fill="#decabb" stroke-width="0"/><polygon points="16.39 184.02 15.73 187.14 19.59 188.61 21.32 182.32 16.39 184.02" fill="#e4b087" stroke-width="0"/><polygon points="15.73 187.14 13.88 195.83 19.24 190.46 19.59 188.61 15.73 187.14" fill="#dcc5b9" stroke-width="0"/><polygon points="13.88 195.83 13.61 201.41 18.07 196.7 19.24 190.46 13.88 195.83" fill="#ecbb94" stroke-width="0"/><polygon points="13.61 201.41 19.65 201.99 18.07 196.7 13.61 201.41" fill="#b4846f" stroke-width="0"/><polygon points="13.61 201.41 13.55 202.56 20.69 205.48 19.65 201.99 13.61 201.41" fill="#c38369" stroke-width="0"/><polygon points="-2.19 197.71 4.94 200.79 4.63 195.84 -.77 195.6 -2.19 197.71" fill="#b78264" stroke-width="0"/><polygon points="-.11 190.04 -.77 195.6 4.63 195.84 4.41 192.49 -.11 190.04" fill="#ecbb94" stroke-width="0"/><polygon points="-.11 190.04 4.41 192.49 6.44 187.09 1.32 187.16 -.11 190.04" fill="#dcc5b9" stroke-width="0"/><polygon points="1.32 187.16 6.44 187.09 7.78 183.54 4.83 179.62 3.52 182.7 1.32 187.16" fill="#e4b087" stroke-width="0"/><polygon points="7.78 183.54 9.13 179.96 10.04 178.03 10.04 178.03 7.01 174.49 4.83 179.62 7.78 183.54" fill="#decabb" stroke-width="0"/><polygon points="7.01 174.48 10.42 172.95 9.48 168.67 7.01 174.48" fill="#bd9d8d" stroke-width="0"/><polygon points="7.01 174.48 7.01 174.49 10.04 178.03 13 171.79 10.42 172.95 7.01 174.48" fill="#dfcbc2" stroke-width="0"/><polygon points="9.48 168.67 10.42 172.95 13 171.79 15.73 166.02 10.98 165.15 9.48 168.67" fill="#ac9891" stroke-width="0"/><polygon points="13.84 152.17 12.43 158.54 12.44 158.54 19.91 161.18 16.57 156.22 13.84 152.17" fill="#9d7f7a" stroke-width="0"/><polygon points="12.43 158.54 10.98 165.15 15.73 166.02 19.91 161.18 12.44 158.54 12.43 158.54" fill="#a07e6a" stroke-width="0"/><polygon points="13.84 152.17 16.57 156.22 22.08 156.22 20.53 151.09 18.85 145.54 13.84 152.17" fill="#8e7268" stroke-width="0"/><polygon points="22.41 158.13 23.38 163.79 30.07 161.29 32.99 156.45 26.21 157.52 22.41 158.13" fill="#8e7268" stroke-width="0"/><polygon points="18.85 145.54 20.53 151.09 26.31 149.42 20.85 142.9 18.85 145.54" fill="#7d5e5a" stroke-width="0"/><polygon points="23.04 132.21 20.91 140.54 20.85 142.9 26.31 149.42 27.95 141.48 28.03 141.28 31.55 136.45 29.2 135.28 23.04 132.21" fill="#7f4a42" stroke-width="0"/><polygon points="28.03 141.28 27.95 141.48 32.99 156.45 37.01 149.78 44.23 141.48 38.23 139.09 31.55 136.45 28.03 141.28" fill="#7b4d4a" stroke-width="0"/><polygon points="36.68 130.87 38.23 139.09 44.23 141.48 44.24 141.48 50.2 134.62 50.08 124.86 46.89 126.3 44.48 127.38 36.68 130.87" fill="#805554" stroke-width="0"/><polygon points="25.14 123.95 23.04 132.21 29.2 135.28 33.28 132.88 25.14 123.95" fill="#805554" stroke-width="0"/><polygon points="28.17 112.06 25.14 123.95 34.24 125.56 33.55 112.68 33.31 108.27 28.17 112.06" fill="#79514e" stroke-width="0"/><polygon points="33.31 108.27 33.55 112.68 42.92 122.25 44.6 99.94 33.31 108.27" fill="#805554" stroke-width="0"/><polygon points="44.6 99.94 44.6 99.94 42.92 122.25 42.92 122.25 46.89 123.7 46.9 123.66 48.55 106.9 49.6 96.25 44.6 99.94" fill="#785858" stroke-width="0"/><polygon points="50.2 212.44 51.92 214.22 54.94 212.21 51.83 208.31 51.14 210.17 50.2 212.44" fill="#ecbb94" stroke-width="0"/><polygon points="56.83 212.54 55.05 217.47 57.59 215.25 56.83 212.54" fill="#b4846f" stroke-width="0"/><polygon points="51.92 214.22 55.05 217.47 56.83 212.54 57.55 210.48 54.94 212.21 51.92 214.22" fill="#f5b887" stroke-width="0"/><polygon points="47.8 218.24 55.05 217.47 51.92 214.22 50.2 212.44 47.8 218.24" fill="#b78264" stroke-width="0"/><polygon points="55.05 217.47 55.91 222.57 57.94 222.15 59.03 220.38 57.59 215.25 55.05 217.47" fill="#af705a" stroke-width="0"/><polygon points="47.8 218.24 48.43 219.73 55.91 222.57 55.05 217.47 47.8 218.24" fill="#c38369" stroke-width="0"/><polygon points="56.22 196.48 52.92 205.36 52.95 205.34 60.06 203.37 61.93 198.07 57.91 200.83 56.22 196.48" fill="#e4b087" stroke-width="0"/><polygon points="52.92 205.36 51.83 208.31 54.94 212.21 57.55 210.48 60.06 203.37 52.95 205.34 52.92 205.36" fill="#dcc5b9" stroke-width="0"/><polygon points="56.22 196.48 57.91 200.83 61.93 198.07 62.41 196.69 56.22 196.48" fill="#decabb" stroke-width="0"/><polygon points="57.8 192.2 56.22 196.48 62.41 196.69 64.07 192 57.8 192.2" fill="#dfcbc2" stroke-width="0"/><polygon points="57.8 192.2 64.07 192 65.97 186.6 57.8 192.2" fill="#bd9d8d" stroke-width="0"/><polygon points="60.23 182.53 59.13 188.61 65.97 186.6 70.38 181.42 60.23 182.53" fill="#a07e6a" stroke-width="0"/><polygon points="61.09 177.73 60.23 182.53 70.38 181.42 71.93 178.24 61.09 177.73" fill="#9b7a73" stroke-width="0"/><polygon points="61.09 177.73 71.93 178.24 75.86 170.17 64.63 170.88 61.09 177.73" fill="#8e7268" stroke-width="0"/><polygon points="64.63 170.88 75.86 170.17 80.67 163.9 70.92 165.8 67.92 162.84 64.63 170.88" fill="#866760" stroke-width="0"/><polygon points="67.92 162.84 70.92 165.8 80.67 163.9 73.07 159.92 69.81 158.22 67.92 162.84" fill="#7d5e5a" stroke-width="0"/><polygon points="69.81 158.22 73.07 159.92 80.65 158.34 72.28 152.15 69.81 158.22" fill="#7f4a42" stroke-width="0"/><polygon points="73.07 159.92 80.67 163.9 85.74 157.28 80.65 158.34 73.07 159.92" fill="#995f59" stroke-width="0"/><polygon points="72.28 152.15 80.65 158.34 85.74 157.28 73.8 148.42 72.28 152.15" fill="#7b4d4a" stroke-width="0"/><polygon points="73.8 148.42 85.74 157.28 89.23 150.04 83.2 149.41 83.19 149.41 73.8 148.42" fill="#79514e" stroke-width="0"/><polygon points="73.39 142.94 83.19 149.41 83.2 149.41 89.23 150.04 95.33 146.39 100.98 138.37 88.88 140.37 73.39 142.94" fill="#785858" stroke-width="0"/><polygon points="58.36 141.58 65.55 145.28 73.8 148.42 83.19 149.41 73.39 142.94 68.67 139.83 58.36 141.58" fill="#805554" stroke-width="0"/><polygon points="50.08 124.86 50.2 134.62 53.58 139.12 58.35 141.57 52.91 130.59 52.91 130.59 52.91 130.58 50.08 124.86" fill="#784a4d" stroke-width="0"/><polygon points="59.45 99.3 69.92 111.33 82.04 98.09 83.23 96.8 61.23 96.44 59.45 99.3" fill="#805554" stroke-width="0"/><polygon points="82.04 98.09 87.65 114.81 91.93 104.89 91.93 104.88 97.29 92.44 83.23 96.8 82.04 98.09" fill="#79514e" stroke-width="0"/><polygon points="77.46 124.82 88.88 140.37 100.98 138.37 103.88 124.25 90.92 124.53 77.46 124.82" fill="#805554" stroke-width="0"/><polygon points="87.65 114.81 90.92 124.53 103.88 124.25 107.85 120.37 87.65 114.81" fill="#7d5151" stroke-width="0"/><polygon points="120.24 97.69 124.97 107.58 137.61 95.74 120.24 97.69" fill="#79514e" stroke-width="0"/><polygon points="91.93 104.88 91.93 104.89 102.58 108.95 109.59 90.53 97.29 92.44 91.93 104.88" fill="#805554" stroke-width="0"/><polygon points="87.65 114.81 107.85 120.37 102.58 108.95 91.93 104.89 87.65 114.81" fill="#84575a" stroke-width="0"/><polygon points="102.58 108.95 107.85 120.37 124.97 107.58 110.25 108.48 110.06 108.49 102.58 108.95" fill="#7d5151" stroke-width="0"/><polygon points="115.23 87.22 119.4 95.95 129.13 79.05 115.23 87.22" fill="#7d5151" stroke-width="0"/><polygon points="119.4 95.95 120.24 97.69 137.61 95.74 143.57 90.16 136.36 90.73 126.51 91.51 135.3 75.43 129.13 79.05 119.4 95.95" fill="#785858" stroke-width="0"/><path d="M18.45,171.03" fill="none" stroke="#1d1d1b" stroke-miterlimit="10" stroke-width=".23"/><polygon points="16.57 156.22 19.91 161.18 23.38 163.79 22.41 158.13 22.08 156.22 16.57 156.22" fill="#9b7a73" stroke-width="0"/><polygon points="59.13 188.61 57.8 192.2 65.97 186.6 59.13 188.61" fill="#ac9891" stroke-width="0"/><polygon points="27.95 141.48 26.31 149.42 26.21 157.52 32.99 156.45 27.95 141.48" fill="#995f59" stroke-width="0"/><polygon points="20.53 151.09 22.08 156.22 22.41 158.13 26.21 157.52 26.31 149.42 20.53 151.09" fill="#866760" stroke-width="0"/><polygon points="29.2 135.28 31.55 136.45 38.23 139.09 36.68 130.87 33.28 132.88 29.2 135.28" fill="#79514e" stroke-width="0"/><polygon points="25.14 123.95 33.28 132.88 36.68 130.87 44.48 127.38 34.24 125.56 25.14 123.95" fill="#7d5151" stroke-width="0"/><polygon points="33.55 112.68 34.24 125.56 44.48 127.38 46.89 126.3 42.92 122.25 42.92 122.25 33.55 112.68" fill="#84575a" stroke-width="0"/><polygon points="52.91 130.59 58.35 141.57 58.36 141.58 68.67 139.83 52.91 130.59" fill="#7d5151" stroke-width="0"/><polygon points="48.55 106.9 46.9 123.66 46.89 123.7 50.08 124.86 52.91 130.58 49.97 114.61 49.97 114.61 48.55 106.9" fill="#79514e" stroke-width="0"/><polygon points="49.97 114.61 49.97 114.61 52.91 130.58 52.91 130.59 67.02 114.61 68.63 112.79 69.92 111.33 59.45 99.3 49.97 114.61" fill="#84575a" stroke-width="0"/><polygon points="52.91 130.59 52.91 130.59 68.67 139.83 67.02 114.61 52.91 130.59" fill="#785858" stroke-width="0"/><polygon points="67.02 114.61 68.67 139.83 73.39 142.94 88.88 140.37 77.46 124.82 68.63 112.79 67.02 114.61" fill="#79514e" stroke-width="0"/><polygon points="68.63 112.79 77.46 124.82 90.92 124.53 87.65 114.81 82.04 98.09 69.92 111.33 68.63 112.79" fill="#784a4d" stroke-width="0"/><polygon points="115.23 87.22 110.25 108.48 124.97 107.58 120.24 97.69 119.4 95.95 115.23 87.22" fill="#784a4d" stroke-width="0"/><polygon points="106.35 99.04 102.58 108.95 110.06 108.49 106.35 99.04" fill="#785858" stroke-width="0"/><polygon points="126.51 91.51 136.36 90.73 133.58 86.36 126.51 91.51" fill="#7d5151" stroke-width="0"/><polygon points="126.51 91.51 133.58 86.36 139.15 82.29 135.3 75.43 126.51 91.51" fill="#79514e" stroke-width="0"/><polygon points="133.58 86.36 136.36 90.73 143.57 90.16 139.15 82.29 133.58 86.36" fill="#8d5e63" stroke-width="0"/><polygon points="135.3 75.43 139.15 82.29 143.57 90.16 150.37 73.65 150.37 73.65 143.45 70.67 143.42 70.66 143.29 70.73 143.06 70.86 143.06 70.86 135.3 75.43" fill="#895d5f" stroke-width="0"/><path d="M166.34,50.84" fill="none" stroke="#1d1d1b" stroke-miterlimit="10" stroke-width=".23"/><polygon points="176.85 70 178.01 72.46 178.38 73.24 180.89 71.71 179.8 71.19 176.93 69.84 176.85 70" fill="#3d3d3d" stroke-width="0"/><polygon points="163.87 67.55 164.08 75.34 167.99 74.85 167.87 69.24 167.79 65.6 167.75 63.57 166.08 65.28 163.87 67.55" fill="#cd9ca9" stroke-width="0"/><polygon points="172.42 64 180.91 64.17 177.36 57.53 175.63 58.99 173.43 61.89 172.42 64" fill="#d5b3b7" stroke-width="0"/><polygon points="169.37 70.38 171.84 79.33 176.85 70 176.93 69.84 176.94 69.82 172.42 64 171.77 65.36 169.37 70.38" fill="#ccafaf" stroke-width="0"/><polygon points="160.73 49.28 161.2 54.59 166.28 60.06 174.19 60.2 160.73 49.28" fill="#c39494" stroke-width="0"/><polygon points="166.28 60.06 167.75 63.57 167.79 65.6 174.19 60.2 166.28 60.06" fill="#cea3a3" stroke-width="0"/><polygon points="159.32 62.97 163.87 67.55 166.08 65.28 167.75 63.57 166.28 60.06 159.32 62.97" fill="#c695a0" stroke-width="0"/><polygon points="152.99 65.96 157.31 69.29 163.87 67.55 159.32 62.97 157.64 63.67 153.21 65.85 152.99 65.96" fill="#b68a92" stroke-width="0"/><polygon points="143.45 70.67 150.37 73.65 160.44 77.97 160.44 77.97 157.31 69.29 152.99 65.96 150.22 67.32 143.45 70.67" fill="#9b676d" stroke-width="0"/><polygon points="90.32 216.22 89.13 212.04 85.89 210.14 83.96 210.67 87.72 217.67 90.32 216.22" fill="#9b676d" stroke-width="0"/><polygon points="87.72 217.67 83.96 210.67 82.29 216.4 84.79 220.84 87.72 217.67" fill="#a77b81" stroke-width="0"/><polygon points="91.72 230.77 92.59 226.34 85.35 224.68 86.19 230.45 88.8 231.37 91.39 229.97 91.72 230.77" fill="#cecdce" stroke-width="0"/><polygon points="92.59 226.34 93.88 219.81 90.32 216.22 87.72 217.67 84.79 220.84 85.35 224.68 92.59 226.34" fill="#d7d8d8" stroke-width="0"/><polygon points="98.23 224.22 93.88 219.81 92.59 226.34 91.72 230.77 92.76 233.29 98.23 224.22" fill="#cdb8b9" stroke-width="0"/><polygon points="89.87 231.95 88.8 231.37 86.19 230.45 85.4 236.1 89.87 231.95" fill="#c9c3c4" stroke-width="0"/><polygon points="92.65 233.45 92.66 233.44 89.87 231.95 85.4 236.1 88.41 238.9 96.87 239.5 92.65 233.45" fill="#cdb8b9" stroke-width="0"/><polygon points="101.58 238.13 101.68 234.71 101.68 234.49 101.85 228.88 100.96 228.94 98.23 224.22 100.25 233.28 97.59 238.17 96.87 239.5 95.76 241.55 93.42 244.34 94.91 243.2 101.09 238.5 101.58 238.13" fill="#c5a3a2" stroke-width="0"/><polygon points="112.23 234.97 109.55 226.14 105.78 228.59 105.6 236.39 112.23 234.97" fill="#a77b81" stroke-width="0"/><polygon points="127.01 214.82 109.55 226.14 119.38 230.97 119.39 230.97 127.01 214.82" fill="#8c5b60" stroke-width="0"/><path d="M160.96,216.15l3.66-8.33-3.23-9.62h-.2s-6.04,20.98-6.04,20.98l5.8-3.03ZM221.16,213.46l1.58-10.59-1.03-7.77-10.24,14.81-1.92,2.77,11.6.77ZM229.14,187.83l-3.76-4.24-3.26,1.27,3.13,1.33,3.89,1.65Z" fill="#7d5151" stroke-width="0"/><polygon points="250.74 147.32 247.32 144.47 243.94 149.49 250.74 147.32" fill="#9b7a73" stroke-width="0"/><polygon points="254.08 150.1 255.6 142.47 247.32 144.47 250.74 147.32 254.08 150.1" fill="#a07e6a" stroke-width="0"/><polygon points="255.6 142.47 255.61 142.46 256.03 140.33 252.28 137.95 249.79 140.8 247.32 144.47 255.6 142.47" fill="#ac9891" stroke-width="0"/><polygon points="256.03 140.33 257.78 131.62 252.28 137.95 256.03 140.33" fill="#bd9d8d" stroke-width="0"/><polygon points="257.78 131.62 251.89 134.47 249.79 140.8 252.28 137.95 257.78 131.62" fill="#dfcbc2" stroke-width="0"/><polygon points="257.78 131.62 257.78 131.62 258.2 129.51 258.74 127.47 253.73 128.92 251.89 134.47 257.78 131.62" fill="#decabb" stroke-width="0"/><polygon points="258.74 127.47 259.56 124.38 255.78 122.72 253.73 128.92 258.74 127.47" fill="#e4b087" stroke-width="0"/><polygon points="259.56 124.38 261.84 115.79 256.22 120.89 255.78 122.72 259.56 124.38" fill="#dcc5b9" stroke-width="0"/><polygon points="261.84 115.79 262.39 110.24 257.7 114.72 256.22 120.89 261.84 115.79" fill="#ecbb94" stroke-width="0"/><polygon points="262.39 110.24 256.39 109.36 257.7 114.72 262.39 110.24" fill="#b4846f" stroke-width="0"/><polygon points="262.39 110.24 262.5 109.09 255.52 105.81 256.39 109.36 262.39 110.24" fill="#c38369" stroke-width="0"/><polygon points="277.99 114.73 271.02 111.3 271.08 116.25 276.46 116.76 277.99 114.73" fill="#b78264" stroke-width="0"/><polygon points="275.52 122.28 276.46 116.76 271.08 116.25 271.13 119.61 275.52 122.28" fill="#ecbb94" stroke-width="0"/><polygon points="275.52 122.28 271.13 119.61 268.83 124.9 273.95 125.09 275.52 122.28" fill="#dcc5b9" stroke-width="0"/><polygon points="273.95 125.09 268.83 124.9 267.32 128.37 270.07 132.45 271.53 129.43 273.95 125.09" fill="#e4b087" stroke-width="0"/><polygon points="267.32 128.37 265.79 131.89 264.78 133.77 264.78 133.77 267.63 137.46 270.07 132.45 267.32 128.37" fill="#decabb" stroke-width="0"/><polygon points="267.63 137.46 264.15 138.82 264.87 143.14 267.63 137.46" fill="#bd9d8d" stroke-width="0"/><polygon points="267.63 137.46 267.63 137.46 264.78 133.77 261.51 139.85 264.15 138.82 267.63 137.46" fill="#dfcbc2" stroke-width="0"/><polygon points="264.87 143.14 264.15 138.82 261.51 139.85 258.49 145.48 263.2 146.59 264.87 143.14" fill="#ac9891" stroke-width="0"/><polygon points="259.69 159.4 261.41 153.12 261.41 153.12 254.08 150.1 257.16 155.22 259.69 159.4" fill="#9d7f7a" stroke-width="0"/><polygon points="261.41 153.12 263.2 146.59 258.49 145.48 254.08 150.1 261.41 153.12 261.41 153.12" fill="#a07e6a" stroke-width="0"/><polygon points="259.69 159.4 257.16 155.22 251.66 154.94 252.96 160.14 254.35 165.77 259.69 159.4" fill="#8e7268" stroke-width="0"/><polygon points="251.43 153.02 250.74 147.32 243.94 149.49 240.78 154.17 247.6 153.44 251.43 153.02" fill="#8e7268" stroke-width="0"/><polygon points="254.35 165.77 252.96 160.14 247.1 161.53 252.23 168.31 254.35 165.77" fill="#7d5e5a" stroke-width="0"/><polygon points="249.5 178.88 252.04 170.66 252.23 168.31 247.1 161.53 245.06 169.37 244.97 169.57 241.2 174.22 243.49 175.5 249.5 178.88" fill="#7f4a42" stroke-width="0"/><polygon points="244.97 169.57 245.06 169.37 240.78 154.17 236.42 160.62 228.79 168.56 234.68 171.24 241.2 174.22 244.97 169.57" fill="#7b4d4a" stroke-width="0"/><polygon points="235.8 179.53 234.68 171.24 228.79 168.56 228.79 168.56 222.49 175.11 222.12 184.86 225.38 183.59 227.84 182.63 235.8 179.53" fill="#805554" stroke-width="0"/><polygon points="246.98 187.02 249.5 178.88 243.49 175.5 239.3 177.7 246.98 187.02" fill="#805554" stroke-width="0"/><polygon points="243.36 198.74 246.98 187.02 237.98 184.95 238.02 197.85 238.04 202.27 243.36 198.74" fill="#79514e" stroke-width="0"/><polygon points="238.04 202.27 238.02 197.85 229.14 187.83 226.34 210.02 238.04 202.27" fill="#805554" stroke-width="0"/><polygon points="226.34 210.03 226.34 210.02 229.14 187.83 229.14 187.83 225.25 186.18 225.23 186.22 222.74 202.87 221.16 213.46 226.34 210.03" fill="#785858" stroke-width="0"/><polygon points="226.4 97.39 224.78 95.52 221.65 97.38 224.57 101.43 225.35 99.61 226.4 97.39" fill="#ecbb94" stroke-width="0"/><polygon points="219.79 96.95 221.81 92.12 219.17 94.21 219.79 96.95" fill="#b4846f" stroke-width="0"/><polygon points="224.78 95.52 221.81 92.12 219.79 96.95 218.96 98.97 221.65 97.38 224.78 95.52" fill="#f5b887" stroke-width="0"/><polygon points="229.08 91.71 221.81 92.12 224.78 95.52 226.4 97.39 229.08 91.71" fill="#b78264" stroke-width="0"/><polygon points="221.81 92.12 221.2 86.98 219.16 87.3 217.98 89.01 219.17 94.21 221.81 92.12" fill="#af705a" stroke-width="0"/><polygon points="229.08 91.71 228.53 90.2 221.2 86.98 221.81 92.12 229.08 91.71" fill="#c38369" stroke-width="0"/><polygon points="219.59 113.02 223.33 104.32 223.29 104.34 216.1 105.95 213.97 111.15 218.12 108.6 219.59 113.02" fill="#e4b087" stroke-width="0"/><polygon points="223.33 104.32 224.57 101.43 221.65 97.38 218.96 98.97 216.1 105.95 223.29 104.34 223.33 104.32" fill="#dcc5b9" stroke-width="0"/><polygon points="219.59 113.02 218.12 108.6 213.97 111.15 213.41 112.5 219.59 113.02" fill="#decabb" stroke-width="0"/><polygon points="217.79 117.21 219.59 113.02 213.41 112.5 211.52 117.11 217.79 117.21" fill="#dfcbc2" stroke-width="0"/><polygon points="217.79 117.21 211.52 117.11 209.35 122.4 217.79 117.21" fill="#bd9d8d" stroke-width="0"/><polygon points="214.88 126.75 216.28 120.73 209.35 122.4 204.69 127.35 214.88 126.75" fill="#a07e6a" stroke-width="0"/><polygon points="213.78 131.5 214.88 126.75 204.69 127.35 202.98 130.45 213.78 131.5" fill="#9b7a73" stroke-width="0"/><polygon points="213.78 131.5 202.98 130.45 198.65 138.31 209.9 138.16 213.78 131.5" fill="#8e7268" stroke-width="0"/><polygon points="209.9 138.16 198.65 138.31 193.54 144.33 203.36 142.92 206.21 146.03 209.9 138.16" fill="#866760" stroke-width="0"/><polygon points="206.21 146.03 203.36 142.92 193.54 144.33 200.92 148.68 204.1 150.55 206.21 146.03" fill="#7d5e5a" stroke-width="0"/><polygon points="204.1 150.55 200.92 148.68 193.27 149.89 201.32 156.49 204.1 150.55" fill="#7f4a42" stroke-width="0"/><polygon points="200.92 148.68 193.54 144.33 188.13 150.69 193.27 149.89 200.92 148.68" fill="#995f59" stroke-width="0"/><polygon points="201.32 156.49 193.27 149.89 188.13 150.69 199.61 160.13 201.32 156.49" fill="#7b4d4a" stroke-width="0"/><polygon points="199.61 160.13 188.13 150.69 184.29 157.75 190.27 158.68 190.28 158.68 199.61 160.13" fill="#79514e" stroke-width="0"/><polygon points="199.75 165.63 190.28 158.68 190.27 158.68 184.29 157.75 178.01 161.08 171.96 168.81 184.15 167.42 199.75 165.63" fill="#785858" stroke-width="0"/><polygon points="214.69 167.75 207.69 163.69 199.61 160.13 190.28 158.68 199.75 165.63 204.31 168.98 214.69 167.75" fill="#805554" stroke-width="0"/><polygon points="222.12 184.86 222.49 175.11 219.34 170.44 214.7 167.75 219.58 179 219.58 179 219.58 179 222.12 184.86" fill="#784a4d" stroke-width="0"/><polygon points="211.47 209.92 201.63 197.38 188.85 209.99 187.6 211.22 209.56 212.69 211.47 209.92" fill="#805554" stroke-width="0"/><polygon points="188.85 209.99 184.09 193.01 179.32 202.7 179.32 202.71 173.34 214.87 187.6 211.22 188.85 209.99" fill="#79514e" stroke-width="0"/><polygon points="194.77 183.52 184.15 167.42 171.96 168.81 168.36 182.76 181.32 183.13 194.77 183.52" fill="#805554" stroke-width="0"/><polygon points="184.09 193.01 181.32 183.13 168.36 182.76 164.2 186.45 184.09 193.01" fill="#7d5151" stroke-width="0"/><polygon points="150.69 208.47 146.46 198.36 133.24 209.55 150.69 208.47" fill="#79514e" stroke-width="0"/><polygon points="179.32 202.71 179.32 202.7 168.89 198.11 160.96 216.15 173.34 214.87 179.32 202.71" fill="#805554" stroke-width="0"/><polygon points="184.09 193.01 164.2 186.45 168.89 198.11 179.32 202.7 184.09 193.01" fill="#84575a" stroke-width="0"/><polygon points="168.89 198.11 164.2 186.45 146.46 198.36 161.2 198.2 161.4 198.2 168.89 198.11" fill="#7d5151" stroke-width="0"/><polygon points="155.17 219.18 151.43 210.26 140.87 226.64 155.17 219.18" fill="#7d5151" stroke-width="0"/><polygon points="151.43 210.26 150.69 208.47 133.24 209.55 127.01 214.82 134.24 214.61 144.11 214.32 134.53 229.95 140.87 226.64 151.43 210.26" fill="#785858" stroke-width="0"/><path d="M256.03,140.33" fill="none" stroke="#1d1d1b" stroke-miterlimit="10" stroke-width=".23"/><polygon points="257.16 155.22 254.08 150.1 250.74 147.32 251.43 153.02 251.66 154.94 257.16 155.22" fill="#9b7a73" stroke-width="0"/><polygon points="216.28 120.73 217.79 117.21 209.35 122.4 216.28 120.73" fill="#ac9891" stroke-width="0"/><polygon points="245.06 169.37 247.1 161.53 247.6 153.44 240.78 154.17 245.06 169.37" fill="#995f59" stroke-width="0"/><polygon points="252.96 160.14 251.66 154.94 251.43 153.02 247.6 153.44 247.1 161.53 252.96 160.14" fill="#866760" stroke-width="0"/><polygon points="243.49 175.5 241.2 174.22 234.68 171.24 235.8 179.53 239.3 177.7 243.49 175.5" fill="#79514e" stroke-width="0"/><polygon points="246.98 187.02 239.3 177.7 235.8 179.53 227.84 182.63 237.98 184.95 246.98 187.02" fill="#7d5151" stroke-width="0"/><polygon points="238.02 197.85 237.98 184.95 227.84 182.63 225.38 183.59 229.14 187.83 229.14 187.83 238.02 197.85" fill="#84575a" stroke-width="0"/><polygon points="219.58 179 214.7 167.75 214.69 167.75 204.31 168.98 219.58 179" fill="#7d5151" stroke-width="0"/><polygon points="222.74 202.87 225.23 186.22 225.25 186.18 222.12 184.86 219.58 179 221.71 195.1 221.71 195.1 222.74 202.87" fill="#79514e" stroke-width="0"/><polygon points="221.71 195.1 221.71 195.1 219.58 179 219.58 179 204.69 194.25 202.99 195.99 201.63 197.38 211.47 209.92 221.71 195.1" fill="#84575a" stroke-width="0"/><polygon points="219.58 179 219.58 179 204.31 168.98 204.69 194.25 219.58 179" fill="#785858" stroke-width="0"/><polygon points="204.69 194.25 204.31 168.98 199.75 165.63 184.15 167.42 194.77 183.52 202.99 195.99 204.69 194.25" fill="#79514e" stroke-width="0"/><polygon points="202.99 195.99 194.77 183.52 181.32 183.13 184.09 193.01 188.85 209.99 201.63 197.38 202.99 195.99" fill="#784a4d" stroke-width="0"/><polygon points="155.17 219.18 161.2 198.2 146.46 198.36 150.69 208.47 151.43 210.26 155.17 219.18" fill="#784a4d" stroke-width="0"/><polygon points="164.62 207.82 168.89 198.11 161.4 198.2 164.62 207.82" fill="#785858" stroke-width="0"/><polygon points="144.11 214.32 134.24 214.61 136.79 219.12 144.11 214.32" fill="#7d5151" stroke-width="0"/><polygon points="144.11 214.32 136.79 219.12 131.03 222.9 134.53 229.95 144.11 214.32" fill="#79514e" stroke-width="0"/><polygon points="136.79 219.12 134.24 214.61 127.01 214.82 131.03 222.9 136.79 219.12" fill="#8d5e63" stroke-width="0"/><polygon points="134.53 229.95 131.03 222.9 127.01 214.82 119.39 230.97 119.38 230.97 126.15 234.29 126.17 234.3 126.31 234.24 126.54 234.12 126.55 234.12 134.53 229.95" fill="#895d5f" stroke-width="0"/><path d="M102.28,252.95" fill="none" stroke="#1d1d1b" stroke-miterlimit="10" stroke-width=".23"/><polygon points="92.76 233.29 91.72 230.77 91.39 229.97 88.8 231.37 89.87 231.95 92.66 233.44 92.76 233.29" fill="#3d3d3d" stroke-width="0"/><polygon points="105.6 236.39 105.78 228.59 101.85 228.88 101.68 234.49 101.58 238.13 101.52 240.16 103.28 238.53 105.6 236.39" fill="#cd9ca9" stroke-width="0"/><polygon points="96.87 239.5 88.41 238.9 91.61 245.71 93.42 244.34 95.76 241.55 96.87 239.5" fill="#d5b3b7" stroke-width="0"/><polygon points="100.25 233.28 98.23 224.22 92.76 233.29 92.66 233.44 92.65 233.45 96.87 239.5 97.59 238.17 100.25 233.28" fill="#ccafaf" stroke-width="0"/><polygon points="107.81 254.79 107.61 249.45 102.81 243.74 94.91 243.2 107.81 254.79" fill="#c39494" stroke-width="0"/><polygon points="102.81 243.74 101.52 240.16 101.58 238.13 94.91 243.2 102.81 243.74" fill="#cea3a3" stroke-width="0"/><polygon points="109.91 241.18 105.6 236.39 103.28 238.53 101.52 240.16 102.81 243.74 109.91 241.18" fill="#c695a0" stroke-width="0"/><polygon points="116.38 238.52 112.23 234.97 105.6 236.39 109.91 241.18 111.62 240.57 116.16 238.61 116.38 238.52" fill="#b68a92" stroke-width="0"/><polygon points="126.15 234.29 119.38 230.97 109.55 226.14 109.55 226.14 112.23 234.97 116.38 238.52 119.21 237.29 126.15 234.29" fill="#9b676d" stroke-width="0"/><polygon points="166.95 -3.98 165.64 4.8 170.82 -1.79 166.95 -3.98" fill="#bd9d8d" stroke-width="0"/><polygon points="165.64 4.8 171.38 1.67 173.16 -4.77 170.82 -1.79 165.64 4.8" fill="#dfcbc2" stroke-width="0"/><polygon points="165.64 4.8 165.64 4.8 165.33 6.94 164.89 9 169.82 7.3 171.38 1.67 165.64 4.8" fill="#decabb" stroke-width="0"/><polygon points="164.89 9 164.23 12.13 168.09 13.6 169.82 7.3 164.89 9" fill="#e4b087" stroke-width="0"/><polygon points="164.23 12.13 162.38 20.82 167.74 15.44 168.09 13.6 164.23 12.13" fill="#dcc5b9" stroke-width="0"/><polygon points="162.38 20.82 162.11 26.39 166.57 21.68 167.74 15.44 162.38 20.82" fill="#ecbb94" stroke-width="0"/><polygon points="162.11 26.39 168.15 26.97 166.57 21.68 162.11 26.39" fill="#b4846f" stroke-width="0"/><polygon points="162.11 26.39 162.05 27.54 169.19 30.47 168.15 26.97 162.11 26.39" fill="#c38369" stroke-width="0"/><polygon points="146.31 22.69 153.44 25.77 153.13 20.83 147.73 20.59 146.31 22.69" fill="#b78264" stroke-width="0"/><polygon points="148.39 15.03 147.73 20.59 153.13 20.83 152.91 17.47 148.39 15.03" fill="#ecbb94" stroke-width="0"/><polygon points="148.39 15.03 152.91 17.47 154.94 12.07 149.82 12.14 148.39 15.03" fill="#dcc5b9" stroke-width="0"/><polygon points="149.82 12.14 154.94 12.07 156.28 8.53 153.33 4.6 152.02 7.69 149.82 12.14" fill="#e4b087" stroke-width="0"/><polygon points="156.28 8.53 157.63 4.94 158.54 3.01 158.54 3.01 155.51 -.53 153.33 4.6 156.28 8.53" fill="#decabb" stroke-width="0"/><polygon points="155.51 -.54 155.51 -.53 158.54 3.01 161.5 -3.23 158.92 -2.07 155.51 -.54" fill="#dfcbc2" stroke-width="0"/><polygon points="198.7 37.42 200.42 39.2 203.44 37.19 200.33 33.29 199.64 35.15 198.7 37.42" fill="#ecbb94" stroke-width="0"/><polygon points="205.33 37.52 203.55 42.45 206.09 40.23 205.33 37.52" fill="#b4846f" stroke-width="0"/><polygon points="200.42 39.2 203.55 42.45 205.33 37.52 206.05 35.46 203.44 37.19 200.42 39.2" fill="#f5b887" stroke-width="0"/><polygon points="196.3 43.22 203.55 42.45 200.42 39.2 198.7 37.42 196.3 43.22" fill="#b78264" stroke-width="0"/><polygon points="203.55 42.45 204.41 47.55 206.44 47.13 207.53 45.37 206.09 40.23 203.55 42.45" fill="#af705a" stroke-width="0"/><polygon points="196.3 43.22 196.93 44.71 204.41 47.55 203.55 42.45 196.3 43.22" fill="#c38369" stroke-width="0"/><polygon points="204.72 21.46 201.42 30.34 201.45 30.32 208.56 28.35 210.43 23.05 206.41 25.81 204.72 21.46" fill="#e4b087" stroke-width="0"/><polygon points="201.42 30.34 200.33 33.29 203.44 37.19 206.05 35.46 208.56 28.35 201.45 30.32 201.42 30.34" fill="#dcc5b9" stroke-width="0"/><polygon points="204.72 21.46 206.41 25.81 210.43 23.05 210.91 21.68 204.72 21.46" fill="#decabb" stroke-width="0"/><polygon points="206.3 17.19 204.72 21.46 210.91 21.68 212.57 16.98 206.3 17.19" fill="#dfcbc2" stroke-width="0"/><polygon points="206.3 17.19 212.57 16.98 214.47 11.58 206.3 17.19" fill="#bd9d8d" stroke-width="0"/><polygon points="208.73 7.52 207.63 13.59 214.47 11.58 218.88 6.41 208.73 7.52" fill="#a07e6a" stroke-width="0"/><polygon points="209.59 2.72 208.73 7.52 218.88 6.41 220.43 3.22 209.59 2.72" fill="#9b7a73" stroke-width="0"/><polygon points="209.59 2.72 220.43 3.22 224.36 -4.85 213.13 -4.14 209.59 2.72" fill="#8e7268" stroke-width="0"/><polygon points="207.63 13.59 206.3 17.19 214.47 11.58 207.63 13.59" fill="#ac9891" stroke-width="0"/><polygon points="238.82 41.2 237.63 37.02 234.39 35.12 232.46 35.65 236.22 42.66 238.82 41.2" fill="#9b676d" stroke-width="0"/><polygon points="236.22 42.66 232.46 35.65 230.79 41.38 233.29 45.82 236.22 42.66" fill="#a77b81" stroke-width="0"/><polygon points="240.22 55.75 241.09 51.32 233.85 49.67 234.69 55.44 237.3 56.36 239.89 54.95 240.22 55.75" fill="#cecdce" stroke-width="0"/><polygon points="241.09 51.32 242.38 44.8 238.82 41.2 236.22 42.66 233.29 45.82 233.85 49.67 241.09 51.32" fill="#d7d8d8" stroke-width="0"/><polygon points="246.73 49.2 242.38 44.8 241.09 51.32 240.22 55.75 241.26 58.27 246.73 49.2" fill="#cdb8b9" stroke-width="0"/><polygon points="238.37 56.93 237.3 56.36 234.69 55.44 233.9 61.08 238.37 56.93" fill="#c9c3c4" stroke-width="0"/><polygon points="241.15 58.43 241.16 58.42 238.37 56.93 233.9 61.08 236.91 63.88 245.37 64.48 241.15 58.43" fill="#cdb8b9" stroke-width="0"/><polygon points="250.08 63.11 250.18 59.69 250.18 59.47 250.35 53.86 249.46 53.93 246.73 49.2 248.75 58.26 246.09 63.16 245.37 64.48 244.26 66.53 241.92 69.32 243.41 68.18 249.59 63.48 250.08 63.11" fill="#c5a3a2" stroke-width="0"/><polygon points="260.73 59.95 258.05 51.12 254.28 53.57 254.1 61.37 260.73 59.95" fill="#a77b81" stroke-width="0"/><polygon points="275.51 39.8 258.05 51.13 267.88 55.95 267.89 55.95 275.51 39.8" fill="#8c5b60" stroke-width="0"/><polygon points="299.19 33.45 294.96 23.34 281.74 34.53 299.19 33.45" fill="#79514e" stroke-width="0"/><polygon points="317.39 23.09 312.7 11.43 294.96 23.34 309.7 23.18 309.9 23.18 317.39 23.09" fill="#7d5151" stroke-width="0"/><polygon points="303.67 44.16 299.93 35.24 289.37 51.62 303.67 44.16" fill="#7d5151" stroke-width="0"/><polygon points="299.93 35.24 299.19 33.45 281.74 34.53 275.51 39.8 282.74 39.59 292.61 39.3 283.03 54.93 289.37 51.62 299.93 35.24" fill="#785858" stroke-width="0"/><polygon points="303.67 44.16 309.7 23.18 294.96 23.34 299.19 33.45 299.93 35.24 303.67 44.16" fill="#784a4d" stroke-width="0"/><polygon points="292.61 39.3 282.74 39.59 285.29 44.1 292.61 39.3" fill="#7d5151" stroke-width="0"/><polygon points="292.61 39.3 285.29 44.1 279.53 47.88 283.03 54.93 292.61 39.3" fill="#79514e" stroke-width="0"/><polygon points="285.29 44.1 282.74 39.59 275.51 39.8 279.53 47.88 285.29 44.1" fill="#8d5e63" stroke-width="0"/><polygon points="283.03 54.93 279.53 47.88 275.51 39.8 267.89 55.95 267.88 55.95 274.65 59.27 274.67 59.28 274.81 59.22 275.04 59.1 275.05 59.1 283.03 54.93" fill="#895d5f" stroke-width="0"/><path d="M250.78,77.93" fill="none" stroke="#1d1d1b" stroke-miterlimit="10" stroke-width=".23"/><polygon points="241.26 58.27 240.22 55.75 239.89 54.95 237.3 56.36 238.37 56.93 241.16 58.42 241.26 58.27" fill="#3d3d3d" stroke-width="0"/><polygon points="254.1 61.37 254.28 53.57 250.35 53.86 250.18 59.47 250.08 63.11 250.02 65.14 251.78 63.52 254.1 61.37" fill="#cd9ca9" stroke-width="0"/><polygon points="245.37 64.48 236.91 63.88 240.11 70.69 241.92 69.32 244.26 66.53 245.37 64.48" fill="#d5b3b7" stroke-width="0"/><polygon points="248.75 58.26 246.73 49.2 241.26 58.27 241.16 58.42 241.15 58.43 245.37 64.48 246.09 63.16 248.75 58.26" fill="#ccafaf" stroke-width="0"/><polygon points="256.31 79.77 256.11 74.44 251.31 68.72 243.41 68.18 256.31 79.77" fill="#c39494" stroke-width="0"/><polygon points="251.31 68.72 250.02 65.14 250.08 63.11 243.41 68.18 251.31 68.72" fill="#cea3a3" stroke-width="0"/><polygon points="258.41 66.17 254.1 61.37 251.78 63.52 250.02 65.14 251.31 68.72 258.41 66.17" fill="#c695a0" stroke-width="0"/><polygon points="264.88 63.5 260.73 59.95 254.1 61.37 258.41 66.17 260.12 65.55 264.66 63.6 264.88 63.5" fill="#b68a92" stroke-width="0"/><polygon points="274.65 59.27 267.88 55.95 258.05 51.13 258.05 51.12 260.73 59.95 264.88 63.5 267.71 62.28 274.65 59.27" fill="#9b676d" stroke-width="0"/><path d="M12.46,41.14l3.66-8.33-3.23-9.62h-.2s-6.04,20.98-6.04,20.98l5.8-3.03ZM72.66,38.44l1.58-10.59-1.03-7.77-10.24,14.81-1.92,2.77,11.6.77ZM80.64,12.81l-3.76-4.24-3.26,1.27,3.13,1.33,3.89,1.65Z" fill="#7d5151" stroke-width="0"/><polygon points="101 3.86 103.54 -4.35 103.73 -6.71 98.6 -13.49 96.56 -5.65 96.47 -5.45 92.7 -.8 94.99 .49 101 3.86" fill="#7f4a42" stroke-width="0"/><polygon points="87.3 4.51 86.18 -3.78 80.29 -6.46 80.29 -6.46 73.99 .09 73.62 9.84 76.88 8.57 79.34 7.61 87.3 4.51" fill="#805554" stroke-width="0"/><polygon points="98.48 12 101 3.86 94.99 .49 90.8 2.68 98.48 12" fill="#805554" stroke-width="0"/><polygon points="94.86 23.72 98.48 12 89.48 9.94 89.52 22.84 89.54 27.25 94.86 23.72" fill="#79514e" stroke-width="0"/><polygon points="89.54 27.25 89.52 22.84 80.64 12.81 77.84 35.01 89.54 27.25" fill="#805554" stroke-width="0"/><polygon points="77.84 35.01 77.84 35.01 80.64 12.81 80.64 12.81 76.75 11.16 76.73 11.2 74.24 27.86 72.66 38.44 77.84 35.01" fill="#785858" stroke-width="0"/><polygon points="73.62 9.84 73.99 .09 70.84 -4.57 66.2 -7.27 71.08 3.98 71.08 3.98 71.08 3.98 73.62 9.84" fill="#784a4d" stroke-width="0"/><polygon points="62.97 34.9 53.13 22.36 40.35 34.97 39.1 36.21 61.06 37.67 62.97 34.9" fill="#805554" stroke-width="0"/><polygon points="40.35 34.97 35.59 17.99 30.82 27.68 30.82 27.69 24.84 39.85 39.1 36.21 40.35 34.97" fill="#79514e" stroke-width="0"/><polygon points="46.27 8.5 35.65 -7.6 23.46 -6.21 19.86 7.74 32.82 8.12 46.27 8.5" fill="#805554" stroke-width="0"/><polygon points="35.59 17.99 32.82 8.12 19.86 7.74 15.7 11.43 35.59 17.99" fill="#7d5151" stroke-width="0"/><polygon points="2.19 33.45 -2.04 23.34 -15.26 34.53 2.19 33.45" fill="#79514e" stroke-width="0"/><polygon points="30.82 27.69 30.82 27.68 20.39 23.09 12.46 41.14 24.84 39.85 30.82 27.69" fill="#805554" stroke-width="0"/><polygon points="35.59 17.99 15.7 11.43 20.39 23.09 30.82 27.68 35.59 17.99" fill="#84575a" stroke-width="0"/><polygon points="20.39 23.09 15.7 11.43 -2.04 23.34 12.7 23.18 12.9 23.18 20.39 23.09" fill="#7d5151" stroke-width="0"/><polygon points="6.67 44.16 2.93 35.24 -7.63 51.62 6.67 44.16" fill="#7d5151" stroke-width="0"/><polygon points="2.93 35.24 2.19 33.45 -15.26 34.53 -21.49 39.8 -14.26 39.59 -4.39 39.3 -13.97 54.93 -7.63 51.62 2.93 35.24" fill="#785858" stroke-width="0"/><polygon points="94.99 .49 92.7 -.8 86.18 -3.78 87.3 4.51 90.8 2.68 94.99 .49" fill="#79514e" stroke-width="0"/><polygon points="98.48 12 90.8 2.68 87.3 4.51 79.34 7.61 89.48 9.94 98.48 12" fill="#7d5151" stroke-width="0"/><polygon points="89.52 22.84 89.48 9.94 79.34 7.61 76.88 8.57 80.64 12.81 80.64 12.81 89.52 22.84" fill="#84575a" stroke-width="0"/><polygon points="71.08 3.98 66.2 -7.27 66.19 -7.27 55.81 -6.04 71.08 3.98" fill="#7d5151" stroke-width="0"/><polygon points="74.24 27.86 76.73 11.2 76.75 11.16 73.62 9.84 71.08 3.98 73.21 20.08 73.21 20.08 74.24 27.86" fill="#79514e" stroke-width="0"/><polygon points="73.21 20.08 73.21 20.08 71.08 3.98 71.08 3.98 56.19 19.23 54.49 20.97 53.13 22.36 62.97 34.9 73.21 20.08" fill="#84575a" stroke-width="0"/><polygon points="71.08 3.98 71.08 3.98 55.81 -6.04 56.19 19.23 71.08 3.98" fill="#785858" stroke-width="0"/><polygon points="56.19 19.23 55.81 -6.04 51.25 -9.39 35.65 -7.6 46.27 8.5 54.49 20.97 56.19 19.23" fill="#79514e" stroke-width="0"/><polygon points="54.49 20.97 46.27 8.5 32.82 8.12 35.59 17.99 40.35 34.97 53.13 22.36 54.49 20.97" fill="#784a4d" stroke-width="0"/><polygon points="6.67 44.16 12.7 23.18 -2.04 23.34 2.19 33.45 2.93 35.24 6.67 44.16" fill="#784a4d" stroke-width="0"/><polygon points="16.12 32.8 20.39 23.09 12.9 23.18 16.12 32.8" fill="#785858" stroke-width="0"/></pattern></defs><rect width="900" height="750" fill="url(#uuid-85607f50-47c5-42d5-9a20-69d7dddb592e)" stroke-width="0"/><rect width="900" height="750" fill="url(#uuid-85607f50-47c5-42d5-9a20-69d7dddb592e)" stroke-width="0"/></svg>