<?xml version="1.0" encoding="UTF-8"?><svg id="uuid-15570191-c86b-4d37-9e30-532e5d52dcf8" xmlns="http://www.w3.org/2000/svg" width="900" height="750" viewBox="0 0 900 750"><path d="M-1,751c.05-182.21.05-367.93.05-550.14,8.24.24,17.49.56,25.73.69,6.82.1,13.64-.03,20.45-.08,1.8-.01,3.61-.05,5.41-.21.46-.04.88-.58,1.31-.89-.39-.39-.71-.91-1.17-1.14-1.92-.95-3.9-1.79-5.84-2.72-.34-.16-.63-.5-.86-.81-.04-.05.33-.59.56-.63,5.21-1.04,10.41-2.79,15.64-2.91,12.08-.28,24.18.1,36.26.45,8.5.25,16.99.94,25.48,1.36,3.09.15,6.19.11,9.29.09.39,0,.78-.43,1.17-.66-.26-.27-.51-.76-.78-.77-2.51-.12-5.03-.14-7.55-.21-.79-.02-1.58-.09-2.35-.24-.12-.02-.25-.81-.19-.84.72-.32,1.47-.81,2.21-.8,4.02.08,8.04.28,12.06.49.51.03,1,.3,1.5.46-.54.22-1.08.42-1.6.68-.72.35-1.42.74-2.13,1.11.77.42,1.55,1.2,2.31,1.18.98-.04,1.92-.81,2.92-1.09.95-.26,2.74-.62,2.84-.37,1.7,4.17,4.9-1.45,6.73,1.14.05-.06.08-.15.15-.19,1.2-.71,2.4-1.42,3.6-2.13.14.28.29.56.43.85-.97.36-1.95.73-2.92,1.09,1.18.26,2.37.73,3.55.76,3.81.07,7.62.14,11.42-.08,7.97-.47,15.93-1.07,23.89-1.74,5.98-.5,11.95-1.19,17.93-1.83.67-.07,1.31-.43,1.96-.66-.67-.32-1.36-.93-2.02-.9-4.27.18-8.52.65-12.79.75-10.34.24-20.69.51-31.03.42-9.06-.07-18.12-.6-27.18-.95-5.43-.21-10.86-.44-16.29-.67-2.98-.13-5.95-.29-8.92-.43.35.82.93.81,1.15,1.09.21.28.1,1.23.05,1.24-6.16.8-12.31,1.4-18.1-1.86-.59-.33-1.45-.28-2.17-.23-1.66.12-3.31.4-4.97.49-.56.03-1.14-.28-1.71-.44.48-.48,1.01-1.43,1.43-1.38,2.97.33,5.93.83,8.88,1.34,4.54.8,9.09,2.94,14.02-.31-5.64-.83-10.86-1.63-16.08-2.37-3.67-.52-7.35-.93-11.01-1.48-.43-.06-.77-.67-1.16-1.03.42-.2.83-.53,1.26-.57,2.62-.22,5.27-.67,7.88-.51,9.34.58,18.66,1.51,28.01,2.05,14.28.83,28.56,1.72,42.86,2.05,14.04.33,28.1.08,42.15-.11,5.91-.08,11.82-.53,17.71-1.05,6.6-.58,13.18-1.48,19.78-2.14,3.04-.3,6.1-.35,9.15-.52-5.37-1.43-10.75-2.32-16.16-2.69-4.82-.33-9.72.33-14.5-.2-4.35-.48-8.99,1.81-13.21-1.93-1.29-1.15-4.66,0-7.05.31-7.39.97-14.77,2.04-22.15,3.07-.02-.31-.05-.62-.07-.93,1.11-.54,2.22-1.08,3.32-1.62-1.25-.13-2.5-.27-3.75-.39-3.85-.36-7.71-.68-11.56-1.07-7.19-.73-14.36-1.72-21.56-2.18-6.12-.39-12.31.22-18.41-.31-17.6-1.53-35.18-3.34-52.75-5.2-3.57-.38-7.1-1.33-10.58-2.29-.9-.25-1.54-1.5-2.3-2.28,1.02-.6,1.99-1.6,3.05-1.72,3.41-.37,6.87-.34,10.3-.6,5.95-.46,11.89-1.11,17.84-1.53,4.65-.32,9.32-.27,13.97-.62,5.12-.39,10.23-1.02,15.33-1.61,1-.12,1.96-.53,2.94-.81-1.14-.55-2.27-1.11-3.42-1.65-.12-.06-.34.12-.48.08-.58-.18-1.15-.39-1.73-.6.6-.27,1.18-.65,1.81-.79,3.54-.75,7.09-1.43,10.64-2.14-.02-.19-.04-.38-.07-.58-3.14-.25-6.28-.51-9.42-.76.86-.49,1.68-.55,2.49-.48,5.55.43,11.09,1.21,16.63,1.22,4.32,0,8.63-1.23,12.96-1.41,11.49-.47,23-.51,34.49-1.02,8.95-.4,17.87-1.55,26.82-1.81,11.69-.34,23.39-.1,35.08-.19,6.87-.05,13.73-.26,20.59-.44.59-.02,1.17-.34,1.75-.53-.6-.27-1.2-.75-1.81-.77-4.74-.13-9.49-.1-14.23-.25-8.91-.28-17.81-.78-26.72-.91-3.9-.06-7.81.72-11.72.88-6.81.27-13.62.33-20.43.52-8.12.23-16.25.76-24.37.68-6.81-.06-13.6-1-20.41-1.21-8.74-.27-17.6.84-25.95-2.85-1.32-.58-2.42-1.69-3.62-2.56,1.06-.91,1.98-2.23,3.2-2.66,3.94-1.4,8-2.48,11.69-3.59.18.08-.17-.2-.52-.22-5.49-.18-10.82-.07-16.22-2.47-5.12-2.27-11.04-2.67-16.85-3.95,2.3-.67,4.29-1.1,6.16-1.84,1.6-.63,3.07-1.61,4.59-2.44-1.49-.77-2.9-1.92-4.48-2.24-5.52-1.13-11.09-1.97-16.64-2.91,4.19.52,8.37.53,12.55.51.46,0,.92-.2,1.38-.31-.41-.32-.77-.81-1.23-.94-1.74-.49-3.51-.86-5.49-1.33,2.19-.72,4.18-1.12,5.89-2.05.84-.46,1.79-2.64,1.63-2.78-2.07-1.79-4.32-3.35-6.4-4.87,1.32-.69,2.8-1.46,4.29-2.23-1.4-.22-2.8-.42-4.19-.66-.32-.05-.67-.15-.93-.34-.63-.46-1.22-.98-1.82-1.48.64-.31,1.25-.81,1.91-.9,2.44-.37,4.92-.54,7.36-.93.56-.09,1.52-.76,1.48-1.07-.17-1.63-.22-1.82,1.53-2.11,2.27-.38,4.59-.44,6.86-.86,4.11-.75,8.2-1.67,12.3-2.52-1.5-.79-2.96-.97-4.4-1.25-.76-.15-1.49-.48-2.23-.73.69-.32,1.37-.64,2.07-.95.25-.11.53-.17,1-.32-1.67-.6-3.88-.72-4.28-1.64-1.68-3.89-4.98-2.36-7.64-2.83-1.44-.25-2.97-.01-4.45-.1-.5-.03-.98-.38-1.47-.59.51-.16,1.01-.48,1.51-.46,4.36.13,8.73.67,13.07.41,5.14-.31,10.25-1.28,15.36-1.99.35-.05.68-.33,1.01-.5-.35-.27-.69-.76-1.05-.78-4.34-.19-8.69-.3-13.03-.46-1.2-.04-2.42-.06-3.59-.31-2.52-.54-5.01-1.27-7.53-1.81-1.37-.29-2.78-.36-4.18-.53,1.86-.52,3.66-.51,5.45-.52.85,0,1.7-.04,2.55-.07-.89-.63-1.71-1.63-2.69-1.83-3.46-.71-6.99-1.05-10.45-1.74-1.37-.27-2.62-1.1-3.93-1.68,1.21-.39,2.43-.78,3.64-1.17.24-.07.51-.07.72-.19.74-.42,1.47-.89,2.2-1.33-.7-.46-1.35-1.13-2.12-1.35-2.8-.81-5.66-1.42-8.46-2.21-.47-.13-.86-.72-1.17-1.18-.06-.09.38-.64.68-.84.47-.32,1.02-.52,1.54-.77-.68-.22-1.35-.57-2.05-.64-12.26-1.27-24.53-2.5-36.79-3.78-.67-.07-1.3-.49-1.94-.75.7-.28,1.41-.83,2.09-.8,6.34.33,12.66.98,19,1.11,7.25.15,14.72,3.13,21.67-1.44.64-.42,1.29-.82,1.93-1.22-.78-.41-1.52-1.03-2.35-1.2-8.35-1.69-16.71-3.31-25.08-4.95-.97-.19-1.96-.3-2.89-.6-.38-.12-.62-.67-.93-1.03.39-.23.76-.61,1.18-.66,4.57-.56,9.14-1.13,13.73-1.55,3.48-.33,6.98-.46,10.48-.67-2.7-.79-5.4-.96-8.08-1.24-14.39-1.54-28.77-3.23-43.18-4.6-6.3-.6-12.67-.46-19-.79-8.3-.43-16.59-.98-24.89-1.49,0-11.76.29-27.56-.01-39.32l199.82-.84c18.2,1.13,36.45,2.26,54.44,5.3,8.79,1.49,16.96,2.97,25.88,3.52,9.26.57,18.52,1.17,27.77,1.88,10.45.8,20.88,1.98,31.32,2.96,5.8.54,11.61,1.11,17.42,1.5,13.38.89,26.75,1.99,40.15,2.41,15.14.47,30.29.28,45.44.4,21.78.17,43.56.38,65.33.56,4.35.04,8.71-.11,13.06,0,7.37.21,14.73.75,22.1.81,7.05.05,14.11-.56,21.17-.49,11.09.11,22.18.53,33.27.85,9.05.26,18.1.58,27.15.85,9.46.28,18.93.6,28.39.79,9.66.19,19.32.19,28.98.38,5.42.11,10.85.36,16.26.76,1,.07,1.94,1.15,2.9,1.77-2.33,2.45.71,1.75,1.23,1.84,3.41.57,6.9.7,10.27,1.4,13.1,2.73,26.18,5.59,39.25,8.47,8.3,1.83,16.55,3.9,24.87,5.65,4.4.92,8.93,1.2,13.34,2.06,6.52,1.27,12.94,3.19,19.5,4.15,11.39,1.66,22.84,2.87,34.28,4.14,11.4,1.27,22.82,2.33,34.22,3.59,5.05.56,10.11,1.21,15.1,2.17,3.18.61,3.75,2.47,1.42,4.73-2.21,2.15-4.86,3.87-7.47,5.52-1.88,1.18-2.94,2.06-1.02,4.2.43.48.16,2.52-.35,2.8-1.12.63-2.64.95-3.92.78-4.04-.56-7.22.9-9.25,4.34-.64,1.08-1.68,2.42-2.73,2.63-5.28,1.08-10.62,1.81-15.94,2.68-1.96.32-4.71-1.12-5.3,2.42-.03.18-.86.31-1.32.32-2.53.1-5.06.12-7.59.23-1.45.06-2.89.25-4.33.39,1.57.5,3.11,1.24,4.72,1.45,3.3.44,4.86,2.87,5.12,5.56.1,1.07-2.53,2.54-4.08,3.58-.67.45-1.75.3-2.65.32-8.82.19-17.63.32-26.45.56-.95.03-1.89.7-2.83,1.07.88,1.03,1.59,2.66,2.67,2.98,4.88,1.44,9.89,2.46,14.82,3.73,5.43,1.4,10.83,2.9,16.23,4.39.43.12.78.53,1.17.81-.49.17-1.01.53-1.47.47-3.92-.47-7.84-1.04-11.76-1.53-10.47-1.3-20.97-2.35-31.4-3.93-11.31-1.72-22.53-4.01-33.81-5.87-2.98-.49-6.38-1.42-8.52,2.02-.29.47.05,1.99.37,2.08,2.51.72,5.19.94,7.59,1.89,1.38.54,2.35,2.16,3.51,3.29-1.32.74-2.67,2.15-3.95,2.08-3.4-.18-6.74-1.18-10.14-1.5-3.07-.29-6.19-.22-9.28-.07-.71.04-1.38,1.07-2.06,1.64.64.38,1.24.88,1.92,1.1,1.08.34,2.23.46,3.34.7,10.25,2.29,20.46,4.81,30.76,6.83,10.79,2.11,21.68,3.72,32.51,5.64.79.14,1.46,1,2.19,1.53-.75.5-1.56,1.51-2.25,1.42-4.28-.51-8.54-1.19-12.78-1.94-5.72-1.01-11.42-2.18-17.15-3.17-.58-.1-1.29.54-1.94.83.52.44.99,1.18,1.56,1.27,10.93,1.78,21.89,3.34,32.8,5.25,7.5,1.31,14.93,3.07,22.37,4.72.56.12.98.97,1.41,1.52.44.55.73,1.56,1.23,1.67,4.67,1,9.42,1.63,14.03,2.84,2.5.65,5.25,1.98,5.17,5.3-.08,3.29-2.7,3.82-5.2,3.59-4.03-.37-8.02-1.21-12.05-1.56-.91-.08-1.98.97-2.87,1.66-.96.74-1.67,2.2-2.68,2.42-4.31.92-8.69,1.48-13.04,2.23-.39.07-.7.59-1.04.91.32.31.6.8.97.9,2.47.66,4.96,1.28,7.46,1.84,2.97.66,5.96,1.2,8.93,1.87.5.11.92.56,1.38.85-.48.29-.95.8-1.45.84-2.92.23-5.9.77-8.78.44-9.06-1.02-18.07-2.45-27.12-3.55-2.16-.26-4.82-.61-6.5.39-3.55,2.1-6.96,1.66-10.52.91-5.93-1.26-11.78-2.99-17.76-3.9-12.34-1.88-24.74-3.36-37.12-4.93-.74-.09-1.56.41-2.34.63.84.48,1.63,1.24,2.52,1.38,11.8,1.9,23.66,3.45,35.41,5.63,11.24,2.08,22.37,4.73,33.53,7.25,6.71,1.52,13.4,3.17,20.04,4.98,2.99.82,5.78,2.45,8.78,3.2,3.17.79,6.5.85,9.72,1.48,1.05.2,1.96,1.17,2.93,1.79-1.07.97-2.08,2.02-3.23,2.88-.38.28-1.13.14-1.7.07-3.11-.35-6.21-.71-9.31-1.12-10.07-1.35-20.14-2.73-30.2-4.1-4.8-.65-9.61-1.24-14.4-1.94-4.45-.65-8.88-1.42-13.33-2.13-4.93-.79-9.87-1.57-14.81-2.35-10.75-1.7-21.48-3.54-32.26-5.05-4.71-.66-9.51-.56-14.26-.97-12.29-1.05-24.57-2.29-36.86-3.27-7.64-.61-15.31-.89-22.96-1.34-.52-.03-1.03-.33-1.55-.5.35-.25.69-.53,1.05-.75.61-.38,1.24-.74,1.87-1.1-.74-.28-1.47-.78-2.23-.81-2.44-.11-4.88-.04-7.32-.05-9.23-.02-18.46-.07-27.69-.04-3.75.01-7.51.34-11.26.24-3.9-.1-7.8-.78-11.7-.81-8.05-.06-16.1.21-24.16.22-7.73.01-15.46-.14-23.2-.19-5.04-.03-10.07,0-15.11.03-3.12.02-6.24.17-9.36.18-6.84.02-13.67-.05-20.51,0-3.59.03-7.18.31-10.78.37-9.96.16-19.91.28-29.87.39-8.19.09-16.39.23-24.58.2-8.9-.03-17.8-.16-26.7-.36-5.46-.12-10.92-.45-16.38-.67-.63-.02-1.27.04-1.88.17-.07.01-.12.99.02,1.05.63.29,1.33.51,2.02.58,3.01.32,6.03.49,9.02.89,3.59.48,7.15,1.3,10.74,1.68,2.54.27,5.13-.04,7.69.06,6.99.28,13.98.79,20.98.92,8.51.16,17.02.05,25.53.03,8.21-.02,16.42-.11,24.63-.13,6.23-.02,12.45.04,18.68.04,9.03,0,18.06-.11,27.08.02,5.06.07,10.11.66,15.17.81,4.69.14,9.39.06,14.08.02,9.33-.09,18.65-.3,27.97-.33,13.41-.03,26.82-.02,40.22.13,9.26.11,18.52.4,27.77.78,9.74.4,19.48.85,29.21,1.56,6.44.47,12.83,1.52,19.25,2.16,9.86.98,19.76,1.58,29.59,2.83,7.03.89,13.96,2.61,20.94,3.91,2.91.54,5.88.82,8.77,1.46,8,1.77,15.92,4,23.98,5.42,7.31,1.29,14.74,1.56,21.46,5.45,3.33,1.92,7.11,3.02,10.66,4.56.47.2.79.77,1.17,1.17-.48.26-.94.66-1.45.74-2.6.4-5.22.67-7.82,1.09-.9.14-1.75.59-2.62.89.66.7,1.2,1.76,2.01,2.05,4.65,1.68,9.29,3.44,14.07,4.65,4.37,1.1,9.04,1.09,13.3,2.46,1.91.62,3.14,3.42,4.69,5.23-1.37.64-2.82,1.95-4.11,1.8-16.72-1.89-33.42-3.99-50.13-5.98-.82-.1-1.7.37-2.56.58.76.68,1.42,1.78,2.29,1.98,4.24.94,8.55,1.56,12.79,2.51.81.18,1.41,1.34,2.11,2.04-.77.43-1.61,1.33-2.3,1.22-7.79-1.2-15.56-2.58-23.34-3.85-.94-.15-1.92,0-2.89,0,.79.4,1.58.8,2.36,1.21.57.3,1.11.65,1.68.94,1.76.89,3.45,2.05,5.31,2.58,3.54,1.01,7.22,1.53,10.76,2.53.87.24,1.44,1.57,2.15,2.39-.98.32-1.96.9-2.94.92-2.73.04-5.67-2.36-8.1.92-.19.26-1.09.04-1.65-.05-5.92-.95-11.85-1.87-17.76-2.89-6.8-1.18-13.58-2.46-20.38-3.69-.24-.04-.49.04-.74.02-4.5-.36-9-.66-13.49-1.12-1.4-.14-2.76-.91-4.16-1-3.66-.24-7.5.39-10.96-.52-4.74-1.25-9.37-1.89-14.21-1.44-.88.08-1.8-.15-2.69-.24-3.04-.32-6.08-.72-9.14-.96-4.87-.38-9.76-.62-14.63-1-1.51-.12-3-.71-4.5-.72-3.56-.02-7.13.32-10.69.23-2.21-.05-4.4-.82-6.61-.88-1.95-.06-3.95.74-5.88.59-3.23-.25-6.42-1.19-9.66-1.4-3.34-.22-6.72,0-10.07.23-1.03.07-2.01.84-3.01,1.3,1.09.39,2.16,1.08,3.26,1.13,9.05.43,18.1.78,27.16,1.06,5.77.18,11.57-.07,17.32.37,9.25.69,18.48,1.72,27.71,2.72,14.67,1.6,29.36,3.01,43.97,5.06,11.04,1.55,21.96,4.03,32.95,5.97,7.93,1.4,15.9,2.54,23.84,3.89,10.61,1.81,21.18,3.85,31.82,5.48,3.83.59,7.36,1.53,10.23,4.16.59.54.54,2.97.34,3.04-2.35.73-4.83,1.75-7.2,1.57-4.71-.35-9.34-1.67-14.05-2.09-7.17-.64-14.38-.88-21.57-1.2-.71-.03-1.44.56-2.16.86.59.63,1.08,1.58,1.79,1.82,2.71.9,5.49,1.57,8.25,2.33,7.42,2.03,14.89,3.93,22.25,6.16,3.4,1.03,6.58,2.81,9.92,4.08,1.94.74,4.06.99,5.97,1.78.65.27.9,1.54,1.33,2.35-.83.24-1.68.76-2.48.69-4.35-.43-8.69-.91-13.01-1.54-12.88-1.89-25.74-3.89-38.62-5.77-.97-.14-2.04.37-3.06.58.92.32,1.84.69,2.78.93.71.18,1.46.16,2.19.3,7.02,1.32,14.02,2.76,21.06,3.93,4.04.67,8.16.8,12.2,1.46.85.14,1.86,1.4,2.12,2.34.13.47-1.24,1.94-1.99,1.99-3.22.2-6.48.23-9.7-.02-5.3-.4-10.57-1.07-15.86-1.58-.39-.04-.82.32-1.23.49.39.25.78.49,2.03,1.28-3.86-.45-6.73-.69-9.57-1.14-7.23-1.14-14.44-2.41-21.67-3.54-.71-.11-1.5.34-2.25.54.53.5.98,1.25,1.61,1.47,3.34,1.17,6.74,2.15,10.07,3.32.73.26,1.28,1.04,1.91,1.59-.67.31-1.32.74-2.02.91-1.13.28-2.3.4-3.45.59,4.78,1.89,9.57,2.95,14.32,4.17.76.19,1.35,1.05,2.03,1.6-.96.17-1.96.61-2.86.46-5.84-1-11.64-2.29-17.5-3.17-6-.91-12.08-1.32-18.08-2.22-5.01-.75-9.93-2.17-14.96-2.77-9.64-1.14-19.31-1.96-28.98-2.83-14.51-1.3-29.02-2.58-43.54-3.78-4.84-.4-9.7-.47-14.54-.81-7.45-.52-14.88-1.31-22.34-1.68-5.5-.27-11.03-.05-16.55-.05,0-.33.01-.66.02-.99h29.64c-.47-.44-.97-.57-1.47-.61-3.45-.22-6.91-.33-10.35-.65-5.47-.51-10.93-1.17-16.4-1.76-2.13-.23-4.36-.11-6.36-.76-.97-.32-1.52-2.02-2.25-3.1.44-.17.87-.46,1.32-.48,6.4-.27,12.81-.72,19.21-.68,8.29.06,16.58.55,24.87.8,2.22.07,4.46.03,6.68-.09.47-.02.91-.59,1.36-.91-.42-.28-.83-.76-1.27-.81-2.54-.26-5.08-.5-7.63-.57-5.34-.15-10.68-.1-16.02-.31-7.03-.27-14.05-.9-21.08-1.04-11.27-.22-22.54-.13-33.81-.22-8.7-.07-17.4-.29-26.1-.35-8.97-.06-17.93-.04-26.9-.02-12.67.02-25.35.11-38.02.11-22.24,0-44.48.16-66.72-.14-12.82-.17-25.63-1.24-38.45-1.66-4.99-.16-10.21-1.37-14.87,1.54-.92.57-1.49,1.91-1.89,3.02-.09.23,1.19,1.27,1.96,1.49,3.28.97,7.01,1.08,9.82,2.79,5.31,3.23,11.06,3.31,16.75,3.67,6.69.43,13.43.03,20.13.34,9.41.43,18.8,1.49,28.22,1.7,10.26.23,20.53-.25,30.8-.35,8.22-.08,16.45-.11,24.67,0,1.38.02,2.75.8,4.13,1.23-1.51.86-3.01,1.73-4.54,2.56-.18.1-.48-.08-.73-.08-7.55.11-15.09.2-22.63.39-.58.01-1.15.71-1.72,1.09.63.19,1.24.47,1.88.55,1.01.13,2.04.07,3.06.17,3.34.35,6.68.87,10.03,1.07,4.49.26,9,.26,13.5.41,4.19.14,8.38.42,12.58.46,10.33.11,20.66-.17,30.97.29,7.38.33,14.71,1.78,22.09,2.42,11.51.99,23.04,1.83,34.57,2.53,7.38.45,14.79.43,22.18.83,11.16.61,22.3,1.55,33.46,2.04,4.91.21,9.85-.41,14.78-.51,3.54-.07,7.09.12,10.63.14.56,0,1.12-.29,1.68-.45-.55-.29-1.09-.79-1.66-.82-4.76-.27-9.52-.5-14.28-.63-1.54-.04-3.11.49-4.63.35-3.3-.31-6.56-1.17-9.86-1.3-11.6-.49-23.2-.75-34.8-1.15-.66-.02-1.31-.48-1.97-.73.65-.37,1.29-1.04,1.95-1.06,4.92-.16,9.86-.36,14.78-.24,14.71.34,29.44.58,44.13,1.29,13.32.64,26.65,1.52,39.91,2.91,11.61,1.22,23.13,3.26,34.67,5.08,3.12.49,6.17,1.48,9.26,2.24-7.47-.17-14.82-.83-22.18-1.42-.64-.05-1.31.27-1.97.42.59.35,1.14.78,1.76,1.05.93.39,1.91.67,2.86.99-1.81,2.51.93,1.7,1.56,1.92,1.45.51,3.05.56,4.59.84,15.01,2.74,30.04,5.34,45,8.31,6.72,1.34,13.98,1.14,19.85,6.2-1.54.17-2.93.55-4.3.45-9.73-.69-19.44-1.48-29.17-2.21-.59-.04-1.2.13-1.8.2.42.41.79.96,1.29,1.21.73.36,1.55.61,2.35.74,8.3,1.35,16.6,2.73,24.91,3.96,3.96.59,7.97.86,11.95,1.33.95.11,1.88.46,2.82.69-.52.54-1.06,1.07-1.55,1.64-.15.17-.22.45-.26.69-.48,2.86-2.41,3.59-4.9,3.41-2.13-.16-4.28-.32-6.39-.66-19.97-3.22-39.93-6.53-59.92-9.69-6.58-1.04-13.19-1.91-19.82-2.52-10.97-.99-21.98-1.48-32.93-2.61-7.05-.73-14.06-1-21.09-3.25-6.73-2.16-14.31-1.78-21.54-2.05-11-.41-22.02-.43-33.02-.59-7.87-.12-15.74-.29-23.61-.29-9.77,0-19.54.21-29.31.22-8.42,0-16.85-.1-25.27-.23-5.43-.09-10.86-.37-16.3-.42-.91,0-1.83.75-2.74,1.15.78.43,1.55,1.18,2.35,1.24,3.68.25,7.38.24,11.07.43,6.44.32,12.88.73,19.33,1.08,3.19.17,6.43.03,9.57.54,1.78.29,3.38,2.27,5.11,2.34,9.71.38,19.43.42,29.15.57,11.63.17,23.26.33,34.89.53.55,0,1.1.43,1.65.66-.56.29-1.13.82-1.69.81-1.99-.05-3.97-.41-5.95-.4-1.86,0-3.73.53-5.58.45-2.86-.13-5.7-.71-8.56-.86-4.77-.25-9.56-.49-14.33-.4-3.61.07-7.21,1.01-10.81.94-6.48-.12-12.94-.71-19.42-1.07-.56-.03-1.13.17-1.69.28-2.36.46-4.72.9-7.06,1.4-.84.18-1.64.54-2.46.82.69.41,1.38,1.15,2.08,1.16,7.82.17,15.65.25,23.47.32,5.51.05,11.03-.1,16.52.2,1.09.06,4.92-.91,2.84,3.01-.07.13.59.87,1.02,1.02,2.5.9,5.02,1.7,8,2.69-3.18.96-5.73,1.74-8.29,2.51-1.89.57-3.79,1.64-5.68,1.64-9.22,0-18.43-.28-27.65-.42-.57,0-1.14.36-1.71.55.6.28,1.18.72,1.81.82,1.46.22,2.96.17,4.41.42.61.1,1.13.69,1.69,1.06-.65.21-1.3.6-1.95.6-2.22.02-4.45-.14-6.68-.13-12.01.05-24.02.11-36.03.22-13.74.12-27.48.29-41.22.44-9.81.11-19.62.36-29.43.3-10.86-.06-21.72-.41-32.58-.63-8.89-.18-17.79-.19-26.68-.57-8.2-.35-16.38-1.06-24.57-1.64-5.72-.41-11.45-.74-17.15-1.36-9.67-1.05-19.29-2.46-28.97-3.41-12.08-1.19-24.19-2.08-36.29-3.07-.85-.07-1.72.19-2.59.3.84.48,1.64,1.3,2.52,1.38,8.25.78,16.52,1.33,24.77,2.15,8.55.85,17.08,1.91,25.61,2.89,4.01.46,8.02.85,12,1.49.83.13,1.52,1.22,2.28,1.87-.88.25-1.78.46-2.65.77-1.46.53-2.9,1.14-4.36,1.67-.6.22-1.25.5-1.86.47-9.49-.58-18.97-1.39-28.47-1.76-5.36-.21-10.76.06-16.11.52-3.14.27-6.18,1.76-9.31,1.98-6,.44-12.04.38-18.06.52-5.76.13-11.52.22-17.27.37-3.35.09-6.71.25-10.06.45-.57.04-1.12.47-1.69.72.5.35,1,1,1.51,1.01,2.28.05,4.58-.29,6.84-.11,7.05.58,14.08,1.49,21.14,1.96,4.72.32,9.5-.23,14.19.22,8.03.76,16,2.09,24.02,2.99,7.24.82,14.51,1.46,21.78,2.04,9.4.75,18.8,1.39,28.2,2.05,4.92.35,9.85.58,14.76.96,8.09.63,16.17,1.63,24.27,1.92,9.27.33,18.55,0,27.83.08,7.16.05,14.33.23,21.49.44,2.92.08,5.88.17,8.75.65,3.61.61,7.12,2.19,10.72,2.35,8.45.37,16.92.12,25.38.18,2.95.02,5.91.33,8.86.29,5.53-.07,11.07-.57,16.59-.38,9.03.31,18.04,1.12,27.06,1.54,5.73.27,11.48.12,17.22.33,6.55.24,13.09.88,19.63.96,10.74.14,21.48-.25,32.21,0,10.84.25,21.67,1.05,32.5,1.51,9.44.4,18.92.17,28.31,1.09,17.19,1.68,34.35,3.79,51.47,6.13,14.84,2.03,29.61,4.63,44.42,6.98,13.18,2.09,26.37,4.18,39.55,6.29,3.97.64,7.95,1.29,11.9,2.02.64.12,1.21.68,1.81,1.04-.53.43-1.04,1.22-1.58,1.24-2.51.12-5.08.31-7.55-.05-11.21-1.64-22.41-3.4-33.6-5.22-17.97-2.92-35.89-6.15-53.89-8.81-10.42-1.54-20.95-2.36-31.45-3.27-8.93-.78-17.89-1.23-26.83-1.82-3.69-.24-7.38-.53-11.07-.63-4.74-.12-9.49.07-14.22-.11-6.84-.25-13.66-.94-20.5-1.02-7.11-.08-14.22.46-21.34.49-7.32.03-14.65-.41-21.97-.32-7.73.1-15.46.72-23.19.87-9.99.19-19.98.23-29.97.18-8.11-.04-16.22-.49-24.33-.45-7.03.04-14.06.51-21.09.79-2.09.08-4.19.09-6.27.24-.32.02-.59.65-.88.99.25.17.48.45.75.49,1.7.22,3.41.52,5.12.56,7.11.17,14.23.33,21.34.38,9.13.06,18.27-.04,27.4.02,10.05.06,20.1.2,30.15.35,3.19.05,6.38.23,9.57.36,4.02.17,8.03.36,12.05.53,4.51.19,9.02.33,13.53.57.57.03,1.12.53,1.68.81-.57.25-1.12.68-1.7.72-5.12.37-10.25.84-15.38.97-6.45.16-12.92-.21-19.36.11-3.72.18-7.38,1.79-11.09,1.86-9.36.19-18.77-.66-28.09-.09-12.64.77-25.38-1.11-37.99,2.42-5.49,1.54-11.74.28-17.64.33-10.61.09-21.21.1-31.82.34-6.29.14-12.57.68-18.85,1.03.01.47.03.94.04,1.42,1.89,0,3.79-.09,5.67.02,8.28.48,16.55,1.2,24.83,1.47,8.71.29,17.43.11,26.15.26,2.28.04,4.55.78,6.82.78,5.57,0,11.13-.37,16.7-.35,14.32.05,28.64.2,42.95.36,12.36.14,24.72.35,37.08.6.97.02,1.92.63,2.88.97-.98.52-1.95,1.45-2.95,1.49-6.47.29-12.95.58-19.42.49-10.9-.15-21.8-.76-32.7-.85-9.42-.07-18.85.39-28.27.51-15.09.19-30.18.4-45.28.42-9.92.01-19.84-.26-29.75-.49-7.54-.17-15.08-.45-22.62-.72-5.22-.18-10.43-.44-15.65-.6-.57-.02-1.14.41-1.72.63.34.37.62.96,1.03,1.09,2.42.75,4.84,1.58,7.33,2.04,7.28,1.35,14.62,2.38,21.88,3.87,2.11.43,4.69,1.46,5.87,3.1,3.98,5.54,9.96,5.84,15.54,6.38,7.39.71,14.88.33,22.32.45,6.72.11,13.44.27,20.16.41,4.75.1,9.5.04,14.23.37,4.5.32,8.96,1.4,13.45,1.52,7.34.19,14.69-.27,22.03-.21,8.04.07,16.07.48,24.1.63,8.77.17,17.55.17,26.32.34,4.09.08,8.18.5,12.27.58,9.93.19,19.86.08,29.78.42,19.35.67,38.69,1.44,58.03,2.4,11.51.57,23,1.57,34.5,2.43.8.06,1.57.54,2.36.82-.87.28-1.75.85-2.6.8-11.92-.65-23.83-1.42-35.75-2.08-4.99-.27-10.11-1.12-14.95-.33-8.23,1.35-16.17,1.27-24.39-.25-5.81-1.07-11.94-.51-17.92-.4-5.98.11-11.95.74-17.93.82-9.78.12-19.57-.14-29.35-.02-8.97.11-17.93.63-26.9.73-7.89.08-15.78-.35-23.66-.23-11.17.17-22.33.82-33.5.95-13.68.15-27.36.05-41.04-.07-12.8-.12-25.61-.34-38.41-.64-8.7-.2-17.4-.52-26.08-.98-3.88-.21-7.74-1.02-11.62-1.34-5.9-.48-11.83-.61-17.72-1.18-5.37-.52-10.69-1.54-16.05-2.12-7.58-.81-15.17-1.79-22.77-1.98-4.72-.11-9.48,1.11-14.21,1.8-.1.01-.24,1.13-.12,1.18.88.4,1.81.84,2.76.94,10.07,1.09,20.14,2.17,30.22,3.16,6.68.66,13.45.78,20.06,1.86,6.76,1.11,14.5-1.13,19.91,5.39.51.62,1.64.93,2.5.98,6.65.42,13.3.76,19.95,1.07,4.11.19,8.4-1.28,12.06,2.26,1.24,1.2,3.44,1.8,5.24,1.92,5.2.34,10.42.29,15.63.39,5.57.11,11.14.33,16.72.29,4.06-.02,8.13-.36,12.19-.6.45-.03.89-.33,1.33-.5-.14-.19-.25-.41-.43-.55-.63-.52-1.28-1.02-1.92-1.53.98-.32,1.95-.87,2.95-.92,10-.5,20.01-.97,30.01-1.29,1.63-.05,3.28.66,4.92,1.01-1.65.61-3.25,1.46-4.95,1.78-3.44.67-6.94,1.06-10.28,1.54.96,1.26,2.15,2.13,2.12,2.95-.04.89-1.05,2.05-1.93,2.52-1.48.8-3.19,1.56-4.82,1.62-10.82.39-21.65.69-32.48.83-7.59.1-15.19-.12-22.78-.18-10.61-.08-21.22-.15-31.83-.19-.57,0-1.14.23-1.7.35.55.42,1.07,1.14,1.65,1.21,4.94.58,9.89,1.28,14.85,1.48,7.87.31,15.76.13,23.63.41,11.04.39,22.06,1.15,33.1,1.49,8.17.25,16.37-.04,24.54.21,1.44.04,2.85,1.54,4.27,2.37-1.42.83-2.78,2.22-4.28,2.39-6.09.7-12.21,1.03-18.32,1.5-8.3.64-16.61,1.25-24.91,1.94-2.37.19-4.76,1.04-7.07.83-16.84-1.52-33.87.48-50.61-2.82-.83-.16-1.85.62-2.78.96.89.45,1.74,1.13,2.67,1.3,4.24.79,8.74.79,12.69,2.32,4.68,1.8,8.97,4.73,13.23,7.49,1.23.8,1.78,2.69,2.64,4.08-1.54.94-2.98,2.34-4.64,2.7-2.59.56-5.33.36-7.99.58-.55.04-1.07.48-1.6.73.55.28,1.08.77,1.64.8,6.56.37,13.12.8,19.68.94,7.06.15,14.14-.02,21.2-.02,7.81,0,15.62.12,23.42,0,7.85-.11,15.69-.66,23.53-.64,10.31.02,20.62.5,30.93.62,13.92.15,27.84.1,41.76.3,1.26.02,2.51,1.3,3.76,1.99-1.37.8-2.7,2.17-4.12,2.27-2.42.17-4.89-.73-7.34-.69-10.23.15-20.45.57-30.67.73-8.72.14-17.44-.09-26.16.13-8.2.21-16.39.93-24.59,1.19-8.63.28-17.28.26-25.92.44-.6.01-1.18.57-1.77.87.38.55.65,1.44,1.14,1.59,1.87.58,3.8,1.21,5.72,1.3,5.05.23,10.12.26,15.18.24,10.22-.05,20.44-.24,30.67-.26,6.24-.01,12.48.17,18.71.28,7.3.13,14.6.32,21.89.4,8,.09,16.02-.1,24.01.2,6.29.24,12.54,1.26,18.83,1.51,8.25.33,16.53.03,24.78.41,12.54.58,25.08,1.46,37.61,2.32,6.8.47,13.62,1.89,20.35,1.49,5.25-.31,10.49.15,15.93-1.03,7.38-1.61,15.39-.73,23.08-.22,11.29.75,22.53,2.15,33.79,3.2,6.78.63,13.61.83,20.35,1.76,9.44,1.29,18.83,3.01,28.21,4.67,8.54,1.52,17.15,2.83,25.54,4.97,4.41,1.12,10.05-.07,12.84,5.35.1.19.6.19.91.23,4.88.66,9.8,1.1,14.61,2.11,1.22.26,2.7,2.26,2.86,3.61.1.84-1.95,2.63-3.2,2.81-2.19.32-4.51-.4-6.78-.42-.9,0-1.8.71-2.69,1.1.74.47,1.43,1.09,2.23,1.38,4.06,1.48,8.15,2.87,12.21,4.36.16.06.16,1.18.1,1.2-3.57.86-7.17,2.3-10.75,2.28-4.53-.03-9.05-1.29-13.58-1.98-7.86-1.19-15.72-2.39-23.59-3.49-3.4-.48-6.84-.66-10.25-1.1-5.79-.75-11.57-1.59-17.35-2.4-.8-.11-1.63-.2-2.38-.48-1.44-.53-2.8-1.28-4.25-1.76-1.36-.46-2.79-.79-4.21-.98-1.04-.14-2.13.02-3.19.05.91,1.59-.54.94-.93.89-8.83-1.08-17.66-2.19-26.47-3.37-.37-.05-.6-.85-1.01-1.08-.91-.5-1.88-.91-2.87-1.23-.24-.08-.64.35-.97.55.49.41.98.81,1.37,1.13-23.49-1.25-47.09-2.51-71.34-3.81,1.03-.3,1.46-.55,1.88-.53,6.34.21,12.67.48,19.01.68.48.02.96-.33,1.45-.5-.4-.21-.79-.59-1.2-.61-8.45-.34-16.91-.56-25.35-.98-4.08-.2-8.14-.75-12.21-1.19-.32-.03-.6-.48-.9-.73.37-.25.72-.7,1.11-.72,1.97-.14,3.96-.21,5.93-.24,10.85-.13,21.7-.24,32.55-.39.4,0,.8-.35,1.2-.54-.27-.26-.51-.69-.82-.76-2.23-.55-4.47-1.36-6.73-1.46-8.3-.35-16.62-.42-24.92-.7-1.26-.04-2.5-.68-3.75-1.04,1.26-.22,2.51-.44,3.77-.66.34-.06.67-.12,1.71-.32-2.68-.36-4.63-.85-6.58-.86-14.39-.06-28.78-.01-43.16-.02-5.39,0-10.78-.11-16.16-.09-6.99.02-13.97.08-20.96.24-.81.02-1.6.82-2.4,1.26.88.41,1.76,1.17,2.64,1.18,10.86.05,21.71,0,32.57-.04,2.35,0,5.15-.2,5.24,3.05.08,2.98-2.32,3.71-4.91,3.62-.33-.01-.67.13-1.42.28,1.47.38,2.49.65,3.51.91-3.03.04-5.85-.77-8.71-1.31-1.42-.27-2.93-.05-4.39-.04-6.14.06-12.29-.03-18.43.23-10.65.44-21.28,1.2-31.93,1.61-3.22.12-6.47-.72-9.7-.71-9.1.03-18.19.18-27.29.46-5.32.16-10.62.73-15.94,1.01-6.91.37-13.83.57-20.74.95-7.19.4-14.37.92-21.55,1.39.98,1.03,1.97,1.26,2.97,1.33,7.55.57,15.1,1.21,22.66,1.62,7.13.39,14.27.63,21.41.72,12.07.17,24.14.23,36.21.23,12.68,0,25.36-.19,38.04-.14,1.14,0,2.29,1.13,3.37,1.84.11.07-.38.86-.3,1.25.18.84.47,2.29.86,2.35,1.59.21,3.26-.15,4.87-.04,13.29.9,26.58,1.87,39.86,2.81,2.46.18,5.42-1.06,6.66,2.58.12.36,1.16.54,1.78.58,8.87.48,17.75,1.01,26.63,1.36,7.99.31,15.99.42,23.99.65.51.01,1.02.32,1.52.48-.48.19-.95.51-1.44.53-1.65.09-3.3,0-4.95.12-.57.04-1.12.45-1.68.69.62.2,1.24.58,1.86.58,1.31,0,2.62-.37,3.92-.3,5.88.32,11.75.82,17.63,1.1,13.85.64,27.72.99,41.55,1.86,7.52.47,15,1.67,22.47,2.73,10,1.41,19.98,2.97,29.95,4.54,5.59.88,11.16,1.97,16.75,2.85,3.81.6,7.71.73,11.47,1.54,6.99,1.5,13.91,3.32,20.84,5.09.57.15.98.94,1.46,1.43-.84.52-1.68,1.47-2.52,1.47-2.28-.01-4.57-.31-6.82-.71-8.48-1.51-16.93-3.23-25.44-4.63-7.44-1.22-14.94-2-22.39-3.17-4.21-.66-8.33-1.93-12.55-2.51-7.95-1.1-15.92-1.97-23.9-2.81-7.8-.82-15.6-1.63-23.42-2.17-8.75-.61-17.52-1.15-26.29-1.3-8.68-.15-17.37.04-26.05.41-5.38.23-10.72,1.31-16.09,1.55-4.97.23-9.96-.15-14.95-.24-7.37-.14-14.74-.29-22.11-.41-8.03-.13-16.06-.44-24.08-.28-14.49.28-28.97.82-43.45,1.31-13.29.45-26.57.97-39.86,1.45-5.68.21-11.35.36-17.02.67-1.04.06-2.05.73-3.07,1.11.84.33,1.69.97,2.53.95,13.06-.23,26.12-.66,39.18-.79,10.36-.1,20.73.15,31.09.28,1.49.02,2.97.26,4.45.39-1.48.47-2.96,1.35-4.45,1.35-14.74.08-29.47-.05-44.21.03-13.59.07-27.18.36-40.77.49-8.64.08-17.29.29-25.92.02-13.49-.43-26.97-1.24-40.46-1.8-.7-.03-1.44.79-2.17,1.21.64.41,1.25,1.14,1.91,1.18,13.28.8,26.56,1.67,39.86,2.18,6.49.25,13.01-.29,19.51-.26,4.53.02,9.05.58,13.58.6,11.4.04,22.81-.28,34.21-.09,11.61.2,23.2.9,34.81,1.25,4.07.12,8.15-.21,12.22-.25,12.1-.11,24.21-.23,36.31-.22,5.41,0,10.83.29,16.24.52.97.04,1.92.43,2.88.66-.91.51-1.8,1.41-2.73,1.45-4.92.23-9.85.25-14.78.32-7.63.11-15.27.2-22.9.29-7,.08-14,.09-20.99.28-1.86.05-3.72.63-5.57.97,1.76.41,3.52,1.16,5.28,1.17,7.76.04,15.52-.26,23.27-.22,12.43.06,24.86.26,37.29.47,13.99.23,27.98.51,41.97.84,1.01.02,2,.68,3.02.99,1.85.57,3.68,1.35,5.57,1.61,4.24.59,8.37.76,12.48,2.81,2.8,1.4,6.71.6,10.13.59,7.51,0,15.04-.47,22.53-.13,9.83.44,19.67,1.26,29.46,2.32,11.41,1.23,22.8,2.76,34.16,4.43,9.3,1.37,18.55,3.08,27.81,4.75,8.06,1.45,16.07,3.14,24.13,4.58,6.83,1.22,13.73,2.12,20.53,3.48,1.09.22,1.87,2.08,2.79,3.18-1.27.85-2.57,2.44-3.8,2.4-3.66-.14-7.28-1.13-10.95-1.41-3.15-.25-6.34-.01-9.51.06-.36,0-.71.35-1.07.54.31.19.6.48.93.55,3.68.74,7.35,1.51,11.05,2.15,7.68,1.34,15.41,2.47,23.05,4.03,1.67.34,3.06,2.1,4.58,3.21-.91,1.18-1.64,2.61-2.79,3.47-.88.67-2.27.88-3.44.91-3.4.09-6.8-.06-10.2-.01-.69.01-1.38.49-2.07.76.58.58,1.07,1.48,1.76,1.69,2.51.76,5.1,1.22,7.61,1.95.54.16.91.94,1.36,1.44-.52.35-1,.76-1.55,1.03-1.44.71-3.08,1.13-4.34,2.08-1.79,1.35-3.07,3.72-5,4.47-2.5.97-5.44.74-8.19,1.09-.56.07-1.09.4-1.63.62.39.34.74.85,1.19.99,5.45,1.68,10.97,3.17,16.37,5.01,2.01.68,3.89,1.98,5.63,3.27,2.74,2.03,5.34,4.25,7.93,6.47,1.04.89,2.87,2.54,2.68,2.88-.89,1.57-2.16,3.62-3.65,3.97-2.73.64-5.7.18-8.57.21-.79,0-1.58.14-2.37.22.31.63.48,1.45.97,1.85,1.48,1.22,3,2.44,4.67,3.37,2.65,1.49,5.68,2.41,8.04,4.26.97.76,1.04,3.42.64,4.98-.22.88-2.28,1.91-3.43,1.81-9.75-.8-19.49-1.8-29.23-2.83-8.93-.95-17.86-1.99-26.78-3.05-7.2-.85-14.42-1.62-21.58-2.75-5.53-.87-10.98-2.33-16.49-3.36-5.86-1.1-11.74-2.07-17.63-3.01-4.62-.73-9.33-.98-13.87-2.05-9.26-2.18-18.4,1.01-27.6.21-.31-.03-.8.08-.91.29-.14.27-.05,1,.05,1.03,2.13.48,4.26,1.14,6.41,1.25,3.46.19,6.97-.27,10.42.06,3.36.32,6.64,1.59,10,1.92,7.75.78,15.53,1.17,23.29,1.86,5.93.53,11.84,1.26,17.76,1.92.48.05.94.29,1.41.42,4.31,1.16,8.59,2.5,12.94,3.45,7.98,1.74,16.01,3.25,24.01,4.85,3.18.64,6.37,1.28,9.56,1.88,7.28,1.37,14.62,2.43,21.81,4.15,4.67,1.12,9.04,3.57,13.72,4.65,2.92.68,4.41,2.32,4.46,4.71.02.77-3.28,2.44-4.92,2.28-7.8-.79-15.55-2.03-23.31-3.18-6.16-.91-12.3-1.96-18.46-2.85-9.46-1.37-18.93-2.69-28.41-3.96-8.86-1.19-17.74-2.31-26.62-3.36-1.62-.19-3.29.04-4.93.18-.4.04-.77.49-1.15.76.4.16.8.44,1.2.45,1.79.05,3.63-.28,5.36.07,4.1.81,8.1,2.1,12.2,2.88,7.04,1.33,14.12,2.4,21.18,3.61,1.68.29,3.32.82,5,1.09,2.54.41,5.13.57,7.66,1.05,4.29.81,8.54,1.82,12.82,2.66,5.07,1,10.29,1.47,15.19,3.01,4.09,1.28,7.8,3.81,11.72,5.68,1.43.68,2.97,1.16,4.49,1.59,3.27.93,6.98,1.07,9.76,2.79,5.79,3.58,11.03,8.08,16.64,12.01,2.87,2.01,4.11,5.93,8.53,6.31,2.91.25,5.81,2.09,8.42,3.71,1.31.82,2.74,2.75,2.71,4.15-.03,1.66-1.21,4.24-2.52,4.76-4,1.59-8.26,2.64-12.5,3.39-2.76.48-5.67.02-8.51.13-.31.01-.94,1.14-.82,1.56,1.37,4.58,5.67,3.58,8.86,4.57,4.75,1.47,9.62,2.51,14.38,3.94.85.25,1.42,1.46,2.12,2.22-.93.11-1.88.15-2.8.35-.82.17-1.98.29-2.29.85-.28.5.37,1.55.62,2.36.73,2.46,1.47,4.92,2.18,7.38.06.2-.02.54-.16.7-2.86,3.22-3.99,8.13-8.81,9.53-.17.05-.25,2.06.2,2.43,2.1,1.71,4.46,3.08,6.6,4.74.75.58,1.14,1.64,1.7,2.48-.91.58-1.75,1.42-2.74,1.7-2.2.62-4.48.98-6.73,1.43-4.32.87-8.65,2.45-12.97,2.44-10.36-.04-20.74-.59-31.07-1.42-7.45-.59-14.82-2.06-22.25-2.93-8.4-.99-16.82-1.78-25.23-2.63-10.04-1.01-20.08-1.98-30.12-3-7.19-.72-14.36-1.55-21.56-2.22-11.77-1.09-23.54-2.31-35.34-3.06-9.32-.6-18.69-.51-28.03-.86-8.56-.31-17.1-.89-25.66-1.17-8.67-.28-17.35-.37-26.03-.49-10.19-.13-20.39-.3-30.58-.27-9.59.02-19.17.46-28.76.37-12.2-.12-24.39-.62-36.59-.89-8.35-.18-16.7-.32-25.05-.33-25.24-.06-51.16-2.52-68.64,19.44-6.03,7.58-9.95,16.87-17.09,23.42L-1,751ZM677.06,190.58c0-.17,0-.34-.01-.51.48-.04.96-.12,1.44-.11,11.15.38,22.31.79,33.46,1.11,1.22.04,2.44-.41,3.67-.63-1.14-.23-2.27-.56-3.42-.67-11.31-1.08-22.61-2.32-33.94-3.12-11.24-.8-22.51-1.26-33.77-1.67-14.35-.52-28.7-1.06-43.05-1.16-13.21-.09-26.42.45-39.64.62-9.64.13-19.29.03-28.93.21-7.31.13-14.62.49-21.93.84-4.32.21-8.63.58-12.94,1-.54.05-1.01.79-1.52,1.21.57.22,1.14.64,1.71.63,4.61-.08,9.23-.31,13.84-.34,1.56-.01,3.13.41,4.69.63-1.59.18-3.19.37-4.78.54-.24.03-.49-.04-.74-.03-12.91.38-25.82.76-38.73,1.17-4.31.14-8.63.19-12.92.63-4,.41-7.95,1.81-11.93,1.86-9.74.13-19.48-.34-29.22-.44-10.78-.11-21.57-.13-32.35,0-1.12.01-2.24,1.39-3.3,2.22-.13.1.01.96.21,1.05,1.85.85,3.69,2.09,5.63,2.32,7.33.86,14.68,1.65,22.05,1.99,10.89.5,21.8.64,32.7.83,5.76.1,11.52-.12,17.28-.02,11.06.21,22.13.53,33.19.83,10.95.3,21.91.6,32.86.94,9.76.3,19.52.7,29.29.94,9.03.23,18.06.28,27.09.47,2.69.06,5.37.31,8.05.45,7.23.37,14.46.8,21.69,1.08,4.28.17,8.57.12,12.86.1.37,0,.74-.45,1.11-.69-.3-.34-.56-.92-.91-.98-5.99-1.06-11.99-2.09-18-3.05-3.33-.53-6.69-.9-10.03-1.41-.93-.14-1.81-.56-2.72-.86.94-.6,1.87-1.22,2.83-1.79.27-.16.63-.23.96-.23,9.04-.07,18.09-.1,27.13-.19,3.04-.03,6.53.67,8.96-.63,1.82-.98,3.35-1.92,5.38-1.88,11.62.2,23.24.46,34.86.61,10.02.14,20.04.17,30.06.22.48,0,.96-.3,1.44-.47-.4-.33-.75-.85-1.19-.95-2.17-.45-4.36-.94-6.57-1.12-7.3-.59-14.6-1.06-21.9-1.58ZM15.86,682.17c0,.06,0,.13,0,.19-1.23.12-2.48.12-3.67.39-.75.17-1.42.73-2.13,1.11.51.56.92,1.3,1.54,1.67,9.46,5.7,18.89,11.46,28.46,16.97,5.43,3.13,11.02,6,16.67,8.69,3.39,1.61,6.97,3.02,10.61,3.8,1.83.39,4.66-.24,5.82-1.54,1.22-1.36,2.03-4.86,1.18-6.04-2.62-3.64-6.06-6.7-9.31-9.84-2.93-2.82-6.13-5.35-9.01-8.22-1-1-1.02-3.16-2.08-3.9-2.04-1.42-4.49-3.05-6.81-3.12-10.41-.33-20.84-.14-31.26-.14ZM623.15,555.93c0-.07,0-.15.01-.22,4.17.27,8.34.69,12.51.78,5.73.12,11.47-.08,17.2.05,1.02.02,2.12.87,3.01,1.58,1.32,1.05,2.37,3.16,3.71,3.33,8.46,1.05,16.97,1.67,25.46,2.45,7.27.67,14.52,1.43,21.8,2,7.51.59,15.03,1.02,22.55,1.51,3.42.22,6.83.45,10.25.58.41.02.83-.56,1.25-.86-.42-.19-.82-.45-1.25-.56-6.79-1.74-13.59-3.45-20.38-5.21-.45-.12-.81-.53-1.23-.78-1.76-1.05-3.43-2.73-5.3-3.02-8.99-1.38-18.01-2.7-27.07-3.41-8.23-.64-16.53-.48-24.8-.63-6.52-.12-13.03-.07-19.55-.27-5.36-.16-10.7-.6-16.06-.83-4.03-.17-8.08-.34-12.11-.24-1.25.03-2.48.96-3.72,1.48.96.51,1.88,1.36,2.88,1.47,3.6.4,7.22.55,10.83.79ZM214.64,650.27c1.99,0,2.81.03,3.64-.02.29-.02.56-.23.85-.36-.18-.24-.32-.63-.55-.7-2.67-.8-5.37-1.44-8-2.38-6.18-2.21-13.19-1.42-19.48-4.41-3.74-1.78-7.94-2.66-12.01-3.59-3.33-.76-6.76-1.07-10.17-1.44-2.35-.26-2.7,1.05-1.19,2.49,3.25,3.1,6.7,6,10.12,8.92.76.65,1.74,1.03,2.61,1.55,1.52.91,2.94,2.06,4.56,2.7,2.03.81,5.11-.97,5.99,2.69.08.31,1.01.59,1.54.59,6.14-.01,12.27-.06,18.4-.19.53-.01,1.05-.64,1.57-.98-.41-.46-.74-1.11-1.25-1.34-1.34-.6-2.77-1.01-4.16-1.5-.36-.13-.71-.28-1.06-.41.31-.21.59-.56.92-.61,2.93-.42,5.87-.79,7.65-1.02ZM614.46,143.84v-.98c-.66,0-1.36-.14-1.97.04-.79.23-1.51.73-2.25,1.11.74.25,1.47.64,2.23.72,1.39.15,2.79.09,4.19.17,8.75.51,17.49,1.07,26.24,1.53,6.95.36,13.92.49,20.87.91,9.67.59,19.34,1.37,29.01,2.06,6.12.43,12.25.71,18.36,1.3,4.79.46,9.55,1.3,14.34,1.89.54.07,1.14-.35,1.71-.55-.49-.43-.95-1.19-1.49-1.25-9.93-1.24-19.85-2.61-29.81-3.52-8.98-.82-18.01-1.15-27.02-1.66-10.57-.6-21.13-1.33-31.71-1.7-7.55-.27-15.12-.05-22.68-.05ZM346.65,350.14l-.05.88c3.75.45,7.48,1.07,11.24,1.33,9.07.61,18.14,1.07,27.22,1.56,2.55.14,5.1.2,7.65.2.45,0,.91-.48,1.36-.74-.27-.28-.49-.7-.82-.82-5.44-1.99-10.99-3.34-16.84-2.73-4.03.42-8.06,1.07-12.1,1.14-3.58.07-7.16-.58-10.75-.78-2.3-.13-4.61-.02-6.91-.02ZM746.69,567.17c-1.65.37-2.72.61-3.79.85,1.03.32,2.04.79,3.09.92,6.58.84,13.19,1.44,19.74,2.45,9.88,1.52,19.71,3.34,29.58,4.97.85.14,1.78-.17,2.67-.26-.86-.41-1.68-1.02-2.58-1.18-5.66-1.03-11.32-2.01-17-2.9-10.72-1.68-21.46-3.29-31.7-4.86ZM637.42,220.59c-.03.4-.06.8-.09,1.19,3.87.32,7.73.73,11.6.94,10.57.57,21.15,1.06,31.73,1.54.69.03,1.39-.22,2.08-.34-.64-.36-1.25-1.01-1.91-1.05-6.37-.4-12.74-.69-19.11-1.02-8.1-.42-16.2-.84-24.3-1.26ZM498.28,518.63c.03.21.06.43.09.64.79,0,1.58.02,2.37,0,6.04-.14,12.08-.47,18.12-.37,7.26.12,14.52.67,21.79.89,1.08.03,2.19-.73,3.29-1.13-1.06-.33-2.11-.74-3.19-.98-1.04-.23-2.12-.42-3.17-.4-12.22.23-24.44.5-36.66.8-.88.02-1.76.36-2.64.56ZM302.09,149.98c.4-.03,1.96-.08,3.5-.24.65-.07,1.28-.39,1.92-.59-.58-.3-1.15-.81-1.75-.86-9.22-.73-18.45-1.42-27.67-2.03-.87-.06-1.78.47-2.67.72.84.43,1.65,1.18,2.52,1.25,7.67.63,15.35,1.13,24.17,1.75ZM641.82,495.73s0-.09,0-.13c-2.13,0-4.26-.04-6.39.03-.52.02-1.02.39-1.54.6.52.27,1.04.77,1.57.77,7.89.08,15.77.1,23.66.08.45,0,.9-.53,1.35-.81-.49-.18-.97-.51-1.46-.51-5.73-.04-11.46-.02-17.2-.02ZM632.76,231.94c0,.14,0,.27,0,.41,1.72.08,3.44.2,5.16.23.43,0,.87-.29,1.3-.45-.39-.32-.78-.9-1.19-.91-5.61-.2-11.23-.33-16.84-.42-.46,0-.93.36-1.39.56.43.2.85.56,1.28.57,3.89.04,7.79.03,11.69.03ZM329.16,349.87c0-.05.01-.1.02-.16,1.46.16,2.93.44,4.39.41.55,0,1.08-.72,1.63-1.11-.29-.32-.55-.89-.86-.91-3.73-.35-7.46-.65-11.19-.88-.44-.03-.92.46-1.38.71.44.39.83,1.03,1.32,1.12,2.01.36,4.05.56,6.08.81Z" fill="#4675b8" stroke-width="0"/><path d="M646.87,300.35c8.19,0,16.4-.32,24.58.08,12.19.59,24.37,1.51,36.53,2.61,9.4.85,18.76,2.18,28.13,3.36,6.91.87,13.84,1.64,20.71,2.81,7.92,1.35,15.76,3.2,23.67,4.61,13.52,2.4,27.06,4.62,40.6,6.92.24.04.55,0,.73.12,1.72,1.24,3.42,2.5,5.12,3.76-1.81.39-3.65,1.17-5.44,1.09-9.83-.44-19.68-.72-29.45-1.8-7.34-.81-14.51-3.06-21.84-4.12-9.92-1.44-19.92-2.37-29.89-3.5-8.74-.99-17.48-1.97-26.22-2.93-.73-.08-1.58-.27-2.2.01-10.26,4.67-20.95,2.75-31.54,2.18-2.19-.12-4.38-.52-6.54-.95-.69-.14-1.28-.81-1.92-1.24.84-.37,1.67-1.04,2.51-1.05,3.03-.04,6.05.19,9.08.21.64,0,1.27-.47,1.91-.73-.58-.22-1.16-.61-1.76-.65-5.32-.32-10.64-.61-15.96-.86-11.5-.54-23-1.06-34.5-1.6-.9-.04-1.81-.15-2.7-.31-.45-.08-.86-.36-1.29-.55.29-.28.59-.55.85-.85.3-.34.57-.72.85-1.08-.51-.22-1.02-.62-1.54-.64-2.06-.1-4.12-.05-6.18-.12-.45-.02-.9-.29-1.34-.45.4-.34.75-.88,1.2-.99,4.01-.93,8.02-1.96,12.08-2.62,3.87-.63,7.8-.87,11.71-1.28.01.19.03.38.04.57Z" fill="#4675b8" stroke-width="0"/><path d="M657.87,511.19h26.91c.01-.34.03-.68.04-1.02-8.95-1.03-17.89-2.06-26.84-3.08,0-.24-.02-.47-.03-.71.65-.16,1.31-.46,1.96-.45,10.62.18,21.24.25,31.84.67,9.45.38,18.91.96,28.33,1.81,14.01,1.26,28.03,2.48,41.96,4.36,15.17,2.05,30.25,4.76,45.35,7.31,10.85,1.84,21.66,3.87,32.48,5.88.68.13,1.26.81,1.89,1.23-.67.18-1.35.56-2,.5-8.43-.87-16.85-1.82-25.27-2.71-.74-.08-1.52.13-2.27.2.68.45,1.31,1.12,2.06,1.31,2.8.71,5.65,1.18,8.44,1.92.82.22,1.5,1.01,2.25,1.54-.89.41-1.84,1.25-2.67,1.14-3.57-.47-7.09-1.27-10.64-1.84-6.97-1.14-14.1-3.65-20.9-2.97-10.23,1.03-19.76-2.13-29.66-2.76-10.27-.65-20.44-2.89-30.7-3.96-11.45-1.2-22.97-1.68-34.42-2.81-9.69-.95-19.34-2.42-29.01-3.56-3.06-.36-6.15-.42-9.23-.61l.14-1.39ZM798.14,522.96c.04-.28.09-.56.13-.85-4.13-.7-8.27-1.39-12.4-2.1-5.52-.95-11.04-1.95-16.57-2.83-.75-.12-1.6.37-2.41.58.71.25,1.4.6,2.13.74,3.16.6,6.31,1.21,9.49,1.68,6.54.97,13.09,1.85,19.64,2.77ZM723.96,512.03c-.74,0-1.07-.05-1.39,0-.73.13-1.44.32-2.17.48.68.19,1.36.48,2.06.55,6.61.67,13.21,1.31,19.82,1.91.49.04,1.01-.32,1.52-.49-.53-.29-1.04-.78-1.59-.84-6.21-.59-12.44-1.11-18.25-1.62Z" fill="#4675b8" stroke-width="0"/><path d="M687.52,431.98c11.42.72,21.76,1.46,32.11,1.98,7.78.39,15.59.22,23.35.81,7.43.56,14.82,1.69,22.21,2.71,8.63,1.19,17.26,2.35,25.83,3.87,5.23.93,10.32,2.62,15.52,3.76,8.55,1.87,17.16,3.45,25.68,5.44,1.85.43,3.46,2.07,5.04,3.33.11.09-.75,2.14-1.5,2.47-1.04.46-2.42.28-3.63.14-8.97-1-17.95-1.89-26.89-3.13-9.76-1.35-19.51-2.86-29.22-4.59-12.3-2.19-24.51-4.96-36.84-6.91-7.69-1.22-15.54-1.38-23.31-2.03-12.29-1.02-24.59-2.05-36.88-3.11-.78-.07-1.52-.5-2.28-.76.79-.85,1.45-2.21,2.39-2.45,3.09-.79,6.28-1.17,8.42-1.53Z" fill="#4675b8" stroke-width="0"/><path d="M829.36,434.19c-3.96-.77-7.33-1.5-10.73-2.08-8.78-1.5-17.58-2.88-26.35-4.42-6.32-1.11-12.58-2.55-18.91-3.55-8.16-1.29-16.36-2.45-24.57-3.36-12.98-1.44-25.98-2.78-39-3.87-8.42-.71-16.91-.64-25.32-1.4-7.42-.67-14.78-2-22.16-3.09-.41-.06-.76-.53-1.14-.81.79-.31,1.58-.92,2.36-.9,5.99.14,11.98.36,17.97.61,8.87.37,17.76.64,26.62,1.22,8.13.53,16.24,1.3,24.34,2.15,9.24.97,18.46,2.04,27.67,3.27,7.18.96,14.33,2.14,21.47,3.36,14.34,2.45,28.68,4.97,43,7.53,1.61.29,3.25.77,4.68,1.55.96.52,1.57,1.7,2.34,2.59-.9.48-1.81.95-2.28,1.21Z" fill="#4675b8" stroke-width="0"/><path d="M685.35,484.41c6.2.45,13.65.98,21.11,1.55,11.74.9,23.5,1.67,35.22,2.81,5.86.57,11.67,1.8,17.5,2.74,9.96,1.6,19.94,3.12,29.89,4.84,8.34,1.45,16.65,3.09,24.95,4.77,1.03.21,1.92,1.12,2.87,1.7-.99.17-2.01.6-2.97.48-6.67-.84-13.33-1.72-19.98-2.73-7.88-1.2-15.72-2.72-23.63-3.77-9.93-1.31-19.89-2.4-29.85-3.35-10.53-1-21.07-1.83-31.62-2.53-9.03-.6-18.09-.67-27.1-1.49-3.28-.3-6.44-2.05-9.64-3.17-.17-.06-.27-.37-.4-.56.42-.2.83-.55,1.26-.58,3.7-.25,7.4-.44,12.38-.72Z" fill="#4675b8" stroke-width="0"/><path d="M764.3,302.51c-7.15-1.13-14.28-2.41-21.45-3.33-7.33-.94-14.69-1.7-22.06-2.21-4.3-.3-8.65.19-12.98.05-1.84-.06-3.64-1.04-5.5-1.23-2.44-.25-4.92,0-7.37-.18-2.59-.19-5.17-.67-7.76-.91-2.26-.21-4.53-.27-6.8-.38-.24-.01-.56.19-.72.09-4.93-3.26-10.11.99-14.95-.43-6.32-1.85-12.97-.11-19.33-2.21,4.95-2.46,97.99,5.52,118.92,10.75Z" fill="#4675b8" stroke-width="0"/><path d="M797.29,380.41c-4.96-.77-9.9-1.62-14.87-2.31-15.4-2.14-30.78-4.51-46.23-6.26-13.56-1.53-27.2-2.39-40.81-3.47-4.51-.36-9.04-.46-13.56-.71-.53-.03-1.05-.31-1.57-.48.54-.2,1.09-.59,1.62-.57,11.59.56,23.2.91,34.76,1.83,11.97.95,23.93,2.13,35.82,3.79,15,2.09,29.93,4.76,44.89,7.19-.02.33-.04.66-.06.98Z" fill="#4675b8" stroke-width="0"/><path d="M638.1,344.23c11.97.47,23.95.84,35.92,1.43,12.89.64,25.78,1.36,38.65,2.26,8.13.57,16.23,1.51,24.35,2.33.51.05.99.43,1.48.66-.46.17-.94.53-1.38.5-12.3-1.04-24.58-2.3-36.9-3.15-12.39-.85-24.8-1.37-37.21-1.91-9-.39-18.01-.59-27.02-.91-.48-.02-.95-.34-1.43-.52.43-.18.85-.47,1.3-.52.73-.09,1.48-.02,2.22-.02,0-.05,0-.1,0-.15Z" fill="#4675b8" stroke-width="0"/><path d="M725.52,381.66c15.68,2.06,31.3,3.88,46.85,6.22,11.38,1.71,22.66,4.1,33.99,6.19.57.1,1.16.16,1.69.38.77.32,1.5.76,2.24,1.14-.83-.03-1.68.03-2.49-.1-14.78-2.51-29.53-5.23-44.35-7.5-11.96-1.83-24-3.12-36-4.63-.65-.08-1.32,0-1.97-.09-.92-.14-1.83-.38-2.74-.57.9-.33,1.81-.67,2.79-1.03Z" fill="#4675b8" stroke-width="0"/><path d="M651.19,487.09c-4.06-.46-8.13-.89-12.18-1.4-.57-.07-1.1-.52-1.64-.8.59-.12,1.19-.34,1.77-.33,6.84.14,13.68.3,20.51.53.65.02,1.29.54,1.93.82-.66.21-1.32.58-1.98.6-2.79.07-5.58.03-8.37.03-.01.19-.02.37-.03.56Z" fill="#4675b8" stroke-width="0"/><path d="M780.43,397.7c5.96,1.1,11.92,2.18,17.88,3.32.44.09.8.61,1.2.93-.37.11-.75.35-1.09.3-6.1-.94-12.2-1.92-18.3-2.89.11-.55.21-1.1.32-1.66Z" fill="#4675b8" stroke-width="0"/><path d="M623.56,474.49h30.95c0,.16,0,.33,0,.49h-30.99c.02-.16.03-.33.05-.49Z" fill="#4675b8" stroke-width="0"/><path d="M775.48,110.15c11.96,2.12,23.92,4.23,35.87,6.35-.03.21-.07.42-.1.63-11.96-2.08-23.92-4.16-35.88-6.23.04-.25.08-.5.11-.75Z" fill="#4675b8" stroke-width="0"/><path d="M579.36,251.98c5.16,0,10.32,0,15.48.02.32,0,.64.34.96.53-.23.22-.44.48-.69.67-.2.14-.45.29-.68.29-5.04.02-10.08.01-15.12.01.01-.51.03-1.01.04-1.52Z" fill="#4675b8" stroke-width="0"/><path d="M701.47,356.02h-23.04l.03-.42h23.02c0,.14,0,.28-.01.42Z" fill="#4675b8" stroke-width="0"/><path d="M674.77,355.12h-21.26c0-.16,0-.32,0-.48h21.24c0,.16,0,.32,0,.48Z" fill="#4675b8" stroke-width="0"/><path d="M120.99,180.45c-12.41-.84-24.82-1.68-37.24-2.54-.98-.07-1.96-.24-2.92-.45-1.04-.22-2.06-.55-3.1-.82,1.09-.22,2.2-.67,3.28-.61,6.56.37,13.1.91,19.66,1.3,8.1.47,16.2.84,24.3,1.29.57.03,1.13.4,1.69.61-.56.18-1.12.5-1.68.51-1.31,0-2.62-.15-3.93-.24-.02.32-.05.64-.07.96Z" fill="#4675b8" stroke-width="0"/><path d="M61.6,185.92c2.3,0,4.61-.07,6.91.02,3.11.11,6.22.32,9.33.55.4.03.77.46,1.16.7-.38.37-.78,1.09-1.12,1.06-3.21-.25-6.42-.62-9.63-.97-2.22-.25-4.44-.52-6.66-.78,0-.19,0-.38.01-.58Z" fill="#4675b8" stroke-width="0"/><path d="M566.83,189.33c-5.37,0-10.74,0-16.11-.02-.27,0-.54-.28-.81-.43.38-.21.76-.59,1.15-.59,5.23-.04,10.46-.03,15.69-.03l.09,1.07Z" fill="#4675b8" stroke-width="0"/></svg>