<?xml version="1.0" encoding="UTF-8"?><svg id="uuid-6599ec9e-dd80-4eea-8ba9-c4b9dfd7561f" xmlns="http://www.w3.org/2000/svg" width="900" height="750" xmlns:xlink="http://www.w3.org/1999/xlink" viewBox="0 0 900 750"><defs><pattern id="uuid-a54ab864-db3a-49c9-a8b6-5408ff6ddf61" x="0" y="0" width="567" height="432" patternTransform="translate(-460 -3850)" patternUnits="userSpaceOnUse" viewBox="0 0 567 432"><rect width="567" height="432" fill="none" stroke-width="0"/><polygon points="548.95 446.46 547.44 453.49 540.03 462.79 525.05 453.49 519.08 434.89 532.25 425.26 548.95 446.46" fill="#6576ac" stroke-width="0"/><polygon points="551.74 433.51 548.95 446.46 532.25 425.26 540.43 419.28 548.95 418.51 551.74 433.51" fill="#435887" stroke-width="0"/><polygon points="566.21 434.86 551.74 433.51 548.95 418.51 564.31 417.13 566.21 434.86" fill="#3a5582" stroke-width="0"/><polygon points="588.24 436.96 581.3 437.59 580.97 437.62 580.5 437.67 565.4 439.04 566.21 434.86 564.31 417.13 570.97 416.53 588.24 436.96" fill="#2e5182" stroke-width="0"/><path d="M521.09,412.16" fill="none" stroke-width="0"/><polygon points="71.69 434.86 55.24 454.39 51.21 459.17 43.29 453.49 30.87 427.22 55.63 433.74 71.69 434.86" fill="#335725" stroke-width="0"/><polygon points="43.29 453.49 34.34 452.46 21.24 436.96 3.97 416.53 21.65 424.79 30.87 427.22 43.29 453.49" fill="#415f35" stroke-width="0"/><polygon points="21.24 436.96 14.3 437.59 13.97 437.62 13.5 437.67 -1.6 439.04 -.79 434.86 -2.69 417.13 3.97 416.53 21.24 436.96" fill="#2e5182" stroke-width="0"/><polygon points="534.7 275.6 540.2 285.71 530.56 282.72 520.92 269.18 518.4 255.63 521.09 252.64 527.12 254.14 540.03 246.79 547.44 254.54 534.7 275.6" fill="#c7461a" stroke-width="0"/><polygon points="547.55 270.78 534.7 275.6 547.44 254.54 547.55 270.78" fill="#9f3523" stroke-width="0"/><polygon points="569.13 247.31 561.51 257.74 550.35 273 547.55 270.78 547.44 254.54 554.18 245.82 567.23 245.58 569.13 247.31" fill="#0e3b5f" stroke-width="0"/><polygon points="579.11 276.73 564.31 284.1 550.35 273 561.51 257.74 579.11 276.73" fill="#0e395a" stroke-width="0"/><polygon points="587.5 305.81 580.62 300.4 564.31 284.1 579.11 276.73 586.59 273 587.08 290.53 587.5 305.81" fill="#a8191f" stroke-width="0"/><polygon points="548.95 230.46 547.44 237.49 540.03 246.79 525.05 237.49 519.08 218.89 532.25 209.26 548.95 230.46" fill="#6576ac" stroke-width="0"/><polygon points="525.05 237.49 515.62 251.47 513.34 248.05 509.44 241.16 519.08 218.89 525.05 237.49" fill="#97aad7" stroke-width="0"/><polygon points="540.03 246.79 527.12 254.14 521.09 252.64 518.4 255.63 515.62 251.47 525.05 237.49 540.03 246.79" fill="#4e5f97" stroke-width="0"/><polygon points="551.74 217.51 548.95 230.46 532.25 209.26 540.43 203.28 548.95 202.51 551.74 217.51" fill="#435887" stroke-width="0"/><polygon points="566.21 218.86 551.74 217.51 548.95 202.51 564.31 201.13 566.21 218.86" fill="#3a5582" stroke-width="0"/><polygon points="588.24 220.96 581.3 221.59 580.97 221.62 580.5 221.67 565.4 223.04 566.21 218.86 564.31 201.13 570.97 200.53 588.24 220.96" fill="#2e5182" stroke-width="0"/><polygon points="593.59 269.52 586.59 273 579.11 276.73 561.51 257.74 569.13 247.31 593.59 269.52" fill="#123f66" stroke-width="0"/><polygon points="581.22 243.17 563.98 230.46 565.4 223.04 580.5 221.67 581.22 243.17" fill="#1f4877" stroke-width="0"/><line x1="567.23" y1="245.58" x2="566.9" y2="245.29" fill="none" stroke-width="0"/><path d="M566.21,218.86l-.81,4.18-1.43,7.43-.69,3.59-15.84,3.44,1.51-7.03,2.79-12.94,14.47,1.35ZM562.94,220.96h-8.09l-1.89,5.51,6.89,1.72,3.1-7.24Z" fill="#133e6c" stroke-width="0"/><polygon points="562.94 220.96 559.84 228.19 552.95 226.47 554.84 220.96 562.94 220.96" fill="#2d2f37" stroke-width="0"/><polygon points="563.28 234.05 554.18 245.82 547.44 254.54 540.03 246.79 547.44 237.49 563.28 234.05" fill="#155484" stroke-width="0"/><polygon points="584.08 245.29 567.23 245.58 554.18 245.82 563.28 234.05 563.98 230.46 581.22 243.17 581.58 243.44 584.08 245.29" fill="#194a7b" stroke-width="0"/><line x1="563.98" y1="230.46" x2="563.97" y2="230.46" fill="none" stroke-width="0"/><path d="M521.09,196.16" fill="none" stroke-width="0"/><polygon points="561.84 318.19 556.33 308.09 565.97 311.08 575.62 324.62 578.14 338.17 575.44 341.15 569.42 339.66 556.5 347.01 549.09 339.26 561.84 318.19" fill="#c7461a" stroke-width="0"/><polygon points="548.98 323.01 561.84 318.19 549.09 339.26 548.98 323.01" fill="#9f3523" stroke-width="0"/><polygon points="527.4 346.48 535.03 336.06 546.19 320.79 548.98 323.01 549.09 339.26 542.35 347.98 529.31 348.21 527.4 346.48" fill="#0e3b5f" stroke-width="0"/><polygon points="517.42 317.07 532.22 309.7 546.19 320.79 535.03 336.06 517.42 317.07" fill="#0e395a" stroke-width="0"/><polygon points="509.04 287.99 515.92 293.39 532.22 309.7 517.42 317.07 509.94 320.79 509.46 303.26 509.04 287.99" fill="#a8191f" stroke-width="0"/><polygon points="478.32 299.82 482.2 282.91 484.92 271.07 489.06 272.27 509.04 287.99 509.46 303.26 487.41 300.83 478.32 299.82" fill="#961823" stroke-width="0"/><polygon points="458.29 263.32 484.92 271.07 482.2 282.91 458.99 298.99 458.29 263.32" fill="#7f1e2a" stroke-width="0"/><polygon points="432.51 338.96 429.25 351.48 433.83 372.13 410.07 366.64 407.58 365.6 432.51 338.96" fill="#c3162d" stroke-width="0"/><polygon points="429.25 351.48 448.48 345.46 465.01 340.29 474.29 355.41 457.84 374.94 440.84 373.76 433.83 372.13 429.25 351.48" fill="#c9242c" stroke-width="0"/><polygon points="457.84 374.94 474.29 355.41 478.32 350.62 486.24 356.31 498.66 382.58 473.9 376.05 457.84 374.94" fill="#335725" stroke-width="0"/><polygon points="460.93 333.64 466.61 326.56 480.13 309.7 486.08 342.33 478.32 350.62 474.29 355.41 465.01 340.29 460.93 333.64" fill="#bc1d2c" stroke-width="0"/><polygon points="486.24 356.31 495.2 357.34 508.3 372.84 525.56 393.27 507.88 385.01 498.66 382.58 486.24 356.31" fill="#415f35" stroke-width="0"/><polygon points="547.58 363.34 549.09 356.31 556.5 347.01 571.48 356.31 577.45 374.9 564.28 384.53 547.58 363.34" fill="#6576ac" stroke-width="0"/><polygon points="556.5 347.01 569.42 339.66 575.44 341.15 578.14 338.17 580.91 342.33 571.48 356.31 556.5 347.01" fill="#4e5f97" stroke-width="0"/><polygon points="544.79 376.28 547.58 363.34 564.28 384.53 556.1 390.52 547.58 391.29 544.79 376.28" fill="#435887" stroke-width="0"/><polygon points="530.32 374.94 544.79 376.28 547.58 391.29 532.22 392.67 530.32 374.94" fill="#3a5582" stroke-width="0"/><polygon points="508.3 372.84 515.23 372.21 515.56 372.17 516.03 372.13 531.13 370.76 530.32 374.94 532.22 392.67 525.56 393.27 508.3 372.84" fill="#2e5182" stroke-width="0"/><polygon points="478.32 299.82 487.41 300.83 502.95 324.28 486.08 342.33 480.13 309.7 478.32 299.82" fill="#c9242c" stroke-width="0"/><polygon points="502.95 324.28 509.94 320.79 517.42 317.07 535.03 336.06 527.4 346.48 502.95 324.28" fill="#123f66" stroke-width="0"/><polygon points="515.32 350.62 532.56 363.33 531.13 370.76 516.03 372.13 515.32 350.62" fill="#1f4877" stroke-width="0"/><polygon points="495.2 357.34 499.5 338.96 512.45 348.51 514.96 350.36 515.32 350.62 516.03 372.13 515.56 372.17 515.23 372.21 508.3 372.84 495.2 357.34" fill="#133e6c" stroke-width="0"/><polygon points="478.32 350.62 486.08 342.33 502.95 324.28 499.5 338.96 495.2 357.34 486.24 356.31 478.32 350.62" fill="#295f2a" stroke-width="0"/><line x1="529.31" y1="348.21" x2="529.64" y2="348.51" fill="none" stroke-width="0"/><path d="M530.32,374.94l.81-4.18,1.43-7.43.69-3.59,15.84-3.44-1.51,7.03-2.79,12.94-14.47-1.35ZM533.6,372.84h8.09l1.89-5.51-6.89-1.72-3.1,7.24Z" fill="#133e6c" stroke-width="0"/><polygon points="533.6 372.84 536.7 365.6 543.59 367.33 541.69 372.84 533.6 372.84" fill="#2d2f37" stroke-width="0"/><polygon points="533.25 359.75 542.35 347.98 549.09 339.26 556.5 347.01 549.09 356.31 533.25 359.75" fill="#155484" stroke-width="0"/><polygon points="499.5 338.96 502.95 324.28 527.4 346.48 529.31 348.21 512.45 348.51 499.5 338.96" fill="#15385e" stroke-width="0"/><polygon points="512.45 348.51 529.31 348.21 542.35 347.98 533.25 359.75 532.56 363.33 515.32 350.62 514.96 350.36 512.45 348.51" fill="#194a7b" stroke-width="0"/><line x1="532.56" y1="363.33" x2="532.56" y2="363.34" fill="none" stroke-width="0"/><polygon points="487.41 300.83 509.46 303.26 509.94 320.79 502.95 324.28 487.41 300.83" fill="#bf181a" stroke-width="0"/><polygon points="439.41 312.55 458.99 298.99 482.2 282.91 478.32 299.82 480.13 309.7 466.61 326.56 447.13 316.53 439.41 312.55" fill="#cc132f" stroke-width="0"/><polygon points="429.25 351.48 432.51 338.96 439.41 312.55 447.13 316.53 447.13 317.07 448.48 345.46 429.25 351.48" fill="#bc1d2c" stroke-width="0"/><polygon points="447.13 317.07 447.13 316.53 466.61 326.56 460.93 333.64 465.01 340.29 448.48 345.46 447.13 317.07" fill="#c3162d" stroke-width="0"/><polygon points="251.2 383.6 256.7 393.71 247.06 390.72 237.42 377.18 234.9 363.63 237.59 360.64 243.62 362.14 256.53 354.79 263.94 362.54 251.2 383.6" fill="#c7461a" stroke-width="0"/><polygon points="264.05 378.78 251.2 383.6 263.94 362.54 264.05 378.78" fill="#9f3523" stroke-width="0"/><polygon points="285.63 355.31 278.01 365.74 266.85 381 264.05 378.78 263.94 362.54 270.68 353.82 283.73 353.58 285.63 355.31" fill="#0e3b5f" stroke-width="0"/><polygon points="295.61 384.73 280.81 392.1 266.85 381 278.01 365.74 295.61 384.73" fill="#0e395a" stroke-width="0"/><polygon points="304 413.81 297.12 408.4 280.81 392.1 295.61 384.73 303.09 381 303.58 398.53 304 413.81" fill="#a8191f" stroke-width="0"/><polygon points="334.71 401.97 330.84 418.88 328.12 430.73 323.98 429.52 304 413.81 303.58 398.53 325.62 400.97 334.71 401.97" fill="#961823" stroke-width="0"/><polygon points="354.74 438.48 328.12 430.73 330.84 418.88 354.04 402.81 354.74 438.48" fill="#7f1e2a" stroke-width="0"/><polygon points="380.52 362.83 383.79 350.31 379.21 329.67 402.96 335.16 405.45 336.19 380.52 362.83" fill="#c3162d" stroke-width="0"/><polygon points="383.79 350.31 364.55 356.33 348.02 361.51 338.74 346.39 355.19 326.86 372.2 328.04 379.21 329.67 383.79 350.31" fill="#c9242c" stroke-width="0"/><polygon points="355.19 326.86 338.74 346.39 334.71 351.17 326.79 345.49 314.37 319.22 339.13 325.74 355.19 326.86" fill="#335725" stroke-width="0"/><polygon points="352.1 368.16 346.43 375.24 332.91 392.1 326.96 359.47 334.71 351.17 338.74 346.39 348.02 361.51 352.1 368.16" fill="#bc1d2c" stroke-width="0"/><polygon points="326.79 345.49 317.84 344.46 304.74 328.96 287.47 308.53 305.15 316.79 314.37 319.22 326.79 345.49" fill="#415f35" stroke-width="0"/><polygon points="265.45 338.46 263.94 345.49 256.53 354.79 241.55 345.49 235.58 326.89 248.75 317.26 265.45 338.46" fill="#6576ac" stroke-width="0"/><polygon points="241.55 345.49 232.12 359.47 229.84 356.05 225.94 349.16 235.58 326.89 241.55 345.49" fill="#97aad7" stroke-width="0"/><polygon points="256.53 354.79 243.62 362.14 237.59 360.64 234.9 363.63 232.12 359.47 241.55 345.49 256.53 354.79" fill="#4e5f97" stroke-width="0"/><polygon points="268.24 325.51 265.45 338.46 248.75 317.26 256.93 311.28 265.45 310.51 268.24 325.51" fill="#435887" stroke-width="0"/><polygon points="282.71 326.86 268.24 325.51 265.45 310.51 280.81 309.13 282.71 326.86" fill="#3a5582" stroke-width="0"/><polygon points="304.74 328.96 297.8 329.59 297.47 329.62 297 329.67 281.9 331.04 282.71 326.86 280.81 309.13 287.47 308.53 304.74 328.96" fill="#2e5182" stroke-width="0"/><polygon points="334.71 401.97 325.62 400.97 310.09 377.52 326.96 359.47 332.91 392.1 334.71 401.97" fill="#c9242c" stroke-width="0"/><polygon points="310.09 377.52 303.09 381 295.61 384.73 278.01 365.74 285.63 355.31 310.09 377.52" fill="#123f66" stroke-width="0"/><polygon points="297.72 351.17 280.48 338.46 281.9 331.04 297 329.67 297.72 351.17" fill="#1f4877" stroke-width="0"/><polygon points="317.84 344.46 313.53 362.83 300.58 353.29 298.08 351.44 297.72 351.17 297 329.67 297.47 329.62 297.8 329.59 304.74 328.96 317.84 344.46" fill="#133e6c" stroke-width="0"/><polygon points="334.71 351.17 326.96 359.47 310.09 377.52 313.53 362.83 317.84 344.46 326.79 345.49 334.71 351.17" fill="#295f2a" stroke-width="0"/><line x1="283.73" y1="353.58" x2="283.4" y2="353.29" fill="none" stroke-width="0"/><path d="M282.71,326.86l-.81,4.18-1.43,7.43-.69,3.59-15.84,3.44,1.51-7.03,2.79-12.94,14.47,1.35ZM279.44,328.96h-8.09l-1.89,5.51,6.89,1.72,3.1-7.24Z" fill="#133e6c" stroke-width="0"/><polygon points="279.44 328.96 276.34 336.19 269.45 334.47 271.34 328.96 279.44 328.96" fill="#2d2f37" stroke-width="0"/><polygon points="279.78 342.05 270.68 353.82 263.94 362.54 256.53 354.79 263.94 345.49 279.78 342.05" fill="#155484" stroke-width="0"/><polygon points="313.53 362.83 310.09 377.52 285.63 355.31 283.73 353.58 300.58 353.29 313.53 362.83" fill="#15385e" stroke-width="0"/><polygon points="300.58 353.29 283.73 353.58 270.68 353.82 279.78 342.05 280.48 338.46 297.72 351.17 298.08 351.44 300.58 353.29" fill="#194a7b" stroke-width="0"/><line x1="280.48" y1="338.46" x2="280.47" y2="338.46" fill="none" stroke-width="0"/><polygon points="325.62 400.97 303.58 398.53 303.09 381 310.09 377.52 325.62 400.97" fill="#bf181a" stroke-width="0"/><polygon points="373.63 389.24 354.04 402.81 330.84 418.88 334.71 401.97 332.91 392.1 346.43 375.24 365.91 385.27 373.63 389.24" fill="#cc132f" stroke-width="0"/><polygon points="383.79 350.31 380.52 362.83 373.63 389.24 365.91 385.27 365.91 384.73 364.55 356.33 383.79 350.31" fill="#bc1d2c" stroke-width="0"/><polygon points="365.91 384.73 365.91 385.27 346.43 375.24 352.1 368.16 348.02 361.51 364.55 356.33 365.91 384.73" fill="#c3162d" stroke-width="0"/><path d="M237.59,304.16" fill="none" stroke-width="0"/><polygon points="453.49 435.82 456.35 446.97 461.37 438.21 459.19 421.72 451.79 410.09 447.78 409.75 444.39 414.95 429.94 418.38 429.81 429.1 453.49 435.82" fill="#c7461a" stroke-width="0"/><polygon points="440.8 441.06 453.49 435.82 429.81 429.1 440.8 441.06" fill="#9f3523" stroke-width="0"/><polygon points="409.01 438.61 421.7 441.04 440.27 444.59 440.8 441.06 429.81 429.1 418.92 427.32 409.22 436.05 409.01 438.61" fill="#0e3b5f" stroke-width="0"/><polygon points="338.73 465.24 364.08 468.3 370.29 469.05 372.21 459.49 363.38 431.81 349.72 453.47 338.73 465.24" fill="#335725" stroke-width="0"/><polygon points="372.21 459.49 378.05 452.63 377.06 432.36 375.76 405.64 368.46 423.75 363.38 431.81 372.21 459.49" fill="#415f35" stroke-width="0"/><polygon points="412.28 412.52 418.18 416.63 429.94 418.38 434.55 401.36 426.24 383.69 410.04 385.63 412.28 412.52" fill="#6576ac" stroke-width="0"/><polygon points="434.55 401.36 450.99 405.16 450.32 401.1 448.48 393.4 426.24 383.69 434.55 401.36" fill="#97aad7" stroke-width="0"/><polygon points="429.94 418.38 444.39 414.95 447.78 409.75 451.79 410.09 450.99 405.16 434.55 401.36 429.94 418.38" fill="#4e5f97" stroke-width="0"/><polygon points="401.41 404.96 412.28 412.52 410.04 385.63 399.97 386.84 393.22 392.08 401.41 404.96" fill="#435887" stroke-width="0"/><polygon points="391.75 415.81 401.41 404.96 393.22 392.08 381.04 401.54 391.75 415.81" fill="#3a5582" stroke-width="0"/><polygon points="377.06 432.36 382.57 428.09 382.83 427.9 383.21 427.6 395.18 418.31 391.75 415.81 381.04 401.54 375.76 405.64 377.06 432.36" fill="#2e5182" stroke-width="0"/><polygon points="397.35 443.82 401.29 422.77 395.18 418.31 383.21 427.6 397.35 443.82" fill="#1f4877" stroke-width="0"/><polygon points="378.05 452.63 393.73 463.14 396.69 447.32 397.26 444.26 397.35 443.82 383.21 427.6 382.83 427.9 382.57 428.09 377.06 432.36 378.05 452.63" fill="#133e6c" stroke-width="0"/><path d="M401.41,404.96l10.87,7.56,5.9,4.11-13.93,8.29-2.95-2.15-6.11-4.46-3.44-2.51,9.66-10.85ZM402.77,418.29l3.86-5.96-5.14-2.74-5.92,5.52,7.2,3.18Z" fill="#133e6c" stroke-width="0"/><polygon points="395.57 415.11 402.77 418.29 406.64 412.33 401.49 409.59 395.57 415.11" fill="#2d2f37" stroke-width="0"/><polygon points="404.24 424.92 418.92 427.32 429.81 429.1 429.94 418.38 418.18 416.63 404.24 424.92" fill="#155484" stroke-width="0"/><polygon points="396.69 447.32 409.22 436.05 418.92 427.32 404.24 424.92 401.29 422.77 397.35 443.82 397.26 444.26 396.69 447.32" fill="#194a7b" stroke-width="0"/><line x1="401.29" y1="422.77" x2="401.29" y2="422.76" fill="none" stroke-width="0"/><path d="M409.27,368.44" fill="none" stroke-width="0"/><polygon points="278.34 426.19 272.83 416.09 282.47 419.08 292.12 432.62 294.64 446.17 291.94 449.15 285.92 447.66 273 455.01 265.59 447.26 278.34 426.19" fill="#c7461a" stroke-width="0"/><polygon points="265.48 431.01 278.34 426.19 265.59 447.26 265.48 431.01" fill="#9f3523" stroke-width="0"/><polygon points="243.9 454.48 251.53 444.06 262.69 428.79 265.48 431.01 265.59 447.26 258.85 455.98 245.81 456.21 243.9 454.48" fill="#0e3b5f" stroke-width="0"/><polygon points="233.92 425.07 248.72 417.7 262.69 428.79 251.53 444.06 233.92 425.07" fill="#0e395a" stroke-width="0"/><polygon points="225.54 395.99 232.42 401.39 248.72 417.7 233.92 425.07 226.44 428.79 225.96 411.26 225.54 395.99" fill="#a8191f" stroke-width="0"/><polygon points="194.82 407.82 198.7 390.91 201.42 379.07 205.56 380.27 225.54 395.99 225.96 411.26 203.91 408.83 194.82 407.82" fill="#961823" stroke-width="0"/><polygon points="174.79 371.32 201.42 379.07 198.7 390.91 175.49 406.99 174.79 371.32" fill="#7f1e2a" stroke-width="0"/><polygon points="177.43 441.64 183.11 434.56 196.63 417.7 202.58 450.33 194.82 458.62 190.79 463.41 181.51 448.29 177.43 441.64" fill="#bc1d2c" stroke-width="0"/><polygon points="194.82 407.82 203.91 408.83 219.45 432.28 202.58 450.33 196.63 417.7 194.82 407.82" fill="#c9242c" stroke-width="0"/><polygon points="219.45 432.28 226.44 428.79 233.92 425.07 251.53 444.06 243.9 454.48 219.45 432.28" fill="#123f66" stroke-width="0"/><polygon points="203.91 408.83 225.96 411.26 226.44 428.79 219.45 432.28 203.91 408.83" fill="#bf181a" stroke-width="0"/><polygon points="155.91 420.55 175.49 406.99 198.7 390.91 194.82 407.82 196.63 417.7 183.11 434.56 163.63 424.53 155.91 420.55" fill="#cc132f" stroke-width="0"/><polygon points="145.75 459.48 149.01 446.96 155.91 420.55 163.63 424.53 163.63 425.07 164.98 453.46 145.75 459.48" fill="#bc1d2c" stroke-width="0"/><polygon points="163.63 425.07 163.63 424.53 183.11 434.56 177.43 441.64 181.51 448.29 164.98 453.46 163.63 425.07" fill="#c3162d" stroke-width="0"/><polygon points="2.13 247.31 -5.49 257.74 -16.65 273 -19.45 270.78 -19.56 254.54 -12.82 245.82 .23 245.58 2.13 247.31" fill="#0e3b5f" stroke-width="0"/><polygon points="12.11 276.73 -2.69 284.1 -16.65 273 -5.49 257.74 12.11 276.73" fill="#0e395a" stroke-width="0"/><polygon points="20.5 305.81 13.62 300.4 -2.69 284.1 12.11 276.73 19.59 273 20.08 290.53 20.5 305.81" fill="#a8191f" stroke-width="0"/><polygon points="51.21 293.97 47.34 310.88 44.62 322.73 40.48 321.52 20.5 305.81 20.08 290.53 42.12 292.97 51.21 293.97" fill="#961823" stroke-width="0"/><polygon points="71.24 330.48 44.62 322.73 47.34 310.88 70.54 294.81 71.24 330.48" fill="#7f1e2a" stroke-width="0"/><polygon points="97.02 254.83 100.29 242.31 95.71 221.67 119.46 227.16 121.95 228.19 97.02 254.83" fill="#c3162d" stroke-width="0"/><polygon points="100.29 242.31 81.05 248.33 64.52 253.51 55.24 238.39 71.69 218.86 88.7 220.04 95.71 221.67 100.29 242.31" fill="#c9242c" stroke-width="0"/><polygon points="71.69 218.86 55.24 238.39 51.21 243.17 43.29 237.49 30.87 211.22 55.63 217.74 71.69 218.86" fill="#335725" stroke-width="0"/><polygon points="68.6 260.16 62.93 267.24 49.41 284.1 43.46 251.47 51.21 243.17 55.24 238.39 64.52 253.51 68.6 260.16" fill="#bc1d2c" stroke-width="0"/><polygon points="43.29 237.49 34.34 236.46 21.24 220.96 3.97 200.53 21.65 208.79 30.87 211.22 43.29 237.49" fill="#415f35" stroke-width="0"/><polygon points="21.24 220.96 14.3 221.59 13.97 221.62 13.5 221.67 -1.6 223.04 -.79 218.86 -2.69 201.13 3.97 200.53 21.24 220.96" fill="#2e5182" stroke-width="0"/><polygon points="51.21 293.97 42.12 292.97 26.59 269.52 43.46 251.47 49.41 284.1 51.21 293.97" fill="#c9242c" stroke-width="0"/><polygon points="26.59 269.52 19.59 273 12.11 276.73 -5.49 257.74 2.13 247.31 26.59 269.52" fill="#123f66" stroke-width="0"/><polygon points="14.22 243.17 -3.02 230.46 -1.6 223.04 13.5 221.67 14.22 243.17" fill="#1f4877" stroke-width="0"/><polygon points="34.34 236.46 30.03 254.83 17.08 245.29 14.58 243.44 14.22 243.17 13.5 221.67 13.97 221.62 14.3 221.59 21.24 220.96 34.34 236.46" fill="#133e6c" stroke-width="0"/><polygon points="51.21 243.17 43.46 251.47 26.59 269.52 30.03 254.83 34.34 236.46 43.29 237.49 51.21 243.17" fill="#295f2a" stroke-width="0"/><line x1=".23" y1="245.58" x2="-.1" y2="245.29" fill="none" stroke-width="0"/><polygon points="30.03 254.83 26.59 269.52 2.13 247.31 .23 245.58 17.08 245.29 30.03 254.83" fill="#15385e" stroke-width="0"/><polygon points="17.08 245.29 .23 245.58 -12.82 245.82 -3.72 234.05 -3.02 230.46 14.22 243.17 14.58 243.44 17.08 245.29" fill="#194a7b" stroke-width="0"/><polygon points="42.12 292.97 20.08 290.53 19.59 273 26.59 269.52 42.12 292.97" fill="#bf181a" stroke-width="0"/><polygon points="90.13 281.24 70.54 294.81 47.34 310.88 51.21 293.97 49.41 284.1 62.93 267.24 82.41 277.27 90.13 281.24" fill="#cc132f" stroke-width="0"/><polygon points="100.29 242.31 97.02 254.83 90.13 281.24 82.41 277.27 82.41 276.73 81.05 248.33 100.29 242.31" fill="#bc1d2c" stroke-width="0"/><polygon points="82.41 276.73 82.41 277.27 62.93 267.24 68.6 260.16 64.52 253.51 81.05 248.33 82.41 276.73" fill="#c3162d" stroke-width="0"/><polygon points="169.99 327.82 172.85 338.97 177.87 330.21 175.69 313.72 168.29 302.09 164.28 301.75 160.89 306.95 146.44 310.38 146.31 321.1 169.99 327.82" fill="#c7461a" stroke-width="0"/><polygon points="157.3 333.06 169.99 327.82 146.31 321.1 157.3 333.06" fill="#9f3523" stroke-width="0"/><polygon points="125.51 330.61 138.2 333.04 156.77 336.59 157.3 333.06 146.31 321.1 135.42 319.32 125.72 328.05 125.51 330.61" fill="#0e3b5f" stroke-width="0"/><polygon points="138.27 358.93 154.12 354.23 156.77 336.59 138.2 333.04 138.27 358.93" fill="#0e395a" stroke-width="0"/><polygon points="151.97 385.92 153.32 377.27 154.12 354.23 138.27 358.93 130.26 361.31 141.86 374.46 151.97 385.92" fill="#a8191f" stroke-width="0"/><polygon points="121.43 398.21 135.8 407.93 145.87 414.74 148.07 411.04 151.97 385.92 141.86 374.46 127.4 391.27 121.43 398.21" fill="#961823" stroke-width="0"/><polygon points="131.68 438.57 145.87 414.74 135.8 407.93 107.87 412 131.68 438.57" fill="#7f1e2a" stroke-width="0"/><polygon points="61.24 400.82 50.31 393.89 39.58 375.66 25.95 395.88 24.84 398.34 61.24 400.82" fill="#c3162d" stroke-width="0"/><polygon points="50.31 393.89 68.48 385.18 84.1 377.69 80.58 360.3 55.23 357.24 43.6 369.69 39.58 375.66 50.31 393.89" fill="#c9242c" stroke-width="0"/><polygon points="55.23 357.24 80.58 360.3 86.79 361.05 88.71 351.49 79.88 323.81 66.22 345.47 55.23 357.24" fill="#335725" stroke-width="0"/><polygon points="85.66 385.34 94.63 386.64 116.02 389.76 98.12 361.83 86.79 361.05 80.58 360.3 84.1 377.69 85.66 385.34" fill="#bc1d2c" stroke-width="0"/><polygon points="88.71 351.49 94.55 344.63 93.56 324.36 92.26 297.64 84.96 315.75 79.88 323.81 88.71 351.49" fill="#415f35" stroke-width="0"/><polygon points="128.78 304.52 134.68 308.63 146.44 310.38 151.05 293.36 142.74 275.69 126.54 277.63 128.78 304.52" fill="#6576ac" stroke-width="0"/><polygon points="151.05 293.36 167.49 297.16 166.82 293.1 164.98 285.4 142.74 275.69 151.05 293.36" fill="#97aad7" stroke-width="0"/><polygon points="146.44 310.38 160.89 306.95 164.28 301.75 168.29 302.09 167.49 297.16 151.05 293.36 146.44 310.38" fill="#4e5f97" stroke-width="0"/><polygon points="117.91 296.96 128.78 304.52 126.54 277.63 116.47 278.84 109.72 284.08 117.91 296.96" fill="#435887" stroke-width="0"/><polygon points="108.25 307.81 117.91 296.96 109.72 284.08 97.54 293.54 108.25 307.81" fill="#3a5582" stroke-width="0"/><polygon points="93.56 324.36 99.07 320.09 99.33 319.9 99.71 319.6 111.68 310.31 108.25 307.81 97.54 293.54 92.26 297.64 93.56 324.36" fill="#2e5182" stroke-width="0"/><polygon points="121.43 398.21 127.4 391.27 122.77 363.53 98.12 361.83 116.02 389.76 121.43 398.21" fill="#c9242c" stroke-width="0"/><polygon points="122.77 363.53 130.26 361.31 138.27 358.93 138.2 333.04 125.51 330.61 122.77 363.53" fill="#123f66" stroke-width="0"/><polygon points="113.85 335.82 117.79 314.77 111.68 310.31 99.71 319.6 113.85 335.82" fill="#1f4877" stroke-width="0"/><polygon points="94.55 344.63 110.23 355.14 113.19 339.32 113.76 336.26 113.85 335.82 99.71 319.6 99.33 319.9 99.07 320.09 93.56 324.36 94.55 344.63" fill="#133e6c" stroke-width="0"/><polygon points="86.79 361.05 98.12 361.83 122.77 363.53 110.23 355.14 94.55 344.63 88.71 351.49 86.79 361.05" fill="#295f2a" stroke-width="0"/><line x1="125.72" y1="328.05" x2="125.76" y2="327.6" fill="none" stroke-width="0"/><path d="M117.91,296.96l10.87,7.56,5.9,4.11-13.93,8.29-2.95-2.15-6.11-4.46-3.44-2.51,9.66-10.85ZM119.27,310.29l3.86-5.96-5.14-2.74-5.92,5.52,7.2,3.18Z" fill="#133e6c" stroke-width="0"/><polygon points="112.07 307.11 119.27 310.29 123.14 304.33 117.99 301.59 112.07 307.11" fill="#2d2f37" stroke-width="0"/><polygon points="120.74 316.92 135.42 319.32 146.31 321.1 146.44 310.38 134.68 308.63 120.74 316.92" fill="#155484" stroke-width="0"/><polygon points="110.23 355.14 122.77 363.53 125.51 330.61 125.72 328.05 113.19 339.32 110.23 355.14" fill="#15385e" stroke-width="0"/><polygon points="113.19 339.32 125.72 328.05 135.42 319.32 120.74 316.92 117.79 314.77 113.85 335.82 113.76 336.26 113.19 339.32" fill="#194a7b" stroke-width="0"/><line x1="117.79" y1="314.77" x2="117.79" y2="314.76" fill="none" stroke-width="0"/><polygon points="127.4 391.27 141.86 374.46 130.26 361.31 122.77 363.53 127.4 391.27" fill="#bf181a" stroke-width="0"/><polygon points="84.29 415.44 107.87 412 135.8 407.93 121.43 398.21 116.02 389.76 94.63 386.64 87.23 407.26 84.29 415.44" fill="#cc132f" stroke-width="0"/><polygon points="50.31 393.89 61.24 400.82 84.29 415.44 87.23 407.26 86.86 406.87 68.48 385.18 50.31 393.89" fill="#bc1d2c" stroke-width="0"/><polygon points="86.86 406.87 87.23 407.26 94.63 386.64 85.66 385.34 84.1 377.69 68.48 385.18 86.86 406.87" fill="#c3162d" stroke-width="0"/><path d="M125.77,260.44" fill="none" stroke-width="0"/><polygon points="-5.16 318.19 -10.67 308.09 -1.03 311.08 8.62 324.62 11.14 338.17 8.44 341.15 2.42 339.66 -10.5 347.01 -17.91 339.26 -5.16 318.19" fill="#c7461a" stroke-width="0"/><polygon points="-19.42 363.34 -17.91 356.31 -10.5 347.01 4.48 356.31 10.45 374.9 -2.72 384.53 -19.42 363.34" fill="#6576ac" stroke-width="0"/><polygon points="4.48 356.31 13.91 342.33 16.19 345.75 20.1 352.63 10.45 374.9 4.48 356.31" fill="#97aad7" stroke-width="0"/><polygon points="-10.5 347.01 2.42 339.66 8.44 341.15 11.14 338.17 13.91 342.33 4.48 356.31 -10.5 347.01" fill="#4e5f97" stroke-width="0"/><path d="M8.44,397.63" fill="none" stroke-width="0"/><polygon points="534.7 59.6 540.2 69.71 530.56 66.72 520.92 53.18 518.4 39.63 521.09 36.64 527.12 38.14 540.03 30.79 547.44 38.54 534.7 59.6" fill="#c7461a" stroke-width="0"/><polygon points="547.55 54.78 534.7 59.6 547.44 38.54 547.55 54.78" fill="#9f3523" stroke-width="0"/><polygon points="569.13 31.31 561.51 41.74 550.35 57 547.55 54.78 547.44 38.54 554.18 29.82 567.23 29.58 569.13 31.31" fill="#0e3b5f" stroke-width="0"/><polygon points="579.11 60.73 564.31 68.1 550.35 57 561.51 41.74 579.11 60.73" fill="#0e395a" stroke-width="0"/><polygon points="587.5 89.81 580.62 84.4 564.31 68.1 579.11 60.73 586.59 57 587.08 74.53 587.5 89.81" fill="#a8191f" stroke-width="0"/><polygon points="548.95 14.46 547.44 21.49 540.03 30.79 525.05 21.49 519.08 2.89 532.25 -6.74 548.95 14.46" fill="#6576ac" stroke-width="0"/><polygon points="525.05 21.49 515.62 35.47 513.34 32.05 509.44 25.16 519.08 2.89 525.05 21.49" fill="#97aad7" stroke-width="0"/><polygon points="540.03 30.79 527.12 38.14 521.09 36.64 518.4 39.63 515.62 35.47 525.05 21.49 540.03 30.79" fill="#4e5f97" stroke-width="0"/><polygon points="551.74 1.51 548.95 14.46 532.25 -6.74 540.43 -12.72 548.95 -13.49 551.74 1.51" fill="#435887" stroke-width="0"/><polygon points="566.21 2.86 551.74 1.51 548.95 -13.49 564.31 -14.87 566.21 2.86" fill="#3a5582" stroke-width="0"/><polygon points="588.24 4.96 581.3 5.59 580.97 5.62 580.5 5.67 565.4 7.04 566.21 2.86 564.31 -14.87 570.97 -15.47 588.24 4.96" fill="#2e5182" stroke-width="0"/><polygon points="593.59 53.52 586.59 57 579.11 60.73 561.51 41.74 569.13 31.31 593.59 53.52" fill="#123f66" stroke-width="0"/><polygon points="581.22 27.17 563.98 14.46 565.4 7.04 580.5 5.67 581.22 27.17" fill="#1f4877" stroke-width="0"/><line x1="567.23" y1="29.58" x2="566.9" y2="29.29" fill="none" stroke-width="0"/><path d="M566.21,2.86l-.81,4.18-1.43,7.43-.69,3.59-15.84,3.44,1.51-7.03,2.79-12.94,14.47,1.35ZM562.94,4.96h-8.09l-1.89,5.51,6.89,1.72,3.1-7.24Z" fill="#133e6c" stroke-width="0"/><polygon points="562.94 4.96 559.84 12.19 552.95 10.47 554.84 4.96 562.94 4.96" fill="#2d2f37" stroke-width="0"/><polygon points="563.28 18.05 554.18 29.82 547.44 38.54 540.03 30.79 547.44 21.49 563.28 18.05" fill="#155484" stroke-width="0"/><polygon points="584.08 29.29 567.23 29.58 554.18 29.82 563.28 18.05 563.98 14.46 581.22 27.17 581.58 27.44 584.08 29.29" fill="#194a7b" stroke-width="0"/><line x1="563.98" y1="14.46" x2="563.97" y2="14.46" fill="none" stroke-width="0"/><polygon points="561.84 102.19 556.33 92.09 565.97 95.08 575.62 108.62 578.14 122.17 575.44 125.15 569.42 123.66 556.5 131.01 549.09 123.26 561.84 102.19" fill="#c7461a" stroke-width="0"/><polygon points="548.98 107.01 561.84 102.19 549.09 123.26 548.98 107.01" fill="#9f3523" stroke-width="0"/><polygon points="527.4 130.48 535.03 120.06 546.19 104.79 548.98 107.01 549.09 123.26 542.35 131.98 529.31 132.21 527.4 130.48" fill="#0e3b5f" stroke-width="0"/><polygon points="517.42 101.07 532.22 93.7 546.19 104.79 535.03 120.06 517.42 101.07" fill="#0e395a" stroke-width="0"/><polygon points="509.04 71.99 515.92 77.39 532.22 93.7 517.42 101.07 509.94 104.79 509.46 87.26 509.04 71.99" fill="#a8191f" stroke-width="0"/><polygon points="478.32 83.82 482.2 66.91 484.92 55.07 489.06 56.27 509.04 71.99 509.46 87.26 487.41 84.83 478.32 83.82" fill="#961823" stroke-width="0"/><polygon points="458.29 47.32 484.92 55.07 482.2 66.91 458.99 82.99 458.29 47.32" fill="#7f1e2a" stroke-width="0"/><polygon points="432.51 122.96 429.25 135.48 433.83 156.13 410.07 150.64 407.58 149.6 432.51 122.96" fill="#c3162d" stroke-width="0"/><polygon points="429.25 135.48 448.48 129.46 465.01 124.29 474.29 139.41 457.84 158.94 440.84 157.76 433.83 156.13 429.25 135.48" fill="#c9242c" stroke-width="0"/><polygon points="457.84 158.94 474.29 139.41 478.32 134.62 486.24 140.31 498.66 166.58 473.9 160.05 457.84 158.94" fill="#335725" stroke-width="0"/><polygon points="460.93 117.64 466.61 110.56 480.13 93.7 486.08 126.33 478.32 134.62 474.29 139.41 465.01 124.29 460.93 117.64" fill="#bc1d2c" stroke-width="0"/><polygon points="486.24 140.31 495.2 141.34 508.3 156.84 525.56 177.27 507.88 169.01 498.66 166.58 486.24 140.31" fill="#415f35" stroke-width="0"/><polygon points="547.58 147.34 549.09 140.31 556.5 131.01 571.48 140.31 577.45 158.9 564.28 168.53 547.58 147.34" fill="#6576ac" stroke-width="0"/><polygon points="556.5 131.01 569.42 123.66 575.44 125.15 578.14 122.17 580.91 126.33 571.48 140.31 556.5 131.01" fill="#4e5f97" stroke-width="0"/><polygon points="544.79 160.28 547.58 147.34 564.28 168.53 556.1 174.52 547.58 175.29 544.79 160.28" fill="#435887" stroke-width="0"/><polygon points="530.32 158.94 544.79 160.28 547.58 175.29 532.22 176.67 530.32 158.94" fill="#3a5582" stroke-width="0"/><polygon points="508.3 156.84 515.23 156.21 515.56 156.17 516.03 156.13 531.13 154.76 530.32 158.94 532.22 176.67 525.56 177.27 508.3 156.84" fill="#2e5182" stroke-width="0"/><polygon points="478.32 83.82 487.41 84.83 502.95 108.28 486.08 126.33 480.13 93.7 478.32 83.82" fill="#c9242c" stroke-width="0"/><polygon points="502.95 108.28 509.94 104.79 517.42 101.07 535.03 120.06 527.4 130.48 502.95 108.28" fill="#123f66" stroke-width="0"/><polygon points="515.32 134.62 532.56 147.33 531.13 154.76 516.03 156.13 515.32 134.62" fill="#1f4877" stroke-width="0"/><polygon points="495.2 141.34 499.5 122.96 512.45 132.51 514.96 134.36 515.32 134.62 516.03 156.13 515.56 156.17 515.23 156.21 508.3 156.84 495.2 141.34" fill="#133e6c" stroke-width="0"/><polygon points="478.32 134.62 486.08 126.33 502.95 108.28 499.5 122.96 495.2 141.34 486.24 140.31 478.32 134.62" fill="#295f2a" stroke-width="0"/><line x1="529.31" y1="132.21" x2="529.64" y2="132.51" fill="none" stroke-width="0"/><path d="M530.32,158.94l.81-4.18,1.43-7.43.69-3.59,15.84-3.44-1.51,7.03-2.79,12.94-14.47-1.35ZM533.6,156.84h8.09l1.89-5.51-6.89-1.72-3.1,7.24Z" fill="#133e6c" stroke-width="0"/><polygon points="533.6 156.84 536.7 149.6 543.59 151.33 541.69 156.84 533.6 156.84" fill="#2d2f37" stroke-width="0"/><polygon points="533.25 143.75 542.35 131.98 549.09 123.26 556.5 131.01 549.09 140.31 533.25 143.75" fill="#155484" stroke-width="0"/><polygon points="499.5 122.96 502.95 108.28 527.4 130.48 529.31 132.21 512.45 132.51 499.5 122.96" fill="#15385e" stroke-width="0"/><polygon points="512.45 132.51 529.31 132.21 542.35 131.98 533.25 143.75 532.56 147.33 515.32 134.62 514.96 134.36 512.45 132.51" fill="#194a7b" stroke-width="0"/><line x1="532.56" y1="147.33" x2="532.56" y2="147.34" fill="none" stroke-width="0"/><polygon points="487.41 84.83 509.46 87.26 509.94 104.79 502.95 108.28 487.41 84.83" fill="#bf181a" stroke-width="0"/><polygon points="439.41 96.55 458.99 82.99 482.2 66.91 478.32 83.82 480.13 93.7 466.61 110.56 447.13 100.53 439.41 96.55" fill="#cc132f" stroke-width="0"/><polygon points="429.25 135.48 432.51 122.96 439.41 96.55 447.13 100.53 447.13 101.07 448.48 129.46 429.25 135.48" fill="#bc1d2c" stroke-width="0"/><polygon points="447.13 101.07 447.13 100.53 466.61 110.56 460.93 117.64 465.01 124.29 448.48 129.46 447.13 101.07" fill="#c3162d" stroke-width="0"/><polygon points="251.2 167.6 256.7 177.71 247.06 174.72 237.42 161.18 234.9 147.63 237.59 144.64 243.62 146.14 256.53 138.79 263.94 146.54 251.2 167.6" fill="#c7461a" stroke-width="0"/><polygon points="264.05 162.78 251.2 167.6 263.94 146.54 264.05 162.78" fill="#9f3523" stroke-width="0"/><polygon points="285.63 139.31 278.01 149.74 266.85 165 264.05 162.78 263.94 146.54 270.68 137.82 283.73 137.58 285.63 139.31" fill="#0e3b5f" stroke-width="0"/><polygon points="295.61 168.73 280.81 176.1 266.85 165 278.01 149.74 295.61 168.73" fill="#0e395a" stroke-width="0"/><polygon points="304 197.81 297.12 192.4 280.81 176.1 295.61 168.73 303.09 165 303.58 182.53 304 197.81" fill="#a8191f" stroke-width="0"/><polygon points="334.71 185.97 330.84 202.88 328.12 214.73 323.98 213.52 304 197.81 303.58 182.53 325.62 184.97 334.71 185.97" fill="#961823" stroke-width="0"/><polygon points="354.74 222.48 328.12 214.73 330.84 202.88 354.04 186.81 354.74 222.48" fill="#7f1e2a" stroke-width="0"/><polygon points="380.52 146.83 383.79 134.31 379.21 113.67 402.96 119.16 405.45 120.19 380.52 146.83" fill="#c3162d" stroke-width="0"/><polygon points="383.79 134.31 364.55 140.33 348.02 145.51 338.74 130.39 355.19 110.86 372.2 112.04 379.21 113.67 383.79 134.31" fill="#c9242c" stroke-width="0"/><polygon points="355.19 110.86 338.74 130.39 334.71 135.17 326.79 129.49 314.37 103.22 339.13 109.74 355.19 110.86" fill="#335725" stroke-width="0"/><polygon points="352.1 152.16 346.43 159.24 332.91 176.1 326.96 143.47 334.71 135.17 338.74 130.39 348.02 145.51 352.1 152.16" fill="#bc1d2c" stroke-width="0"/><polygon points="326.79 129.49 317.84 128.46 304.74 112.96 287.47 92.53 305.15 100.79 314.37 103.22 326.79 129.49" fill="#415f35" stroke-width="0"/><polygon points="265.45 122.46 263.94 129.49 256.53 138.79 241.55 129.49 235.58 110.89 248.75 101.26 265.45 122.46" fill="#6576ac" stroke-width="0"/><polygon points="241.55 129.49 232.12 143.47 229.84 140.05 225.94 133.16 235.58 110.89 241.55 129.49" fill="#97aad7" stroke-width="0"/><polygon points="256.53 138.79 243.62 146.14 237.59 144.64 234.9 147.63 232.12 143.47 241.55 129.49 256.53 138.79" fill="#4e5f97" stroke-width="0"/><polygon points="268.24 109.51 265.45 122.46 248.75 101.26 256.93 95.28 265.45 94.51 268.24 109.51" fill="#435887" stroke-width="0"/><polygon points="282.71 110.86 268.24 109.51 265.45 94.51 280.81 93.13 282.71 110.86" fill="#3a5582" stroke-width="0"/><polygon points="304.74 112.96 297.8 113.59 297.47 113.62 297 113.67 281.9 115.04 282.71 110.86 280.81 93.13 287.47 92.53 304.74 112.96" fill="#2e5182" stroke-width="0"/><polygon points="334.71 185.97 325.62 184.97 310.09 161.52 326.96 143.47 332.91 176.1 334.71 185.97" fill="#c9242c" stroke-width="0"/><polygon points="310.09 161.52 303.09 165 295.61 168.73 278.01 149.74 285.63 139.31 310.09 161.52" fill="#123f66" stroke-width="0"/><polygon points="297.72 135.17 280.48 122.46 281.9 115.04 297 113.67 297.72 135.17" fill="#1f4877" stroke-width="0"/><polygon points="317.84 128.46 313.53 146.83 300.58 137.29 298.08 135.44 297.72 135.17 297 113.67 297.47 113.62 297.8 113.59 304.74 112.96 317.84 128.46" fill="#133e6c" stroke-width="0"/><polygon points="334.71 135.17 326.96 143.47 310.09 161.52 313.53 146.83 317.84 128.46 326.79 129.49 334.71 135.17" fill="#295f2a" stroke-width="0"/><line x1="283.73" y1="137.58" x2="283.4" y2="137.29" fill="none" stroke-width="0"/><path d="M282.71,110.86l-.81,4.18-1.43,7.43-.69,3.59-15.84,3.44,1.51-7.03,2.79-12.94,14.47,1.35ZM279.44,112.96h-8.09l-1.89,5.51,6.89,1.72,3.1-7.24Z" fill="#133e6c" stroke-width="0"/><polygon points="279.44 112.96 276.34 120.19 269.45 118.47 271.34 112.96 279.44 112.96" fill="#2d2f37" stroke-width="0"/><polygon points="279.78 126.05 270.68 137.82 263.94 146.54 256.53 138.79 263.94 129.49 279.78 126.05" fill="#155484" stroke-width="0"/><polygon points="313.53 146.83 310.09 161.52 285.63 139.31 283.73 137.58 300.58 137.29 313.53 146.83" fill="#15385e" stroke-width="0"/><polygon points="300.58 137.29 283.73 137.58 270.68 137.82 279.78 126.05 280.48 122.46 297.72 135.17 298.08 135.44 300.58 137.29" fill="#194a7b" stroke-width="0"/><line x1="280.48" y1="122.46" x2="280.47" y2="122.46" fill="none" stroke-width="0"/><polygon points="325.62 184.97 303.58 182.53 303.09 165 310.09 161.52 325.62 184.97" fill="#bf181a" stroke-width="0"/><polygon points="373.63 173.24 354.04 186.81 330.84 202.88 334.71 185.97 332.91 176.1 346.43 159.24 365.91 169.27 373.63 173.24" fill="#cc132f" stroke-width="0"/><polygon points="383.79 134.31 380.52 146.83 373.63 173.24 365.91 169.27 365.91 168.73 364.55 140.33 383.79 134.31" fill="#bc1d2c" stroke-width="0"/><polygon points="365.91 168.73 365.91 169.27 346.43 159.24 352.1 152.16 348.02 145.51 364.55 140.33 365.91 168.73" fill="#c3162d" stroke-width="0"/><path d="M237.59,88.16" fill="none" stroke-width="0"/><polygon points="453.49 219.82 456.35 230.97 461.37 222.21 459.19 205.72 451.79 194.09 447.78 193.75 444.39 198.95 429.94 202.38 429.81 213.1 453.49 219.82" fill="#c7461a" stroke-width="0"/><polygon points="440.8 225.06 453.49 219.82 429.81 213.1 440.8 225.06" fill="#9f3523" stroke-width="0"/><polygon points="409.01 222.61 421.7 225.04 440.27 228.59 440.8 225.06 429.81 213.1 418.92 211.32 409.22 220.05 409.01 222.61" fill="#0e3b5f" stroke-width="0"/><polygon points="421.77 250.93 437.62 246.23 440.27 228.59 421.7 225.04 421.77 250.93" fill="#0e395a" stroke-width="0"/><polygon points="435.47 277.92 436.82 269.27 437.62 246.23 421.77 250.93 413.76 253.31 425.36 266.46 435.47 277.92" fill="#a8191f" stroke-width="0"/><polygon points="404.93 290.21 419.3 299.93 429.37 306.74 431.57 303.04 435.47 277.92 425.36 266.46 410.9 283.27 404.93 290.21" fill="#961823" stroke-width="0"/><polygon points="415.18 330.57 429.37 306.74 419.3 299.93 391.37 304 415.18 330.57" fill="#7f1e2a" stroke-width="0"/><polygon points="344.74 292.82 333.81 285.89 323.08 267.66 309.45 287.88 308.34 290.34 344.74 292.82" fill="#c3162d" stroke-width="0"/><polygon points="333.81 285.89 351.98 277.18 367.6 269.69 364.08 252.3 338.73 249.24 327.1 261.69 323.08 267.66 333.81 285.89" fill="#c9242c" stroke-width="0"/><polygon points="338.73 249.24 364.08 252.3 370.29 253.05 372.21 243.49 363.38 215.81 349.72 237.47 338.73 249.24" fill="#335725" stroke-width="0"/><polygon points="369.16 277.34 378.13 278.64 399.52 281.76 381.62 253.83 370.29 253.05 364.08 252.3 367.6 269.69 369.16 277.34" fill="#bc1d2c" stroke-width="0"/><polygon points="372.21 243.49 378.05 236.63 377.06 216.36 375.76 189.64 368.46 207.75 363.38 215.81 372.21 243.49" fill="#415f35" stroke-width="0"/><polygon points="412.28 196.52 418.18 200.63 429.94 202.38 434.55 185.36 426.24 167.69 410.04 169.63 412.28 196.52" fill="#6576ac" stroke-width="0"/><polygon points="434.55 185.36 450.99 189.16 450.32 185.1 448.48 177.4 426.24 167.69 434.55 185.36" fill="#97aad7" stroke-width="0"/><polygon points="429.94 202.38 444.39 198.95 447.78 193.75 451.79 194.09 450.99 189.16 434.55 185.36 429.94 202.38" fill="#4e5f97" stroke-width="0"/><polygon points="401.41 188.96 412.28 196.52 410.04 169.63 399.97 170.84 393.22 176.08 401.41 188.96" fill="#435887" stroke-width="0"/><polygon points="391.75 199.81 401.41 188.96 393.22 176.08 381.04 185.54 391.75 199.81" fill="#3a5582" stroke-width="0"/><polygon points="377.06 216.36 382.57 212.09 382.83 211.9 383.21 211.6 395.18 202.31 391.75 199.81 381.04 185.54 375.76 189.64 377.06 216.36" fill="#2e5182" stroke-width="0"/><polygon points="404.93 290.21 410.9 283.27 406.27 255.53 381.62 253.83 399.52 281.76 404.93 290.21" fill="#c9242c" stroke-width="0"/><polygon points="406.27 255.53 413.76 253.31 421.77 250.93 421.7 225.04 409.01 222.61 406.27 255.53" fill="#123f66" stroke-width="0"/><polygon points="397.35 227.82 401.29 206.77 395.18 202.31 383.21 211.6 397.35 227.82" fill="#1f4877" stroke-width="0"/><polygon points="378.05 236.63 393.73 247.14 396.69 231.32 397.26 228.26 397.35 227.82 383.21 211.6 382.83 211.9 382.57 212.09 377.06 216.36 378.05 236.63" fill="#133e6c" stroke-width="0"/><polygon points="370.29 253.05 381.62 253.83 406.27 255.53 393.73 247.14 378.05 236.63 372.21 243.49 370.29 253.05" fill="#295f2a" stroke-width="0"/><line x1="409.22" y1="220.05" x2="409.26" y2="219.6" fill="none" stroke-width="0"/><path d="M401.41,188.96l10.87,7.56,5.9,4.11-13.93,8.29-2.95-2.15-6.11-4.46-3.44-2.51,9.66-10.85ZM402.77,202.29l3.86-5.96-5.14-2.74-5.92,5.52,7.2,3.18Z" fill="#133e6c" stroke-width="0"/><polygon points="395.57 199.11 402.77 202.29 406.64 196.33 401.49 193.59 395.57 199.11" fill="#2d2f37" stroke-width="0"/><polygon points="404.24 208.92 418.92 211.32 429.81 213.1 429.94 202.38 418.18 200.63 404.24 208.92" fill="#155484" stroke-width="0"/><polygon points="393.73 247.14 406.27 255.53 409.01 222.61 409.22 220.05 396.69 231.32 393.73 247.14" fill="#15385e" stroke-width="0"/><polygon points="396.69 231.32 409.22 220.05 418.92 211.32 404.24 208.92 401.29 206.77 397.35 227.82 397.26 228.26 396.69 231.32" fill="#194a7b" stroke-width="0"/><line x1="401.29" y1="206.77" x2="401.29" y2="206.76" fill="none" stroke-width="0"/><polygon points="410.9 283.27 425.36 266.46 413.76 253.31 406.27 255.53 410.9 283.27" fill="#bf181a" stroke-width="0"/><polygon points="367.79 307.44 391.37 304 419.3 299.93 404.93 290.21 399.52 281.76 378.13 278.64 370.73 299.26 367.79 307.44" fill="#cc132f" stroke-width="0"/><polygon points="333.81 285.89 344.74 292.82 367.79 307.44 370.73 299.26 370.36 298.87 351.98 277.18 333.81 285.89" fill="#bc1d2c" stroke-width="0"/><polygon points="370.36 298.87 370.73 299.26 378.13 278.64 369.16 277.34 367.6 269.69 351.98 277.18 370.36 298.87" fill="#c3162d" stroke-width="0"/><path d="M409.27,152.44" fill="none" stroke-width="0"/><polygon points="278.34 210.19 272.83 200.09 282.47 203.08 292.12 216.62 294.64 230.17 291.94 233.15 285.92 231.66 273 239.01 265.59 231.26 278.34 210.19" fill="#c7461a" stroke-width="0"/><polygon points="265.48 215.01 278.34 210.19 265.59 231.26 265.48 215.01" fill="#9f3523" stroke-width="0"/><polygon points="243.9 238.48 251.53 228.06 262.69 212.79 265.48 215.01 265.59 231.26 258.85 239.98 245.81 240.21 243.9 238.48" fill="#0e3b5f" stroke-width="0"/><polygon points="233.92 209.07 248.72 201.7 262.69 212.79 251.53 228.06 233.92 209.07" fill="#0e395a" stroke-width="0"/><polygon points="225.54 179.99 232.42 185.39 248.72 201.7 233.92 209.07 226.44 212.79 225.96 195.26 225.54 179.99" fill="#a8191f" stroke-width="0"/><polygon points="194.82 191.82 198.7 174.91 201.42 163.07 205.56 164.27 225.54 179.99 225.96 195.26 203.91 192.83 194.82 191.82" fill="#961823" stroke-width="0"/><polygon points="174.79 155.32 201.42 163.07 198.7 174.91 175.49 190.99 174.79 155.32" fill="#7f1e2a" stroke-width="0"/><polygon points="149.01 230.96 145.75 243.48 150.33 264.13 126.57 258.64 124.08 257.6 149.01 230.96" fill="#c3162d" stroke-width="0"/><polygon points="145.75 243.48 164.98 237.46 181.51 232.29 190.79 247.41 174.34 266.94 157.34 265.76 150.33 264.13 145.75 243.48" fill="#c9242c" stroke-width="0"/><polygon points="174.34 266.94 190.79 247.41 194.82 242.62 202.74 248.31 215.16 274.58 190.4 268.05 174.34 266.94" fill="#335725" stroke-width="0"/><polygon points="177.43 225.64 183.11 218.56 196.63 201.7 202.58 234.33 194.82 242.62 190.79 247.41 181.51 232.29 177.43 225.64" fill="#bc1d2c" stroke-width="0"/><polygon points="202.74 248.31 211.7 249.34 224.8 264.84 242.06 285.27 224.38 277.01 215.16 274.58 202.74 248.31" fill="#415f35" stroke-width="0"/><polygon points="264.08 255.34 265.59 248.31 273 239.01 287.98 248.31 293.95 266.9 280.78 276.53 264.08 255.34" fill="#6576ac" stroke-width="0"/><polygon points="287.98 248.31 297.41 234.33 299.69 237.75 303.6 244.63 293.95 266.9 287.98 248.31" fill="#97aad7" stroke-width="0"/><polygon points="273 239.01 285.92 231.66 291.94 233.15 294.64 230.17 297.41 234.33 287.98 248.31 273 239.01" fill="#4e5f97" stroke-width="0"/><polygon points="261.29 268.28 264.08 255.34 280.78 276.53 272.6 282.52 264.08 283.29 261.29 268.28" fill="#435887" stroke-width="0"/><polygon points="246.82 266.94 261.29 268.28 264.08 283.29 248.72 284.67 246.82 266.94" fill="#3a5582" stroke-width="0"/><polygon points="224.8 264.84 231.73 264.21 232.06 264.17 232.53 264.13 247.63 262.76 246.82 266.94 248.72 284.67 242.06 285.27 224.8 264.84" fill="#2e5182" stroke-width="0"/><polygon points="194.82 191.82 203.91 192.83 219.45 216.28 202.58 234.33 196.63 201.7 194.82 191.82" fill="#c9242c" stroke-width="0"/><polygon points="219.45 216.28 226.44 212.79 233.92 209.07 251.53 228.06 243.9 238.48 219.45 216.28" fill="#123f66" stroke-width="0"/><polygon points="231.82 242.62 249.06 255.33 247.63 262.76 232.53 264.13 231.82 242.62" fill="#1f4877" stroke-width="0"/><polygon points="211.7 249.34 216 230.96 228.95 240.51 231.46 242.36 231.82 242.62 232.53 264.13 232.06 264.17 231.73 264.21 224.8 264.84 211.7 249.34" fill="#133e6c" stroke-width="0"/><polygon points="194.82 242.62 202.58 234.33 219.45 216.28 216 230.96 211.7 249.34 202.74 248.31 194.82 242.62" fill="#295f2a" stroke-width="0"/><line x1="245.81" y1="240.21" x2="246.14" y2="240.51" fill="none" stroke-width="0"/><path d="M246.82,266.94l.81-4.18,1.43-7.43.69-3.59,15.84-3.44-1.51,7.03-2.79,12.94-14.47-1.35ZM250.1,264.84h8.09l1.89-5.51-6.89-1.72-3.1,7.24Z" fill="#133e6c" stroke-width="0"/><polygon points="250.1 264.84 253.2 257.6 260.09 259.33 258.19 264.84 250.1 264.84" fill="#2d2f37" stroke-width="0"/><polygon points="249.75 251.75 258.85 239.98 265.59 231.26 273 239.01 265.59 248.31 249.75 251.75" fill="#155484" stroke-width="0"/><polygon points="216 230.96 219.45 216.28 243.9 238.48 245.81 240.21 228.95 240.51 216 230.96" fill="#15385e" stroke-width="0"/><polygon points="228.95 240.51 245.81 240.21 258.85 239.98 249.75 251.75 249.06 255.33 231.82 242.62 231.46 242.36 228.95 240.51" fill="#194a7b" stroke-width="0"/><line x1="249.06" y1="255.33" x2="249.06" y2="255.34" fill="none" stroke-width="0"/><polygon points="203.91 192.83 225.96 195.26 226.44 212.79 219.45 216.28 203.91 192.83" fill="#bf181a" stroke-width="0"/><polygon points="155.91 204.55 175.49 190.99 198.7 174.91 194.82 191.82 196.63 201.7 183.11 218.56 163.63 208.53 155.91 204.55" fill="#cc132f" stroke-width="0"/><polygon points="145.75 243.48 149.01 230.96 155.91 204.55 163.63 208.53 163.63 209.07 164.98 237.46 145.75 243.48" fill="#bc1d2c" stroke-width="0"/><polygon points="163.63 209.07 163.63 208.53 183.11 218.56 177.43 225.64 181.51 232.29 164.98 237.46 163.63 209.07" fill="#c3162d" stroke-width="0"/><path d="M291.94,289.63" fill="none" stroke-width="0"/><polygon points="2.13 31.31 -5.49 41.74 -16.65 57 -19.45 54.78 -19.56 38.54 -12.82 29.82 .23 29.58 2.13 31.31" fill="#0e3b5f" stroke-width="0"/><polygon points="12.11 60.73 -2.69 68.1 -16.65 57 -5.49 41.74 12.11 60.73" fill="#0e395a" stroke-width="0"/><polygon points="20.5 89.81 13.62 84.4 -2.69 68.1 12.11 60.73 19.59 57 20.08 74.53 20.5 89.81" fill="#a8191f" stroke-width="0"/><polygon points="51.21 77.97 47.34 94.88 44.62 106.73 40.48 105.52 20.5 89.81 20.08 74.53 42.12 76.97 51.21 77.97" fill="#961823" stroke-width="0"/><polygon points="71.24 114.48 44.62 106.73 47.34 94.88 70.54 78.81 71.24 114.48" fill="#7f1e2a" stroke-width="0"/><polygon points="97.02 38.83 100.29 26.31 95.71 5.67 119.46 11.16 121.95 12.19 97.02 38.83" fill="#c3162d" stroke-width="0"/><polygon points="100.29 26.31 81.05 32.33 64.52 37.51 55.24 22.39 71.69 2.86 88.7 4.04 95.71 5.67 100.29 26.31" fill="#c9242c" stroke-width="0"/><polygon points="71.69 2.86 55.24 22.39 51.21 27.17 43.29 21.49 30.87 -4.78 55.63 1.74 71.69 2.86" fill="#335725" stroke-width="0"/><polygon points="68.6 44.16 62.93 51.24 49.41 68.1 43.46 35.47 51.21 27.17 55.24 22.39 64.52 37.51 68.6 44.16" fill="#bc1d2c" stroke-width="0"/><polygon points="43.29 21.49 34.34 20.46 21.24 4.96 3.97 -15.47 21.65 -7.21 30.87 -4.78 43.29 21.49" fill="#415f35" stroke-width="0"/><polygon points="21.24 4.96 14.3 5.59 13.97 5.62 13.5 5.67 -1.6 7.04 -.79 2.86 -2.69 -14.87 3.97 -15.47 21.24 4.96" fill="#2e5182" stroke-width="0"/><polygon points="51.21 77.97 42.12 76.97 26.59 53.52 43.46 35.47 49.41 68.1 51.21 77.97" fill="#c9242c" stroke-width="0"/><polygon points="26.59 53.52 19.59 57 12.11 60.73 -5.49 41.74 2.13 31.31 26.59 53.52" fill="#123f66" stroke-width="0"/><polygon points="14.22 27.17 -3.02 14.46 -1.6 7.04 13.5 5.67 14.22 27.17" fill="#1f4877" stroke-width="0"/><polygon points="34.34 20.46 30.03 38.83 17.08 29.29 14.58 27.44 14.22 27.17 13.5 5.67 13.97 5.62 14.3 5.59 21.24 4.96 34.34 20.46" fill="#133e6c" stroke-width="0"/><polygon points="51.21 27.17 43.46 35.47 26.59 53.52 30.03 38.83 34.34 20.46 43.29 21.49 51.21 27.17" fill="#295f2a" stroke-width="0"/><line x1=".23" y1="29.58" x2="-.1" y2="29.29" fill="none" stroke-width="0"/><polygon points="30.03 38.83 26.59 53.52 2.13 31.31 .23 29.58 17.08 29.29 30.03 38.83" fill="#15385e" stroke-width="0"/><polygon points="17.08 29.29 .23 29.58 -12.82 29.82 -3.72 18.05 -3.02 14.46 14.22 27.17 14.58 27.44 17.08 29.29" fill="#194a7b" stroke-width="0"/><polygon points="42.12 76.97 20.08 74.53 19.59 57 26.59 53.52 42.12 76.97" fill="#bf181a" stroke-width="0"/><polygon points="90.13 65.24 70.54 78.81 47.34 94.88 51.21 77.97 49.41 68.1 62.93 51.24 82.41 61.27 90.13 65.24" fill="#cc132f" stroke-width="0"/><polygon points="100.29 26.31 97.02 38.83 90.13 65.24 82.41 61.27 82.41 60.73 81.05 32.33 100.29 26.31" fill="#bc1d2c" stroke-width="0"/><polygon points="82.41 60.73 82.41 61.27 62.93 51.24 68.6 44.16 64.52 37.51 81.05 32.33 82.41 60.73" fill="#c3162d" stroke-width="0"/><polygon points="169.99 111.82 172.85 122.97 177.87 114.21 175.69 97.72 168.29 86.09 164.28 85.75 160.89 90.95 146.44 94.38 146.31 105.1 169.99 111.82" fill="#c7461a" stroke-width="0"/><polygon points="157.3 117.06 169.99 111.82 146.31 105.1 157.3 117.06" fill="#9f3523" stroke-width="0"/><polygon points="125.51 114.61 138.2 117.04 156.77 120.59 157.3 117.06 146.31 105.1 135.42 103.32 125.72 112.05 125.51 114.61" fill="#0e3b5f" stroke-width="0"/><polygon points="138.27 142.93 154.12 138.23 156.77 120.59 138.2 117.04 138.27 142.93" fill="#0e395a" stroke-width="0"/><polygon points="151.97 169.92 153.32 161.27 154.12 138.23 138.27 142.93 130.26 145.31 141.86 158.46 151.97 169.92" fill="#a8191f" stroke-width="0"/><polygon points="121.43 182.21 135.8 191.93 145.87 198.74 148.07 195.04 151.97 169.92 141.86 158.46 127.4 175.27 121.43 182.21" fill="#961823" stroke-width="0"/><polygon points="131.68 222.57 145.87 198.74 135.8 191.93 107.87 196 131.68 222.57" fill="#7f1e2a" stroke-width="0"/><polygon points="61.24 184.82 50.31 177.89 39.58 159.66 25.95 179.88 24.84 182.34 61.24 184.82" fill="#c3162d" stroke-width="0"/><polygon points="50.31 177.89 68.48 169.18 84.1 161.69 80.58 144.3 55.23 141.24 43.6 153.69 39.58 159.66 50.31 177.89" fill="#c9242c" stroke-width="0"/><polygon points="55.23 141.24 80.58 144.3 86.79 145.05 88.71 135.49 79.88 107.81 66.22 129.47 55.23 141.24" fill="#335725" stroke-width="0"/><polygon points="85.66 169.34 94.63 170.64 116.02 173.76 98.12 145.83 86.79 145.05 80.58 144.3 84.1 161.69 85.66 169.34" fill="#bc1d2c" stroke-width="0"/><polygon points="88.71 135.49 94.55 128.63 93.56 108.36 92.26 81.64 84.96 99.75 79.88 107.81 88.71 135.49" fill="#415f35" stroke-width="0"/><polygon points="128.78 88.52 134.68 92.63 146.44 94.38 151.05 77.36 142.74 59.69 126.54 61.63 128.78 88.52" fill="#6576ac" stroke-width="0"/><polygon points="151.05 77.36 167.49 81.16 166.82 77.1 164.98 69.4 142.74 59.69 151.05 77.36" fill="#97aad7" stroke-width="0"/><polygon points="146.44 94.38 160.89 90.95 164.28 85.75 168.29 86.09 167.49 81.16 151.05 77.36 146.44 94.38" fill="#4e5f97" stroke-width="0"/><polygon points="117.91 80.96 128.78 88.52 126.54 61.63 116.47 62.84 109.72 68.08 117.91 80.96" fill="#435887" stroke-width="0"/><polygon points="108.25 91.81 117.91 80.96 109.72 68.08 97.54 77.54 108.25 91.81" fill="#3a5582" stroke-width="0"/><polygon points="93.56 108.36 99.07 104.09 99.33 103.9 99.71 103.6 111.68 94.31 108.25 91.81 97.54 77.54 92.26 81.64 93.56 108.36" fill="#2e5182" stroke-width="0"/><polygon points="121.43 182.21 127.4 175.27 122.77 147.53 98.12 145.83 116.02 173.76 121.43 182.21" fill="#c9242c" stroke-width="0"/><polygon points="122.77 147.53 130.26 145.31 138.27 142.93 138.2 117.04 125.51 114.61 122.77 147.53" fill="#123f66" stroke-width="0"/><polygon points="113.85 119.82 117.79 98.77 111.68 94.31 99.71 103.6 113.85 119.82" fill="#1f4877" stroke-width="0"/><polygon points="94.55 128.63 110.23 139.14 113.19 123.32 113.76 120.26 113.85 119.82 99.71 103.6 99.33 103.9 99.07 104.09 93.56 108.36 94.55 128.63" fill="#133e6c" stroke-width="0"/><polygon points="86.79 145.05 98.12 145.83 122.77 147.53 110.23 139.14 94.55 128.63 88.71 135.49 86.79 145.05" fill="#295f2a" stroke-width="0"/><line x1="125.72" y1="112.05" x2="125.76" y2="111.6" fill="none" stroke-width="0"/><path d="M117.91,80.96l10.87,7.56,5.9,4.11-13.93,8.29-2.95-2.15-6.11-4.46-3.44-2.51,9.66-10.85ZM119.27,94.29l3.86-5.96-5.14-2.74-5.92,5.52,7.2,3.18Z" fill="#133e6c" stroke-width="0"/><polygon points="112.07 91.11 119.27 94.29 123.14 88.33 117.99 85.59 112.07 91.11" fill="#2d2f37" stroke-width="0"/><polygon points="120.74 100.92 135.42 103.32 146.31 105.1 146.44 94.38 134.68 92.63 120.74 100.92" fill="#155484" stroke-width="0"/><polygon points="110.23 139.14 122.77 147.53 125.51 114.61 125.72 112.05 113.19 123.32 110.23 139.14" fill="#15385e" stroke-width="0"/><polygon points="113.19 123.32 125.72 112.05 135.42 103.32 120.74 100.92 117.79 98.77 113.85 119.82 113.76 120.26 113.19 123.32" fill="#194a7b" stroke-width="0"/><line x1="117.79" y1="98.77" x2="117.79" y2="98.76" fill="none" stroke-width="0"/><polygon points="127.4 175.27 141.86 158.46 130.26 145.31 122.77 147.53 127.4 175.27" fill="#bf181a" stroke-width="0"/><polygon points="84.29 199.44 107.87 196 135.8 191.93 121.43 182.21 116.02 173.76 94.63 170.64 87.23 191.26 84.29 199.44" fill="#cc132f" stroke-width="0"/><polygon points="50.31 177.89 61.24 184.82 84.29 199.44 87.23 191.26 86.86 190.87 68.48 169.18 50.31 177.89" fill="#bc1d2c" stroke-width="0"/><polygon points="86.86 190.87 87.23 191.26 94.63 170.64 85.66 169.34 84.1 161.69 68.48 169.18 86.86 190.87" fill="#c3162d" stroke-width="0"/><path d="M125.77,44.44" fill="none" stroke-width="0"/><polygon points="-5.16 102.19 -10.67 92.09 -1.03 95.08 8.62 108.62 11.14 122.17 8.44 125.15 2.42 123.66 -10.5 131.01 -17.91 123.26 -5.16 102.19" fill="#c7461a" stroke-width="0"/><polygon points="-19.42 147.34 -17.91 140.31 -10.5 131.01 4.48 140.31 10.45 158.9 -2.72 168.53 -19.42 147.34" fill="#6576ac" stroke-width="0"/><polygon points="4.48 140.31 13.91 126.33 16.19 129.75 20.1 136.63 10.45 158.9 4.48 140.31" fill="#97aad7" stroke-width="0"/><polygon points="-10.5 131.01 2.42 123.66 8.44 125.15 11.14 122.17 13.91 126.33 4.48 140.31 -10.5 131.01" fill="#4e5f97" stroke-width="0"/><path d="M8.44,181.63" fill="none" stroke-width="0"/><polygon points="354.74 6.48 328.12 -1.27 330.84 -13.12 354.04 -29.19 354.74 6.48" fill="#7f1e2a" stroke-width="0"/><polygon points="453.49 3.82 456.35 14.97 461.37 6.21 459.19 -10.28 451.79 -21.91 447.78 -22.25 444.39 -17.05 429.94 -13.62 429.81 -2.9 453.49 3.82" fill="#c7461a" stroke-width="0"/><polygon points="440.8 9.06 453.49 3.82 429.81 -2.9 440.8 9.06" fill="#9f3523" stroke-width="0"/><polygon points="409.01 6.61 421.7 9.04 440.27 12.59 440.8 9.06 429.81 -2.9 418.92 -4.68 409.22 4.05 409.01 6.61" fill="#0e3b5f" stroke-width="0"/><polygon points="421.77 34.93 437.62 30.23 440.27 12.59 421.7 9.04 421.77 34.93" fill="#0e395a" stroke-width="0"/><polygon points="435.47 61.92 436.82 53.27 437.62 30.23 421.77 34.93 413.76 37.31 425.36 50.46 435.47 61.92" fill="#a8191f" stroke-width="0"/><polygon points="404.93 74.21 419.3 83.93 429.37 90.74 431.57 87.04 435.47 61.92 425.36 50.46 410.9 67.27 404.93 74.21" fill="#961823" stroke-width="0"/><polygon points="415.18 114.57 429.37 90.74 419.3 83.93 391.37 88 415.18 114.57" fill="#7f1e2a" stroke-width="0"/><polygon points="344.74 76.82 333.81 69.89 323.08 51.66 309.45 71.88 308.34 74.34 344.74 76.82" fill="#c3162d" stroke-width="0"/><polygon points="333.81 69.89 351.98 61.18 367.6 53.69 364.08 36.3 338.73 33.24 327.1 45.69 323.08 51.66 333.81 69.89" fill="#c9242c" stroke-width="0"/><polygon points="338.73 33.24 364.08 36.3 370.29 37.05 372.21 27.49 363.38 -.19 349.72 21.47 338.73 33.24" fill="#335725" stroke-width="0"/><polygon points="369.16 61.34 378.13 62.64 399.52 65.76 381.62 37.83 370.29 37.05 364.08 36.3 367.6 53.69 369.16 61.34" fill="#bc1d2c" stroke-width="0"/><polygon points="372.21 27.49 378.05 20.63 377.06 .36 375.76 -26.36 368.46 -8.25 363.38 -.19 372.21 27.49" fill="#415f35" stroke-width="0"/><polygon points="377.06 .36 382.57 -3.91 382.83 -4.1 383.21 -4.4 395.18 -13.69 391.75 -16.19 381.04 -30.46 375.76 -26.36 377.06 .36" fill="#2e5182" stroke-width="0"/><polygon points="404.93 74.21 410.9 67.27 406.27 39.53 381.62 37.83 399.52 65.76 404.93 74.21" fill="#c9242c" stroke-width="0"/><polygon points="406.27 39.53 413.76 37.31 421.77 34.93 421.7 9.04 409.01 6.61 406.27 39.53" fill="#123f66" stroke-width="0"/><polygon points="397.35 11.82 401.29 -9.23 395.18 -13.69 383.21 -4.4 397.35 11.82" fill="#1f4877" stroke-width="0"/><polygon points="378.05 20.63 393.73 31.14 396.69 15.32 397.26 12.26 397.35 11.82 383.21 -4.4 382.83 -4.1 382.57 -3.91 377.06 .36 378.05 20.63" fill="#133e6c" stroke-width="0"/><polygon points="370.29 37.05 381.62 37.83 406.27 39.53 393.73 31.14 378.05 20.63 372.21 27.49 370.29 37.05" fill="#295f2a" stroke-width="0"/><line x1="409.22" y1="4.05" x2="409.26" y2="3.6" fill="none" stroke-width="0"/><polygon points="393.73 31.14 406.27 39.53 409.01 6.61 409.22 4.05 396.69 15.32 393.73 31.14" fill="#15385e" stroke-width="0"/><polygon points="396.69 15.32 409.22 4.05 418.92 -4.68 404.24 -7.08 401.29 -9.23 397.35 11.82 397.26 12.26 396.69 15.32" fill="#194a7b" stroke-width="0"/><polygon points="410.9 67.27 425.36 50.46 413.76 37.31 406.27 39.53 410.9 67.27" fill="#bf181a" stroke-width="0"/><polygon points="367.79 91.44 391.37 88 419.3 83.93 404.93 74.21 399.52 65.76 378.13 62.64 370.73 83.26 367.79 91.44" fill="#cc132f" stroke-width="0"/><polygon points="333.81 69.89 344.74 76.82 367.79 91.44 370.73 83.26 370.36 82.87 351.98 61.18 333.81 69.89" fill="#bc1d2c" stroke-width="0"/><polygon points="370.36 82.87 370.73 83.26 378.13 62.64 369.16 61.34 367.6 53.69 351.98 61.18 370.36 82.87" fill="#c3162d" stroke-width="0"/><polygon points="278.34 -5.81 272.83 -15.91 282.47 -12.92 292.12 .62 294.64 14.17 291.94 17.15 285.92 15.66 273 23.01 265.59 15.26 278.34 -5.81" fill="#c7461a" stroke-width="0"/><polygon points="265.48 -.99 278.34 -5.81 265.59 15.26 265.48 -.99" fill="#9f3523" stroke-width="0"/><polygon points="243.9 22.48 251.53 12.06 262.69 -3.21 265.48 -.99 265.59 15.26 258.85 23.98 245.81 24.21 243.9 22.48" fill="#0e3b5f" stroke-width="0"/><polygon points="233.92 -6.93 248.72 -14.3 262.69 -3.21 251.53 12.06 233.92 -6.93" fill="#0e395a" stroke-width="0"/><polygon points="149.01 14.96 145.75 27.48 150.33 48.13 126.57 42.64 124.08 41.6 149.01 14.96" fill="#c3162d" stroke-width="0"/><polygon points="145.75 27.48 164.98 21.46 181.51 16.29 190.79 31.41 174.34 50.94 157.34 49.76 150.33 48.13 145.75 27.48" fill="#c9242c" stroke-width="0"/><polygon points="174.34 50.94 190.79 31.41 194.82 26.62 202.74 32.31 215.16 58.58 190.4 52.05 174.34 50.94" fill="#335725" stroke-width="0"/><polygon points="177.43 9.64 183.11 2.56 196.63 -14.3 202.58 18.33 194.82 26.62 190.79 31.41 181.51 16.29 177.43 9.64" fill="#bc1d2c" stroke-width="0"/><polygon points="202.74 32.31 211.7 33.34 224.8 48.84 242.06 69.27 224.38 61.01 215.16 58.58 202.74 32.31" fill="#415f35" stroke-width="0"/><polygon points="264.08 39.34 265.59 32.31 273 23.01 287.98 32.31 293.95 50.9 280.78 60.53 264.08 39.34" fill="#6576ac" stroke-width="0"/><polygon points="287.98 32.31 297.41 18.33 299.69 21.75 303.6 28.63 293.95 50.9 287.98 32.31" fill="#97aad7" stroke-width="0"/><polygon points="273 23.01 285.92 15.66 291.94 17.15 294.64 14.17 297.41 18.33 287.98 32.31 273 23.01" fill="#4e5f97" stroke-width="0"/><polygon points="261.29 52.28 264.08 39.34 280.78 60.53 272.6 66.52 264.08 67.29 261.29 52.28" fill="#435887" stroke-width="0"/><polygon points="246.82 50.94 261.29 52.28 264.08 67.29 248.72 68.67 246.82 50.94" fill="#3a5582" stroke-width="0"/><polygon points="224.8 48.84 231.73 48.21 232.06 48.17 232.53 48.13 247.63 46.76 246.82 50.94 248.72 68.67 242.06 69.27 224.8 48.84" fill="#2e5182" stroke-width="0"/><polygon points="194.82 -24.18 203.91 -23.17 219.45 .28 202.58 18.33 196.63 -14.3 194.82 -24.18" fill="#c9242c" stroke-width="0"/><polygon points="219.45 .28 226.44 -3.21 233.92 -6.93 251.53 12.06 243.9 22.48 219.45 .28" fill="#123f66" stroke-width="0"/><polygon points="231.82 26.62 249.06 39.33 247.63 46.76 232.53 48.13 231.82 26.62" fill="#1f4877" stroke-width="0"/><polygon points="211.7 33.34 216 14.96 228.95 24.51 231.46 26.36 231.82 26.62 232.53 48.13 232.06 48.17 231.73 48.21 224.8 48.84 211.7 33.34" fill="#133e6c" stroke-width="0"/><polygon points="194.82 26.62 202.58 18.33 219.45 .28 216 14.96 211.7 33.34 202.74 32.31 194.82 26.62" fill="#295f2a" stroke-width="0"/><line x1="245.81" y1="24.21" x2="246.14" y2="24.51" fill="none" stroke-width="0"/><path d="M246.82,50.94l.81-4.18,1.43-7.43.69-3.59,15.84-3.44-1.51,7.03-2.79,12.94-14.47-1.35ZM250.1,48.84h8.09l1.89-5.51-6.89-1.72-3.1,7.24Z" fill="#133e6c" stroke-width="0"/><polygon points="250.1 48.84 253.2 41.6 260.09 43.33 258.19 48.84 250.1 48.84" fill="#2d2f37" stroke-width="0"/><polygon points="249.75 35.75 258.85 23.98 265.59 15.26 273 23.01 265.59 32.31 249.75 35.75" fill="#155484" stroke-width="0"/><polygon points="216 14.96 219.45 .28 243.9 22.48 245.81 24.21 228.95 24.51 216 14.96" fill="#15385e" stroke-width="0"/><polygon points="228.95 24.51 245.81 24.21 258.85 23.98 249.75 35.75 249.06 39.33 231.82 26.62 231.46 26.36 228.95 24.51" fill="#194a7b" stroke-width="0"/><line x1="249.06" y1="39.33" x2="249.06" y2="39.34" fill="none" stroke-width="0"/><polygon points="203.91 -23.17 225.96 -20.74 226.44 -3.21 219.45 .28 203.91 -23.17" fill="#bf181a" stroke-width="0"/><polygon points="155.91 -11.45 175.49 -25.01 198.7 -41.09 194.82 -24.18 196.63 -14.3 183.11 2.56 163.63 -7.47 155.91 -11.45" fill="#cc132f" stroke-width="0"/><polygon points="145.75 27.48 149.01 14.96 155.91 -11.45 163.63 -7.47 163.63 -6.93 164.98 21.46 145.75 27.48" fill="#bc1d2c" stroke-width="0"/><polygon points="163.63 -6.93 163.63 -7.47 183.11 2.56 177.43 9.64 181.51 16.29 164.98 21.46 163.63 -6.93" fill="#c3162d" stroke-width="0"/><path d="M291.94,73.63" fill="none" stroke-width="0"/><polygon points="131.68 6.57 145.87 -17.26 135.8 -24.07 107.87 -20 131.68 6.57" fill="#7f1e2a" stroke-width="0"/></pattern></defs><rect x="0" width="900" height="750" fill="url(#uuid-a54ab864-db3a-49c9-a8b6-5408ff6ddf61)" stroke-width="0"/><rect x="0" width="900" height="750" fill="url(#uuid-a54ab864-db3a-49c9-a8b6-5408ff6ddf61)" stroke-width="0"/></svg>