<?xml version="1.0" encoding="UTF-8"?><svg id="uuid-c6fbff05-7577-450c-a64e-1255be87a2b4" xmlns="http://www.w3.org/2000/svg" width="900" height="750" xmlns:xlink="http://www.w3.org/1999/xlink" viewBox="0 0 900 750"><defs><pattern id="uuid-c1cc97d6-b54e-4357-b93b-2dc181b53708" x="0" y="0" width="306" height="305.22" patternTransform="translate(460 -2310)" patternUnits="userSpaceOnUse" viewBox="0 0 306 305.22"><rect y="0" width="306" height="305.22" fill="none" stroke-width="0"/><path d="M254.32,370.71c9.23-3.24,16.63-9.67,24.05-15.77,14.83-12.21,20.58-31.81,21.81-50.26v-3.12c-2.94-17.56-8.1-31.26-20.76-44.13-5.98-6.08-12.44-12.19-20.06-16.14-7.55-3.91-16.15-4.69-24.34-6.57-1.36,0-2.72,0-4.08,0-9.27,1.04-18.82,3.47-27.4,7.15-7.27,3.13-16.5,7.37-21.96,13.14-5.75,6.08-9.86,13.28-14.13,20.41-4.54,7.6-6.73,14-8.63,22.41,0,3.72,0,7.44,0,11.16,3,9.75,6.19,18.85,10.66,28.06,2.1,4.32,4.47,8.35,6.92,12.47,1.47,2.48,6.7,6.75,7.41,9.22.94-.64,4.9,3.2,5.84,3.93-.1.01-.2.02-.17.02,5.79,4.37,14.6,9.58,21.63,11.53,2.84.79,16.02-.17,16.81,1.49h.24c8.9-.61,17.62-2.02,26.14-5.01ZM246.37,321.13c3.9,1.32,7.24,2.29,10.99,4.49,2.92,1.71,11.02,6.29,11.11,10.31,1.62-1.48,10.68,6.41,10.67,8.97-.02,5.71-11.71,11.69-15.96,13.45-6.59,2.74-19.13,11.68-25.58,5.42-4.28-4.16.09-10.39-2.11-14.72,1.96.13.24-7.43.24-8.65.08-.03-.03.01,0,0-.82-2.62-.33-6.55-.23-9.27.11-3.12,1.94-6.77,1.75-9.69-.28-4.46-5.99-8.13-5.83-12.69.82.27-.31-.86-.4-.92-1.1-.74-5.56-.04-7.15-.57,2.95-5.73-18.29-12.8-22.09-13.82-4.05-1.09-14.74-5.32-18.58-3.61-4.3,1.91-1.34,5.78,2.35,5.75,2.21-.02,4.4-.91,6.91-.79,2.92.14,5.94.49,8.84.88,4.9.65,10.4,1.59,13.96,5.21,1.37,1.4,1.7,3.21,2.78,4.49.99,1.17,4.15,1.73,4.5,3.3.97,4.4-6.52,2.74-8.01.69.77-.35,1.18-.98,1.22-1.9-6.7-.9-10.58,4.03-15.94,7.14-5.79,3.35-12.13,5.88-18.08,8.98-1.66.87-7.93,5.47-9.61,5.13-2.07-.41-2.17-2.49-3.12-4.98-2.55-6.64-4.88-12.9-5.16-20.07-.11-2.75-.88-7.09-.06-9.73.1-1.21.54-2.26,1.33-3.18.88-.39,1.8-.57,2.77-.55.88-1.46-.01-1.16.18-2.1-1,.31-1.56.08-1.67-.66.77-1.54,1.54-3.08,2.31-4.63,2.41-4.64,5.89-12.4,10-15.75,3.29-2.68,10.33-.88,12.27,2.62.31-.33.62-.67.93-1-.15-.13-.3-.25-.25-.21,3.27-3.64,3.57-4.96,5.2-.16-.12.02-.24.05-.47.09,1.71,1.26,2.26,4.65,3.34,6.58,1.62,2.89,3.68,5.93,5.73,8.53,4.61,5.85,11.87,10.41,18.36,13.94,4.84,2.63,8.41-.65,11.17,5.49,1.01,2.26.69,5.51,1.54,7.5.96,2.24,7.31,4.31,7.5,5.25,0-.02-2.23,1.77-2.12,1.68.63,2.36,2.5,3.05,4.5,3.73ZM242.26,266.08c-.71,1.63-2.09,2.62-2.68,4.28-.57,1.6-.29,3.64-1.01,5.36-.59,1.41-3.21,7.28-4.27,8.1-3.71,2.86-3.71-1.65-4.36-4.35-.87-3.59-1.25-7.76-3.27-10.9-.53-.83-.42-1.9-1.03-2.64.08.1-2.46-.79-3.2-1.56-1.31-1.36-1.24-3.36-2.29-4.81-.77-1.07-1.9-1.59-2.58-2.41-1.34-1.62-1.88-4.99-4.93-4.02,3.53,3.93,7.62,10.18,11.01,15.05,1.46,2.1,2.74,4.32,3.09,6.8.57,3.98-1.7,6.86-1.31,10.72.28,2.8,3.28,5.47,1.15,8.05-2.09,2.53-7.63-2.03-9.81-3.52-8.49-5.82-13.16-13.62-17.01-22.78-1.33-3.16-1.75-6.58-4.67-6.72-2.22-.11-8.8,4.48-7.61-1.51.37-1.85,5.02-4.23,6.5-5.31,2.82-2.06,5.36-4.57,8.59-6.1,10.44-4.94,44.29-15.94,40.56,6.54,1.27.98-.27,10.36-.87,11.73ZM247.15,307.28l.29-.5c-.04.13-.08.26-.12.4-1.47-1.22-2.74-4.42-3.28-6.24-1.18-4-.73-4.88,2.39-7.2,3.5-2.6,6.75-5.21,10.36-7.86,5.31-3.89,10.1-8.02,15.23-11.87,2.03-1.52,6.11-5.42,8.79-4.89,2.98.59,4.18,5.32,5.1,7.65.87,2.19,1.39,4.67,2.72,6.4.6.78,2.12.42,2.74,1.14.64.74.66,2.96.96,3.97,1.73,5.74,3.65,11.49,1.25,17.46-1.92,4.78-6.53,4.44-10.5,3.99-4.11-.48-7.11-.67-11.24.02-1.55.26-8.9,2.51-9.79.87-6.06,1.9-9.74-.38-14.91-3.34ZM221.15,321.32c-2.73,1.43.72,2.91,1.23,4.47,1.07,3.33-2.22,7.18-3.7,10-3.31,6.27-6.09,13.15-9.84,19.16-8.61,13.82-24.17-2.44-29.71-10.76-2.51-3.78-2.31-3.99-1.13-8.22.72-2.6.89-5.59,2.7-7.62,4.12-4.58,12.63-6.6,17.99-9.35,2.79-1.43,5.49-4.01,8.53-4.81,2.8-.74,6.32-.06,9.17.2,5.5.5,11.07,2.38,4.89,7.55-.06-.3-.09-.45-.12-.62ZM261.33,277.91c-1.86,1.58-2.97,1.42-4.74,2.64-2.01,1.38-2.44,2.58-4.21,4.05-.85.7-4.51-.38-2.59,1.5-.22.09-.44.17-.67.24.26.3.58.45.97.45-.86,1.16-7.46,6.83-9.45,6.57-8.04-1.04,1.83-13.01,2.87-15.1,3.18-6.41,3.36-14.15,4.54-20.95.96-5.56,5.66-8.68,11.08-6.36,0,.02.01-.19.03-.41,1.41,1.2.3,1.34,1.27,2.39.94,1.02,3.86,2.49,4.95,3.36,3.56,2.82,6.83,4.87,9.22,7.9.02-.13.03-.26.04-.31,5.28,7.32-15.27,10.39-13.32,14.02ZM233.56,340.45c-.38,3.59.26,7.48-.48,10.99-.72,3.43-1.55,8.67-4.52,10.92-3.08,2.33-8.81,2.29-12.18.89-5.48-2.28-2.23-4.58-1.13-8.45,1.55-5.47,2.52-10.6,4.85-15.96,1.99-4.58,3.38-9.4,5.99-13.68,1.21-1.98,1.68-2.54,3.51-3.61,1.14-.67,2.17.3,2.56-1.03.96.58,1.99,1.65,2.45,2.69-.47,5.72-.45,11.57-1.05,17.26ZM279.68,334.13c-2.76,0-.26-.67-3.07-1.56-1.8-.57-3.57-.28-5.36-.79-4.3-1.21-7.77-5.49-11.33-7.99-3.62-2.53-11.59-5.01-13.37-9.12,5.08-.45,12.25,1.29,16.9-.81,9.46-.92,24.04-4.45,22.19,10.45-.31,3.21-1.26,9.8-5.96,9.82Z" fill="#9fc54d" stroke-width="0"/><path d="M101.32,370.71c9.23-3.24,16.63-9.67,24.05-15.77,14.83-12.21,20.58-31.81,21.81-50.26v-3.12c-2.94-17.56-8.1-31.26-20.76-44.13-5.98-6.08-12.44-12.19-20.06-16.14-7.55-3.91-16.15-4.69-24.34-6.57-1.36,0-2.72,0-4.08,0-9.27,1.04-18.82,3.47-27.4,7.15-7.27,3.13-16.5,7.37-21.96,13.14-5.75,6.08-9.86,13.28-14.13,20.41-4.54,7.6-6.73,14-8.63,22.41,0,3.72,0,7.44,0,11.16,3,9.75,6.19,18.85,10.66,28.06,2.1,4.32,4.47,8.35,6.92,12.47,1.47,2.48,6.7,6.75,7.41,9.22.94-.64,4.9,3.2,5.84,3.93-.1.01-.2.02-.17.02,5.79,4.37,14.6,9.58,21.63,11.53,2.84.79,16.02-.17,16.81,1.49h.24c8.9-.61,17.62-2.02,26.14-5.01ZM93.37,321.13c3.9,1.32,7.24,2.29,10.99,4.49,2.92,1.71,11.02,6.29,11.11,10.31,1.62-1.48,10.68,6.41,10.67,8.97-.02,5.71-11.71,11.69-15.96,13.45-6.59,2.74-19.13,11.68-25.58,5.42-4.28-4.16.09-10.39-2.11-14.72,1.96.13.24-7.43.24-8.65.08-.03-.03.01,0,0-.82-2.62-.33-6.55-.23-9.27.11-3.12,1.94-6.77,1.75-9.69-.28-4.46-5.99-8.13-5.83-12.69.82.27-.31-.86-.4-.92-1.1-.74-5.56-.04-7.15-.57,2.95-5.73-18.29-12.8-22.09-13.82-4.05-1.09-14.74-5.32-18.58-3.61-4.3,1.91-1.34,5.78,2.35,5.75,2.21-.02,4.4-.91,6.91-.79,2.92.14,5.94.49,8.84.88,4.9.65,10.4,1.59,13.96,5.21,1.37,1.4,1.7,3.21,2.78,4.49.99,1.17,4.15,1.73,4.5,3.3.97,4.4-6.52,2.74-8.01.69.77-.35,1.18-.98,1.22-1.9-6.7-.9-10.58,4.03-15.94,7.14-5.79,3.35-12.13,5.88-18.08,8.98-1.66.87-7.93,5.47-9.61,5.13-2.07-.41-2.17-2.49-3.12-4.98-2.55-6.64-4.88-12.9-5.16-20.07-.11-2.75-.88-7.09-.06-9.73.1-1.21.54-2.26,1.33-3.18.88-.39,1.8-.57,2.77-.55.88-1.46-.01-1.16.18-2.1-1,.31-1.56.08-1.67-.66.77-1.54,1.54-3.08,2.31-4.63,2.41-4.64,5.89-12.4,10-15.75,3.29-2.68,10.33-.88,12.27,2.62.31-.33.62-.67.93-1-.15-.13-.3-.25-.25-.21,3.27-3.64,3.57-4.96,5.2-.16-.12.02-.24.05-.47.09,1.71,1.26,2.26,4.65,3.34,6.58,1.62,2.89,3.68,5.93,5.73,8.53,4.61,5.85,11.87,10.41,18.36,13.94,4.84,2.63,8.41-.65,11.17,5.49,1.01,2.26.69,5.51,1.54,7.5.96,2.24,7.31,4.31,7.5,5.25,0-.02-2.23,1.77-2.12,1.68.63,2.36,2.5,3.05,4.5,3.73ZM89.26,266.08c-.71,1.63-2.09,2.62-2.68,4.28-.57,1.6-.29,3.64-1.01,5.36-.59,1.41-3.21,7.28-4.27,8.1-3.71,2.86-3.71-1.65-4.36-4.35-.87-3.59-1.25-7.76-3.27-10.9-.53-.83-.42-1.9-1.03-2.64.08.1-2.46-.79-3.2-1.56-1.31-1.36-1.24-3.36-2.29-4.81-.77-1.07-1.9-1.59-2.58-2.41-1.34-1.62-1.88-4.99-4.93-4.02,3.53,3.93,7.62,10.18,11.01,15.05,1.46,2.1,2.74,4.32,3.09,6.8.57,3.98-1.7,6.86-1.31,10.72.28,2.8,3.28,5.47,1.15,8.05-2.09,2.53-7.63-2.03-9.81-3.52-8.49-5.82-13.16-13.62-17.01-22.78-1.33-3.16-1.75-6.58-4.67-6.72-2.22-.11-8.8,4.48-7.61-1.51.37-1.85,5.02-4.23,6.5-5.31,2.82-2.06,5.36-4.57,8.59-6.1,10.44-4.94,44.29-15.94,40.56,6.54,1.27.98-.27,10.36-.87,11.73ZM94.15,307.28l.29-.5c-.04.13-.08.26-.12.4-1.47-1.22-2.74-4.42-3.28-6.24-1.18-4-.73-4.88,2.39-7.2,3.5-2.6,6.75-5.21,10.36-7.86,5.31-3.89,10.1-8.02,15.23-11.87,2.03-1.52,6.11-5.42,8.79-4.89,2.98.59,4.18,5.32,5.1,7.65.87,2.19,1.39,4.67,2.72,6.4.6.78,2.12.42,2.74,1.14.64.74.66,2.96.96,3.97,1.73,5.74,3.65,11.49,1.25,17.46-1.92,4.78-6.53,4.44-10.5,3.99-4.11-.48-7.11-.67-11.24.02-1.55.26-8.9,2.51-9.79.87-6.06,1.9-9.74-.38-14.91-3.34ZM68.15,321.32c-2.73,1.43.72,2.91,1.23,4.47,1.07,3.33-2.22,7.18-3.7,10-3.31,6.27-6.09,13.15-9.84,19.16-8.61,13.82-24.17-2.44-29.71-10.76-2.51-3.78-2.31-3.99-1.13-8.22.72-2.6.89-5.59,2.7-7.62,4.12-4.58,12.63-6.6,17.99-9.35,2.79-1.43,5.49-4.01,8.53-4.81,2.8-.74,6.32-.06,9.17.2,5.5.5,11.07,2.38,4.89,7.55-.06-.3-.09-.45-.12-.62ZM108.33,277.91c-1.86,1.58-2.97,1.42-4.74,2.64-2.01,1.38-2.44,2.58-4.21,4.05-.85.7-4.51-.38-2.59,1.5-.22.09-.44.17-.67.24.26.3.58.45.97.45-.86,1.16-7.46,6.83-9.45,6.57-8.04-1.04,1.83-13.01,2.87-15.1,3.18-6.41,3.36-14.15,4.54-20.95.96-5.56,5.66-8.68,11.08-6.36,0,.02.01-.19.03-.41,1.41,1.2.3,1.34,1.27,2.39.94,1.02,3.86,2.49,4.95,3.36,3.56,2.82,6.83,4.87,9.22,7.9.02-.13.03-.26.04-.31,5.28,7.32-15.27,10.39-13.32,14.02ZM80.56,340.45c-.38,3.59.26,7.48-.48,10.99-.72,3.43-1.55,8.67-4.52,10.92-3.08,2.33-8.81,2.29-12.18.89-5.48-2.28-2.23-4.58-1.13-8.45,1.55-5.47,2.52-10.6,4.85-15.96,1.99-4.58,3.38-9.4,5.99-13.68,1.21-1.98,1.68-2.54,3.51-3.61,1.14-.67,2.17.3,2.56-1.03.96.58,1.99,1.65,2.45,2.69-.47,5.72-.45,11.57-1.05,17.26ZM126.68,334.13c-2.76,0-.26-.67-3.07-1.56-1.8-.57-3.57-.28-5.36-.79-4.3-1.21-7.77-5.49-11.33-7.99-3.62-2.53-11.59-5.01-13.37-9.12,5.08-.45,12.25,1.29,16.9-.81,9.46-.92,24.04-4.45,22.19,10.45-.31,3.21-1.26,9.8-5.96,9.82Z" fill="#9fc54d" stroke-width="0"/><path d="M330.82,218.1c9.23-3.24,16.63-9.67,24.05-15.77,14.83-12.21,20.58-31.81,21.81-50.26v-3.12c-2.94-17.56-8.1-31.26-20.76-44.13-5.98-6.08-12.44-12.19-20.06-16.14-7.55-3.91-16.15-4.69-24.34-6.57-1.36,0-2.72,0-4.08,0-9.27,1.04-18.82,3.47-27.4,7.15-7.27,3.13-16.5,7.37-21.96,13.14-5.75,6.08-9.86,13.28-14.13,20.41-4.54,7.6-6.73,14-8.63,22.41,0,3.72,0,7.44,0,11.16,3,9.75,6.19,18.85,10.66,28.06,2.1,4.32,4.47,8.35,6.92,12.47,1.47,2.48,6.7,6.75,7.41,9.22.94-.64,4.9,3.2,5.84,3.93-.1.01-.2.02-.17.02,5.79,4.37,14.6,9.58,21.63,11.53,2.84.79,16.02-.17,16.81,1.49h.24c8.9-.61,17.62-2.02,26.14-5.01ZM322.87,168.52c3.9,1.32,7.24,2.29,10.99,4.49,2.92,1.71,11.02,6.29,11.11,10.31,1.62-1.48,10.68,6.41,10.67,8.97-.02,5.71-11.71,11.69-15.96,13.45-6.59,2.74-19.13,11.68-25.58,5.42-4.28-4.16.09-10.39-2.11-14.72,1.96.13.24-7.43.24-8.65.08-.03-.03.01,0,0-.82-2.62-.33-6.55-.23-9.27.11-3.12,1.94-6.77,1.75-9.69-.28-4.46-5.99-8.13-5.83-12.69.82.27-.31-.86-.4-.92-1.1-.74-5.56-.04-7.15-.57,2.95-5.73-18.29-12.8-22.09-13.82-4.05-1.09-14.74-5.32-18.58-3.61-4.3,1.91-1.34,5.78,2.35,5.75,2.21-.02,4.4-.91,6.91-.79,2.92.14,5.94.49,8.84.88,4.9.65,10.4,1.59,13.96,5.21,1.37,1.4,1.7,3.21,2.78,4.49.99,1.17,4.15,1.73,4.5,3.3.97,4.4-6.52,2.74-8.01.69.77-.35,1.18-.98,1.22-1.9-6.7-.9-10.58,4.03-15.94,7.14-5.79,3.35-12.13,5.88-18.08,8.98-1.66.87-7.93,5.47-9.61,5.13-2.07-.41-2.17-2.49-3.12-4.98-2.55-6.64-4.88-12.9-5.16-20.07-.11-2.75-.88-7.09-.06-9.73.1-1.21.54-2.26,1.33-3.18.88-.39,1.8-.57,2.77-.55.88-1.46-.01-1.16.18-2.1-1,.31-1.56.08-1.67-.66.77-1.54,1.54-3.08,2.31-4.63,2.41-4.64,5.89-12.4,10-15.75,3.29-2.68,10.33-.88,12.27,2.62.31-.33.62-.67.93-1-.15-.13-.3-.25-.25-.21,3.27-3.64,3.57-4.96,5.2-.16-.12.02-.24.05-.47.09,1.71,1.26,2.26,4.65,3.34,6.58,1.62,2.89,3.68,5.93,5.73,8.53,4.61,5.85,11.87,10.41,18.36,13.94,4.84,2.63,8.41-.65,11.17,5.49,1.01,2.26.69,5.51,1.54,7.5.96,2.24,7.31,4.31,7.5,5.25,0-.02-2.23,1.77-2.12,1.68.63,2.36,2.5,3.05,4.5,3.73ZM318.76,113.47c-.71,1.63-2.09,2.62-2.68,4.28-.57,1.6-.29,3.64-1.01,5.36-.59,1.41-3.21,7.28-4.27,8.1-3.71,2.86-3.71-1.65-4.36-4.35-.87-3.59-1.25-7.76-3.27-10.9-.53-.83-.42-1.9-1.03-2.64.08.1-2.46-.79-3.2-1.56-1.31-1.36-1.24-3.36-2.29-4.81-.77-1.07-1.9-1.59-2.58-2.41-1.34-1.62-1.88-4.99-4.93-4.02,3.53,3.93,7.62,10.18,11.01,15.05,1.46,2.1,2.74,4.32,3.09,6.8.57,3.98-1.7,6.86-1.31,10.72.28,2.8,3.28,5.47,1.15,8.05-2.09,2.53-7.63-2.03-9.81-3.52-8.49-5.82-13.16-13.62-17.01-22.78-1.33-3.16-1.75-6.58-4.67-6.72-2.22-.11-8.8,4.48-7.61-1.51.37-1.85,5.02-4.23,6.5-5.31,2.82-2.06,5.36-4.57,8.59-6.1,10.44-4.94,44.29-15.94,40.56,6.54,1.27.98-.27,10.36-.87,11.73ZM323.65,154.67l.29-.5c-.04.13-.08.26-.12.4-1.47-1.22-2.74-4.42-3.28-6.24-1.18-4-.73-4.88,2.39-7.2,3.5-2.6,6.75-5.21,10.36-7.86,5.31-3.89,10.1-8.02,15.23-11.87,2.03-1.52,6.11-5.42,8.79-4.89,2.98.59,4.18,5.32,5.1,7.65.87,2.19,1.39,4.67,2.72,6.4.6.78,2.12.42,2.74,1.14.64.74.66,2.96.96,3.97,1.73,5.74,3.65,11.49,1.25,17.46-1.92,4.78-6.53,4.44-10.5,3.99-4.11-.48-7.11-.67-11.24.02-1.55.26-8.9,2.51-9.79.87-6.06,1.9-9.74-.38-14.91-3.34ZM297.65,168.71c-2.73,1.43.72,2.91,1.23,4.47,1.07,3.33-2.22,7.18-3.7,10-3.31,6.27-6.09,13.15-9.84,19.16-8.61,13.82-24.17-2.44-29.71-10.76-2.51-3.78-2.31-3.99-1.13-8.22.72-2.6.89-5.59,2.7-7.62,4.12-4.58,12.63-6.6,17.99-9.35,2.79-1.43,5.49-4.01,8.53-4.81,2.8-.74,6.32-.06,9.17.2,5.5.5,11.07,2.38,4.89,7.55-.06-.3-.09-.45-.12-.62ZM337.83,125.3c-1.86,1.58-2.97,1.42-4.74,2.64-2.01,1.38-2.44,2.58-4.21,4.05-.85.7-4.51-.38-2.59,1.5-.22.09-.44.17-.67.24.26.3.58.45.97.45-.86,1.16-7.46,6.83-9.45,6.57-8.04-1.04,1.83-13.01,2.87-15.1,3.18-6.41,3.36-14.15,4.54-20.95.96-5.56,5.66-8.68,11.08-6.36,0,.02.01-.19.03-.41,1.41,1.2.3,1.34,1.27,2.39.94,1.02,3.86,2.49,4.95,3.36,3.56,2.82,6.83,4.87,9.22,7.9.02-.13.03-.26.04-.31,5.28,7.32-15.27,10.39-13.32,14.02ZM310.06,187.84c-.38,3.59.26,7.48-.48,10.99-.72,3.43-1.55,8.67-4.52,10.92-3.08,2.33-8.81,2.29-12.18.89-5.48-2.28-2.23-4.58-1.13-8.45,1.55-5.47,2.52-10.6,4.85-15.96,1.99-4.58,3.38-9.4,5.99-13.68,1.21-1.98,1.68-2.54,3.51-3.61,1.14-.67,2.17.3,2.56-1.03.96.58,1.99,1.65,2.45,2.69-.47,5.72-.45,11.57-1.05,17.26ZM356.18,181.52c-2.76,0-.26-.67-3.07-1.56-1.8-.57-3.57-.28-5.36-.79-4.3-1.21-7.77-5.49-11.33-7.99-3.62-2.53-11.59-5.01-13.37-9.12,5.08-.45,12.25,1.29,16.9-.81,9.46-.92,24.04-4.45,22.19,10.45-.31,3.21-1.26,9.8-5.96,9.82Z" fill="#9fc54d" stroke-width="0"/><path d="M177.82,218.1c9.23-3.24,16.63-9.67,24.05-15.77,14.83-12.21,20.58-31.81,21.81-50.26v-3.12c-2.94-17.56-8.1-31.26-20.76-44.13-5.98-6.08-12.44-12.19-20.06-16.14-7.55-3.91-16.15-4.69-24.34-6.57-1.36,0-2.72,0-4.08,0-9.27,1.04-18.82,3.47-27.4,7.15-7.27,3.13-16.5,7.37-21.96,13.14-5.75,6.08-9.86,13.28-14.13,20.41-4.54,7.6-6.73,14-8.63,22.41,0,3.72,0,7.44,0,11.16,3,9.75,6.19,18.85,10.66,28.06,2.1,4.32,4.47,8.35,6.92,12.47,1.47,2.48,6.7,6.75,7.41,9.22.94-.64,4.9,3.2,5.84,3.93-.1.01-.2.02-.17.02,5.79,4.37,14.6,9.58,21.63,11.53,2.84.79,16.02-.17,16.81,1.49h.24c8.9-.61,17.62-2.02,26.14-5.01ZM169.87,168.52c3.9,1.32,7.24,2.29,10.99,4.49,2.92,1.71,11.02,6.29,11.11,10.31,1.62-1.48,10.68,6.41,10.67,8.97-.02,5.71-11.71,11.69-15.96,13.45-6.59,2.74-19.13,11.68-25.58,5.42-4.28-4.16.09-10.39-2.11-14.72,1.96.13.24-7.43.24-8.65.08-.03-.03.01,0,0-.82-2.62-.33-6.55-.23-9.27.11-3.12,1.94-6.77,1.75-9.69-.28-4.46-5.99-8.13-5.83-12.69.82.27-.31-.86-.4-.92-1.1-.74-5.56-.04-7.15-.57,2.95-5.73-18.29-12.8-22.09-13.82-4.05-1.09-14.74-5.32-18.58-3.61-4.3,1.91-1.34,5.78,2.35,5.75,2.21-.02,4.4-.91,6.91-.79,2.92.14,5.94.49,8.84.88,4.9.65,10.4,1.59,13.96,5.21,1.37,1.4,1.7,3.21,2.78,4.49.99,1.17,4.15,1.73,4.5,3.3.97,4.4-6.52,2.74-8.01.69.77-.35,1.18-.98,1.22-1.9-6.7-.9-10.58,4.03-15.94,7.14-5.79,3.35-12.13,5.88-18.08,8.98-1.66.87-7.93,5.47-9.61,5.13-2.07-.41-2.17-2.49-3.12-4.98-2.55-6.64-4.88-12.9-5.16-20.07-.11-2.75-.88-7.09-.06-9.73.1-1.21.54-2.26,1.33-3.18.88-.39,1.8-.57,2.77-.55.88-1.46-.01-1.16.18-2.1-1,.31-1.56.08-1.67-.66.77-1.54,1.54-3.08,2.31-4.63,2.41-4.64,5.89-12.4,10-15.75,3.29-2.68,10.33-.88,12.27,2.62.31-.33.62-.67.93-1-.15-.13-.3-.25-.25-.21,3.27-3.64,3.57-4.96,5.2-.16-.12.02-.24.05-.47.09,1.71,1.26,2.26,4.65,3.34,6.58,1.62,2.89,3.68,5.93,5.73,8.53,4.61,5.85,11.87,10.41,18.36,13.94,4.84,2.63,8.41-.65,11.17,5.49,1.01,2.26.69,5.51,1.54,7.5.96,2.24,7.31,4.31,7.5,5.25,0-.02-2.23,1.77-2.12,1.68.63,2.36,2.5,3.05,4.5,3.73ZM165.76,113.47c-.71,1.63-2.09,2.62-2.68,4.28-.57,1.6-.29,3.64-1.01,5.36-.59,1.41-3.21,7.28-4.27,8.1-3.71,2.86-3.71-1.65-4.36-4.35-.87-3.59-1.25-7.76-3.27-10.9-.53-.83-.42-1.9-1.03-2.64.08.1-2.46-.79-3.2-1.56-1.31-1.36-1.24-3.36-2.29-4.81-.77-1.07-1.9-1.59-2.58-2.41-1.34-1.62-1.88-4.99-4.93-4.02,3.53,3.93,7.62,10.18,11.01,15.05,1.46,2.1,2.74,4.32,3.09,6.8.57,3.98-1.7,6.86-1.31,10.72.28,2.8,3.28,5.47,1.15,8.05-2.09,2.53-7.63-2.03-9.81-3.52-8.49-5.82-13.16-13.62-17.01-22.78-1.33-3.16-1.75-6.58-4.67-6.72-2.22-.11-8.8,4.48-7.61-1.51.37-1.85,5.02-4.23,6.5-5.31,2.82-2.06,5.36-4.57,8.59-6.1,10.44-4.94,44.29-15.94,40.56,6.54,1.27.98-.27,10.36-.87,11.73ZM170.65,154.67l.29-.5c-.04.13-.08.26-.12.4-1.47-1.22-2.74-4.42-3.28-6.24-1.18-4-.73-4.88,2.39-7.2,3.5-2.6,6.75-5.21,10.36-7.86,5.31-3.89,10.1-8.02,15.23-11.87,2.03-1.52,6.11-5.42,8.79-4.89,2.98.59,4.18,5.32,5.1,7.65.87,2.19,1.39,4.67,2.72,6.4.6.78,2.12.42,2.74,1.14.64.74.66,2.96.96,3.97,1.73,5.74,3.65,11.49,1.25,17.46-1.92,4.78-6.53,4.44-10.5,3.99-4.11-.48-7.11-.67-11.24.02-1.55.26-8.9,2.51-9.79.87-6.06,1.9-9.74-.38-14.91-3.34ZM144.65,168.71c-2.73,1.43.72,2.91,1.23,4.47,1.07,3.33-2.22,7.18-3.7,10-3.31,6.27-6.09,13.15-9.84,19.16-8.61,13.82-24.17-2.44-29.71-10.76-2.51-3.78-2.31-3.99-1.13-8.22.72-2.6.89-5.59,2.7-7.62,4.12-4.58,12.63-6.6,17.99-9.35,2.79-1.43,5.49-4.01,8.53-4.81,2.8-.74,6.32-.06,9.17.2,5.5.5,11.07,2.38,4.89,7.55-.06-.3-.09-.45-.12-.62ZM184.83,125.3c-1.86,1.58-2.97,1.42-4.74,2.64-2.01,1.38-2.44,2.58-4.21,4.05-.85.7-4.51-.38-2.59,1.5-.22.09-.44.17-.67.24.26.3.58.45.97.45-.86,1.16-7.46,6.83-9.45,6.57-8.04-1.04,1.83-13.01,2.87-15.1,3.18-6.41,3.36-14.15,4.54-20.95.96-5.56,5.66-8.68,11.08-6.36,0,.02.01-.19.03-.41,1.41,1.2.3,1.34,1.27,2.39.94,1.02,3.86,2.49,4.95,3.36,3.56,2.82,6.83,4.87,9.22,7.9.02-.13.03-.26.04-.31,5.28,7.32-15.27,10.39-13.32,14.02ZM157.06,187.84c-.38,3.59.26,7.48-.48,10.99-.72,3.43-1.55,8.67-4.52,10.92-3.08,2.33-8.81,2.29-12.18.89-5.48-2.28-2.23-4.58-1.13-8.45,1.55-5.47,2.52-10.6,4.85-15.96,1.99-4.58,3.38-9.4,5.99-13.68,1.21-1.98,1.68-2.54,3.51-3.61,1.14-.67,2.17.3,2.56-1.03.96.58,1.99,1.65,2.45,2.69-.47,5.72-.45,11.57-1.05,17.26ZM203.18,181.52c-2.76,0-.26-.67-3.07-1.56-1.8-.57-3.57-.28-5.36-.79-4.3-1.21-7.77-5.49-11.33-7.99-3.62-2.53-11.59-5.01-13.37-9.12,5.08-.45,12.25,1.29,16.9-.81,9.46-.92,24.04-4.45,22.19,10.45-.31,3.21-1.26,9.8-5.96,9.82Z" fill="#9fc54d" stroke-width="0"/><path d="M24.82,218.1c9.23-3.24,16.63-9.67,24.05-15.77,14.83-12.21,20.58-31.81,21.81-50.26v-3.12c-2.94-17.56-8.1-31.26-20.76-44.13-5.98-6.08-12.44-12.19-20.06-16.14-7.55-3.91-16.15-4.69-24.34-6.57-1.36,0-2.72,0-4.08,0-9.27,1.04-18.82,3.47-27.4,7.15-7.27,3.13-16.5,7.37-21.96,13.14-5.75,6.08-9.86,13.28-14.13,20.41-4.54,7.6-6.73,14-8.63,22.41,0,3.72,0,7.44,0,11.16,3,9.75,6.19,18.85,10.66,28.06,2.1,4.32,4.47,8.35,6.92,12.47,1.47,2.48,6.7,6.75,7.41,9.22.94-.64,4.9,3.2,5.84,3.93-.1.01-.2.02-.17.02,5.79,4.37,14.6,9.58,21.63,11.53,2.84.79,16.02-.17,16.81,1.49h.24c8.9-.61,17.62-2.02,26.14-5.01ZM16.87,168.52c3.9,1.32,7.24,2.29,10.99,4.49,2.92,1.71,11.02,6.29,11.11,10.31,1.62-1.48,10.68,6.41,10.67,8.97-.02,5.71-11.71,11.69-15.96,13.45-6.59,2.74-19.13,11.68-25.58,5.42-4.28-4.16.09-10.39-2.11-14.72,1.96.13.24-7.43.24-8.65.08-.03-.03.01,0,0-.82-2.62-.33-6.55-.23-9.27.11-3.12,1.94-6.77,1.75-9.69-.28-4.46-5.99-8.13-5.83-12.69.82.27-.31-.86-.4-.92-1.1-.74-5.56-.04-7.15-.57,2.95-5.73-18.29-12.8-22.09-13.82-4.05-1.09-14.74-5.32-18.58-3.61-4.3,1.91-1.34,5.78,2.35,5.75,2.21-.02,4.4-.91,6.91-.79,2.92.14,5.94.49,8.84.88,4.9.65,10.4,1.59,13.96,5.21,1.37,1.4,1.7,3.21,2.78,4.49.99,1.17,4.15,1.73,4.5,3.3.97,4.4-6.52,2.74-8.01.69.77-.35,1.18-.98,1.22-1.9-6.7-.9-10.58,4.03-15.94,7.14-5.79,3.35-12.13,5.88-18.08,8.98-1.66.87-7.93,5.47-9.61,5.13-2.07-.41-2.17-2.49-3.12-4.98-2.55-6.64-4.88-12.9-5.16-20.07-.11-2.75-.88-7.09-.06-9.73.1-1.21.54-2.26,1.33-3.18.88-.39,1.8-.57,2.77-.55.88-1.46-.01-1.16.18-2.1-1,.31-1.56.08-1.67-.66.77-1.54,1.54-3.08,2.31-4.63,2.41-4.64,5.89-12.4,10-15.75,3.29-2.68,10.33-.88,12.27,2.62.31-.33.62-.67.93-1-.15-.13-.3-.25-.25-.21,3.27-3.64,3.57-4.96,5.2-.16-.12.02-.24.05-.47.09,1.71,1.26,2.26,4.65,3.34,6.58,1.62,2.89,3.68,5.93,5.73,8.53,4.61,5.85,11.87,10.41,18.36,13.94,4.84,2.63,8.41-.65,11.17,5.49,1.01,2.26.69,5.51,1.54,7.5.96,2.24,7.31,4.31,7.5,5.25,0-.02-2.23,1.77-2.12,1.68.63,2.36,2.5,3.05,4.5,3.73ZM12.76,113.47c-.71,1.63-2.09,2.62-2.68,4.28-.57,1.6-.29,3.64-1.01,5.36-.59,1.41-3.21,7.28-4.27,8.1-3.71,2.86-3.71-1.65-4.36-4.35-.87-3.59-1.25-7.76-3.27-10.9-.53-.83-.42-1.9-1.03-2.64.08.1-2.46-.79-3.2-1.56-1.31-1.36-1.24-3.36-2.29-4.81-.77-1.07-1.9-1.59-2.58-2.41-1.34-1.62-1.88-4.99-4.93-4.02,3.53,3.93,7.62,10.18,11.01,15.05,1.46,2.1,2.74,4.32,3.09,6.8.57,3.98-1.7,6.86-1.31,10.72.28,2.8,3.28,5.47,1.15,8.05-2.09,2.53-7.63-2.03-9.81-3.52-8.49-5.82-13.16-13.62-17.01-22.78-1.33-3.16-1.75-6.58-4.67-6.72-2.22-.11-8.8,4.48-7.61-1.51.37-1.85,5.02-4.23,6.5-5.31,2.82-2.06,5.36-4.57,8.59-6.1,10.44-4.94,44.29-15.94,40.56,6.54,1.27.98-.27,10.36-.87,11.73ZM17.65,154.67l.29-.5c-.04.13-.08.26-.12.4-1.47-1.22-2.74-4.42-3.28-6.24-1.18-4-.73-4.88,2.39-7.2,3.5-2.6,6.75-5.21,10.36-7.86,5.31-3.89,10.1-8.02,15.23-11.87,2.03-1.52,6.11-5.42,8.79-4.89,2.98.59,4.18,5.32,5.1,7.65.87,2.19,1.39,4.67,2.72,6.4.6.78,2.12.42,2.74,1.14.64.74.66,2.96.96,3.97,1.73,5.74,3.65,11.49,1.25,17.46-1.92,4.78-6.53,4.44-10.5,3.99-4.11-.48-7.11-.67-11.24.02-1.55.26-8.9,2.51-9.79.87-6.06,1.9-9.74-.38-14.91-3.34ZM-8.35,168.71c-2.73,1.43.72,2.91,1.23,4.47,1.07,3.33-2.22,7.18-3.7,10-3.31,6.27-6.09,13.15-9.84,19.16-8.61,13.82-24.17-2.44-29.71-10.76-2.51-3.78-2.31-3.99-1.13-8.22.72-2.6.89-5.59,2.7-7.62,4.12-4.58,12.63-6.6,17.99-9.35,2.79-1.43,5.49-4.01,8.53-4.81,2.8-.74,6.32-.06,9.17.2,5.5.5,11.07,2.38,4.89,7.55-.06-.3-.09-.45-.12-.62ZM31.83,125.3c-1.86,1.58-2.97,1.42-4.74,2.64-2.01,1.38-2.44,2.58-4.21,4.05-.85.7-4.51-.38-2.59,1.5-.22.09-.44.17-.67.24.26.3.58.45.97.45-.86,1.16-7.46,6.83-9.45,6.57-8.04-1.04,1.83-13.01,2.87-15.1,3.18-6.41,3.36-14.15,4.54-20.95.96-5.56,5.66-8.68,11.08-6.36,0,.02.01-.19.03-.41,1.41,1.2.3,1.34,1.27,2.39.94,1.02,3.86,2.49,4.95,3.36,3.56,2.82,6.83,4.87,9.22,7.9.02-.13.03-.26.04-.31,5.28,7.32-15.27,10.39-13.32,14.02ZM4.06,187.84c-.38,3.59.26,7.48-.48,10.99-.72,3.43-1.55,8.67-4.52,10.92-3.08,2.33-8.81,2.29-12.18.89-5.48-2.28-2.23-4.58-1.13-8.45,1.55-5.47,2.52-10.6,4.85-15.96,1.99-4.58,3.38-9.4,5.99-13.68,1.21-1.98,1.68-2.54,3.51-3.61,1.14-.67,2.17.3,2.56-1.03.96.58,1.99,1.65,2.45,2.69-.47,5.72-.45,11.57-1.05,17.26ZM50.18,181.52c-2.76,0-.26-.67-3.07-1.56-1.8-.57-3.57-.28-5.36-.79-4.3-1.21-7.77-5.49-11.33-7.99-3.62-2.53-11.59-5.01-13.37-9.12,5.08-.45,12.25,1.29,16.9-.81,9.46-.92,24.04-4.45,22.19,10.45-.31,3.21-1.26,9.8-5.96,9.82Z" fill="#9fc54d" stroke-width="0"/><path d="M254.32,65.49c9.23-3.24,16.63-9.67,24.05-15.77,14.83-12.21,20.58-31.81,21.81-50.26v-3.12c-2.94-17.56-8.1-31.26-20.76-44.13-5.98-6.08-12.44-12.19-20.06-16.14-7.55-3.91-16.15-4.69-24.34-6.57-1.36,0-2.72,0-4.08,0-9.27,1.04-18.82,3.47-27.4,7.15-7.27,3.13-16.5,7.37-21.96,13.14-5.75,6.08-9.86,13.28-14.13,20.41-4.54,7.6-6.73,14-8.63,22.41,0,3.72,0,7.44,0,11.16,3,9.75,6.19,18.85,10.66,28.06,2.1,4.32,4.47,8.35,6.92,12.47,1.47,2.48,6.7,6.75,7.41,9.22.94-.64,4.9,3.2,5.84,3.93-.1.01-.2.02-.17.02,5.79,4.37,14.6,9.58,21.63,11.53,2.84.79,16.02-.17,16.81,1.49h.24c8.9-.61,17.62-2.02,26.14-5.01ZM246.37,15.91c3.9,1.32,7.24,2.29,10.99,4.49,2.92,1.71,11.02,6.29,11.11,10.31,1.62-1.48,10.68,6.41,10.67,8.97-.02,5.71-11.71,11.69-15.96,13.45-6.59,2.74-19.13,11.68-25.58,5.42-4.28-4.16.09-10.39-2.11-14.72,1.96.13.24-7.43.24-8.65.08-.03-.03.01,0,0-.82-2.62-.33-6.55-.23-9.27.11-3.12,1.94-6.77,1.75-9.69-.28-4.46-5.99-8.13-5.83-12.69.82.27-.31-.86-.4-.92-1.1-.74-5.56-.04-7.15-.57,2.95-5.73-18.29-12.8-22.09-13.82-4.05-1.09-14.74-5.32-18.58-3.61-4.3,1.91-1.34,5.78,2.35,5.75,2.21-.02,4.4-.91,6.91-.79,2.92.14,5.94.49,8.84.88,4.9.65,10.4,1.59,13.96,5.21,1.37,1.4,1.7,3.21,2.78,4.49.99,1.17,4.15,1.73,4.5,3.3.97,4.4-6.52,2.74-8.01.69.77-.35,1.18-.98,1.22-1.9-6.7-.9-10.58,4.03-15.94,7.14-5.79,3.35-12.13,5.88-18.08,8.98-1.66.87-7.93,5.47-9.61,5.13-2.07-.41-2.17-2.49-3.12-4.98-2.55-6.64-4.88-12.9-5.16-20.07-.11-2.75-.88-7.09-.06-9.73.1-1.21.54-2.26,1.33-3.18.88-.39,1.8-.57,2.77-.55.88-1.46-.01-1.16.18-2.1-1,.31-1.56.08-1.67-.66.77-1.54,1.54-3.08,2.31-4.63,2.41-4.64,5.89-12.4,10-15.75,3.29-2.68,10.33-.88,12.27,2.62.31-.33.62-.67.93-1-.15-.13-.3-.25-.25-.21,3.27-3.64,3.57-4.96,5.2-.16-.12.02-.24.05-.47.09,1.71,1.26,2.26,4.65,3.34,6.58,1.62,2.89,3.68,5.93,5.73,8.53,4.61,5.85,11.87,10.41,18.36,13.94,4.84,2.63,8.41-.65,11.17,5.49,1.01,2.26.69,5.51,1.54,7.5.96,2.24,7.31,4.31,7.5,5.25,0-.02-2.23,1.77-2.12,1.68.63,2.36,2.5,3.05,4.5,3.73ZM242.26-39.14c-.71,1.63-2.09,2.62-2.68,4.28-.57,1.6-.29,3.64-1.01,5.36-.59,1.41-3.21,7.28-4.27,8.1-3.71,2.86-3.71-1.65-4.36-4.35-.87-3.59-1.25-7.76-3.27-10.9-.53-.83-.42-1.9-1.03-2.64.08.1-2.46-.79-3.2-1.56-1.31-1.36-1.24-3.36-2.29-4.81-.77-1.07-1.9-1.59-2.58-2.41-1.34-1.62-1.88-4.99-4.93-4.02,3.53,3.93,7.62,10.18,11.01,15.05,1.46,2.1,2.74,4.32,3.09,6.8.57,3.98-1.7,6.86-1.31,10.72.28,2.8,3.28,5.47,1.15,8.05-2.09,2.53-7.63-2.03-9.81-3.52-8.49-5.82-13.16-13.62-17.01-22.78-1.33-3.16-1.75-6.58-4.67-6.72-2.22-.11-8.8,4.48-7.61-1.51.37-1.85,5.02-4.23,6.5-5.31,2.82-2.06,5.36-4.57,8.59-6.1,10.44-4.94,44.29-15.94,40.56,6.54,1.27.98-.27,10.36-.87,11.73ZM247.15,2.06l.29-.5c-.04.13-.08.26-.12.4-1.47-1.22-2.74-4.42-3.28-6.24-1.18-4-.73-4.88,2.39-7.2,3.5-2.6,6.75-5.21,10.36-7.86,5.31-3.89,10.1-8.02,15.23-11.87,2.03-1.52,6.11-5.42,8.79-4.89,2.98.59,4.18,5.32,5.1,7.65.87,2.19,1.39,4.67,2.72,6.4.6.78,2.12.42,2.74,1.14.64.74.66,2.96.96,3.97,1.73,5.74,3.65,11.49,1.25,17.46-1.92,4.78-6.53,4.44-10.5,3.99-4.11-.48-7.11-.67-11.24.02-1.55.26-8.9,2.51-9.79.87-6.06,1.9-9.74-.38-14.91-3.34ZM221.15,16.1c-2.73,1.43.72,2.91,1.23,4.47,1.07,3.33-2.22,7.18-3.7,10-3.31,6.27-6.09,13.15-9.84,19.16-8.61,13.82-24.17-2.44-29.71-10.76-2.51-3.78-2.31-3.99-1.13-8.22.72-2.6.89-5.59,2.7-7.62,4.12-4.58,12.63-6.6,17.99-9.35,2.79-1.43,5.49-4.01,8.53-4.81,2.8-.74,6.32-.06,9.17.2,5.5.5,11.07,2.38,4.89,7.55-.06-.3-.09-.45-.12-.62ZM261.33-27.31c-1.86,1.58-2.97,1.42-4.74,2.64-2.01,1.38-2.44,2.58-4.21,4.05-.85.7-4.51-.38-2.59,1.5-.22.09-.44.17-.67.24.26.3.58.45.97.45-.86,1.16-7.46,6.83-9.45,6.57-8.04-1.04,1.83-13.01,2.87-15.1,3.18-6.41,3.36-14.15,4.54-20.95.96-5.56,5.66-8.68,11.08-6.36,0,.02.01-.19.03-.41,1.41,1.2.3,1.34,1.27,2.39.94,1.02,3.86,2.49,4.95,3.36,3.56,2.82,6.83,4.87,9.22,7.9.02-.13.03-.26.04-.31,5.28,7.32-15.27,10.39-13.32,14.02ZM233.56,35.23c-.38,3.59.26,7.48-.48,10.99-.72,3.43-1.55,8.67-4.52,10.92-3.08,2.33-8.81,2.29-12.18.89-5.48-2.28-2.23-4.58-1.13-8.45,1.55-5.47,2.52-10.6,4.85-15.96,1.99-4.58,3.38-9.4,5.99-13.68,1.21-1.98,1.68-2.54,3.51-3.61,1.14-.67,2.17.3,2.56-1.03.96.58,1.99,1.65,2.45,2.69-.47,5.72-.45,11.57-1.05,17.26ZM279.68,28.91c-2.76,0-.26-.67-3.07-1.56-1.8-.57-3.57-.28-5.36-.79-4.3-1.21-7.77-5.49-11.33-7.99-3.62-2.53-11.59-5.01-13.37-9.12,5.08-.45,12.25,1.29,16.9-.81,9.46-.92,24.04-4.45,22.19,10.45-.31,3.21-1.26,9.8-5.96,9.82Z" fill="#9fc54d" stroke-width="0"/><path d="M101.32,65.49c9.23-3.24,16.63-9.67,24.05-15.77,14.83-12.21,20.58-31.81,21.81-50.26v-3.12c-2.94-17.56-8.1-31.26-20.76-44.13-5.98-6.08-12.44-12.19-20.06-16.14-7.55-3.91-16.15-4.69-24.34-6.57-1.36,0-2.72,0-4.08,0-9.27,1.04-18.82,3.47-27.4,7.15-7.27,3.13-16.5,7.37-21.96,13.14-5.75,6.08-9.86,13.28-14.13,20.41-4.54,7.6-6.73,14-8.63,22.41,0,3.72,0,7.44,0,11.16,3,9.75,6.19,18.85,10.66,28.06,2.1,4.32,4.47,8.35,6.92,12.47,1.47,2.48,6.7,6.75,7.41,9.22.94-.64,4.9,3.2,5.84,3.93-.1.01-.2.02-.17.02,5.79,4.37,14.6,9.58,21.63,11.53,2.84.79,16.02-.17,16.81,1.49h.24c8.9-.61,17.62-2.02,26.14-5.01ZM93.37,15.91c3.9,1.32,7.24,2.29,10.99,4.49,2.92,1.71,11.02,6.29,11.11,10.31,1.62-1.48,10.68,6.41,10.67,8.97-.02,5.71-11.71,11.69-15.96,13.45-6.59,2.74-19.13,11.68-25.58,5.42-4.28-4.16.09-10.39-2.11-14.72,1.96.13.24-7.43.24-8.65.08-.03-.03.01,0,0-.82-2.62-.33-6.55-.23-9.27.11-3.12,1.94-6.77,1.75-9.69-.28-4.46-5.99-8.13-5.83-12.69.82.27-.31-.86-.4-.92-1.1-.74-5.56-.04-7.15-.57,2.95-5.73-18.29-12.8-22.09-13.82-4.05-1.09-14.74-5.32-18.58-3.61-4.3,1.91-1.34,5.78,2.35,5.75,2.21-.02,4.4-.91,6.91-.79,2.92.14,5.94.49,8.84.88,4.9.65,10.4,1.59,13.96,5.21,1.37,1.4,1.7,3.21,2.78,4.49.99,1.17,4.15,1.73,4.5,3.3.97,4.4-6.52,2.74-8.01.69.77-.35,1.18-.98,1.22-1.9-6.7-.9-10.58,4.03-15.94,7.14-5.79,3.35-12.13,5.88-18.08,8.98-1.66.87-7.93,5.47-9.61,5.13-2.07-.41-2.17-2.49-3.12-4.98-2.55-6.64-4.88-12.9-5.16-20.07-.11-2.75-.88-7.09-.06-9.73.1-1.21.54-2.26,1.33-3.18.88-.39,1.8-.57,2.77-.55.88-1.46-.01-1.16.18-2.1-1,.31-1.56.08-1.67-.66.77-1.54,1.54-3.08,2.31-4.63,2.41-4.64,5.89-12.4,10-15.75,3.29-2.68,10.33-.88,12.27,2.62.31-.33.62-.67.93-1-.15-.13-.3-.25-.25-.21,3.27-3.64,3.57-4.96,5.2-.16-.12.02-.24.05-.47.09,1.71,1.26,2.26,4.65,3.34,6.58,1.62,2.89,3.68,5.93,5.73,8.53,4.61,5.85,11.87,10.41,18.36,13.94,4.84,2.63,8.41-.65,11.17,5.49,1.01,2.26.69,5.51,1.54,7.5.96,2.24,7.31,4.31,7.5,5.25,0-.02-2.23,1.77-2.12,1.68.63,2.36,2.5,3.05,4.5,3.73ZM89.26-39.14c-.71,1.63-2.09,2.62-2.68,4.28-.57,1.6-.29,3.64-1.01,5.36-.59,1.41-3.21,7.28-4.27,8.1-3.71,2.86-3.71-1.65-4.36-4.35-.87-3.59-1.25-7.76-3.27-10.9-.53-.83-.42-1.9-1.03-2.64.08.1-2.46-.79-3.2-1.56-1.31-1.36-1.24-3.36-2.29-4.81-.77-1.07-1.9-1.59-2.58-2.41-1.34-1.62-1.88-4.99-4.93-4.02,3.53,3.93,7.62,10.18,11.01,15.05,1.46,2.1,2.74,4.32,3.09,6.8.57,3.98-1.7,6.86-1.31,10.72.28,2.8,3.28,5.47,1.15,8.05-2.09,2.53-7.63-2.03-9.81-3.52-8.49-5.82-13.16-13.62-17.01-22.78-1.33-3.16-1.75-6.58-4.67-6.72-2.22-.11-8.8,4.48-7.61-1.51.37-1.85,5.02-4.23,6.5-5.31,2.82-2.06,5.36-4.57,8.59-6.1,10.44-4.94,44.29-15.94,40.56,6.54,1.27.98-.27,10.36-.87,11.73ZM94.15,2.06l.29-.5c-.04.13-.08.26-.12.4-1.47-1.22-2.74-4.42-3.28-6.24-1.18-4-.73-4.88,2.39-7.2,3.5-2.6,6.75-5.21,10.36-7.86,5.31-3.89,10.1-8.02,15.23-11.87,2.03-1.52,6.11-5.42,8.79-4.89,2.98.59,4.18,5.32,5.1,7.65.87,2.19,1.39,4.67,2.72,6.4.6.78,2.12.42,2.74,1.14.64.74.66,2.96.96,3.97,1.73,5.74,3.65,11.49,1.25,17.46-1.92,4.78-6.53,4.44-10.5,3.99-4.11-.48-7.11-.67-11.24.02-1.55.26-8.9,2.51-9.79.87-6.06,1.9-9.74-.38-14.91-3.34ZM68.15,16.1c-2.73,1.43.72,2.91,1.23,4.47,1.07,3.33-2.22,7.18-3.7,10-3.31,6.27-6.09,13.15-9.84,19.16-8.61,13.82-24.17-2.44-29.71-10.76-2.51-3.78-2.31-3.99-1.13-8.22.72-2.6.89-5.59,2.7-7.62,4.12-4.58,12.63-6.6,17.99-9.35,2.79-1.43,5.49-4.01,8.53-4.81,2.8-.74,6.32-.06,9.17.2,5.5.5,11.07,2.38,4.89,7.55-.06-.3-.09-.45-.12-.62ZM108.33-27.31c-1.86,1.58-2.97,1.42-4.74,2.64-2.01,1.38-2.44,2.58-4.21,4.05-.85.7-4.51-.38-2.59,1.5-.22.09-.44.17-.67.24.26.3.58.45.97.45-.86,1.16-7.46,6.83-9.45,6.57-8.04-1.04,1.83-13.01,2.87-15.1,3.18-6.41,3.36-14.15,4.54-20.95.96-5.56,5.66-8.68,11.08-6.36,0,.02.01-.19.03-.41,1.41,1.2.3,1.34,1.27,2.39.94,1.02,3.86,2.49,4.95,3.36,3.56,2.82,6.83,4.87,9.22,7.9.02-.13.03-.26.04-.31,5.28,7.32-15.27,10.39-13.32,14.02ZM80.56,35.23c-.38,3.59.26,7.48-.48,10.99-.72,3.43-1.55,8.67-4.52,10.92-3.08,2.33-8.81,2.29-12.18.89-5.48-2.28-2.23-4.58-1.13-8.45,1.55-5.47,2.52-10.6,4.85-15.96,1.99-4.58,3.38-9.4,5.99-13.68,1.21-1.98,1.68-2.54,3.51-3.61,1.14-.67,2.17.3,2.56-1.03.96.58,1.99,1.65,2.45,2.69-.47,5.72-.45,11.57-1.05,17.26ZM126.68,28.91c-2.76,0-.26-.67-3.07-1.56-1.8-.57-3.57-.28-5.36-.79-4.3-1.21-7.77-5.49-11.33-7.99-3.62-2.53-11.59-5.01-13.37-9.12,5.08-.45,12.25,1.29,16.9-.81,9.46-.92,24.04-4.45,22.19,10.45-.31,3.21-1.26,9.8-5.96,9.82Z" fill="#9fc54d" stroke-width="0"/></pattern></defs><rect width="900" height="750" fill="url(#uuid-c1cc97d6-b54e-4357-b93b-2dc181b53708)" stroke-width="0"/></svg>