<?xml version="1.0" encoding="utf-8"?>
<!-- Generator: Adobe Illustrator 28.1.0, SVG Export Plug-In . SVG Version: 6.00 Build 0)  -->
<svg version="1.1" id="Layer_2_00000098903612373511760160000017806984191766917539_"
	 xmlns="http://www.w3.org/2000/svg" xmlns:xlink="http://www.w3.org/1999/xlink" x="0px" y="0px" viewBox="0 0 423.1 317.4"
	 style="enable-background:new 0 0 423.1 317.4;" xml:space="preserve">
<style type="text/css">
	.st0{fill:none;}
	.st1{fill:#A07E6A;stroke:#FFFFFF;stroke-width:0.25;stroke-miterlimit:10;}
	.st2{fill:#AC9891;stroke:#FFFFFF;stroke-width:0.25;stroke-miterlimit:10;}
	.st3{fill:#BD9D8D;stroke:#FFFFFF;stroke-width:0.25;stroke-miterlimit:10;}
	.st4{fill:#DFCBC2;stroke:#FFFFFF;stroke-width:0.25;stroke-miterlimit:10;}
	.st5{fill:#DECABB;stroke:#FFFFFF;stroke-width:0.25;stroke-miterlimit:10;}
	.st6{fill:#E4B087;stroke:#FFFFFF;stroke-width:0.25;stroke-miterlimit:10;}
	.st7{fill:#DCC5B9;stroke:#FFFFFF;stroke-width:0.25;stroke-miterlimit:10;}
	.st8{fill:#ECBB94;stroke:#FFFFFF;stroke-width:0.25;stroke-miterlimit:10;}
	.st9{fill:#B4846F;stroke:#FFFFFF;stroke-width:0.25;stroke-miterlimit:10;}
	.st10{fill:#C38369;stroke:#FFFFFF;stroke-width:0.25;stroke-miterlimit:10;}
	.st11{fill:#B78264;stroke:#FFFFFF;stroke-width:0.25;stroke-miterlimit:10;}
	.st12{fill:#F5B887;stroke:#FFFFFF;stroke-width:0.25;stroke-miterlimit:10;}
	.st13{fill:#AF705A;stroke:#FFFFFF;stroke-width:0.25;stroke-miterlimit:10;}
	.st14{fill:none;stroke:#FFFFFF;stroke-width:0.25;stroke-miterlimit:10;}
	.st15{fill:#7D5151;stroke:#FFFFFF;stroke-width:0.25;stroke-miterlimit:10;}
	.st16{fill:#9B7A73;stroke:#FFFFFF;stroke-width:0.25;stroke-miterlimit:10;}
	.st17{fill:#9D7F7A;stroke:#FFFFFF;stroke-width:0.25;stroke-miterlimit:10;}
	.st18{fill:#8E7268;stroke:#FFFFFF;stroke-width:0.25;stroke-miterlimit:10;}
	.st19{fill:#7D5E5A;stroke:#FFFFFF;stroke-width:0.25;stroke-miterlimit:10;}
	.st20{fill:#7F4A42;stroke:#FFFFFF;stroke-width:0.25;stroke-miterlimit:10;}
	.st21{fill:#7B4D4A;stroke:#FFFFFF;stroke-width:0.25;stroke-miterlimit:10;}
	.st22{fill:#805554;stroke:#FFFFFF;stroke-width:0.25;stroke-miterlimit:10;}
	.st23{fill:#79514E;stroke:#FFFFFF;stroke-width:0.25;stroke-miterlimit:10;}
	.st24{fill:#785858;stroke:#FFFFFF;stroke-width:0.25;stroke-miterlimit:10;}
	.st25{fill:#784A4D;stroke:#FFFFFF;stroke-width:0.25;stroke-miterlimit:10;}
	.st26{fill:#995F59;stroke:#FFFFFF;stroke-width:0.25;stroke-miterlimit:10;}
	.st27{fill:#866760;stroke:#FFFFFF;stroke-width:0.25;stroke-miterlimit:10;}
	.st28{fill:#84575A;stroke:#FFFFFF;stroke-width:0.25;stroke-miterlimit:10;}
	.st29{fill:#9B676D;stroke:#FFFFFF;stroke-width:0.25;stroke-miterlimit:10;}
	.st30{fill:#A77B81;stroke:#FFFFFF;stroke-width:0.25;stroke-miterlimit:10;}
	.st31{fill:#CECDCE;stroke:#FFFFFF;stroke-width:0.25;stroke-miterlimit:10;}
	.st32{fill:#D7D8D8;stroke:#FFFFFF;stroke-width:0.25;stroke-miterlimit:10;}
	.st33{fill:#CDB8B9;stroke:#FFFFFF;stroke-width:0.25;stroke-miterlimit:10;}
	.st34{fill:#C9C3C4;stroke:#FFFFFF;stroke-width:0.25;stroke-miterlimit:10;}
	.st35{fill:#C5A3A2;stroke:#FFFFFF;stroke-width:0.25;stroke-miterlimit:10;}
	.st36{fill:#8C5B60;stroke:#FFFFFF;stroke-width:0.25;stroke-miterlimit:10;}
	.st37{fill:#8D5E63;stroke:#FFFFFF;stroke-width:0.25;stroke-miterlimit:10;}
	.st38{fill:#895D5F;stroke:#FFFFFF;stroke-width:0.25;stroke-miterlimit:10;}
	.st39{fill:#3D3D3D;stroke:#FFFFFF;stroke-width:0.25;stroke-miterlimit:10;}
	.st40{fill:#CD9CA9;stroke:#FFFFFF;stroke-width:0.25;stroke-miterlimit:10;}
	.st41{fill:#D5B3B7;stroke:#FFFFFF;stroke-width:0.25;stroke-miterlimit:10;}
	.st42{fill:#CCAFAF;stroke:#FFFFFF;stroke-width:0.25;stroke-miterlimit:10;}
	.st43{fill:#C39494;stroke:#FFFFFF;stroke-width:0.25;stroke-miterlimit:10;}
	.st44{fill:#CEA3A3;stroke:#FFFFFF;stroke-width:0.25;stroke-miterlimit:10;}
	.st45{fill:#C695A0;stroke:#FFFFFF;stroke-width:0.25;stroke-miterlimit:10;}
	.st46{fill:#B68A92;stroke:#FFFFFF;stroke-width:0.25;stroke-miterlimit:10;}
	.st47{fill:#161419;}
	.st48{fill:url(#SVGID_1_);}
</style>
<pattern  y="317.4" width="177" height="167" patternUnits="userSpaceOnUse" id="New_Pattern" viewBox="21 -222 177 167" style="overflow:visible;">
	<g>
		<rect x="21" y="-222" class="st0" width="177" height="167"/>
		<g>
			<rect x="21" y="-222" class="st0" width="177" height="167"/>
			<g>
				<polygon class="st1" points="143.6,-48.6 139.2,-56.1 133.8,-48.2 138.8,-48.4 				"/>
				<polygon class="st2" points="139.2,-56.1 139.2,-56.1 137.9,-58.2 133,-57.4 133.1,-53.2 133.8,-48.2 				"/>
				<polygon class="st3" points="137.9,-58.2 132.8,-66.8 133,-57.4 				"/>
				<polygon class="st4" points="132.8,-66.8 130.1,-60 133.1,-53.2 133,-57.4 				"/>
				<polygon class="st5" points="132.8,-66.8 132.8,-66.8 131.6,-68.9 130.5,-71 127.4,-66 130.1,-60 				"/>
				<polygon class="st6" points="130.5,-71 128.8,-74.2 124.5,-72.7 127.4,-66 				"/>
				<polygon class="st7" points="128.8,-74.2 124.3,-83 123.4,-74.6 124.5,-72.7 				"/>
				<polygon class="st8" points="124.3,-83 120.6,-88.1 120,-80.8 123.4,-74.6 				"/>
				<polygon class="st9" points="120.6,-88.1 114.9,-84.3 120,-80.8 				"/>
				<polygon class="st10" points="120.6,-88.1 119.8,-89.1 111.5,-86.6 114.9,-84.3 				"/>
				<polygon class="st11" points="136.9,-96 128.5,-93.7 132.3,-89.6 137.2,-93.2 				"/>
				<polygon class="st8" points="140.5,-87.9 137.2,-93.2 132.3,-89.6 134.9,-86.8 				"/>
				<polygon class="st7" points="140.5,-87.9 134.9,-86.8 136.9,-80.7 141.3,-84.4 				"/>
				<polygon class="st6" points="141.3,-84.4 136.9,-80.7 138.3,-76.7 143.6,-75.4 142.6,-79 				"/>
				<polygon class="st5" points="138.3,-76.7 139.7,-72.6 140.2,-70.3 140.3,-70.3 145.4,-69.4 143.6,-75.4 				"/>
				<polygon class="st3" points="145.4,-69.3 143.5,-65.6 147.4,-62.6 				"/>
				<polygon class="st4" points="145.4,-69.3 145.4,-69.4 140.3,-70.3 142.1,-62.8 143.5,-65.6 				"/>
				<polygon class="st2" points="147.4,-62.6 143.5,-65.6 142.1,-62.8 143.8,-55.8 148.6,-58.4 				"/>
				<polygon class="st1" points="152,-51.7 148.6,-58.4 143.8,-55.8 143.6,-48.6 152,-51.7 				"/>
				<polygon class="st8" points="81,-71.7 78.2,-72 77,-68.1 82.5,-66.9 81.8,-69 				"/>
				<polygon class="st9" points="75.1,-67.1 73.2,-72.6 72.6,-68.9 				"/>
				<polygon class="st12" points="78.2,-72 73.2,-72.6 75.1,-67.1 76,-64.8 77,-68.1 				"/>
				<polygon class="st11" points="78.9,-78.4 73.2,-72.6 78.2,-72 81,-71.7 				"/>
				<polygon class="st13" points="73.2,-72.6 68.8,-76.4 67.4,-74.6 67.7,-72.3 72.6,-68.9 				"/>
				<polygon class="st10" points="78.9,-78.4 77.3,-79.3 68.8,-76.4 73.2,-72.6 				"/>
				<polygon class="st6" points="87.1,-53.5 83.6,-63.6 83.6,-63.6 78.8,-56.8 81,-50.9 82.5,-56.1 				"/>
				<polygon class="st7" points="83.6,-63.6 82.5,-66.9 77,-68.1 76,-64.8 78.8,-56.8 83.6,-63.6 				"/>
				<polygon class="st5" points="87.1,-53.5 82.5,-56.1 81,-50.9 81.5,-49.3 				"/>
				<path class="st14" d="M137.9-58.2"/>
			</g>
			<g>
				<path class="st15" d="M27.4-7.2l-3.2-9.7l-9.9-5.6l-0.2,0.2l10.8,22L27.4-7.2L27.4-7.2z M75.4-54.7l-6.7-10l-6.7-5.7l2.6,20
					l0.5,3.8L75.4-54.7z M62.8-82l-6.3-0.7l-1.8,3.5l3.6-1.2L62.8-82z"/>
				<polygon class="st16" points="50.3,-132 45.3,-131.8 46.2,-125 				"/>
				<polygon class="st1" points="55.1,-132.2 50.7,-139.7 45.3,-131.8 50.3,-132 				"/>
				<polygon class="st2" points="50.7,-139.7 50.7,-139.7 49.4,-141.8 44.5,-140.9 44.6,-136.7 45.3,-131.8 				"/>
				<polygon class="st3" points="49.4,-141.8 44.3,-150.3 44.5,-140.9 				"/>
				<polygon class="st4" points="44.3,-150.3 41.6,-143.5 44.6,-136.7 44.5,-140.9 				"/>
				<polygon class="st5" points="44.3,-150.3 44.3,-150.3 43.1,-152.4 42,-154.5 38.9,-149.5 41.6,-143.5 				"/>
				<polygon class="st6" points="42,-154.5 40.3,-157.7 36,-156.2 38.9,-149.5 				"/>
				<polygon class="st7" points="40.3,-157.7 35.8,-166.5 34.9,-158.1 36,-156.2 				"/>
				<polygon class="st8" points="35.8,-166.5 32.1,-171.6 31.5,-164.3 34.9,-158.1 				"/>
				<polygon class="st9" points="32.1,-171.6 26.4,-167.8 31.5,-164.3 				"/>
				<polygon class="st10" points="32.1,-171.6 31.3,-172.6 23,-170.1 26.4,-167.8 				"/>
				<polygon class="st11" points="48.4,-179.6 40,-177.2 43.8,-173.1 48.7,-176.7 				"/>
				<polygon class="st8" points="52,-171.4 48.7,-176.7 43.8,-173.1 46.4,-170.3 				"/>
				<polygon class="st7" points="52,-171.4 46.4,-170.3 48.4,-164.2 52.8,-167.9 				"/>
				<polygon class="st6" points="52.8,-167.9 48.4,-164.2 49.8,-160.2 55.1,-158.9 54.1,-162.5 				"/>
				<polygon class="st5" points="49.8,-160.2 51.2,-156.1 51.7,-153.8 51.8,-153.8 56.9,-152.9 55.1,-158.9 				"/>
				<polygon class="st3" points="56.9,-152.9 55,-149.1 58.9,-146.1 				"/>
				<polygon class="st4" points="56.9,-152.9 56.9,-152.9 51.8,-153.8 53.6,-146.3 55,-149.1 				"/>
				<polygon class="st2" points="58.9,-146.1 55,-149.1 53.6,-146.3 55.3,-139.3 60.1,-141.9 				"/>
				<polygon class="st17" points="66.8,-128.6 63.5,-135.2 63.5,-135.2 55.1,-132.2 61.5,-130.2 				"/>
				<polygon class="st1" points="63.5,-135.2 60.1,-141.9 55.3,-139.3 55.1,-132.2 63.5,-135.2 				"/>
				<polygon class="st18" points="66.8,-128.6 61.5,-130.2 56.8,-126.3 61.8,-123 67.1,-119.3 				"/>
				<polygon class="st18" points="55.1,-127.7 50.3,-132 46.2,-125 47.1,-118.8 52.3,-124.5 				"/>
				<polygon class="st19" points="67.1,-119.3 61.8,-123 57.9,-117.4 67.3,-115.6 				"/>
				<polygon class="st20" points="73,-104.8 68.9,-113.5 67.3,-115.6 57.9,-117.4 62.1,-109.4 62.2,-109.1 62.6,-102.4 65.4,-103.1 
									"/>
				<polygon class="st21" points="62.2,-109.1 62.1,-109.4 47.1,-118.8 48.4,-110.1 48,-97.8 54.9,-100 62.6,-102.4 				"/>
				<polygon class="st22" points="62.1,-93.9 54.9,-100 48,-97.8 48,-97.8 47.7,-87.6 54.7,-79.2 56.5,-82.7 57.8,-85.4 				"/>
				<polygon class="st22" points="77,-96.1 73,-104.8 65.4,-103.1 63.6,-98.1 				"/>
				<polygon class="st23" points="82.8,-83.6 77,-96.1 68,-91.1 77.7,-80.4 81,-76.7 				"/>
				<polygon class="st22" points="81,-76.7 77.7,-80.4 62.8,-82 77.1,-61.5 				"/>
				<polygon class="st24" points="77.1,-61.5 77.1,-61.5 62.8,-82 62.8,-82 58.3,-80.5 58.3,-80.4 68.8,-64.7 75.4,-54.7 				"/>
				<polygon class="st24" points="21.6,-78.4 8.5,-77 8.5,-77 2.8,-73.3 0.1,-65.8 0.9,-54.8 10,-65.2 				"/>
				<polygon class="st22" points="35.6,-87.9 26.8,-86 17.4,-82.8 8.5,-77 21.6,-78.4 27.9,-79 				"/>
				<polygon class="st25" points="54.7,-79.2 47.7,-87.6 41.5,-89.1 35.7,-87.9 48.2,-82.2 48.2,-82.2 48.2,-82.2 				"/>
				<polygon class="st22" points="30.9,-59.8 10,-65.2 0.9,-54.8 8.4,-40.5 19.5,-50 				"/>
				<path class="st14" d="M49.4-141.8"/>
				<polygon class="st16" points="61.5,-130.2 55.1,-132.2 50.3,-132 55.1,-127.7 56.8,-126.3 				"/>
				<polygon class="st26" points="62.1,-109.4 57.9,-117.4 52.3,-124.5 47.1,-118.8 				"/>
				<polygon class="st27" points="61.8,-123 56.8,-126.3 55.1,-127.7 52.3,-124.5 57.9,-117.4 				"/>
				<polygon class="st23" points="65.4,-103.1 62.6,-102.4 54.9,-100 62.1,-93.9 63.6,-98.1 				"/>
				<polygon class="st15" points="77,-96.1 63.6,-98.1 62.1,-93.9 57.8,-85.4 68,-91.1 				"/>
				<polygon class="st28" points="77.7,-80.4 68,-91.1 57.8,-85.4 56.5,-82.7 62.8,-82 62.8,-82 				"/>
				<polygon class="st15" points="48.2,-82.2 35.7,-87.9 35.6,-87.9 27.9,-79 				"/>
				<polygon class="st23" points="68.8,-64.7 58.3,-80.4 58.3,-80.5 54.7,-79.2 48.2,-82.2 62.1,-70.4 62.1,-70.4 				"/>
				<polygon class="st28" points="62.1,-70.4 62.1,-70.4 48.2,-82.2 48.2,-82.2 47.3,-58.3 47.2,-55.6 47.1,-53.4 64.7,-50.4 				
					"/>
				<polygon class="st24" points="48.2,-82.2 48.2,-82.2 27.9,-79 47.3,-58.3 				"/>
				<polygon class="st23" points="47.3,-58.3 27.9,-79 21.6,-78.4 10,-65.2 30.9,-59.8 47.2,-55.6 				"/>
				<polygon class="st25" points="47.2,-55.6 30.9,-59.8 19.5,-50 29.2,-43.8 45.9,-33.3 47.1,-53.4 				"/>
			</g>
			<g>
				<polygon class="st29" points="57.2,-37.5 53,-40.1 48.9,-39.2 47.7,-37.4 56.1,-34.4 				"/>
				<polygon class="st30" points="56.1,-34.4 47.7,-37.4 50.6,-31.3 56,-29.5 				"/>
				<polygon class="st31" points="69.3,-26.5 66.7,-30.8 59.4,-26.7 64.4,-22.6 67.3,-23.8 68.4,-26.9 				"/>
				<polygon class="st32" points="66.7,-30.8 62.8,-37.2 57.2,-37.5 56.1,-34.4 56,-29.5 59.4,-26.7 				"/>
				<polygon class="st33" points="69.8,-36.8 62.8,-37.2 66.7,-30.8 69.3,-26.5 72,-25.2 				"/>
				<polygon class="st34" points="68.6,-24.1 67.3,-23.8 64.4,-22.6 68,-17.3 				"/>
				<polygon class="st33" points="72.1,-24.9 72.1,-25 68.6,-24.1 68,-17.3 72.6,-17.2 80.1,-23.1 				"/>
				<polygon class="st35" points="83,-27.8 80.5,-30.7 80.4,-30.9 76.3,-35.7 75.6,-34.9 69.8,-36.8 78.3,-30.8 79.7,-24.7 
					80.1,-23.1 80.7,-20.5 80.9,-16.5 81.3,-18.5 82.9,-27.1 				"/>
				<polygon class="st30" points="89.5,-38.4 80.6,-43.7 79.3,-38.9 85,-32.2 				"/>
				<polygon class="st36" points="86.6,-66.3 80.6,-43.7 92.4,-47.1 92.4,-47.1 				"/>
				<path class="st15" d="M115.9-90.7l-3.2-9.7l-9.9-5.6l-0.2,0.2l10.8,22C113.3-83.8,115.9-90.7,115.9-90.7z M163.9-138.2l-6.6-10
					l-6.7-5.7l2.6,20l0.5,3.8L163.9-138.2L163.9-138.2z M151.3-165.5l-6.3-0.7l-1.8,3.5l3.6-1.2C146.8-164,151.3-165.5,151.3-165.5z
					"/>
				<polygon class="st16" points="138.8,-215.5 133.8,-215.3 134.7,-208.6 				"/>
				<polygon class="st1" points="143.6,-215.7 139.2,-223.2 133.8,-215.3 138.8,-215.5 				"/>
				<polygon class="st2" points="139.2,-223.2 139.2,-223.2 137.9,-225.3 133,-224.4 133.1,-220.2 133.8,-215.3 				"/>
				<polygon class="st3" points="137.9,-225.3 132.8,-233.8 133,-224.4 				"/>
				<polygon class="st4" points="132.8,-233.8 130.1,-227 133.1,-220.2 133,-224.4 				"/>
				<polygon class="st5" points="132.8,-233.8 132.8,-233.8 131.6,-235.9 130.5,-238 127.4,-233 130.1,-227 				"/>
				<polygon class="st6" points="130.5,-238 128.8,-241.2 124.5,-239.7 127.4,-233 				"/>
				<polygon class="st7" points="128.8,-241.2 124.3,-250 123.4,-241.6 124.5,-239.7 				"/>
				<polygon class="st8" points="124.3,-250 120.6,-255.1 120,-247.8 123.4,-241.6 				"/>
				<polygon class="st9" points="120.6,-255.1 114.9,-251.3 120,-247.8 				"/>
				<polygon class="st10" points="120.6,-255.1 119.8,-256.1 111.5,-253.6 114.9,-251.3 				"/>
				<polygon class="st11" points="136.9,-263.1 128.5,-260.7 132.3,-256.6 137.2,-260.2 				"/>
				<polygon class="st8" points="140.5,-254.9 137.2,-260.2 132.3,-256.6 134.9,-253.9 				"/>
				<polygon class="st7" points="140.5,-254.9 134.9,-253.9 136.9,-247.7 141.3,-251.4 				"/>
				<polygon class="st6" points="141.3,-251.4 136.9,-247.7 138.3,-243.7 143.6,-242.4 142.6,-246 				"/>
				<polygon class="st5" points="138.3,-243.7 139.7,-239.6 140.2,-237.3 140.3,-237.3 145.4,-236.4 143.6,-242.4 				"/>
				<polygon class="st3" points="145.4,-236.4 143.5,-232.6 147.4,-229.6 				"/>
				<polygon class="st4" points="145.4,-236.4 145.4,-236.4 140.3,-237.3 142.1,-229.8 143.5,-232.6 				"/>
				<polygon class="st2" points="147.4,-229.6 143.5,-232.6 142.1,-229.8 143.8,-222.8 148.6,-225.5 				"/>
				<polygon class="st17" points="155.3,-212.2 152,-218.7 152,-218.7 143.6,-215.7 150,-213.7 				"/>
				<polygon class="st1" points="152,-218.7 148.6,-225.5 143.8,-222.8 143.6,-215.7 152,-218.7 				"/>
				<polygon class="st18" points="155.3,-212.2 150,-213.7 145.3,-209.8 150.3,-206.5 155.6,-202.9 				"/>
				<polygon class="st18" points="143.6,-211.3 138.8,-215.5 134.7,-208.6 135.6,-202.3 140.8,-208 				"/>
				<polygon class="st19" points="155.6,-202.9 150.3,-206.5 146.4,-200.9 155.8,-199.1 				"/>
				<polygon class="st20" points="161.5,-188.3 157.4,-197 155.8,-199.1 146.4,-200.9 150.6,-192.9 150.7,-192.6 151.1,-185.9 
					153.9,-186.6 				"/>
				<polygon class="st21" points="150.7,-192.6 150.6,-192.9 135.6,-202.3 136.9,-193.6 136.5,-181.3 143.4,-183.5 151.1,-185.9 
									"/>
				<polygon class="st22" points="150.6,-177.5 143.4,-183.5 136.5,-181.3 136.5,-181.3 136.2,-171.1 143.2,-162.7 145,-166.2 
					146.3,-168.9 				"/>
				<polygon class="st22" points="165.5,-179.6 161.5,-188.3 153.9,-186.6 152.1,-181.6 				"/>
				<polygon class="st23" points="171.3,-167.2 165.5,-179.6 156.5,-174.6 166.2,-163.9 169.5,-160.2 				"/>
				<polygon class="st22" points="169.5,-160.2 166.2,-163.9 151.3,-165.5 165.6,-145 				"/>
				<polygon class="st24" points="165.6,-145 165.6,-145 151.3,-165.5 151.3,-165.5 146.8,-164 146.8,-163.9 157.3,-148.2 
					163.9,-138.2 				"/>
				<polygon class="st8" points="81,-238.7 78.2,-239 77,-235.1 82.5,-234 81.8,-236.1 				"/>
				<polygon class="st9" points="75.1,-234.1 73.2,-239.6 72.6,-235.9 				"/>
				<polygon class="st12" points="78.2,-239 73.2,-239.6 75.1,-234.1 76,-231.8 77,-235.1 				"/>
				<polygon class="st11" points="78.9,-245.4 73.2,-239.6 78.2,-239 81,-238.7 				"/>
				<polygon class="st13" points="73.2,-239.6 68.8,-243.4 67.4,-241.6 67.7,-239.3 72.6,-235.9 				"/>
				<polygon class="st10" points="78.9,-245.4 77.3,-246.3 68.8,-243.4 73.2,-239.6 				"/>
				<polygon class="st6" points="87.1,-220.6 83.6,-230.6 83.6,-230.6 78.8,-223.8 81,-217.9 82.5,-223.1 				"/>
				<polygon class="st7" points="83.6,-230.6 82.5,-234 77,-235.1 76,-231.8 78.8,-223.8 83.6,-230.6 				"/>
				<polygon class="st5" points="87.1,-220.6 82.5,-223.1 81,-217.9 81.5,-216.4 				"/>
				<polygon class="st4" points="88.7,-215.7 87.1,-220.6 81.5,-216.4 83.4,-211.1 				"/>
				<polygon class="st3" points="88.7,-215.7 83.4,-211.1 85.6,-205.1 				"/>
				<polygon class="st1" points="93.5,-205.6 90.1,-211.7 85.6,-205.1 85.4,-197.5 				"/>
				<polygon class="st16" points="96.1,-200.8 93.5,-205.6 85.4,-197.5 86.4,-193.6 				"/>
				<polygon class="st18" points="96.1,-200.8 86.4,-193.6 88.7,-183.8 97.9,-192.4 				"/>
				<polygon class="st27" points="97.9,-192.4 88.7,-183.8 88.9,-174.9 96.1,-183.5 100.8,-183.1 				"/>
				<polygon class="st19" points="100.8,-183.1 96.1,-183.5 88.9,-174.9 98.4,-176.9 102.4,-177.7 				"/>
				<polygon class="st20" points="102.4,-177.7 98.4,-176.9 92.9,-170.1 104.6,-170.7 				"/>
				<polygon class="st26" points="98.4,-176.9 88.9,-174.9 89.2,-165.6 92.9,-170.1 				"/>
				<polygon class="st21" points="104.6,-170.7 92.9,-170.1 89.2,-165.6 105.9,-166.4 				"/>
				<polygon class="st23" points="105.9,-166.4 89.2,-165.6 91.3,-156.8 97,-160.6 97,-160.6 				"/>
				<polygon class="st24" points="110.1,-161.9 97,-160.6 97,-160.6 91.3,-156.8 88.6,-149.3 89.4,-138.4 98.5,-148.7 				"/>
				<polygon class="st22" points="124.1,-171.4 115.3,-169.5 105.9,-166.4 97,-160.6 110.1,-161.9 116.4,-162.5 				"/>
				<polygon class="st25" points="143.2,-162.7 136.2,-171.1 130,-172.6 124.2,-171.4 136.7,-165.7 136.7,-165.7 136.7,-165.7 				
					"/>
				<polygon class="st22" points="153.2,-133.9 135.6,-136.9 134.4,-116.8 134.3,-114.8 153.7,-130.1 				"/>
				<polygon class="st23" points="134.4,-116.8 117.7,-127.3 121,-115.7 121,-115.7 125.2,-101.1 134.3,-114.8 				"/>
				<polygon class="st22" points="119.4,-143.3 98.5,-148.7 89.4,-138.4 96.9,-124 108,-133.5 				"/>
				<polygon class="st15" points="117.7,-127.3 108,-133.5 96.9,-124 96.2,-117.8 				"/>
				<polygon class="st23" points="101.5,-89.4 90.4,-94.6 87.8,-75.3 				"/>
				<polygon class="st22" points="121,-115.7 121,-115.7 108.9,-111.7 115.9,-90.7 125.2,-101.1 				"/>
				<polygon class="st28" points="117.7,-127.3 96.2,-117.8 108.9,-111.7 121,-115.7 				"/>
				<polygon class="st15" points="108.9,-111.7 96.2,-117.8 90.4,-94.6 102.6,-105.8 102.7,-106 				"/>
				<polygon class="st15" points="113.3,-83.8 103.5,-88.4 107,-66.9 				"/>
				<polygon class="st24" points="103.5,-88.4 101.5,-89.4 87.8,-75.3 86.6,-66.3 92.5,-71.9 100.5,-79.6 104.3,-59.3 107,-66.9 
									"/>
				<path class="st14" d="M137.9-225.3"/>
				<polygon class="st16" points="150,-213.7 143.6,-215.7 138.8,-215.5 143.6,-211.3 145.3,-209.8 				"/>
				<polygon class="st2" points="90.1,-211.7 88.7,-215.7 85.6,-205.1 				"/>
				<polygon class="st26" points="150.6,-192.9 146.4,-200.9 140.8,-208 135.6,-202.3 				"/>
				<polygon class="st27" points="150.3,-206.5 145.3,-209.8 143.6,-211.3 140.8,-208 146.4,-200.9 				"/>
				<polygon class="st23" points="153.9,-186.6 151.1,-185.9 143.4,-183.5 150.6,-177.5 152.1,-181.6 				"/>
				<polygon class="st15" points="165.5,-179.6 152.1,-181.6 150.6,-177.5 146.3,-168.9 156.5,-174.6 				"/>
				<polygon class="st28" points="166.2,-163.9 156.5,-174.6 146.3,-168.9 145,-166.2 151.3,-165.5 151.3,-165.5 				"/>
				<polygon class="st15" points="136.7,-165.7 124.2,-171.4 124.1,-171.4 116.4,-162.5 				"/>
				<polygon class="st23" points="157.3,-148.2 146.8,-163.9 146.8,-164 143.2,-162.7 136.7,-165.7 150.6,-153.9 150.6,-153.9 				
					"/>
				<polygon class="st28" points="150.6,-153.9 150.6,-153.9 136.7,-165.7 136.7,-165.7 135.8,-141.8 135.7,-139.1 135.6,-136.9 
					153.2,-133.9 				"/>
				<polygon class="st24" points="136.7,-165.7 136.7,-165.7 116.4,-162.5 135.8,-141.8 				"/>
				<polygon class="st23" points="135.8,-141.8 116.4,-162.5 110.1,-161.9 98.5,-148.7 119.4,-143.3 135.7,-139.1 				"/>
				<polygon class="st25" points="135.7,-139.1 119.4,-143.3 108,-133.5 117.7,-127.3 134.4,-116.8 135.6,-136.9 				"/>
				<polygon class="st25" points="113.3,-83.8 102.6,-105.8 90.4,-94.6 101.5,-89.4 103.5,-88.4 				"/>
				<polygon class="st24" points="112.6,-100.4 108.9,-111.7 102.7,-106 				"/>
				<polygon class="st15" points="100.5,-79.6 92.5,-71.9 98,-70.1 				"/>
				<polygon class="st23" points="100.5,-79.6 98,-70.1 96,-62.6 104.3,-59.3 				"/>
				<polygon class="st37" points="98,-70.1 92.5,-71.9 86.6,-66.3 96,-62.6 				"/>
				<polygon class="st38" points="104.3,-59.3 96,-62.6 86.6,-66.3 92.4,-47.1 92.4,-47.1 100.6,-49.4 100.6,-49.4 100.7,-49.6 
					100.8,-49.9 100.8,-49.9 				"/>
				<path class="st14" d="M94.7-16"/>
				<polygon class="st39" points="72,-25.2 69.3,-26.5 68.4,-26.9 67.3,-23.8 68.6,-24.1 72.1,-25 				"/>
				<polygon class="st40" points="85,-32.2 79.3,-38.9 76.3,-35.7 80.4,-30.9 83,-27.8 84.5,-26 84.7,-28.7 				"/>
				<polygon class="st41" points="80.1,-23.1 72.6,-17.2 80.4,-14 80.9,-16.5 80.7,-20.5 				"/>
				<polygon class="st42" points="78.3,-30.8 69.8,-36.8 72,-25.2 72.1,-25 72.1,-24.9 80.1,-23.1 79.7,-24.7 				"/>
				<polygon class="st43" points="100.7,-18.6 96.5,-22.9 88.3,-24 81.3,-18.5 				"/>
				<polygon class="st44" points="88.3,-24 84.5,-26 83,-27.8 81.3,-18.5 				"/>
				<polygon class="st45" points="92.2,-31.5 85,-32.2 84.7,-28.7 84.5,-26 88.3,-24 				"/>
				<polygon class="st46" points="95.6,-38.6 89.5,-38.4 85,-32.2 92.2,-31.5 93.2,-33.3 95.5,-38.3 				"/>
				<polygon class="st29" points="100.6,-49.4 92.4,-47.1 80.6,-43.7 80.6,-43.7 89.5,-38.4 95.6,-38.6 97.1,-41.7 				"/>
			</g>
			<g>
				<path class="st15" d="M204.4-7.2l-3.2-9.7l-9.9-5.6l-0.2,0.2l10.8,22L204.4-7.2L204.4-7.2z M252.4-54.7l-6.6-10l-6.7-5.7l2.6,20
					l0.5,3.8L252.4-54.7z M239.8-82l-6.3-0.7l-1.8,3.5l3.6-1.2L239.8-82L239.8-82z"/>
				<polygon class="st8" points="169.5,-155.2 166.7,-155.5 165.5,-151.6 171,-150.4 170.3,-152.5 				"/>
				<polygon class="st9" points="163.6,-150.6 161.7,-156.1 161.1,-152.4 				"/>
				<polygon class="st12" points="166.7,-155.5 161.7,-156.1 163.6,-150.6 164.5,-148.3 165.5,-151.6 				"/>
				<polygon class="st11" points="167.4,-161.9 161.7,-156.1 166.7,-155.5 169.5,-155.2 				"/>
				<polygon class="st13" points="161.7,-156.1 157.3,-159.9 155.9,-158.1 156.2,-155.8 161.1,-152.4 				"/>
				<polygon class="st10" points="167.4,-161.9 165.8,-162.8 157.3,-159.9 161.7,-156.1 				"/>
				<polygon class="st6" points="175.6,-137.1 172.1,-147.1 172.1,-147.1 167.3,-140.3 169.5,-134.4 171,-139.6 				"/>
				<polygon class="st7" points="172.1,-147.1 171,-150.4 165.5,-151.6 164.5,-148.3 167.3,-140.3 172.1,-147.1 				"/>
				<polygon class="st5" points="175.6,-137.1 171,-139.6 169.5,-134.4 170,-132.9 				"/>
				<polygon class="st4" points="177.2,-132.2 175.6,-137.1 170,-132.9 171.9,-127.6 				"/>
				<polygon class="st3" points="177.2,-132.2 171.9,-127.6 174.1,-121.6 				"/>
				<polygon class="st1" points="182,-122.1 178.6,-128.2 174.1,-121.6 173.9,-113.9 				"/>
				<polygon class="st16" points="184.6,-117.3 182,-122.1 173.9,-113.9 174.9,-110.1 				"/>
				<polygon class="st18" points="184.6,-117.3 174.9,-110.1 177.2,-100.3 186.4,-108.9 				"/>
				<polygon class="st27" points="186.4,-108.9 177.2,-100.3 177.4,-91.4 184.6,-100 189.3,-99.5 				"/>
				<polygon class="st19" points="189.3,-99.5 184.6,-100 177.4,-91.4 186.9,-93.4 190.9,-94.2 				"/>
				<polygon class="st20" points="190.9,-94.2 186.9,-93.4 181.4,-86.6 193.1,-87.2 				"/>
				<polygon class="st26" points="186.9,-93.4 177.4,-91.4 177.7,-82.1 181.4,-86.6 				"/>
				<polygon class="st21" points="193.1,-87.2 181.4,-86.6 177.7,-82.1 194.4,-82.8 				"/>
				<polygon class="st23" points="194.4,-82.8 177.7,-82.1 179.8,-73.3 185.5,-77 185.5,-77 				"/>
				<polygon class="st24" points="198.6,-78.4 185.5,-77 185.5,-77 179.8,-73.3 177.1,-65.8 177.9,-54.8 187,-65.2 				"/>
				<polygon class="st22" points="212.6,-87.9 203.8,-86 194.4,-82.8 185.5,-77 198.6,-78.4 204.9,-79 				"/>
				<polygon class="st22" points="207.9,-59.8 187,-65.2 177.9,-54.8 185.4,-40.5 196.5,-50 				"/>
				<polygon class="st2" points="178.6,-128.2 177.2,-132.2 174.1,-121.6 				"/>
				<polygon class="st23" points="224.3,-58.3 204.9,-79 198.6,-78.4 187,-65.2 207.9,-59.8 224.2,-55.6 				"/>
				<polygon class="st25" points="224.2,-55.6 207.9,-59.8 196.5,-50 206.2,-43.8 222.9,-33.3 224.1,-53.4 				"/>
			</g>
			<g>
				<path class="st15" d="M27.4-174.2l-3.2-9.7l-9.9-5.6l-0.2,0.1l10.8,22L27.4-174.2z M75.4-221.7l-6.7-10l-6.7-5.7l2.6,20l0.5,3.8
					L75.4-221.7z M62.8-249.1l-6.3-0.7l-1.8,3.5l3.6-1.2L62.8-249.1z"/>
				<polygon class="st24" points="77.1,-228.5 77.1,-228.5 62.8,-249.1 62.8,-249.1 58.3,-247.5 58.3,-247.5 68.8,-231.7 
					75.4,-221.7 				"/>
				<polygon class="st24" points="21.6,-245.4 8.5,-244.1 8.5,-244.1 2.8,-240.3 0.1,-232.8 0.9,-221.9 10,-232.2 				"/>
				<polygon class="st22" points="64.7,-217.4 47.1,-220.4 45.9,-200.3 45.8,-198.4 65.2,-213.7 				"/>
				<polygon class="st23" points="45.9,-200.3 29.2,-210.9 32.5,-199.2 32.5,-199.2 36.7,-184.6 45.8,-198.4 				"/>
				<polygon class="st22" points="30.9,-226.8 10,-232.2 0.9,-221.9 8.4,-207.6 19.5,-217 				"/>
				<polygon class="st15" points="29.2,-210.9 19.5,-217 8.4,-207.6 7.7,-201.4 				"/>
				<polygon class="st22" points="32.5,-199.2 32.5,-199.2 20.4,-195.2 27.4,-174.2 36.7,-184.6 				"/>
				<polygon class="st28" points="29.2,-210.9 7.7,-201.4 20.4,-195.2 32.5,-199.2 				"/>
				<polygon class="st15" points="24.8,-167.3 15,-172 18.5,-150.4 				"/>
				<polygon class="st28" points="62.1,-237.4 62.1,-237.4 48.2,-249.2 48.2,-249.2 47.3,-225.3 47.2,-222.6 47.1,-220.4 
					64.7,-217.4 				"/>
				<polygon class="st25" points="47.2,-222.6 30.9,-226.8 19.5,-217 29.2,-210.9 45.9,-200.3 47.1,-220.4 				"/>
				<polygon class="st25" points="24.8,-167.3 14.1,-189.3 1.9,-178.1 13,-172.9 15,-172 				"/>
				<polygon class="st24" points="24.1,-183.9 20.4,-195.2 14.2,-189.5 				"/>
			</g>
			<g>
				<polygon class="st29" points="57.2,-204.5 53,-207.1 48.9,-206.3 47.7,-204.4 56.1,-201.4 				"/>
				<polygon class="st30" points="56.1,-201.4 47.7,-204.4 50.6,-198.4 56,-196.6 				"/>
				<polygon class="st31" points="69.3,-193.5 66.7,-197.8 59.4,-193.8 64.4,-189.6 67.3,-190.8 68.4,-193.9 				"/>
				<polygon class="st32" points="66.7,-197.8 62.8,-204.2 57.2,-204.5 56.1,-201.4 56,-196.6 59.4,-193.8 				"/>
				<polygon class="st33" points="69.8,-203.8 62.8,-204.2 66.7,-197.8 69.3,-193.5 72,-192.2 				"/>
				<polygon class="st34" points="68.6,-191.1 67.3,-190.8 64.4,-189.6 68,-184.3 				"/>
				<polygon class="st33" points="72.1,-192 72.1,-192 68.6,-191.1 68,-184.3 72.6,-184.2 80.1,-190.1 				"/>
				<polygon class="st35" points="83,-194.8 80.5,-197.7 80.4,-197.9 76.3,-202.7 75.6,-202 69.8,-203.8 78.3,-197.8 79.7,-191.8 
					80.1,-190.1 80.7,-187.6 80.9,-183.5 81.3,-185.6 82.9,-194.1 				"/>
				<polygon class="st30" points="89.5,-205.4 80.6,-210.8 79.3,-205.9 85,-199.3 				"/>
				<polygon class="st36" points="86.6,-233.3 80.6,-210.8 92.4,-214.1 92.4,-214.1 				"/>
				<polygon class="st38" points="104.3,-226.4 96,-229.6 86.6,-233.3 92.4,-214.1 92.4,-214.1 100.6,-216.5 100.6,-216.5 
					100.7,-216.6 100.8,-216.9 100.8,-216.9 				"/>
				<path class="st14" d="M94.7-183"/>
				<polygon class="st39" points="72,-192.2 69.3,-193.5 68.4,-193.9 67.3,-190.8 68.6,-191.1 72.1,-192 				"/>
				<polygon class="st40" points="85,-199.3 79.3,-205.9 76.3,-202.7 80.4,-197.9 83,-194.8 84.5,-193.1 84.7,-195.7 				"/>
				<polygon class="st41" points="80.1,-190.1 72.6,-184.2 80.4,-181 80.9,-183.5 80.7,-187.6 				"/>
				<polygon class="st42" points="78.3,-197.8 69.8,-203.8 72,-192.2 72.1,-192 72.1,-192 80.1,-190.1 79.7,-191.8 				"/>
				<polygon class="st43" points="100.7,-185.6 96.5,-189.9 88.3,-191.1 81.3,-185.6 				"/>
				<polygon class="st44" points="88.3,-191.1 84.5,-193.1 83,-194.8 81.3,-185.6 				"/>
				<polygon class="st45" points="92.2,-198.5 85,-199.3 84.7,-195.7 84.5,-193.1 88.3,-191.1 				"/>
				<polygon class="st46" points="95.6,-205.6 89.5,-205.4 85,-199.3 92.2,-198.5 93.2,-200.3 95.5,-205.4 				"/>
				<polygon class="st29" points="100.6,-216.5 92.4,-214.1 80.6,-210.8 80.6,-210.8 89.5,-205.4 95.6,-205.6 97.1,-208.8 				"/>
			</g>
			<g>
				<polygon class="st29" points="145.7,-121 141.5,-123.6 137.4,-122.8 136.2,-120.9 144.6,-117.9 				"/>
				<polygon class="st30" points="144.6,-117.9 136.2,-120.9 139.1,-114.8 144.5,-113 				"/>
				<polygon class="st31" points="157.8,-110 155.2,-114.3 147.9,-110.3 152.9,-106.1 155.8,-107.3 156.9,-110.4 				"/>
				<polygon class="st32" points="155.2,-114.3 151.3,-120.7 145.7,-121 144.6,-117.9 144.5,-113 147.9,-110.3 				"/>
				<polygon class="st33" points="158.3,-120.3 151.3,-120.7 155.2,-114.3 157.8,-110 160.5,-108.7 				"/>
				<polygon class="st34" points="157.1,-107.6 155.8,-107.3 152.9,-106.1 156.5,-100.8 				"/>
				<polygon class="st33" points="160.6,-108.5 160.6,-108.5 157.1,-107.6 156.5,-100.8 161.1,-100.7 168.6,-106.6 				"/>
				<polygon class="st35" points="171.5,-111.3 169,-114.2 168.9,-114.4 164.8,-119.2 164.1,-118.5 158.3,-120.3 166.8,-114.3 
					168.2,-108.2 168.6,-106.6 169.2,-104.1 169.4,-100 169.8,-102.1 171.4,-110.6 				"/>
				<polygon class="st30" points="178,-121.9 169.1,-127.2 167.8,-122.4 173.5,-115.8 				"/>
				<polygon class="st36" points="175.1,-149.8 169.1,-127.2 180.9,-130.6 180.9,-130.6 				"/>
				<path class="st15" d="M204.4-174.2l-3.2-9.7l-9.9-5.6l-0.2,0.1l10.8,22L204.4-174.2L204.4-174.2z M252.4-221.7l-6.6-10l-6.7-5.7
					l2.6,20l0.5,3.8L252.4-221.7L252.4-221.7z M239.8-249.1l-6.3-0.7l-1.8,3.5l3.6-1.2L239.8-249.1L239.8-249.1z"/>
				<polygon class="st24" points="198.6,-245.4 185.5,-244.1 185.5,-244.1 179.8,-240.3 177.1,-232.8 177.9,-221.9 187,-232.2 				
					"/>
				<polygon class="st22" points="207.9,-226.8 187,-232.2 177.9,-221.9 185.4,-207.6 196.5,-217 				"/>
				<polygon class="st15" points="206.2,-210.9 196.5,-217 185.4,-207.6 184.7,-201.4 				"/>
				<polygon class="st23" points="190,-172.9 178.9,-178.1 176.3,-158.9 				"/>
				<polygon class="st22" points="209.5,-199.2 209.5,-199.2 197.4,-195.2 204.4,-174.2 213.7,-184.6 				"/>
				<polygon class="st28" points="206.2,-210.9 184.7,-201.4 197.4,-195.2 209.5,-199.2 				"/>
				<polygon class="st15" points="197.4,-195.2 184.7,-201.4 178.9,-178.1 191.1,-189.3 191.2,-189.5 				"/>
				<polygon class="st15" points="201.8,-167.3 192,-172 195.5,-150.4 				"/>
				<polygon class="st24" points="192,-172 190,-172.9 176.3,-158.9 175.1,-149.8 181,-155.4 189,-163.1 192.8,-142.9 195.5,-150.4 
									"/>
				<polygon class="st25" points="224.2,-222.6 207.9,-226.8 196.5,-217 206.2,-210.9 222.9,-200.3 224.1,-220.4 				"/>
				<polygon class="st25" points="201.8,-167.3 191.1,-189.3 178.9,-178.1 190,-172.9 192,-172 				"/>
				<polygon class="st24" points="201.1,-183.9 197.4,-195.2 191.2,-189.5 				"/>
				<polygon class="st15" points="189,-163.1 181,-155.4 186.5,-153.6 				"/>
				<polygon class="st23" points="189,-163.1 186.5,-153.6 184.5,-146.1 192.8,-142.9 				"/>
				<polygon class="st37" points="186.5,-153.6 181,-155.4 175.1,-149.8 184.5,-146.1 				"/>
				<polygon class="st38" points="192.8,-142.9 184.5,-146.1 175.1,-149.8 180.9,-130.6 180.9,-130.6 189.1,-133 189.1,-133 
					189.2,-133.1 189.3,-133.4 189.3,-133.4 				"/>
				<path class="st14" d="M183.2-99.5"/>
				<polygon class="st39" points="160.5,-108.7 157.8,-110 156.9,-110.4 155.8,-107.3 157.1,-107.6 160.6,-108.5 				"/>
				<polygon class="st40" points="173.5,-115.8 167.8,-122.4 164.8,-119.2 168.9,-114.4 171.5,-111.3 173,-109.6 173.2,-112.2 				
					"/>
				<polygon class="st41" points="168.6,-106.6 161.1,-100.7 168.9,-97.5 169.4,-100 169.2,-104.1 				"/>
				<polygon class="st42" points="166.8,-114.3 158.3,-120.3 160.5,-108.7 160.6,-108.5 160.6,-108.5 168.6,-106.6 168.2,-108.2 
									"/>
				<polygon class="st43" points="189.2,-102.1 185,-106.4 176.8,-107.5 169.8,-102.1 				"/>
				<polygon class="st44" points="176.8,-107.5 173,-109.6 171.5,-111.3 169.8,-102.1 				"/>
				<polygon class="st45" points="180.7,-115 173.5,-115.8 173.2,-112.2 173,-109.6 176.8,-107.5 				"/>
				<polygon class="st46" points="184.1,-122.1 178,-121.9 173.5,-115.8 180.7,-115 181.7,-116.8 184,-121.8 				"/>
				<polygon class="st29" points="189.1,-133 180.9,-130.6 169.1,-127.2 169.1,-127.2 178,-121.9 184.1,-122.1 185.6,-125.2 				"/>
			</g>
		</g>
	</g>
</pattern>
<g id="Layer_1-2">
	<g>
		<rect y="0" class="st47" width="423.1" height="317.4"/>
		<pattern  id="SVGID_1_" xlink:href="#New_Pattern" patternTransform="matrix(-1 0 0 -1 -15796.6465 -16030.8252)">
		</pattern>
		<rect x="0" y="0" class="st48" width="423.1" height="317.4"/>
	</g>
</g>
</svg>
