<?xml version="1.0" encoding="UTF-8"?>
<svg id="Layer_2" data-name="Layer 2" xmlns="http://www.w3.org/2000/svg" xmlns:xlink="http://www.w3.org/1999/xlink" viewBox="0 0 423.15 317.36">
  <defs>
    <style>
      .cls-1 {
        fill: #7b4d4a;
      }

      .cls-1, .cls-2, .cls-3, .cls-4, .cls-5, .cls-6, .cls-7, .cls-8, .cls-9, .cls-10, .cls-11, .cls-12, .cls-13, .cls-14, .cls-15, .cls-16, .cls-17, .cls-18, .cls-19, .cls-20, .cls-21, .cls-22, .cls-23, .cls-24, .cls-25, .cls-26, .cls-27, .cls-28, .cls-29, .cls-30, .cls-31, .cls-32, .cls-33, .cls-34, .cls-35, .cls-36, .cls-37, .cls-38, .cls-39, .cls-40, .cls-41, .cls-42, .cls-43, .cls-44, .cls-45, .cls-46 {
        stroke: #fff;
        stroke-miterlimit: 10;
        stroke-width: .25px;
      }

      .cls-47 {
        fill: url(#New_Pattern);
      }

      .cls-47, .cls-48, .cls-49 {
        stroke-width: 0px;
      }

      .cls-2 {
        fill: #dfcbc2;
      }

      .cls-3 {
        fill: #e4b087;
      }

      .cls-4 {
        fill: #b78264;
      }

      .cls-5 {
        fill: #ccafaf;
      }

      .cls-6 {
        fill: #cea3a3;
      }

      .cls-7 {
        fill: #84575a;
      }

      .cls-8 {
        fill: #9b676d;
      }

      .cls-9 {
        fill: #785858;
      }

      .cls-10 {
        fill: #ac9891;
      }

      .cls-11 {
        fill: #af705a;
      }

      .cls-12 {
        fill: #805554;
      }

      .cls-13 {
        fill: #8e7268;
      }

      .cls-14 {
        fill: #d7d8d8;
      }

      .cls-48, .cls-40 {
        fill: none;
      }

      .cls-15 {
        fill: #d5b3b7;
      }

      .cls-16 {
        fill: #a77b81;
      }

      .cls-17 {
        fill: #c39494;
      }

      .cls-18 {
        fill: #c5a3a2;
      }

      .cls-19 {
        fill: #cecdce;
      }

      .cls-20 {
        fill: #3d3d3d;
      }

      .cls-21 {
        fill: #9d7f7a;
      }

      .cls-22 {
        fill: #995f59;
      }

      .cls-49 {
        fill: #fff;
      }

      .cls-23 {
        fill: #f5b887;
      }

      .cls-24 {
        fill: #8c5b60;
      }

      .cls-25 {
        fill: #7d5e5a;
      }

      .cls-26 {
        fill: #8d5e63;
      }

      .cls-27 {
        fill: #c9c3c4;
      }

      .cls-28 {
        fill: #dcc5b9;
      }

      .cls-29 {
        fill: #decabb;
      }

      .cls-30 {
        fill: #79514e;
      }

      .cls-31 {
        fill: #c38369;
      }

      .cls-32 {
        fill: #7f4a42;
      }

      .cls-33 {
        fill: #bd9d8d;
      }

      .cls-34 {
        fill: #a07e6a;
      }

      .cls-35 {
        fill: #784a4d;
      }

      .cls-36 {
        fill: #7d5151;
      }

      .cls-37 {
        fill: #9b7a73;
      }

      .cls-38 {
        fill: #b4846f;
      }

      .cls-39 {
        fill: #cdb8b9;
      }

      .cls-41 {
        fill: #cd9ca9;
      }

      .cls-42 {
        fill: #895d5f;
      }

      .cls-43 {
        fill: #b68a92;
      }

      .cls-44 {
        fill: #ecbb94;
      }

      .cls-45 {
        fill: #c695a0;
      }

      .cls-46 {
        fill: #866760;
      }
    </style>
    <pattern id="New_Pattern" data-name="New Pattern" x="0" y="0" width="177" height="167.03" patternTransform="translate(-107.19 -175.33)" patternUnits="userSpaceOnUse" viewBox="0 0 177 167.03">
      <g>
        <rect class="cls-48" width="177" height="167.03"/>
        <g>
          <polygon class="cls-34" points="122.63 -6.36 118.15 1.14 112.77 -6.76 117.76 -6.56 122.63 -6.36"/>
          <polygon class="cls-10" points="118.15 1.14 118.15 1.14 116.91 3.24 111.99 2.4 112.07 -1.85 112.77 -6.76 118.15 1.14"/>
          <polygon class="cls-33" points="116.91 3.24 111.81 11.79 111.99 2.4 116.91 3.24"/>
          <polygon class="cls-2" points="111.81 11.79 109.05 5 112.07 -1.85 111.99 2.4 111.81 11.79"/>
          <polygon class="cls-29" points="111.81 11.79 111.8 11.79 110.56 13.87 109.48 15.97 106.4 11 109.05 5 111.81 11.79"/>
          <polygon class="cls-3" points="109.48 15.97 107.84 19.16 103.45 17.69 106.4 11 109.48 15.97"/>
          <polygon class="cls-28" points="107.84 19.16 103.28 28.01 102.44 19.55 103.45 17.69 107.84 19.16"/>
          <polygon class="cls-44" points="103.28 28.01 99.56 33.05 99.03 25.8 102.44 19.55 103.28 28.01"/>
          <polygon class="cls-38" points="99.56 33.05 93.91 29.26 99.03 25.8 99.56 33.05"/>
          <polygon class="cls-31" points="99.56 33.05 98.79 34.08 90.52 31.56 93.91 29.26 99.56 33.05"/>
          <polygon class="cls-4" points="115.91 41.04 107.53 38.65 111.31 34.59 116.17 38.21 115.91 41.04"/>
          <polygon class="cls-44" points="119.53 32.91 116.17 38.21 111.31 34.59 113.87 31.82 119.53 32.91"/>
          <polygon class="cls-28" points="119.53 32.91 113.87 31.82 115.94 25.69 120.34 29.39 119.53 32.91"/>
          <polygon class="cls-3" points="120.34 29.39 115.94 25.69 117.3 21.67 122.64 20.35 121.59 23.96 120.34 29.39"/>
          <polygon class="cls-29" points="117.3 21.67 118.67 17.6 119.24 15.27 119.25 15.27 124.39 14.35 122.64 20.35 117.3 21.67"/>
          <polygon class="cls-33" points="124.39 14.34 122.52 10.6 126.37 7.55 124.39 14.34"/>
          <polygon class="cls-2" points="124.39 14.34 124.39 14.35 119.25 15.27 121.1 7.76 122.52 10.6 124.39 14.34"/>
          <polygon class="cls-10" points="126.37 7.55 122.52 10.6 121.1 7.76 122.82 .81 127.57 3.42 126.37 7.55"/>
          <polygon class="cls-34" points="130.99 -3.35 127.57 3.42 122.82 .81 122.63 -6.36 130.99 -3.35 130.99 -3.35"/>
          <polygon class="cls-44" points="59.96 16.67 57.21 16.99 56 13.1 61.48 11.92 60.76 14.03 59.96 16.67"/>
          <polygon class="cls-38" points="54.14 12.05 52.18 17.59 51.55 13.87 54.14 12.05"/>
          <polygon class="cls-23" points="57.21 16.99 52.18 17.59 54.14 12.05 54.97 9.75 56 13.1 57.21 16.99"/>
          <polygon class="cls-4" points="57.93 23.4 52.18 17.59 57.21 16.99 59.96 16.67 57.93 23.4"/>
          <polygon class="cls-11" points="52.18 17.59 47.81 21.41 46.35 19.61 46.66 17.3 51.55 13.87 52.18 17.59"/>
          <polygon class="cls-31" points="57.93 23.4 56.33 24.25 47.81 21.41 52.18 17.59 57.93 23.4"/>
          <polygon class="cls-3" points="66.06 -1.46 62.62 8.59 62.6 8.55 57.83 1.8 59.97 -4.14 61.5 1.11 66.06 -1.46"/>
          <polygon class="cls-28" points="62.62 8.59 61.48 11.92 56 13.1 54.97 9.75 57.83 1.8 62.6 8.55 62.62 8.59"/>
          <polygon class="cls-29" points="66.06 -1.46 61.5 1.11 59.97 -4.14 60.52 -5.67 66.06 -1.46"/>
          <path class="cls-40" d="M116.91,3.24"/>
        </g>
        <g>
          <path class="cls-36" d="M6.37-47.81l-3.22,9.68-9.92,5.58-.16-.15L3.82-54.69l2.54,6.88ZM54.41-.3l-6.65,10-6.7,5.69,2.63-20.02.49-3.75L54.41-.3ZM41.76,27.02l-6.31.7-1.76-3.51,3.6,1.25,4.47,1.56Z"/>
          <polygon class="cls-37" points="29.26 76.96 24.27 76.76 25.23 70.04 29.26 76.96"/>
          <polygon class="cls-34" points="34.13 77.15 29.65 84.66 24.27 76.76 29.26 76.96 34.13 77.15"/>
          <polygon class="cls-10" points="29.65 84.66 29.65 84.66 28.41 86.75 23.49 85.91 23.57 81.67 24.27 76.76 29.65 84.66"/>
          <polygon class="cls-33" points="28.41 86.75 23.31 95.3 23.49 85.91 28.41 86.75"/>
          <polygon class="cls-2" points="23.31 95.3 20.55 88.51 23.57 81.67 23.49 85.91 23.31 95.3"/>
          <polygon class="cls-29" points="23.31 95.3 23.3 95.31 22.06 97.39 20.98 99.48 17.9 94.51 20.55 88.51 23.31 95.3"/>
          <polygon class="cls-3" points="20.98 99.48 19.34 102.67 14.95 101.21 17.9 94.51 20.98 99.48"/>
          <polygon class="cls-28" points="19.34 102.67 14.78 111.53 13.94 103.06 14.95 101.21 19.34 102.67"/>
          <polygon class="cls-44" points="14.78 111.53 11.06 116.56 10.53 109.31 13.94 103.06 14.78 111.53"/>
          <polygon class="cls-38" points="11.06 116.56 5.41 112.78 10.53 109.31 11.06 116.56"/>
          <polygon class="cls-31" points="11.06 116.56 10.29 117.6 2.02 115.07 5.41 112.78 11.06 116.56"/>
          <polygon class="cls-4" points="27.41 124.56 19.03 122.17 22.81 118.1 27.67 121.72 27.41 124.56"/>
          <polygon class="cls-44" points="31.03 116.42 27.67 121.72 22.81 118.1 25.37 115.34 31.03 116.42"/>
          <polygon class="cls-28" points="31.03 116.42 25.37 115.34 27.44 109.21 31.84 112.9 31.03 116.42"/>
          <polygon class="cls-3" points="31.84 112.9 27.44 109.21 28.8 105.18 34.14 103.87 33.09 107.48 31.84 112.9"/>
          <polygon class="cls-29" points="28.8 105.18 30.17 101.12 30.74 98.79 30.75 98.78 35.89 97.86 34.14 103.87 28.8 105.18"/>
          <polygon class="cls-33" points="35.89 97.86 34.02 94.11 37.87 91.06 35.89 97.86"/>
          <polygon class="cls-2" points="35.89 97.86 35.89 97.86 30.75 98.78 32.6 91.28 34.02 94.11 35.89 97.86"/>
          <polygon class="cls-10" points="37.87 91.06 34.02 94.11 32.6 91.28 34.32 84.33 39.07 86.94 37.87 91.06"/>
          <polygon class="cls-21" points="45.79 73.64 42.49 80.16 42.49 80.16 34.13 77.15 40.54 75.22 45.79 73.64"/>
          <polygon class="cls-34" points="42.49 80.16 39.07 86.94 34.32 84.33 34.13 77.15 42.49 80.16 42.49 80.16"/>
          <polygon class="cls-13" points="45.79 73.64 40.54 75.22 35.76 71.31 40.75 67.96 46.14 64.33 45.79 73.64"/>
          <polygon class="cls-13" points="34.12 72.74 29.26 76.96 25.23 70.04 26.13 63.77 31.25 69.51 34.12 72.74"/>
          <polygon class="cls-25" points="46.14 64.33 40.75 67.96 36.92 62.41 46.28 60.62 46.14 64.33"/>
          <polygon class="cls-32" points="51.96 49.78 47.9 58.52 46.28 60.62 36.92 62.41 41.12 54.35 41.2 54.12 41.56 47.42 44.43 48.07 51.96 49.78"/>
          <polygon class="cls-1" points="41.2 54.12 41.12 54.35 26.13 63.77 27.36 55.13 26.98 42.79 33.89 44.98 41.56 47.42 41.2 54.12"/>
          <polygon class="cls-12" points="41.06 38.94 33.89 44.98 26.98 42.79 26.98 42.79 26.66 32.6 33.69 24.22 35.45 27.72 36.77 30.37 41.06 38.94"/>
          <polygon class="cls-12" points="55.99 41.12 51.96 49.78 44.43 48.07 42.59 43.09 55.99 41.12"/>
          <polygon class="cls-30" points="61.8 28.64 55.99 41.12 46.95 36.06 56.69 25.37 60.02 21.7 61.8 28.64"/>
          <polygon class="cls-12" points="60.02 21.7 56.69 25.37 41.77 27.02 56.13 6.46 60.02 21.7"/>
          <polygon class="cls-9" points="56.13 6.46 56.13 6.46 41.77 27.02 41.76 27.02 37.29 25.47 37.31 25.42 47.76 9.7 54.41 -.3 56.13 6.46"/>
          <polygon class="cls-9" points=".63 23.38 -12.48 22.04 -12.48 22.03 -18.16 18.31 -20.88 10.81 -20.1 -.16 -11.01 10.16 .63 23.38"/>
          <polygon class="cls-12" points="14.64 32.86 5.77 30.97 -3.62 27.84 -12.48 22.04 .63 23.38 6.93 24.02 14.64 32.86"/>
          <polygon class="cls-35" points="33.69 24.22 26.66 32.6 20.54 34.11 14.65 32.86 27.17 27.18 27.17 27.18 27.18 27.18 33.69 24.22"/>
          <polygon class="cls-12" points="9.94 4.75 -11.01 10.16 -20.1 -.16 -12.6 -14.48 -1.54 -5.04 9.94 4.75"/>
          <path class="cls-40" d="M28.41,86.75"/>
          <polygon class="cls-37" points="40.54 75.22 34.13 77.15 29.26 76.96 34.12 72.74 35.76 71.31 40.54 75.22"/>
          <polygon class="cls-22" points="41.12 54.35 36.92 62.41 31.25 69.51 26.13 63.77 41.12 54.35"/>
          <polygon class="cls-46" points="40.75 67.96 35.76 71.31 34.12 72.74 31.25 69.51 36.92 62.41 40.75 67.96"/>
          <polygon class="cls-30" points="44.43 48.07 41.56 47.42 33.89 44.98 41.06 38.94 42.59 43.09 44.43 48.07"/>
          <polygon class="cls-36" points="55.99 41.12 42.59 43.09 41.06 38.94 36.77 30.37 46.95 36.06 55.99 41.12"/>
          <polygon class="cls-7" points="56.69 25.37 46.95 36.06 36.77 30.37 35.45 27.72 41.76 27.02 41.77 27.02 56.69 25.37"/>
          <polygon class="cls-36" points="27.17 27.18 14.65 32.86 14.64 32.86 6.93 24.02 27.17 27.18"/>
          <polygon class="cls-30" points="47.76 9.7 37.31 25.42 37.29 25.47 33.69 24.22 27.18 27.18 41.06 15.39 41.06 15.39 47.76 9.7"/>
          <polygon class="cls-7" points="41.06 15.39 41.06 15.39 27.18 27.18 27.17 27.18 26.26 3.29 26.15 .57 26.07 -1.61 43.69 -4.63 41.06 15.39"/>
          <polygon class="cls-9" points="27.17 27.18 27.17 27.18 6.93 24.02 26.26 3.29 27.17 27.18"/>
          <polygon class="cls-30" points="26.26 3.29 6.93 24.02 .63 23.38 -11.01 10.16 9.94 4.75 26.15 .57 26.26 3.29"/>
          <polygon class="cls-35" points="26.15 .57 9.94 4.75 -1.54 -5.04 8.2 -11.17 24.93 -21.71 26.07 -1.61 26.15 .57"/>
        </g>
        <g>
          <polygon class="cls-8" points="36.16 -17.49 32.04 -14.9 27.91 -15.76 26.7 -17.65 35.1 -20.65 36.16 -17.49"/>
          <polygon class="cls-16" points="35.1 -20.65 26.7 -17.65 29.63 -23.67 35.04 -25.48 35.1 -20.65"/>
          <polygon class="cls-19" points="48.27 -28.53 45.67 -24.19 38.4 -28.26 43.43 -32.43 46.3 -31.23 47.4 -28.12 48.27 -28.53"/>
          <polygon class="cls-14" points="45.67 -24.19 41.83 -17.8 36.16 -17.49 35.1 -20.65 35.04 -25.48 38.4 -28.26 45.67 -24.19"/>
          <polygon class="cls-39" points="48.76 -18.19 41.83 -17.8 45.67 -24.19 48.27 -28.53 51.03 -29.85 48.76 -18.19"/>
          <polygon class="cls-27" points="47.62 -30.9 46.3 -31.23 43.43 -32.43 47.02 -37.72 47.62 -30.9"/>
          <polygon class="cls-39" points="51.07 -30.06 51.07 -30.04 47.62 -30.9 47.02 -37.72 51.63 -37.79 59.12 -31.92 51.07 -30.06"/>
          <polygon class="cls-18" points="62.01 -27.24 59.52 -24.32 59.36 -24.14 55.27 -19.34 54.58 -20.07 48.76 -18.19 57.25 -24.21 58.73 -30.27 59.12 -31.92 59.74 -34.46 59.89 -38.54 60.28 -36.47 61.88 -27.92 62.01 -27.24"/>
          <polygon class="cls-16" points="68.49 -16.6 59.62 -11.28 58.32 -16.15 64.04 -22.77 68.49 -16.6"/>
          <polygon class="cls-24" points="65.62 11.27 59.62 -11.28 71.43 -7.89 71.43 -7.89 65.62 11.27"/>
          <path class="cls-36" d="M94.87,35.7l-3.22,9.68-9.92,5.58-.16-.15,10.76-21.99,2.54,6.88ZM142.91,83.22l-6.65,10-6.7,5.69,2.63-20.02.49-3.75,10.23,8.08ZM130.26,110.54l-6.31.7-1.76-3.51,3.6,1.25,4.47,1.56Z"/>
          <polygon class="cls-37" points="117.76 160.47 112.77 160.27 113.73 153.56 117.76 160.47"/>
          <polygon class="cls-34" points="122.63 160.67 118.15 168.17 112.77 160.27 117.76 160.47 122.63 160.67"/>
          <polygon class="cls-10" points="118.15 168.17 118.15 168.17 116.91 170.27 111.99 169.43 112.07 165.18 112.77 160.27 118.15 168.17"/>
          <polygon class="cls-33" points="116.91 170.27 111.81 178.82 111.99 169.43 116.91 170.27"/>
          <polygon class="cls-2" points="111.81 178.82 109.05 172.03 112.07 165.18 111.99 169.43 111.81 178.82"/>
          <polygon class="cls-29" points="111.81 178.82 111.8 178.82 110.56 180.9 109.48 183 106.4 178.03 109.05 172.03 111.81 178.82"/>
          <polygon class="cls-3" points="109.48 183 107.84 186.19 103.45 184.72 106.4 178.03 109.48 183"/>
          <polygon class="cls-28" points="107.84 186.19 103.28 195.04 102.44 186.58 103.45 184.72 107.84 186.19"/>
          <polygon class="cls-44" points="103.28 195.04 99.56 200.08 99.03 192.83 102.44 186.58 103.28 195.04"/>
          <polygon class="cls-38" points="99.56 200.08 93.91 196.29 99.03 192.83 99.56 200.08"/>
          <polygon class="cls-31" points="99.56 200.08 98.79 201.11 90.52 198.59 93.91 196.29 99.56 200.08"/>
          <polygon class="cls-4" points="115.91 208.07 107.53 205.69 111.31 201.62 116.17 205.24 115.91 208.07"/>
          <polygon class="cls-44" points="119.53 199.94 116.17 205.24 111.31 201.62 113.87 198.85 119.53 199.94"/>
          <polygon class="cls-28" points="119.53 199.94 113.87 198.85 115.94 192.72 120.34 196.42 119.53 199.94"/>
          <polygon class="cls-3" points="120.34 196.42 115.94 192.72 117.3 188.7 122.64 187.38 121.59 190.99 120.34 196.42"/>
          <polygon class="cls-29" points="117.3 188.7 118.67 184.63 119.24 182.3 119.25 182.3 124.39 181.38 122.64 187.38 117.3 188.7"/>
          <polygon class="cls-33" points="124.39 181.37 122.52 177.63 126.37 174.58 124.39 181.37"/>
          <polygon class="cls-2" points="124.39 181.37 124.39 181.38 119.25 182.3 121.1 174.79 122.52 177.63 124.39 181.37"/>
          <polygon class="cls-10" points="126.37 174.58 122.52 177.63 121.1 174.79 122.82 167.84 127.57 170.45 126.37 174.58"/>
          <polygon class="cls-21" points="134.29 157.16 130.99 163.68 130.99 163.68 122.63 160.67 129.04 158.73 134.29 157.16"/>
          <polygon class="cls-34" points="130.99 163.68 127.57 170.45 122.82 167.84 122.63 160.67 130.99 163.68 130.99 163.68"/>
          <polygon class="cls-13" points="134.29 157.16 129.04 158.73 124.26 154.83 129.25 151.48 134.64 147.85 134.29 157.16"/>
          <polygon class="cls-13" points="122.62 156.25 117.76 160.47 113.73 153.56 114.63 147.28 119.75 153.03 122.62 156.25"/>
          <polygon class="cls-25" points="134.64 147.85 129.25 151.48 125.42 145.92 134.78 144.14 134.64 147.85"/>
          <polygon class="cls-32" points="140.46 133.3 136.4 142.04 134.78 144.14 125.42 145.92 129.62 137.86 129.7 137.63 130.06 130.93 132.93 131.59 140.46 133.3"/>
          <polygon class="cls-1" points="129.7 137.63 129.62 137.86 114.63 147.28 115.86 138.64 115.48 126.31 122.39 128.5 130.06 130.93 129.7 137.63"/>
          <polygon class="cls-12" points="129.56 122.45 122.39 128.5 115.48 126.31 115.48 126.3 115.16 116.11 122.19 107.73 123.95 111.24 125.27 113.89 129.56 122.45"/>
          <polygon class="cls-12" points="144.49 124.63 140.46 133.3 132.93 131.59 131.09 126.6 144.49 124.63"/>
          <polygon class="cls-30" points="150.3 112.16 144.49 124.63 135.45 119.58 145.19 108.88 148.52 105.22 150.3 112.16"/>
          <polygon class="cls-12" points="148.52 105.22 145.19 108.88 130.27 110.54 144.63 89.98 148.52 105.22"/>
          <polygon class="cls-9" points="144.63 89.97 144.63 89.98 130.27 110.54 130.26 110.54 125.79 108.98 125.81 108.94 136.26 93.21 142.91 83.22 144.63 89.97"/>
          <polygon class="cls-44" points="59.96 183.7 57.21 184.02 56 180.13 61.48 178.95 60.76 181.06 59.96 183.7"/>
          <polygon class="cls-38" points="54.14 179.08 52.18 184.62 51.55 180.9 54.14 179.08"/>
          <polygon class="cls-23" points="57.21 184.02 52.18 184.62 54.14 179.08 54.97 176.78 56 180.13 57.21 184.02"/>
          <polygon class="cls-4" points="57.93 190.43 52.18 184.62 57.21 184.02 59.96 183.7 57.93 190.43"/>
          <polygon class="cls-11" points="52.18 184.62 47.81 188.44 46.35 186.64 46.66 184.33 51.55 180.9 52.18 184.62"/>
          <polygon class="cls-31" points="57.93 190.43 56.33 191.28 47.81 188.44 52.18 184.62 57.93 190.43"/>
          <polygon class="cls-3" points="66.06 165.57 62.62 175.62 62.6 175.58 57.83 168.83 59.97 162.9 61.5 168.14 66.06 165.57"/>
          <polygon class="cls-28" points="62.62 175.62 61.48 178.95 56 180.13 54.97 176.78 57.83 168.83 62.6 175.58 62.62 175.62"/>
          <polygon class="cls-29" points="66.06 165.57 61.5 168.14 59.97 162.9 60.52 161.36 66.06 165.57"/>
          <polygon class="cls-2" points="67.71 160.73 66.06 165.57 60.52 161.36 62.42 156.11 67.71 160.73"/>
          <polygon class="cls-33" points="67.71 160.73 62.42 156.11 64.6 150.07 67.71 160.73"/>
          <polygon class="cls-34" points="72.47 150.61 69.11 156.67 64.6 150.07 64.44 142.45 72.47 150.61"/>
          <polygon class="cls-37" points="75.12 145.83 72.47 150.61 64.44 142.45 65.35 138.59 75.12 145.83"/>
          <polygon class="cls-13" points="75.12 145.83 65.35 138.59 67.67 128.79 76.91 137.37 75.12 145.83"/>
          <polygon class="cls-46" points="76.91 137.37 67.67 128.79 67.94 119.93 75.05 128.5 79.76 128.05 76.91 137.37"/>
          <polygon class="cls-25" points="79.76 128.05 75.05 128.5 67.94 119.93 77.35 121.87 81.4 122.7 79.76 128.05"/>
          <polygon class="cls-32" points="81.4 122.7 77.35 121.87 71.9 115.12 83.55 115.68 81.4 122.7"/>
          <polygon class="cls-22" points="77.35 121.87 67.94 119.93 68.23 110.58 71.9 115.12 77.35 121.87"/>
          <polygon class="cls-1" points="83.55 115.68 71.9 115.12 68.23 110.58 84.88 111.36 83.55 115.68"/>
          <polygon class="cls-30" points="84.88 111.36 68.23 110.58 70.34 101.82 76.02 105.55 76.02 105.55 84.88 111.36"/>
          <polygon class="cls-9" points="89.13 106.89 76.02 105.55 76.02 105.55 70.34 101.82 67.62 94.32 68.4 83.35 77.49 93.68 89.13 106.89"/>
          <polygon class="cls-12" points="103.14 116.37 94.27 114.49 84.88 111.36 76.02 105.55 89.13 106.89 95.43 107.54 103.14 116.37"/>
          <polygon class="cls-35" points="122.19 107.73 115.16 116.11 109.04 117.63 103.15 116.38 115.67 110.69 115.67 110.69 115.68 110.69 122.19 107.73"/>
          <polygon class="cls-12" points="132.19 78.88 114.57 81.9 113.43 61.81 113.31 59.84 132.68 75.13 132.19 78.88"/>
          <polygon class="cls-30" points="113.43 61.81 96.7 72.34 100.02 60.7 100.02 60.69 104.2 46.08 113.31 59.84 113.43 61.81"/>
          <polygon class="cls-12" points="98.44 88.27 77.49 93.68 68.4 83.35 75.9 69.03 86.96 78.48 98.44 88.27"/>
          <polygon class="cls-36" points="96.7 72.34 86.96 78.48 75.9 69.03 75.21 62.84 96.7 72.34"/>
          <polygon class="cls-30" points="80.54 34.36 69.42 39.59 66.84 20.34 80.54 34.36"/>
          <polygon class="cls-12" points="100.02 60.69 100.02 60.7 87.89 56.67 94.87 35.7 104.2 46.08 100.02 60.69"/>
          <polygon class="cls-7" points="96.7 72.34 75.21 62.84 87.89 56.67 100.02 60.7 96.7 72.34"/>
          <polygon class="cls-36" points="87.89 56.67 75.21 62.84 69.42 39.59 81.56 50.82 81.72 50.96 87.89 56.67"/>
          <polygon class="cls-36" points="92.32 28.82 82.51 33.44 86.04 11.87 92.32 28.82"/>
          <polygon class="cls-9" points="82.51 33.44 80.54 34.36 66.84 20.34 65.62 11.27 71.48 16.89 79.47 24.55 83.26 4.34 86.04 11.87 82.51 33.44"/>
          <path class="cls-40" d="M116.91,170.27"/>
          <polygon class="cls-37" points="129.04 158.73 122.63 160.67 117.76 160.47 122.62 156.25 124.26 154.83 129.04 158.73"/>
          <polygon class="cls-10" points="69.11 156.67 67.71 160.73 64.6 150.07 69.11 156.67"/>
          <polygon class="cls-22" points="129.62 137.86 125.42 145.92 119.75 153.03 114.63 147.28 129.62 137.86"/>
          <polygon class="cls-46" points="129.25 151.48 124.26 154.83 122.62 156.25 119.75 153.03 125.42 145.92 129.25 151.48"/>
          <polygon class="cls-30" points="132.93 131.59 130.06 130.93 122.39 128.5 129.56 122.45 131.09 126.6 132.93 131.59"/>
          <polygon class="cls-36" points="144.49 124.63 131.09 126.6 129.56 122.45 125.27 113.89 135.45 119.58 144.49 124.63"/>
          <polygon class="cls-7" points="145.19 108.88 135.45 119.58 125.27 113.89 123.95 111.24 130.26 110.54 130.27 110.54 145.19 108.88"/>
          <polygon class="cls-36" points="115.67 110.69 103.15 116.38 103.14 116.37 95.43 107.54 115.67 110.69"/>
          <polygon class="cls-30" points="136.26 93.21 125.81 108.94 125.79 108.98 122.19 107.73 115.68 110.69 129.56 98.91 129.56 98.9 136.26 93.21"/>
          <polygon class="cls-7" points="129.56 98.9 129.56 98.91 115.68 110.69 115.67 110.69 114.76 86.81 114.65 84.08 114.57 81.9 132.19 78.88 129.56 98.9"/>
          <polygon class="cls-9" points="115.67 110.69 115.67 110.69 95.43 107.54 114.76 86.81 115.67 110.69"/>
          <polygon class="cls-30" points="114.76 86.81 95.43 107.54 89.13 106.89 77.49 93.68 98.44 88.27 114.65 84.08 114.76 86.81"/>
          <polygon class="cls-35" points="114.65 84.08 98.44 88.27 86.96 78.48 96.7 72.34 113.43 61.81 114.57 81.9 114.65 84.08"/>
          <polygon class="cls-35" points="92.32 28.82 81.56 50.82 69.42 39.59 80.54 34.36 82.51 33.44 92.32 28.82"/>
          <polygon class="cls-9" points="91.64 45.39 87.89 56.67 81.72 50.96 91.64 45.39"/>
          <polygon class="cls-36" points="79.47 24.55 71.48 16.89 77 15.06 79.47 24.55"/>
          <polygon class="cls-30" points="79.47 24.55 77 15.06 75.04 7.57 83.26 4.34 79.47 24.55"/>
          <polygon class="cls-26" points="77 15.06 71.48 16.89 65.62 11.27 75.04 7.57 77 15.06"/>
          <polygon class="cls-42" points="83.26 4.34 75.04 7.57 65.62 11.27 71.43 -7.89 71.43 -7.89 79.56 -5.57 79.58 -5.56 79.65 -5.41 79.75 -5.13 79.76 -5.12 83.26 4.34"/>
          <path class="cls-40" d="M73.74-39.03"/>
          <polygon class="cls-20" points="51.03 -29.85 48.27 -28.53 47.4 -28.12 46.3 -31.23 47.62 -30.9 51.07 -30.04 51.03 -29.85"/>
          <polygon class="cls-41" points="64.04 -22.77 58.32 -16.15 55.27 -19.34 59.36 -24.14 62.01 -27.24 63.49 -28.97 63.72 -26.3 64.04 -22.77"/>
          <polygon class="cls-15" points="59.12 -31.92 51.63 -37.79 59.42 -41.04 59.89 -38.54 59.74 -34.46 59.12 -31.92"/>
          <polygon class="cls-5" points="57.25 -24.21 48.76 -18.19 51.03 -29.85 51.07 -30.04 51.07 -30.06 59.12 -31.92 58.73 -30.27 57.25 -24.21"/>
          <polygon class="cls-17" points="79.72 -36.41 75.54 -32.12 67.25 -30.98 60.28 -36.47 79.72 -36.41"/>
          <polygon class="cls-6" points="67.25 -30.98 63.49 -28.97 62.01 -27.24 60.28 -36.47 67.25 -30.98"/>
          <polygon class="cls-45" points="71.23 -23.52 64.04 -22.77 63.72 -26.3 63.49 -28.97 67.25 -30.98 71.23 -23.52"/>
          <polygon class="cls-43" points="74.61 -16.43 68.49 -16.6 64.04 -22.77 71.23 -23.52 72.19 -21.72 74.5 -16.68 74.61 -16.43"/>
          <polygon class="cls-8" points="79.56 -5.57 71.43 -7.89 59.62 -11.28 59.62 -11.28 68.49 -16.6 74.61 -16.43 76.05 -13.28 79.56 -5.57"/>
        </g>
        <g>
          <path class="cls-36" d="M183.37-47.81l-3.22,9.68-9.92,5.58-.16-.15,10.76-21.99,2.54,6.88ZM231.41-.3l-6.65,10-6.7,5.69,2.63-20.02.49-3.75L231.41-.3ZM218.76,27.02l-6.31.7-1.76-3.51,3.6,1.25,4.47,1.56Z"/>
          <polygon class="cls-44" points="148.46 100.18 145.71 100.51 144.5 96.62 149.98 95.44 149.26 97.54 148.46 100.18"/>
          <polygon class="cls-38" points="142.64 95.57 140.68 101.11 140.05 97.38 142.64 95.57"/>
          <polygon class="cls-23" points="145.71 100.51 140.68 101.11 142.64 95.57 143.47 93.27 144.5 96.62 145.71 100.51"/>
          <polygon class="cls-4" points="146.43 106.92 140.68 101.11 145.71 100.51 148.46 100.18 146.43 106.92"/>
          <polygon class="cls-11" points="140.68 101.11 136.31 104.93 134.85 103.12 135.16 100.82 140.05 97.38 140.68 101.11"/>
          <polygon class="cls-31" points="146.43 106.92 144.83 107.76 136.31 104.93 140.68 101.11 146.43 106.92"/>
          <polygon class="cls-3" points="154.56 82.06 151.12 92.1 151.1 92.06 146.33 85.32 148.47 79.38 150 84.63 154.56 82.06"/>
          <polygon class="cls-28" points="151.12 92.1 149.98 95.44 144.5 96.62 143.47 93.27 146.33 85.32 151.1 92.06 151.12 92.1"/>
          <polygon class="cls-29" points="154.56 82.06 150 84.63 148.47 79.38 149.02 77.85 154.56 82.06"/>
          <polygon class="cls-2" points="156.21 77.22 154.56 82.06 149.02 77.85 150.92 72.59 156.21 77.22"/>
          <polygon class="cls-33" points="156.21 77.22 150.92 72.59 153.1 66.55 156.21 77.22"/>
          <polygon class="cls-34" points="160.97 67.1 157.61 73.15 153.1 66.55 152.94 58.93 160.97 67.1"/>
          <polygon class="cls-37" points="163.62 62.32 160.97 67.1 152.94 58.93 153.85 55.07 163.62 62.32"/>
          <polygon class="cls-13" points="163.62 62.32 153.85 55.07 156.17 45.28 165.41 53.85 163.62 62.32"/>
          <polygon class="cls-46" points="165.41 53.85 156.17 45.28 156.44 36.42 163.55 44.98 168.26 44.54 165.41 53.85"/>
          <polygon class="cls-25" points="168.26 44.54 163.55 44.98 156.44 36.42 165.85 38.35 169.9 39.19 168.26 44.54"/>
          <polygon class="cls-32" points="169.9 39.19 165.85 38.35 160.4 31.6 172.05 32.16 169.9 39.19"/>
          <polygon class="cls-22" points="165.85 38.35 156.44 36.42 156.73 27.06 160.4 31.6 165.85 38.35"/>
          <polygon class="cls-1" points="172.05 32.16 160.4 31.6 156.73 27.06 173.38 27.84 172.05 32.16"/>
          <polygon class="cls-30" points="173.38 27.84 156.73 27.06 158.84 18.31 164.52 22.03 164.52 22.04 173.38 27.84"/>
          <polygon class="cls-9" points="177.63 23.38 164.52 22.04 164.52 22.03 158.84 18.31 156.12 10.81 156.9 -.16 165.99 10.16 177.63 23.38"/>
          <polygon class="cls-12" points="191.64 32.86 182.77 30.97 173.38 27.84 164.52 22.04 177.63 23.38 183.93 24.02 191.64 32.86"/>
          <polygon class="cls-12" points="186.94 4.75 165.99 10.16 156.9 -.16 164.4 -14.48 175.46 -5.04 186.94 4.75"/>
          <polygon class="cls-10" points="157.61 73.15 156.21 77.22 153.1 66.55 157.61 73.15"/>
          <polygon class="cls-30" points="203.26 3.29 183.93 24.02 177.63 23.38 165.99 10.16 186.94 4.75 203.15 .57 203.26 3.29"/>
          <polygon class="cls-35" points="203.15 .57 186.94 4.75 175.46 -5.04 185.2 -11.17 201.93 -21.71 203.07 -1.61 203.15 .57"/>
        </g>
        <g>
          <path class="cls-36" d="M6.37,119.22l-3.22,9.68-9.92,5.58-.16-.15,10.76-21.99,2.54,6.88ZM54.41,166.73l-6.65,10-6.7,5.69,2.63-20.02.49-3.75,10.23,8.08ZM41.76,194.05l-6.31.7-1.76-3.51,3.6,1.25,4.47,1.56Z"/>
          <polygon class="cls-9" points="56.13 173.49 56.13 173.49 41.77 194.05 41.76 194.05 37.29 192.5 37.31 192.45 47.76 176.73 54.41 166.73 56.13 173.49"/>
          <polygon class="cls-9" points=".63 190.41 -12.48 189.07 -12.48 189.06 -18.16 185.34 -20.88 177.84 -20.1 166.87 -11.01 177.19 .63 190.41"/>
          <polygon class="cls-12" points="43.69 162.4 26.07 165.42 24.93 145.32 24.81 143.35 44.18 158.65 43.69 162.4"/>
          <polygon class="cls-30" points="24.93 145.32 8.2 155.86 11.52 144.22 11.52 144.2 15.7 129.6 24.81 143.35 24.93 145.32"/>
          <polygon class="cls-12" points="9.94 171.78 -11.01 177.19 -20.1 166.87 -12.6 152.55 -1.54 161.99 9.94 171.78"/>
          <polygon class="cls-36" points="8.2 155.86 -1.54 161.99 -12.6 152.55 -13.29 146.36 8.2 155.86"/>
          <polygon class="cls-12" points="11.52 144.2 11.52 144.22 -.61 140.18 6.37 119.22 15.7 129.6 11.52 144.2"/>
          <polygon class="cls-7" points="8.2 155.86 -13.29 146.36 -.61 140.18 11.52 144.22 8.2 155.86"/>
          <polygon class="cls-36" points="3.82 112.34 -5.99 116.96 -2.46 95.38 3.82 112.34"/>
          <polygon class="cls-7" points="41.06 182.42 41.06 182.42 27.18 194.21 27.17 194.21 26.26 170.32 26.15 167.6 26.07 165.42 43.69 162.4 41.06 182.42"/>
          <polygon class="cls-35" points="26.15 167.6 9.94 171.78 -1.54 161.99 8.2 155.86 24.93 145.32 26.07 165.42 26.15 167.6"/>
          <polygon class="cls-35" points="3.82 112.34 -6.94 134.33 -19.08 123.11 -7.96 117.88 -5.99 116.96 3.82 112.34"/>
          <polygon class="cls-9" points="3.14 128.9 -.61 140.18 -6.78 134.48 3.14 128.9"/>
        </g>
        <g>
          <polygon class="cls-8" points="36.16 149.54 32.04 152.13 27.91 151.27 26.7 149.38 35.1 146.38 36.16 149.54"/>
          <polygon class="cls-16" points="35.1 146.38 26.7 149.38 29.63 143.36 35.04 141.55 35.1 146.38"/>
          <polygon class="cls-19" points="48.27 138.5 45.67 142.84 38.4 138.77 43.43 134.6 46.3 135.8 47.4 138.91 48.27 138.5"/>
          <polygon class="cls-14" points="45.67 142.84 41.83 149.23 36.16 149.54 35.1 146.38 35.04 141.55 38.4 138.77 45.67 142.84"/>
          <polygon class="cls-39" points="48.76 148.84 41.83 149.23 45.67 142.84 48.27 138.5 51.03 137.18 48.76 148.84"/>
          <polygon class="cls-27" points="47.62 136.13 46.3 135.8 43.43 134.6 47.02 129.31 47.62 136.13"/>
          <polygon class="cls-39" points="51.07 136.97 51.07 136.99 47.62 136.13 47.02 129.31 51.63 129.24 59.12 135.11 51.07 136.97"/>
          <polygon class="cls-18" points="62.01 139.79 59.52 142.71 59.36 142.89 55.27 147.69 54.58 146.96 48.76 148.84 57.25 142.82 58.73 136.76 59.12 135.11 59.74 132.57 59.89 128.49 60.28 130.56 61.88 139.11 62.01 139.79"/>
          <polygon class="cls-16" points="68.49 150.43 59.62 155.75 58.32 150.88 64.04 144.26 68.49 150.43"/>
          <polygon class="cls-24" points="65.62 178.3 59.62 155.75 71.43 159.14 71.43 159.14 65.62 178.3"/>
          <polygon class="cls-42" points="83.26 171.37 75.04 174.6 65.62 178.3 71.43 159.14 71.43 159.14 79.56 161.46 79.58 161.47 79.65 161.62 79.75 161.9 79.76 161.91 83.26 171.37"/>
          <path class="cls-40" d="M73.74,128"/>
          <polygon class="cls-20" points="51.03 137.18 48.27 138.5 47.4 138.91 46.3 135.8 47.62 136.13 51.07 136.99 51.03 137.18"/>
          <polygon class="cls-41" points="64.04 144.26 58.32 150.88 55.27 147.69 59.36 142.89 62.01 139.79 63.49 138.06 63.72 140.73 64.04 144.26"/>
          <polygon class="cls-15" points="59.12 135.11 51.63 129.24 59.42 125.99 59.89 128.49 59.74 132.57 59.12 135.11"/>
          <polygon class="cls-5" points="57.25 142.82 48.76 148.84 51.03 137.18 51.07 136.99 51.07 136.97 59.12 135.11 58.73 136.76 57.25 142.82"/>
          <polygon class="cls-17" points="79.72 130.62 75.54 134.91 67.25 136.05 60.28 130.56 79.72 130.62"/>
          <polygon class="cls-6" points="67.25 136.05 63.49 138.06 62.01 139.79 60.28 130.56 67.25 136.05"/>
          <polygon class="cls-45" points="71.23 143.51 64.04 144.26 63.72 140.73 63.49 138.06 67.25 136.05 71.23 143.51"/>
          <polygon class="cls-43" points="74.61 150.6 68.49 150.43 64.04 144.26 71.23 143.51 72.19 145.32 74.5 150.35 74.61 150.6"/>
          <polygon class="cls-8" points="79.56 161.46 71.43 159.14 59.62 155.75 59.62 155.75 68.49 150.43 74.61 150.6 76.05 153.75 79.56 161.46"/>
        </g>
        <g>
          <polygon class="cls-8" points="124.66 66.03 120.54 68.61 116.41 67.75 115.2 65.86 123.6 62.86 124.66 66.03"/>
          <polygon class="cls-16" points="123.6 62.86 115.2 65.86 118.13 59.84 123.54 58.03 123.6 62.86"/>
          <polygon class="cls-19" points="136.77 54.98 134.17 59.32 126.9 55.25 131.93 51.08 134.8 52.28 135.9 55.4 136.77 54.98"/>
          <polygon class="cls-14" points="134.17 59.32 130.33 65.72 124.66 66.03 123.6 62.86 123.54 58.03 126.9 55.25 134.17 59.32"/>
          <polygon class="cls-39" points="137.26 65.33 130.33 65.72 134.17 59.32 136.77 54.98 139.53 53.67 137.26 65.33"/>
          <polygon class="cls-27" points="136.12 52.61 134.8 52.28 131.93 51.08 135.52 45.8 136.12 52.61"/>
          <polygon class="cls-39" points="139.57 53.45 139.57 53.47 136.12 52.61 135.52 45.8 140.13 45.73 147.62 51.6 139.57 53.45"/>
          <polygon class="cls-18" points="150.51 56.28 148.02 59.19 147.86 59.38 143.77 64.17 143.08 63.45 137.26 65.33 145.75 59.31 147.23 53.24 147.62 51.6 148.24 49.05 148.39 44.98 148.78 47.05 150.38 55.6 150.51 56.28"/>
          <polygon class="cls-16" points="156.99 66.92 148.12 72.24 146.82 67.37 152.54 60.75 156.99 66.92"/>
          <polygon class="cls-24" points="154.12 94.79 148.12 72.24 159.93 75.62 159.93 75.62 154.12 94.79"/>
          <path class="cls-36" d="M183.37,119.22l-3.22,9.68-9.92,5.58-.16-.15,10.76-21.99,2.54,6.88ZM231.41,166.73l-6.65,10-6.7,5.69,2.63-20.02.49-3.75,10.23,8.08ZM218.76,194.05l-6.31.7-1.76-3.51,3.6,1.25,4.47,1.56Z"/>
          <polygon class="cls-9" points="177.63 190.41 164.52 189.07 164.52 189.06 158.84 185.34 156.12 177.84 156.9 166.87 165.99 177.19 177.63 190.41"/>
          <polygon class="cls-12" points="186.94 171.78 165.99 177.19 156.9 166.87 164.4 152.55 175.46 161.99 186.94 171.78"/>
          <polygon class="cls-36" points="185.2 155.86 175.46 161.99 164.4 152.55 163.71 146.36 185.2 155.86"/>
          <polygon class="cls-30" points="169.04 117.88 157.92 123.11 155.34 103.86 169.04 117.88"/>
          <polygon class="cls-12" points="188.52 144.2 188.52 144.22 176.39 140.18 183.37 119.22 192.7 129.6 188.52 144.2"/>
          <polygon class="cls-7" points="185.2 155.86 163.71 146.36 176.39 140.18 188.52 144.22 185.2 155.86"/>
          <polygon class="cls-36" points="176.39 140.18 163.71 146.36 157.92 123.11 170.06 134.33 170.22 134.48 176.39 140.18"/>
          <polygon class="cls-36" points="180.82 112.34 171.01 116.96 174.54 95.38 180.82 112.34"/>
          <polygon class="cls-9" points="171.01 116.96 169.04 117.88 155.34 103.86 154.12 94.79 159.98 100.4 167.97 108.06 171.76 87.86 174.54 95.38 171.01 116.96"/>
          <polygon class="cls-35" points="203.15 167.6 186.94 171.78 175.46 161.99 185.2 155.86 201.93 145.32 203.07 165.42 203.15 167.6"/>
          <polygon class="cls-35" points="180.82 112.34 170.06 134.33 157.92 123.11 169.04 117.88 171.01 116.96 180.82 112.34"/>
          <polygon class="cls-9" points="180.14 128.9 176.39 140.18 170.22 134.48 180.14 128.9"/>
          <polygon class="cls-36" points="167.97 108.06 159.98 100.4 165.5 98.57 167.97 108.06"/>
          <polygon class="cls-30" points="167.97 108.06 165.5 98.57 163.54 91.09 171.76 87.86 167.97 108.06"/>
          <polygon class="cls-26" points="165.5 98.57 159.98 100.4 154.12 94.79 163.54 91.09 165.5 98.57"/>
          <polygon class="cls-42" points="171.76 87.86 163.54 91.09 154.12 94.79 159.93 75.62 159.93 75.62 168.06 77.95 168.08 77.96 168.15 78.11 168.25 78.39 168.26 78.39 171.76 87.86"/>
          <path class="cls-40" d="M162.24,44.48"/>
          <polygon class="cls-20" points="139.53 53.67 136.77 54.98 135.9 55.4 134.8 52.28 136.12 52.61 139.57 53.47 139.53 53.67"/>
          <polygon class="cls-41" points="152.54 60.75 146.82 67.37 143.77 64.17 147.86 59.38 150.51 56.28 151.99 54.55 152.22 57.22 152.54 60.75"/>
          <polygon class="cls-15" points="147.62 51.6 140.13 45.73 147.92 42.47 148.39 44.98 148.24 49.05 147.62 51.6"/>
          <polygon class="cls-5" points="145.75 59.31 137.26 65.33 139.53 53.67 139.57 53.47 139.57 53.45 147.62 51.6 147.23 53.24 145.75 59.31"/>
          <polygon class="cls-17" points="168.22 47.11 164.04 51.39 155.75 52.53 148.78 47.05 168.22 47.11"/>
          <polygon class="cls-6" points="155.75 52.53 151.99 54.55 150.51 56.28 148.78 47.05 155.75 52.53"/>
          <polygon class="cls-45" points="159.73 60 152.54 60.75 152.22 57.22 151.99 54.55 155.75 52.53 159.73 60"/>
          <polygon class="cls-43" points="163.11 67.08 156.99 66.92 152.54 60.75 159.73 60 160.69 61.8 163 66.84 163.11 67.08"/>
          <polygon class="cls-8" points="168.06 77.95 159.93 75.62 148.12 72.24 148.12 72.24 156.99 66.92 163.11 67.08 164.55 70.23 168.06 77.95"/>
        </g>
      </g>
    </pattern>
  </defs>
  <g id="Layer_1-2" data-name="Layer 1">
    <g>
      <rect class="cls-49" width="423.15" height="317.36"/>
      <rect class="cls-47" width="423.15" height="317.36"/>
    </g>
  </g>
</svg>