<?xml version="1.0" encoding="utf-8"?>
<!-- Generator: Adobe Illustrator 28.1.0, SVG Export Plug-In . SVG Version: 6.00 Build 0)  -->
<svg version="1.1" id="Layer_1" xmlns="http://www.w3.org/2000/svg" xmlns:xlink="http://www.w3.org/1999/xlink" x="0px" y="0px"
	 viewBox="0 0 288 216" style="enable-background:new 0 0 288 216;" xml:space="preserve">
<style type="text/css">
	.st0{fill:none;}
	.st1{fill:#8C5B60;}
	.st2{fill:#7D5151;}
	.st3{fill:#9B7A73;}
	.st4{fill:#A07E6A;}
	.st5{fill:#AC9891;}
	.st6{fill:#BD9D8D;}
	.st7{fill:#DFCBC2;}
	.st8{fill:#DECABB;}
	.st9{fill:#9D7F7A;}
	.st10{fill:#8E7268;}
	.st11{fill:#7D5E5A;}
	.st12{fill:#7F4A42;}
	.st13{fill:#7B4D4A;}
	.st14{fill:#805554;}
	.st15{fill:#79514E;}
	.st16{fill:#785858;}
	.st17{fill:#866760;}
	.st18{fill:#995F59;}
	.st19{fill:#784A4D;}
	.st20{fill:#84575A;}
	.st21{fill:none;stroke:#1D1D1B;stroke-width:0.23;stroke-miterlimit:10;}
	.st22{fill:#8D5E63;}
	.st23{fill:#895D5F;}
	.st24{fill:#9B676D;}
	.st25{fill:#A77B81;}
	.st26{fill:#CECDCE;}
	.st27{fill:#D7D8D8;}
	.st28{fill:#CDB8B9;}
	.st29{fill:#C9C3C4;}
	.st30{fill:#C5A3A2;}
	.st31{fill:#3D3D3D;}
	.st32{fill:#CD9CA9;}
	.st33{fill:#D5B3B7;}
	.st34{fill:#CCAFAF;}
	.st35{fill:#C39494;}
	.st36{fill:#CEA3A3;}
	.st37{fill:#C695A0;}
	.st38{fill:#B68A92;}
	.st39{fill:#E4B087;}
	.st40{fill:#DCC5B9;}
	.st41{fill:#ECBB94;}
	.st42{fill:#B4846F;}
	.st43{fill:#C38369;}
	.st44{fill:#B78264;}
	.st45{fill:#F5B887;}
	.st46{fill:#AF705A;}
	.st47{fill:#111623;}
	.st48{fill:url(#SVGID_1_);}
	.st49{fill:url(#SVGID_00000000180175683743091010000007697007708250407587_);}
</style>
<pattern  y="216" width="99" height="116.7" patternUnits="userSpaceOnUse" id="Giraffe" viewBox="7.2 -121.2 99 116.7" style="overflow:visible;">
	<g>
		<rect x="7.2" y="-121.2" class="st0" width="99" height="116.7"/>
		<g>
			<rect x="7.2" y="-121.2" class="st0" width="99" height="116.7"/>
			<g>
				<polygon class="st1" points="104.5,-92.9 110.1,-88.8 106.8,-87.4 106.8,-87.4 				"/>
				<path class="st2" d="M93.2-93l-1.1-2.8l1.2-3.2h0.1l1.7,7.1L93.2-93L93.2-93z M73.2-94.9l-0.4-3.6l0.5-2.6l3.2,5.1l0.6,0.9
					L73.2-94.9L73.2-94.9z M71-103.6l1.3-1.3l1.1,0.5l-1.1,0.4C72.3-104.1,71-103.6,71-103.6z"/>
				<polygon class="st3" points="64.4,-117.4 65.6,-118.3 66.7,-116.6 				"/>
				<polygon class="st4" points="63.3,-116.6 62.9,-119.1 65.6,-118.3 64.4,-117.4 				"/>
				<polygon class="st5" points="62.9,-119.1 62.9,-119.1 62.8,-119.8 64.1,-120.6 64.9,-119.6 65.6,-118.3 				"/>
				<polygon class="st6" points="62.8,-119.8 62.4,-122.8 64.1,-120.6 				"/>
				<polygon class="st7" points="62.4,-122.8 64.3,-121.7 64.9,-119.6 64.1,-120.6 				"/>
				<polygon class="st8" points="59.2,-124 59.7,-122.8 60,-122.2 60,-122.2 59,-121 58.3,-122.7 				"/>
				<polygon class="st6" points="59,-121 60.1,-120.5 59.8,-119.1 				"/>
				<polygon class="st7" points="59,-121 59,-121 60,-122.2 61,-120.1 60.1,-120.5 				"/>
				<polygon class="st5" points="59.8,-119.1 60.1,-120.5 61,-120.1 61.9,-118.2 60.3,-117.9 				"/>
				<polygon class="st9" points="61.3,-113.6 60.8,-115.7 60.8,-115.7 63.3,-116.6 62.2,-114.9 				"/>
				<polygon class="st4" points="60.8,-115.7 60.3,-117.9 61.9,-118.2 63.3,-116.6 60.8,-115.7 				"/>
				<polygon class="st10" points="61.3,-113.6 62.2,-114.9 64,-114.9 63.5,-113.2 62.9,-111.3 				"/>
				<polygon class="st10" points="64.1,-115.6 64.4,-117.4 66.7,-116.6 67.7,-115 65.4,-115.3 				"/>
				<polygon class="st11" points="62.9,-111.3 63.5,-113.2 65.4,-112.7 63.6,-110.5 				"/>
				<polygon class="st12" points="64.3,-106.9 63.6,-109.7 63.6,-110.5 65.4,-112.7 66,-110 66,-109.9 67.2,-108.3 66.4,-107.9 				
					"/>
				<polygon class="st13" points="66,-109.9 66,-110 67.7,-115 69,-112.8 71.4,-110 69.4,-109.2 67.2,-108.3 				"/>
				<polygon class="st14" points="68.9,-106.5 69.4,-109.2 71.4,-110 71.4,-110 73.4,-107.7 73.4,-104.5 72.3,-104.9 71.5,-105.3 
									"/>
				<polygon class="st14" points="65,-104.2 64.3,-106.9 66.4,-107.9 67.8,-107.1 				"/>
				<polygon class="st15" points="66.1,-100.2 65,-104.2 68.1,-104.7 67.8,-100.4 67.8,-98.9 				"/>
				<polygon class="st14" points="67.8,-98.9 67.8,-100.4 71,-103.6 71.5,-96.2 				"/>
				<polygon class="st16" points="71.5,-96.2 71.5,-96.2 71,-103.6 71,-103.6 72.3,-104.1 72.3,-104.1 72.8,-98.5 73.2,-94.9 				
					"/>
				<polygon class="st10" points="77,-122.1 80.6,-122.2 81.9,-119.6 78.2,-119.8 				"/>
				<polygon class="st17" points="78.2,-119.8 81.9,-119.6 83.6,-117.5 80.3,-118.1 79.3,-117.1 				"/>
				<polygon class="st11" points="79.3,-117.1 80.3,-118.1 83.6,-117.5 81,-116.2 79.9,-115.6 				"/>
				<polygon class="st12" points="79.9,-115.6 81,-116.2 83.5,-115.6 80.8,-113.6 				"/>
				<polygon class="st18" points="81,-116.2 83.6,-117.5 85.2,-115.3 83.5,-115.6 				"/>
				<polygon class="st13" points="80.8,-113.6 83.5,-115.6 85.2,-115.3 81.3,-112.3 				"/>
				<polygon class="st15" points="81.3,-112.3 85.2,-115.3 86.4,-112.8 84.4,-112.6 84.4,-112.6 				"/>
				<polygon class="st16" points="81.1,-110.5 84.4,-112.6 84.4,-112.6 86.4,-112.8 88.4,-111.6 90.3,-109 86.3,-109.6 				"/>
				<polygon class="st14" points="76.1,-110 78.5,-111.3 81.3,-112.3 84.4,-112.6 81.1,-110.5 79.6,-109.4 				"/>
				<polygon class="st19" points="73.4,-104.5 73.4,-107.7 74.5,-109.2 76.1,-110 74.3,-106.4 74.3,-106.4 74.3,-106.4 				"/>
				<polygon class="st14" points="76.5,-95.9 80,-99.9 84,-95.5 84.4,-95.1 77.1,-95 				"/>
				<polygon class="st15" points="84,-95.5 85.9,-101.1 87.3,-97.8 87.3,-97.8 89.1,-93.7 84.4,-95.1 				"/>
				<polygon class="st14" points="82.5,-104.4 86.3,-109.6 90.3,-109 91.3,-104.3 87,-104.3 				"/>
				<polygon class="st2" points="85.9,-101.1 87,-104.3 91.3,-104.3 92.6,-103 				"/>
				<polygon class="st15" points="96.7,-95.4 98.3,-98.7 102.5,-94.8 				"/>
				<polygon class="st14" points="87.3,-97.8 87.3,-97.8 90.9,-99.2 93.2,-93 89.1,-93.7 				"/>
				<polygon class="st20" points="85.9,-101.1 92.6,-103 90.9,-99.2 87.3,-97.8 				"/>
				<polygon class="st2" points="90.9,-99.2 92.6,-103 98.3,-98.7 93.4,-99 93.4,-99 				"/>
				<polygon class="st2" points="95.1,-91.9 96.5,-94.8 99.7,-89.2 				"/>
				<polygon class="st16" points="96.5,-94.8 96.7,-95.4 102.5,-94.8 104.5,-92.9 102.1,-93.1 98.8,-93.3 101.8,-88 99.7,-89.2 				
					"/>
				<path class="st21" d="M62.8-119.8"/>
				<polygon class="st3" points="62.2,-114.9 63.3,-116.6 64.4,-117.4 64.1,-115.6 64,-114.9 				"/>
				<polygon class="st18" points="66,-110 65.4,-112.7 65.4,-115.3 67.7,-115 				"/>
				<polygon class="st17" points="63.5,-113.2 64,-114.9 64.1,-115.6 65.4,-115.3 65.4,-112.7 				"/>
				<polygon class="st15" points="66.4,-107.9 67.2,-108.3 69.4,-109.2 68.9,-106.5 67.8,-107.1 				"/>
				<polygon class="st2" points="65,-104.2 67.8,-107.1 68.9,-106.5 71.5,-105.3 68.1,-104.7 				"/>
				<polygon class="st20" points="67.8,-100.4 68.1,-104.7 71.5,-105.3 72.3,-104.9 71,-103.6 71,-103.6 				"/>
				<polygon class="st2" points="74.3,-106.4 76.1,-110 76.1,-110 79.6,-109.4 				"/>
				<polygon class="st15" points="72.8,-98.5 72.3,-104.1 72.3,-104.1 73.4,-104.5 74.3,-106.4 73.3,-101 73.3,-101 				"/>
				<polygon class="st20" points="73.3,-101 73.3,-101 74.3,-106.4 74.3,-106.4 79,-101 79.5,-100.4 80,-99.9 76.5,-95.9 				"/>
				<polygon class="st16" points="74.3,-106.4 74.3,-106.4 79.6,-109.4 79,-101 				"/>
				<polygon class="st15" points="79,-101 79.6,-109.4 81.1,-110.5 86.3,-109.6 82.5,-104.4 79.5,-100.4 				"/>
				<polygon class="st19" points="79.5,-100.4 82.5,-104.4 87,-104.3 85.9,-101.1 84,-95.5 80,-99.9 				"/>
				<polygon class="st19" points="95.1,-91.9 93.4,-99 98.3,-98.7 96.7,-95.4 96.5,-94.8 				"/>
				<polygon class="st16" points="92.1,-95.8 90.9,-99.2 93.4,-99 				"/>
				<polygon class="st2" points="98.8,-93.3 102.1,-93.1 101.2,-91.6 				"/>
				<polygon class="st15" points="98.8,-93.3 101.2,-91.6 103,-90.3 101.8,-88 				"/>
				<polygon class="st22" points="101.2,-91.6 102.1,-93.1 104.5,-92.9 103,-90.3 				"/>
				<polygon class="st23" points="101.8,-88 103,-90.3 104.5,-92.9 106.8,-87.4 106.8,-87.4 104.5,-86.4 104.5,-86.4 104.4,-86.4 
					104.4,-86.5 104.4,-86.5 				"/>
				<polygon class="st24" points="104.5,-86.4 106.8,-87.4 110.1,-88.8 110.1,-88.8 109.1,-85.9 107.7,-84.8 106.7,-85.3 				"/>
			</g>
			<g>
				<g>
					<polygon class="st24" points="17.7,-91.8 18.2,-93.2 19.3,-93.8 19.9,-93.6 18.5,-91.3 					"/>
					<polygon class="st25" points="18.5,-91.3 19.9,-93.6 20.4,-91.6 19.5,-90.2 					"/>
					<polygon class="st26" points="17,-87 16.8,-88.5 19.2,-88.9 18.8,-87 18,-86.7 17.1,-87.2 					"/>
					<polygon class="st27" points="16.8,-88.5 16.5,-90.7 17.7,-91.8 18.5,-91.3 19.5,-90.2 19.2,-88.9 					"/>
					<polygon class="st28" points="14.9,-89.3 16.5,-90.7 16.8,-88.5 17,-87 16.6,-86.2 					"/>
					<polygon class="st29" points="17.6,-86.6 18,-86.7 18.8,-87 19,-85.1 					"/>
					<polygon class="st28" points="16.6,-86.1 16.6,-86.1 17.6,-86.6 19,-85.1 18,-84.2 15.1,-84.2 					"/>
					<polygon class="st30" points="13.6,-84.7 13.6,-85.8 13.6,-85.9 13.7,-87.8 13.9,-87.8 14.9,-89.3 14.1,-86.3 14.9,-84.6 
						15.1,-84.2 15.5,-83.5 16.2,-82.5 15.7,-82.9 13.8,-84.6 					"/>
					<polygon class="st25" points="10.1,-85.9 11.1,-88.8 12.4,-87.9 12.3,-85.3 					"/>
					<polygon class="st1" points="5.5,-92.9 11.1,-88.8 7.8,-87.4 7.8,-87.4 					"/>
					<polygon class="st23" points="2.8,-88 4,-90.3 5.5,-92.9 7.8,-87.4 7.8,-87.4 5.5,-86.4 5.5,-86.4 5.4,-86.4 5.3,-86.5 
						5.3,-86.5 					"/>
					<path class="st21" d="M13.1-79.8"/>
					<polygon class="st31" points="16.6,-86.2 17,-87 17.1,-87.2 18,-86.7 17.6,-86.6 16.6,-86.1 					"/>
					<polygon class="st32" points="12.3,-85.3 12.4,-87.9 13.7,-87.8 13.6,-85.9 13.6,-84.7 13.6,-84 13,-84.6 					"/>
					<polygon class="st33" points="15.1,-84.2 18,-84.2 16.8,-82 16.2,-82.5 15.5,-83.5 					"/>
					<polygon class="st34" points="14.1,-86.3 14.9,-89.3 16.6,-86.2 16.6,-86.1 16.6,-86.1 15.1,-84.2 14.9,-84.6 					"/>
					<polygon class="st35" points="11.2,-79.3 11.4,-81 13.1,-82.9 15.7,-82.9 					"/>
					<polygon class="st36" points="13.1,-82.9 13.6,-84 13.6,-84.7 15.7,-82.9 					"/>
					<polygon class="st37" points="10.8,-83.8 12.3,-85.3 13,-84.6 13.6,-84 13.1,-82.9 					"/>
					<polygon class="st38" points="8.7,-84.8 10.1,-85.9 12.3,-85.3 10.8,-83.8 10.2,-84.1 8.7,-84.8 					"/>
					<polygon class="st24" points="5.5,-86.4 7.8,-87.4 11.1,-88.8 11.1,-88.8 10.1,-85.9 8.7,-84.8 7.7,-85.3 					"/>
				</g>
				<g>
					<polygon class="st3" points="41.2,-111.9 40.1,-111 39,-112.7 					"/>
					<polygon class="st4" points="42.3,-112.9 42.9,-110.3 40.1,-111 41.2,-111.9 					"/>
					<polygon class="st5" points="42.9,-110.3 42.9,-110.3 43,-109.6 41.8,-108.8 40.9,-109.8 40.1,-111 					"/>
					<polygon class="st6" points="43,-109.6 43.6,-106.7 41.8,-108.8 					"/>
					<polygon class="st7" points="43.6,-106.7 41.6,-107.7 40.9,-109.8 41.8,-108.8 					"/>
					<polygon class="st8" points="43.6,-106.7 43.6,-106.7 43.7,-106 43.9,-105.3 42.2,-105.8 41.6,-107.7 					"/>
					<polygon class="st39" points="43.9,-105.3 44.2,-104.3 42.9,-103.8 42.2,-105.8 					"/>
					<polygon class="st40" points="44.2,-104.3 44.9,-101.4 43.1,-103.1 42.9,-103.8 					"/>
					<polygon class="st41" points="44.9,-101.4 45.1,-99.6 43.6,-101.1 43.1,-103.1 					"/>
					<polygon class="st42" points="45.1,-99.6 43.1,-99.3 43.6,-101.1 					"/>
					<polygon class="st43" points="45.1,-99.6 45.2,-99.2 42.8,-98.1 43.1,-99.3 					"/>
					<polygon class="st44" points="50.3,-101.1 48,-99.9 48,-101.6 49.8,-101.8 					"/>
					<polygon class="st41" points="49.5,-103.6 49.8,-101.8 48,-101.6 48,-102.7 					"/>
					<polygon class="st40" points="49.5,-103.6 48,-102.7 47.3,-104.5 49,-104.5 					"/>
					<polygon class="st39" points="49,-104.5 47.3,-104.5 46.8,-105.6 47.7,-107 48.2,-106 					"/>
					<polygon class="st8" points="46.8,-105.6 46.3,-106.8 45.9,-107.4 45.9,-107.4 46.9,-108.7 47.7,-107 					"/>
					<polygon class="st6" points="46.9,-108.7 45.7,-109.1 46,-110.6 					"/>
					<polygon class="st7" points="46.9,-108.7 46.9,-108.7 45.9,-107.4 44.8,-109.5 45.7,-109.1 					"/>
					<polygon class="st5" points="46,-110.6 45.7,-109.1 44.8,-109.5 43.8,-111.3 45.4,-111.7 					"/>
					<polygon class="st9" points="44.2,-116 44.8,-113.9 44.8,-113.9 42.3,-112.9 43.4,-114.6 					"/>
					<polygon class="st4" points="44.8,-113.9 45.4,-111.7 43.8,-111.3 42.3,-112.9 44.8,-113.9 					"/>
					<polygon class="st10" points="44.2,-116 43.4,-114.6 41.5,-114.5 42,-116.2 42.4,-118.1 					"/>
					<polygon class="st10" points="41.5,-113.8 41.2,-111.9 39,-112.7 37.9,-114.2 40.2,-114 					"/>
					<polygon class="st11" points="42.4,-118.1 42,-116.2 40,-116.7 41.7,-118.9 					"/>
					<polygon class="st12" points="40.8,-122.5 41.7,-119.7 41.7,-118.9 40,-116.7 39.3,-119.3 39.3,-119.4 38.1,-120.9 
						38.8,-121.3 					"/>
					<polygon class="st13" points="39.3,-119.4 39.3,-119.3 37.9,-114.2 36.5,-116.4 33.9,-119 35.9,-119.9 38.1,-120.9 					"/>
					<polygon class="st14" points="36.3,-122.7 35.9,-119.9 33.9,-119 33.9,-119 31.8,-121.2 31.7,-124.5 32.8,-124 33.6,-123.7 
											"/>
					<polygon class="st41" points="33.1,-95.3 32.6,-94.7 31.5,-95.3 32.5,-96.7 32.8,-96 					"/>
					<polygon class="st42" points="30.9,-95.2 31.6,-93.5 30.7,-94.2 					"/>
					<polygon class="st45" points="32.6,-94.7 31.6,-93.5 30.9,-95.2 30.6,-95.8 31.5,-95.3 					"/>
					<polygon class="st44" points="34,-93.4 31.6,-93.5 32.6,-94.7 33.1,-95.3 					"/>
					<polygon class="st46" points="31.6,-93.5 31.4,-91.8 30.7,-91.9 30.3,-92.5 30.7,-94.2 					"/>
					<polygon class="st43" points="34,-93.4 33.8,-92.9 31.4,-91.8 31.6,-93.5 					"/>
					<polygon class="st39" points="30.9,-100.5 32.1,-97.6 32.1,-97.6 29.7,-98.2 29,-99.9 30.4,-99 					"/>
					<polygon class="st40" points="32.1,-97.6 32.5,-96.7 31.5,-95.3 30.6,-95.8 29.7,-98.2 32.1,-97.6 					"/>
					<polygon class="st8" points="30.9,-100.5 30.4,-99 29,-99.9 28.8,-100.3 					"/>
					<polygon class="st7" points="30.3,-101.9 30.9,-100.5 28.8,-100.3 28.2,-101.9 					"/>
					<polygon class="st6" points="30.3,-101.9 28.2,-101.9 27.4,-103.6 					"/>
					<polygon class="st4" points="29.3,-105.1 29.8,-103.1 27.4,-103.6 25.9,-105.3 					"/>
					<polygon class="st3" points="28.9,-106.7 29.3,-105.1 25.9,-105.3 25.3,-106.3 					"/>
					<polygon class="st10" points="28.9,-106.7 25.3,-106.3 23.9,-108.9 27.6,-108.9 					"/>
					<polygon class="st17" points="27.6,-108.9 23.9,-108.9 22.2,-110.9 25.5,-110.5 26.4,-111.5 					"/>
					<polygon class="st11" points="26.4,-111.5 25.5,-110.5 22.2,-110.9 24.6,-112.4 25.7,-113 					"/>
					<polygon class="st12" points="25.7,-113 24.6,-112.4 22.1,-112.8 24.8,-115 					"/>
					<polygon class="st18" points="24.6,-112.4 22.2,-110.9 20.4,-113.1 22.1,-112.8 					"/>
					<polygon class="st13" points="24.8,-115 22.1,-112.8 20.4,-113.1 24.2,-116.2 					"/>
					<polygon class="st15" points="24.2,-116.2 20.4,-113.1 19.1,-115.4 21.1,-115.7 21.1,-115.7 					"/>
					<polygon class="st16" points="24.2,-118.1 21.1,-115.7 21.1,-115.7 19.1,-115.4 17,-116.5 15,-119.1 19,-118.6 					"/>
					<polygon class="st14" points="29.2,-118.8 26.9,-117.4 24.2,-116.2 21.1,-115.7 24.2,-118.1 25.8,-119.2 					"/>
					<polygon class="st19" points="31.7,-124.5 31.8,-121.2 30.8,-119.7 29.2,-118.8 30.9,-122.5 30.9,-122.5 30.9,-122.5 					"/>
					<polygon class="st14" points="22.6,-124 19,-118.6 15,-119.1 13.8,-123.8 18.1,-123.9 					"/>
					<path class="st21" d="M43-109.6"/>
					<polygon class="st3" points="43.4,-114.6 42.3,-112.9 41.2,-111.9 41.5,-113.8 41.5,-114.5 					"/>
					<polygon class="st5" points="29.8,-103.1 30.3,-101.9 27.4,-103.6 					"/>
					<polygon class="st18" points="39.3,-119.3 40,-116.7 40.2,-114 37.9,-114.2 					"/>
					<polygon class="st17" points="42,-116.2 41.5,-114.5 41.5,-113.8 40.2,-114 40,-116.7 					"/>
					<polygon class="st15" points="38.8,-121.3 38.1,-120.9 35.9,-119.9 36.3,-122.7 37.4,-122.1 					"/>
					<polygon class="st2" points="30.9,-122.5 29.2,-118.8 29.2,-118.8 25.8,-119.2 					"/>
					<polygon class="st16" points="30.9,-122.5 30.9,-122.5 25.8,-119.2 25.9,-127.6 					"/>
					<polygon class="st15" points="25.9,-127.6 25.8,-119.2 24.2,-118.1 19,-118.6 22.6,-124 25.3,-128.2 					"/>
				</g>
			</g>
			<g>
				<polygon class="st44" points="105.4,-70.4 107.8,-71.4 107.7,-69.8 105.9,-69.7 				"/>
				<polygon class="st41" points="106.1,-67.8 105.9,-69.7 107.7,-69.8 107.6,-68.7 				"/>
				<polygon class="st40" points="106.1,-67.8 107.6,-68.7 108.3,-66.9 106.6,-66.9 				"/>
			</g>
			<g>
				<g>
					<polygon class="st24" points="67.2,-33.5 67.7,-34.8 68.8,-35.4 69.4,-35.2 68.1,-32.9 					"/>
					<polygon class="st25" points="68.1,-32.9 69.4,-35.2 69.9,-33.3 69,-31.8 					"/>
					<polygon class="st26" points="66.5,-28.6 66.3,-30.1 68.7,-30.6 68.3,-28.7 67.5,-28.4 66.6,-28.9 					"/>
					<polygon class="st27" points="66.3,-30.1 66,-32.3 67.2,-33.5 68.1,-32.9 69,-31.8 68.7,-30.6 					"/>
					<polygon class="st28" points="64.4,-30.9 66,-32.3 66.3,-30.1 66.5,-28.6 66.1,-27.8 					"/>
					<polygon class="st29" points="67.1,-28.2 67.5,-28.4 68.3,-28.7 68.5,-26.8 					"/>
					<polygon class="st28" points="66.1,-27.8 66.1,-27.8 67.1,-28.2 68.5,-26.8 67.5,-25.9 64.6,-25.8 					"/>
					<polygon class="st30" points="63.1,-26.4 63.1,-27.5 63.1,-27.6 63.2,-29.5 63.5,-29.4 64.4,-30.9 63.6,-28 64.4,-26.3 
						64.6,-25.8 65,-25.1 65.7,-24.2 65.2,-24.6 63.2,-26.2 					"/>
					<polygon class="st25" points="59.6,-27.6 60.6,-30.5 61.8,-29.6 61.8,-27 					"/>
					<polygon class="st1" points="55,-34.5 60.6,-30.5 57.3,-29 57.3,-29 					"/>
					<path class="st2" d="M43.7-34.7l-1.1-2.8l1.2-3.2h0.1l1.7,7.1L43.7-34.7L43.7-34.7z M23.7-36.6l-0.4-3.5l0.5-2.6l3.2,5.1l0.6,1
						L23.7-36.6L23.7-36.6z M21.5-45.2l1.3-1.3l1.1,0.5l-1.1,0.4C22.8-45.7,21.5-45.2,21.5-45.2z"/>
					<polygon class="st3" points="14.9,-59.1 16.1,-60 17.2,-58.3 					"/>
					<polygon class="st4" points="13.8,-58.2 13.4,-60.8 16.1,-60 14.9,-59.1 					"/>
					<polygon class="st5" points="13.4,-60.8 13.4,-60.8 13.3,-61.5 14.6,-62.2 15.4,-61.2 16.1,-60 					"/>
					<polygon class="st6" points="13.3,-61.5 12.9,-64.4 14.6,-62.2 					"/>
					<polygon class="st7" points="12.9,-64.4 14.8,-63.4 15.4,-61.2 14.6,-62.2 					"/>
					<polygon class="st8" points="12.9,-64.4 12.9,-64.4 12.8,-65.2 12.6,-65.8 14.3,-65.3 14.8,-63.4 					"/>
					<polygon class="st39" points="12.6,-65.8 12.4,-66.9 13.7,-67.4 14.3,-65.3 					"/>
					<polygon class="st40" points="12.4,-66.9 11.8,-69.8 13.6,-68 13.7,-67.4 					"/>
					<polygon class="st41" points="11.8,-69.8 11.7,-71.6 13.2,-70.1 13.6,-68 					"/>
					<polygon class="st42" points="11.7,-71.6 13.7,-71.8 13.2,-70.1 					"/>
					<polygon class="st43" points="11.7,-71.6 11.7,-72 14.1,-73 13.7,-71.8 					"/>
					<polygon class="st44" points="6.4,-70.4 8.8,-71.4 8.7,-69.8 6.9,-69.7 					"/>
					<polygon class="st41" points="7.1,-67.8 6.9,-69.7 8.7,-69.8 8.6,-68.7 					"/>
					<polygon class="st40" points="7.1,-67.8 8.6,-68.7 9.3,-66.9 7.6,-66.9 					"/>
					<polygon class="st39" points="7.6,-66.9 9.3,-66.9 9.8,-65.7 8.8,-64.4 8.3,-65.4 					"/>
					<polygon class="st8" points="9.8,-65.7 10.2,-64.5 10.5,-63.8 10.5,-63.8 9.5,-62.7 8.8,-64.4 					"/>
					<polygon class="st6" points="9.5,-62.7 10.6,-62.2 10.3,-60.7 					"/>
					<polygon class="st7" points="9.5,-62.7 9.5,-62.7 10.5,-63.8 11.5,-61.8 10.6,-62.2 					"/>
					<polygon class="st5" points="10.3,-60.7 10.6,-62.2 11.5,-61.8 12.4,-59.8 10.8,-59.5 					"/>
					<polygon class="st9" points="11.8,-55.2 11.3,-57.3 11.3,-57.3 13.8,-58.2 12.7,-56.6 					"/>
					<polygon class="st4" points="11.3,-57.3 10.8,-59.5 12.4,-59.8 13.8,-58.2 11.3,-57.3 					"/>
					<polygon class="st10" points="11.8,-55.2 12.7,-56.6 14.5,-56.6 14,-54.9 13.4,-53 					"/>
					<polygon class="st10" points="14.6,-57.2 14.9,-59.1 17.2,-58.3 18.2,-56.7 15.9,-57 					"/>
					<polygon class="st11" points="13.4,-53 14,-54.9 15.9,-54.3 14.1,-52.1 					"/>
					<polygon class="st12" points="14.8,-48.6 14.1,-51.3 14.1,-52.1 15.9,-54.3 16.5,-51.7 16.5,-51.6 17.7,-50 16.9,-49.6 					
						"/>
					<polygon class="st13" points="16.5,-51.6 16.5,-51.7 18.2,-56.7 19.5,-54.4 21.9,-51.7 19.9,-50.9 17.7,-50 					"/>
					<polygon class="st14" points="19.4,-48.1 19.9,-50.9 21.9,-51.7 21.9,-51.7 23.9,-49.4 23.9,-46.1 22.8,-46.6 22,-47 					"/>
					<polygon class="st14" points="15.5,-45.8 14.8,-48.6 16.9,-49.6 18.2,-48.8 					"/>
					<polygon class="st15" points="16.5,-41.8 15.5,-45.8 18.6,-46.3 18.3,-42.1 18.3,-40.6 					"/>
					<polygon class="st14" points="18.3,-40.6 18.3,-42.1 21.5,-45.2 22,-37.8 					"/>
					<polygon class="st16" points="22,-37.8 22,-37.8 21.5,-45.2 21.5,-45.2 22.8,-45.7 22.8,-45.7 23.3,-40.1 23.7,-36.6 					"/>
					<polygon class="st41" points="23.9,-75.3 24.5,-75.9 25.5,-75.2 24.4,-73.9 24.2,-74.6 					"/>
					<polygon class="st42" points="26.1,-75.3 25.5,-77 26.4,-76.2 					"/>
					<polygon class="st45" points="24.5,-75.9 25.5,-77 26.1,-75.3 26.3,-74.7 25.5,-75.2 					"/>
					<polygon class="st44" points="23.1,-77.2 25.5,-77 24.5,-75.9 23.9,-75.3 					"/>
					<polygon class="st46" points="25.5,-77 25.8,-78.7 26.5,-78.6 26.8,-78 26.4,-76.2 					"/>
					<polygon class="st43" points="23.1,-77.2 23.3,-77.7 25.8,-78.7 25.5,-77 					"/>
					<polygon class="st39" points="25.9,-70 24.8,-72.9 24.8,-72.9 27.2,-72.3 27.8,-70.5 26.5,-71.4 					"/>
					<polygon class="st40" points="24.8,-72.9 24.4,-73.9 25.5,-75.2 26.3,-74.7 27.2,-72.3 24.8,-72.9 					"/>
					<polygon class="st8" points="25.9,-70 26.5,-71.4 27.8,-70.5 28,-70.1 					"/>
					<polygon class="st7" points="26.4,-68.6 25.9,-70 28,-70.1 28.5,-68.5 					"/>
					<polygon class="st6" points="26.4,-68.6 28.5,-68.5 29.1,-66.7 					"/>
					<polygon class="st4" points="27.2,-65.3 26.9,-67.4 29.1,-66.7 30.6,-65 					"/>
					<polygon class="st3" points="27.5,-63.7 27.2,-65.3 30.6,-65 31.1,-63.9 					"/>
					<polygon class="st10" points="27.5,-63.7 31.1,-63.9 32.5,-61.2 28.7,-61.5 					"/>
					<polygon class="st17" points="28.7,-61.5 32.5,-61.2 34,-59.1 30.8,-59.8 29.8,-58.8 					"/>
					<polygon class="st11" points="29.8,-58.8 30.8,-59.8 34,-59.1 31.5,-57.8 30.4,-57.2 					"/>
					<polygon class="st12" points="30.4,-57.2 31.5,-57.8 34,-57.3 31.2,-55.2 					"/>
					<polygon class="st18" points="31.5,-57.8 34,-59.1 35.7,-56.9 34,-57.3 					"/>
					<polygon class="st13" points="31.2,-55.2 34,-57.3 35.7,-56.9 31.8,-54 					"/>
					<polygon class="st15" points="31.8,-54 35.7,-56.9 36.9,-54.5 34.9,-54.3 34.9,-54.3 					"/>
					<polygon class="st16" points="31.6,-52.2 34.9,-54.3 34.9,-54.3 36.9,-54.5 38.9,-53.3 40.8,-50.6 36.8,-51.3 					"/>
					<polygon class="st14" points="26.6,-51.7 29,-52.9 31.8,-54 34.9,-54.3 31.6,-52.2 30,-51.1 					"/>
					<polygon class="st19" points="23.9,-46.1 23.9,-49.4 25,-50.9 26.6,-51.7 24.8,-48 24.8,-48 24.8,-48 					"/>
					<polygon class="st14" points="27,-37.6 30.5,-41.6 34.5,-37.2 34.9,-36.8 27.6,-36.6 					"/>
					<polygon class="st15" points="34.5,-37.2 36.4,-42.8 37.8,-39.5 37.8,-39.5 39.6,-35.3 34.9,-36.8 					"/>
					<polygon class="st14" points="33,-46.1 36.8,-51.3 40.8,-50.6 41.8,-45.9 37.5,-46 					"/>
					<polygon class="st2" points="36.4,-42.8 37.5,-46 41.8,-45.9 43.1,-44.6 					"/>
					<polygon class="st15" points="47.2,-37.1 48.8,-40.4 53,-36.4 					"/>
					<polygon class="st14" points="37.8,-39.5 37.8,-39.5 41.3,-40.8 43.7,-34.7 39.6,-35.3 					"/>
					<polygon class="st20" points="36.4,-42.8 43.1,-44.6 41.3,-40.8 37.8,-39.5 					"/>
					<polygon class="st2" points="41.3,-40.8 43.1,-44.6 48.8,-40.4 43.9,-40.7 43.8,-40.7 					"/>
					<polygon class="st2" points="45.6,-33.6 47,-36.5 50.2,-30.9 					"/>
					<polygon class="st16" points="47,-36.5 47.2,-37.1 53,-36.4 55,-34.5 52.6,-34.7 49.3,-35 52.3,-29.6 50.2,-30.9 					"/>
					<path class="st21" d="M13.3-61.5"/>
					<polygon class="st3" points="12.7,-56.6 13.8,-58.2 14.9,-59.1 14.6,-57.2 14.5,-56.6 					"/>
					<polygon class="st5" points="26.9,-67.4 26.4,-68.6 29.1,-66.7 					"/>
					<polygon class="st18" points="16.5,-51.7 15.9,-54.3 15.9,-57 18.2,-56.7 					"/>
					<polygon class="st17" points="14,-54.9 14.5,-56.6 14.6,-57.2 15.9,-57 15.9,-54.3 					"/>
					<polygon class="st15" points="16.9,-49.6 17.7,-50 19.9,-50.9 19.4,-48.1 18.2,-48.8 					"/>
					<polygon class="st2" points="15.5,-45.8 18.2,-48.8 19.4,-48.1 22,-47 18.6,-46.3 					"/>
					<polygon class="st20" points="18.3,-42.1 18.6,-46.3 22,-47 22.8,-46.6 21.5,-45.2 21.5,-45.2 					"/>
					<polygon class="st2" points="24.8,-48 26.6,-51.7 26.6,-51.7 30,-51.1 					"/>
					<polygon class="st15" points="23.3,-40.1 22.8,-45.7 22.8,-45.7 23.9,-46.1 24.8,-48 23.8,-42.7 23.8,-42.7 					"/>
					<polygon class="st20" points="23.8,-42.7 23.8,-42.7 24.8,-48 24.8,-48 29.5,-42.7 30,-42.1 30.5,-41.6 27,-37.6 					"/>
					<polygon class="st16" points="24.8,-48 24.8,-48 30,-51.1 29.5,-42.7 					"/>
					<polygon class="st15" points="29.5,-42.7 30,-51.1 31.6,-52.2 36.8,-51.3 33,-46.1 30,-42.1 					"/>
					<polygon class="st19" points="30,-42.1 33,-46.1 37.5,-46 36.4,-42.8 34.5,-37.2 30.5,-41.6 					"/>
					<polygon class="st19" points="45.6,-33.6 43.9,-40.7 48.8,-40.4 47.2,-37.1 47,-36.5 					"/>
					<polygon class="st16" points="42.6,-37.5 41.3,-40.8 43.8,-40.7 					"/>
					<polygon class="st2" points="49.3,-35 52.6,-34.7 51.7,-33.3 					"/>
					<polygon class="st15" points="49.3,-35 51.7,-33.3 53.5,-31.9 52.3,-29.6 					"/>
					<polygon class="st22" points="51.7,-33.3 52.6,-34.7 55,-34.5 53.5,-31.9 					"/>
					<polygon class="st23" points="52.3,-29.6 53.5,-31.9 55,-34.5 57.3,-29 57.3,-29 55,-28.1 55,-28 54.9,-28.1 54.8,-28.1 
						54.8,-28.1 					"/>
					<path class="st21" d="M62.6-21.4"/>
					<polygon class="st31" points="66.1,-27.8 66.5,-28.6 66.6,-28.9 67.5,-28.4 67.1,-28.2 66.1,-27.8 					"/>
					<polygon class="st32" points="61.8,-27 61.8,-29.6 63.2,-29.5 63.1,-27.6 63.1,-26.4 63.1,-25.7 62.5,-26.3 					"/>
					<polygon class="st33" points="64.6,-25.8 67.5,-25.9 66.3,-23.7 65.7,-24.2 65,-25.1 					"/>
					<polygon class="st34" points="63.6,-28 64.4,-30.9 66.1,-27.8 66.1,-27.8 66.1,-27.8 64.6,-25.8 64.4,-26.3 					"/>
					<polygon class="st35" points="60.7,-20.9 60.9,-22.7 62.6,-24.5 65.2,-24.6 					"/>
					<polygon class="st36" points="62.6,-24.5 63.1,-25.7 63.1,-26.4 65.2,-24.6 					"/>
					<polygon class="st37" points="60.3,-25.5 61.8,-27 62.5,-26.3 63.1,-25.7 62.6,-24.5 					"/>
					<polygon class="st38" points="58.2,-26.5 59.6,-27.6 61.8,-27 60.3,-25.5 59.7,-25.7 58.2,-26.5 					"/>
					<polygon class="st24" points="55,-28.1 57.3,-29 60.6,-30.5 60.6,-30.5 59.6,-27.6 58.2,-26.5 57.2,-26.9 					"/>
				</g>
				<g>
					<polygon class="st24" points="37.3,-76.6 36.9,-75.2 35.8,-74.6 35.2,-74.7 36.4,-77.1 					"/>
					<polygon class="st25" points="36.4,-77.1 35.2,-74.7 34.6,-76.6 35.4,-78.1 					"/>
					<polygon class="st26" points="37.7,-81.4 38,-79.9 35.6,-79.4 35.9,-81.3 36.8,-81.6 37.6,-81.2 					"/>
					<polygon class="st27" points="38,-79.9 38.5,-77.8 37.3,-76.6 36.4,-77.1 35.4,-78.1 35.6,-79.4 					"/>
					<polygon class="st28" points="39.9,-79.2 38.5,-77.8 38,-79.9 37.7,-81.4 38.1,-82.3 					"/>
					<polygon class="st29" points="37.1,-81.8 36.8,-81.6 35.9,-81.3 35.6,-83.2 					"/>
					<polygon class="st28" points="38,-82.3 38,-82.3 37.1,-81.8 35.6,-83.2 36.6,-84.1 39.5,-84.3 					"/>
					<polygon class="st30" points="41,-83.9 41,-82.7 41,-82.7 41.1,-80.8 40.8,-80.8 39.9,-79.2 40.6,-82.3 39.7,-83.9 39.5,-84.3 
						39.1,-85 38.3,-85.9 38.8,-85.6 40.9,-84 					"/>
					<polygon class="st25" points="44.6,-82.8 43.7,-79.9 42.4,-80.7 42.4,-83.3 					"/>
					<polygon class="st1" points="49.5,-76.1 43.7,-79.9 47,-81.5 47,-81.5 					"/>
					<path class="st2" d="M60.8-76.6l1.2,2.8L61-70.6h-0.1l-2-7L60.8-76.6L60.8-76.6z M80.9-75.7l0.5,3.5l-0.3,2.6l-3.4-4.9L77-75.4
						L80.9-75.7L80.9-75.7z M83.5-67.1l-1.2,1.4l-1.1-0.4l1-0.4C82.2-66.6,83.5-67.1,83.5-67.1z"/>
					<polygon class="st3" points="90.7,-53.6 89.6,-52.7 88.5,-54.3 					"/>
					<polygon class="st4" points="91.9,-54.5 92.4,-52 89.6,-52.7 90.7,-53.6 					"/>
					<polygon class="st5" points="92.4,-52 92.4,-52 92.5,-51.3 91.2,-50.5 90.4,-51.4 89.6,-52.7 					"/>
					<polygon class="st6" points="92.5,-51.3 93.1,-48.4 91.2,-50.5 					"/>
					<polygon class="st7" points="93.1,-48.4 91.1,-49.3 90.4,-51.4 91.2,-50.5 					"/>
					<polygon class="st8" points="93.1,-48.4 93.1,-48.4 93.2,-47.7 93.4,-47 91.7,-47.5 91.1,-49.3 					"/>
					<polygon class="st39" points="93.4,-47 93.7,-46 92.4,-45.4 91.7,-47.5 					"/>
					<polygon class="st40" points="93.7,-46 94.4,-43.1 92.6,-44.8 92.4,-45.4 					"/>
					<polygon class="st41" points="94.4,-43.1 94.6,-41.2 93.1,-42.7 92.6,-44.8 					"/>
					<polygon class="st42" points="94.6,-41.2 92.6,-41 93.1,-42.7 					"/>
					<polygon class="st43" points="94.6,-41.2 94.7,-40.9 92.3,-39.8 92.6,-41 					"/>
					<polygon class="st44" points="99.8,-42.7 97.5,-41.6 97.5,-43.2 99.3,-43.4 					"/>
					<polygon class="st41" points="99,-45.3 99.3,-43.4 97.5,-43.2 97.5,-44.4 					"/>
					<polygon class="st40" points="99,-45.3 97.5,-44.4 96.8,-46.1 98.5,-46.2 					"/>
					<polygon class="st39" points="98.5,-46.2 96.8,-46.1 96.3,-47.3 97.2,-48.7 97.7,-47.6 					"/>
					<polygon class="st8" points="96.3,-47.3 95.8,-48.5 95.4,-49.1 95.4,-49.1 96.4,-50.3 97.2,-48.7 					"/>
					<polygon class="st6" points="96.4,-50.3 95.2,-50.8 95.4,-52.2 					"/>
					<polygon class="st7" points="96.4,-50.3 96.4,-50.3 95.4,-49.1 94.3,-51.1 95.2,-50.8 					"/>
					<polygon class="st5" points="95.4,-52.2 95.2,-50.8 94.3,-51.1 93.3,-53 94.9,-53.4 					"/>
					<polygon class="st9" points="93.7,-57.6 94.3,-55.5 94.3,-55.5 91.9,-54.5 92.9,-56.2 					"/>
					<polygon class="st4" points="94.3,-55.5 94.9,-53.4 93.3,-53 91.9,-54.5 94.3,-55.5 					"/>
					<polygon class="st10" points="93.7,-57.6 92.9,-56.2 91.1,-56.2 91.5,-57.9 91.9,-59.8 					"/>
					<polygon class="st10" points="91,-55.5 90.7,-53.6 88.5,-54.3 87.4,-55.9 89.7,-55.7 					"/>
					<polygon class="st11" points="91.9,-59.8 91.5,-57.9 89.5,-58.3 91.2,-60.6 					"/>
					<polygon class="st12" points="90.3,-64.1 91.2,-61.4 91.2,-60.6 89.5,-58.3 88.9,-61 88.8,-61 87.6,-62.6 88.3,-63 					"/>
					<polygon class="st13" points="88.8,-61 88.9,-61 87.4,-55.9 86,-58 83.4,-60.7 85.4,-61.6 87.6,-62.6 					"/>
					<polygon class="st14" points="85.8,-64.3 85.4,-61.6 83.4,-60.7 83.4,-60.7 81.3,-62.9 81.2,-66.1 82.3,-65.7 83.1,-65.4 					
						"/>
					<polygon class="st14" points="89.5,-66.8 90.3,-64.1 88.3,-63 86.9,-63.7 					"/>
					<polygon class="st15" points="88.3,-70.8 89.5,-66.8 86.5,-66.2 86.5,-70.4 86.5,-71.9 					"/>
					<polygon class="st14" points="86.5,-71.9 86.5,-70.4 83.5,-67.1 82.6,-74.5 					"/>
					<polygon class="st16" points="82.6,-74.5 82.6,-74.5 83.5,-67.1 83.5,-67.1 82.2,-66.6 82.2,-66.6 81.4,-72.1 80.9,-75.7 					
						"/>
					<polygon class="st41" points="82.6,-37 82.1,-36.3 81,-37 82,-38.3 82.3,-37.7 					"/>
					<polygon class="st42" points="80.4,-36.8 81.1,-35.2 80.2,-35.9 					"/>
					<polygon class="st45" points="82.1,-36.3 81.1,-35.2 80.4,-36.8 80.1,-37.5 81,-37 					"/>
					<polygon class="st44" points="83.5,-35.1 81.1,-35.2 82.1,-36.3 82.6,-37 					"/>
					<polygon class="st46" points="81.1,-35.2 80.9,-33.5 80.2,-33.6 79.8,-34.2 80.2,-35.9 					"/>
					<polygon class="st43" points="83.5,-35.1 83.3,-34.6 80.9,-33.5 81.1,-35.2 					"/>
					<polygon class="st39" points="80.4,-42.2 81.6,-39.3 81.6,-39.3 79.2,-39.8 78.5,-41.5 79.9,-40.7 					"/>
					<polygon class="st40" points="81.6,-39.3 82,-38.3 81,-37 80.1,-37.5 79.2,-39.8 81.6,-39.3 					"/>
					<polygon class="st8" points="80.4,-42.2 79.9,-40.7 78.5,-41.5 78.3,-42 					"/>
					<polygon class="st7" points="79.8,-43.6 80.4,-42.2 78.3,-42 77.7,-43.5 					"/>
					<polygon class="st6" points="79.8,-43.6 77.7,-43.5 76.9,-45.3 					"/>
					<polygon class="st4" points="78.8,-46.8 79.2,-44.7 76.9,-45.3 75.4,-47 					"/>
					<polygon class="st3" points="78.4,-48.3 78.8,-46.8 75.4,-47 74.8,-48 					"/>
					<polygon class="st10" points="78.4,-48.3 74.8,-48 73.4,-50.6 77.1,-50.5 					"/>
					<polygon class="st17" points="77.1,-50.5 73.4,-50.6 71.7,-52.6 74.9,-52.1 75.9,-53.2 					"/>
					<polygon class="st11" points="75.9,-53.2 74.9,-52.1 71.7,-52.6 74.1,-54.1 75.2,-54.7 					"/>
					<polygon class="st12" points="75.2,-54.7 74.1,-54.1 71.6,-54.5 74.3,-56.7 					"/>
					<polygon class="st18" points="74.1,-54.1 71.7,-52.6 69.9,-54.7 71.6,-54.5 					"/>
					<polygon class="st13" points="74.3,-56.7 71.6,-54.5 69.9,-54.7 73.7,-57.9 					"/>
					<polygon class="st15" points="73.7,-57.9 69.9,-54.7 68.6,-57.1 70.6,-57.4 70.6,-57.4 					"/>
					<polygon class="st16" points="73.7,-59.7 70.6,-57.4 70.6,-57.4 68.6,-57.1 66.5,-58.2 64.5,-60.8 68.5,-60.3 					"/>
					<polygon class="st14" points="78.7,-60.4 76.4,-59.1 73.7,-57.9 70.6,-57.4 73.7,-59.7 75.3,-60.8 					"/>
					<polygon class="st19" points="81.2,-66.1 81.3,-62.9 80.3,-61.3 78.7,-60.4 80.4,-64.2 80.4,-64.2 80.4,-64.2 					"/>
					<polygon class="st14" points="77.6,-74.5 74.4,-70.3 70.1,-74.5 69.7,-74.9 77,-75.4 					"/>
					<polygon class="st15" points="70.1,-74.5 68.5,-68.8 66.9,-72.1 66.9,-72.1 64.9,-76.1 69.7,-74.9 					"/>
					<polygon class="st14" points="72.1,-65.7 68.5,-60.3 64.5,-60.8 63.3,-65.4 67.6,-65.5 					"/>
					<polygon class="st2" points="68.5,-68.8 67.6,-65.5 63.3,-65.4 61.9,-66.7 					"/>
					<polygon class="st15" points="57.4,-74 56,-70.6 51.6,-74.3 					"/>
					<polygon class="st14" points="66.9,-72.1 66.9,-72.1 63.5,-70.5 60.8,-76.6 64.9,-76.1 					"/>
					<polygon class="st20" points="68.5,-68.8 61.9,-66.7 63.5,-70.5 66.9,-72.1 					"/>
					<polygon class="st2" points="63.5,-70.5 61.9,-66.7 56,-70.6 60.9,-70.6 61,-70.6 					"/>
					<polygon class="st2" points="58.9,-77.6 57.6,-74.6 54.1,-80.1 					"/>
					<polygon class="st16" points="57.6,-74.6 57.4,-74 51.6,-74.3 49.5,-76.1 51.9,-76 55.2,-75.9 52,-81.2 54.1,-80.1 					"/>
					<path class="st21" d="M92.5-51.3"/>
					<polygon class="st3" points="92.9,-56.2 91.9,-54.5 90.7,-53.6 91,-55.5 91.1,-56.2 					"/>
					<polygon class="st5" points="79.2,-44.7 79.8,-43.6 76.9,-45.3 					"/>
					<polygon class="st18" points="88.9,-61 89.5,-58.3 89.7,-55.7 87.4,-55.9 					"/>
					<polygon class="st17" points="91.5,-57.9 91.1,-56.2 91,-55.5 89.7,-55.7 89.5,-58.3 					"/>
					<polygon class="st15" points="88.3,-63 87.6,-62.6 85.4,-61.6 85.8,-64.3 86.9,-63.7 					"/>
					<polygon class="st2" points="89.5,-66.8 86.9,-63.7 85.8,-64.3 83.1,-65.4 86.5,-66.2 					"/>
					<polygon class="st20" points="86.5,-70.4 86.5,-66.2 83.1,-65.4 82.3,-65.7 83.5,-67.1 83.5,-67.1 					"/>
					<polygon class="st2" points="80.4,-64.2 78.7,-60.4 78.7,-60.4 75.3,-60.8 					"/>
					<polygon class="st15" points="81.4,-72.1 82.2,-66.6 82.2,-66.6 81.2,-66.1 80.4,-64.2 81.1,-69.5 81.1,-69.5 					"/>
					<polygon class="st20" points="81.1,-69.5 81.1,-69.5 80.4,-64.2 80.4,-64.2 75.4,-69.2 74.8,-69.8 74.4,-70.3 77.6,-74.5 					
						"/>
					<polygon class="st16" points="80.4,-64.2 80.4,-64.2 75.3,-60.8 75.4,-69.2 					"/>
					<polygon class="st15" points="75.4,-69.2 75.3,-60.8 73.7,-59.7 68.5,-60.3 72.1,-65.7 74.8,-69.8 					"/>
					<polygon class="st19" points="74.8,-69.8 72.1,-65.7 67.6,-65.5 68.5,-68.8 70.1,-74.5 74.4,-70.3 					"/>
					<polygon class="st19" points="58.9,-77.6 60.9,-70.6 56,-70.6 57.4,-74 57.6,-74.6 					"/>
					<polygon class="st16" points="62,-73.8 63.5,-70.5 61,-70.6 					"/>
					<polygon class="st2" points="55.2,-75.9 51.9,-76 52.8,-77.5 					"/>
					<polygon class="st15" points="55.2,-75.9 52.8,-77.5 50.8,-78.8 52,-81.2 					"/>
					<polygon class="st22" points="52.8,-77.5 51.9,-76 49.5,-76.1 50.8,-78.8 					"/>
					<polygon class="st23" points="52,-81.2 50.8,-78.8 49.5,-76.1 47,-81.5 47,-81.5 49.2,-82.6 49.2,-82.6 49.3,-82.6 49.3,-82.5 
						49.3,-82.5 					"/>
					<path class="st21" d="M41.2-88.8"/>
					<polygon class="st31" points="38.1,-82.3 37.7,-81.4 37.6,-81.2 36.8,-81.6 37.1,-81.8 38,-82.3 					"/>
					<polygon class="st32" points="42.4,-83.3 42.4,-80.7 41.1,-80.8 41,-82.7 41,-83.9 41,-84.6 41.6,-84 					"/>
					<polygon class="st33" points="39.5,-84.3 36.6,-84.1 37.7,-86.4 38.3,-85.9 39.1,-85 					"/>
					<polygon class="st34" points="40.6,-82.3 39.9,-79.2 38.1,-82.3 38,-82.3 38,-82.3 39.5,-84.3 39.7,-83.9 					"/>
					<polygon class="st35" points="43.1,-89.4 43,-87.7 41.4,-85.8 38.8,-85.6 					"/>
					<polygon class="st36" points="41.4,-85.8 41,-84.6 41,-83.9 38.8,-85.6 					"/>
					<polygon class="st37" points="43.8,-84.9 42.4,-83.3 41.6,-84 41,-84.6 41.4,-85.8 					"/>
					<polygon class="st38" points="46,-84 44.6,-82.8 42.4,-83.3 43.8,-84.9 44.4,-84.7 45.9,-84 					"/>
					<polygon class="st24" points="49.2,-82.6 47,-81.5 43.7,-79.9 43.7,-79.9 44.6,-82.8 46,-84 46.9,-83.6 					"/>
				</g>
			</g>
			<g>
				<g>
					<polygon class="st6" points="62.8,-3.2 62.4,-6.1 64.1,-3.9 					"/>
					<polygon class="st7" points="62.4,-6.1 64.3,-5.1 64.9,-2.9 64.1,-3.9 					"/>
					<polygon class="st8" points="62.4,-6.1 62.4,-6.1 62.3,-6.8 62.1,-7.5 63.8,-6.9 64.3,-5.1 					"/>
					<polygon class="st39" points="62.1,-7.5 61.9,-8.5 63.2,-9 63.8,-6.9 					"/>
					<polygon class="st40" points="61.9,-8.5 61.3,-11.4 63.1,-9.6 63.2,-9 					"/>
					<polygon class="st41" points="61.3,-11.4 61.2,-13.3 62.7,-11.7 63.1,-9.6 					"/>
					<polygon class="st42" points="61.2,-13.3 63.2,-13.5 62.7,-11.7 					"/>
					<polygon class="st43" points="61.2,-13.3 61.2,-13.7 63.6,-14.6 63.2,-13.5 					"/>
					<polygon class="st44" points="55.9,-12.1 58.3,-13.1 58.2,-11.4 56.4,-11.4 					"/>
					<polygon class="st41" points="56.6,-9.5 56.4,-11.4 58.2,-11.4 58.1,-10.3 					"/>
					<polygon class="st40" points="56.6,-9.5 58.1,-10.3 58.8,-8.5 57.1,-8.6 					"/>
					<polygon class="st39" points="57.1,-8.6 58.8,-8.5 59.2,-7.3 58.3,-6 57.8,-7.1 					"/>
					<polygon class="st8" points="59.2,-7.3 59.7,-6.2 60,-5.5 60,-5.5 59,-4.3 58.3,-6 					"/>
					<polygon class="st7" points="59,-4.3 59,-4.3 60,-5.5 61,-3.4 60.1,-3.8 					"/>
					<polygon class="st41" points="73.4,-17 74,-17.6 75,-16.9 73.9,-15.6 73.7,-16.2 					"/>
					<polygon class="st42" points="75.6,-17 75,-18.6 75.9,-17.9 					"/>
					<polygon class="st45" points="74,-17.6 75,-18.6 75.6,-17 75.8,-16.3 75,-16.9 					"/>
					<polygon class="st44" points="72.6,-18.9 75,-18.6 74,-17.6 73.4,-17 					"/>
					<polygon class="st46" points="75,-18.6 75.3,-20.4 76,-20.2 76.3,-19.6 75.9,-17.9 					"/>
					<polygon class="st43" points="72.6,-18.9 72.8,-19.4 75.3,-20.4 75,-18.6 					"/>
					<polygon class="st39" points="75.4,-11.6 74.3,-14.6 74.3,-14.6 76.7,-13.9 77.3,-12.2 76,-13.1 					"/>
					<polygon class="st40" points="74.3,-14.6 73.9,-15.6 75,-16.9 75.8,-16.3 76.7,-13.9 74.3,-14.6 					"/>
					<polygon class="st8" points="75.4,-11.6 76,-13.1 77.3,-12.2 77.5,-11.7 					"/>
					<polygon class="st7" points="75.9,-10.2 75.4,-11.6 77.5,-11.7 78,-10.2 					"/>
					<polygon class="st6" points="75.9,-10.2 78,-10.2 78.6,-8.4 					"/>
					<polygon class="st4" points="76.7,-7 76.4,-9 78.6,-8.4 80.1,-6.6 					"/>
					<polygon class="st3" points="77,-5.4 76.7,-7 80.1,-6.6 80.6,-5.6 					"/>
					<polygon class="st10" points="77,-5.4 80.6,-5.6 81.9,-2.9 78.2,-3.1 					"/>
					<polygon class="st5" points="76.4,-9 75.9,-10.2 78.6,-8.4 					"/>
				</g>
				<g>
					<polygon class="st24" points="86.8,-18.2 86.4,-16.8 85.3,-16.2 84.6,-16.4 85.9,-18.7 					"/>
					<polygon class="st25" points="85.9,-18.7 84.6,-16.4 84.1,-18.3 84.9,-19.8 					"/>
					<polygon class="st26" points="87.2,-23.1 87.5,-21.6 85.1,-21 85.4,-23 86.3,-23.3 87.1,-22.8 					"/>
					<polygon class="st27" points="87.5,-21.6 87.9,-19.4 86.8,-18.2 85.9,-18.7 84.9,-19.8 85.1,-21 					"/>
					<polygon class="st28" points="89.4,-20.9 87.9,-19.4 87.5,-21.6 87.2,-23.1 87.6,-23.9 					"/>
					<polygon class="st29" points="86.6,-23.5 86.3,-23.3 85.4,-23 85.1,-24.9 					"/>
					<polygon class="st28" points="87.6,-24 87.6,-24 86.6,-23.5 85.1,-24.9 86.1,-25.8 88.9,-26 					"/>
					<polygon class="st30" points="90.5,-25.5 90.6,-24.4 90.6,-24.3 90.6,-22.5 90.3,-22.5 89.4,-20.9 90.1,-23.9 89.2,-25.5 
						88.9,-26 88.6,-26.7 87.8,-27.6 88.3,-27.2 90.4,-25.7 					"/>
					<polygon class="st25" points="94.1,-24.5 93.2,-21.5 91.9,-22.4 91.9,-25 					"/>
					<polygon class="st1" points="99,-17.8 93.2,-21.5 96.4,-23.1 96.5,-23.1 					"/>
					<polygon class="st15" points="106.9,-15.6 105.5,-12.3 101.1,-16 					"/>
					<polygon class="st2" points="113,-12.2 111.4,-8.3 105.5,-12.3 110.4,-12.2 110.5,-12.2 					"/>
					<polygon class="st2" points="108.4,-19.2 107.1,-16.2 103.6,-21.7 					"/>
					<polygon class="st16" points="107.1,-16.2 106.9,-15.6 101.1,-16 99,-17.8 101.4,-17.7 104.7,-17.6 101.5,-22.8 103.6,-21.7 
											"/>
					<polygon class="st19" points="108.4,-19.2 110.4,-12.2 105.5,-12.3 106.9,-15.6 107.1,-16.2 					"/>
					<polygon class="st2" points="104.7,-17.6 101.4,-17.7 102.3,-19.2 					"/>
					<polygon class="st15" points="104.7,-17.6 102.3,-19.2 100.3,-20.5 101.5,-22.8 					"/>
					<polygon class="st22" points="102.3,-19.2 101.4,-17.7 99,-17.8 100.3,-20.5 					"/>
					<polygon class="st23" points="101.5,-22.8 100.3,-20.5 99,-17.8 96.5,-23.1 96.4,-23.1 98.7,-24.3 98.7,-24.3 98.8,-24.2 
						98.8,-24.2 98.8,-24.2 					"/>
					<path class="st21" d="M90.8-30.5"/>
					<polygon class="st31" points="87.6,-23.9 87.2,-23.1 87.1,-22.8 86.3,-23.3 86.6,-23.5 87.6,-24 					"/>
					<polygon class="st32" points="91.9,-25 91.9,-22.4 90.6,-22.5 90.6,-24.3 90.5,-25.5 90.5,-26.2 91.1,-25.7 					"/>
					<polygon class="st33" points="88.9,-26 86.1,-25.8 87.2,-28.1 87.8,-27.6 88.6,-26.7 					"/>
					<polygon class="st34" points="90.1,-23.9 89.4,-20.9 87.6,-23.9 87.6,-24 87.6,-24 88.9,-26 89.2,-25.5 					"/>
					<polygon class="st35" points="92.6,-31.1 92.5,-29.3 90.9,-27.4 88.3,-27.2 					"/>
					<polygon class="st36" points="90.9,-27.4 90.5,-26.2 90.5,-25.5 88.3,-27.2 					"/>
					<polygon class="st37" points="93.3,-26.6 91.9,-25 91.1,-25.7 90.5,-26.2 90.9,-27.4 					"/>
					<polygon class="st38" points="95.4,-25.7 94.1,-24.5 91.9,-25 93.3,-26.6 93.9,-26.4 95.4,-25.7 					"/>
					<polygon class="st24" points="98.7,-24.3 96.4,-23.1 93.2,-21.5 93.2,-21.5 94.1,-24.5 95.4,-25.7 96.4,-25.3 					"/>
				</g>
			</g>
			<g>
				<path class="st2" d="M11.3-18.2l1.2,2.8l-1.1,3.2h-0.1l-2-7L11.3-18.2L11.3-18.2z M31.4-17.3l0.5,3.5l-0.3,2.6l-3.4-4.9
					l-0.6-0.9L31.4-17.3L31.4-17.3z M34-8.8l-1.2,1.4l-1.1-0.4l1-0.4C32.7-8.2,34-8.8,34-8.8z"/>
				<polygon class="st12" points="40.8,-5.8 41.7,-3 41.7,-2.3 40,0 39.3,-2.6 39.3,-2.7 38.1,-4.2 38.8,-4.7 				"/>
				<polygon class="st14" points="36.3,-6 35.9,-3.2 33.9,-2.3 33.9,-2.3 31.8,-4.5 31.7,-7.8 32.8,-7.4 33.6,-7 				"/>
				<polygon class="st14" points="40,-8.5 40.8,-5.8 38.8,-4.7 37.4,-5.4 				"/>
				<polygon class="st15" points="38.8,-12.4 40,-8.5 37,-7.8 37,-12.1 37,-13.6 				"/>
				<polygon class="st14" points="37,-13.6 37,-12.1 34,-8.8 33.1,-16.2 				"/>
				<polygon class="st16" points="33.1,-16.2 33.1,-16.2 34,-8.8 34,-8.8 32.7,-8.2 32.7,-8.2 31.9,-13.8 31.4,-17.3 				"/>
				<polygon class="st19" points="31.7,-7.8 31.8,-4.5 30.8,-3 29.2,-2.1 30.9,-5.8 30.9,-5.8 30.9,-5.8 				"/>
				<polygon class="st14" points="28.1,-16.1 24.9,-11.9 20.6,-16.2 20.2,-16.6 27.5,-17.1 				"/>
				<polygon class="st15" points="20.6,-16.2 19,-10.5 17.4,-13.7 17.4,-13.7 15.4,-17.8 20.2,-16.6 				"/>
				<polygon class="st14" points="22.6,-7.3 19,-2 15,-2.4 13.8,-7.1 18.1,-7.2 				"/>
				<polygon class="st2" points="19,-10.5 18.1,-7.2 13.8,-7.1 12.4,-8.3 				"/>
				<polygon class="st15" points="7.9,-15.6 6.5,-12.3 2.1,-16 				"/>
				<polygon class="st14" points="17.4,-13.7 17.4,-13.7 14,-12.2 11.3,-18.2 15.4,-17.8 				"/>
				<polygon class="st20" points="19,-10.5 12.4,-8.3 14,-12.2 17.4,-13.7 				"/>
				<polygon class="st2" points="14,-12.2 12.4,-8.3 6.5,-12.3 11.4,-12.2 11.5,-12.2 				"/>
				<polygon class="st2" points="9.4,-19.2 8.1,-16.2 4.6,-21.7 				"/>
				<polygon class="st16" points="8.1,-16.2 7.9,-15.6 2.1,-16 0,-17.8 2.4,-17.7 5.7,-17.6 2.5,-22.8 4.6,-21.7 				"/>
				<polygon class="st15" points="38.8,-4.7 38.1,-4.2 35.9,-3.2 36.3,-6 37.4,-5.4 				"/>
				<polygon class="st2" points="40,-8.5 37.4,-5.4 36.3,-6 33.6,-7 37,-7.8 				"/>
				<polygon class="st20" points="37,-12.1 37,-7.8 33.6,-7 32.8,-7.4 34,-8.8 34,-8.8 				"/>
				<polygon class="st2" points="30.9,-5.8 29.2,-2.1 29.2,-2.1 25.8,-2.5 				"/>
				<polygon class="st15" points="31.9,-13.8 32.7,-8.2 32.7,-8.2 31.7,-7.8 30.9,-5.8 31.6,-11.2 31.6,-11.2 				"/>
				<polygon class="st20" points="31.6,-11.2 31.6,-11.2 30.9,-5.8 30.9,-5.8 25.9,-10.9 25.3,-11.5 24.9,-11.9 28.1,-16.1 				"/>
				<polygon class="st16" points="30.9,-5.8 30.9,-5.8 25.8,-2.5 25.9,-10.9 				"/>
				<polygon class="st15" points="25.9,-10.9 25.8,-2.5 24.2,-1.4 19,-2 22.6,-7.3 25.3,-11.5 				"/>
				<polygon class="st19" points="25.3,-11.5 22.6,-7.3 18.1,-7.2 19,-10.5 20.6,-16.2 24.9,-11.9 				"/>
				<polygon class="st19" points="9.4,-19.2 11.4,-12.2 6.5,-12.3 7.9,-15.6 8.1,-16.2 				"/>
				<polygon class="st16" points="12.5,-15.4 14,-12.2 11.5,-12.2 				"/>
			</g>
		</g>
	</g>
</pattern>
<rect y="0" class="st47" width="288" height="216"/>
<g>
	<pattern  id="SVGID_1_" xlink:href="#Giraffe" patternTransform="matrix(1 0 0 -1 -416.43 -15920.8896)">
	</pattern>
	<rect y="0" class="st48" width="288" height="216"/>
	
		<pattern  id="SVGID_00000021105275768824189800000010216737711930358714_" xlink:href="#Giraffe" patternTransform="matrix(1 0 0 -1 -416.43 -15920.8896)">
	</pattern>
	<rect y="0" style="fill:url(#SVGID_00000021105275768824189800000010216737711930358714_);" width="288" height="216"/>
</g>
</svg>
