<?xml version="1.0" encoding="utf-8"?>
<!-- Generator: Adobe Illustrator 28.1.0, SVG Export Plug-In . SVG Version: 6.00 Build 0)  -->
<svg version="1.1" id="Layer_1" xmlns="http://www.w3.org/2000/svg" xmlns:xlink="http://www.w3.org/1999/xlink" x="0px" y="0px"
	 viewBox="0 0 288 216" style="enable-background:new 0 0 288 216;" xml:space="preserve">
<style type="text/css">
	.st0{fill:none;}
	.st1{fill:#6576AC;stroke:#FFFFFF;stroke-width:5.000000e-02;stroke-miterlimit:10;}
	.st2{fill:#435887;stroke:#FFFFFF;stroke-width:5.000000e-02;stroke-miterlimit:10;}
	.st3{fill:#3A5582;stroke:#FFFFFF;stroke-width:5.000000e-02;stroke-miterlimit:10;}
	.st4{fill:#2E5182;stroke:#FFFFFF;stroke-width:5.000000e-02;stroke-miterlimit:10;}
	.st5{fill:none;stroke:#FFFFFF;stroke-width:5.000000e-02;stroke-miterlimit:10;}
	.st6{fill:#335725;stroke:#FFFFFF;stroke-width:5.000000e-02;stroke-miterlimit:10;}
	.st7{fill:#415F35;stroke:#FFFFFF;stroke-width:5.000000e-02;stroke-miterlimit:10;}
	.st8{fill:#C7461A;stroke:#FFFFFF;stroke-width:5.000000e-02;stroke-miterlimit:10;}
	.st9{fill:#9F3523;stroke:#FFFFFF;stroke-width:5.000000e-02;stroke-miterlimit:10;}
	.st10{fill:#0E3B5F;stroke:#FFFFFF;stroke-width:5.000000e-02;stroke-miterlimit:10;}
	.st11{fill:#0E395A;stroke:#FFFFFF;stroke-width:5.000000e-02;stroke-miterlimit:10;}
	.st12{fill:#A8191F;stroke:#FFFFFF;stroke-width:5.000000e-02;stroke-miterlimit:10;}
	.st13{fill:#97AAD7;stroke:#FFFFFF;stroke-width:5.000000e-02;stroke-miterlimit:10;}
	.st14{fill:#4E5F97;stroke:#FFFFFF;stroke-width:5.000000e-02;stroke-miterlimit:10;}
	.st15{fill:#123F66;stroke:#FFFFFF;stroke-width:5.000000e-02;stroke-miterlimit:10;}
	.st16{fill:#1F4877;stroke:#FFFFFF;stroke-width:5.000000e-02;stroke-miterlimit:10;}
	.st17{fill:#133E6C;stroke:#FFFFFF;stroke-width:5.000000e-02;stroke-miterlimit:10;}
	.st18{fill:#2D2F37;stroke:#FFFFFF;stroke-width:5.000000e-02;stroke-miterlimit:10;}
	.st19{fill:#155484;stroke:#FFFFFF;stroke-width:5.000000e-02;stroke-miterlimit:10;}
	.st20{fill:#194A7B;stroke:#FFFFFF;stroke-width:5.000000e-02;stroke-miterlimit:10;}
	.st21{fill:#961823;stroke:#FFFFFF;stroke-width:5.000000e-02;stroke-miterlimit:10;}
	.st22{fill:#7F1E2A;stroke:#FFFFFF;stroke-width:5.000000e-02;stroke-miterlimit:10;}
	.st23{fill:#C3162D;stroke:#FFFFFF;stroke-width:5.000000e-02;stroke-miterlimit:10;}
	.st24{fill:#C9242C;stroke:#FFFFFF;stroke-width:5.000000e-02;stroke-miterlimit:10;}
	.st25{fill:#BC1D2C;stroke:#FFFFFF;stroke-width:5.000000e-02;stroke-miterlimit:10;}
	.st26{fill:#295F2A;stroke:#FFFFFF;stroke-width:5.000000e-02;stroke-miterlimit:10;}
	.st27{fill:#15385E;stroke:#FFFFFF;stroke-width:5.000000e-02;stroke-miterlimit:10;}
	.st28{fill:#BF181A;stroke:#FFFFFF;stroke-width:5.000000e-02;stroke-miterlimit:10;}
	.st29{fill:#CC132F;stroke:#FFFFFF;stroke-width:5.000000e-02;stroke-miterlimit:10;}
	.st30{fill:#C19A9A;}
	.st31{fill:url(#SVGID_1_);}
	.st32{fill:url(#SVGID_00000012439927667598444680000004179093227215019180_);}
</style>
<pattern  y="216" width="189" height="144" patternUnits="userSpaceOnUse" id="Lorikeet" viewBox="6.5 -157.8 189 144" style="overflow:visible;">
	<g>
		<rect x="6.5" y="-157.8" class="st0" width="189" height="144"/>
		<g>
			<rect x="6.5" y="-157.8" class="st0" width="189" height="144"/>
			<g>
				<polygon class="st1" points="189.5,-162.6 189,-164.9 186.6,-168 181.6,-164.9 179.6,-158.7 184,-155.5 				"/>
				<polygon class="st2" points="190.5,-158.3 189.5,-162.6 184,-155.5 186.7,-153.5 189.5,-153.3 				"/>
				<polygon class="st3" points="195.3,-158.7 190.5,-158.3 189.5,-153.3 194.6,-152.8 				"/>
				<polygon class="st4" points="202.6,-159.4 200.3,-159.6 200.2,-159.6 200,-159.6 195,-160.1 195.3,-158.7 194.6,-152.8 
					196.9,-152.6 				"/>
				<path class="st5" d="M180.2-151.1"/>
			</g>
			<g>
				<polygon class="st6" points="30.4,-158.7 25,-165.2 23.6,-166.8 21,-164.9 16.8,-156.2 25.1,-158.3 				"/>
				<polygon class="st7" points="21,-164.9 18,-164.6 13.6,-159.4 7.9,-152.6 13.8,-155.4 16.8,-156.2 				"/>
				<polygon class="st4" points="13.6,-159.4 11.3,-159.6 11.2,-159.6 11,-159.6 6,-160.1 6.3,-158.7 5.6,-152.8 7.9,-152.6 				"/>
			</g>
			<g>
				<g>
					<polygon class="st8" points="184.8,-105.6 186.6,-109 183.4,-108 180.2,-103.5 179.3,-99 180.2,-98 182.3,-98.5 186.6,-96 
						189,-98.6 					"/>
					<polygon class="st9" points="189.1,-104 184.8,-105.6 189,-98.6 					"/>
					<polygon class="st10" points="196.3,-96.2 193.7,-99.7 190,-104.8 189.1,-104 189,-98.6 191.3,-95.7 195.6,-95.6 					"/>
					<polygon class="st11" points="199.6,-106 194.6,-108.5 190,-104.8 193.7,-99.7 					"/>
					<polygon class="st12" points="202.4,-115.7 200.1,-113.9 194.6,-108.5 199.6,-106 202.1,-104.8 202.2,-110.6 					"/>
					<polygon class="st1" points="189.5,-90.6 189,-92.9 186.6,-96 181.6,-92.9 179.6,-86.7 184,-83.5 					"/>
					<polygon class="st13" points="181.6,-92.9 178.4,-97.6 177.7,-96.4 176.4,-94.1 179.6,-86.7 					"/>
					<polygon class="st14" points="186.6,-96 182.3,-98.5 180.2,-98 179.3,-99 178.4,-97.6 181.6,-92.9 					"/>
					<polygon class="st2" points="190.5,-86.3 189.5,-90.6 184,-83.5 186.7,-81.5 189.5,-81.3 					"/>
					<polygon class="st3" points="195.3,-86.7 190.5,-86.3 189.5,-81.3 194.6,-80.8 					"/>
					<polygon class="st4" points="202.6,-87.4 200.3,-87.6 200.2,-87.6 200,-87.6 195,-88.1 195.3,-86.7 194.6,-80.8 196.9,-80.6 
											"/>
					<polygon class="st15" points="204.4,-103.6 202.1,-104.8 199.6,-106 193.7,-99.7 196.3,-96.2 					"/>
					<polygon class="st16" points="200.3,-94.8 194.5,-90.6 195,-88.1 200,-87.6 					"/>
					<line class="st5" x1="195.6" y1="-95.6" x2="195.5" y2="-95.5"/>
					<path class="st17" d="M195.3-86.7l-0.3-1.4l-0.5-2.5l-0.2-1.2l-5.3-1.2l0.5,2.3l0.9,4.3L195.3-86.7L195.3-86.7z M194.2-87.4
						h-2.7l-0.6-1.8l2.3-0.6C193.2-89.8,194.2-87.4,194.2-87.4z"/>
					<polygon class="st18" points="194.2,-87.4 193.2,-89.8 190.9,-89.2 191.5,-87.4 					"/>
					<polygon class="st19" points="194.3,-91.8 191.3,-95.7 189,-98.6 186.6,-96 189,-92.9 					"/>
					<polygon class="st20" points="201.2,-95.5 195.6,-95.6 191.3,-95.7 194.3,-91.8 194.5,-90.6 200.3,-94.8 200.4,-94.9 					"/>
					<line class="st5" x1="194.5" y1="-90.6" x2="194.5" y2="-90.6"/>
					<path class="st5" d="M180.2-79.1"/>
				</g>
				<g>
					<polygon class="st8" points="193.8,-119.8 192,-116.5 195.2,-117.4 198.4,-122 199.3,-126.5 198.4,-127.5 196.4,-127 
						192,-129.4 189.6,-126.8 					"/>
					<polygon class="st9" points="189.5,-121.4 193.8,-119.8 189.6,-126.8 					"/>
					<polygon class="st10" points="182.3,-129.2 184.9,-125.8 188.6,-120.7 189.5,-121.4 189.6,-126.8 187.3,-129.7 183,-129.8 
											"/>
					<polygon class="st11" points="179,-119.4 184,-117 188.6,-120.7 184.9,-125.8 					"/>
					<polygon class="st12" points="176.2,-109.8 178.5,-111.6 184,-117 179,-119.4 176.5,-120.7 176.4,-114.8 					"/>
					<polygon class="st21" points="166,-113.7 167.3,-108.1 168.2,-104.1 169.6,-104.5 176.2,-109.8 176.4,-114.8 169,-114 					"/>
					<polygon class="st22" points="159.3,-101.5 168.2,-104.1 167.3,-108.1 159.5,-113.4 					"/>
					<polygon class="st23" points="150.7,-126.7 149.6,-130.9 151.2,-137.8 143.2,-136 142.4,-135.6 					"/>
					<polygon class="st24" points="149.6,-130.9 156,-128.9 161.5,-127.2 164.6,-132.2 159.2,-138.7 153.5,-138.3 151.2,-137.8 
											"/>
					<polygon class="st6" points="159.2,-138.7 164.6,-132.2 166,-130.6 168.6,-132.5 172.8,-141.3 164.5,-139.1 					"/>
					<polygon class="st25" points="160.2,-125 162.1,-122.6 166.6,-117 168.6,-127.9 166,-130.6 164.6,-132.2 161.5,-127.2 					"/>
					<polygon class="st7" points="168.6,-132.5 171.6,-132.9 176,-138 181.7,-144.8 175.8,-142.1 172.8,-141.3 					"/>
					<polygon class="st1" points="189.1,-134.9 189.6,-132.5 192,-129.4 197,-132.5 199,-138.7 194.6,-141.9 					"/>
					<polygon class="st14" points="192,-129.4 196.4,-127 198.4,-127.5 199.3,-126.5 200.2,-127.9 197,-132.5 					"/>
					<polygon class="st2" points="188.1,-139.2 189.1,-134.9 194.6,-141.9 191.9,-143.9 189.1,-144.2 					"/>
					<polygon class="st3" points="183.3,-138.7 188.1,-139.2 189.1,-144.2 184,-144.6 					"/>
					<polygon class="st4" points="176,-138 178.3,-137.8 178.4,-137.8 178.6,-137.8 183.6,-137.3 183.3,-138.7 184,-144.6 
						181.7,-144.8 					"/>
					<polygon class="st24" points="166,-113.7 169,-114 174.2,-121.8 168.6,-127.9 166.6,-117 					"/>
					<polygon class="st15" points="174.2,-121.8 176.5,-120.7 179,-119.4 184.9,-125.8 182.3,-129.2 					"/>
					<polygon class="st16" points="178.3,-130.6 184.1,-134.9 183.6,-137.3 178.6,-137.8 					"/>
					<polygon class="st17" points="171.6,-132.9 173,-126.7 177.4,-129.9 178.2,-130.5 178.3,-130.6 178.6,-137.8 178.4,-137.8 
						178.3,-137.8 176,-138 					"/>
					<polygon class="st26" points="166,-130.6 168.6,-127.9 174.2,-121.8 173,-126.7 171.6,-132.9 168.6,-132.5 					"/>
					<line class="st5" x1="183" y1="-129.8" x2="183.1" y2="-129.9"/>
					<path class="st17" d="M183.3-138.7l0.3,1.4l0.5,2.5l0.2,1.2l5.3,1.2l-0.5-2.3l-0.9-4.3L183.3-138.7L183.3-138.7z M184.4-138
						h2.7l0.6,1.8l-2.3,0.6C185.4-135.6,184.4-138,184.4-138z"/>
					<polygon class="st18" points="184.4,-138 185.4,-135.6 187.7,-136.2 187.1,-138 					"/>
					<polygon class="st19" points="184.3,-133.7 187.3,-129.7 189.6,-126.8 192,-129.4 189.6,-132.5 					"/>
					<polygon class="st27" points="173,-126.7 174.2,-121.8 182.3,-129.2 183,-129.8 177.4,-129.9 					"/>
					<polygon class="st20" points="177.4,-129.9 183,-129.8 187.3,-129.7 184.3,-133.7 184.1,-134.9 178.3,-130.6 178.2,-130.5 
											"/>
					<line class="st5" x1="184.1" y1="-134.9" x2="184.1" y2="-134.9"/>
					<polygon class="st28" points="169,-114 176.4,-114.8 176.5,-120.7 174.2,-121.8 					"/>
					<polygon class="st29" points="153,-117.9 159.5,-113.4 167.3,-108.1 166,-113.7 166.6,-117 162.1,-122.6 155.6,-119.3 					"/>
					<polygon class="st25" points="149.6,-130.9 150.7,-126.7 153,-117.9 155.6,-119.3 155.6,-119.4 156,-128.9 					"/>
					<polygon class="st23" points="155.6,-119.4 155.6,-119.3 162.1,-122.6 160.2,-125 161.5,-127.2 156,-128.9 					"/>
				</g>
			</g>
			<g>
				<g>
					<polygon class="st8" points="90.3,-141.6 92.1,-145 88.9,-144 85.7,-139.5 84.8,-135 85.7,-134 87.8,-134.5 92.1,-132 
						94.5,-134.6 					"/>
					<polygon class="st9" points="94.6,-140 90.3,-141.6 94.5,-134.6 					"/>
					<polygon class="st10" points="101.8,-132.2 99.2,-135.7 95.5,-140.8 94.6,-140 94.5,-134.6 96.8,-131.7 101.1,-131.6 					"/>
					<polygon class="st11" points="105.1,-142 100.1,-144.5 95.5,-140.8 99.2,-135.7 					"/>
					<polygon class="st12" points="107.9,-151.7 105.6,-149.9 100.1,-144.5 105.1,-142 107.6,-140.8 107.7,-146.6 					"/>
					<polygon class="st21" points="118.1,-147.7 116.8,-153.4 115.9,-157.3 114.5,-156.9 107.9,-151.7 107.7,-146.6 115.1,-147.4 
											"/>
					<polygon class="st22" points="124.8,-159.9 115.9,-157.3 116.8,-153.4 124.6,-148 					"/>
					<polygon class="st23" points="133.4,-134.7 134.5,-130.5 132.9,-123.6 140.9,-125.5 141.7,-125.8 					"/>
					<polygon class="st24" points="134.5,-130.5 128.1,-132.5 122.6,-134.3 119.5,-129.2 124.9,-122.7 130.6,-123.1 132.9,-123.6 
											"/>
					<polygon class="st6" points="124.9,-122.7 119.5,-129.2 118.1,-130.8 115.5,-128.9 111.3,-120.2 119.6,-122.3 					"/>
					<polygon class="st25" points="123.9,-136.5 122,-138.8 117.5,-144.5 115.5,-133.6 118.1,-130.8 119.5,-129.2 122.6,-134.3 
											"/>
					<polygon class="st7" points="115.5,-128.9 112.5,-128.6 108.1,-123.4 102.4,-116.6 108.3,-119.4 111.3,-120.2 					"/>
					<polygon class="st1" points="95,-126.6 94.5,-128.9 92.1,-132 87.1,-128.9 85.1,-122.7 89.5,-119.5 					"/>
					<polygon class="st13" points="87.1,-128.9 83.9,-133.6 83.2,-132.4 81.9,-130.1 85.1,-122.7 					"/>
					<polygon class="st14" points="92.1,-132 87.8,-134.5 85.7,-134 84.8,-135 83.9,-133.6 87.1,-128.9 					"/>
					<polygon class="st2" points="96,-122.3 95,-126.6 89.5,-119.5 92.2,-117.5 95,-117.3 					"/>
					<polygon class="st3" points="100.8,-122.7 96,-122.3 95,-117.3 100.1,-116.8 					"/>
					<polygon class="st4" points="108.1,-123.4 105.8,-123.6 105.7,-123.6 105.5,-123.6 100.5,-124.1 100.8,-122.7 100.1,-116.8 
						102.4,-116.6 					"/>
					<polygon class="st24" points="118.1,-147.7 115.1,-147.4 109.9,-139.6 115.5,-133.6 117.5,-144.5 					"/>
					<polygon class="st15" points="109.9,-139.6 107.6,-140.8 105.1,-142 99.2,-135.7 101.8,-132.2 					"/>
					<polygon class="st16" points="105.8,-130.8 100,-126.6 100.5,-124.1 105.5,-123.6 					"/>
					<polygon class="st17" points="112.5,-128.6 111.1,-134.7 106.7,-131.5 105.9,-130.9 105.8,-130.8 105.5,-123.6 105.7,-123.6 
						105.8,-123.6 108.1,-123.4 					"/>
					<polygon class="st26" points="118.1,-130.8 115.5,-133.6 109.9,-139.6 111.1,-134.7 112.5,-128.6 115.5,-128.9 					"/>
					<line class="st5" x1="101.1" y1="-131.6" x2="101" y2="-131.5"/>
					<path class="st17" d="M100.8-122.7l-0.3-1.4l-0.5-2.5l-0.2-1.2l-5.3-1.2l0.5,2.3l0.9,4.3L100.8-122.7L100.8-122.7z M99.7-123.4
						H97l-0.6-1.8l2.3-0.6C98.7-125.8,99.7-123.4,99.7-123.4z"/>
					<polygon class="st18" points="99.7,-123.4 98.7,-125.8 96.4,-125.2 97,-123.4 					"/>
					<polygon class="st19" points="99.8,-127.8 96.8,-131.7 94.5,-134.6 92.1,-132 94.5,-128.9 					"/>
					<polygon class="st27" points="111.1,-134.7 109.9,-139.6 101.8,-132.2 101.1,-131.6 106.7,-131.5 					"/>
					<polygon class="st20" points="106.7,-131.5 101.1,-131.6 96.8,-131.7 99.8,-127.8 100,-126.6 105.8,-130.8 105.9,-130.9 					
						"/>
					<line class="st5" x1="100" y1="-126.6" x2="100" y2="-126.6"/>
					<polygon class="st28" points="115.1,-147.4 107.7,-146.6 107.6,-140.8 109.9,-139.6 					"/>
					<polygon class="st29" points="131.1,-143.5 124.6,-148 116.8,-153.4 118.1,-147.7 117.5,-144.5 122,-138.8 128.5,-142.2 					
						"/>
					<polygon class="st25" points="134.5,-130.5 133.4,-134.7 131.1,-143.5 128.5,-142.2 128.5,-142 128.1,-132.5 					"/>
					<polygon class="st23" points="128.5,-142 128.5,-142.2 122,-138.8 123.9,-136.5 122.6,-134.3 128.1,-132.5 					"/>
					<path class="st5" d="M85.7-115.1"/>
				</g>
				<g>
					<polygon class="st8" points="157.7,-159 158.7,-162.7 160.3,-159.8 159.6,-154.3 157.1,-150.5 155.8,-150.3 154.7,-152.1 
						149.9,-153.2 149.8,-156.8 					"/>
					<polygon class="st9" points="153.5,-160.8 157.7,-159 149.8,-156.8 					"/>
					<polygon class="st10" points="142.9,-160 147.1,-160.8 153.3,-162 153.5,-160.8 149.8,-156.8 146.2,-156.2 143,-159.1 					"/>
					<polygon class="st6" points="119.5,-168.8 127.9,-169.9 130,-170.1 130.6,-166.9 127.7,-157.7 123.1,-164.9 					"/>
					<polygon class="st7" points="130.6,-166.9 132.6,-164.6 132.2,-157.9 131.8,-149 129.4,-155 127.7,-157.7 					"/>
					<polygon class="st1" points="144,-151.3 145.9,-152.6 149.9,-153.2 151.4,-147.5 148.6,-141.7 143.2,-142.3 					"/>
					<polygon class="st13" points="151.4,-147.5 156.9,-148.8 156.7,-147.5 156,-144.9 148.6,-141.7 					"/>
					<polygon class="st14" points="149.9,-153.2 154.7,-152.1 155.8,-150.3 157.1,-150.5 156.9,-148.8 151.4,-147.5 					"/>
					<polygon class="st2" points="140.3,-148.7 144,-151.3 143.2,-142.3 139.9,-142.7 137.6,-144.4 					"/>
					<polygon class="st3" points="137.1,-152.4 140.3,-148.7 137.6,-144.4 133.6,-147.6 					"/>
					<polygon class="st4" points="132.2,-157.9 134.1,-156.5 134.2,-156.4 134.3,-156.3 138.3,-153.2 137.1,-152.4 133.6,-147.6 
						131.8,-149 					"/>
					<polygon class="st16" points="139,-161.7 140.3,-154.7 138.3,-153.2 134.3,-156.3 					"/>
					<polygon class="st17" points="132.6,-164.6 137.8,-168.1 138.8,-162.9 139,-161.8 139,-161.7 134.3,-156.3 134.2,-156.4 
						134.1,-156.5 132.2,-157.9 					"/>
					<path class="st17" d="M140.3-148.7l3.6-2.5l2-1.4l-4.6-2.8l-1,0.7l-2,1.5l-1.1,0.8L140.3-148.7L140.3-148.7z M140.8-153.2
						l1.3,2l-1.7,0.9l-2-1.8L140.8-153.2L140.8-153.2z"/>
					<polygon class="st18" points="138.4,-152.1 140.8,-153.2 142.1,-151.2 140.4,-150.3 					"/>
					<polygon class="st19" points="141.3,-155.4 146.2,-156.2 149.8,-156.8 149.9,-153.2 145.9,-152.6 					"/>
					<polygon class="st20" points="138.8,-162.9 143,-159.1 146.2,-156.2 141.3,-155.4 140.3,-154.7 139,-161.7 139,-161.8 					"/>
					<line class="st5" x1="140.3" y1="-154.7" x2="140.3" y2="-154.7"/>
					<path class="st5" d="M143-136.6"/>
				</g>
				<g>
					<polygon class="st8" points="99.3,-155.8 97.5,-152.5 100.7,-153.4 103.9,-158 104.8,-162.5 103.9,-163.5 101.9,-163 
						97.5,-165.4 95.1,-162.8 					"/>
					<polygon class="st9" points="95,-157.4 99.3,-155.8 95.1,-162.8 					"/>
					<polygon class="st10" points="87.8,-165.2 90.4,-161.8 94.1,-156.7 95,-157.4 95.1,-162.8 92.8,-165.7 88.5,-165.8 					"/>
					<polygon class="st11" points="84.5,-155.4 89.5,-153 94.1,-156.7 90.4,-161.8 					"/>
					<polygon class="st12" points="81.7,-145.8 84,-147.6 89.5,-153 84.5,-155.4 82,-156.7 81.9,-150.8 					"/>
					<polygon class="st21" points="71.5,-149.7 72.8,-144.1 73.7,-140.1 75.1,-140.5 81.7,-145.8 81.9,-150.8 74.5,-150 					"/>
					<polygon class="st22" points="64.8,-137.5 73.7,-140.1 72.8,-144.1 65,-149.4 					"/>
					<polygon class="st25" points="65.7,-161 67.6,-158.6 72.1,-153 74.1,-163.9 71.5,-166.6 70.1,-168.2 67,-163.2 					"/>
					<polygon class="st24" points="71.5,-149.7 74.5,-150 79.7,-157.8 74.1,-163.9 72.1,-153 					"/>
					<polygon class="st15" points="79.7,-157.8 82,-156.7 84.5,-155.4 90.4,-161.8 87.8,-165.2 					"/>
					<polygon class="st28" points="74.5,-150 81.9,-150.8 82,-156.7 79.7,-157.8 					"/>
					<polygon class="st29" points="58.5,-153.9 65,-149.4 72.8,-144.1 71.5,-149.7 72.1,-153 67.6,-158.6 61.1,-155.3 					"/>
					<polygon class="st25" points="55.1,-166.9 56.2,-162.7 58.5,-153.9 61.1,-155.3 61.1,-155.4 61.5,-164.9 					"/>
					<polygon class="st23" points="61.1,-155.4 61.1,-155.3 67.6,-158.6 65.7,-161 67,-163.2 61.5,-164.9 					"/>
				</g>
			</g>
			<g>
				<g>
					<polygon class="st10" points="7.3,-96.2 4.7,-99.7 1,-104.8 0.1,-104 0,-98.6 2.3,-95.7 6.6,-95.6 					"/>
					<polygon class="st11" points="10.6,-106 5.6,-108.5 1,-104.8 4.7,-99.7 					"/>
					<polygon class="st12" points="13.4,-115.7 11.1,-113.9 5.6,-108.5 10.6,-106 13.1,-104.8 13.2,-110.6 					"/>
					<polygon class="st21" points="23.6,-111.7 22.3,-117.4 21.4,-121.3 20,-120.9 13.4,-115.7 13.2,-110.6 20.6,-111.4 					"/>
					<polygon class="st22" points="30.3,-123.9 21.4,-121.3 22.3,-117.4 30.1,-112 					"/>
					<polygon class="st23" points="38.9,-98.7 40,-94.5 38.4,-87.6 46.4,-89.5 47.2,-89.8 					"/>
					<polygon class="st24" points="40,-94.5 33.6,-96.5 28.1,-98.3 25,-93.2 30.4,-86.7 36.1,-87.1 38.4,-87.6 					"/>
					<polygon class="st6" points="30.4,-86.7 25,-93.2 23.6,-94.8 21,-92.9 16.8,-84.2 25.1,-86.3 					"/>
					<polygon class="st25" points="29.4,-100.5 27.5,-102.8 23,-108.5 21,-97.6 23.6,-94.8 25,-93.2 28.1,-98.3 					"/>
					<polygon class="st7" points="21,-92.9 18,-92.6 13.6,-87.4 7.9,-80.6 13.8,-83.4 16.8,-84.2 					"/>
					<polygon class="st4" points="13.6,-87.4 11.3,-87.6 11.2,-87.6 11,-87.6 6,-88.1 6.3,-86.7 5.6,-80.8 7.9,-80.6 					"/>
					<polygon class="st24" points="23.6,-111.7 20.6,-111.4 15.4,-103.6 21,-97.6 23,-108.5 					"/>
					<polygon class="st15" points="15.4,-103.6 13.1,-104.8 10.6,-106 4.7,-99.7 7.3,-96.2 					"/>
					<polygon class="st16" points="11.3,-94.8 5.5,-90.6 6,-88.1 11,-87.6 					"/>
					<polygon class="st17" points="18,-92.6 16.6,-98.7 12.2,-95.5 11.4,-94.9 11.3,-94.8 11,-87.6 11.2,-87.6 11.3,-87.6 
						13.6,-87.4 					"/>
					<polygon class="st26" points="23.6,-94.8 21,-97.6 15.4,-103.6 16.6,-98.7 18,-92.6 21,-92.9 					"/>
					<line class="st5" x1="6.6" y1="-95.6" x2="6.5" y2="-95.5"/>
					<polygon class="st27" points="16.6,-98.7 15.4,-103.6 7.3,-96.2 6.6,-95.6 12.2,-95.5 					"/>
					<polygon class="st20" points="12.2,-95.5 6.6,-95.6 2.3,-95.7 5.3,-91.8 5.5,-90.6 11.3,-94.8 11.4,-94.9 					"/>
					<polygon class="st28" points="20.6,-111.4 13.2,-110.6 13.1,-104.8 15.4,-103.6 					"/>
					<polygon class="st29" points="36.6,-107.5 30.1,-112 22.3,-117.4 23.6,-111.7 23,-108.5 27.5,-102.8 34,-106.2 					"/>
					<polygon class="st25" points="40,-94.5 38.9,-98.7 36.6,-107.5 34,-106.2 34,-106 33.6,-96.5 					"/>
					<polygon class="st23" points="34,-106 34,-106.2 27.5,-102.8 29.4,-100.5 28.1,-98.3 33.6,-96.5 					"/>
				</g>
				<g>
					<polygon class="st8" points="63.2,-123 64.2,-126.7 65.8,-123.8 65.1,-118.3 62.6,-114.5 61.3,-114.3 60.2,-116.1 55.4,-117.2 
						55.3,-120.8 					"/>
					<polygon class="st9" points="59,-124.8 63.2,-123 55.3,-120.8 					"/>
					<polygon class="st10" points="48.4,-124 52.6,-124.8 58.8,-126 59,-124.8 55.3,-120.8 51.7,-120.2 48.5,-123.1 					"/>
					<polygon class="st11" points="52.6,-133.4 57.9,-131.8 58.8,-126 52.6,-124.8 					"/>
					<polygon class="st12" points="57.2,-142.4 57.7,-139.5 57.9,-131.8 52.6,-133.4 50,-134.2 53.8,-138.6 					"/>
					<polygon class="st21" points="47,-146.5 51.8,-149.7 55.2,-152 55.9,-150.8 57.2,-142.4 53.8,-138.6 49,-144.2 					"/>
					<polygon class="st22" points="50.4,-159.9 55.2,-152 51.8,-149.7 42.5,-151.1 					"/>
					<polygon class="st23" points="27,-147.4 23.3,-145.1 19.7,-139 15.2,-145.7 14.8,-146.5 					"/>
					<polygon class="st24" points="23.3,-145.1 29.4,-142.1 34.6,-139.7 33.4,-133.9 25,-132.8 21.1,-137 19.7,-139 					"/>
					<polygon class="st6" points="25,-132.8 33.4,-133.9 35.5,-134.1 36.1,-130.9 33.2,-121.7 28.6,-128.9 					"/>
					<polygon class="st25" points="35.1,-142.2 38.1,-142.6 45.2,-143.7 39.3,-134.4 35.5,-134.1 33.4,-133.9 34.6,-139.7 					"/>
					<polygon class="st7" points="36.1,-130.9 38.1,-128.6 37.7,-121.9 37.3,-113 34.9,-119 33.2,-121.7 					"/>
					<polygon class="st1" points="49.5,-115.3 51.4,-116.6 55.4,-117.2 56.9,-111.5 54.1,-105.7 48.7,-106.3 					"/>
					<polygon class="st13" points="56.9,-111.5 62.4,-112.8 62.2,-111.5 61.5,-108.9 54.1,-105.7 					"/>
					<polygon class="st14" points="55.4,-117.2 60.2,-116.1 61.3,-114.3 62.6,-114.5 62.4,-112.8 56.9,-111.5 					"/>
					<polygon class="st2" points="45.8,-112.7 49.5,-115.3 48.7,-106.3 45.4,-106.7 43.1,-108.4 					"/>
					<polygon class="st3" points="42.6,-116.4 45.8,-112.7 43.1,-108.4 39.1,-111.6 					"/>
					<polygon class="st4" points="37.7,-121.9 39.6,-120.5 39.7,-120.4 39.8,-120.3 43.8,-117.2 42.6,-116.4 39.1,-111.6 37.3,-113 
											"/>
					<polygon class="st24" points="47,-146.5 49,-144.2 47.5,-134.9 39.3,-134.4 45.2,-143.7 					"/>
					<polygon class="st15" points="47.5,-134.9 50,-134.2 52.6,-133.4 52.6,-124.8 48.4,-124 					"/>
					<polygon class="st16" points="44.5,-125.7 45.8,-118.7 43.8,-117.2 39.8,-120.3 					"/>
					<polygon class="st17" points="38.1,-128.6 43.3,-132.1 44.3,-126.9 44.5,-125.8 44.5,-125.7 39.8,-120.3 39.7,-120.4 
						39.6,-120.5 37.7,-121.9 					"/>
					<polygon class="st26" points="35.5,-134.1 39.3,-134.4 47.5,-134.9 43.3,-132.1 38.1,-128.6 36.1,-130.9 					"/>
					<line class="st5" x1="48.5" y1="-123.1" x2="48.5" y2="-123"/>
					<path class="st17" d="M45.8-112.7l3.6-2.5l2-1.4l-4.6-2.8l-1,0.7l-2,1.5l-1.2,0.8L45.8-112.7L45.8-112.7z M46.3-117.2l1.3,2
						l-1.7,0.9l-2-1.8L46.3-117.2L46.3-117.2z"/>
					<polygon class="st18" points="43.9,-116.1 46.3,-117.2 47.6,-115.2 45.9,-114.3 					"/>
					<polygon class="st19" points="46.8,-119.4 51.7,-120.2 55.3,-120.8 55.4,-117.2 51.4,-116.6 					"/>
					<polygon class="st27" points="43.3,-132.1 47.5,-134.9 48.4,-124 48.5,-123.1 44.3,-126.9 					"/>
					<polygon class="st20" points="44.3,-126.9 48.5,-123.1 51.7,-120.2 46.8,-119.4 45.8,-118.7 44.5,-125.7 44.5,-125.8 					"/>
					<line class="st5" x1="45.8" y1="-118.7" x2="45.8" y2="-118.7"/>
					<polygon class="st28" points="49,-144.2 53.8,-138.6 50,-134.2 47.5,-134.9 					"/>
					<polygon class="st29" points="34.6,-152.2 42.5,-151.1 51.8,-149.7 47,-146.5 45.2,-143.7 38.1,-142.6 35.6,-149.5 					"/>
					<polygon class="st25" points="23.3,-145.1 27,-147.4 34.6,-152.2 35.6,-149.5 35.5,-149.4 29.4,-142.1 					"/>
					<polygon class="st23" points="35.5,-149.4 35.6,-149.5 38.1,-142.6 35.1,-142.2 34.6,-139.7 29.4,-142.1 					"/>
					<path class="st5" d="M48.5-100.6"/>
				</g>
				<g>
					<polygon class="st8" points="4.8,-119.8 3,-116.5 6.2,-117.4 9.4,-122 10.3,-126.5 9.4,-127.5 7.4,-127 3,-129.4 0.6,-126.8 
											"/>
					<polygon class="st1" points="0.1,-134.9 0.6,-132.5 3,-129.4 8,-132.5 10,-138.7 5.6,-141.9 					"/>
					<polygon class="st13" points="8,-132.5 11.2,-127.9 11.9,-129 13.2,-131.3 10,-138.7 					"/>
					<polygon class="st14" points="3,-129.4 7.4,-127 9.4,-127.5 10.3,-126.5 11.2,-127.9 8,-132.5 					"/>
					<path class="st5" d="M9.4-146.3"/>
				</g>
			</g>
			<g>
				<g>
					<polygon class="st8" points="184.8,-33.6 186.6,-37 183.4,-36 180.2,-31.5 179.3,-27 180.2,-26 182.3,-26.5 186.6,-24 
						189,-26.6 					"/>
					<polygon class="st9" points="189.1,-32 184.8,-33.6 189,-26.6 					"/>
					<polygon class="st10" points="196.3,-24.2 193.7,-27.7 190,-32.8 189.1,-32 189,-26.6 191.3,-23.7 195.6,-23.6 					"/>
					<polygon class="st11" points="199.6,-34 194.6,-36.5 190,-32.8 193.7,-27.7 					"/>
					<polygon class="st12" points="202.4,-43.7 200.1,-41.9 194.6,-36.5 199.6,-34 202.1,-32.8 202.2,-38.6 					"/>
					<polygon class="st1" points="189.5,-18.6 189,-20.9 186.6,-24 181.6,-20.9 179.6,-14.7 184,-11.5 					"/>
					<polygon class="st13" points="181.6,-20.9 178.4,-25.6 177.7,-24.4 176.4,-22.1 179.6,-14.7 					"/>
					<polygon class="st14" points="186.6,-24 182.3,-26.5 180.2,-26 179.3,-27 178.4,-25.6 181.6,-20.9 					"/>
					<polygon class="st2" points="190.5,-14.3 189.5,-18.6 184,-11.5 186.7,-9.5 189.5,-9.3 					"/>
					<polygon class="st3" points="195.3,-14.7 190.5,-14.3 189.5,-9.3 194.6,-8.8 					"/>
					<polygon class="st4" points="202.6,-15.4 200.3,-15.6 200.2,-15.6 200,-15.6 195,-16.1 195.3,-14.7 194.6,-8.8 196.9,-8.6 
											"/>
					<polygon class="st15" points="204.4,-31.6 202.1,-32.8 199.6,-34 193.7,-27.7 196.3,-24.2 					"/>
					<polygon class="st16" points="200.3,-22.8 194.5,-18.6 195,-16.1 200,-15.6 					"/>
					<line class="st5" x1="195.6" y1="-23.6" x2="195.5" y2="-23.5"/>
					<path class="st17" d="M195.3-14.7l-0.3-1.4l-0.5-2.5l-0.2-1.2l-5.3-1.1l0.5,2.3l0.9,4.3L195.3-14.7L195.3-14.7z M194.2-15.4
						h-2.7l-0.6-1.8l2.3-0.6C193.2-17.8,194.2-15.4,194.2-15.4z"/>
					<polygon class="st18" points="194.2,-15.4 193.2,-17.8 190.9,-17.2 191.5,-15.4 					"/>
					<polygon class="st19" points="194.3,-19.8 191.3,-23.7 189,-26.6 186.6,-24 189,-20.9 					"/>
					<polygon class="st20" points="201.2,-23.5 195.6,-23.6 191.3,-23.7 194.3,-19.8 194.5,-18.6 200.3,-22.8 200.4,-22.9 					"/>
					<line class="st5" x1="194.5" y1="-18.6" x2="194.5" y2="-18.6"/>
				</g>
				<g>
					<polygon class="st8" points="193.8,-47.8 192,-44.5 195.2,-45.4 198.4,-50 199.3,-54.5 198.4,-55.5 196.4,-55 192,-57.4 
						189.6,-54.8 					"/>
					<polygon class="st9" points="189.5,-49.4 193.8,-47.8 189.6,-54.8 					"/>
					<polygon class="st10" points="182.3,-57.2 184.9,-53.8 188.6,-48.7 189.5,-49.4 189.6,-54.8 187.3,-57.7 183,-57.8 					"/>
					<polygon class="st11" points="179,-47.4 184,-45 188.6,-48.7 184.9,-53.8 					"/>
					<polygon class="st12" points="176.2,-37.8 178.5,-39.6 184,-45 179,-47.4 176.5,-48.7 176.4,-42.8 					"/>
					<polygon class="st21" points="166,-41.7 167.3,-36.1 168.2,-32.1 169.6,-32.5 176.2,-37.8 176.4,-42.8 169,-42 					"/>
					<polygon class="st22" points="159.3,-29.5 168.2,-32.1 167.3,-36.1 159.5,-41.4 					"/>
					<polygon class="st23" points="150.7,-54.7 149.6,-58.9 151.2,-65.8 143.2,-64 142.4,-63.6 					"/>
					<polygon class="st24" points="149.6,-58.9 156,-56.9 161.5,-55.2 164.6,-60.2 159.2,-66.7 153.5,-66.3 151.2,-65.8 					"/>
					<polygon class="st6" points="159.2,-66.7 164.6,-60.2 166,-58.6 168.6,-60.5 172.8,-69.3 164.5,-67.1 					"/>
					<polygon class="st25" points="160.2,-53 162.1,-50.6 166.6,-45 168.6,-55.9 166,-58.6 164.6,-60.2 161.5,-55.2 					"/>
					<polygon class="st7" points="168.6,-60.5 171.6,-60.9 176,-66 181.7,-72.8 175.8,-70.1 172.8,-69.3 					"/>
					<polygon class="st1" points="189.1,-62.9 189.6,-60.5 192,-57.4 197,-60.5 199,-66.7 194.6,-69.9 					"/>
					<polygon class="st14" points="192,-57.4 196.4,-55 198.4,-55.5 199.3,-54.5 200.2,-55.9 197,-60.5 					"/>
					<polygon class="st2" points="188.1,-67.2 189.1,-62.9 194.6,-69.9 191.9,-71.9 189.1,-72.2 					"/>
					<polygon class="st3" points="183.3,-66.7 188.1,-67.2 189.1,-72.2 184,-72.6 					"/>
					<polygon class="st4" points="176,-66 178.3,-65.8 178.4,-65.8 178.6,-65.8 183.6,-65.3 183.3,-66.7 184,-72.6 181.7,-72.8 
											"/>
					<polygon class="st24" points="166,-41.7 169,-42 174.2,-49.8 168.6,-55.9 166.6,-45 					"/>
					<polygon class="st15" points="174.2,-49.8 176.5,-48.7 179,-47.4 184.9,-53.8 182.3,-57.2 					"/>
					<polygon class="st16" points="178.3,-58.6 184.1,-62.9 183.6,-65.3 178.6,-65.8 					"/>
					<polygon class="st17" points="171.6,-60.9 173,-54.7 177.4,-57.9 178.2,-58.5 178.3,-58.6 178.6,-65.8 178.4,-65.8 
						178.3,-65.8 176,-66 					"/>
					<polygon class="st26" points="166,-58.6 168.6,-55.9 174.2,-49.8 173,-54.7 171.6,-60.9 168.6,-60.5 					"/>
					<line class="st5" x1="183" y1="-57.8" x2="183.1" y2="-57.9"/>
					<path class="st17" d="M183.3-66.7l0.3,1.4l0.5,2.5l0.2,1.2l5.3,1.2l-0.5-2.3l-0.9-4.3L183.3-66.7L183.3-66.7z M184.4-66h2.7
						l0.6,1.8l-2.3,0.6L184.4-66z"/>
					<polygon class="st18" points="184.4,-66 185.4,-63.6 187.7,-64.2 187.1,-66 					"/>
					<polygon class="st19" points="184.3,-61.7 187.3,-57.7 189.6,-54.8 192,-57.4 189.6,-60.5 					"/>
					<polygon class="st27" points="173,-54.7 174.2,-49.8 182.3,-57.2 183,-57.8 177.4,-57.9 					"/>
					<polygon class="st20" points="177.4,-57.9 183,-57.8 187.3,-57.7 184.3,-61.7 184.1,-62.9 178.3,-58.6 178.2,-58.5 					"/>
					<line class="st5" x1="184.1" y1="-62.9" x2="184.1" y2="-62.9"/>
					<polygon class="st28" points="169,-42 176.4,-42.8 176.5,-48.7 174.2,-49.8 					"/>
					<polygon class="st29" points="153,-45.9 159.5,-41.4 167.3,-36.1 166,-41.7 166.6,-45 162.1,-50.6 155.6,-47.3 					"/>
					<polygon class="st25" points="149.6,-58.9 150.7,-54.7 153,-45.9 155.6,-47.3 155.6,-47.4 156,-56.9 					"/>
					<polygon class="st23" points="155.6,-47.4 155.6,-47.3 162.1,-50.6 160.2,-53 161.5,-55.2 156,-56.9 					"/>
				</g>
			</g>
			<g>
				<g>
					<polygon class="st8" points="90.3,-69.6 92.1,-73 88.9,-72 85.7,-67.5 84.8,-63 85.7,-62 87.8,-62.5 92.1,-60 94.5,-62.6 					
						"/>
					<polygon class="st9" points="94.6,-68 90.3,-69.6 94.5,-62.6 					"/>
					<polygon class="st10" points="101.8,-60.2 99.2,-63.7 95.5,-68.8 94.6,-68 94.5,-62.6 96.8,-59.7 101.1,-59.6 					"/>
					<polygon class="st11" points="105.1,-70 100.1,-72.5 95.5,-68.8 99.2,-63.7 					"/>
					<polygon class="st12" points="107.9,-79.7 105.6,-77.9 100.1,-72.5 105.1,-70 107.6,-68.8 107.7,-74.6 					"/>
					<polygon class="st21" points="118.1,-75.7 116.8,-81.4 115.9,-85.3 114.5,-84.9 107.9,-79.7 107.7,-74.6 115.1,-75.4 					"/>
					<polygon class="st22" points="124.8,-87.9 115.9,-85.3 116.8,-81.4 124.6,-76 					"/>
					<polygon class="st23" points="133.4,-62.7 134.5,-58.5 132.9,-51.6 140.9,-53.5 141.7,-53.8 					"/>
					<polygon class="st24" points="134.5,-58.5 128.1,-60.5 122.6,-62.3 119.5,-57.2 124.9,-50.7 130.6,-51.1 132.9,-51.6 					"/>
					<polygon class="st6" points="124.9,-50.7 119.5,-57.2 118.1,-58.8 115.5,-56.9 111.3,-48.2 119.6,-50.3 					"/>
					<polygon class="st25" points="123.9,-64.5 122,-66.8 117.5,-72.5 115.5,-61.6 118.1,-58.8 119.5,-57.2 122.6,-62.3 					"/>
					<polygon class="st7" points="115.5,-56.9 112.5,-56.6 108.1,-51.4 102.4,-44.6 108.3,-47.4 111.3,-48.2 					"/>
					<polygon class="st1" points="95,-54.6 94.5,-56.9 92.1,-60 87.1,-56.9 85.1,-50.7 89.5,-47.5 					"/>
					<polygon class="st13" points="87.1,-56.9 83.9,-61.6 83.2,-60.4 81.9,-58.1 85.1,-50.7 					"/>
					<polygon class="st14" points="92.1,-60 87.8,-62.5 85.7,-62 84.8,-63 83.9,-61.6 87.1,-56.9 					"/>
					<polygon class="st2" points="96,-50.3 95,-54.6 89.5,-47.5 92.2,-45.5 95,-45.3 					"/>
					<polygon class="st3" points="100.8,-50.7 96,-50.3 95,-45.3 100.1,-44.8 					"/>
					<polygon class="st4" points="108.1,-51.4 105.8,-51.6 105.7,-51.6 105.5,-51.6 100.5,-52.1 100.8,-50.7 100.1,-44.8 
						102.4,-44.6 					"/>
					<polygon class="st24" points="118.1,-75.7 115.1,-75.4 109.9,-67.6 115.5,-61.6 117.5,-72.5 					"/>
					<polygon class="st15" points="109.9,-67.6 107.6,-68.8 105.1,-70 99.2,-63.7 101.8,-60.2 					"/>
					<polygon class="st16" points="105.8,-58.8 100,-54.6 100.5,-52.1 105.5,-51.6 					"/>
					<polygon class="st17" points="112.5,-56.6 111.1,-62.7 106.7,-59.5 105.9,-58.9 105.8,-58.8 105.5,-51.6 105.7,-51.6 
						105.8,-51.6 108.1,-51.4 					"/>
					<polygon class="st26" points="118.1,-58.8 115.5,-61.6 109.9,-67.6 111.1,-62.7 112.5,-56.6 115.5,-56.9 					"/>
					<line class="st5" x1="101.1" y1="-59.6" x2="101" y2="-59.5"/>
					<path class="st17" d="M100.8-50.7l-0.3-1.4l-0.5-2.5l-0.2-1.2l-5.3-1.2l0.5,2.3l0.9,4.3L100.8-50.7L100.8-50.7z M99.7-51.4H97
						l-0.6-1.8l2.3-0.6C98.7-53.8,99.7-51.4,99.7-51.4z"/>
					<polygon class="st18" points="99.7,-51.4 98.7,-53.8 96.4,-53.2 97,-51.4 					"/>
					<polygon class="st19" points="99.8,-55.8 96.8,-59.7 94.5,-62.6 92.1,-60 94.5,-56.9 					"/>
					<polygon class="st27" points="111.1,-62.7 109.9,-67.6 101.8,-60.2 101.1,-59.6 106.7,-59.5 					"/>
					<polygon class="st20" points="106.7,-59.5 101.1,-59.6 96.8,-59.7 99.8,-55.8 100,-54.6 105.8,-58.8 105.9,-58.9 					"/>
					<line class="st5" x1="100" y1="-54.6" x2="100" y2="-54.6"/>
					<polygon class="st28" points="115.1,-75.4 107.7,-74.6 107.6,-68.8 109.9,-67.6 					"/>
					<polygon class="st29" points="131.1,-71.5 124.6,-76 116.8,-81.4 118.1,-75.7 117.5,-72.5 122,-66.8 128.5,-70.2 					"/>
					<polygon class="st25" points="134.5,-58.5 133.4,-62.7 131.1,-71.5 128.5,-70.2 128.5,-70 128.1,-60.5 					"/>
					<polygon class="st23" points="128.5,-70 128.5,-70.2 122,-66.8 123.9,-64.5 122.6,-62.3 128.1,-60.5 					"/>
					<path class="st5" d="M85.7-43.1"/>
				</g>
				<g>
					<polygon class="st8" points="157.7,-87 158.7,-90.7 160.3,-87.8 159.6,-82.3 157.1,-78.5 155.8,-78.3 154.7,-80.1 149.9,-81.2 
						149.8,-84.8 					"/>
					<polygon class="st9" points="153.5,-88.8 157.7,-87 149.8,-84.8 					"/>
					<polygon class="st10" points="142.9,-88 147.1,-88.8 153.3,-90 153.5,-88.8 149.8,-84.8 146.2,-84.2 143,-87.1 					"/>
					<polygon class="st11" points="147.1,-97.4 152.4,-95.8 153.3,-90 147.1,-88.8 					"/>
					<polygon class="st12" points="151.7,-106.4 152.2,-103.5 152.4,-95.8 147.1,-97.4 144.5,-98.2 148.3,-102.6 					"/>
					<polygon class="st21" points="141.5,-110.5 146.3,-113.7 149.7,-116 150.4,-114.8 151.7,-106.4 148.3,-102.6 143.5,-108.2 
											"/>
					<polygon class="st22" points="144.9,-123.9 149.7,-116 146.3,-113.7 137,-115.1 					"/>
					<polygon class="st23" points="121.5,-111.4 117.8,-109.1 114.2,-103 109.7,-109.7 109.3,-110.5 					"/>
					<polygon class="st24" points="117.8,-109.1 123.9,-106.1 129.1,-103.7 127.9,-97.9 119.5,-96.8 115.6,-101 114.2,-103 					"/>
					<polygon class="st6" points="119.5,-96.8 127.9,-97.9 130,-98.1 130.6,-94.9 127.7,-85.7 123.1,-92.9 					"/>
					<polygon class="st25" points="129.6,-106.2 132.6,-106.6 139.7,-107.7 133.8,-98.4 130,-98.1 127.9,-97.9 129.1,-103.7 					
						"/>
					<polygon class="st7" points="130.6,-94.9 132.6,-92.6 132.2,-85.9 131.8,-77 129.4,-83 127.7,-85.7 					"/>
					<polygon class="st1" points="144,-79.3 145.9,-80.6 149.9,-81.2 151.4,-75.5 148.6,-69.7 143.2,-70.3 					"/>
					<polygon class="st13" points="151.4,-75.5 156.9,-76.8 156.7,-75.5 156,-72.9 148.6,-69.7 					"/>
					<polygon class="st14" points="149.9,-81.2 154.7,-80.1 155.8,-78.3 157.1,-78.5 156.9,-76.8 151.4,-75.5 					"/>
					<polygon class="st2" points="140.3,-76.7 144,-79.3 143.2,-70.3 139.9,-70.7 137.6,-72.4 					"/>
					<polygon class="st3" points="137.1,-80.4 140.3,-76.7 137.6,-72.4 133.6,-75.6 					"/>
					<polygon class="st4" points="132.2,-85.9 134.1,-84.5 134.2,-84.4 134.3,-84.3 138.3,-81.2 137.1,-80.4 133.6,-75.6 131.8,-77 
											"/>
					<polygon class="st24" points="141.5,-110.5 143.5,-108.2 142,-98.9 133.8,-98.4 139.7,-107.7 					"/>
					<polygon class="st15" points="142,-98.9 144.5,-98.2 147.1,-97.4 147.1,-88.8 142.9,-88 					"/>
					<polygon class="st16" points="139,-89.7 140.3,-82.7 138.3,-81.2 134.3,-84.3 					"/>
					<polygon class="st17" points="132.6,-92.6 137.8,-96.1 138.8,-90.9 139,-89.8 139,-89.7 134.3,-84.3 134.2,-84.4 134.1,-84.5 
						132.2,-85.9 					"/>
					<polygon class="st26" points="130,-98.1 133.8,-98.4 142,-98.9 137.8,-96.1 132.6,-92.6 130.6,-94.9 					"/>
					<line class="st5" x1="143" y1="-87.1" x2="143" y2="-87"/>
					<path class="st17" d="M140.3-76.7l3.6-2.5l2-1.4l-4.6-2.8l-1,0.7l-2,1.5l-1.1,0.8L140.3-76.7L140.3-76.7z M140.8-81.2l1.3,2
						l-1.7,0.9l-2-1.8L140.8-81.2L140.8-81.2z"/>
					<polygon class="st18" points="138.4,-80.1 140.8,-81.2 142.1,-79.2 140.4,-78.3 					"/>
					<polygon class="st19" points="141.3,-83.4 146.2,-84.2 149.8,-84.8 149.9,-81.2 145.9,-80.6 					"/>
					<polygon class="st27" points="137.8,-96.1 142,-98.9 142.9,-88 143,-87.1 138.8,-90.9 					"/>
					<polygon class="st20" points="138.8,-90.9 143,-87.1 146.2,-84.2 141.3,-83.4 140.3,-82.7 139,-89.7 139,-89.8 					"/>
					<line class="st5" x1="140.3" y1="-82.7" x2="140.3" y2="-82.7"/>
					<polygon class="st28" points="143.5,-108.2 148.3,-102.6 144.5,-98.2 142,-98.9 					"/>
					<polygon class="st29" points="129.1,-116.2 137,-115.1 146.3,-113.7 141.5,-110.5 139.7,-107.7 132.6,-106.6 130.1,-113.5 
											"/>
					<polygon class="st25" points="117.8,-109.1 121.5,-111.4 129.1,-116.2 130.1,-113.5 130,-113.4 123.9,-106.1 					"/>
					<polygon class="st23" points="130,-113.4 130.1,-113.5 132.6,-106.6 129.6,-106.2 129.1,-103.7 123.9,-106.1 					"/>
					<path class="st5" d="M143-64.6"/>
				</g>
				<g>
					<polygon class="st8" points="99.3,-83.8 97.5,-80.5 100.7,-81.4 103.9,-86 104.8,-90.5 103.9,-91.5 101.9,-91 97.5,-93.4 
						95.1,-90.8 					"/>
					<polygon class="st9" points="95,-85.4 99.3,-83.8 95.1,-90.8 					"/>
					<polygon class="st10" points="87.8,-93.2 90.4,-89.8 94.1,-84.7 95,-85.4 95.1,-90.8 92.8,-93.7 88.5,-93.8 					"/>
					<polygon class="st11" points="84.5,-83.4 89.5,-81 94.1,-84.7 90.4,-89.8 					"/>
					<polygon class="st12" points="81.7,-73.8 84,-75.6 89.5,-81 84.5,-83.4 82,-84.7 81.9,-78.8 					"/>
					<polygon class="st21" points="71.5,-77.7 72.8,-72.1 73.7,-68.1 75.1,-68.5 81.7,-73.8 81.9,-78.8 74.5,-78 					"/>
					<polygon class="st22" points="64.8,-65.5 73.7,-68.1 72.8,-72.1 65,-77.4 					"/>
					<polygon class="st23" points="56.2,-90.7 55.1,-94.9 56.7,-101.8 48.7,-100 47.9,-99.6 					"/>
					<polygon class="st24" points="55.1,-94.9 61.5,-92.9 67,-91.2 70.1,-96.2 64.7,-102.7 59,-102.3 56.7,-101.8 					"/>
					<polygon class="st6" points="64.7,-102.7 70.1,-96.2 71.5,-94.6 74.1,-96.5 78.3,-105.3 70,-103.1 					"/>
					<polygon class="st25" points="65.7,-89 67.6,-86.6 72.1,-81 74.1,-91.9 71.5,-94.6 70.1,-96.2 67,-91.2 					"/>
					<polygon class="st7" points="74.1,-96.5 77.1,-96.9 81.5,-102 87.2,-108.8 81.3,-106.1 78.3,-105.3 					"/>
					<polygon class="st1" points="94.6,-98.9 95.1,-96.5 97.5,-93.4 102.5,-96.5 104.5,-102.7 100.1,-105.9 					"/>
					<polygon class="st13" points="102.5,-96.5 105.7,-91.9 106.4,-93 107.7,-95.3 104.5,-102.7 					"/>
					<polygon class="st14" points="97.5,-93.4 101.9,-91 103.9,-91.5 104.8,-90.5 105.7,-91.9 102.5,-96.5 					"/>
					<polygon class="st2" points="93.6,-103.2 94.6,-98.9 100.1,-105.9 97.4,-107.9 94.6,-108.2 					"/>
					<polygon class="st3" points="88.8,-102.7 93.6,-103.2 94.6,-108.2 89.5,-108.6 					"/>
					<polygon class="st4" points="81.5,-102 83.8,-101.8 83.9,-101.8 84.1,-101.8 89.1,-101.3 88.8,-102.7 89.5,-108.6 87.2,-108.8 
											"/>
					<polygon class="st24" points="71.5,-77.7 74.5,-78 79.7,-85.8 74.1,-91.9 72.1,-81 					"/>
					<polygon class="st15" points="79.7,-85.8 82,-84.7 84.5,-83.4 90.4,-89.8 87.8,-93.2 					"/>
					<polygon class="st16" points="83.8,-94.6 89.6,-98.9 89.1,-101.3 84.1,-101.8 					"/>
					<polygon class="st17" points="77.1,-96.9 78.5,-90.7 82.9,-93.9 83.7,-94.5 83.8,-94.6 84.1,-101.8 83.9,-101.8 83.8,-101.8 
						81.5,-102 					"/>
					<polygon class="st26" points="71.5,-94.6 74.1,-91.9 79.7,-85.8 78.5,-90.7 77.1,-96.9 74.1,-96.5 					"/>
					<line class="st5" x1="88.5" y1="-93.8" x2="88.6" y2="-93.9"/>
					<path class="st17" d="M88.8-102.7l0.3,1.4l0.5,2.5l0.2,1.2l5.3,1.2l-0.5-2.3l-0.9-4.3L88.8-102.7L88.8-102.7z M89.9-102h2.7
						l0.6,1.8l-2.3,0.6C90.9-99.6,89.9-102,89.9-102z"/>
					<polygon class="st18" points="89.9,-102 90.9,-99.6 93.2,-100.2 92.6,-102 					"/>
					<polygon class="st19" points="89.8,-97.7 92.8,-93.7 95.1,-90.8 97.5,-93.4 95.1,-96.5 					"/>
					<polygon class="st27" points="78.5,-90.7 79.7,-85.8 87.8,-93.2 88.5,-93.8 82.9,-93.9 					"/>
					<polygon class="st20" points="82.9,-93.9 88.5,-93.8 92.8,-93.7 89.8,-97.7 89.6,-98.9 83.8,-94.6 83.7,-94.5 					"/>
					<line class="st5" x1="89.6" y1="-98.9" x2="89.6" y2="-98.9"/>
					<polygon class="st28" points="74.5,-78 81.9,-78.8 82,-84.7 79.7,-85.8 					"/>
					<polygon class="st29" points="58.5,-81.9 65,-77.4 72.8,-72.1 71.5,-77.7 72.1,-81 67.6,-86.6 61.1,-83.3 					"/>
					<polygon class="st25" points="55.1,-94.9 56.2,-90.7 58.5,-81.9 61.1,-83.3 61.1,-83.4 61.5,-92.9 					"/>
					<polygon class="st23" points="61.1,-83.4 61.1,-83.3 67.6,-86.6 65.7,-89 67,-91.2 61.5,-92.9 					"/>
					<path class="st5" d="M103.9-110.3"/>
				</g>
			</g>
			<g>
				<g>
					<polygon class="st10" points="7.3,-24.2 4.7,-27.7 1,-32.8 0.1,-32 0,-26.6 2.3,-23.7 6.6,-23.6 					"/>
					<polygon class="st11" points="10.6,-34 5.6,-36.5 1,-32.8 4.7,-27.7 					"/>
					<polygon class="st12" points="13.4,-43.7 11.1,-41.9 5.6,-36.5 10.6,-34 13.1,-32.8 13.2,-38.6 					"/>
					<polygon class="st21" points="23.6,-39.7 22.3,-45.4 21.4,-49.3 20,-48.9 13.4,-43.7 13.2,-38.6 20.6,-39.4 					"/>
					<polygon class="st22" points="30.3,-51.9 21.4,-49.3 22.3,-45.4 30.1,-40 					"/>
					<polygon class="st23" points="38.9,-26.7 40,-22.5 38.4,-15.6 46.4,-17.5 47.2,-17.8 					"/>
					<polygon class="st24" points="40,-22.5 33.6,-24.5 28.1,-26.3 25,-21.2 30.4,-14.7 36.1,-15.1 38.4,-15.6 					"/>
					<polygon class="st6" points="30.4,-14.7 25,-21.2 23.6,-22.8 21,-20.9 16.8,-12.2 25.1,-14.3 					"/>
					<polygon class="st25" points="29.4,-28.5 27.5,-30.8 23,-36.5 21,-25.6 23.6,-22.8 25,-21.2 28.1,-26.3 					"/>
					<polygon class="st7" points="21,-20.9 18,-20.6 13.6,-15.4 7.9,-8.6 13.8,-11.4 16.8,-12.2 					"/>
					<polygon class="st4" points="13.6,-15.4 11.3,-15.6 11.2,-15.6 11,-15.6 6,-16.1 6.3,-14.7 5.6,-8.8 7.9,-8.6 					"/>
					<polygon class="st24" points="23.6,-39.7 20.6,-39.4 15.4,-31.6 21,-25.6 23,-36.5 					"/>
					<polygon class="st15" points="15.4,-31.6 13.1,-32.8 10.6,-34 4.7,-27.7 7.3,-24.2 					"/>
					<polygon class="st16" points="11.3,-22.8 5.5,-18.6 6,-16.1 11,-15.6 					"/>
					<polygon class="st17" points="18,-20.6 16.6,-26.7 12.2,-23.5 11.4,-22.9 11.3,-22.8 11,-15.6 11.2,-15.6 11.3,-15.6 
						13.6,-15.4 					"/>
					<polygon class="st26" points="23.6,-22.8 21,-25.6 15.4,-31.6 16.6,-26.7 18,-20.6 21,-20.9 					"/>
					<line class="st5" x1="6.6" y1="-23.6" x2="6.5" y2="-23.5"/>
					<polygon class="st27" points="16.6,-26.7 15.4,-31.6 7.3,-24.2 6.6,-23.6 12.2,-23.5 					"/>
					<polygon class="st20" points="12.2,-23.5 6.6,-23.6 2.3,-23.7 5.3,-19.8 5.5,-18.6 11.3,-22.8 11.4,-22.9 					"/>
					<polygon class="st28" points="20.6,-39.4 13.2,-38.6 13.1,-32.8 15.4,-31.6 					"/>
					<polygon class="st29" points="36.6,-35.5 30.1,-40 22.3,-45.4 23.6,-39.7 23,-36.5 27.5,-30.8 34,-34.2 					"/>
					<polygon class="st25" points="40,-22.5 38.9,-26.7 36.6,-35.5 34,-34.2 34,-34 33.6,-24.5 					"/>
					<polygon class="st23" points="34,-34 34,-34.2 27.5,-30.8 29.4,-28.5 28.1,-26.3 33.6,-24.5 					"/>
				</g>
				<g>
					<polygon class="st8" points="63.2,-51 64.2,-54.7 65.8,-51.8 65.1,-46.3 62.6,-42.5 61.3,-42.3 60.2,-44.1 55.4,-45.2 
						55.3,-48.8 					"/>
					<polygon class="st9" points="59,-52.8 63.2,-51 55.3,-48.8 					"/>
					<polygon class="st10" points="48.4,-52 52.6,-52.8 58.8,-54 59,-52.8 55.3,-48.8 51.7,-48.2 48.5,-51.1 					"/>
					<polygon class="st11" points="52.6,-61.4 57.9,-59.8 58.8,-54 52.6,-52.8 					"/>
					<polygon class="st12" points="57.2,-70.4 57.7,-67.5 57.9,-59.8 52.6,-61.4 50,-62.2 53.8,-66.6 					"/>
					<polygon class="st21" points="47,-74.5 51.8,-77.7 55.2,-80 55.9,-78.8 57.2,-70.4 53.8,-66.6 49,-72.2 					"/>
					<polygon class="st22" points="50.4,-87.9 55.2,-80 51.8,-77.7 42.5,-79.1 					"/>
					<polygon class="st23" points="27,-75.4 23.3,-73.1 19.7,-67 15.2,-73.7 14.8,-74.5 					"/>
					<polygon class="st24" points="23.3,-73.1 29.4,-70.1 34.6,-67.7 33.4,-61.9 25,-60.8 21.1,-65 19.7,-67 					"/>
					<polygon class="st6" points="25,-60.8 33.4,-61.9 35.5,-62.1 36.1,-58.9 33.2,-49.7 28.6,-56.9 					"/>
					<polygon class="st25" points="35.1,-70.2 38.1,-70.6 45.2,-71.7 39.3,-62.4 35.5,-62.1 33.4,-61.9 34.6,-67.7 					"/>
					<polygon class="st7" points="36.1,-58.9 38.1,-56.6 37.7,-49.9 37.3,-41 34.9,-47 33.2,-49.7 					"/>
					<polygon class="st1" points="49.5,-43.3 51.4,-44.6 55.4,-45.2 56.9,-39.5 54.1,-33.7 48.7,-34.3 					"/>
					<polygon class="st13" points="56.9,-39.5 62.4,-40.8 62.2,-39.5 61.5,-36.9 54.1,-33.7 					"/>
					<polygon class="st14" points="55.4,-45.2 60.2,-44.1 61.3,-42.3 62.6,-42.5 62.4,-40.8 56.9,-39.5 					"/>
					<polygon class="st2" points="45.8,-40.7 49.5,-43.3 48.7,-34.3 45.4,-34.7 43.1,-36.4 					"/>
					<polygon class="st3" points="42.6,-44.4 45.8,-40.7 43.1,-36.4 39.1,-39.6 					"/>
					<polygon class="st4" points="37.7,-49.9 39.6,-48.5 39.7,-48.4 39.8,-48.3 43.8,-45.2 42.6,-44.4 39.1,-39.6 37.3,-41 					"/>
					<polygon class="st24" points="47,-74.5 49,-72.2 47.5,-62.9 39.3,-62.4 45.2,-71.7 					"/>
					<polygon class="st15" points="47.5,-62.9 50,-62.2 52.6,-61.4 52.6,-52.8 48.4,-52 					"/>
					<polygon class="st16" points="44.5,-53.7 45.8,-46.7 43.8,-45.2 39.8,-48.3 					"/>
					<polygon class="st17" points="38.1,-56.6 43.3,-60.1 44.3,-54.9 44.5,-53.8 44.5,-53.7 39.8,-48.3 39.7,-48.4 39.6,-48.5 
						37.7,-49.9 					"/>
					<polygon class="st26" points="35.5,-62.1 39.3,-62.4 47.5,-62.9 43.3,-60.1 38.1,-56.6 36.1,-58.9 					"/>
					<line class="st5" x1="48.5" y1="-51.1" x2="48.5" y2="-51"/>
					<path class="st17" d="M45.8-40.7l3.6-2.5l2-1.4l-4.6-2.8l-1,0.7l-2,1.5l-1.2,0.8L45.8-40.7L45.8-40.7z M46.3-45.2l1.3,2
						l-1.7,0.9l-2-1.8L46.3-45.2L46.3-45.2z"/>
					<polygon class="st18" points="43.9,-44.1 46.3,-45.2 47.6,-43.2 45.9,-42.3 					"/>
					<polygon class="st19" points="46.8,-47.4 51.7,-48.2 55.3,-48.8 55.4,-45.2 51.4,-44.6 					"/>
					<polygon class="st27" points="43.3,-60.1 47.5,-62.9 48.4,-52 48.5,-51.1 44.3,-54.9 					"/>
					<polygon class="st20" points="44.3,-54.9 48.5,-51.1 51.7,-48.2 46.8,-47.4 45.8,-46.7 44.5,-53.7 44.5,-53.8 					"/>
					<line class="st5" x1="45.8" y1="-46.7" x2="45.8" y2="-46.7"/>
					<polygon class="st28" points="49,-72.2 53.8,-66.6 50,-62.2 47.5,-62.9 					"/>
					<polygon class="st29" points="34.6,-80.2 42.5,-79.1 51.8,-77.7 47,-74.5 45.2,-71.7 38.1,-70.6 35.6,-77.5 					"/>
					<polygon class="st25" points="23.3,-73.1 27,-75.4 34.6,-80.2 35.6,-77.5 35.5,-77.4 29.4,-70.1 					"/>
					<polygon class="st23" points="35.5,-77.4 35.6,-77.5 38.1,-70.6 35.1,-70.2 34.6,-67.7 29.4,-70.1 					"/>
					<path class="st5" d="M48.5-28.6"/>
				</g>
				<g>
					<polygon class="st8" points="4.8,-47.8 3,-44.5 6.2,-45.4 9.4,-50 10.3,-54.5 9.4,-55.5 7.4,-55 3,-57.4 0.6,-54.8 					"/>
					<polygon class="st1" points="0.1,-62.9 0.6,-60.5 3,-57.4 8,-60.5 10,-66.7 5.6,-69.9 					"/>
					<polygon class="st13" points="8,-60.5 11.2,-55.9 11.9,-57 13.2,-59.3 10,-66.7 					"/>
					<polygon class="st14" points="3,-57.4 7.4,-55 9.4,-55.5 10.3,-54.5 11.2,-55.9 8,-60.5 					"/>
					<path class="st5" d="M9.4-74.3"/>
				</g>
			</g>
			<g>
				<polygon class="st22" points="124.8,-15.9 115.9,-13.3 116.8,-9.4 124.6,-4 				"/>
				<g>
					<polygon class="st8" points="157.7,-15 158.7,-18.7 160.3,-15.8 159.6,-10.3 157.1,-6.5 155.8,-6.3 154.7,-8.1 149.9,-9.2 
						149.8,-12.8 					"/>
					<polygon class="st9" points="153.5,-16.8 157.7,-15 149.8,-12.8 					"/>
					<polygon class="st10" points="142.9,-16 147.1,-16.8 153.3,-18 153.5,-16.8 149.8,-12.8 146.2,-12.2 143,-15.1 					"/>
					<polygon class="st11" points="147.1,-25.4 152.4,-23.8 153.3,-18 147.1,-16.8 					"/>
					<polygon class="st12" points="151.7,-34.4 152.2,-31.5 152.4,-23.8 147.1,-25.4 144.5,-26.2 148.3,-30.6 					"/>
					<polygon class="st21" points="141.5,-38.5 146.3,-41.7 149.7,-44 150.4,-42.8 151.7,-34.4 148.3,-30.6 143.5,-36.2 					"/>
					<polygon class="st22" points="144.9,-51.9 149.7,-44 146.3,-41.7 137,-43.1 					"/>
					<polygon class="st23" points="121.5,-39.4 117.8,-37.1 114.2,-31 109.7,-37.7 109.3,-38.5 					"/>
					<polygon class="st24" points="117.8,-37.1 123.9,-34.1 129.1,-31.7 127.9,-25.9 119.5,-24.8 115.6,-29 114.2,-31 					"/>
					<polygon class="st6" points="119.5,-24.8 127.9,-25.9 130,-26.1 130.6,-22.9 127.7,-13.7 123.1,-20.9 					"/>
					<polygon class="st25" points="129.6,-34.2 132.6,-34.6 139.7,-35.7 133.8,-26.4 130,-26.1 127.9,-25.9 129.1,-31.7 					"/>
					<polygon class="st7" points="130.6,-22.9 132.6,-20.6 132.2,-13.9 131.8,-5 129.4,-11 127.7,-13.7 					"/>
					<polygon class="st4" points="132.2,-13.9 134.1,-12.5 134.2,-12.4 134.3,-12.3 138.3,-9.2 137.1,-8.4 133.6,-3.6 131.8,-5 
											"/>
					<polygon class="st24" points="141.5,-38.5 143.5,-36.2 142,-26.9 133.8,-26.4 139.7,-35.7 					"/>
					<polygon class="st15" points="142,-26.9 144.5,-26.2 147.1,-25.4 147.1,-16.8 142.9,-16 					"/>
					<polygon class="st16" points="139,-17.7 140.3,-10.7 138.3,-9.2 134.3,-12.3 					"/>
					<polygon class="st17" points="132.6,-20.6 137.8,-24.1 138.8,-18.9 139,-17.8 139,-17.7 134.3,-12.3 134.2,-12.4 134.1,-12.5 
						132.2,-13.9 					"/>
					<polygon class="st26" points="130,-26.1 133.8,-26.4 142,-26.9 137.8,-24.1 132.6,-20.6 130.6,-22.9 					"/>
					<line class="st5" x1="143" y1="-15.1" x2="143" y2="-15"/>
					<polygon class="st27" points="137.8,-24.1 142,-26.9 142.9,-16 143,-15.1 138.8,-18.9 					"/>
					<polygon class="st20" points="138.8,-18.9 143,-15.1 146.2,-12.2 141.3,-11.4 140.3,-10.7 139,-17.7 139,-17.8 					"/>
					<polygon class="st28" points="143.5,-36.2 148.3,-30.6 144.5,-26.2 142,-26.9 					"/>
					<polygon class="st29" points="129.1,-44.2 137,-43.1 146.3,-41.7 141.5,-38.5 139.7,-35.7 132.6,-34.6 130.1,-41.5 					"/>
					<polygon class="st25" points="117.8,-37.1 121.5,-39.4 129.1,-44.2 130.1,-41.5 130,-41.4 123.9,-34.1 					"/>
					<polygon class="st23" points="130,-41.4 130.1,-41.5 132.6,-34.6 129.6,-34.2 129.1,-31.7 123.9,-34.1 					"/>
				</g>
				<g>
					<polygon class="st8" points="99.3,-11.8 97.5,-8.5 100.7,-9.4 103.9,-14 104.8,-18.5 103.9,-19.5 101.9,-19 97.5,-21.4 
						95.1,-18.8 					"/>
					<polygon class="st9" points="95,-13.4 99.3,-11.8 95.1,-18.8 					"/>
					<polygon class="st10" points="87.8,-21.2 90.4,-17.8 94.1,-12.7 95,-13.4 95.1,-18.8 92.8,-21.7 88.5,-21.8 					"/>
					<polygon class="st11" points="84.5,-11.4 89.5,-9 94.1,-12.7 90.4,-17.8 					"/>
					<polygon class="st23" points="56.2,-18.7 55.1,-22.9 56.7,-29.8 48.7,-28 47.9,-27.6 					"/>
					<polygon class="st24" points="55.1,-22.9 61.5,-20.9 67,-19.2 70.1,-24.2 64.7,-30.7 59,-30.3 56.7,-29.8 					"/>
					<polygon class="st6" points="64.7,-30.7 70.1,-24.2 71.5,-22.6 74.1,-24.5 78.3,-33.3 70,-31.1 					"/>
					<polygon class="st25" points="65.7,-17 67.6,-14.6 72.1,-9 74.1,-19.9 71.5,-22.6 70.1,-24.2 67,-19.2 					"/>
					<polygon class="st7" points="74.1,-24.5 77.1,-24.9 81.5,-30 87.2,-36.8 81.3,-34.1 78.3,-33.3 					"/>
					<polygon class="st1" points="94.6,-26.9 95.1,-24.5 97.5,-21.4 102.5,-24.5 104.5,-30.7 100.1,-33.9 					"/>
					<polygon class="st13" points="102.5,-24.5 105.7,-19.9 106.4,-21 107.7,-23.3 104.5,-30.7 					"/>
					<polygon class="st14" points="97.5,-21.4 101.9,-19 103.9,-19.5 104.8,-18.5 105.7,-19.9 102.5,-24.5 					"/>
					<polygon class="st2" points="93.6,-31.2 94.6,-26.9 100.1,-33.9 97.4,-35.9 94.6,-36.2 					"/>
					<polygon class="st3" points="88.8,-30.7 93.6,-31.2 94.6,-36.2 89.5,-36.6 					"/>
					<polygon class="st4" points="81.5,-30 83.8,-29.8 83.9,-29.8 84.1,-29.8 89.1,-29.3 88.8,-30.7 89.5,-36.6 87.2,-36.8 					"/>
					<polygon class="st24" points="71.5,-5.7 74.5,-6 79.7,-13.8 74.1,-19.9 72.1,-9 					"/>
					<polygon class="st15" points="79.7,-13.8 82,-12.7 84.5,-11.4 90.4,-17.8 87.8,-21.2 					"/>
					<polygon class="st16" points="83.8,-22.6 89.6,-26.9 89.1,-29.3 84.1,-29.8 					"/>
					<polygon class="st17" points="77.1,-24.9 78.5,-18.7 82.9,-21.9 83.7,-22.5 83.8,-22.6 84.1,-29.8 83.9,-29.8 83.8,-29.8 
						81.5,-30 					"/>
					<polygon class="st26" points="71.5,-22.6 74.1,-19.9 79.7,-13.8 78.5,-18.7 77.1,-24.9 74.1,-24.5 					"/>
					<line class="st5" x1="88.5" y1="-21.8" x2="88.6" y2="-21.9"/>
					<path class="st17" d="M88.8-30.7l0.3,1.4l0.5,2.5l0.2,1.2l5.3,1.1l-0.5-2.3l-0.9-4.3L88.8-30.7L88.8-30.7z M89.9-30h2.7
						l0.6,1.8l-2.3,0.6C90.9-27.6,89.9-30,89.9-30z"/>
					<polygon class="st18" points="89.9,-30 90.9,-27.6 93.2,-28.2 92.6,-30 					"/>
					<polygon class="st19" points="89.8,-25.7 92.8,-21.7 95.1,-18.8 97.5,-21.4 95.1,-24.5 					"/>
					<polygon class="st27" points="78.5,-18.7 79.7,-13.8 87.8,-21.2 88.5,-21.8 82.9,-21.9 					"/>
					<polygon class="st20" points="82.9,-21.9 88.5,-21.8 92.8,-21.7 89.8,-25.7 89.6,-26.9 83.8,-22.6 83.7,-22.5 					"/>
					<line class="st5" x1="89.6" y1="-26.9" x2="89.6" y2="-26.9"/>
					<polygon class="st28" points="74.5,-6 81.9,-6.8 82,-12.7 79.7,-13.8 					"/>
					<polygon class="st29" points="58.5,-9.9 65,-5.4 72.8,-0.1 71.5,-5.7 72.1,-9 67.6,-14.6 61.1,-11.3 					"/>
					<polygon class="st25" points="55.1,-22.9 56.2,-18.7 58.5,-9.9 61.1,-11.3 61.1,-11.4 61.5,-20.9 					"/>
					<polygon class="st23" points="61.1,-11.4 61.1,-11.3 67.6,-14.6 65.7,-17 67,-19.2 61.5,-20.9 					"/>
					<path class="st5" d="M103.9-38.3"/>
				</g>
			</g>
			<polygon class="st22" points="50.4,-15.9 55.2,-8 51.8,-5.7 42.5,-7.1 			"/>
		</g>
	</g>
</pattern>
<rect y="0" class="st30" width="288" height="216"/>
<g>
	<pattern  id="SVGID_1_" xlink:href="#Lorikeet" patternTransform="matrix(1 0 0 -1 -317.43 -16048.6846)">
	</pattern>
	<rect y="0" class="st31" width="288" height="216"/>
	
		<pattern  id="SVGID_00000175284594526493096850000005706286524447900576_" xlink:href="#Lorikeet" patternTransform="matrix(1 0 0 -1 -317.43 -16048.6846)">
	</pattern>
	<rect y="0" style="fill:url(#SVGID_00000175284594526493096850000005706286524447900576_);" width="288" height="216"/>
</g>
</svg>
