<?xml version="1.0" encoding="UTF-8"?>
<svg id="Layer_2" data-name="Layer 2" xmlns="http://www.w3.org/2000/svg" xmlns:xlink="http://www.w3.org/1999/xlink" viewBox="0 0 423.15 317.36">
  <defs>
    <style>
      .cls-1 {
        fill: #97aad7;
      }

      .cls-1, .cls-2, .cls-3, .cls-4, .cls-5, .cls-6, .cls-7, .cls-8, .cls-9, .cls-10, .cls-11, .cls-12, .cls-13, .cls-14, .cls-15, .cls-16, .cls-17, .cls-18, .cls-19, .cls-20, .cls-21, .cls-22, .cls-23, .cls-24, .cls-25, .cls-26, .cls-27, .cls-28, .cls-29, .cls-30 {
        stroke-width: 0px;
      }

      .cls-2 {
        fill: #cc132f;
      }

      .cls-3 {
        fill: #9f3523;
      }

      .cls-4 {
        fill: #c3162d;
      }

      .cls-5 {
        fill: #335725;
      }

      .cls-6 {
        fill: #15385e;
      }

      .cls-7 {
        fill: #2e5182;
      }

      .cls-8 {
        fill: #3a5582;
      }

      .cls-9 {
        fill: #295f2a;
      }

      .cls-31 {
        stroke: #1d1d1b;
        stroke-miterlimit: 10;
        stroke-width: .49px;
      }

      .cls-31, .cls-17 {
        fill: none;
      }

      .cls-10 {
        fill: #0e395a;
      }

      .cls-11 {
        fill: #c7461a;
      }

      .cls-12 {
        fill: #bc1d2c;
      }

      .cls-13 {
        fill: #4e5f97;
      }

      .cls-14 {
        fill: #e0e0e0;
      }

      .cls-15 {
        fill: #6576ac;
      }

      .cls-16 {
        fill: #415f35;
      }

      .cls-18 {
        fill: #0e3b5f;
      }

      .cls-19 {
        fill: #435887;
      }

      .cls-20 {
        fill: #a8191f;
      }

      .cls-21 {
        fill: #123f66;
      }

      .cls-22 {
        fill: #194a7b;
      }

      .cls-23 {
        fill: #1f4877;
      }

      .cls-24 {
        fill: #133e6c;
      }

      .cls-25 {
        fill: url(#New_Pattern_2);
      }

      .cls-26 {
        fill: #bf181a;
      }

      .cls-27 {
        fill: #c9242c;
      }

      .cls-28 {
        fill: #961823;
      }

      .cls-29 {
        fill: #2d2f37;
      }

      .cls-30 {
        fill: #155484;
      }
    </style>
    <pattern id="New_Pattern_2" data-name="New Pattern 2" x="0" y="0" width="134.39" height="174.7" patternTransform="translate(-2043.31 -2436.83) scale(.75)" patternUnits="userSpaceOnUse" viewBox="0 0 134.39 174.7">
      <g>
        <rect class="cls-17" x="0" width="134.39" height="174.7"/>
        <g>
          <polygon class="cls-28" points="14.67 32.97 9.41 49.5 5.72 61.07 1.69 59.53 -16.91 42.21 -16.06 26.96 5.7 31.22 14.67 32.97"/>
          <polygon class="cls-12" points="34.81 .74 28.57 7.31 13.7 22.99 10.48 -10.01 18.89 -17.63 23.31 -22.07 31.3 -6.23 34.81 .74"/>
          <polygon class="cls-27" points="14.67 32.97 5.7 31.22 -7.83 6.57 10.48 -10.01 13.7 22.99 14.67 32.97"/>
          <polygon class="cls-9" points="18.89 -17.63 10.48 -10.01 -7.83 6.57 -3.18 -7.78 2.64 -25.72 11.48 -23.95 18.89 -17.63"/>
          <polygon class="cls-26" points="5.7 31.22 -16.06 26.96 -15.08 9.46 -7.83 6.57 5.7 31.22"/>
          <polygon class="cls-2" points="54.5 23.53 33.86 35.42 9.41 49.5 14.67 32.97 13.7 22.99 28.57 7.31 47.14 18.92 54.5 23.53"/>
          <polygon class="cls-12" points="67.86 -14.41 63.56 -2.21 54.5 23.53 47.14 18.92 47.18 18.39 48.2 -10.01 67.86 -14.41"/>
          <polygon class="cls-4" points="47.18 18.39 47.14 18.92 28.57 7.31 34.81 .74 31.3 -6.23 48.2 -10.01 47.18 18.39"/>
        </g>
        <g>
          <polygon class="cls-11" points="67.39 7.73 72.04 18.26 62.68 14.48 54.2 .19 52.81 -13.52 55.74 -16.27 61.62 -14.28 75.1 -20.53 81.83 -12.19 67.39 7.73"/>
          <polygon class="cls-3" points="80.6 4 67.39 7.73 81.83 -12.19 80.6 4"/>
          <polygon class="cls-18" points="104.04 -17.59 95.58 -7.83 83.2 6.44 80.6 4 81.83 -12.19 89.28 -20.32 102.29 -19.47 104.04 -17.59"/>
          <polygon class="cls-10" points="111.54 12.55 96.19 18.66 83.2 6.44 95.58 -7.83 111.54 12.55"/>
          <polygon class="cls-20" points="117.48 42.21 111.07 36.26 96.19 18.66 111.54 12.55 119.31 9.46 118.33 26.96 117.48 42.21"/>
          <polygon class="cls-28" points="149.06 32.97 143.79 49.5 140.1 61.07 136.08 59.53 117.48 42.21 118.33 26.96 140.09 31.22 149.06 32.97"/>
          <polygon class="cls-27" points="149.06 32.97 140.09 31.22 126.56 6.57 144.87 -10.01 148.09 22.99 149.06 32.97"/>
          <polygon class="cls-21" points="126.56 6.57 119.31 9.46 111.54 12.55 95.58 -7.83 104.04 -17.59 126.56 6.57"/>
          <polygon class="cls-9" points="153.28 -17.63 144.87 -10.01 126.56 6.57 131.21 -7.78 137.03 -25.72 145.86 -23.95 153.28 -17.63"/>
          <polygon class="cls-6" points="131.21 -7.78 126.56 6.57 104.04 -17.59 102.29 -19.47 119.11 -18.37 131.21 -7.78"/>
          <polygon class="cls-26" points="140.09 31.22 118.33 26.96 119.31 9.46 126.56 6.57 140.09 31.22"/>
        </g>
        <g>
          <polygon class="cls-27" points=".66 72.94 -19 77.34 -35.9 81.12 -43.88 65.29 -25.88 47.2 -9.04 49.79 -2.19 51.99 .66 72.94"/>
          <polygon class="cls-12" points=".66 72.94 -3.63 85.14 -12.69 110.88 -20.06 106.28 -20.01 105.74 -19 77.34 .66 72.94"/>
        </g>
        <g>
          <polygon class="cls-11" points=".19 95.09 4.84 105.61 -4.51 101.83 -13 87.54 -14.39 73.83 -11.45 71.08 -5.57 73.07 7.91 66.82 14.64 75.16 .19 95.09"/>
          <polygon class="cls-3" points="13.4 91.35 .19 95.09 14.64 75.16 13.4 91.35"/>
          <polygon class="cls-18" points="36.85 69.77 28.39 79.52 16 93.8 13.4 91.35 14.64 75.16 22.08 67.03 35.1 67.88 36.85 69.77"/>
          <polygon class="cls-10" points="44.35 99.9 28.99 106.01 16 93.8 28.39 79.52 44.35 99.9"/>
          <polygon class="cls-20" points="50.28 129.57 43.88 123.61 28.99 106.01 44.35 99.9 52.11 96.81 51.14 114.31 50.28 129.57"/>
          <polygon class="cls-28" points="81.87 120.33 76.6 136.85 72.91 148.43 68.88 146.88 50.28 129.57 51.14 114.31 72.89 118.57 81.87 120.33"/>
          <polygon class="cls-27" points="135.05 72.94 115.39 77.34 98.49 81.12 90.5 65.29 108.51 47.2 125.35 49.79 132.2 51.99 135.05 72.94"/>
          <polygon class="cls-5" points="108.51 47.2 90.5 65.29 86.09 69.72 78.67 63.4 68.48 36.2 92.6 44.75 108.51 47.2"/>
          <polygon class="cls-12" points="102 88.09 95.76 94.66 80.89 110.34 77.67 77.34 86.09 69.72 90.5 65.29 98.49 81.12 102 88.09"/>
          <polygon class="cls-16" points="78.67 63.4 69.84 61.63 58.07 45.1 42.57 23.31 59.5 33.01 68.48 36.2 78.67 63.4"/>
          <polygon class="cls-15" points="18.15 51.3 16.06 58.18 7.91 66.82 -6.25 56.31 -10.65 37.3 3.27 28.8 18.15 51.3"/>
          <polygon class="cls-1" points="-6.25 56.31 -16.81 69.46 -18.79 65.86 -22.11 58.68 -10.65 37.3 -6.25 56.31"/>
          <polygon class="cls-13" points="7.91 66.82 -5.57 73.07 -11.45 71.08 -14.39 73.83 -16.81 69.46 -6.25 56.31 7.91 66.82"/>
          <polygon class="cls-19" points="22 38.63 18.15 51.3 3.27 28.8 11.92 23.52 20.47 23.46 22 38.63"/>
          <polygon class="cls-8" points="36.3 41.18 22 38.63 20.47 23.46 35.89 23.35 36.3 41.18"/>
          <polygon class="cls-7" points="58.07 45.1 51.11 45.15 50.78 45.16 50.31 45.16 35.15 45.27 36.3 41.18 35.89 23.35 42.57 23.31 58.07 45.1"/>
          <polygon class="cls-27" points="81.87 120.33 72.89 118.57 59.37 93.92 77.67 77.34 80.89 110.34 81.87 120.33"/>
          <polygon class="cls-21" points="59.37 93.92 52.11 96.81 44.35 99.9 28.39 79.52 36.85 69.77 59.37 93.92"/>
          <polygon class="cls-23" points="49.23 66.64 33.11 52.55 35.15 45.27 50.31 45.16 49.23 66.64"/>
          <polygon class="cls-24" points="69.84 61.63 64.02 79.58 51.91 68.99 49.57 66.94 49.23 66.64 50.31 45.16 50.78 45.16 51.11 45.15 58.07 45.1 69.84 61.63"/>
          <polygon class="cls-9" points="86.09 69.72 77.67 77.34 59.37 93.92 64.02 79.58 69.84 61.63 78.67 63.4 86.09 69.72"/>
          <line class="cls-31" x1="35.1" y1="67.88" x2="34.79" y2="67.56"/>
          <path class="cls-24" d="M36.3,41.18l-1.15,4.09-2.04,7.28-.99,3.51-16.07,2.11,2.09-6.88,3.86-12.66,14.3,2.54ZM32.87,43l-8.06-.67-2.34,5.34,6.72,2.29,3.69-6.95Z"/>
          <polygon class="cls-29" points="32.87 43 29.18 49.95 22.46 47.66 24.8 42.32 32.87 43"/>
          <polygon class="cls-30" points="32.12 56.07 22.08 67.03 14.64 75.16 7.91 66.82 16.06 58.18 32.12 56.07"/>
          <polygon class="cls-6" points="64.02 79.58 59.37 93.92 36.85 69.77 35.1 67.88 51.91 68.99 64.02 79.58"/>
          <polygon class="cls-22" points="51.91 68.99 35.1 67.88 22.08 67.03 32.12 56.07 33.11 52.55 49.23 66.64 49.57 66.94 51.91 68.99"/>
          <line class="cls-31" x1="33.11" y1="52.55" x2="33.11" y2="52.54"/>
          <polygon class="cls-26" points="72.89 118.57 51.14 114.31 52.11 96.81 59.37 93.92 72.89 118.57"/>
          <polygon class="cls-2" points="121.7 110.88 101.05 122.77 76.6 136.85 81.87 120.33 80.89 110.34 95.76 94.66 114.33 106.28 121.7 110.88"/>
          <polygon class="cls-12" points="135.05 72.94 130.76 85.14 121.7 110.88 114.33 106.28 114.38 105.74 115.39 77.34 135.05 72.94"/>
          <polygon class="cls-4" points="114.38 105.74 114.33 106.28 95.76 94.66 102 88.09 98.49 81.12 115.39 77.34 114.38 105.74"/>
          <path class="cls-31" d="M-6.76,14.82"/>
        </g>
        <g>
          <polygon class="cls-11" points="134.58 95.09 139.23 105.61 129.87 101.83 121.39 87.54 120 73.83 122.94 71.08 128.82 73.07 142.29 66.82 149.03 75.16 134.58 95.09"/>
          <polygon class="cls-15" points="152.54 51.3 150.44 58.18 142.29 66.82 128.14 56.31 123.74 37.3 137.66 28.8 152.54 51.3"/>
          <polygon class="cls-1" points="128.14 56.31 117.58 69.46 115.6 65.86 112.28 58.68 123.74 37.3 128.14 56.31"/>
          <polygon class="cls-13" points="142.29 66.82 128.82 73.07 122.94 71.08 120 73.83 117.58 69.46 128.14 56.31 142.29 66.82"/>
          <path class="cls-31" d="M127.63,14.82"/>
        </g>
        <g>
          <polygon class="cls-27" points="67.86 160.29 48.2 164.69 31.3 168.48 23.31 152.64 41.32 134.55 58.16 137.14 65.01 139.34 67.86 160.29"/>
          <polygon class="cls-5" points="41.32 134.55 23.31 152.64 18.89 157.07 11.48 150.75 1.29 123.55 25.41 132.11 41.32 134.55"/>
          <polygon class="cls-12" points="34.81 175.44 28.57 182.02 13.7 197.69 10.48 164.69 18.89 157.07 23.31 152.64 31.3 168.48 34.81 175.44"/>
          <polygon class="cls-16" points="11.48 150.75 2.64 148.98 -9.12 132.45 -24.62 110.66 -7.7 120.36 1.29 123.55 11.48 150.75"/>
          <polygon class="cls-27" points="14.67 207.68 5.7 205.92 -7.83 181.27 10.48 164.69 13.7 197.69 14.67 207.68"/>
          <polygon class="cls-24" points="2.64 148.98 -3.18 166.93 -15.28 156.34 -17.62 154.29 -17.96 154 -16.89 132.51 -16.41 132.51 -16.08 132.5 -9.12 132.45 2.64 148.98"/>
          <polygon class="cls-9" points="18.89 157.07 10.48 164.69 -7.83 181.27 -3.18 166.93 2.64 148.98 11.48 150.75 18.89 157.07"/>
          <polygon class="cls-12" points="67.86 160.29 63.56 172.49 54.5 198.23 47.14 193.63 47.18 193.09 48.2 164.69 67.86 160.29"/>
          <polygon class="cls-4" points="47.18 193.09 47.14 193.63 28.57 182.02 34.81 175.44 31.3 168.48 48.2 164.69 47.18 193.09"/>
        </g>
        <g>
          <polygon class="cls-11" points="67.39 182.44 72.04 192.96 62.68 189.19 54.2 174.89 52.81 161.19 55.74 158.44 61.62 160.42 75.1 154.18 81.83 162.52 67.39 182.44"/>
          <polygon class="cls-3" points="80.6 178.71 67.39 182.44 81.83 162.52 80.6 178.71"/>
          <polygon class="cls-18" points="104.04 157.12 95.58 166.87 83.2 181.15 80.6 178.71 81.83 162.52 89.28 154.38 102.29 155.24 104.04 157.12"/>
          <polygon class="cls-10" points="111.54 187.25 96.19 193.36 83.2 181.15 95.58 166.87 111.54 187.25"/>
          <polygon class="cls-16" points="145.86 150.75 137.03 148.98 125.27 132.45 109.76 110.66 126.69 120.36 135.68 123.55 145.86 150.75"/>
          <polygon class="cls-15" points="85.34 138.65 83.25 145.53 75.1 154.18 60.95 143.67 56.55 124.65 70.47 116.15 85.34 138.65"/>
          <polygon class="cls-1" points="60.95 143.67 50.39 156.81 48.4 153.22 45.09 146.03 56.55 124.65 60.95 143.67"/>
          <polygon class="cls-13" points="75.1 154.18 61.62 160.42 55.74 158.44 52.81 161.19 50.39 156.81 60.95 143.67 75.1 154.18"/>
          <polygon class="cls-19" points="89.2 125.99 85.34 138.65 70.47 116.15 79.11 110.87 87.66 110.81 89.2 125.99"/>
          <polygon class="cls-8" points="103.5 128.53 89.2 125.99 87.66 110.81 103.08 110.7 103.5 128.53"/>
          <polygon class="cls-7" points="125.27 132.45 118.3 132.5 117.98 132.51 117.5 132.51 102.35 132.62 103.5 128.53 103.08 110.7 109.76 110.66 125.27 132.45"/>
          <polygon class="cls-27" points="149.06 207.68 140.09 205.92 126.56 181.27 144.87 164.69 148.09 197.69 149.06 207.68"/>
          <polygon class="cls-21" points="126.56 181.27 119.31 184.16 111.54 187.25 95.58 166.87 104.04 157.12 126.56 181.27"/>
          <polygon class="cls-23" points="116.43 154 100.31 139.9 102.35 132.62 117.5 132.51 116.43 154"/>
          <polygon class="cls-24" points="137.03 148.98 131.21 166.93 119.11 156.34 116.77 154.29 116.43 154 117.5 132.51 117.98 132.51 118.3 132.5 125.27 132.45 137.03 148.98"/>
          <polygon class="cls-9" points="153.28 157.07 144.87 164.69 126.56 181.27 131.21 166.93 137.03 148.98 145.86 150.75 153.28 157.07"/>
          <line class="cls-31" x1="102.29" y1="155.24" x2="101.99" y2="154.91"/>
          <path class="cls-24" d="M103.5,128.53l-1.15,4.09-2.04,7.28-.99,3.51-16.07,2.11,2.09-6.88,3.86-12.66,14.3,2.54ZM100.06,130.35l-8.06-.67-2.34,5.34,6.72,2.29,3.69-6.95Z"/>
          <polygon class="cls-29" points="100.06 130.35 96.37 137.3 89.65 135.01 92 129.68 100.06 130.35"/>
          <polygon class="cls-30" points="99.32 143.42 89.28 154.38 81.83 162.52 75.1 154.18 83.25 145.53 99.32 143.42"/>
          <polygon class="cls-6" points="131.21 166.93 126.56 181.27 104.04 157.12 102.29 155.24 119.11 156.34 131.21 166.93"/>
          <polygon class="cls-22" points="119.11 156.34 102.29 155.24 89.28 154.38 99.32 143.42 100.31 139.9 116.43 154 116.77 154.29 119.11 156.34"/>
          <line class="cls-31" x1="100.31" y1="139.9" x2="100.3" y2="139.9"/>
          <path class="cls-31" d="M60.44,102.17"/>
        </g>
      </g>
    </pattern>
  </defs>
  <g id="Layer_1-2" data-name="Layer 1">
    <g>
      <rect class="cls-14" width="423.15" height="317.36"/>
      <rect class="cls-25" width="423.15" height="317.36"/>
    </g>
  </g>
</svg>