<?xml version="1.0" encoding="UTF-8"?>
<svg id="Layer_1" data-name="Layer 1" xmlns="http://www.w3.org/2000/svg" xmlns:xlink="http://www.w3.org/1999/xlink" viewBox="0 0 288 216">
  <defs>
    <style>
      .cls-1 {
        fill: #3d3a3f;
      }

      .cls-1, .cls-2, .cls-3, .cls-4, .cls-5, .cls-6, .cls-7, .cls-8, .cls-9, .cls-10, .cls-11, .cls-12, .cls-13, .cls-14, .cls-15, .cls-16, .cls-17, .cls-18, .cls-19, .cls-20, .cls-21, .cls-22, .cls-23, .cls-24, .cls-25, .cls-26, .cls-27, .cls-28, .cls-29, .cls-30, .cls-31, .cls-32, .cls-33, .cls-34, .cls-35, .cls-36, .cls-37, .cls-38, .cls-39, .cls-40, .cls-41, .cls-42, .cls-43, .cls-44, .cls-45, .cls-46, .cls-47, .cls-48, .cls-49, .cls-50, .cls-51, .cls-52, .cls-53, .cls-54, .cls-55, .cls-56, .cls-57, .cls-58, .cls-59, .cls-60 {
        stroke-width: 0px;
      }

      .cls-2 {
        fill: #181a1e;
      }

      .cls-3 {
        fill: #454348;
      }

      .cls-4 {
        fill: #7d8287;
      }

      .cls-5 {
        fill: #463736;
      }

      .cls-6 {
        fill: #574d55;
      }

      .cls-7 {
        fill: #4d4a4c;
      }

      .cls-8 {
        fill: #130b16;
      }

      .cls-9 {
        fill: #5d4a46;
      }

      .cls-10 {
        fill: #493936;
      }

      .cls-11 {
        fill: #504747;
      }

      .cls-12 {
        fill: #0b0c11;
      }

      .cls-13 {
        fill: #493d3d;
      }

      .cls-14 {
        fill: #524845;
      }

      .cls-61 {
        stroke: #231f20;
        stroke-miterlimit: 10;
        stroke-width: .23px;
      }

      .cls-61, .cls-22 {
        fill: none;
      }

      .cls-15 {
        fill: #372f2d;
      }

      .cls-16 {
        fill: #524441;
      }

      .cls-17 {
        fill: #6a66ff;
      }

      .cls-18 {
        fill: #2e2625;
      }

      .cls-19 {
        fill: #827a78;
      }

      .cls-20 {
        fill: #4e4140;
      }

      .cls-21 {
        fill: #544b4a;
      }

      .cls-23 {
        fill: #403231;
      }

      .cls-24 {
        fill: #524a49;
      }

      .cls-25 {
        fill: #25262b;
      }

      .cls-26 {
        fill: #594e4b;
      }

      .cls-27 {
        fill: #1f1a1d;
      }

      .cls-28 {
        fill: url(#RhinoWalk);
      }

      .cls-29 {
        fill: #363643;
      }

      .cls-30 {
        fill: #4f413e;
      }

      .cls-31 {
        fill: #13090d;
      }

      .cls-32 {
        fill: #2c2221;
      }

      .cls-33 {
        fill: #443d3c;
      }

      .cls-34 {
        fill: #2c2628;
      }

      .cls-35 {
        fill: #524747;
      }

      .cls-36 {
        fill: #565051;
      }

      .cls-37 {
        fill: #4f4b4c;
      }

      .cls-38 {
        fill: #332320;
      }

      .cls-39 {
        fill: #0b050c;
      }

      .cls-40 {
        fill: #281b1e;
      }

      .cls-41 {
        fill: #544d4d;
      }

      .cls-42 {
        fill: #524744;
      }

      .cls-43 {
        fill: #544d4c;
      }

      .cls-44 {
        fill: #050207;
      }

      .cls-45 {
        fill: #54423e;
      }

      .cls-46 {
        fill: #5d5e5f;
      }

      .cls-47 {
        fill: #0a070e;
      }

      .cls-48 {
        fill: #05030b;
      }

      .cls-49 {
        fill: #483738;
      }

      .cls-50 {
        fill: #483936;
      }

      .cls-51 {
        fill: #6b6767;
      }

      .cls-52 {
        fill: #3c3b42;
      }

      .cls-53 {
        fill: #251918;
      }

      .cls-54 {
        fill: #474344;
      }

      .cls-55 {
        fill: #61544f;
      }

      .cls-56 {
        fill: #575455;
      }

      .cls-57 {
        fill: #1b131c;
      }

      .cls-58 {
        fill: #564946;
      }

      .cls-59 {
        fill: #776763;
      }

      .cls-60 {
        fill: #251613;
      }
    </style>
    <pattern id="RhinoWalk" x="0" y="0" width="72" height="72" patternTransform="translate(-470.43 1.84)" patternUnits="userSpaceOnUse" viewBox="0 0 72 72">
      <g>
        <rect class="cls-22" width="72" height="72"/>
        <g>
          <polygon class="cls-35" points="45.72 69.32 45.14 71.19 44.62 72.85 39.69 64.55 45.72 69.32"/>
          <polygon class="cls-36" points="48 72.27 45.14 71.19 45.72 69.32 46.84 69.06 48.14 68.45 48 72.27"/>
          <polygon class="cls-26" points="48 72.27 47.77 72.79 47.13 74.25 46.11 76.61 45.39 73.55 44.62 72.85 45.14 71.19 48 72.27"/>
          <polygon class="cls-49" points="49.07 68.02 48.14 68.45 46.84 69.06 46.06 65.56 49.07 68.02"/>
          <path class="cls-43" d="M51.72,71.82l-.97-2.53-.78-2.04-.91.77-.93.43-.14,3.81-.23.52,3.96-.97ZM49.87,68.68l.75,1.13-1.13.37-.43-.61.81-.89Z"/>
          <polygon class="cls-60" points="53.04 76.16 51.02 76.81 47.13 74.25 47.77 72.79 51.72 71.82 53.04 76.16"/>
          <polygon class="cls-38" points="57.52 71.6 53.04 76.16 51.72 71.82 50.76 69.28 53.24 68.84 53.49 69 57.52 71.6"/>
          <polygon class="cls-3" points="62.72 60.81 59.87 64.85 59.86 64.85 59.42 63.82 53.79 68.74 53.3 65.15 53.3 65.15 55.96 63.81 56.32 59.5 59.88 56.13 62.72 60.81"/>
          <polygon class="cls-25" points="63.17 72.56 61.92 72.14 61.14 73.46 57.52 71.6 53.49 69 53.49 68.99 53.79 68.74 59.42 63.82 59.86 64.85 63.17 72.56 63.17 72.56"/>
          <polygon class="cls-27" points="73.12 71.32 72.84 74.91 62.21 74.18 62.21 74.01 61.14 73.46 61.92 72.14 63.17 72.56 63.17 72.56 69.07 66.59 69.08 66.58 69.09 68.89 73.12 71.32"/>
          <polygon class="cls-24" points="55.96 63.81 53.3 65.15 51.18 66.22 53.36 61.28 55.96 63.81"/>
          <polygon class="cls-29" points="55.96 63.81 53.36 61.28 52.23 57.19 55.21 59.88 55.96 63.81"/>
          <polygon class="cls-52" points="56.32 59.5 55.96 63.81 55.21 59.88 54.08 57.2 56.32 59.5"/>
          <polygon class="cls-51" points="80.9 65.46 76.9 61.39 72.39 63.65 69.03 61.29 67.73 60.37 67.73 60.37 69.87 56.2 73.16 56.99 76.79 57.58 78.66 57.3 79.57 60.8 80.9 65.46"/>
          <polygon class="cls-59" points="62.72 60.81 59.88 56.13 66.43 55.37 69.87 56.2 67.73 60.37 66.98 59.84 64.86 57.77 62.72 60.81"/>
          <polygon class="cls-57" points="50.62 69.82 49.48 70.19 49.06 69.58 49.87 68.68 50.62 69.82"/>
          <polygon class="cls-55" points="53.79 68.74 53.49 68.99 53.49 69 53.24 68.84 50.76 69.28 49.98 67.24 51.18 66.22 53.3 65.15 53.3 65.15 53.79 68.74"/>
          <polygon class="cls-14" points="69.03 61.29 59.87 64.85 62.72 60.81 64.86 57.77 66.98 59.84 67.73 60.37 67.73 60.37 69.03 61.29"/>
          <polygon class="cls-33" points="69.08 66.58 69.07 66.59 63.17 72.56 59.86 64.85 59.87 64.85 69.03 61.29 69.08 66.58"/>
          <polygon class="cls-13" points="79.26 75.03 73.12 71.32 69.09 68.89 69.08 66.58 69.03 61.29 72.39 63.65 76.03 66.22 79.26 75.03"/>
          <path class="cls-61" d="M62.72,60.81"/>
          <line class="cls-22" x1="59.86" y1="64.85" x2="59.87" y2="64.85"/>
          <polygon class="cls-57" points="39.69 64.55 45.3 70.67 44.62 72.85 39.69 64.55"/>
          <polygon class="cls-8" points="46.06 65.56 47.81 68.6 46.84 69.06 46.06 65.56"/>
        </g>
        <g>
          <polygon class="cls-27" points="1.12 71.32 .84 74.91 -9.79 74.18 -9.79 74.01 -10.86 73.46 -10.08 72.14 -8.83 72.56 -8.83 72.56 -2.93 66.59 -2.92 66.58 -2.91 68.89 1.12 71.32"/>
          <polygon class="cls-51" points="8.9 65.46 4.9 61.39 .39 63.65 -2.97 61.29 -4.27 60.37 -4.27 60.37 -2.13 56.2 1.16 56.99 4.79 57.58 6.66 57.3 7.57 60.8 8.9 65.46"/>
          <polygon class="cls-4" points="14.39 56.49 14.07 60.62 13.67 62.06 11.67 63.48 6.66 57.3 9.03 56.95 10.92 56.68 12.44 56.46 13.66 56.28 14.39 56.49"/>
          <polygon class="cls-60" points="7.26 75.03 4.41 77.22 .73 76.41 1.12 71.32 7.26 75.03"/>
          <polygon class="cls-37" points="21.73 62.53 16.05 68.36 14.45 62.12 17.76 58.33 18.34 57.66 20.08 58.18 21.12 58.25 21.16 58.69 21.43 61.25 21.73 62.53"/>
          <polygon class="cls-16" points="18.34 57.66 18.34 57.66 17.76 58.33 14.45 62.12 14.07 60.62 14.39 56.49 15.37 56.78 18.34 57.66"/>
          <polygon class="cls-46" points="24.6 58.5 24.02 58.99 22.69 60.11 21.52 58.73 21.12 58.25 24.6 58.5"/>
          <polygon class="cls-6" points="28.15 61 24.56 60.6 22.69 60.11 24.02 58.99 24.6 58.5 25.52 59.15 25.52 59.15 28.15 61"/>
          <polygon class="cls-21" points="32.09 67.31 31.58 71.22 31.11 72.03 30.85 72.53 26.78 69.69 31.05 64.96 31.49 65.95 32.09 67.31"/>
          <polygon class="cls-11" points="31.05 64.96 26.78 69.69 26.78 69.69 26.21 69.3 24.02 67.66 24.23 64.85 28.09 65.24 28.15 61 29.81 62.18 30.64 64.04 31.05 64.96"/>
          <polygon class="cls-9" points="30.85 72.53 29.06 76.01 29.06 76.01 26.6 76.69 24.9 75.52 26.21 69.3 26.78 69.69 26.78 69.69 30.85 72.53"/>
          <polygon class="cls-18" points="21.8 75.24 20.2 75.71 19.28 74.8 19.87 72.98 22.07 66.2 21.65 68.28 21.02 71.37 21.36 73.09 21.8 75.24"/>
          <polygon class="cls-30" points="26.21 69.3 25.43 69.91 21.42 68.18 22.07 66.2 24.02 67.66 26.21 69.3"/>
          <polygon class="cls-10" points="25.43 69.91 21.36 73.09 21.02 71.37 21.65 68.28 25.43 69.91"/>
          <polygon class="cls-23" points="26.21 69.3 24.9 75.52 21.36 73.09 25.43 69.91 26.21 69.3"/>
          <polygon class="cls-56" points="28.09 65.24 24.23 64.85 24.56 60.6 28.15 61 28.09 65.24"/>
          <polygon class="cls-42" points="19.87 72.98 11.63 74.72 10.07 75.05 10.84 72.28 13.67 62.06 14.07 60.62 14.45 62.12 16.05 68.36 19.87 72.98"/>
          <polygon class="cls-20" points="22.44 65.53 22.37 66.43 22.07 66.2 19.87 72.98 16.05 68.36 21.73 62.53 22.44 65.53"/>
          <polygon class="cls-41" points="13.67 62.06 10.84 72.28 9.11 73.61 8.7 69.52 8.79 67.3 8.9 65.46 11.67 63.48 13.67 62.06"/>
          <polygon class="cls-58" points="9.11 73.61 7.26 75.03 4.03 66.22 8.7 69.52 9.11 73.61"/>
          <polygon class="cls-14" points="8.84 66.41 8.7 69.52 4.03 66.22 .39 63.65 4.9 61.39 8.9 65.46 8.84 66.41"/>
          <path class="cls-61" d="M4.03,66.22"/>
          <polygon class="cls-13" points="7.26 75.03 1.12 71.32 -2.91 68.89 -2.92 66.58 -2.97 61.29 .39 63.65 4.03 66.22 7.26 75.03"/>
          <polygon class="cls-19" points="11.67 63.48 8.9 65.46 7.57 60.8 6.66 57.3 11.67 63.48"/>
          <polygon class="cls-7" points="21.12 58.25 22.69 60.11 22.37 66.43 21.73 62.53 21.43 61.25 21.12 58.25"/>
          <polygon class="cls-54" points="22.69 60.11 24.56 60.6 24.23 64.85 24.02 67.66 22.37 66.43 22.69 60.11"/>
          <polygon class="cls-12" points="32.31 72.84 31.11 72.03 31.58 71.22 32.31 72.84"/>
        </g>
        <g>
          <polygon class="cls-35" points="9.72 33.32 9.14 35.19 8.62 36.85 3.69 28.55 9.72 33.32"/>
          <polygon class="cls-36" points="12 36.27 9.14 35.19 9.72 33.32 10.84 33.06 12.14 32.45 12 36.27"/>
          <polygon class="cls-26" points="12 36.27 11.77 36.79 11.13 38.25 10.11 40.61 9.39 37.55 8.62 36.85 9.14 35.19 12 36.27"/>
          <polygon class="cls-49" points="13.07 32.02 12.14 32.45 10.84 33.06 10.06 29.56 13.07 32.02"/>
          <path class="cls-43" d="M15.72,35.82l-.97-2.53-.78-2.04-.91.77-.93.43-.14,3.81-.23.52,3.96-.97ZM13.87,32.68l.75,1.13-1.13.37-.43-.61.81-.89Z"/>
          <polygon class="cls-60" points="17.04 40.16 15.02 40.81 11.13 38.25 11.77 36.79 15.72 35.82 17.04 40.16"/>
          <polygon class="cls-44" points="15.02 40.81 13.12 41.43 10.11 40.61 11.13 38.25 15.02 40.81"/>
          <polygon class="cls-38" points="21.52 35.6 17.04 40.16 15.72 35.82 14.76 33.28 17.24 32.84 17.49 33 21.52 35.6"/>
          <polygon class="cls-3" points="26.72 24.81 23.87 28.85 23.86 28.85 23.42 27.82 17.79 32.74 17.3 29.15 17.3 29.15 19.96 27.81 20.32 23.5 23.88 20.13 26.72 24.81"/>
          <polygon class="cls-25" points="27.17 36.56 25.92 36.14 25.14 37.46 21.52 35.6 17.49 33 17.49 32.99 17.79 32.74 23.42 27.82 23.86 28.85 27.17 36.56 27.17 36.56"/>
          <polygon class="cls-27" points="37.12 35.32 36.84 38.91 26.21 38.18 26.21 38.01 25.14 37.46 25.92 36.14 27.17 36.56 27.17 36.56 33.07 30.59 33.08 30.58 33.09 32.89 37.12 35.32"/>
          <polygon class="cls-24" points="19.96 27.81 17.3 29.15 15.18 30.22 17.36 25.28 19.96 27.81"/>
          <polygon class="cls-29" points="19.96 27.81 17.36 25.28 16.23 21.19 19.21 23.88 19.96 27.81"/>
          <polygon class="cls-52" points="20.32 23.5 19.96 27.81 19.21 23.88 18.08 21.2 20.32 23.5"/>
          <polygon class="cls-51" points="44.9 29.46 40.9 25.39 36.39 27.65 33.03 25.29 31.73 24.37 31.73 24.37 33.87 20.2 37.16 20.99 40.79 21.58 42.66 21.3 43.57 24.8 44.9 29.46"/>
          <polygon class="cls-59" points="26.72 24.81 23.88 20.13 30.43 19.37 33.87 20.2 31.73 24.37 30.98 23.84 28.86 21.77 26.72 24.81"/>
          <polygon class="cls-4" points="50.39 20.49 50.07 24.62 49.67 26.06 47.67 27.48 42.66 21.3 45.03 20.95 46.92 20.68 48.44 20.46 49.66 20.28 50.39 20.49"/>
          <polygon class="cls-60" points="49.79 41.44 44.12 42.05 40.41 41.22 43.26 39.03 45.11 37.61 46.84 36.28 46.07 39.05 47.63 38.72 47.63 38.72 49.79 41.44"/>
          <polygon class="cls-38" points="55.87 36.98 55.28 38.8 50.1 41.4 49.79 41.44 47.63 38.72 47.63 38.72 55.87 36.98"/>
          <polygon class="cls-60" points="43.26 39.03 40.41 41.22 36.73 40.41 37.12 35.32 43.26 39.03"/>
          <path class="cls-47" d="M32.75,38.63l-.96,3.3-.59,1.01s-4.92-1.28-5.01-1.3l.03-3.46,6.54.45Z"/>
          <polygon class="cls-40" points="36.84 38.91 36.73 40.41 36.56 42.07 32.06 43.36 31.79 41.93 32.75 38.63 36.84 38.91"/>
          <polygon class="cls-1" points="28.72 50.83 25.55 51.33 22.86 50.95 25.5 47.63 28.01 48.41 28.72 50.83"/>
          <polygon class="cls-2" points="29.5 45.86 28.01 48.41 25.5 47.63 25.85 44.77 29.5 45.86"/>
          <path class="cls-34" d="M31.2,42.94l-1.7,2.91-3.64-1.09.32-2.63v-.5c.1.02,5.01,1.32,5.02,1.3Z"/>
          <polygon class="cls-15" points="36.56 42.07 36.29 44.79 32.76 47.05 32.06 43.36 36.56 42.07"/>
          <polygon class="cls-60" points="36.29 44.79 35.48 48.03 32.94 47.99 32.76 47.05 36.29 44.79"/>
          <polygon class="cls-39" points="36.84 50.7 32.37 50.8 30.91 49.74 32.94 47.99 35.48 48.03 36.84 50.7"/>
          <polygon class="cls-37" points="57.73 26.53 52.05 32.36 50.45 26.12 53.76 22.33 54.34 21.66 56.08 22.18 57.12 22.25 57.16 22.69 57.43 25.25 57.73 26.53"/>
          <polygon class="cls-16" points="54.34 21.66 54.34 21.66 53.76 22.33 50.45 26.12 50.07 24.62 50.39 20.49 51.37 20.78 54.34 21.66"/>
          <polygon class="cls-46" points="60.6 22.5 60.02 22.99 58.69 24.11 57.52 22.73 57.12 22.25 60.6 22.5"/>
          <polygon class="cls-6" points="64.15 25 60.56 24.6 58.69 24.11 60.02 22.99 60.6 22.5 61.52 23.15 61.52 23.15 64.15 25"/>
          <polygon class="cls-21" points="68.09 31.31 67.58 35.22 67.11 36.03 66.85 36.53 62.78 33.69 67.05 28.96 67.49 29.95 68.09 31.31"/>
          <polygon class="cls-11" points="67.05 28.96 62.78 33.69 62.78 33.69 62.21 33.3 60.02 31.66 60.23 28.85 64.09 29.24 64.15 25 65.81 26.18 66.64 28.04 67.05 28.96"/>
          <polygon class="cls-9" points="66.85 36.53 65.06 40.01 65.06 40.01 62.6 40.69 60.9 39.52 62.21 33.3 62.78 33.69 62.78 33.69 66.85 36.53"/>
          <polygon class="cls-5" points="63.95 42.18 63.94 42.67 61.1 45.58 58.43 49.53 59.22 45.93 59.54 44.44 59.1 43.24 58.81 42.47 60.38 41.29 62.6 40.69 65.06 40.01 63.95 42.18"/>
          <polygon class="cls-48" points="59.22 45.93 58.43 49.53 56.1 50.46 55.61 49.6 57.88 45.62 59.22 45.93"/>
          <polygon class="cls-32" points="59.54 44.44 59.22 45.93 57.88 45.62 57.32 43.11 58.62 44.18 59.1 43.24 59.54 44.44"/>
          <polygon class="cls-60" points="59.1 43.24 58.62 44.18 57.32 43.11 56.66 40.16 56.2 39.71 57.8 39.24 58.01 40.29 58.81 42.47 59.1 43.24"/>
          <polygon class="cls-18" points="57.8 39.24 56.2 39.71 55.28 38.8 55.87 36.98 58.07 30.2 57.65 32.28 57.02 35.37 57.36 37.09 57.8 39.24"/>
          <polygon class="cls-45" points="63.84 47.64 60.94 49.95 61.1 45.58 63.94 42.67 63.84 47.64"/>
          <polygon class="cls-53" points="62.03 52.5 57.4 52.26 57.49 51.15 58.43 49.53 61.1 45.58 60.94 49.95 62.03 52.5"/>
          <polygon class="cls-57" points="14.62 33.82 13.48 34.19 13.06 33.58 13.87 32.68 14.62 33.82"/>
          <polygon class="cls-30" points="62.21 33.3 61.43 33.91 57.42 32.18 58.07 30.2 60.02 31.66 62.21 33.3"/>
          <polygon class="cls-10" points="61.43 33.91 57.36 37.09 57.02 35.37 57.65 32.28 61.43 33.91"/>
          <polygon class="cls-50" points="62.6 40.69 60.38 41.29 58.81 42.47 58.01 40.29 57.8 39.24 57.36 37.09 60.9 39.52 62.6 40.69"/>
          <polygon class="cls-23" points="62.21 33.3 60.9 39.52 57.36 37.09 61.43 33.91 62.21 33.3"/>
          <polygon class="cls-56" points="64.09 29.24 60.23 28.85 60.56 24.6 64.15 25 64.09 29.24"/>
          <polygon class="cls-42" points="55.87 36.98 47.63 38.72 46.07 39.05 46.84 36.28 49.67 26.06 50.07 24.62 50.45 26.12 52.05 32.36 55.87 36.98"/>
          <polygon class="cls-20" points="58.44 29.53 58.37 30.43 58.07 30.2 55.87 36.98 52.05 32.36 57.73 26.53 58.44 29.53"/>
          <polygon class="cls-41" points="49.67 26.06 46.84 36.28 45.11 37.61 44.7 33.52 44.79 31.3 44.9 29.46 47.67 27.48 49.67 26.06"/>
          <polygon class="cls-58" points="45.11 37.61 43.26 39.03 40.03 30.22 44.7 33.52 45.11 37.61"/>
          <polygon class="cls-14" points="44.84 30.41 44.7 33.52 40.03 30.22 36.39 27.65 40.9 25.39 44.9 29.46 44.84 30.41"/>
          <path class="cls-61" d="M40.03,30.22"/>
          <path class="cls-33" d="M26.18,41.64h0"/>
          <polygon class="cls-55" points="17.79 32.74 17.49 32.99 17.49 33 17.24 32.84 14.76 33.28 13.98 31.24 15.18 30.22 17.3 29.15 17.3 29.15 17.79 32.74"/>
          <polygon class="cls-14" points="33.03 25.29 23.87 28.85 26.72 24.81 28.86 21.77 30.98 23.84 31.73 24.37 31.73 24.37 33.03 25.29"/>
          <polygon class="cls-33" points="33.08 30.58 33.07 30.59 27.17 36.56 23.86 28.85 23.87 28.85 33.03 25.29 33.08 30.58"/>
          <polygon class="cls-13" points="43.26 39.03 37.12 35.32 33.09 32.89 33.08 30.58 33.03 25.29 36.39 27.65 40.03 30.22 43.26 39.03"/>
          <polygon class="cls-19" points="47.67 27.48 44.9 29.46 43.57 24.8 42.66 21.3 47.67 27.48"/>
          <path class="cls-61" d="M26.72,24.81"/>
          <polygon class="cls-7" points="57.12 22.25 58.69 24.11 58.37 30.43 57.73 26.53 57.43 25.25 57.12 22.25"/>
          <polygon class="cls-54" points="58.69 24.11 60.56 24.6 60.23 28.85 60.02 31.66 58.37 30.43 58.69 24.11"/>
          <polygon class="cls-5" points="63.84 47.64 62.96 49.99 62.03 52.5 60.94 49.95 63.84 47.64"/>
          <polygon class="cls-31" points="63.71 52.63 62.03 52.5 62.96 49.99 63.71 52.63"/>
          <line class="cls-22" x1="23.86" y1="28.85" x2="23.87" y2="28.85"/>
          <polygon class="cls-12" points="68.31 36.84 67.11 36.03 67.58 35.22 68.31 36.84"/>
          <polygon class="cls-57" points="3.69 28.55 9.3 34.67 8.62 36.85 3.69 28.55"/>
          <polygon class="cls-8" points="10.06 29.56 11.81 32.6 10.84 33.06 10.06 29.56"/>
        </g>
        <g>
          <polygon class="cls-35" points="45.72 -2.68 45.14 -.81 44.62 .85 39.69 -7.45 45.72 -2.68"/>
          <polygon class="cls-36" points="48 .27 45.14 -.81 45.72 -2.68 46.84 -2.94 48.14 -3.55 48 .27"/>
          <polygon class="cls-26" points="48 .27 47.77 .79 47.13 2.25 46.11 4.61 45.39 1.55 44.62 .85 45.14 -.81 48 .27"/>
          <path class="cls-43" d="M51.72-.18l-.97-2.53-.78-2.04-.91.77-.93.43-.14,3.81-.23.52,3.96-.97ZM49.87-3.32l.75,1.13-1.13.37-.43-.61.81-.89Z"/>
          <polygon class="cls-60" points="53.04 4.16 51.02 4.81 47.13 2.25 47.77 .79 51.72 -.18 53.04 4.16"/>
          <polygon class="cls-44" points="51.02 4.81 49.12 5.43 46.11 4.61 47.13 2.25 51.02 4.81"/>
          <polygon class="cls-38" points="57.52 -.4 53.04 4.16 51.72 -.18 50.76 -2.72 53.24 -3.16 53.49 -3 57.52 -.4"/>
          <polygon class="cls-25" points="63.17 .56 61.92 .14 61.14 1.46 57.52 -.4 53.49 -3 53.49 -3.01 53.79 -3.26 59.42 -8.18 59.86 -7.15 63.17 .56 63.17 .56"/>
          <polygon class="cls-27" points="73.12 -.68 72.84 2.91 62.21 2.18 62.21 2.01 61.14 1.46 61.92 .14 63.17 .56 63.17 .56 69.07 -5.41 69.08 -5.42 69.09 -3.11 73.12 -.68"/>
          <path class="cls-47" d="M68.75,2.63l-.96,3.3-.59,1.01s-4.92-1.28-5.01-1.3l.03-3.46,6.54.45Z"/>
          <polygon class="cls-40" points="72.84 2.91 72.73 4.41 72.56 6.07 68.06 7.36 67.79 5.93 68.75 2.63 72.84 2.91"/>
          <polygon class="cls-1" points="64.72 14.83 61.55 15.33 58.86 14.95 61.5 11.63 64.01 12.41 64.72 14.83"/>
          <polygon class="cls-2" points="65.5 9.86 64.01 12.41 61.5 11.63 61.85 8.77 65.5 9.86"/>
          <path class="cls-34" d="M67.2,6.94l-1.7,2.91-3.64-1.09.32-2.63v-.5c.1.02,5.01,1.32,5.02,1.3Z"/>
          <polygon class="cls-15" points="72.56 6.07 72.29 8.79 68.76 11.05 68.06 7.36 72.56 6.07"/>
          <polygon class="cls-60" points="72.29 8.79 71.48 12.03 68.94 11.99 68.76 11.05 72.29 8.79"/>
          <polygon class="cls-39" points="72.84 14.7 68.37 14.8 66.91 13.74 68.94 11.99 71.48 12.03 72.84 14.7"/>
          <path class="cls-33" d="M62.18,5.64h0"/>
          <polygon class="cls-33" points="69.08 -5.42 69.07 -5.41 63.17 .56 59.86 -7.15 59.87 -7.15 69.03 -10.71 69.08 -5.42"/>
          <polygon class="cls-13" points="79.26 3.03 73.12 -.68 69.09 -3.11 69.08 -5.42 69.03 -10.71 72.39 -8.35 76.03 -5.78 79.26 3.03"/>
          <polygon class="cls-57" points="39.69 -7.45 45.3 -1.33 44.62 .85 39.69 -7.45"/>
        </g>
        <g>
          <polygon class="cls-27" points="1.12 -.68 .84 2.91 -9.79 2.18 -9.79 2.01 -10.86 1.46 -10.08 .14 -8.83 .56 -8.83 .56 -2.93 -5.41 -2.92 -5.42 -2.91 -3.11 1.12 -.68"/>
          <polygon class="cls-60" points="13.79 5.44 8.12 6.05 4.41 5.22 7.26 3.03 9.11 1.61 10.84 .28 10.07 3.05 11.63 2.72 11.63 2.72 13.79 5.44"/>
          <polygon class="cls-38" points="19.87 .98 19.28 2.8 14.1 5.4 13.79 5.44 11.63 2.72 11.63 2.72 19.87 .98"/>
          <polygon class="cls-60" points="7.26 3.03 4.41 5.22 .73 4.41 1.12 -.68 7.26 3.03"/>
          <polygon class="cls-40" points=".84 2.91 .73 4.41 .56 6.07 -3.94 7.36 -4.21 5.93 -3.25 2.63 .84 2.91"/>
          <polygon class="cls-15" points=".56 6.07 .29 8.79 -3.24 11.05 -3.94 7.36 .56 6.07"/>
          <polygon class="cls-60" points=".29 8.79 -.52 12.03 -3.06 11.99 -3.24 11.05 .29 8.79"/>
          <polygon class="cls-39" points=".84 14.7 -3.63 14.8 -5.09 13.74 -3.06 11.99 -.52 12.03 .84 14.7"/>
          <polygon class="cls-21" points="32.09 -4.69 31.58 -.78 31.11 .03 30.85 .53 26.78 -2.31 31.05 -7.04 31.49 -6.05 32.09 -4.69"/>
          <polygon class="cls-9" points="30.85 .53 29.06 4.01 29.06 4.01 26.6 4.69 24.9 3.52 26.21 -2.7 26.78 -2.31 26.78 -2.31 30.85 .53"/>
          <polygon class="cls-5" points="27.95 6.18 27.94 6.67 25.1 9.58 22.43 13.53 23.22 9.93 23.54 8.44 23.1 7.24 22.81 6.47 24.38 5.29 26.6 4.69 29.06 4.01 27.95 6.18"/>
          <polygon class="cls-48" points="23.22 9.93 22.43 13.53 20.1 14.46 19.61 13.6 21.88 9.62 23.22 9.93"/>
          <polygon class="cls-32" points="23.54 8.44 23.22 9.93 21.88 9.62 21.32 7.11 22.62 8.18 23.1 7.24 23.54 8.44"/>
          <polygon class="cls-60" points="23.1 7.24 22.62 8.18 21.32 7.11 20.66 4.16 20.2 3.71 21.8 3.24 22.01 4.29 22.81 6.47 23.1 7.24"/>
          <polygon class="cls-18" points="21.8 3.24 20.2 3.71 19.28 2.8 19.87 .98 22.07 -5.8 21.65 -3.72 21.02 -.63 21.36 1.09 21.8 3.24"/>
          <polygon class="cls-45" points="27.84 11.64 24.94 13.95 25.1 9.58 27.94 6.67 27.84 11.64"/>
          <polygon class="cls-53" points="26.03 16.5 21.4 16.26 21.49 15.15 22.43 13.53 25.1 9.58 24.94 13.95 26.03 16.5"/>
          <polygon class="cls-10" points="25.43 -2.09 21.36 1.09 21.02 -.63 21.65 -3.72 25.43 -2.09"/>
          <polygon class="cls-50" points="26.6 4.69 24.38 5.29 22.81 6.47 22.01 4.29 21.8 3.24 21.36 1.09 24.9 3.52 26.6 4.69"/>
          <polygon class="cls-23" points="26.21 -2.7 24.9 3.52 21.36 1.09 25.43 -2.09 26.21 -2.7"/>
          <polygon class="cls-42" points="19.87 .98 11.63 2.72 10.07 3.05 10.84 .28 13.67 -9.94 14.07 -11.38 14.45 -9.88 16.05 -3.64 19.87 .98"/>
          <polygon class="cls-20" points="22.44 -6.47 22.37 -5.57 22.07 -5.8 19.87 .98 16.05 -3.64 21.73 -9.47 22.44 -6.47"/>
          <polygon class="cls-41" points="13.67 -9.94 10.84 .28 9.11 1.61 8.7 -2.48 8.79 -4.7 8.9 -6.54 11.67 -8.52 13.67 -9.94"/>
          <polygon class="cls-58" points="9.11 1.61 7.26 3.03 4.03 -5.78 8.7 -2.48 9.11 1.61"/>
          <polygon class="cls-13" points="7.26 3.03 1.12 -.68 -2.91 -3.11 -2.92 -5.42 -2.97 -10.71 .39 -8.35 4.03 -5.78 7.26 3.03"/>
          <polygon class="cls-5" points="27.84 11.64 26.96 13.99 26.03 16.5 24.94 13.95 27.84 11.64"/>
          <polygon class="cls-31" points="27.71 16.63 26.03 16.5 26.96 13.99 27.71 16.63"/>
          <polygon class="cls-12" points="32.31 .84 31.11 .03 31.58 -.78 32.31 .84"/>
        </g>
      </g>
    </pattern>
  </defs>
  <rect class="cls-17" width="288" height="216"/>
  <g>
    <rect class="cls-28" width="288" height="216"/>
    <rect class="cls-28" width="288" height="216"/>
  </g>
</svg>