<?xml version="1.0" encoding="utf-8"?>
<!-- Generator: Adobe Illustrator 28.1.0, SVG Export Plug-In . SVG Version: 6.00 Build 0)  -->
<svg version="1.1" id="Layer_2_00000072961203960858748220000002495835356955253951_"
	 xmlns="http://www.w3.org/2000/svg" xmlns:xlink="http://www.w3.org/1999/xlink" x="0px" y="0px" viewBox="0 0 423.1 317.4"
	 style="enable-background:new 0 0 423.1 317.4;" xml:space="preserve">
<style type="text/css">
	.st0{fill:none;}
	.st1{fill:#1F1A1D;}
	.st2{fill:#251613;}
	.st3{fill:#0A070E;}
	.st4{fill:#281B1E;}
	.st5{fill:#3D3A3F;}
	.st6{fill:#181A1E;}
	.st7{fill:#2C2628;}
	.st8{fill:#372F2D;}
	.st9{fill:#0B050C;}
	.st10{fill:#443D3C;}
	.st11{fill:#493D3D;}
	.st12{fill:#332320;}
	.st13{fill:#544B4A;}
	.st14{fill:#504747;}
	.st15{fill:#5D4A46;}
	.st16{fill:#463736;}
	.st17{fill:#05030B;}
	.st18{fill:#2C2221;}
	.st19{fill:#2E2625;}
	.st20{fill:#54423E;}
	.st21{fill:#251918;}
	.st22{fill:#4F413E;}
	.st23{fill:#493936;}
	.st24{fill:#483936;}
	.st25{fill:#403231;}
	.st26{fill:#524744;}
	.st27{fill:#4E4140;}
	.st28{fill:#544D4D;}
	.st29{fill:#564946;}
	.st30{fill:#474344;}
	.st31{fill:#13090D;}
	.st32{fill:#0B0C11;}
	.st33{fill:#524747;}
	.st34{fill:#1B131C;}
	.st35{fill:#565051;}
	.st36{fill:#594E4B;}
	.st37{fill:#483738;}
	.st38{fill:#544D4C;}
	.st39{fill:#050207;}
	.st40{fill:#454348;}
	.st41{fill:#25262B;}
	.st42{fill:#524A49;}
	.st43{fill:#363643;}
	.st44{fill:#3C3B42;}
	.st45{fill:#6B6767;}
	.st46{fill:#776763;}
	.st47{fill:#7D8287;}
	.st48{fill:#4F4B4C;}
	.st49{fill:#524441;}
	.st50{fill:#5D5E5F;}
	.st51{fill:#574D55;}
	.st52{fill:#575455;}
	.st53{fill:#524845;}
	.st54{fill:none;stroke:#231F20;stroke-width:0.26;stroke-miterlimit:10;}
	.st55{fill:#61544F;}
	.st56{fill:#827A78;}
	.st57{fill:#4D4A4C;}
	.st58{fill:#130B16;}
	.st59{fill:#515151;}
	.st60{fill:url(#SVGID_1_);}
</style>
<pattern  y="317.4" width="137.7" height="104.2" patternUnits="userSpaceOnUse" id="New_Pattern_3" viewBox="21.1 -135.1 137.7 104.2" style="overflow:visible;">
	<g>
		<rect x="21.1" y="-135.1" class="st0" width="137.7" height="104.2"/>
		<g>
			<rect x="21.1" y="-135.1" class="st0" width="137.7" height="104.2"/>
			<g>
				<polygon class="st1" points="158.1,-25.5 155.2,-33.6 131.4,-25 131.5,-24.7 129.4,-22.7 132.1,-20.2 134.6,-22 134.6,-22 
					152,-12.1 152,-12.1 150.5,-17.4 				"/>
				<polygon class="st2" points="169.8,-38 161.9,-41.1 154,-36.9 158.1,-25.5 				"/>
				<path class="st3" d="M146-30.3l-4.3-6.9l-2-1.9c0,0-10.4,6.1-10.6,6.2l2.3,7.9C131.4-25,146-30.3,146-30.3z"/>
				<polygon class="st4" points="155.2,-33.6 154,-36.9 152.5,-40.6 141.4,-40.6 141.7,-37.2 146,-30.3 				"/>
				<polygon class="st5" points="129,-55.5 121.4,-54.7 115.5,-52 123.7,-46.2 128.9,-49.6 				"/>
				<polygon class="st6" points="134,-44.7 128.9,-49.6 123.7,-46.2 126.3,-39.9 				"/>
				<path class="st7" d="M139.7-39.1l-5.8-5.6l-7.6,4.8l2.4,5.8l0.3,1.1C129.3-33,139.7-39.2,139.7-39.1z"/>
				<polygon class="st8" points="152.5,-40.6 150.2,-46.6 140.7,-49.5 141.4,-40.6 				"/>
				<polygon class="st2" points="150.2,-46.6 146.2,-53.5 140.5,-51.8 140.7,-49.5 				"/>
				<polygon class="st9" points="147.6,-60.5 137.3,-57.8 134.7,-54.5 140.5,-51.8 146.2,-53.5 				"/>
				<path class="st10" d="M129.1-32.9L129.1-32.9"/>
				<polygon class="st11" points="169.8,-38 158.1,-25.5 150.5,-17.4 152,-12.1 155.3,0 161.4,-7.6 168.1,-15.8 				"/>
			</g>
			<g>
				<polygon class="st2" points="45.5,-47.7 32.1,-45.4 24.2,-41.1 32.1,-38 37.2,-35.9 42,-34 38.5,-39.8 42.3,-40.1 42.3,-40.1 
									"/>
				<polygon class="st12" points="62.2,-41.4 59.7,-45.2 46.2,-47.8 45.5,-47.7 42.3,-40.1 42.3,-40.1 				"/>
				<polygon class="st2" points="32.1,-38 24.2,-41.1 16.3,-36.9 20.4,-25.5 				"/>
				<polygon class="st13" points="93.8,-36.3 90.1,-44.9 88.5,-46.5 87.6,-47.4 80.1,-38.3 92.9,-30.3 93.2,-32.8 				"/>
				<polygon class="st14" points="92.9,-30.3 80.1,-38.3 80.1,-38.3 79.1,-37.1 75.1,-31.9 77.4,-25.6 86,-29 88.8,-19.4 
					91.8,-23.1 92.5,-27.9 				"/>
				<polygon class="st15" points="87.6,-47.4 81.2,-54.2 81.2,-54.2 75.2,-54.2 72.1,-50.4 79.1,-37.1 80.1,-38.3 80.1,-38.3 				
					"/>
				<polygon class="st16" points="77.3,-58.5 77,-59.6 68.6,-64.4 60,-71.7 64.1,-64 65.8,-60.8 65.5,-57.8 65.4,-55.8 69.7,-54.2 
					75.2,-54.2 81.2,-54.2 				"/>
				<polygon class="st17" points="64.1,-64 60,-71.7 54.1,-72.3 53.5,-70 61.2,-62.4 				"/>
				<polygon class="st18" points="65.8,-60.8 64.1,-64 61.2,-62.4 61.6,-56.3 63.8,-59.6 65.5,-57.8 				"/>
				<polygon class="st2" points="65.5,-57.8 63.8,-59.6 61.6,-56.3 62,-49.2 61.2,-47.8 65.2,-47.8 65,-50.3 65.4,-55.8 				"/>
				<polygon class="st19" points="65.2,-47.8 61.2,-47.8 59.7,-45.2 62.2,-41.4 71.6,-27.3 69.3,-31.8 65.9,-38.5 65.5,-42.6 				
					"/>
				<polygon class="st20" points="73.5,-70.9 65.4,-74.3 68.6,-64.4 77,-59.6 				"/>
				<polygon class="st21" points="66.3,-80.8 55.9,-77.3 56.8,-74.8 60,-71.7 68.6,-64.4 65.4,-74.3 				"/>
				<polygon class="st22" points="79.1,-37.1 76.9,-38 68.8,-31.4 71.6,-27.3 75.1,-31.9 				"/>
				<polygon class="st23" points="76.9,-38 65.5,-42.6 65.9,-38.5 69.3,-31.8 				"/>
				<polygon class="st24" points="75.2,-54.2 69.7,-54.2 65.4,-55.8 65,-50.3 65.2,-47.8 65.5,-42.6 72.1,-50.4 				"/>
				<polygon class="st25" points="79.1,-37.1 72.1,-50.4 65.5,-42.6 76.9,-38 				"/>
				<polygon class="st26" points="62.2,-41.4 42.3,-40.1 38.5,-39.8 42,-34 55.1,-12.5 56.9,-9.4 56.8,-13.1 56.4,-28.4 				"/>
				<polygon class="st27" points="72.9,-26 72.1,-28 71.6,-27.3 62.2,-41.4 56.4,-28.4 73.2,-18.7 				"/>
				<polygon class="st28" points="55.1,-12.5 42,-34 37.2,-35.9 38.9,-26.3 40.6,-21.3 42,-17.2 49.6,-14.4 				"/>
				<polygon class="st29" points="37.2,-35.9 32.1,-38 30.4,-15.8 38.9,-26.3 				"/>
				<polygon class="st11" points="32.1,-38 20.4,-25.5 12.8,-17.4 14.3,-12.1 17.6,0 23.7,-7.6 30.4,-15.8 				"/>
				<polygon class="st30" points="76.9,-13.8 80.9,-16.1 77.4,-25.6 75.1,-31.9 72.1,-28 				"/>
				<polygon class="st16" points="73.5,-70.9 70,-75.7 66.3,-80.8 65.4,-74.3 				"/>
				<polygon class="st31" points="70,-82.2 66.3,-80.8 70,-75.7 				"/>
				<polygon class="st32" points="90.7,-49.1 88.5,-46.5 90.1,-44.9 				"/>
			</g>
			<g>
				<polygon class="st33" points="165.7,-55.4 163.2,-59.3 160.9,-62.8 155,-40.6 				"/>
				<polygon class="st34" points="155,-40.6 163.9,-58.2 160.9,-62.8 				"/>
			</g>
			<g>
				<polygon class="st33" points="28,-55.4 25.5,-59.3 23.2,-62.8 17.3,-40.6 				"/>
				<polygon class="st35" points="31.3,-63.6 25.5,-59.3 28,-55.4 30.7,-55.5 34.1,-55 				"/>
				<polygon class="st36" points="31.3,-63.6 30.5,-64.7 28.1,-67.6 24.2,-72.3 24.5,-64.8 23.2,-62.8 25.5,-59.3 				"/>
				<polygon class="st37" points="36.5,-54.6 34.1,-55 30.7,-55.5 31.2,-47 				"/>
				<path class="st38" d="M30.5-64.7l0.9,1l2.8,8.6l2.4,0.4l2.6,1.2l0.5-5.2l0.6-6.4C40.1-65,30.5-64.7,30.5-64.7z M35.5-58.1
					l0.6-1.7l2.8,0.1l-1,3.1L35.5-58.1L35.5-58.1z"/>
				<polygon class="st2" points="40.3,-75.7 35.3,-75.9 28.1,-67.6 30.5,-64.7 40.1,-65 				"/>
				<polygon class="st39" points="35.3,-75.9 30.6,-76.1 24.2,-72.3 28.1,-67.6 				"/>
				<polygon class="st12" points="53.5,-68.2 40.3,-75.7 40.1,-65 39.5,-58.6 45.5,-59.2 46,-59.7 				"/>
				<polygon class="st40" points="72.3,-46.9 63.2,-54.3 63.2,-54.3 62.9,-51.7 46.8,-59.3 48,-50.8 48,-50.8 55,-49.4 58.5,-39.8 
					68.9,-34.4 				"/>
				<polygon class="st41" points="65.8,-74 63.2,-72.3 60.6,-74.8 53.5,-68.2 46,-59.7 46,-59.7 46.8,-59.3 62.9,-51.7 63.2,-54.3 
					65.8,-74 				"/>
				<polygon class="st1" points="89.3,-77.6 86.4,-85.6 62.5,-77.1 62.7,-76.7 60.6,-74.8 63.2,-72.3 65.8,-74 65.8,-74 83.1,-64.2 
					83.1,-64.2 81.7,-69.5 				"/>
				<polygon class="st42" points="55,-49.4 48,-50.8 42.5,-51.8 50.6,-42 				"/>
				<polygon class="st43" points="55,-49.4 50.6,-42 50.7,-31.9 55.8,-40 				"/>
				<polygon class="st44" points="58.5,-39.8 55,-49.4 55.8,-40 54.9,-33.1 				"/>
				<polygon class="st45" points="110.8,-69.2 104.3,-57.4 92.6,-59.6 86.4,-52.1 84,-49.1 84,-49.1 91.6,-41 98.6,-44.9 
					106.5,-48.6 111,-49.2 110.8,-57.7 				"/>
				<polygon class="st46" points="72.3,-46.9 68.9,-34.4 84.3,-36.9 91.6,-41 84,-49.1 82.7,-47.4 79.2,-41.3 				"/>
				<polygon class="st47" points="129.1,-52.3 125.8,-61.5 123.9,-64.5 118.4,-66.5 111,-49.2 116.6,-49.9 121.1,-50.5 124.7,-51 
					127.6,-51.3 				"/>
				<polygon class="st2" points="114.3,-99.7 101,-97.5 93,-93.2 100.9,-90 106.1,-88 110.9,-86.1 107.3,-91.9 111.1,-92.1 
					111.1,-92.2 				"/>
				<polygon class="st12" points="131.1,-93.5 128.5,-97.2 115,-99.9 114.3,-99.7 111.1,-92.2 111.1,-92.1 				"/>
				<polygon class="st2" points="100.9,-90 93,-93.2 85.1,-89 89.3,-77.6 				"/>
				<path class="st3" d="M77.2-82.4l-4.3-6.9l-2-1.9c0,0-10.4,6.1-10.6,6.2l2.3,7.9L77.2-82.4z"/>
				<polygon class="st4" points="86.4,-85.6 85.1,-89 83.7,-92.7 72.6,-92.7 72.9,-89.3 77.2,-82.4 				"/>
				<polygon class="st5" points="60.1,-107.6 52.6,-106.7 46.7,-104.1 54.9,-98.2 60.1,-101.7 				"/>
				<polygon class="st6" points="65.1,-96.8 60.1,-101.7 54.9,-98.2 57.5,-91.9 				"/>
				<path class="st7" d="M70.9-91.2l-5.8-5.6l-7.6,4.8l2.4,5.8l0.3,1.1C60.5-85.1,70.8-91.2,70.9-91.2z"/>
				<polygon class="st8" points="83.7,-92.7 81.3,-98.7 71.8,-101.6 72.6,-92.7 				"/>
				<polygon class="st2" points="81.3,-98.7 77.4,-105.6 71.6,-103.9 71.8,-101.6 				"/>
				<polygon class="st9" points="78.8,-112.6 68.5,-109.9 65.8,-106.5 71.6,-103.9 77.4,-105.6 				"/>
				<polygon class="st48" points="142,-70.8 125.3,-80.5 125.7,-65.2 135.7,-58.7 137.4,-57.5 141.1,-59.8 143.4,-60.6 143.2,-61.7 
					142.2,-67.7 				"/>
				<polygon class="st49" points="137.4,-57.5 137.4,-57.5 135.7,-58.7 125.7,-65.2 125.8,-61.5 129.1,-52.3 131.2,-53.6 				"/>
				<polygon class="st50" points="151.2,-63.4 149.5,-64.2 145.8,-65.9 144,-62 143.4,-60.6 				"/>
				<polygon class="st51" points="157.7,-71.4 149.7,-68.2 145.8,-65.9 149.5,-64.2 151.2,-63.4 152.9,-65.5 152.9,-65.5 				"/>
				<polygon class="st13" points="162.6,-88.4 158.9,-97 157.3,-98.5 156.4,-99.5 148.9,-90.4 161.7,-82.3 162.1,-84.9 				"/>
				<polygon class="st14" points="161.7,-82.3 148.9,-90.4 148.9,-90.4 147.9,-89.1 143.9,-84 146.2,-77.7 154.8,-81.1 157.7,-71.4 
					160.7,-75.2 161.4,-80 				"/>
				<polygon class="st15" points="156.4,-99.5 150.1,-106.3 150.1,-106.3 144.1,-106.3 140.9,-102.5 147.9,-89.1 148.9,-90.4 
					148.9,-90.4 				"/>
				<polygon class="st16" points="146.2,-110.5 145.8,-111.7 137.5,-116.5 128.8,-123.8 132.9,-116.1 134.6,-112.9 134.4,-109.8 
					134.2,-107.9 138.6,-106.2 144.1,-106.3 150.1,-106.3 				"/>
				<polygon class="st17" points="132.9,-116.1 128.8,-123.8 122.9,-124.4 122.3,-122.1 130.1,-114.5 				"/>
				<polygon class="st18" points="134.6,-112.9 132.9,-116.1 130.1,-114.5 130.4,-108.4 132.7,-111.7 134.4,-109.8 				"/>
				<polygon class="st2" points="134.4,-109.8 132.7,-111.7 130.4,-108.4 130.8,-101.2 130.1,-99.9 134,-99.9 133.8,-102.4 
					134.2,-107.9 				"/>
				<polygon class="st19" points="134,-99.9 130.1,-99.9 128.5,-97.2 131.1,-93.5 140.4,-79.4 138.1,-83.9 134.7,-90.5 134.4,-94.7 
									"/>
				<polygon class="st20" points="142.4,-122.9 134.3,-126.4 137.5,-116.5 145.8,-111.7 				"/>
				<polygon class="st21" points="135.1,-132.9 124.7,-129.4 125.6,-126.9 128.8,-123.8 137.5,-116.5 134.3,-126.4 				"/>
				<polygon class="st34" points="38.9,-59.7 36,-59.8 35.5,-58.1 37.9,-56.6 				"/>
				<polygon class="st22" points="147.9,-89.1 145.7,-90 137.7,-83.5 140.4,-79.4 143.9,-84 				"/>
				<polygon class="st23" points="145.7,-90 134.4,-94.7 134.7,-90.5 138.1,-83.9 				"/>
				<polygon class="st24" points="144.1,-106.3 138.6,-106.2 134.2,-107.9 133.8,-102.4 134,-99.9 134.4,-94.7 140.9,-102.5 				"/>
				<polygon class="st25" points="147.9,-89.1 140.9,-102.5 134.4,-94.7 145.7,-90 				"/>
				<polygon class="st52" points="154.8,-81.1 146.2,-77.7 149.7,-68.2 157.7,-71.4 				"/>
				<polygon class="st26" points="131.1,-93.5 111.1,-92.1 107.3,-91.9 110.9,-86.1 123.9,-64.5 125.8,-61.5 125.7,-65.2 
					125.3,-80.5 				"/>
				<polygon class="st27" points="141.7,-78.1 141,-80.1 140.4,-79.4 131.1,-93.5 125.3,-80.5 142,-70.8 				"/>
				<polygon class="st28" points="123.9,-64.5 110.9,-86.1 106.1,-88 107.8,-78.4 109.4,-73.4 110.8,-69.2 118.4,-66.5 				"/>
				<polygon class="st29" points="106.1,-88 100.9,-90 99.2,-67.8 107.8,-78.4 				"/>
				<polygon class="st53" points="110.1,-71.4 107.8,-78.4 99.2,-67.8 92.6,-59.6 104.3,-57.4 110.8,-69.2 				"/>
				<path class="st54" d="M99.2-67.8"/>
				<path class="st10" d="M60.3-85L60.3-85"/>
				<polygon class="st55" points="46.8,-59.3 46,-59.7 46,-59.7 45.5,-59.2 39.5,-58.6 39.1,-53.4 42.5,-51.8 48,-50.8 48,-50.8 
									"/>
				<polygon class="st53" points="86.4,-52.1 63.2,-54.3 72.3,-46.9 79.2,-41.3 82.7,-47.4 84,-49.1 84,-49.1 				"/>
				<polygon class="st10" points="83.1,-64.2 83.1,-64.2 65.8,-74 63.2,-54.3 63.2,-54.3 86.4,-52.1 				"/>
				<polygon class="st11" points="100.9,-90 89.3,-77.6 81.7,-69.5 83.1,-64.2 86.4,-52.1 92.6,-59.6 99.2,-67.8 				"/>
				<polygon class="st56" points="118.4,-66.5 110.8,-69.2 110.8,-57.7 111,-49.2 				"/>
				<path class="st54" d="M72.3-46.9"/>
				<polygon class="st57" points="143.4,-60.6 145.8,-65.9 141,-80.1 142,-70.8 142.2,-67.7 				"/>
				<polygon class="st30" points="145.8,-65.9 149.7,-68.2 146.2,-77.7 143.9,-84 141,-80.1 				"/>
				<polygon class="st16" points="142.4,-122.9 138.9,-127.8 135.1,-132.9 134.3,-126.4 				"/>
				<polygon class="st31" points="138.9,-134.3 135.1,-132.9 138.9,-127.8 				"/>
				<line class="st0" x1="63.2" y1="-54.3" x2="63.2" y2="-54.3"/>
				<polygon class="st32" points="159.6,-101.2 157.3,-98.5 158.9,-97 				"/>
				<polygon class="st34" points="17.3,-40.6 26.2,-58.2 23.2,-62.8 				"/>
				<polygon class="st58" points="31.2,-47 33.2,-55.1 30.7,-55.5 				"/>
			</g>
			<g>
				<polygon class="st13" points="24.9,-88.4 21.2,-97 19.6,-98.5 18.7,-99.5 11.2,-90.4 24,-82.3 24.4,-84.9 				"/>
				<polygon class="st14" points="24,-82.3 11.2,-90.4 11.2,-90.4 10.2,-89.1 6.2,-84 8.5,-77.7 17.1,-81.1 20,-71.4 23,-75.2 
					23.7,-80 				"/>
				<polygon class="st32" points="21.8,-101.2 19.6,-98.5 21.2,-97 				"/>
			</g>
			<g>
				<polygon class="st33" points="96.9,-107.5 94.3,-111.4 92.1,-114.8 86.2,-92.7 				"/>
				<polygon class="st35" points="100.2,-115.7 94.3,-111.4 96.9,-107.5 99.6,-107.6 102.9,-107.1 				"/>
				<polygon class="st36" points="100.2,-115.7 99.3,-116.7 96.9,-119.6 93.1,-124.4 93.4,-116.9 92.1,-114.8 94.3,-111.4 				"/>
				<polygon class="st37" points="105.4,-106.7 102.9,-107.1 99.6,-107.6 100.1,-99.1 				"/>
				<path class="st38" d="M99.3-116.7l0.9,1.1l2.8,8.6l2.4,0.4l2.6,1.2l0.5-5.2l0.6-6.4L99.3-116.7z M104.3-110.2l0.6-1.7l2.8,0.1
					l-1,3.1L104.3-110.2L104.3-110.2z"/>
				<polygon class="st2" points="109.2,-127.8 104.2,-128 96.9,-119.6 99.3,-116.7 109,-117.1 				"/>
				<polygon class="st39" points="104.2,-128 99.4,-128.2 93.1,-124.4 96.9,-119.6 				"/>
				<polygon class="st12" points="122.3,-120.3 109.2,-127.8 109,-117.1 108.4,-110.6 114.3,-111.2 114.8,-111.8 				"/>
				<polygon class="st40" points="141.2,-99 132.1,-106.4 132.1,-106.4 131.7,-103.7 115.7,-111.4 116.9,-102.8 116.9,-102.8 
					123.8,-101.5 127.4,-91.9 137.7,-86.5 				"/>
				<polygon class="st41" points="134.6,-126.1 132.1,-124.3 129.4,-126.9 122.3,-120.3 114.8,-111.8 114.8,-111.7 115.7,-111.4 
					131.7,-103.7 132.1,-106.4 134.6,-126.1 				"/>
				<polygon class="st1" points="158.1,-129.7 155.2,-137.7 131.4,-129.2 131.5,-128.8 129.4,-126.9 132.1,-124.3 134.6,-126.1 
					134.6,-126.1 152,-116.3 152,-116.3 150.5,-121.6 				"/>
				<polygon class="st42" points="123.8,-101.5 116.9,-102.8 111.3,-103.9 119.5,-94 				"/>
				<polygon class="st43" points="123.8,-101.5 119.5,-94 119.6,-84 124.6,-92 				"/>
				<polygon class="st44" points="127.4,-91.9 123.8,-101.5 124.6,-92 123.8,-85.2 				"/>
				<polygon class="st45" points="179.7,-121.3 173.2,-109.4 161.4,-111.7 155.3,-104.1 152.9,-101.2 152.9,-101.2 160.5,-93.1 
					167.5,-97 175.4,-100.7 179.8,-101.2 179.6,-109.8 				"/>
				<polygon class="st46" points="141.2,-99 137.7,-86.5 153.1,-89 160.5,-93.1 152.9,-101.2 151.5,-99.5 148,-93.4 				"/>
				<polygon class="st2" points="169.8,-142.1 161.9,-145.3 154,-141.1 158.1,-129.7 				"/>
				<path class="st3" d="M146-134.4l-4.3-6.9l-2-1.9c0,0-10.4,6.1-10.6,6.2l2.3,7.9L146-134.4z"/>
				<polygon class="st4" points="155.2,-137.7 154,-141.1 152.5,-144.7 141.4,-144.8 141.7,-141.3 146,-134.4 				"/>
				<polygon class="st34" points="107.7,-111.8 104.9,-111.9 104.3,-110.2 106.8,-108.7 				"/>
				<polygon class="st55" points="115.7,-111.4 114.8,-111.7 114.8,-111.8 114.3,-111.2 108.4,-110.6 107.9,-105.5 111.3,-103.9 
					116.9,-102.8 116.9,-102.8 				"/>
				<polygon class="st53" points="155.3,-104.1 132.1,-106.4 141.2,-99 148,-93.4 151.5,-99.5 152.9,-101.2 152.9,-101.2 				"/>
				<polygon class="st10" points="152,-116.3 152,-116.3 134.6,-126.1 132.1,-106.4 132.1,-106.4 155.3,-104.1 				"/>
				<polygon class="st11" points="169.8,-142.1 158.1,-129.7 150.5,-121.6 152,-116.3 155.3,-104.1 161.4,-111.7 168.1,-119.9 				
					"/>
				<path class="st54" d="M141.2-99"/>
				<line class="st0" x1="132.1" y1="-106.4" x2="132.1" y2="-106.4"/>
				<polygon class="st34" points="86.2,-92.7 95,-110.3 92.1,-114.8 				"/>
				<polygon class="st58" points="100.1,-99.1 102.1,-107.2 99.6,-107.6 				"/>
			</g>
			<g>
				<polygon class="st45" points="42,-121.3 35.5,-109.4 23.7,-111.7 17.6,-104.1 15.2,-101.2 15.2,-101.2 22.8,-93.1 29.8,-97 
					37.7,-100.7 42.1,-101.2 41.9,-109.8 				"/>
				<polygon class="st46" points="3.5,-99 0,-86.5 15.4,-89 22.8,-93.1 15.2,-101.2 13.8,-99.5 10.3,-93.4 				"/>
				<polygon class="st47" points="60.3,-104.4 56.9,-113.6 55.1,-116.6 49.6,-118.6 42.1,-101.2 47.8,-102 52.3,-102.6 55.9,-103 
					58.8,-103.4 				"/>
				<polygon class="st2" points="32.1,-142.1 24.2,-145.3 16.3,-141.1 20.4,-129.7 				"/>
				<polygon class="st48" points="73.2,-122.9 56.4,-132.5 56.8,-117.2 66.8,-110.7 68.6,-109.6 72.2,-111.9 74.5,-112.7 
					74.4,-113.7 73.3,-119.7 				"/>
				<polygon class="st49" points="68.6,-109.6 68.6,-109.6 66.8,-110.7 56.8,-117.2 56.9,-113.6 60.3,-104.4 62.3,-105.7 				"/>
				<polygon class="st50" points="82.3,-115.5 80.7,-116.3 76.9,-118 75.1,-114.1 74.5,-112.7 				"/>
				<polygon class="st51" points="88.8,-123.5 80.9,-120.3 76.9,-118 80.7,-116.3 82.3,-115.5 84,-117.6 84,-117.6 				"/>
				<polygon class="st13" points="93.8,-140.4 90.1,-149.1 88.5,-150.6 87.6,-151.6 80.1,-142.5 92.9,-134.4 93.2,-137 				"/>
				<polygon class="st14" points="92.9,-134.4 80.1,-142.5 80.1,-142.5 79.1,-141.2 75.1,-136.1 77.4,-129.8 86,-133.1 88.8,-123.5 
					91.8,-127.3 92.5,-132.1 				"/>
				<polygon class="st19" points="65.2,-151.9 61.2,-152 59.7,-149.3 62.2,-145.5 71.6,-131.5 69.3,-135.9 65.9,-142.6 65.5,-146.8 
									"/>
				<polygon class="st22" points="79.1,-141.2 76.9,-142.1 68.8,-135.6 71.6,-131.5 75.1,-136.1 				"/>
				<polygon class="st52" points="86,-133.1 77.4,-129.8 80.9,-120.3 88.8,-123.5 				"/>
				<polygon class="st26" points="62.2,-145.5 42.3,-144.2 38.5,-144 42,-138.1 55.1,-116.6 56.9,-113.6 56.8,-117.2 56.4,-132.5 
									"/>
				<polygon class="st27" points="72.9,-130.2 72.1,-132.2 71.6,-131.5 62.2,-145.5 56.4,-132.5 73.2,-122.9 				"/>
				<polygon class="st28" points="55.1,-116.6 42,-138.1 37.2,-140.1 38.9,-130.4 40.6,-125.4 42,-121.3 49.6,-118.6 				"/>
				<polygon class="st29" points="37.2,-140.1 32.1,-142.1 30.4,-119.9 38.9,-130.4 				"/>
				<polygon class="st53" points="41.2,-123.4 38.9,-130.4 30.4,-119.9 23.7,-111.7 35.5,-109.4 42,-121.3 				"/>
				<path class="st54" d="M30.4-119.9"/>
				<polygon class="st11" points="32.1,-142.1 20.4,-129.7 12.8,-121.6 14.3,-116.3 17.6,-104.1 23.7,-111.7 30.4,-119.9 				"/>
				<polygon class="st56" points="49.6,-118.6 42,-121.3 41.9,-109.8 42.1,-101.2 				"/>
				<polygon class="st57" points="74.5,-112.7 76.9,-118 72.1,-132.2 73.2,-122.9 73.3,-119.7 				"/>
				<polygon class="st30" points="76.9,-118 80.9,-120.3 77.4,-129.8 75.1,-136.1 72.1,-132.2 				"/>
			</g>
		</g>
	</g>
</pattern>
<g id="Layer_1-2">
	<g>
		<rect y="0" class="st59" width="423.1" height="317.4"/>
		<pattern  id="SVGID_1_" xlink:href="#New_Pattern_3" patternTransform="matrix(-1 0 0 -1 -15762.2207 -15217.5098)">
		</pattern>
		<rect x="0" y="0" class="st60" width="423.1" height="317.4"/>
	</g>
</g>
</svg>
