<?xml version="1.0" encoding="UTF-8"?>
<svg id="Layer_2" data-name="Layer 2" xmlns="http://www.w3.org/2000/svg" xmlns:xlink="http://www.w3.org/1999/xlink" viewBox="0 0 423.15 317.36">
  <defs>
    <style>
      .cls-1 {
        fill: #3d3a3f;
      }

      .cls-1, .cls-2, .cls-3, .cls-4, .cls-5, .cls-6, .cls-7, .cls-8, .cls-9, .cls-10, .cls-11, .cls-12, .cls-13, .cls-14, .cls-15, .cls-16, .cls-17, .cls-18, .cls-19, .cls-20, .cls-21, .cls-22, .cls-23, .cls-24, .cls-25, .cls-26, .cls-27, .cls-28, .cls-29, .cls-30, .cls-31, .cls-32, .cls-33, .cls-34, .cls-35, .cls-36, .cls-37, .cls-38, .cls-39, .cls-40, .cls-41, .cls-42, .cls-43, .cls-44, .cls-45, .cls-46, .cls-47, .cls-48, .cls-49, .cls-50, .cls-51, .cls-52, .cls-53, .cls-54, .cls-55, .cls-56, .cls-57, .cls-58, .cls-59, .cls-60 {
        stroke-width: 0px;
      }

      .cls-2 {
        fill: #181a1e;
      }

      .cls-3 {
        fill: #454348;
      }

      .cls-4 {
        fill: #7d8287;
      }

      .cls-5 {
        fill: #463736;
      }

      .cls-6 {
        fill: #574d55;
      }

      .cls-7 {
        fill: #4d4a4c;
      }

      .cls-8 {
        fill: #130b16;
      }

      .cls-9 {
        fill: #5d4a46;
      }

      .cls-10 {
        fill: #493936;
      }

      .cls-11 {
        fill: #504747;
      }

      .cls-12 {
        fill: #0b0c11;
      }

      .cls-13 {
        fill: #493d3d;
      }

      .cls-14 {
        fill: #524845;
      }

      .cls-15 {
        fill: #372f2d;
      }

      .cls-16 {
        fill: #524441;
      }

      .cls-17 {
        fill: #2e2625;
      }

      .cls-18 {
        fill: #827a78;
      }

      .cls-19 {
        fill: #4e4140;
      }

      .cls-20 {
        fill: #544b4a;
      }

      .cls-21, .cls-61 {
        fill: none;
      }

      .cls-22 {
        fill: #403231;
      }

      .cls-23 {
        fill: #524a49;
      }

      .cls-24 {
        fill: #25262b;
      }

      .cls-25 {
        fill: #594e4b;
      }

      .cls-26 {
        fill: #e1cabb;
      }

      .cls-27 {
        fill: #1f1a1d;
      }

      .cls-28 {
        fill: #363643;
      }

      .cls-29 {
        fill: #4f413e;
      }

      .cls-30 {
        fill: #13090d;
      }

      .cls-31 {
        fill: #2c2221;
      }

      .cls-32 {
        fill: #443d3c;
      }

      .cls-33 {
        fill: #2c2628;
      }

      .cls-34 {
        fill: url(#New_Pattern_3);
      }

      .cls-35 {
        fill: #524747;
      }

      .cls-36 {
        fill: #565051;
      }

      .cls-37 {
        fill: #4f4b4c;
      }

      .cls-38 {
        fill: #332320;
      }

      .cls-39 {
        fill: #0b050c;
      }

      .cls-40 {
        fill: #281b1e;
      }

      .cls-41 {
        fill: #544d4d;
      }

      .cls-42 {
        fill: #524744;
      }

      .cls-43 {
        fill: #544d4c;
      }

      .cls-44 {
        fill: #050207;
      }

      .cls-45 {
        fill: #54423e;
      }

      .cls-46 {
        fill: #5d5e5f;
      }

      .cls-47 {
        fill: #0a070e;
      }

      .cls-48 {
        fill: #05030b;
      }

      .cls-49 {
        fill: #483738;
      }

      .cls-50 {
        fill: #483936;
      }

      .cls-51 {
        fill: #6b6767;
      }

      .cls-61 {
        stroke: #231f20;
        stroke-miterlimit: 10;
        stroke-width: .26px;
      }

      .cls-52 {
        fill: #3c3b42;
      }

      .cls-53 {
        fill: #251918;
      }

      .cls-54 {
        fill: #474344;
      }

      .cls-55 {
        fill: #61544f;
      }

      .cls-56 {
        fill: #575455;
      }

      .cls-57 {
        fill: #1b131c;
      }

      .cls-58 {
        fill: #564946;
      }

      .cls-59 {
        fill: #776763;
      }

      .cls-60 {
        fill: #251613;
      }
    </style>
    <pattern id="New_Pattern_3" data-name="New Pattern 3" x="0" y="0" width="137.71" height="104.15" patternTransform="translate(-107.19 -856.14)" patternUnits="userSpaceOnUse" viewBox="0 0 137.71 104.15">
      <g>
        <rect class="cls-21" width="137.71" height="104.15"/>
        <g>
          <polygon class="cls-27" points="137.04 -5.46 134.1 2.57 110.29 -5.96 110.4 -6.33 108.31 -8.28 110.94 -10.79 113.52 -9.03 113.51 -9.03 130.86 -18.88 130.86 -18.88 129.42 -13.6 137.04 -5.46"/>
          <polygon class="cls-60" points="148.69 6.96 140.75 10.14 132.88 5.9 137.04 -5.46 148.69 6.96"/>
          <path class="cls-47" d="M124.93-.72l-4.31,6.92-2,1.93s-10.41-6.08-10.61-6.2l2.29-7.89,14.63,5.24Z"/>
          <polygon class="cls-40" points="134.1 2.57 132.88 5.9 131.43 9.59 120.32 9.64 120.62 6.2 124.93 -.72 134.1 2.57"/>
          <polygon class="cls-1" points="107.89 24.55 100.33 23.66 94.43 21.05 102.59 15.18 107.81 18.58 107.89 24.55"/>
          <polygon class="cls-2" points="112.86 13.7 107.81 18.58 102.59 15.18 105.24 8.87 112.86 13.7"/>
          <path class="cls-33" d="M118.62,8.13l-5.75,5.56-7.62-4.82,2.43-5.8.33-1.14c.2.12,10.57,6.24,10.61,6.2Z"/>
          <polygon class="cls-15" points="131.43 9.59 129.06 15.63 119.55 18.52 120.32 9.64 131.43 9.59"/>
          <polygon class="cls-60" points="129.06 15.63 125.12 22.52 119.35 20.8 119.55 18.52 129.06 15.63"/>
          <polygon class="cls-39" points="126.51 29.49 116.23 26.83 113.58 23.47 119.35 20.8 125.12 22.52 126.51 29.49"/>
          <path class="cls-32" d="M108,1.93h0"/>
          <polygon class="cls-13" points="148.69 6.96 137.04 -5.46 129.42 -13.6 130.86 -18.88 134.17 -31 140.3 -23.44 146.97 -15.23 148.69 6.96"/>
        </g>
        <g>
          <polygon class="cls-60" points="24.34 16.66 11 14.41 3.04 10.14 10.98 6.96 16.12 4.91 20.91 2.99 17.38 8.82 21.16 9.07 21.16 9.07 24.34 16.66"/>
          <polygon class="cls-38" points="41.08 10.39 38.57 14.16 25.06 16.78 24.34 16.66 21.16 9.07 21.16 9.07 41.08 10.39"/>
          <polygon class="cls-60" points="10.98 6.96 3.04 10.14 -4.83 5.9 -.67 -5.46 10.98 6.96"/>
          <polygon class="cls-20" points="72.65 5.3 68.98 13.92 67.38 15.46 66.46 16.44 58.99 7.33 71.78 -.72 72.14 1.83 72.65 5.3"/>
          <polygon class="cls-11" points="71.78 -.72 58.99 7.33 58.99 7.33 57.95 6.07 53.99 .91 56.29 -5.37 64.85 -2 67.7 -11.63 70.74 -7.87 71.43 -3.09 71.78 -.72"/>
          <polygon class="cls-9" points="66.46 16.44 60.13 23.24 60.13 23.24 54.08 23.19 50.95 19.43 57.95 6.07 58.99 7.33 58.99 7.33 66.46 16.44"/>
          <polygon class="cls-5" points="56.19 27.47 55.85 28.58 47.49 33.4 38.87 40.71 42.97 32.99 44.67 29.8 44.43 26.78 44.28 24.84 48.61 23.15 54.08 23.19 60.13 23.24 56.19 27.47"/>
          <polygon class="cls-48" points="42.97 32.99 38.87 40.71 32.95 41.33 32.37 39.04 40.13 31.42 42.97 32.99"/>
          <polygon class="cls-31" points="44.67 29.8 42.97 32.99 40.13 31.42 40.46 25.32 42.73 28.6 44.43 26.78 44.67 29.8"/>
          <polygon class="cls-60" points="44.43 26.78 42.73 28.6 40.46 25.32 40.85 18.16 40.1 16.84 44.04 16.79 43.85 19.34 44.28 24.84 44.43 26.78"/>
          <polygon class="cls-17" points="44.04 16.79 40.1 16.84 38.57 14.16 41.08 10.39 50.48 -3.67 48.18 .81 44.75 7.47 44.43 11.61 44.04 16.79"/>
          <polygon class="cls-45" points="52.43 39.86 44.32 43.29 47.49 33.4 55.85 28.58 52.43 39.86"/>
          <polygon class="cls-53" points="45.17 49.81 34.76 46.29 35.66 43.81 38.87 40.71 47.49 33.4 44.32 43.29 45.17 49.81"/>
          <polygon class="cls-29" points="57.95 6.07 55.76 6.96 47.73 .44 50.48 -3.67 53.99 .91 57.95 6.07"/>
          <polygon class="cls-10" points="55.76 6.96 44.43 11.61 44.75 7.47 48.18 .81 55.76 6.96"/>
          <polygon class="cls-50" points="54.08 23.19 48.61 23.15 44.28 24.84 43.85 19.34 44.04 16.79 44.43 11.61 50.95 19.43 54.08 23.19"/>
          <polygon class="cls-22" points="57.95 6.07 50.95 19.43 44.43 11.61 55.76 6.96 57.95 6.07"/>
          <polygon class="cls-42" points="41.08 10.39 21.16 9.07 17.38 8.82 20.91 2.99 33.97 -18.54 35.81 -21.57 35.71 -17.9 35.33 -2.61 41.08 10.39"/>
          <polygon class="cls-19" points="51.77 -4.97 51.03 -2.95 50.48 -3.67 41.08 10.39 35.33 -2.61 52.07 -12.28 51.77 -4.97"/>
          <polygon class="cls-41" points="33.97 -18.54 20.91 2.99 16.12 4.91 17.81 -4.69 19.45 -9.71 20.87 -13.84 28.48 -16.57 33.97 -18.54"/>
          <polygon class="cls-58" points="16.12 4.91 10.98 6.96 9.26 -15.23 17.81 -4.69 16.12 4.91"/>
          <polygon class="cls-13" points="10.98 6.96 -.67 -5.46 -8.29 -13.6 -6.85 -18.88 -3.54 -31 2.59 -23.44 9.26 -15.23 10.98 6.96"/>
          <polygon class="cls-54" points="55.81 -17.18 59.76 -14.86 56.29 -5.37 53.99 .91 51.03 -2.95 55.81 -17.18"/>
          <polygon class="cls-5" points="52.43 39.86 48.92 44.68 45.17 49.81 44.32 43.29 52.43 39.86"/>
          <polygon class="cls-30" points="48.93 51.19 45.17 49.81 48.92 44.68 48.93 51.19"/>
          <polygon class="cls-12" points="69.59 18.08 67.38 15.46 68.98 13.92 69.59 18.08"/>
        </g>
        <g>
          <polygon class="cls-35" points="144.61 24.41 142.08 28.31 139.83 31.77 133.92 9.63 144.61 24.41"/>
          <polygon class="cls-57" points="133.92 9.63 142.78 27.22 139.83 31.77 133.92 9.63"/>
        </g>
        <g>
          <polygon class="cls-35" points="6.9 24.41 4.37 28.31 2.12 31.77 -3.79 9.63 6.9 24.41"/>
          <polygon class="cls-36" points="10.2 32.6 4.37 28.31 6.9 24.41 9.62 24.53 12.98 23.98 10.2 32.6"/>
          <polygon class="cls-25" points="10.2 32.6 9.35 33.65 6.96 36.57 3.09 41.29 3.42 33.85 2.12 31.77 4.37 28.31 10.2 32.6"/>
          <polygon class="cls-49" points="15.39 23.59 12.98 23.98 9.62 24.53 10.11 16.03 15.39 23.59"/>
          <path class="cls-43" d="M9.35,33.65l.86-1.05,2.78-8.62,2.41-.39,2.57-1.18.46,5.16.58,6.41-9.66-.33ZM14.36,27.14l.58,1.67,2.82-.11-.98-3.07-2.43,1.51Z"/>
          <polygon class="cls-60" points="19.22 44.74 14.18 44.93 6.96 36.57 9.35 33.65 19.01 33.98 19.22 44.74"/>
          <polygon class="cls-44" points="14.18 44.93 9.45 45.11 3.09 41.29 6.96 36.57 14.18 44.93"/>
          <polygon class="cls-38" points="32.39 37.21 19.22 44.74 19.01 33.98 18.43 27.57 24.38 28.15 24.84 28.68 32.39 37.21"/>
          <polygon class="cls-3" points="51.2 15.91 42.08 23.3 42.08 23.3 41.74 20.67 25.7 28.28 26.9 19.76 26.9 19.76 33.84 18.41 37.42 8.8 47.74 3.4 51.2 15.91"/>
          <polygon class="cls-24" points="44.66 43.04 42.08 41.28 39.46 43.8 32.39 37.21 24.84 28.68 24.87 28.67 25.7 28.28 41.74 20.67 42.08 23.3 44.66 43.04 44.66 43.04"/>
          <polygon class="cls-27" points="68.19 46.61 65.25 54.64 41.44 46.11 41.55 45.74 39.46 43.8 42.08 41.28 44.66 43.04 44.66 43.04 62 33.19 62.01 33.19 60.56 38.48 68.19 46.61"/>
          <polygon class="cls-23" points="33.84 18.41 26.9 19.76 21.38 20.83 29.52 10.95 33.84 18.41"/>
          <polygon class="cls-28" points="33.84 18.41 29.52 10.95 29.59 .89 34.65 8.95 33.84 18.41"/>
          <polygon class="cls-52" points="37.42 8.8 33.84 18.41 34.65 8.95 33.8 2.11 37.42 8.8"/>
          <polygon class="cls-51" points="89.73 38.24 83.23 26.36 71.45 28.63 65.31 21.07 62.93 18.14 62.93 18.14 70.5 9.98 77.51 13.91 85.41 17.58 89.88 18.16 89.68 26.74 89.73 38.24"/>
          <polygon class="cls-59" points="51.2 15.91 47.74 3.4 63.19 5.88 70.5 9.98 62.93 18.14 61.55 16.44 58.06 10.34 51.2 15.91"/>
          <polygon class="cls-4" points="108.04 21.28 104.66 30.51 102.82 33.53 97.34 35.5 89.88 18.16 95.52 18.89 100 19.48 103.61 19.95 106.51 20.33 108.04 21.28"/>
          <polygon class="cls-60" points="93.19 68.73 79.85 66.49 71.9 62.21 79.83 59.04 84.97 56.98 89.77 55.06 86.23 60.89 90.02 61.14 90.02 61.15 93.19 68.73"/>
          <polygon class="cls-38" points="109.94 62.46 107.42 66.23 93.92 68.86 93.19 68.73 90.02 61.15 90.02 61.14 109.94 62.46"/>
          <polygon class="cls-60" points="79.83 59.04 71.9 62.21 64.03 57.98 68.19 46.61 79.83 59.04"/>
          <path class="cls-47" d="M56.07,51.36l-4.31,6.92-2,1.93s-10.41-6.08-10.61-6.2l2.29-7.89,14.63,5.24Z"/>
          <polygon class="cls-40" points="65.25 54.64 64.03 57.98 62.58 61.66 51.46 61.72 51.76 58.27 56.07 51.36 65.25 54.64"/>
          <polygon class="cls-1" points="39.03 76.62 31.47 75.73 25.57 73.12 33.74 67.25 38.96 70.65 39.03 76.62"/>
          <polygon class="cls-2" points="44.01 65.77 38.96 70.65 33.74 67.25 36.38 60.94 44.01 65.77"/>
          <path class="cls-33" d="M49.76,60.2l-5.75,5.56-7.62-4.82,2.43-5.8.33-1.14c.2.12,10.57,6.24,10.61,6.2Z"/>
          <polygon class="cls-15" points="62.58 61.66 60.21 67.7 50.69 70.59 51.46 61.72 62.58 61.66"/>
          <polygon class="cls-60" points="60.21 67.7 56.26 74.59 50.49 72.87 50.69 70.59 60.21 67.7"/>
          <polygon class="cls-39" points="57.65 81.57 47.38 78.9 44.73 75.54 50.49 72.87 56.26 74.59 57.65 81.57"/>
          <polygon class="cls-37" points="120.92 39.8 104.18 49.47 104.57 34.17 114.57 27.65 116.32 26.51 119.96 28.8 122.27 29.64 122.1 30.66 121.05 36.67 120.92 39.8"/>
          <polygon class="cls-16" points="116.32 26.51 116.32 26.51 114.57 27.65 104.57 34.17 104.66 30.51 108.04 21.29 110.09 22.58 116.32 26.51"/>
          <polygon class="cls-46" points="130.07 32.44 128.42 33.19 124.67 34.89 122.88 30.97 122.27 29.64 130.07 32.44"/>
          <polygon class="cls-6" points="136.55 40.44 128.62 37.21 124.67 34.89 128.42 33.19 130.07 32.44 131.76 34.52 131.76 34.53 136.55 40.44"/>
          <polygon class="cls-20" points="141.5 57.38 137.83 65.99 136.23 67.54 135.32 68.51 127.84 59.4 140.63 51.35 141 53.9 141.5 57.38"/>
          <polygon class="cls-11" points="140.63 51.35 127.84 59.4 127.84 59.4 126.8 58.14 122.84 52.98 125.14 46.7 133.7 50.08 136.55 40.44 139.6 44.2 140.29 48.98 140.63 51.35"/>
          <polygon class="cls-9" points="135.32 68.51 128.99 75.31 128.99 75.31 122.94 75.27 119.8 71.5 126.8 58.14 127.84 59.4 127.84 59.4 135.32 68.51"/>
          <polygon class="cls-5" points="125.05 79.54 124.71 80.65 116.35 85.47 107.72 92.79 111.83 85.06 113.53 81.87 113.29 78.85 113.14 76.91 117.47 75.23 122.94 75.27 128.99 75.31 125.05 79.54"/>
          <polygon class="cls-48" points="111.83 85.06 107.72 92.79 101.81 93.4 101.22 91.12 108.99 83.49 111.83 85.06"/>
          <polygon class="cls-31" points="113.53 81.87 111.83 85.06 108.99 83.49 109.32 77.4 111.59 80.67 113.29 78.85 113.53 81.87"/>
          <polygon class="cls-60" points="113.29 78.85 111.59 80.67 109.32 77.4 109.7 70.24 108.95 68.92 112.89 68.87 112.7 71.41 113.14 76.91 113.29 78.85"/>
          <polygon class="cls-17" points="112.89 68.87 108.95 68.92 107.42 66.23 109.94 62.46 119.33 48.4 117.03 52.88 113.6 59.54 113.29 63.68 112.89 68.87"/>
          <polygon class="cls-45" points="121.28 91.93 113.18 95.36 116.35 85.47 124.71 80.65 121.28 91.93"/>
          <polygon class="cls-53" points="114.02 101.88 103.61 98.36 104.52 95.88 107.72 92.79 116.35 85.47 113.18 95.36 114.02 101.88"/>
          <polygon class="cls-57" points="17.76 28.7 14.94 28.8 14.36 27.14 16.79 25.63 17.76 28.7"/>
          <polygon class="cls-29" points="126.8 58.14 124.62 59.04 116.58 52.52 119.33 48.4 122.84 52.98 126.8 58.14"/>
          <polygon class="cls-10" points="124.62 59.04 113.29 63.68 113.6 59.54 117.03 52.88 124.62 59.04"/>
          <polygon class="cls-50" points="122.94 75.27 117.47 75.23 113.14 76.91 112.7 71.41 112.89 68.87 113.29 63.68 119.8 71.5 122.94 75.27"/>
          <polygon class="cls-22" points="126.8 58.14 119.8 71.5 113.29 63.68 124.62 59.04 126.8 58.14"/>
          <polygon class="cls-56" points="133.7 50.08 125.14 46.7 128.62 37.21 136.55 40.44 133.7 50.08"/>
          <polygon class="cls-42" points="109.94 62.46 90.02 61.14 86.23 60.89 89.77 55.06 102.82 33.53 104.66 30.51 104.57 34.17 104.18 49.47 109.94 62.46"/>
          <polygon class="cls-19" points="120.62 47.1 119.88 49.12 119.33 48.4 109.94 62.46 104.18 49.47 120.92 39.8 120.62 47.1"/>
          <polygon class="cls-41" points="102.82 33.53 89.77 55.06 84.97 56.98 86.67 47.38 88.3 42.36 89.73 38.24 97.34 35.5 102.82 33.53"/>
          <polygon class="cls-58" points="84.97 56.98 79.83 59.04 78.12 36.84 86.67 47.38 84.97 56.98"/>
          <polygon class="cls-14" points="88.99 40.37 86.67 47.38 78.12 36.84 71.45 28.63 83.23 26.36 89.73 38.24 88.99 40.37"/>
          <path class="cls-61" d="M78.12,36.84"/>
          <path class="cls-32" d="M39.15,54h0"/>
          <polygon class="cls-55" points="25.7 28.28 24.87 28.67 24.84 28.68 24.38 28.15 18.43 27.57 17.97 22.4 21.38 20.83 26.9 19.76 26.9 19.76 25.7 28.28"/>
          <polygon class="cls-14" points="65.31 21.07 42.09 23.3 51.2 15.91 58.06 10.34 61.55 16.44 62.93 18.14 62.93 18.14 65.31 21.07"/>
          <polygon class="cls-32" points="62.01 33.19 62 33.19 44.66 43.04 42.08 23.3 42.09 23.3 65.31 21.07 62.01 33.19"/>
          <polygon class="cls-13" points="79.83 59.04 68.19 46.61 60.56 38.48 62.01 33.19 65.31 21.07 71.45 28.63 78.12 36.84 79.83 59.04"/>
          <polygon class="cls-18" points="97.34 35.5 89.73 38.24 89.68 26.74 89.88 18.16 97.34 35.5"/>
          <path class="cls-61" d="M51.2,15.91"/>
          <polygon class="cls-7" points="122.27 29.64 124.67 34.89 119.88 49.12 120.92 39.8 121.05 36.67 122.27 29.64"/>
          <polygon class="cls-54" points="124.67 34.89 128.62 37.21 125.14 46.7 122.84 52.98 119.88 49.12 124.67 34.89"/>
          <polygon class="cls-5" points="121.28 91.93 117.77 96.75 114.02 101.88 113.18 95.36 121.28 91.93"/>
          <polygon class="cls-30" points="117.79 103.26 114.02 101.88 117.77 96.75 117.79 103.26"/>
          <line class="cls-21" x1="42.08" y1="23.3" x2="42.09" y2="23.3"/>
          <polygon class="cls-12" points="138.44 70.16 136.23 67.54 137.83 65.99 138.44 70.16"/>
          <polygon class="cls-57" points="-3.79 9.63 5.07 27.22 2.12 31.77 -3.79 9.63"/>
          <polygon class="cls-8" points="10.11 16.03 12.14 24.12 9.62 24.53 10.11 16.03"/>
        </g>
        <g>
          <polygon class="cls-20" points="3.79 57.38 .12 65.99 -1.48 67.54 -2.39 68.51 -9.87 59.4 2.92 51.35 3.29 53.9 3.79 57.38"/>
          <polygon class="cls-11" points="2.92 51.35 -9.87 59.4 -9.87 59.4 -10.91 58.14 -14.87 52.98 -12.57 46.7 -4.01 50.08 -1.16 40.44 1.89 44.2 2.58 48.98 2.92 51.35"/>
          <polygon class="cls-12" points=".73 70.16 -1.48 67.54 .12 65.99 .73 70.16"/>
        </g>
        <g>
          <polygon class="cls-35" points="75.75 76.48 73.22 80.38 70.97 83.84 65.06 61.71 75.75 76.48"/>
          <polygon class="cls-36" points="79.06 84.67 73.22 80.38 75.75 76.48 78.47 76.6 81.84 76.05 79.06 84.67"/>
          <polygon class="cls-25" points="79.06 84.67 78.2 85.72 75.81 88.64 71.95 93.37 72.28 85.92 70.97 83.84 73.22 80.38 79.06 84.67"/>
          <polygon class="cls-49" points="84.25 75.66 81.84 76.05 78.47 76.6 78.97 68.1 84.25 75.66"/>
          <path class="cls-43" d="M78.2,85.72l.86-1.05,2.78-8.62,2.41-.39,2.57-1.18.46,5.16.58,6.41-9.66-.33ZM83.21,79.21l.58,1.67,2.82-.11-.98-3.07-2.43,1.51Z"/>
          <polygon class="cls-60" points="88.08 96.81 83.04 97 75.81 88.64 78.2 85.72 87.86 86.05 88.08 96.81"/>
          <polygon class="cls-44" points="83.04 97 78.31 97.18 71.95 93.37 75.81 88.64 83.04 97"/>
          <polygon class="cls-38" points="101.24 89.28 88.08 96.81 87.86 86.05 87.28 79.64 93.24 80.23 93.7 80.75 101.24 89.28"/>
          <polygon class="cls-3" points="120.06 67.98 110.94 75.38 110.94 75.38 110.59 72.74 94.55 80.36 95.76 71.84 95.76 71.83 102.69 70.49 106.28 60.87 116.6 55.47 120.06 67.98"/>
          <polygon class="cls-24" points="113.52 95.12 110.94 93.35 108.31 95.87 101.24 89.28 93.7 80.75 93.72 80.74 94.55 80.36 110.59 72.74 110.94 75.38 113.51 95.11 113.52 95.12"/>
          <polygon class="cls-27" points="137.04 98.68 134.1 106.71 110.29 98.19 110.4 97.81 108.31 95.87 110.94 93.35 113.52 95.12 113.51 95.11 130.86 85.27 130.86 85.27 129.42 90.55 137.04 98.68"/>
          <polygon class="cls-23" points="102.69 70.49 95.76 71.83 90.23 72.91 98.38 63.02 102.69 70.49"/>
          <polygon class="cls-28" points="102.69 70.49 98.38 63.02 98.44 52.96 103.51 61.02 102.69 70.49"/>
          <polygon class="cls-52" points="106.28 60.87 102.69 70.49 103.51 61.02 102.65 54.18 106.28 60.87"/>
          <polygon class="cls-51" points="158.58 90.31 152.08 78.43 140.3 80.7 134.17 73.14 131.78 70.21 131.78 70.21 139.36 62.05 146.36 65.98 154.27 69.65 158.73 70.23 158.54 78.81 158.58 90.31"/>
          <polygon class="cls-59" points="120.06 67.98 116.6 55.47 132.04 57.96 139.36 62.05 131.78 70.21 130.4 68.51 126.92 62.42 120.06 67.98"/>
          <polygon class="cls-60" points="148.69 111.11 140.75 114.28 132.88 110.05 137.04 98.68 148.69 111.11"/>
          <path class="cls-47" d="M124.93,103.43l-4.31,6.92-2,1.93s-10.41-6.08-10.61-6.2l2.29-7.89,14.63,5.24Z"/>
          <polygon class="cls-40" points="134.1 106.71 132.88 110.05 131.43 113.74 120.32 113.79 120.62 110.34 124.93 103.43 134.1 106.71"/>
          <polygon class="cls-57" points="86.62 80.77 83.8 80.88 83.21 79.21 85.64 77.7 86.62 80.77"/>
          <polygon class="cls-55" points="94.55 80.36 93.72 80.74 93.7 80.75 93.24 80.23 87.28 79.64 86.82 74.48 90.23 72.91 95.76 71.83 95.76 71.84 94.55 80.36"/>
          <polygon class="cls-14" points="134.17 73.14 110.94 75.37 120.06 67.98 126.92 62.42 130.4 68.51 131.78 70.21 131.78 70.21 134.17 73.14"/>
          <polygon class="cls-32" points="130.86 85.27 130.86 85.27 113.51 95.11 110.94 75.38 110.94 75.37 134.17 73.14 130.86 85.27"/>
          <polygon class="cls-13" points="148.69 111.11 137.04 98.68 129.42 90.55 130.86 85.27 134.17 73.14 140.3 80.7 146.97 88.92 148.69 111.11"/>
          <path class="cls-61" d="M120.06,67.98"/>
          <line class="cls-21" x1="110.94" y1="75.38" x2="110.94" y2="75.37"/>
          <polygon class="cls-57" points="65.06 61.71 73.92 79.3 70.97 83.84 65.06 61.71"/>
          <polygon class="cls-8" points="78.97 68.1 81 76.19 78.47 76.6 78.97 68.1"/>
        </g>
        <g>
          <polygon class="cls-51" points="20.87 90.31 14.37 78.43 2.59 80.7 -3.54 73.14 -5.93 70.21 -5.93 70.21 1.65 62.05 8.65 65.98 16.56 69.65 21.02 70.23 20.83 78.81 20.87 90.31"/>
          <polygon class="cls-59" points="-17.65 67.98 -21.11 55.47 -5.67 57.96 1.65 62.05 -5.93 70.21 -7.3 68.51 -10.79 62.42 -17.65 67.98"/>
          <polygon class="cls-4" points="39.18 73.36 35.81 82.58 33.97 85.61 28.48 87.58 21.02 70.23 26.66 70.97 31.15 71.55 34.76 72.02 37.66 72.4 39.18 73.36"/>
          <polygon class="cls-60" points="10.98 111.11 3.04 114.28 -4.83 110.05 -.67 98.68 10.98 111.11"/>
          <polygon class="cls-37" points="52.07 91.87 35.33 101.54 35.71 86.25 45.71 79.72 47.46 78.58 51.11 80.88 53.42 81.71 53.24 82.73 52.2 88.74 52.07 91.87"/>
          <polygon class="cls-16" points="47.46 78.58 47.46 78.58 45.71 79.72 35.71 86.25 35.81 82.58 39.18 73.36 41.23 74.65 47.46 78.58"/>
          <polygon class="cls-46" points="61.22 84.51 59.56 85.26 55.81 86.96 54.03 83.05 53.42 81.71 61.22 84.51"/>
          <polygon class="cls-6" points="67.7 92.52 59.76 89.28 55.81 86.96 59.56 85.26 61.22 84.51 62.9 86.6 62.91 86.6 67.7 92.52"/>
          <polygon class="cls-20" points="72.65 109.45 68.98 118.06 67.38 119.61 66.46 120.59 58.99 111.47 71.78 103.43 72.14 105.97 72.65 109.45"/>
          <polygon class="cls-11" points="71.78 103.43 58.99 111.47 58.99 111.47 57.95 110.21 53.99 105.05 56.29 98.77 64.85 102.15 67.7 92.52 70.74 96.28 71.43 101.06 71.78 103.43"/>
          <polygon class="cls-17" points="44.04 120.94 40.1 120.99 38.57 118.31 41.08 114.54 50.48 100.48 48.18 104.95 44.75 111.62 44.43 115.76 44.04 120.94"/>
          <polygon class="cls-29" points="57.95 110.21 55.76 111.11 47.73 104.59 50.48 100.48 53.99 105.05 57.95 110.21"/>
          <polygon class="cls-56" points="64.85 102.15 56.29 98.77 59.76 89.28 67.7 92.52 64.85 102.15"/>
          <polygon class="cls-42" points="41.08 114.54 21.16 113.22 17.38 112.96 20.91 107.14 33.97 85.61 35.81 82.58 35.71 86.25 35.33 101.54 41.08 114.54"/>
          <polygon class="cls-19" points="51.77 99.18 51.03 101.2 50.48 100.48 41.08 114.54 35.33 101.54 52.07 91.87 51.77 99.18"/>
          <polygon class="cls-41" points="33.97 85.61 20.91 107.14 16.12 109.05 17.81 99.45 19.45 94.43 20.87 90.31 28.48 87.58 33.97 85.61"/>
          <polygon class="cls-58" points="16.12 109.05 10.98 111.11 9.26 88.92 17.81 99.45 16.12 109.05"/>
          <polygon class="cls-14" points="20.14 92.44 17.81 99.45 9.26 88.92 2.59 80.7 14.37 78.43 20.87 90.31 20.14 92.44"/>
          <path class="cls-61" d="M9.26,88.92"/>
          <polygon class="cls-13" points="10.98 111.11 -.67 98.68 -8.29 90.55 -6.85 85.27 -3.54 73.14 2.59 80.7 9.26 88.92 10.98 111.11"/>
          <polygon class="cls-18" points="28.48 87.58 20.87 90.31 20.83 78.81 21.02 70.23 28.48 87.58"/>
          <polygon class="cls-7" points="53.42 81.71 55.81 86.96 51.03 101.2 52.07 91.87 52.2 88.74 53.42 81.71"/>
          <polygon class="cls-54" points="55.81 86.96 59.76 89.28 56.29 98.77 53.99 105.05 51.03 101.2 55.81 86.96"/>
        </g>
      </g>
    </pattern>
  </defs>
  <g id="Layer_1-2" data-name="Layer 1">
    <g>
      <rect class="cls-26" width="423.15" height="317.36"/>
      <rect class="cls-34" width="423.15" height="317.36"/>
    </g>
  </g>
</svg>